%TF.GenerationSoftware,KiCad,Pcbnew,7.0.7*%
%TF.CreationDate,2023-09-13T14:32:16-04:00*%
%TF.ProjectId,Alim5,416c696d-352e-46b6-9963-61645f706362,rev?*%
%TF.SameCoordinates,Original*%
%TF.FileFunction,Copper,L3,Inr*%
%TF.FilePolarity,Positive*%
%FSLAX46Y46*%
G04 Gerber Fmt 4.6, Leading zero omitted, Abs format (unit mm)*
G04 Created by KiCad (PCBNEW 7.0.7) date 2023-09-13 14:32:16*
%MOMM*%
%LPD*%
G01*
G04 APERTURE LIST*
G04 Aperture macros list*
%AMRoundRect*
0 Rectangle with rounded corners*
0 $1 Rounding radius*
0 $2 $3 $4 $5 $6 $7 $8 $9 X,Y pos of 4 corners*
0 Add a 4 corners polygon primitive as box body*
4,1,4,$2,$3,$4,$5,$6,$7,$8,$9,$2,$3,0*
0 Add four circle primitives for the rounded corners*
1,1,$1+$1,$2,$3*
1,1,$1+$1,$4,$5*
1,1,$1+$1,$6,$7*
1,1,$1+$1,$8,$9*
0 Add four rect primitives between the rounded corners*
20,1,$1+$1,$2,$3,$4,$5,0*
20,1,$1+$1,$4,$5,$6,$7,0*
20,1,$1+$1,$6,$7,$8,$9,0*
20,1,$1+$1,$8,$9,$2,$3,0*%
G04 Aperture macros list end*
%TA.AperFunction,ComponentPad*%
%ADD10C,1.524000*%
%TD*%
%TA.AperFunction,ComponentPad*%
%ADD11R,2.100000X2.100000*%
%TD*%
%TA.AperFunction,ComponentPad*%
%ADD12C,2.100000*%
%TD*%
%TA.AperFunction,ComponentPad*%
%ADD13RoundRect,0.750000X-0.750000X-0.750000X0.750000X-0.750000X0.750000X0.750000X-0.750000X0.750000X0*%
%TD*%
%TA.AperFunction,ComponentPad*%
%ADD14C,3.000000*%
%TD*%
%TA.AperFunction,ComponentPad*%
%ADD15R,2.400000X2.400000*%
%TD*%
%TA.AperFunction,ComponentPad*%
%ADD16C,2.400000*%
%TD*%
%TA.AperFunction,ComponentPad*%
%ADD17R,3.200000X3.200000*%
%TD*%
%TA.AperFunction,ComponentPad*%
%ADD18O,3.200000X3.200000*%
%TD*%
%TA.AperFunction,ComponentPad*%
%ADD19R,1.200000X1.200000*%
%TD*%
%TA.AperFunction,ComponentPad*%
%ADD20C,1.200000*%
%TD*%
%TA.AperFunction,ViaPad*%
%ADD21C,0.800000*%
%TD*%
G04 APERTURE END LIST*
D10*
%TO.N,Net-(U1-Ipk_Sense)*%
%TO.C,L1*%
X166150000Y-121142000D03*
%TO.N,Net-(D1-A)*%
X166150000Y-103362000D03*
%TD*%
D11*
%TO.N,Net-(D1-K)*%
%TO.C,J3*%
X175340000Y-89030000D03*
D12*
%TO.N,GND*%
X175340000Y-91570000D03*
%TD*%
D13*
%TO.N,Net-(J1-Pin_1)*%
%TO.C,F1*%
X106850000Y-118700000D03*
X114470000Y-118700000D03*
D14*
%TO.N,Net-(U1-VCC)*%
X133440000Y-118700000D03*
X141060000Y-118700000D03*
%TD*%
D15*
%TO.N,Net-(U1-VCC)*%
%TO.C,C1*%
X126200000Y-107610000D03*
D16*
%TO.N,GND*%
X131200000Y-107610000D03*
%TD*%
D17*
%TO.N,Net-(D1-K)*%
%TO.C,D1*%
X148630000Y-93250000D03*
D18*
%TO.N,Net-(D1-A)*%
X163870000Y-93250000D03*
%TD*%
D11*
%TO.N,Net-(J1-Pin_1)*%
%TO.C,J1*%
X108620000Y-91570000D03*
D12*
%TO.N,GND*%
X108620000Y-89030000D03*
%TD*%
D15*
%TO.N,Net-(D1-K)*%
%TO.C,C3*%
X132967246Y-94330000D03*
D16*
%TO.N,GND*%
X140467246Y-94330000D03*
%TD*%
D19*
%TO.N,Net-(U1-timing_capacitor)*%
%TO.C,C2*%
X138890000Y-110252600D03*
D20*
%TO.N,GND*%
X138890000Y-108252600D03*
%TD*%
D21*
%TO.N,GND*%
X128624803Y-95700000D03*
X128624803Y-115700000D03*
X144460000Y-108780000D03*
X118624803Y-95700000D03*
X168624803Y-100700000D03*
X150070000Y-107510000D03*
X153624803Y-115700000D03*
X173624803Y-120700000D03*
X153624803Y-95700000D03*
X163624803Y-115700000D03*
X158624803Y-115700000D03*
X108624803Y-105700000D03*
X168624803Y-95700000D03*
X123624803Y-120700000D03*
X108624803Y-110700000D03*
X143624803Y-100700000D03*
X148624803Y-90700000D03*
X163624803Y-120700000D03*
X138624803Y-115700000D03*
X123624803Y-115700000D03*
X173624803Y-110700000D03*
X158624803Y-95700000D03*
X118624803Y-120700000D03*
X113624803Y-95700000D03*
X128624803Y-90700000D03*
X163624803Y-100700000D03*
X118624803Y-105700000D03*
X118624803Y-100700000D03*
X168624803Y-120700000D03*
X121710000Y-89030000D03*
X123624803Y-105700000D03*
X168624803Y-115700000D03*
X158624803Y-110700000D03*
X123624803Y-90700000D03*
X173624803Y-105700000D03*
X158624803Y-120700000D03*
X128624803Y-105700000D03*
X118624803Y-115700000D03*
X163624803Y-105700000D03*
X138624803Y-90700000D03*
X153624803Y-100700000D03*
X143624803Y-95700000D03*
X118624803Y-110700000D03*
X173624803Y-115700000D03*
X133624803Y-90700000D03*
X150070000Y-104970000D03*
X153624803Y-90700000D03*
X108624803Y-100700000D03*
X108624803Y-95700000D03*
X113624803Y-90700000D03*
X173624803Y-100700000D03*
X173624803Y-95700000D03*
X113624803Y-110700000D03*
X123624803Y-95700000D03*
X163624803Y-110700000D03*
X144460000Y-107510000D03*
X143624803Y-115700000D03*
X128624803Y-110700000D03*
X123624803Y-100700000D03*
X168624803Y-105700000D03*
X133624803Y-100700000D03*
X123624803Y-110700000D03*
X143624803Y-120700000D03*
X138624803Y-105700000D03*
X133624803Y-110700000D03*
X138624803Y-100700000D03*
X113624803Y-105700000D03*
X143624803Y-90700000D03*
X148624803Y-110700000D03*
X150070000Y-108780000D03*
X158624803Y-90700000D03*
X113624803Y-115700000D03*
X148624803Y-120700000D03*
X148624803Y-100700000D03*
X133624803Y-105700000D03*
X128624803Y-120700000D03*
X163624803Y-90700000D03*
X144460000Y-104970000D03*
X108624803Y-115700000D03*
X113624803Y-100700000D03*
X138624803Y-120700000D03*
X168624803Y-90700000D03*
X128624803Y-100700000D03*
X158624803Y-100700000D03*
X150070000Y-106240000D03*
X158624803Y-105700000D03*
X148624803Y-115700000D03*
X133624803Y-115700000D03*
X168624803Y-110700000D03*
%TD*%
%TA.AperFunction,Conductor*%
%TO.N,Net-(D1-K)*%
G36*
X179132539Y-85779685D02*
G01*
X179178294Y-85832489D01*
X179189500Y-85884000D01*
X179189500Y-123095500D01*
X179169815Y-123162539D01*
X179117011Y-123208294D01*
X179065500Y-123219500D01*
X104914000Y-123219500D01*
X104846961Y-123199815D01*
X104801206Y-123147011D01*
X104790000Y-123095500D01*
X104790000Y-120165746D01*
X104809685Y-120098707D01*
X104862489Y-120052952D01*
X104931647Y-120043008D01*
X104995203Y-120072033D01*
X105015928Y-120095130D01*
X105130014Y-120259803D01*
X105290196Y-120419985D01*
X105476404Y-120548991D01*
X105476405Y-120548991D01*
X105476409Y-120548994D01*
X105581995Y-120596953D01*
X105682661Y-120642678D01*
X105682662Y-120642678D01*
X105682664Y-120642679D01*
X105902331Y-120698030D01*
X106017270Y-120707075D01*
X106035362Y-120708500D01*
X106035364Y-120708500D01*
X107664638Y-120708500D01*
X107681577Y-120707166D01*
X107797669Y-120698030D01*
X108017336Y-120642679D01*
X108223591Y-120548994D01*
X108409802Y-120419986D01*
X108569986Y-120259802D01*
X108698994Y-120073591D01*
X108792679Y-119867336D01*
X108848030Y-119647669D01*
X108858500Y-119514638D01*
X112461500Y-119514638D01*
X112471970Y-119647668D01*
X112527321Y-119867338D01*
X112603508Y-120035067D01*
X112620298Y-120072033D01*
X112621008Y-120073595D01*
X112750014Y-120259803D01*
X112910196Y-120419985D01*
X113096404Y-120548991D01*
X113096405Y-120548991D01*
X113096409Y-120548994D01*
X113201995Y-120596953D01*
X113302661Y-120642678D01*
X113302662Y-120642678D01*
X113302664Y-120642679D01*
X113522331Y-120698030D01*
X113637270Y-120707075D01*
X113655362Y-120708500D01*
X113655364Y-120708500D01*
X115284638Y-120708500D01*
X115301577Y-120707166D01*
X115392636Y-120700000D01*
X117711299Y-120700000D01*
X117731261Y-120889928D01*
X117731262Y-120889931D01*
X117790273Y-121071549D01*
X117790276Y-121071556D01*
X117885763Y-121236944D01*
X118013550Y-121378866D01*
X118168051Y-121491118D01*
X118342515Y-121568794D01*
X118529316Y-121608500D01*
X118720290Y-121608500D01*
X118907091Y-121568794D01*
X119081555Y-121491118D01*
X119236056Y-121378866D01*
X119363843Y-121236944D01*
X119459330Y-121071556D01*
X119518345Y-120889928D01*
X119538307Y-120700000D01*
X122711299Y-120700000D01*
X122731261Y-120889928D01*
X122731262Y-120889931D01*
X122790273Y-121071549D01*
X122790276Y-121071556D01*
X122885763Y-121236944D01*
X123013550Y-121378866D01*
X123168051Y-121491118D01*
X123342515Y-121568794D01*
X123529316Y-121608500D01*
X123720290Y-121608500D01*
X123907091Y-121568794D01*
X124081555Y-121491118D01*
X124236056Y-121378866D01*
X124363843Y-121236944D01*
X124459330Y-121071556D01*
X124518345Y-120889928D01*
X124538307Y-120700000D01*
X127711299Y-120700000D01*
X127731261Y-120889928D01*
X127731262Y-120889931D01*
X127790273Y-121071549D01*
X127790276Y-121071556D01*
X127885763Y-121236944D01*
X128013550Y-121378866D01*
X128168051Y-121491118D01*
X128342515Y-121568794D01*
X128529316Y-121608500D01*
X128720290Y-121608500D01*
X128907091Y-121568794D01*
X129081555Y-121491118D01*
X129236056Y-121378866D01*
X129363843Y-121236944D01*
X129459330Y-121071556D01*
X129518345Y-120889928D01*
X129538307Y-120700000D01*
X129518345Y-120510072D01*
X129459330Y-120328444D01*
X129363843Y-120163056D01*
X129248601Y-120035067D01*
X129236057Y-120021135D01*
X129189159Y-119987061D01*
X129081555Y-119908882D01*
X128907091Y-119831206D01*
X128907089Y-119831205D01*
X128720290Y-119791500D01*
X128529316Y-119791500D01*
X128342517Y-119831205D01*
X128168049Y-119908883D01*
X128013548Y-120021135D01*
X127885762Y-120163057D01*
X127790276Y-120328443D01*
X127790273Y-120328450D01*
X127731262Y-120510068D01*
X127731261Y-120510072D01*
X127711299Y-120700000D01*
X124538307Y-120700000D01*
X124518345Y-120510072D01*
X124459330Y-120328444D01*
X124363843Y-120163056D01*
X124248601Y-120035067D01*
X124236057Y-120021135D01*
X124189159Y-119987061D01*
X124081555Y-119908882D01*
X123907091Y-119831206D01*
X123907089Y-119831205D01*
X123720290Y-119791500D01*
X123529316Y-119791500D01*
X123342517Y-119831205D01*
X123168049Y-119908883D01*
X123013548Y-120021135D01*
X122885762Y-120163057D01*
X122790276Y-120328443D01*
X122790273Y-120328450D01*
X122731262Y-120510068D01*
X122731261Y-120510072D01*
X122711299Y-120700000D01*
X119538307Y-120700000D01*
X119518345Y-120510072D01*
X119459330Y-120328444D01*
X119363843Y-120163056D01*
X119248601Y-120035067D01*
X119236057Y-120021135D01*
X119189159Y-119987061D01*
X119081555Y-119908882D01*
X118907091Y-119831206D01*
X118907089Y-119831205D01*
X118720290Y-119791500D01*
X118529316Y-119791500D01*
X118342517Y-119831205D01*
X118168049Y-119908883D01*
X118013548Y-120021135D01*
X117885762Y-120163057D01*
X117790276Y-120328443D01*
X117790273Y-120328450D01*
X117731262Y-120510068D01*
X117731261Y-120510072D01*
X117711299Y-120700000D01*
X115392636Y-120700000D01*
X115417669Y-120698030D01*
X115637336Y-120642679D01*
X115843591Y-120548994D01*
X116029802Y-120419986D01*
X116189986Y-120259802D01*
X116318994Y-120073591D01*
X116412679Y-119867336D01*
X116468030Y-119647669D01*
X116478500Y-119514636D01*
X116478500Y-118700000D01*
X131426807Y-118700000D01*
X131445557Y-118974130D01*
X131445558Y-118974132D01*
X131501458Y-119243141D01*
X131501463Y-119243158D01*
X131593476Y-119502056D01*
X131719889Y-119746024D01*
X131719893Y-119746030D01*
X131878340Y-119970499D01*
X131878343Y-119970502D01*
X132065889Y-120171314D01*
X132279031Y-120344718D01*
X132279033Y-120344719D01*
X132279034Y-120344720D01*
X132513801Y-120487485D01*
X132655403Y-120548991D01*
X132765823Y-120596953D01*
X133030404Y-120671085D01*
X133269720Y-120703978D01*
X133302614Y-120708500D01*
X133302615Y-120708500D01*
X133577386Y-120708500D01*
X133606733Y-120704466D01*
X133639225Y-120700000D01*
X137711299Y-120700000D01*
X137731261Y-120889928D01*
X137731262Y-120889931D01*
X137790273Y-121071549D01*
X137790276Y-121071556D01*
X137885763Y-121236944D01*
X138013550Y-121378866D01*
X138168051Y-121491118D01*
X138342515Y-121568794D01*
X138529316Y-121608500D01*
X138720290Y-121608500D01*
X138907091Y-121568794D01*
X139081555Y-121491118D01*
X139236056Y-121378866D01*
X139363843Y-121236944D01*
X139459330Y-121071556D01*
X139518345Y-120889928D01*
X139538307Y-120700000D01*
X139518345Y-120510072D01*
X139459330Y-120328444D01*
X139397238Y-120220899D01*
X139380766Y-120153000D01*
X139403619Y-120086973D01*
X139458540Y-120043782D01*
X139528093Y-120037141D01*
X139590196Y-120069157D01*
X139595249Y-120074263D01*
X139685889Y-120171314D01*
X139899031Y-120344718D01*
X139899033Y-120344719D01*
X139899034Y-120344720D01*
X140133801Y-120487485D01*
X140275403Y-120548991D01*
X140385823Y-120596953D01*
X140650404Y-120671085D01*
X140889720Y-120703978D01*
X140922614Y-120708500D01*
X140922615Y-120708500D01*
X141197386Y-120708500D01*
X141226733Y-120704466D01*
X141259225Y-120700000D01*
X142711299Y-120700000D01*
X142731261Y-120889928D01*
X142731262Y-120889931D01*
X142790273Y-121071549D01*
X142790276Y-121071556D01*
X142885763Y-121236944D01*
X143013550Y-121378866D01*
X143168051Y-121491118D01*
X143342515Y-121568794D01*
X143529316Y-121608500D01*
X143720290Y-121608500D01*
X143907091Y-121568794D01*
X144081555Y-121491118D01*
X144236056Y-121378866D01*
X144363843Y-121236944D01*
X144459330Y-121071556D01*
X144518345Y-120889928D01*
X144538307Y-120700000D01*
X147711299Y-120700000D01*
X147731261Y-120889928D01*
X147731262Y-120889931D01*
X147790273Y-121071549D01*
X147790276Y-121071556D01*
X147885763Y-121236944D01*
X148013550Y-121378866D01*
X148168051Y-121491118D01*
X148342515Y-121568794D01*
X148529316Y-121608500D01*
X148720290Y-121608500D01*
X148907091Y-121568794D01*
X149081555Y-121491118D01*
X149236056Y-121378866D01*
X149363843Y-121236944D01*
X149459330Y-121071556D01*
X149518345Y-120889928D01*
X149538307Y-120700000D01*
X157711299Y-120700000D01*
X157731261Y-120889928D01*
X157731262Y-120889931D01*
X157790273Y-121071549D01*
X157790276Y-121071556D01*
X157885763Y-121236944D01*
X158013550Y-121378866D01*
X158168051Y-121491118D01*
X158342515Y-121568794D01*
X158529316Y-121608500D01*
X158720290Y-121608500D01*
X158907091Y-121568794D01*
X159081555Y-121491118D01*
X159236056Y-121378866D01*
X159363843Y-121236944D01*
X159459330Y-121071556D01*
X159518345Y-120889928D01*
X159538307Y-120700000D01*
X162711299Y-120700000D01*
X162731261Y-120889928D01*
X162731262Y-120889931D01*
X162790273Y-121071549D01*
X162790276Y-121071556D01*
X162885763Y-121236944D01*
X163013550Y-121378866D01*
X163168051Y-121491118D01*
X163342515Y-121568794D01*
X163529316Y-121608500D01*
X163720290Y-121608500D01*
X163907091Y-121568794D01*
X164081555Y-121491118D01*
X164236056Y-121378866D01*
X164363843Y-121236944D01*
X164418658Y-121142002D01*
X164874647Y-121142002D01*
X164894021Y-121363457D01*
X164894022Y-121363465D01*
X164951558Y-121578191D01*
X164951559Y-121578193D01*
X164951560Y-121578196D01*
X164965691Y-121608500D01*
X165045511Y-121779676D01*
X165045512Y-121779677D01*
X165173023Y-121961781D01*
X165330219Y-122118977D01*
X165512323Y-122246488D01*
X165713804Y-122340440D01*
X165928537Y-122397978D01*
X166086724Y-122411817D01*
X166149998Y-122417353D01*
X166150000Y-122417353D01*
X166150002Y-122417353D01*
X166205365Y-122412509D01*
X166371463Y-122397978D01*
X166586196Y-122340440D01*
X166787677Y-122246488D01*
X166969781Y-122118977D01*
X167126977Y-121961781D01*
X167254488Y-121779677D01*
X167348440Y-121578196D01*
X167405978Y-121363463D01*
X167425353Y-121142000D01*
X167405978Y-120920537D01*
X167348440Y-120705804D01*
X167345734Y-120700000D01*
X167711299Y-120700000D01*
X167731261Y-120889928D01*
X167731262Y-120889931D01*
X167790273Y-121071549D01*
X167790276Y-121071556D01*
X167885763Y-121236944D01*
X168013550Y-121378866D01*
X168168051Y-121491118D01*
X168342515Y-121568794D01*
X168529316Y-121608500D01*
X168720290Y-121608500D01*
X168907091Y-121568794D01*
X169081555Y-121491118D01*
X169236056Y-121378866D01*
X169363843Y-121236944D01*
X169459330Y-121071556D01*
X169518345Y-120889928D01*
X169538307Y-120700000D01*
X172711299Y-120700000D01*
X172731261Y-120889928D01*
X172731262Y-120889931D01*
X172790273Y-121071549D01*
X172790276Y-121071556D01*
X172885763Y-121236944D01*
X173013550Y-121378866D01*
X173168051Y-121491118D01*
X173342515Y-121568794D01*
X173529316Y-121608500D01*
X173720290Y-121608500D01*
X173907091Y-121568794D01*
X174081555Y-121491118D01*
X174236056Y-121378866D01*
X174363843Y-121236944D01*
X174459330Y-121071556D01*
X174518345Y-120889928D01*
X174538307Y-120700000D01*
X174518345Y-120510072D01*
X174459330Y-120328444D01*
X174363843Y-120163056D01*
X174248601Y-120035067D01*
X174236057Y-120021135D01*
X174189159Y-119987061D01*
X174081555Y-119908882D01*
X173907091Y-119831206D01*
X173907089Y-119831205D01*
X173720290Y-119791500D01*
X173529316Y-119791500D01*
X173342517Y-119831205D01*
X173168049Y-119908883D01*
X173013548Y-120021135D01*
X172885762Y-120163057D01*
X172790276Y-120328443D01*
X172790273Y-120328450D01*
X172731262Y-120510068D01*
X172731261Y-120510072D01*
X172711299Y-120700000D01*
X169538307Y-120700000D01*
X169518345Y-120510072D01*
X169459330Y-120328444D01*
X169363843Y-120163056D01*
X169248601Y-120035067D01*
X169236057Y-120021135D01*
X169189159Y-119987061D01*
X169081555Y-119908882D01*
X168907091Y-119831206D01*
X168907089Y-119831205D01*
X168720290Y-119791500D01*
X168529316Y-119791500D01*
X168342517Y-119831205D01*
X168168049Y-119908883D01*
X168013548Y-120021135D01*
X167885762Y-120163057D01*
X167790276Y-120328443D01*
X167790273Y-120328450D01*
X167731262Y-120510068D01*
X167731261Y-120510072D01*
X167711299Y-120700000D01*
X167345734Y-120700000D01*
X167254488Y-120504324D01*
X167254486Y-120504321D01*
X167254485Y-120504319D01*
X167126978Y-120322220D01*
X167064560Y-120259802D01*
X166969781Y-120165023D01*
X166802664Y-120048006D01*
X166787676Y-120037511D01*
X166643973Y-119970502D01*
X166586196Y-119943560D01*
X166586193Y-119943559D01*
X166586191Y-119943558D01*
X166371465Y-119886022D01*
X166371457Y-119886021D01*
X166150002Y-119866647D01*
X166149998Y-119866647D01*
X165928542Y-119886021D01*
X165928535Y-119886022D01*
X165713800Y-119943561D01*
X165512323Y-120037512D01*
X165512319Y-120037514D01*
X165330217Y-120165023D01*
X165173023Y-120322217D01*
X165045514Y-120504319D01*
X165045512Y-120504323D01*
X164951561Y-120705800D01*
X164894022Y-120920535D01*
X164894021Y-120920542D01*
X164874647Y-121141997D01*
X164874647Y-121142002D01*
X164418658Y-121142002D01*
X164459330Y-121071556D01*
X164518345Y-120889928D01*
X164538307Y-120700000D01*
X164518345Y-120510072D01*
X164459330Y-120328444D01*
X164363843Y-120163056D01*
X164248601Y-120035067D01*
X164236057Y-120021135D01*
X164189159Y-119987061D01*
X164081555Y-119908882D01*
X163907091Y-119831206D01*
X163907089Y-119831205D01*
X163720290Y-119791500D01*
X163529316Y-119791500D01*
X163342517Y-119831205D01*
X163168049Y-119908883D01*
X163013548Y-120021135D01*
X162885762Y-120163057D01*
X162790276Y-120328443D01*
X162790273Y-120328450D01*
X162731262Y-120510068D01*
X162731261Y-120510072D01*
X162711299Y-120700000D01*
X159538307Y-120700000D01*
X159518345Y-120510072D01*
X159459330Y-120328444D01*
X159363843Y-120163056D01*
X159248601Y-120035067D01*
X159236057Y-120021135D01*
X159189159Y-119987061D01*
X159081555Y-119908882D01*
X158907091Y-119831206D01*
X158907089Y-119831205D01*
X158720290Y-119791500D01*
X158529316Y-119791500D01*
X158342517Y-119831205D01*
X158168049Y-119908883D01*
X158013548Y-120021135D01*
X157885762Y-120163057D01*
X157790276Y-120328443D01*
X157790273Y-120328450D01*
X157731262Y-120510068D01*
X157731261Y-120510072D01*
X157711299Y-120700000D01*
X149538307Y-120700000D01*
X149518345Y-120510072D01*
X149459330Y-120328444D01*
X149363843Y-120163056D01*
X149248601Y-120035067D01*
X149236057Y-120021135D01*
X149189159Y-119987061D01*
X149081555Y-119908882D01*
X148907091Y-119831206D01*
X148907089Y-119831205D01*
X148720290Y-119791500D01*
X148529316Y-119791500D01*
X148342517Y-119831205D01*
X148168049Y-119908883D01*
X148013548Y-120021135D01*
X147885762Y-120163057D01*
X147790276Y-120328443D01*
X147790273Y-120328450D01*
X147731262Y-120510068D01*
X147731261Y-120510072D01*
X147711299Y-120700000D01*
X144538307Y-120700000D01*
X144518345Y-120510072D01*
X144459330Y-120328444D01*
X144363843Y-120163056D01*
X144248601Y-120035067D01*
X144236057Y-120021135D01*
X144189159Y-119987061D01*
X144081555Y-119908882D01*
X143907091Y-119831206D01*
X143907089Y-119831205D01*
X143720290Y-119791500D01*
X143529316Y-119791500D01*
X143342517Y-119831205D01*
X143168049Y-119908883D01*
X143013548Y-120021135D01*
X142885762Y-120163057D01*
X142790276Y-120328443D01*
X142790273Y-120328450D01*
X142731262Y-120510068D01*
X142731261Y-120510072D01*
X142711299Y-120700000D01*
X141259225Y-120700000D01*
X141469596Y-120671085D01*
X141734177Y-120596953D01*
X141986200Y-120487484D01*
X142220969Y-120344718D01*
X142434111Y-120171314D01*
X142621657Y-119970502D01*
X142780111Y-119746023D01*
X142906523Y-119502058D01*
X142998538Y-119243153D01*
X142998539Y-119243146D01*
X142998541Y-119243141D01*
X143024491Y-119118259D01*
X143054442Y-118974130D01*
X143073193Y-118700000D01*
X143054442Y-118425870D01*
X143035141Y-118332989D01*
X142998541Y-118156858D01*
X142998536Y-118156841D01*
X142906523Y-117897943D01*
X142906523Y-117897942D01*
X142780111Y-117653977D01*
X142780110Y-117653975D01*
X142780106Y-117653969D01*
X142621659Y-117429500D01*
X142525378Y-117326409D01*
X142434111Y-117228686D01*
X142220969Y-117055282D01*
X142220967Y-117055281D01*
X142220965Y-117055279D01*
X141986198Y-116912514D01*
X141734178Y-116803047D01*
X141469602Y-116728916D01*
X141469597Y-116728915D01*
X141469596Y-116728915D01*
X141273559Y-116701970D01*
X141197386Y-116691500D01*
X141197385Y-116691500D01*
X140922615Y-116691500D01*
X140922614Y-116691500D01*
X140650404Y-116728915D01*
X140650397Y-116728916D01*
X140385821Y-116803047D01*
X140133801Y-116912514D01*
X139899034Y-117055279D01*
X139685892Y-117228683D01*
X139498340Y-117429500D01*
X139339893Y-117653969D01*
X139339889Y-117653975D01*
X139213476Y-117897943D01*
X139121463Y-118156841D01*
X139121458Y-118156858D01*
X139065558Y-118425867D01*
X139065557Y-118425869D01*
X139046807Y-118699999D01*
X139065557Y-118974130D01*
X139065558Y-118974132D01*
X139121458Y-119243141D01*
X139121463Y-119243158D01*
X139213476Y-119502056D01*
X139339889Y-119746024D01*
X139339893Y-119746030D01*
X139415478Y-119853109D01*
X139438057Y-119919229D01*
X139421304Y-119987061D01*
X139370537Y-120035067D01*
X139301876Y-120048006D01*
X139241289Y-120024935D01*
X139081559Y-119908884D01*
X138988245Y-119867338D01*
X138907091Y-119831206D01*
X138907089Y-119831205D01*
X138720290Y-119791500D01*
X138529316Y-119791500D01*
X138342517Y-119831205D01*
X138168049Y-119908883D01*
X138013548Y-120021135D01*
X137885762Y-120163057D01*
X137790276Y-120328443D01*
X137790273Y-120328450D01*
X137731262Y-120510068D01*
X137731261Y-120510072D01*
X137711299Y-120700000D01*
X133639225Y-120700000D01*
X133849596Y-120671085D01*
X134114177Y-120596953D01*
X134366200Y-120487484D01*
X134600969Y-120344718D01*
X134814111Y-120171314D01*
X135001657Y-119970502D01*
X135160111Y-119746023D01*
X135286523Y-119502058D01*
X135378538Y-119243153D01*
X135378539Y-119243146D01*
X135378541Y-119243141D01*
X135404491Y-119118259D01*
X135434442Y-118974130D01*
X135453193Y-118700000D01*
X135434442Y-118425870D01*
X135415141Y-118332989D01*
X135378541Y-118156858D01*
X135378536Y-118156841D01*
X135286523Y-117897943D01*
X135286523Y-117897942D01*
X135160111Y-117653977D01*
X135160110Y-117653975D01*
X135160106Y-117653969D01*
X135001659Y-117429500D01*
X134905378Y-117326409D01*
X134814111Y-117228686D01*
X134600969Y-117055282D01*
X134600967Y-117055281D01*
X134600965Y-117055279D01*
X134366198Y-116912514D01*
X134114178Y-116803047D01*
X133995331Y-116769748D01*
X133936089Y-116732706D01*
X133906277Y-116669516D01*
X133915361Y-116600239D01*
X133960456Y-116546871D01*
X133978339Y-116537072D01*
X134081555Y-116491118D01*
X134236056Y-116378866D01*
X134363843Y-116236944D01*
X134459330Y-116071556D01*
X134518345Y-115889928D01*
X134538307Y-115700000D01*
X137711299Y-115700000D01*
X137731261Y-115889928D01*
X137731262Y-115889931D01*
X137790273Y-116071549D01*
X137790276Y-116071556D01*
X137885763Y-116236944D01*
X138013550Y-116378866D01*
X138168051Y-116491118D01*
X138342515Y-116568794D01*
X138529316Y-116608500D01*
X138720290Y-116608500D01*
X138907091Y-116568794D01*
X139081555Y-116491118D01*
X139236056Y-116378866D01*
X139363843Y-116236944D01*
X139459330Y-116071556D01*
X139518345Y-115889928D01*
X139538307Y-115700000D01*
X142711299Y-115700000D01*
X142731261Y-115889928D01*
X142731262Y-115889931D01*
X142790273Y-116071549D01*
X142790276Y-116071556D01*
X142885763Y-116236944D01*
X143013550Y-116378866D01*
X143168051Y-116491118D01*
X143342515Y-116568794D01*
X143529316Y-116608500D01*
X143720290Y-116608500D01*
X143907091Y-116568794D01*
X144081555Y-116491118D01*
X144236056Y-116378866D01*
X144363843Y-116236944D01*
X144459330Y-116071556D01*
X144518345Y-115889928D01*
X144538307Y-115700000D01*
X147711299Y-115700000D01*
X147731261Y-115889928D01*
X147731262Y-115889931D01*
X147790273Y-116071549D01*
X147790276Y-116071556D01*
X147885763Y-116236944D01*
X148013550Y-116378866D01*
X148168051Y-116491118D01*
X148342515Y-116568794D01*
X148529316Y-116608500D01*
X148720290Y-116608500D01*
X148907091Y-116568794D01*
X149081555Y-116491118D01*
X149236056Y-116378866D01*
X149363843Y-116236944D01*
X149459330Y-116071556D01*
X149518345Y-115889928D01*
X149538307Y-115700000D01*
X152711299Y-115700000D01*
X152731261Y-115889928D01*
X152731262Y-115889931D01*
X152790273Y-116071549D01*
X152790276Y-116071556D01*
X152885763Y-116236944D01*
X153013550Y-116378866D01*
X153168051Y-116491118D01*
X153342515Y-116568794D01*
X153529316Y-116608500D01*
X153720290Y-116608500D01*
X153907091Y-116568794D01*
X154081555Y-116491118D01*
X154236056Y-116378866D01*
X154363843Y-116236944D01*
X154459330Y-116071556D01*
X154518345Y-115889928D01*
X154538307Y-115700000D01*
X157711299Y-115700000D01*
X157731261Y-115889928D01*
X157731262Y-115889931D01*
X157790273Y-116071549D01*
X157790276Y-116071556D01*
X157885763Y-116236944D01*
X158013550Y-116378866D01*
X158168051Y-116491118D01*
X158342515Y-116568794D01*
X158529316Y-116608500D01*
X158720290Y-116608500D01*
X158907091Y-116568794D01*
X159081555Y-116491118D01*
X159236056Y-116378866D01*
X159363843Y-116236944D01*
X159459330Y-116071556D01*
X159518345Y-115889928D01*
X159538307Y-115700000D01*
X162711299Y-115700000D01*
X162731261Y-115889928D01*
X162731262Y-115889931D01*
X162790273Y-116071549D01*
X162790276Y-116071556D01*
X162885763Y-116236944D01*
X163013550Y-116378866D01*
X163168051Y-116491118D01*
X163342515Y-116568794D01*
X163529316Y-116608500D01*
X163720290Y-116608500D01*
X163907091Y-116568794D01*
X164081555Y-116491118D01*
X164236056Y-116378866D01*
X164363843Y-116236944D01*
X164459330Y-116071556D01*
X164518345Y-115889928D01*
X164538307Y-115700000D01*
X167711299Y-115700000D01*
X167731261Y-115889928D01*
X167731262Y-115889931D01*
X167790273Y-116071549D01*
X167790276Y-116071556D01*
X167885763Y-116236944D01*
X168013550Y-116378866D01*
X168168051Y-116491118D01*
X168342515Y-116568794D01*
X168529316Y-116608500D01*
X168720290Y-116608500D01*
X168907091Y-116568794D01*
X169081555Y-116491118D01*
X169236056Y-116378866D01*
X169363843Y-116236944D01*
X169459330Y-116071556D01*
X169518345Y-115889928D01*
X169538307Y-115700000D01*
X172711299Y-115700000D01*
X172731261Y-115889928D01*
X172731262Y-115889931D01*
X172790273Y-116071549D01*
X172790276Y-116071556D01*
X172885763Y-116236944D01*
X173013550Y-116378866D01*
X173168051Y-116491118D01*
X173342515Y-116568794D01*
X173529316Y-116608500D01*
X173720290Y-116608500D01*
X173907091Y-116568794D01*
X174081555Y-116491118D01*
X174236056Y-116378866D01*
X174363843Y-116236944D01*
X174459330Y-116071556D01*
X174518345Y-115889928D01*
X174538307Y-115700000D01*
X174518345Y-115510072D01*
X174459330Y-115328444D01*
X174363843Y-115163056D01*
X174236056Y-115021134D01*
X174081555Y-114908882D01*
X173907091Y-114831206D01*
X173907089Y-114831205D01*
X173720290Y-114791500D01*
X173529316Y-114791500D01*
X173342517Y-114831205D01*
X173168049Y-114908883D01*
X173013548Y-115021135D01*
X172885762Y-115163057D01*
X172790276Y-115328443D01*
X172790273Y-115328450D01*
X172731262Y-115510068D01*
X172731261Y-115510072D01*
X172711299Y-115700000D01*
X169538307Y-115700000D01*
X169518345Y-115510072D01*
X169459330Y-115328444D01*
X169363843Y-115163056D01*
X169236056Y-115021134D01*
X169081555Y-114908882D01*
X168907091Y-114831206D01*
X168907089Y-114831205D01*
X168720290Y-114791500D01*
X168529316Y-114791500D01*
X168342517Y-114831205D01*
X168168049Y-114908883D01*
X168013548Y-115021135D01*
X167885762Y-115163057D01*
X167790276Y-115328443D01*
X167790273Y-115328450D01*
X167731262Y-115510068D01*
X167731261Y-115510072D01*
X167711299Y-115700000D01*
X164538307Y-115700000D01*
X164518345Y-115510072D01*
X164459330Y-115328444D01*
X164363843Y-115163056D01*
X164236056Y-115021134D01*
X164081555Y-114908882D01*
X163907091Y-114831206D01*
X163907089Y-114831205D01*
X163720290Y-114791500D01*
X163529316Y-114791500D01*
X163342517Y-114831205D01*
X163168049Y-114908883D01*
X163013548Y-115021135D01*
X162885762Y-115163057D01*
X162790276Y-115328443D01*
X162790273Y-115328450D01*
X162731262Y-115510068D01*
X162731261Y-115510072D01*
X162711299Y-115700000D01*
X159538307Y-115700000D01*
X159518345Y-115510072D01*
X159459330Y-115328444D01*
X159363843Y-115163056D01*
X159236056Y-115021134D01*
X159081555Y-114908882D01*
X158907091Y-114831206D01*
X158907089Y-114831205D01*
X158720290Y-114791500D01*
X158529316Y-114791500D01*
X158342517Y-114831205D01*
X158168049Y-114908883D01*
X158013548Y-115021135D01*
X157885762Y-115163057D01*
X157790276Y-115328443D01*
X157790273Y-115328450D01*
X157731262Y-115510068D01*
X157731261Y-115510072D01*
X157711299Y-115700000D01*
X154538307Y-115700000D01*
X154518345Y-115510072D01*
X154459330Y-115328444D01*
X154363843Y-115163056D01*
X154236056Y-115021134D01*
X154081555Y-114908882D01*
X153907091Y-114831206D01*
X153907089Y-114831205D01*
X153720290Y-114791500D01*
X153529316Y-114791500D01*
X153342517Y-114831205D01*
X153168049Y-114908883D01*
X153013548Y-115021135D01*
X152885762Y-115163057D01*
X152790276Y-115328443D01*
X152790273Y-115328450D01*
X152731262Y-115510068D01*
X152731261Y-115510072D01*
X152711299Y-115700000D01*
X149538307Y-115700000D01*
X149518345Y-115510072D01*
X149459330Y-115328444D01*
X149363843Y-115163056D01*
X149236056Y-115021134D01*
X149081555Y-114908882D01*
X148907091Y-114831206D01*
X148907089Y-114831205D01*
X148720290Y-114791500D01*
X148529316Y-114791500D01*
X148342517Y-114831205D01*
X148168049Y-114908883D01*
X148013548Y-115021135D01*
X147885762Y-115163057D01*
X147790276Y-115328443D01*
X147790273Y-115328450D01*
X147731262Y-115510068D01*
X147731261Y-115510072D01*
X147711299Y-115700000D01*
X144538307Y-115700000D01*
X144518345Y-115510072D01*
X144459330Y-115328444D01*
X144363843Y-115163056D01*
X144236056Y-115021134D01*
X144081555Y-114908882D01*
X143907091Y-114831206D01*
X143907089Y-114831205D01*
X143720290Y-114791500D01*
X143529316Y-114791500D01*
X143342517Y-114831205D01*
X143168049Y-114908883D01*
X143013548Y-115021135D01*
X142885762Y-115163057D01*
X142790276Y-115328443D01*
X142790273Y-115328450D01*
X142731262Y-115510068D01*
X142731261Y-115510072D01*
X142711299Y-115700000D01*
X139538307Y-115700000D01*
X139518345Y-115510072D01*
X139459330Y-115328444D01*
X139363843Y-115163056D01*
X139236056Y-115021134D01*
X139081555Y-114908882D01*
X138907091Y-114831206D01*
X138907089Y-114831205D01*
X138720290Y-114791500D01*
X138529316Y-114791500D01*
X138342517Y-114831205D01*
X138168049Y-114908883D01*
X138013548Y-115021135D01*
X137885762Y-115163057D01*
X137790276Y-115328443D01*
X137790273Y-115328450D01*
X137731262Y-115510068D01*
X137731261Y-115510072D01*
X137711299Y-115700000D01*
X134538307Y-115700000D01*
X134518345Y-115510072D01*
X134459330Y-115328444D01*
X134363843Y-115163056D01*
X134236056Y-115021134D01*
X134081555Y-114908882D01*
X133907091Y-114831206D01*
X133907089Y-114831205D01*
X133720290Y-114791500D01*
X133529316Y-114791500D01*
X133342517Y-114831205D01*
X133168049Y-114908883D01*
X133013548Y-115021135D01*
X132885762Y-115163057D01*
X132790276Y-115328443D01*
X132790273Y-115328450D01*
X132731262Y-115510068D01*
X132731261Y-115510072D01*
X132711299Y-115700000D01*
X132731261Y-115889928D01*
X132731262Y-115889931D01*
X132790273Y-116071549D01*
X132790276Y-116071556D01*
X132885763Y-116236944D01*
X133013550Y-116378866D01*
X133168048Y-116491116D01*
X133172000Y-116493987D01*
X133214665Y-116549317D01*
X133220644Y-116618931D01*
X133188038Y-116680726D01*
X133127199Y-116715083D01*
X133115999Y-116717150D01*
X133030404Y-116728915D01*
X133030397Y-116728916D01*
X132765821Y-116803047D01*
X132513801Y-116912514D01*
X132279034Y-117055279D01*
X132065892Y-117228683D01*
X131878340Y-117429500D01*
X131719893Y-117653969D01*
X131719889Y-117653975D01*
X131593476Y-117897943D01*
X131501463Y-118156841D01*
X131501458Y-118156858D01*
X131445558Y-118425867D01*
X131445557Y-118425869D01*
X131426807Y-118700000D01*
X116478500Y-118700000D01*
X116478500Y-117885364D01*
X116468030Y-117752331D01*
X116412679Y-117532664D01*
X116318994Y-117326409D01*
X116189986Y-117140198D01*
X116189985Y-117140196D01*
X116029802Y-116980014D01*
X116029803Y-116980014D01*
X115843595Y-116851008D01*
X115637338Y-116757321D01*
X115490525Y-116720328D01*
X115417669Y-116701970D01*
X115373324Y-116698480D01*
X115284638Y-116691500D01*
X115284636Y-116691500D01*
X114187386Y-116691500D01*
X114120347Y-116671815D01*
X114074592Y-116619011D01*
X114064648Y-116549853D01*
X114093673Y-116486297D01*
X114114500Y-116467182D01*
X114118215Y-116464482D01*
X114236056Y-116378866D01*
X114363843Y-116236944D01*
X114459330Y-116071556D01*
X114518345Y-115889928D01*
X114538307Y-115700000D01*
X117711299Y-115700000D01*
X117731261Y-115889928D01*
X117731262Y-115889931D01*
X117790273Y-116071549D01*
X117790276Y-116071556D01*
X117885763Y-116236944D01*
X118013550Y-116378866D01*
X118168051Y-116491118D01*
X118342515Y-116568794D01*
X118529316Y-116608500D01*
X118720290Y-116608500D01*
X118907091Y-116568794D01*
X119081555Y-116491118D01*
X119236056Y-116378866D01*
X119363843Y-116236944D01*
X119459330Y-116071556D01*
X119518345Y-115889928D01*
X119538307Y-115700000D01*
X122711299Y-115700000D01*
X122731261Y-115889928D01*
X122731262Y-115889931D01*
X122790273Y-116071549D01*
X122790276Y-116071556D01*
X122885763Y-116236944D01*
X123013550Y-116378866D01*
X123168051Y-116491118D01*
X123342515Y-116568794D01*
X123529316Y-116608500D01*
X123720290Y-116608500D01*
X123907091Y-116568794D01*
X124081555Y-116491118D01*
X124236056Y-116378866D01*
X124363843Y-116236944D01*
X124459330Y-116071556D01*
X124518345Y-115889928D01*
X124538307Y-115700000D01*
X127711299Y-115700000D01*
X127731261Y-115889928D01*
X127731262Y-115889931D01*
X127790273Y-116071549D01*
X127790276Y-116071556D01*
X127885763Y-116236944D01*
X128013550Y-116378866D01*
X128168051Y-116491118D01*
X128342515Y-116568794D01*
X128529316Y-116608500D01*
X128720290Y-116608500D01*
X128907091Y-116568794D01*
X129081555Y-116491118D01*
X129236056Y-116378866D01*
X129363843Y-116236944D01*
X129459330Y-116071556D01*
X129518345Y-115889928D01*
X129538307Y-115700000D01*
X129518345Y-115510072D01*
X129459330Y-115328444D01*
X129363843Y-115163056D01*
X129236056Y-115021134D01*
X129081555Y-114908882D01*
X128907091Y-114831206D01*
X128907089Y-114831205D01*
X128720290Y-114791500D01*
X128529316Y-114791500D01*
X128342517Y-114831205D01*
X128168049Y-114908883D01*
X128013548Y-115021135D01*
X127885762Y-115163057D01*
X127790276Y-115328443D01*
X127790273Y-115328450D01*
X127731262Y-115510068D01*
X127731261Y-115510072D01*
X127711299Y-115700000D01*
X124538307Y-115700000D01*
X124518345Y-115510072D01*
X124459330Y-115328444D01*
X124363843Y-115163056D01*
X124236056Y-115021134D01*
X124081555Y-114908882D01*
X123907091Y-114831206D01*
X123907089Y-114831205D01*
X123720290Y-114791500D01*
X123529316Y-114791500D01*
X123342517Y-114831205D01*
X123168049Y-114908883D01*
X123013548Y-115021135D01*
X122885762Y-115163057D01*
X122790276Y-115328443D01*
X122790273Y-115328450D01*
X122731262Y-115510068D01*
X122731261Y-115510072D01*
X122711299Y-115700000D01*
X119538307Y-115700000D01*
X119518345Y-115510072D01*
X119459330Y-115328444D01*
X119363843Y-115163056D01*
X119236056Y-115021134D01*
X119081555Y-114908882D01*
X118907091Y-114831206D01*
X118907089Y-114831205D01*
X118720290Y-114791500D01*
X118529316Y-114791500D01*
X118342517Y-114831205D01*
X118168049Y-114908883D01*
X118013548Y-115021135D01*
X117885762Y-115163057D01*
X117790276Y-115328443D01*
X117790273Y-115328450D01*
X117731262Y-115510068D01*
X117731261Y-115510072D01*
X117711299Y-115700000D01*
X114538307Y-115700000D01*
X114518345Y-115510072D01*
X114459330Y-115328444D01*
X114363843Y-115163056D01*
X114236056Y-115021134D01*
X114081555Y-114908882D01*
X113907091Y-114831206D01*
X113907089Y-114831205D01*
X113720290Y-114791500D01*
X113529316Y-114791500D01*
X113342517Y-114831205D01*
X113168049Y-114908883D01*
X113013548Y-115021135D01*
X112885762Y-115163057D01*
X112790276Y-115328443D01*
X112790273Y-115328450D01*
X112731262Y-115510068D01*
X112731261Y-115510072D01*
X112711299Y-115700000D01*
X112731261Y-115889928D01*
X112731262Y-115889931D01*
X112790273Y-116071549D01*
X112790276Y-116071556D01*
X112885763Y-116236944D01*
X113013550Y-116378866D01*
X113168051Y-116491118D01*
X113280104Y-116541007D01*
X113333339Y-116586255D01*
X113353661Y-116653104D01*
X113334616Y-116720328D01*
X113282250Y-116766584D01*
X113280949Y-116767184D01*
X113096402Y-116851009D01*
X112910196Y-116980014D01*
X112750014Y-117140196D01*
X112621008Y-117326404D01*
X112527321Y-117532661D01*
X112471970Y-117752331D01*
X112461500Y-117885362D01*
X112461500Y-119514638D01*
X108858500Y-119514638D01*
X108858500Y-119514636D01*
X108858500Y-117885364D01*
X108848030Y-117752331D01*
X108792679Y-117532664D01*
X108698994Y-117326409D01*
X108569986Y-117140198D01*
X108569985Y-117140196D01*
X108409802Y-116980014D01*
X108409803Y-116980014D01*
X108223595Y-116851008D01*
X108017338Y-116757321D01*
X107870525Y-116720328D01*
X107797669Y-116701970D01*
X107753324Y-116698480D01*
X107664638Y-116691500D01*
X107664636Y-116691500D01*
X106035364Y-116691500D01*
X106035362Y-116691500D01*
X105902331Y-116701970D01*
X105682661Y-116757321D01*
X105476404Y-116851008D01*
X105290196Y-116980014D01*
X105130014Y-117140196D01*
X105015928Y-117304869D01*
X104961569Y-117348766D01*
X104892107Y-117356305D01*
X104829596Y-117325094D01*
X104793883Y-117265041D01*
X104790000Y-117234253D01*
X104790000Y-115700000D01*
X107711299Y-115700000D01*
X107731261Y-115889928D01*
X107731262Y-115889931D01*
X107790273Y-116071549D01*
X107790276Y-116071556D01*
X107885763Y-116236944D01*
X108013550Y-116378866D01*
X108168051Y-116491118D01*
X108342515Y-116568794D01*
X108529316Y-116608500D01*
X108720290Y-116608500D01*
X108907091Y-116568794D01*
X109081555Y-116491118D01*
X109236056Y-116378866D01*
X109363843Y-116236944D01*
X109459330Y-116071556D01*
X109518345Y-115889928D01*
X109538307Y-115700000D01*
X109518345Y-115510072D01*
X109459330Y-115328444D01*
X109363843Y-115163056D01*
X109236056Y-115021134D01*
X109081555Y-114908882D01*
X108907091Y-114831206D01*
X108907089Y-114831205D01*
X108720290Y-114791500D01*
X108529316Y-114791500D01*
X108342517Y-114831205D01*
X108168049Y-114908883D01*
X108013548Y-115021135D01*
X107885762Y-115163057D01*
X107790276Y-115328443D01*
X107790273Y-115328450D01*
X107731262Y-115510068D01*
X107731261Y-115510072D01*
X107711299Y-115700000D01*
X104790000Y-115700000D01*
X104790000Y-110700000D01*
X107711299Y-110700000D01*
X107731261Y-110889928D01*
X107731262Y-110889931D01*
X107790273Y-111071549D01*
X107790276Y-111071556D01*
X107885763Y-111236944D01*
X107988093Y-111350594D01*
X107997552Y-111361099D01*
X108013550Y-111378866D01*
X108168051Y-111491118D01*
X108342515Y-111568794D01*
X108529316Y-111608500D01*
X108720290Y-111608500D01*
X108907091Y-111568794D01*
X109081555Y-111491118D01*
X109236056Y-111378866D01*
X109363843Y-111236944D01*
X109459330Y-111071556D01*
X109518345Y-110889928D01*
X109538307Y-110700000D01*
X112711299Y-110700000D01*
X112731261Y-110889928D01*
X112731262Y-110889931D01*
X112790273Y-111071549D01*
X112790276Y-111071556D01*
X112885763Y-111236944D01*
X112988093Y-111350594D01*
X112997552Y-111361099D01*
X113013550Y-111378866D01*
X113168051Y-111491118D01*
X113342515Y-111568794D01*
X113529316Y-111608500D01*
X113720290Y-111608500D01*
X113907091Y-111568794D01*
X114081555Y-111491118D01*
X114236056Y-111378866D01*
X114363843Y-111236944D01*
X114459330Y-111071556D01*
X114518345Y-110889928D01*
X114538307Y-110700000D01*
X117711299Y-110700000D01*
X117731261Y-110889928D01*
X117731262Y-110889931D01*
X117790273Y-111071549D01*
X117790276Y-111071556D01*
X117885763Y-111236944D01*
X117988093Y-111350593D01*
X117997552Y-111361099D01*
X118013550Y-111378866D01*
X118168051Y-111491118D01*
X118342515Y-111568794D01*
X118529316Y-111608500D01*
X118720290Y-111608500D01*
X118907091Y-111568794D01*
X119081555Y-111491118D01*
X119236056Y-111378866D01*
X119363843Y-111236944D01*
X119459330Y-111071556D01*
X119518345Y-110889928D01*
X119538307Y-110700000D01*
X122711299Y-110700000D01*
X122731261Y-110889928D01*
X122731262Y-110889931D01*
X122790273Y-111071549D01*
X122790276Y-111071556D01*
X122885763Y-111236944D01*
X122988093Y-111350593D01*
X122997552Y-111361099D01*
X123013550Y-111378866D01*
X123168051Y-111491118D01*
X123342515Y-111568794D01*
X123529316Y-111608500D01*
X123720290Y-111608500D01*
X123907091Y-111568794D01*
X124081555Y-111491118D01*
X124236056Y-111378866D01*
X124363843Y-111236944D01*
X124459330Y-111071556D01*
X124518345Y-110889928D01*
X124538307Y-110700000D01*
X127711299Y-110700000D01*
X127731261Y-110889928D01*
X127731262Y-110889931D01*
X127790273Y-111071549D01*
X127790276Y-111071556D01*
X127885763Y-111236944D01*
X127988093Y-111350593D01*
X127997552Y-111361099D01*
X128013550Y-111378866D01*
X128168051Y-111491118D01*
X128342515Y-111568794D01*
X128529316Y-111608500D01*
X128720290Y-111608500D01*
X128907091Y-111568794D01*
X129081555Y-111491118D01*
X129236056Y-111378866D01*
X129363843Y-111236944D01*
X129459330Y-111071556D01*
X129518345Y-110889928D01*
X129538307Y-110700000D01*
X132711299Y-110700000D01*
X132731261Y-110889928D01*
X132731262Y-110889931D01*
X132790273Y-111071549D01*
X132790276Y-111071556D01*
X132885763Y-111236944D01*
X132988093Y-111350594D01*
X132997552Y-111361099D01*
X133013550Y-111378866D01*
X133168051Y-111491118D01*
X133342515Y-111568794D01*
X133529316Y-111608500D01*
X133720290Y-111608500D01*
X133907091Y-111568794D01*
X134081555Y-111491118D01*
X134236056Y-111378866D01*
X134363843Y-111236944D01*
X134459330Y-111071556D01*
X134518345Y-110889928D01*
X134538307Y-110700000D01*
X134518345Y-110510072D01*
X134459330Y-110328444D01*
X134363843Y-110163056D01*
X134236056Y-110021134D01*
X134081555Y-109908882D01*
X133907091Y-109831206D01*
X133907089Y-109831205D01*
X133720290Y-109791500D01*
X133529316Y-109791500D01*
X133342517Y-109831205D01*
X133168049Y-109908883D01*
X133013548Y-110021135D01*
X132885762Y-110163057D01*
X132790276Y-110328443D01*
X132790273Y-110328450D01*
X132731262Y-110510068D01*
X132731261Y-110510072D01*
X132711299Y-110700000D01*
X129538307Y-110700000D01*
X129518345Y-110510072D01*
X129459330Y-110328444D01*
X129363843Y-110163056D01*
X129236056Y-110021134D01*
X129081555Y-109908882D01*
X128907091Y-109831206D01*
X128907089Y-109831205D01*
X128720290Y-109791500D01*
X128529316Y-109791500D01*
X128342517Y-109831205D01*
X128168049Y-109908883D01*
X128013548Y-110021135D01*
X127885762Y-110163057D01*
X127790276Y-110328443D01*
X127790273Y-110328450D01*
X127731262Y-110510068D01*
X127731261Y-110510072D01*
X127711299Y-110700000D01*
X124538307Y-110700000D01*
X124518345Y-110510072D01*
X124459330Y-110328444D01*
X124363843Y-110163056D01*
X124236056Y-110021134D01*
X124081555Y-109908882D01*
X123907091Y-109831206D01*
X123907089Y-109831205D01*
X123720290Y-109791500D01*
X123529316Y-109791500D01*
X123342517Y-109831205D01*
X123168049Y-109908883D01*
X123013548Y-110021135D01*
X122885762Y-110163057D01*
X122790276Y-110328443D01*
X122790273Y-110328450D01*
X122731262Y-110510068D01*
X122731261Y-110510072D01*
X122711299Y-110700000D01*
X119538307Y-110700000D01*
X119518345Y-110510072D01*
X119459330Y-110328444D01*
X119363843Y-110163056D01*
X119236056Y-110021134D01*
X119081555Y-109908882D01*
X118907091Y-109831206D01*
X118907089Y-109831205D01*
X118720290Y-109791500D01*
X118529316Y-109791500D01*
X118342517Y-109831205D01*
X118168049Y-109908883D01*
X118013548Y-110021135D01*
X117885762Y-110163057D01*
X117790276Y-110328443D01*
X117790273Y-110328450D01*
X117731262Y-110510068D01*
X117731261Y-110510072D01*
X117711299Y-110700000D01*
X114538307Y-110700000D01*
X114518345Y-110510072D01*
X114459330Y-110328444D01*
X114363843Y-110163056D01*
X114236056Y-110021134D01*
X114081555Y-109908882D01*
X113907091Y-109831206D01*
X113907089Y-109831205D01*
X113720290Y-109791500D01*
X113529316Y-109791500D01*
X113342517Y-109831205D01*
X113168049Y-109908883D01*
X113013548Y-110021135D01*
X112885762Y-110163057D01*
X112790276Y-110328443D01*
X112790273Y-110328450D01*
X112731262Y-110510068D01*
X112731261Y-110510072D01*
X112711299Y-110700000D01*
X109538307Y-110700000D01*
X109518345Y-110510072D01*
X109459330Y-110328444D01*
X109363843Y-110163056D01*
X109236056Y-110021134D01*
X109081555Y-109908882D01*
X108907091Y-109831206D01*
X108907089Y-109831205D01*
X108720290Y-109791500D01*
X108529316Y-109791500D01*
X108342517Y-109831205D01*
X108168049Y-109908883D01*
X108013548Y-110021135D01*
X107885762Y-110163057D01*
X107790276Y-110328443D01*
X107790273Y-110328450D01*
X107731262Y-110510068D01*
X107731261Y-110510072D01*
X107711299Y-110700000D01*
X104790000Y-110700000D01*
X104790000Y-105700000D01*
X107711299Y-105700000D01*
X107731261Y-105889928D01*
X107731262Y-105889931D01*
X107790273Y-106071549D01*
X107790276Y-106071556D01*
X107885763Y-106236944D01*
X108013550Y-106378866D01*
X108168051Y-106491118D01*
X108342515Y-106568794D01*
X108529316Y-106608500D01*
X108720290Y-106608500D01*
X108907091Y-106568794D01*
X109081555Y-106491118D01*
X109236056Y-106378866D01*
X109363843Y-106236944D01*
X109459330Y-106071556D01*
X109518345Y-105889928D01*
X109538307Y-105700000D01*
X112711299Y-105700000D01*
X112731261Y-105889928D01*
X112731262Y-105889931D01*
X112790273Y-106071549D01*
X112790276Y-106071556D01*
X112885763Y-106236944D01*
X113013550Y-106378866D01*
X113168051Y-106491118D01*
X113342515Y-106568794D01*
X113529316Y-106608500D01*
X113720290Y-106608500D01*
X113907091Y-106568794D01*
X114081555Y-106491118D01*
X114236056Y-106378866D01*
X114363843Y-106236944D01*
X114459330Y-106071556D01*
X114518345Y-105889928D01*
X114538307Y-105700000D01*
X117711299Y-105700000D01*
X117731261Y-105889928D01*
X117731262Y-105889931D01*
X117790273Y-106071549D01*
X117790276Y-106071556D01*
X117885763Y-106236944D01*
X118013550Y-106378866D01*
X118168051Y-106491118D01*
X118342515Y-106568794D01*
X118529316Y-106608500D01*
X118720290Y-106608500D01*
X118907091Y-106568794D01*
X119081555Y-106491118D01*
X119236056Y-106378866D01*
X119363843Y-106236944D01*
X119459330Y-106071556D01*
X119518345Y-105889928D01*
X119538307Y-105700000D01*
X122711299Y-105700000D01*
X122731261Y-105889928D01*
X122731262Y-105889931D01*
X122790273Y-106071549D01*
X122790276Y-106071556D01*
X122885763Y-106236944D01*
X123013550Y-106378866D01*
X123168051Y-106491118D01*
X123342515Y-106568794D01*
X123529316Y-106608500D01*
X123720290Y-106608500D01*
X123907091Y-106568794D01*
X124081555Y-106491118D01*
X124236056Y-106378866D01*
X124275352Y-106335222D01*
X124334836Y-106298577D01*
X124404693Y-106299906D01*
X124462741Y-106338793D01*
X124490551Y-106402889D01*
X124491500Y-106418197D01*
X124491499Y-108858637D01*
X124491500Y-108858654D01*
X124498011Y-108919202D01*
X124498011Y-108919204D01*
X124549110Y-109056204D01*
X124549111Y-109056204D01*
X124636739Y-109173261D01*
X124753796Y-109260889D01*
X124890799Y-109311989D01*
X124918050Y-109314918D01*
X124951345Y-109318499D01*
X124951362Y-109318500D01*
X127448638Y-109318500D01*
X127448654Y-109318499D01*
X127475692Y-109315591D01*
X127509201Y-109311989D01*
X127646204Y-109260889D01*
X127763261Y-109173261D01*
X127850889Y-109056204D01*
X127901989Y-108919201D01*
X127905591Y-108885692D01*
X127908499Y-108858654D01*
X127908500Y-108858637D01*
X127908500Y-107610004D01*
X129486709Y-107610004D01*
X129505843Y-107865343D01*
X129505844Y-107865348D01*
X129562822Y-108114987D01*
X129562824Y-108114996D01*
X129562826Y-108115001D01*
X129656378Y-108353369D01*
X129784413Y-108575131D01*
X129913367Y-108736835D01*
X129944072Y-108775338D01*
X130099121Y-108919201D01*
X130131781Y-108949505D01*
X130343355Y-109093754D01*
X130343360Y-109093756D01*
X130343361Y-109093757D01*
X130343362Y-109093758D01*
X130421789Y-109131526D01*
X130574061Y-109204856D01*
X130574062Y-109204856D01*
X130574065Y-109204858D01*
X130818757Y-109280335D01*
X130818758Y-109280335D01*
X130818761Y-109280336D01*
X131071958Y-109318499D01*
X131071963Y-109318499D01*
X131071966Y-109318500D01*
X131071967Y-109318500D01*
X131328033Y-109318500D01*
X131328034Y-109318500D01*
X131328041Y-109318499D01*
X131581238Y-109280336D01*
X131581239Y-109280335D01*
X131581243Y-109280335D01*
X131825935Y-109204858D01*
X132056646Y-109093754D01*
X132268219Y-108949505D01*
X132450902Y-108780000D01*
X132455927Y-108775338D01*
X132455927Y-108775336D01*
X132455931Y-108775334D01*
X132615587Y-108575131D01*
X132743622Y-108353369D01*
X132783171Y-108252600D01*
X137776751Y-108252600D01*
X137795705Y-108457158D01*
X137795706Y-108457160D01*
X137851924Y-108654747D01*
X137851930Y-108654762D01*
X137943493Y-108838644D01*
X137943498Y-108838652D01*
X138067301Y-109002594D01*
X138071162Y-109006829D01*
X138070134Y-109007765D01*
X138102885Y-109061679D01*
X138101117Y-109131526D01*
X138061867Y-109189330D01*
X138046123Y-109199968D01*
X137926739Y-109289339D01*
X137839111Y-109406395D01*
X137788011Y-109543395D01*
X137788011Y-109543397D01*
X137781500Y-109603945D01*
X137781500Y-110901254D01*
X137788011Y-110961802D01*
X137788011Y-110961804D01*
X137828945Y-111071549D01*
X137839111Y-111098804D01*
X137926739Y-111215861D01*
X138043796Y-111303489D01*
X138180799Y-111354589D01*
X138208050Y-111357518D01*
X138241345Y-111361099D01*
X138241362Y-111361100D01*
X139538638Y-111361100D01*
X139538654Y-111361099D01*
X139565692Y-111358191D01*
X139599201Y-111354589D01*
X139736204Y-111303489D01*
X139853261Y-111215861D01*
X139940889Y-111098804D01*
X139991989Y-110961801D01*
X139995591Y-110928292D01*
X139998499Y-110901254D01*
X139998500Y-110901237D01*
X139998500Y-110700000D01*
X147711299Y-110700000D01*
X147731261Y-110889928D01*
X147731262Y-110889931D01*
X147790273Y-111071549D01*
X147790276Y-111071556D01*
X147885763Y-111236944D01*
X147988093Y-111350594D01*
X147997552Y-111361099D01*
X148013550Y-111378866D01*
X148168051Y-111491118D01*
X148342515Y-111568794D01*
X148529316Y-111608500D01*
X148720290Y-111608500D01*
X148907091Y-111568794D01*
X149081555Y-111491118D01*
X149236056Y-111378866D01*
X149363843Y-111236944D01*
X149459330Y-111071556D01*
X149518345Y-110889928D01*
X149538307Y-110700000D01*
X157711299Y-110700000D01*
X157731261Y-110889928D01*
X157731262Y-110889931D01*
X157790273Y-111071549D01*
X157790276Y-111071556D01*
X157885763Y-111236944D01*
X157988093Y-111350593D01*
X157997552Y-111361099D01*
X158013550Y-111378866D01*
X158168051Y-111491118D01*
X158342515Y-111568794D01*
X158529316Y-111608500D01*
X158720290Y-111608500D01*
X158907091Y-111568794D01*
X159081555Y-111491118D01*
X159236056Y-111378866D01*
X159363843Y-111236944D01*
X159459330Y-111071556D01*
X159518345Y-110889928D01*
X159538307Y-110700000D01*
X162711299Y-110700000D01*
X162731261Y-110889928D01*
X162731262Y-110889931D01*
X162790273Y-111071549D01*
X162790276Y-111071556D01*
X162885763Y-111236944D01*
X162988093Y-111350593D01*
X162997552Y-111361099D01*
X163013550Y-111378866D01*
X163168051Y-111491118D01*
X163342515Y-111568794D01*
X163529316Y-111608500D01*
X163720290Y-111608500D01*
X163907091Y-111568794D01*
X164081555Y-111491118D01*
X164236056Y-111378866D01*
X164363843Y-111236944D01*
X164459330Y-111071556D01*
X164518345Y-110889928D01*
X164538307Y-110700000D01*
X167711299Y-110700000D01*
X167731261Y-110889928D01*
X167731262Y-110889931D01*
X167790273Y-111071549D01*
X167790276Y-111071556D01*
X167885763Y-111236944D01*
X167988093Y-111350593D01*
X167997552Y-111361099D01*
X168013550Y-111378866D01*
X168168051Y-111491118D01*
X168342515Y-111568794D01*
X168529316Y-111608500D01*
X168720290Y-111608500D01*
X168907091Y-111568794D01*
X169081555Y-111491118D01*
X169236056Y-111378866D01*
X169363843Y-111236944D01*
X169459330Y-111071556D01*
X169518345Y-110889928D01*
X169538307Y-110700000D01*
X172711299Y-110700000D01*
X172731261Y-110889928D01*
X172731262Y-110889931D01*
X172790273Y-111071549D01*
X172790276Y-111071556D01*
X172885763Y-111236944D01*
X172988093Y-111350593D01*
X172997552Y-111361099D01*
X173013550Y-111378866D01*
X173168051Y-111491118D01*
X173342515Y-111568794D01*
X173529316Y-111608500D01*
X173720290Y-111608500D01*
X173907091Y-111568794D01*
X174081555Y-111491118D01*
X174236056Y-111378866D01*
X174363843Y-111236944D01*
X174459330Y-111071556D01*
X174518345Y-110889928D01*
X174538307Y-110700000D01*
X174518345Y-110510072D01*
X174459330Y-110328444D01*
X174363843Y-110163056D01*
X174236056Y-110021134D01*
X174081555Y-109908882D01*
X173907091Y-109831206D01*
X173907089Y-109831205D01*
X173720290Y-109791500D01*
X173529316Y-109791500D01*
X173342517Y-109831205D01*
X173168049Y-109908883D01*
X173013548Y-110021135D01*
X172885762Y-110163057D01*
X172790276Y-110328443D01*
X172790273Y-110328450D01*
X172731262Y-110510068D01*
X172731261Y-110510072D01*
X172711299Y-110700000D01*
X169538307Y-110700000D01*
X169518345Y-110510072D01*
X169459330Y-110328444D01*
X169363843Y-110163056D01*
X169236056Y-110021134D01*
X169081555Y-109908882D01*
X168907091Y-109831206D01*
X168907089Y-109831205D01*
X168720290Y-109791500D01*
X168529316Y-109791500D01*
X168342517Y-109831205D01*
X168168049Y-109908883D01*
X168013548Y-110021135D01*
X167885762Y-110163057D01*
X167790276Y-110328443D01*
X167790273Y-110328450D01*
X167731262Y-110510068D01*
X167731261Y-110510072D01*
X167711299Y-110700000D01*
X164538307Y-110700000D01*
X164518345Y-110510072D01*
X164459330Y-110328444D01*
X164363843Y-110163056D01*
X164236056Y-110021134D01*
X164081555Y-109908882D01*
X163907091Y-109831206D01*
X163907089Y-109831205D01*
X163720290Y-109791500D01*
X163529316Y-109791500D01*
X163342517Y-109831205D01*
X163168049Y-109908883D01*
X163013548Y-110021135D01*
X162885762Y-110163057D01*
X162790276Y-110328443D01*
X162790273Y-110328450D01*
X162731262Y-110510068D01*
X162731261Y-110510072D01*
X162711299Y-110700000D01*
X159538307Y-110700000D01*
X159518345Y-110510072D01*
X159459330Y-110328444D01*
X159363843Y-110163056D01*
X159236056Y-110021134D01*
X159081555Y-109908882D01*
X158907091Y-109831206D01*
X158907089Y-109831205D01*
X158720290Y-109791500D01*
X158529316Y-109791500D01*
X158342517Y-109831205D01*
X158168049Y-109908883D01*
X158013548Y-110021135D01*
X157885762Y-110163057D01*
X157790276Y-110328443D01*
X157790273Y-110328450D01*
X157731262Y-110510068D01*
X157731261Y-110510072D01*
X157711299Y-110700000D01*
X149538307Y-110700000D01*
X149518345Y-110510072D01*
X149459330Y-110328444D01*
X149363843Y-110163056D01*
X149236056Y-110021134D01*
X149081555Y-109908882D01*
X148907091Y-109831206D01*
X148907089Y-109831205D01*
X148720290Y-109791500D01*
X148529316Y-109791500D01*
X148342517Y-109831205D01*
X148168049Y-109908883D01*
X148013548Y-110021135D01*
X147885762Y-110163057D01*
X147790276Y-110328443D01*
X147790273Y-110328450D01*
X147731262Y-110510068D01*
X147731261Y-110510072D01*
X147711299Y-110700000D01*
X139998500Y-110700000D01*
X139998500Y-109603962D01*
X139998499Y-109603945D01*
X139994969Y-109571116D01*
X139991989Y-109543399D01*
X139940889Y-109406396D01*
X139853261Y-109289339D01*
X139736204Y-109201711D01*
X139736203Y-109201710D01*
X139729104Y-109196396D01*
X139730122Y-109195035D01*
X139688107Y-109153022D01*
X139673253Y-109084750D01*
X139697668Y-109019285D01*
X139708912Y-109006897D01*
X139708838Y-109006829D01*
X139712698Y-109002594D01*
X139712698Y-109002593D01*
X139712701Y-109002591D01*
X139836503Y-108838650D01*
X139865707Y-108780000D01*
X143546496Y-108780000D01*
X143566458Y-108969928D01*
X143566459Y-108969931D01*
X143625470Y-109151549D01*
X143625473Y-109151556D01*
X143720960Y-109316944D01*
X143848747Y-109458866D01*
X144003248Y-109571118D01*
X144177712Y-109648794D01*
X144364513Y-109688500D01*
X144555487Y-109688500D01*
X144742288Y-109648794D01*
X144916752Y-109571118D01*
X145071253Y-109458866D01*
X145199040Y-109316944D01*
X145294527Y-109151556D01*
X145353542Y-108969928D01*
X145373504Y-108780000D01*
X149156496Y-108780000D01*
X149176458Y-108969928D01*
X149176459Y-108969931D01*
X149235470Y-109151549D01*
X149235473Y-109151556D01*
X149330960Y-109316944D01*
X149458747Y-109458866D01*
X149613248Y-109571118D01*
X149787712Y-109648794D01*
X149974513Y-109688500D01*
X150165487Y-109688500D01*
X150352288Y-109648794D01*
X150526752Y-109571118D01*
X150681253Y-109458866D01*
X150809040Y-109316944D01*
X150904527Y-109151556D01*
X150963542Y-108969928D01*
X150983504Y-108780000D01*
X150963542Y-108590072D01*
X150904527Y-108408444D01*
X150809040Y-108243056D01*
X150809038Y-108243054D01*
X150795457Y-108227970D01*
X150765228Y-108164977D01*
X150773854Y-108095642D01*
X150795460Y-108062026D01*
X150809040Y-108046944D01*
X150904527Y-107881556D01*
X150963542Y-107699928D01*
X150983504Y-107510000D01*
X150963542Y-107320072D01*
X150904527Y-107138444D01*
X150809040Y-106973056D01*
X150795457Y-106957970D01*
X150765228Y-106894977D01*
X150773854Y-106825642D01*
X150795460Y-106792026D01*
X150809040Y-106776944D01*
X150904527Y-106611556D01*
X150963542Y-106429928D01*
X150983504Y-106240000D01*
X150963542Y-106050072D01*
X150904527Y-105868444D01*
X150809040Y-105703056D01*
X150806288Y-105700000D01*
X157711299Y-105700000D01*
X157731261Y-105889928D01*
X157731262Y-105889931D01*
X157790273Y-106071549D01*
X157790276Y-106071556D01*
X157885763Y-106236944D01*
X158013550Y-106378866D01*
X158168051Y-106491118D01*
X158342515Y-106568794D01*
X158529316Y-106608500D01*
X158720290Y-106608500D01*
X158907091Y-106568794D01*
X159081555Y-106491118D01*
X159236056Y-106378866D01*
X159363843Y-106236944D01*
X159459330Y-106071556D01*
X159518345Y-105889928D01*
X159538307Y-105700000D01*
X162711299Y-105700000D01*
X162731261Y-105889928D01*
X162731262Y-105889931D01*
X162790273Y-106071549D01*
X162790276Y-106071556D01*
X162885763Y-106236944D01*
X163013550Y-106378866D01*
X163168051Y-106491118D01*
X163342515Y-106568794D01*
X163529316Y-106608500D01*
X163720290Y-106608500D01*
X163907091Y-106568794D01*
X164081555Y-106491118D01*
X164236056Y-106378866D01*
X164363843Y-106236944D01*
X164459330Y-106071556D01*
X164518345Y-105889928D01*
X164538307Y-105700000D01*
X167711299Y-105700000D01*
X167731261Y-105889928D01*
X167731262Y-105889931D01*
X167790273Y-106071549D01*
X167790276Y-106071556D01*
X167885763Y-106236944D01*
X168013550Y-106378866D01*
X168168051Y-106491118D01*
X168342515Y-106568794D01*
X168529316Y-106608500D01*
X168720290Y-106608500D01*
X168907091Y-106568794D01*
X169081555Y-106491118D01*
X169236056Y-106378866D01*
X169363843Y-106236944D01*
X169459330Y-106071556D01*
X169518345Y-105889928D01*
X169538307Y-105700000D01*
X172711299Y-105700000D01*
X172731261Y-105889928D01*
X172731262Y-105889931D01*
X172790273Y-106071549D01*
X172790276Y-106071556D01*
X172885763Y-106236944D01*
X173013550Y-106378866D01*
X173168051Y-106491118D01*
X173342515Y-106568794D01*
X173529316Y-106608500D01*
X173720290Y-106608500D01*
X173907091Y-106568794D01*
X174081555Y-106491118D01*
X174236056Y-106378866D01*
X174363843Y-106236944D01*
X174459330Y-106071556D01*
X174518345Y-105889928D01*
X174538307Y-105700000D01*
X174518345Y-105510072D01*
X174459330Y-105328444D01*
X174363843Y-105163056D01*
X174236056Y-105021134D01*
X174081555Y-104908882D01*
X173907091Y-104831206D01*
X173907089Y-104831205D01*
X173720290Y-104791500D01*
X173529316Y-104791500D01*
X173342517Y-104831205D01*
X173168049Y-104908883D01*
X173013548Y-105021135D01*
X172885762Y-105163057D01*
X172790276Y-105328443D01*
X172790273Y-105328450D01*
X172732278Y-105506942D01*
X172731261Y-105510072D01*
X172711299Y-105700000D01*
X169538307Y-105700000D01*
X169518345Y-105510072D01*
X169459330Y-105328444D01*
X169363843Y-105163056D01*
X169236056Y-105021134D01*
X169081555Y-104908882D01*
X168907091Y-104831206D01*
X168907089Y-104831205D01*
X168720290Y-104791500D01*
X168529316Y-104791500D01*
X168342517Y-104831205D01*
X168168049Y-104908883D01*
X168013548Y-105021135D01*
X167885762Y-105163057D01*
X167790276Y-105328443D01*
X167790273Y-105328450D01*
X167732278Y-105506942D01*
X167731261Y-105510072D01*
X167711299Y-105700000D01*
X164538307Y-105700000D01*
X164518345Y-105510072D01*
X164459330Y-105328444D01*
X164363843Y-105163056D01*
X164236056Y-105021134D01*
X164081555Y-104908882D01*
X163907091Y-104831206D01*
X163907089Y-104831205D01*
X163720290Y-104791500D01*
X163529316Y-104791500D01*
X163342517Y-104831205D01*
X163168049Y-104908883D01*
X163013548Y-105021135D01*
X162885762Y-105163057D01*
X162790276Y-105328443D01*
X162790273Y-105328450D01*
X162732278Y-105506942D01*
X162731261Y-105510072D01*
X162711299Y-105700000D01*
X159538307Y-105700000D01*
X159518345Y-105510072D01*
X159459330Y-105328444D01*
X159363843Y-105163056D01*
X159236056Y-105021134D01*
X159081555Y-104908882D01*
X158907091Y-104831206D01*
X158907089Y-104831205D01*
X158720290Y-104791500D01*
X158529316Y-104791500D01*
X158342517Y-104831205D01*
X158168049Y-104908883D01*
X158013548Y-105021135D01*
X157885762Y-105163057D01*
X157790276Y-105328443D01*
X157790273Y-105328450D01*
X157732278Y-105506942D01*
X157731261Y-105510072D01*
X157711299Y-105700000D01*
X150806288Y-105700000D01*
X150795458Y-105687972D01*
X150765229Y-105624981D01*
X150773853Y-105555646D01*
X150795459Y-105522027D01*
X150809040Y-105506944D01*
X150904527Y-105341556D01*
X150963542Y-105159928D01*
X150983504Y-104970000D01*
X150963542Y-104780072D01*
X150904527Y-104598444D01*
X150809040Y-104433056D01*
X150681253Y-104291134D01*
X150526752Y-104178882D01*
X150352288Y-104101206D01*
X150352286Y-104101205D01*
X150165487Y-104061500D01*
X149974513Y-104061500D01*
X149787714Y-104101205D01*
X149613246Y-104178883D01*
X149458745Y-104291135D01*
X149330959Y-104433057D01*
X149235473Y-104598443D01*
X149235470Y-104598450D01*
X149176459Y-104780068D01*
X149176458Y-104780072D01*
X149156496Y-104970000D01*
X149176458Y-105159928D01*
X149176459Y-105159931D01*
X149235470Y-105341549D01*
X149235473Y-105341556D01*
X149330957Y-105506940D01*
X149330961Y-105506945D01*
X149344542Y-105522029D01*
X149374771Y-105585022D01*
X149366145Y-105654357D01*
X149344542Y-105687971D01*
X149330961Y-105703054D01*
X149330957Y-105703059D01*
X149235473Y-105868443D01*
X149235470Y-105868450D01*
X149177541Y-106046739D01*
X149176458Y-106050072D01*
X149156496Y-106240000D01*
X149176458Y-106429928D01*
X149176459Y-106429931D01*
X149235470Y-106611549D01*
X149235473Y-106611556D01*
X149330957Y-106776940D01*
X149330961Y-106776945D01*
X149344540Y-106792026D01*
X149374770Y-106855018D01*
X149366146Y-106924353D01*
X149344545Y-106957967D01*
X149330961Y-106973054D01*
X149330957Y-106973059D01*
X149235473Y-107138443D01*
X149235470Y-107138450D01*
X149176459Y-107320068D01*
X149176458Y-107320072D01*
X149156496Y-107510000D01*
X149176458Y-107699928D01*
X149176459Y-107699931D01*
X149235470Y-107881549D01*
X149235473Y-107881556D01*
X149330957Y-108046940D01*
X149330961Y-108046945D01*
X149344542Y-108062029D01*
X149374771Y-108125022D01*
X149366145Y-108194357D01*
X149344542Y-108227971D01*
X149330961Y-108243054D01*
X149330957Y-108243059D01*
X149235473Y-108408443D01*
X149235470Y-108408450D01*
X149176459Y-108590068D01*
X149176458Y-108590072D01*
X149156496Y-108780000D01*
X145373504Y-108780000D01*
X145353542Y-108590072D01*
X145294527Y-108408444D01*
X145199040Y-108243056D01*
X145185458Y-108227972D01*
X145155229Y-108164981D01*
X145163853Y-108095646D01*
X145185459Y-108062027D01*
X145185462Y-108062024D01*
X145199040Y-108046944D01*
X145294527Y-107881556D01*
X145353542Y-107699928D01*
X145373504Y-107510000D01*
X145353542Y-107320072D01*
X145294527Y-107138444D01*
X145199040Y-106973056D01*
X145071253Y-106831134D01*
X144916752Y-106718882D01*
X144742288Y-106641206D01*
X144742286Y-106641205D01*
X144555487Y-106601500D01*
X144364513Y-106601500D01*
X144177714Y-106641205D01*
X144003246Y-106718883D01*
X143848745Y-106831135D01*
X143720959Y-106973057D01*
X143625473Y-107138443D01*
X143625470Y-107138450D01*
X143566459Y-107320068D01*
X143566458Y-107320072D01*
X143546496Y-107510000D01*
X143566458Y-107699928D01*
X143566459Y-107699931D01*
X143625470Y-107881549D01*
X143625473Y-107881556D01*
X143720957Y-108046940D01*
X143720961Y-108046945D01*
X143734540Y-108062026D01*
X143764770Y-108125018D01*
X143756146Y-108194353D01*
X143734545Y-108227967D01*
X143720961Y-108243054D01*
X143720957Y-108243059D01*
X143625473Y-108408443D01*
X143625470Y-108408450D01*
X143566459Y-108590068D01*
X143566458Y-108590072D01*
X143546496Y-108780000D01*
X139865707Y-108780000D01*
X139928074Y-108654752D01*
X139984294Y-108457159D01*
X140003249Y-108252600D01*
X140002364Y-108243054D01*
X139984294Y-108048041D01*
X139984293Y-108048039D01*
X139983981Y-108046944D01*
X139928074Y-107850448D01*
X139853125Y-107699931D01*
X139836506Y-107666555D01*
X139836501Y-107666547D01*
X139712699Y-107502606D01*
X139560883Y-107364209D01*
X139560882Y-107364208D01*
X139386218Y-107256060D01*
X139194655Y-107181849D01*
X138992718Y-107144100D01*
X138787282Y-107144100D01*
X138585345Y-107181849D01*
X138585342Y-107181849D01*
X138585342Y-107181850D01*
X138393779Y-107256061D01*
X138219116Y-107364209D01*
X138067300Y-107502606D01*
X137943498Y-107666547D01*
X137943493Y-107666555D01*
X137851930Y-107850437D01*
X137851924Y-107850452D01*
X137795706Y-108048039D01*
X137795705Y-108048041D01*
X137776751Y-108252599D01*
X137776751Y-108252600D01*
X132783171Y-108252600D01*
X132837174Y-108115001D01*
X132894155Y-107865353D01*
X132909053Y-107666550D01*
X132913291Y-107610004D01*
X132913291Y-107609995D01*
X132894156Y-107354656D01*
X132894155Y-107354651D01*
X132894155Y-107354647D01*
X132837174Y-107104999D01*
X132743622Y-106866631D01*
X132615587Y-106644869D01*
X132455931Y-106444666D01*
X132455930Y-106444665D01*
X132455927Y-106444661D01*
X132300879Y-106300799D01*
X132268219Y-106270495D01*
X132223491Y-106240000D01*
X132056649Y-106126248D01*
X132056638Y-106126241D01*
X131825940Y-106015144D01*
X131825921Y-106015137D01*
X131581248Y-105939666D01*
X131581238Y-105939663D01*
X131328041Y-105901500D01*
X131328034Y-105901500D01*
X131071966Y-105901500D01*
X131071958Y-105901500D01*
X130818761Y-105939663D01*
X130818755Y-105939665D01*
X130574061Y-106015143D01*
X130343362Y-106126241D01*
X130343361Y-106126242D01*
X130131780Y-106270495D01*
X129944072Y-106444661D01*
X129784413Y-106644869D01*
X129656378Y-106866630D01*
X129562828Y-107104993D01*
X129562822Y-107105012D01*
X129505844Y-107354651D01*
X129505843Y-107354656D01*
X129486709Y-107609995D01*
X129486709Y-107610004D01*
X127908500Y-107610004D01*
X127908500Y-106545906D01*
X127928185Y-106478867D01*
X127980989Y-106433112D01*
X128050147Y-106423168D01*
X128105386Y-106445589D01*
X128168045Y-106491114D01*
X128168046Y-106491115D01*
X128168048Y-106491116D01*
X128168051Y-106491118D01*
X128342515Y-106568794D01*
X128529316Y-106608500D01*
X128720290Y-106608500D01*
X128907091Y-106568794D01*
X129081555Y-106491118D01*
X129236056Y-106378866D01*
X129363843Y-106236944D01*
X129459330Y-106071556D01*
X129518345Y-105889928D01*
X129538307Y-105700000D01*
X132711299Y-105700000D01*
X132731261Y-105889928D01*
X132731262Y-105889931D01*
X132790273Y-106071549D01*
X132790276Y-106071556D01*
X132885763Y-106236944D01*
X133013550Y-106378866D01*
X133168051Y-106491118D01*
X133342515Y-106568794D01*
X133529316Y-106608500D01*
X133720290Y-106608500D01*
X133907091Y-106568794D01*
X134081555Y-106491118D01*
X134236056Y-106378866D01*
X134363843Y-106236944D01*
X134459330Y-106071556D01*
X134518345Y-105889928D01*
X134538307Y-105700000D01*
X137711299Y-105700000D01*
X137731261Y-105889928D01*
X137731262Y-105889931D01*
X137790273Y-106071549D01*
X137790276Y-106071556D01*
X137885763Y-106236944D01*
X138013550Y-106378866D01*
X138168051Y-106491118D01*
X138342515Y-106568794D01*
X138529316Y-106608500D01*
X138720290Y-106608500D01*
X138907091Y-106568794D01*
X139081555Y-106491118D01*
X139236056Y-106378866D01*
X139363843Y-106236944D01*
X139459330Y-106071556D01*
X139518345Y-105889928D01*
X139538307Y-105700000D01*
X139518345Y-105510072D01*
X139459330Y-105328444D01*
X139363843Y-105163056D01*
X139236056Y-105021134D01*
X139165676Y-104970000D01*
X143546496Y-104970000D01*
X143566458Y-105159928D01*
X143566459Y-105159931D01*
X143625470Y-105341549D01*
X143625473Y-105341556D01*
X143720960Y-105506944D01*
X143848747Y-105648866D01*
X144003248Y-105761118D01*
X144177712Y-105838794D01*
X144364513Y-105878500D01*
X144555487Y-105878500D01*
X144742288Y-105838794D01*
X144916752Y-105761118D01*
X145071253Y-105648866D01*
X145199040Y-105506944D01*
X145294527Y-105341556D01*
X145353542Y-105159928D01*
X145373504Y-104970000D01*
X145353542Y-104780072D01*
X145294527Y-104598444D01*
X145199040Y-104433056D01*
X145071253Y-104291134D01*
X144916752Y-104178882D01*
X144742288Y-104101206D01*
X144742286Y-104101205D01*
X144555487Y-104061500D01*
X144364513Y-104061500D01*
X144177714Y-104101205D01*
X144003246Y-104178883D01*
X143848745Y-104291135D01*
X143720959Y-104433057D01*
X143625473Y-104598443D01*
X143625470Y-104598450D01*
X143566459Y-104780068D01*
X143566458Y-104780072D01*
X143546496Y-104970000D01*
X139165676Y-104970000D01*
X139081555Y-104908882D01*
X138907091Y-104831206D01*
X138907089Y-104831205D01*
X138720290Y-104791500D01*
X138529316Y-104791500D01*
X138342517Y-104831205D01*
X138168049Y-104908883D01*
X138013548Y-105021135D01*
X137885762Y-105163057D01*
X137790276Y-105328443D01*
X137790273Y-105328450D01*
X137732278Y-105506942D01*
X137731261Y-105510072D01*
X137711299Y-105700000D01*
X134538307Y-105700000D01*
X134518345Y-105510072D01*
X134459330Y-105328444D01*
X134363843Y-105163056D01*
X134236056Y-105021134D01*
X134081555Y-104908882D01*
X133907091Y-104831206D01*
X133907089Y-104831205D01*
X133720290Y-104791500D01*
X133529316Y-104791500D01*
X133342517Y-104831205D01*
X133168049Y-104908883D01*
X133013548Y-105021135D01*
X132885762Y-105163057D01*
X132790276Y-105328443D01*
X132790273Y-105328450D01*
X132732278Y-105506942D01*
X132731261Y-105510072D01*
X132711299Y-105700000D01*
X129538307Y-105700000D01*
X129518345Y-105510072D01*
X129459330Y-105328444D01*
X129363843Y-105163056D01*
X129236056Y-105021134D01*
X129081555Y-104908882D01*
X128907091Y-104831206D01*
X128907089Y-104831205D01*
X128720290Y-104791500D01*
X128529316Y-104791500D01*
X128342517Y-104831205D01*
X128168049Y-104908883D01*
X128013548Y-105021135D01*
X127885762Y-105163057D01*
X127790276Y-105328443D01*
X127790273Y-105328450D01*
X127732278Y-105506942D01*
X127731261Y-105510072D01*
X127711299Y-105700000D01*
X127721372Y-105795845D01*
X127708804Y-105864574D01*
X127661071Y-105915598D01*
X127593331Y-105932716D01*
X127554718Y-105924988D01*
X127509201Y-105908010D01*
X127448654Y-105901500D01*
X127448638Y-105901500D01*
X124951362Y-105901500D01*
X124951345Y-105901500D01*
X124890797Y-105908011D01*
X124890795Y-105908011D01*
X124753793Y-105959111D01*
X124753792Y-105959112D01*
X124717656Y-105986164D01*
X124652191Y-106010581D01*
X124583919Y-105995729D01*
X124534514Y-105946323D01*
X124519662Y-105878050D01*
X124520020Y-105873989D01*
X124538307Y-105700000D01*
X124518345Y-105510072D01*
X124459330Y-105328444D01*
X124363843Y-105163056D01*
X124236056Y-105021134D01*
X124081555Y-104908882D01*
X123907091Y-104831206D01*
X123907089Y-104831205D01*
X123720290Y-104791500D01*
X123529316Y-104791500D01*
X123342517Y-104831205D01*
X123168049Y-104908883D01*
X123013548Y-105021135D01*
X122885762Y-105163057D01*
X122790276Y-105328443D01*
X122790273Y-105328450D01*
X122732278Y-105506942D01*
X122731261Y-105510072D01*
X122711299Y-105700000D01*
X119538307Y-105700000D01*
X119518345Y-105510072D01*
X119459330Y-105328444D01*
X119363843Y-105163056D01*
X119236056Y-105021134D01*
X119081555Y-104908882D01*
X118907091Y-104831206D01*
X118907089Y-104831205D01*
X118720290Y-104791500D01*
X118529316Y-104791500D01*
X118342517Y-104831205D01*
X118168049Y-104908883D01*
X118013548Y-105021135D01*
X117885762Y-105163057D01*
X117790276Y-105328443D01*
X117790273Y-105328450D01*
X117732278Y-105506942D01*
X117731261Y-105510072D01*
X117711299Y-105700000D01*
X114538307Y-105700000D01*
X114518345Y-105510072D01*
X114459330Y-105328444D01*
X114363843Y-105163056D01*
X114236056Y-105021134D01*
X114081555Y-104908882D01*
X113907091Y-104831206D01*
X113907089Y-104831205D01*
X113720290Y-104791500D01*
X113529316Y-104791500D01*
X113342517Y-104831205D01*
X113168049Y-104908883D01*
X113013548Y-105021135D01*
X112885762Y-105163057D01*
X112790276Y-105328443D01*
X112790273Y-105328450D01*
X112732278Y-105506942D01*
X112731261Y-105510072D01*
X112711299Y-105700000D01*
X109538307Y-105700000D01*
X109518345Y-105510072D01*
X109459330Y-105328444D01*
X109363843Y-105163056D01*
X109236056Y-105021134D01*
X109081555Y-104908882D01*
X108907091Y-104831206D01*
X108907089Y-104831205D01*
X108720290Y-104791500D01*
X108529316Y-104791500D01*
X108342517Y-104831205D01*
X108168049Y-104908883D01*
X108013548Y-105021135D01*
X107885762Y-105163057D01*
X107790276Y-105328443D01*
X107790273Y-105328450D01*
X107732278Y-105506942D01*
X107731261Y-105510072D01*
X107711299Y-105700000D01*
X104790000Y-105700000D01*
X104790000Y-103362002D01*
X164874647Y-103362002D01*
X164894021Y-103583457D01*
X164894022Y-103583465D01*
X164951558Y-103798191D01*
X164951559Y-103798193D01*
X164951560Y-103798196D01*
X164998536Y-103898936D01*
X165045511Y-103999676D01*
X165045512Y-103999677D01*
X165173023Y-104181781D01*
X165330219Y-104338977D01*
X165512323Y-104466488D01*
X165713804Y-104560440D01*
X165928537Y-104617978D01*
X166086724Y-104631817D01*
X166149998Y-104637353D01*
X166150000Y-104637353D01*
X166150002Y-104637353D01*
X166205365Y-104632509D01*
X166371463Y-104617978D01*
X166586196Y-104560440D01*
X166787677Y-104466488D01*
X166969781Y-104338977D01*
X167126977Y-104181781D01*
X167254488Y-103999677D01*
X167348440Y-103798196D01*
X167405978Y-103583463D01*
X167425353Y-103362000D01*
X167405978Y-103140537D01*
X167348440Y-102925804D01*
X167254488Y-102724324D01*
X167254486Y-102724321D01*
X167254485Y-102724319D01*
X167126978Y-102542220D01*
X167126975Y-102542217D01*
X166969781Y-102385023D01*
X166787677Y-102257512D01*
X166787678Y-102257512D01*
X166787676Y-102257511D01*
X166686936Y-102210535D01*
X166586196Y-102163560D01*
X166586193Y-102163559D01*
X166586191Y-102163558D01*
X166371465Y-102106022D01*
X166371457Y-102106021D01*
X166150002Y-102086647D01*
X166149998Y-102086647D01*
X165928542Y-102106021D01*
X165928535Y-102106022D01*
X165713800Y-102163561D01*
X165512323Y-102257512D01*
X165512319Y-102257514D01*
X165330217Y-102385023D01*
X165173023Y-102542217D01*
X165045514Y-102724319D01*
X165045512Y-102724323D01*
X164951561Y-102925800D01*
X164894022Y-103140535D01*
X164894021Y-103140542D01*
X164874647Y-103361997D01*
X164874647Y-103362002D01*
X104790000Y-103362002D01*
X104790000Y-100700000D01*
X107711299Y-100700000D01*
X107731261Y-100889928D01*
X107731262Y-100889931D01*
X107790273Y-101071549D01*
X107790276Y-101071556D01*
X107885763Y-101236944D01*
X108013550Y-101378866D01*
X108168051Y-101491118D01*
X108342515Y-101568794D01*
X108529316Y-101608500D01*
X108720290Y-101608500D01*
X108907091Y-101568794D01*
X109081555Y-101491118D01*
X109236056Y-101378866D01*
X109363843Y-101236944D01*
X109459330Y-101071556D01*
X109518345Y-100889928D01*
X109538307Y-100700000D01*
X112711299Y-100700000D01*
X112731261Y-100889928D01*
X112731262Y-100889931D01*
X112790273Y-101071549D01*
X112790276Y-101071556D01*
X112885763Y-101236944D01*
X113013550Y-101378866D01*
X113168051Y-101491118D01*
X113342515Y-101568794D01*
X113529316Y-101608500D01*
X113720290Y-101608500D01*
X113907091Y-101568794D01*
X114081555Y-101491118D01*
X114236056Y-101378866D01*
X114363843Y-101236944D01*
X114459330Y-101071556D01*
X114518345Y-100889928D01*
X114538307Y-100700000D01*
X117711299Y-100700000D01*
X117731261Y-100889928D01*
X117731262Y-100889931D01*
X117790273Y-101071549D01*
X117790276Y-101071556D01*
X117885763Y-101236944D01*
X118013550Y-101378866D01*
X118168051Y-101491118D01*
X118342515Y-101568794D01*
X118529316Y-101608500D01*
X118720290Y-101608500D01*
X118907091Y-101568794D01*
X119081555Y-101491118D01*
X119236056Y-101378866D01*
X119363843Y-101236944D01*
X119459330Y-101071556D01*
X119518345Y-100889928D01*
X119538307Y-100700000D01*
X122711299Y-100700000D01*
X122731261Y-100889928D01*
X122731262Y-100889931D01*
X122790273Y-101071549D01*
X122790276Y-101071556D01*
X122885763Y-101236944D01*
X123013550Y-101378866D01*
X123168051Y-101491118D01*
X123342515Y-101568794D01*
X123529316Y-101608500D01*
X123720290Y-101608500D01*
X123907091Y-101568794D01*
X124081555Y-101491118D01*
X124236056Y-101378866D01*
X124363843Y-101236944D01*
X124459330Y-101071556D01*
X124518345Y-100889928D01*
X124538307Y-100700000D01*
X127711299Y-100700000D01*
X127731261Y-100889928D01*
X127731262Y-100889931D01*
X127790273Y-101071549D01*
X127790276Y-101071556D01*
X127885763Y-101236944D01*
X128013550Y-101378866D01*
X128168051Y-101491118D01*
X128342515Y-101568794D01*
X128529316Y-101608500D01*
X128720290Y-101608500D01*
X128907091Y-101568794D01*
X129081555Y-101491118D01*
X129236056Y-101378866D01*
X129363843Y-101236944D01*
X129459330Y-101071556D01*
X129518345Y-100889928D01*
X129538307Y-100700000D01*
X132711299Y-100700000D01*
X132731261Y-100889928D01*
X132731262Y-100889931D01*
X132790273Y-101071549D01*
X132790276Y-101071556D01*
X132885763Y-101236944D01*
X133013550Y-101378866D01*
X133168051Y-101491118D01*
X133342515Y-101568794D01*
X133529316Y-101608500D01*
X133720290Y-101608500D01*
X133907091Y-101568794D01*
X134081555Y-101491118D01*
X134236056Y-101378866D01*
X134363843Y-101236944D01*
X134459330Y-101071556D01*
X134518345Y-100889928D01*
X134538307Y-100700000D01*
X137711299Y-100700000D01*
X137731261Y-100889928D01*
X137731262Y-100889931D01*
X137790273Y-101071549D01*
X137790276Y-101071556D01*
X137885763Y-101236944D01*
X138013550Y-101378866D01*
X138168051Y-101491118D01*
X138342515Y-101568794D01*
X138529316Y-101608500D01*
X138720290Y-101608500D01*
X138907091Y-101568794D01*
X139081555Y-101491118D01*
X139236056Y-101378866D01*
X139363843Y-101236944D01*
X139459330Y-101071556D01*
X139518345Y-100889928D01*
X139538307Y-100700000D01*
X142711299Y-100700000D01*
X142731261Y-100889928D01*
X142731262Y-100889931D01*
X142790273Y-101071549D01*
X142790276Y-101071556D01*
X142885763Y-101236944D01*
X143013550Y-101378866D01*
X143168051Y-101491118D01*
X143342515Y-101568794D01*
X143529316Y-101608500D01*
X143720290Y-101608500D01*
X143907091Y-101568794D01*
X144081555Y-101491118D01*
X144236056Y-101378866D01*
X144363843Y-101236944D01*
X144459330Y-101071556D01*
X144518345Y-100889928D01*
X144538307Y-100700000D01*
X147711299Y-100700000D01*
X147731261Y-100889928D01*
X147731262Y-100889931D01*
X147790273Y-101071549D01*
X147790276Y-101071556D01*
X147885763Y-101236944D01*
X148013550Y-101378866D01*
X148168051Y-101491118D01*
X148342515Y-101568794D01*
X148529316Y-101608500D01*
X148720290Y-101608500D01*
X148907091Y-101568794D01*
X149081555Y-101491118D01*
X149236056Y-101378866D01*
X149363843Y-101236944D01*
X149459330Y-101071556D01*
X149518345Y-100889928D01*
X149538307Y-100700000D01*
X152711299Y-100700000D01*
X152731261Y-100889928D01*
X152731262Y-100889931D01*
X152790273Y-101071549D01*
X152790276Y-101071556D01*
X152885763Y-101236944D01*
X153013550Y-101378866D01*
X153168051Y-101491118D01*
X153342515Y-101568794D01*
X153529316Y-101608500D01*
X153720290Y-101608500D01*
X153907091Y-101568794D01*
X154081555Y-101491118D01*
X154236056Y-101378866D01*
X154363843Y-101236944D01*
X154459330Y-101071556D01*
X154518345Y-100889928D01*
X154538307Y-100700000D01*
X157711299Y-100700000D01*
X157731261Y-100889928D01*
X157731262Y-100889931D01*
X157790273Y-101071549D01*
X157790276Y-101071556D01*
X157885763Y-101236944D01*
X158013550Y-101378866D01*
X158168051Y-101491118D01*
X158342515Y-101568794D01*
X158529316Y-101608500D01*
X158720290Y-101608500D01*
X158907091Y-101568794D01*
X159081555Y-101491118D01*
X159236056Y-101378866D01*
X159363843Y-101236944D01*
X159459330Y-101071556D01*
X159518345Y-100889928D01*
X159538307Y-100700000D01*
X162711299Y-100700000D01*
X162731261Y-100889928D01*
X162731262Y-100889931D01*
X162790273Y-101071549D01*
X162790276Y-101071556D01*
X162885763Y-101236944D01*
X163013550Y-101378866D01*
X163168051Y-101491118D01*
X163342515Y-101568794D01*
X163529316Y-101608500D01*
X163720290Y-101608500D01*
X163907091Y-101568794D01*
X164081555Y-101491118D01*
X164236056Y-101378866D01*
X164363843Y-101236944D01*
X164459330Y-101071556D01*
X164518345Y-100889928D01*
X164538307Y-100700000D01*
X167711299Y-100700000D01*
X167731261Y-100889928D01*
X167731262Y-100889931D01*
X167790273Y-101071549D01*
X167790276Y-101071556D01*
X167885763Y-101236944D01*
X168013550Y-101378866D01*
X168168051Y-101491118D01*
X168342515Y-101568794D01*
X168529316Y-101608500D01*
X168720290Y-101608500D01*
X168907091Y-101568794D01*
X169081555Y-101491118D01*
X169236056Y-101378866D01*
X169363843Y-101236944D01*
X169459330Y-101071556D01*
X169518345Y-100889928D01*
X169538307Y-100700000D01*
X172711299Y-100700000D01*
X172731261Y-100889928D01*
X172731262Y-100889931D01*
X172790273Y-101071549D01*
X172790276Y-101071556D01*
X172885763Y-101236944D01*
X173013550Y-101378866D01*
X173168051Y-101491118D01*
X173342515Y-101568794D01*
X173529316Y-101608500D01*
X173720290Y-101608500D01*
X173907091Y-101568794D01*
X174081555Y-101491118D01*
X174236056Y-101378866D01*
X174363843Y-101236944D01*
X174459330Y-101071556D01*
X174518345Y-100889928D01*
X174538307Y-100700000D01*
X174518345Y-100510072D01*
X174459330Y-100328444D01*
X174363843Y-100163056D01*
X174236056Y-100021134D01*
X174081555Y-99908882D01*
X173907091Y-99831206D01*
X173907089Y-99831205D01*
X173720290Y-99791500D01*
X173529316Y-99791500D01*
X173342517Y-99831205D01*
X173168049Y-99908883D01*
X173013548Y-100021135D01*
X172885762Y-100163057D01*
X172790276Y-100328443D01*
X172790273Y-100328450D01*
X172731262Y-100510068D01*
X172731261Y-100510072D01*
X172711299Y-100700000D01*
X169538307Y-100700000D01*
X169518345Y-100510072D01*
X169459330Y-100328444D01*
X169363843Y-100163056D01*
X169236056Y-100021134D01*
X169081555Y-99908882D01*
X168907091Y-99831206D01*
X168907089Y-99831205D01*
X168720290Y-99791500D01*
X168529316Y-99791500D01*
X168342517Y-99831205D01*
X168168049Y-99908883D01*
X168013548Y-100021135D01*
X167885762Y-100163057D01*
X167790276Y-100328443D01*
X167790273Y-100328450D01*
X167731262Y-100510068D01*
X167731261Y-100510072D01*
X167711299Y-100700000D01*
X164538307Y-100700000D01*
X164518345Y-100510072D01*
X164459330Y-100328444D01*
X164363843Y-100163056D01*
X164236056Y-100021134D01*
X164081555Y-99908882D01*
X163907091Y-99831206D01*
X163907089Y-99831205D01*
X163720290Y-99791500D01*
X163529316Y-99791500D01*
X163342517Y-99831205D01*
X163168049Y-99908883D01*
X163013548Y-100021135D01*
X162885762Y-100163057D01*
X162790276Y-100328443D01*
X162790273Y-100328450D01*
X162731262Y-100510068D01*
X162731261Y-100510072D01*
X162711299Y-100700000D01*
X159538307Y-100700000D01*
X159518345Y-100510072D01*
X159459330Y-100328444D01*
X159363843Y-100163056D01*
X159236056Y-100021134D01*
X159081555Y-99908882D01*
X158907091Y-99831206D01*
X158907089Y-99831205D01*
X158720290Y-99791500D01*
X158529316Y-99791500D01*
X158342517Y-99831205D01*
X158168049Y-99908883D01*
X158013548Y-100021135D01*
X157885762Y-100163057D01*
X157790276Y-100328443D01*
X157790273Y-100328450D01*
X157731262Y-100510068D01*
X157731261Y-100510072D01*
X157711299Y-100700000D01*
X154538307Y-100700000D01*
X154518345Y-100510072D01*
X154459330Y-100328444D01*
X154363843Y-100163056D01*
X154236056Y-100021134D01*
X154081555Y-99908882D01*
X153907091Y-99831206D01*
X153907089Y-99831205D01*
X153720290Y-99791500D01*
X153529316Y-99791500D01*
X153342517Y-99831205D01*
X153168049Y-99908883D01*
X153013548Y-100021135D01*
X152885762Y-100163057D01*
X152790276Y-100328443D01*
X152790273Y-100328450D01*
X152731262Y-100510068D01*
X152731261Y-100510072D01*
X152711299Y-100700000D01*
X149538307Y-100700000D01*
X149518345Y-100510072D01*
X149459330Y-100328444D01*
X149363843Y-100163056D01*
X149236056Y-100021134D01*
X149081555Y-99908882D01*
X148907091Y-99831206D01*
X148907089Y-99831205D01*
X148720290Y-99791500D01*
X148529316Y-99791500D01*
X148342517Y-99831205D01*
X148168049Y-99908883D01*
X148013548Y-100021135D01*
X147885762Y-100163057D01*
X147790276Y-100328443D01*
X147790273Y-100328450D01*
X147731262Y-100510068D01*
X147731261Y-100510072D01*
X147711299Y-100700000D01*
X144538307Y-100700000D01*
X144518345Y-100510072D01*
X144459330Y-100328444D01*
X144363843Y-100163056D01*
X144236056Y-100021134D01*
X144081555Y-99908882D01*
X143907091Y-99831206D01*
X143907089Y-99831205D01*
X143720290Y-99791500D01*
X143529316Y-99791500D01*
X143342517Y-99831205D01*
X143168049Y-99908883D01*
X143013548Y-100021135D01*
X142885762Y-100163057D01*
X142790276Y-100328443D01*
X142790273Y-100328450D01*
X142731262Y-100510068D01*
X142731261Y-100510072D01*
X142711299Y-100700000D01*
X139538307Y-100700000D01*
X139518345Y-100510072D01*
X139459330Y-100328444D01*
X139363843Y-100163056D01*
X139236056Y-100021134D01*
X139081555Y-99908882D01*
X138907091Y-99831206D01*
X138907089Y-99831205D01*
X138720290Y-99791500D01*
X138529316Y-99791500D01*
X138342517Y-99831205D01*
X138168049Y-99908883D01*
X138013548Y-100021135D01*
X137885762Y-100163057D01*
X137790276Y-100328443D01*
X137790273Y-100328450D01*
X137731262Y-100510068D01*
X137731261Y-100510072D01*
X137711299Y-100700000D01*
X134538307Y-100700000D01*
X134518345Y-100510072D01*
X134459330Y-100328444D01*
X134363843Y-100163056D01*
X134236056Y-100021134D01*
X134081555Y-99908882D01*
X133907091Y-99831206D01*
X133907089Y-99831205D01*
X133720290Y-99791500D01*
X133529316Y-99791500D01*
X133342517Y-99831205D01*
X133168049Y-99908883D01*
X133013548Y-100021135D01*
X132885762Y-100163057D01*
X132790276Y-100328443D01*
X132790273Y-100328450D01*
X132731262Y-100510068D01*
X132731261Y-100510072D01*
X132711299Y-100700000D01*
X129538307Y-100700000D01*
X129518345Y-100510072D01*
X129459330Y-100328444D01*
X129363843Y-100163056D01*
X129236056Y-100021134D01*
X129081555Y-99908882D01*
X128907091Y-99831206D01*
X128907089Y-99831205D01*
X128720290Y-99791500D01*
X128529316Y-99791500D01*
X128342517Y-99831205D01*
X128168049Y-99908883D01*
X128013548Y-100021135D01*
X127885762Y-100163057D01*
X127790276Y-100328443D01*
X127790273Y-100328450D01*
X127731262Y-100510068D01*
X127731261Y-100510072D01*
X127711299Y-100700000D01*
X124538307Y-100700000D01*
X124518345Y-100510072D01*
X124459330Y-100328444D01*
X124363843Y-100163056D01*
X124236056Y-100021134D01*
X124081555Y-99908882D01*
X123907091Y-99831206D01*
X123907089Y-99831205D01*
X123720290Y-99791500D01*
X123529316Y-99791500D01*
X123342517Y-99831205D01*
X123168049Y-99908883D01*
X123013548Y-100021135D01*
X122885762Y-100163057D01*
X122790276Y-100328443D01*
X122790273Y-100328450D01*
X122731262Y-100510068D01*
X122731261Y-100510072D01*
X122711299Y-100700000D01*
X119538307Y-100700000D01*
X119518345Y-100510072D01*
X119459330Y-100328444D01*
X119363843Y-100163056D01*
X119236056Y-100021134D01*
X119081555Y-99908882D01*
X118907091Y-99831206D01*
X118907089Y-99831205D01*
X118720290Y-99791500D01*
X118529316Y-99791500D01*
X118342517Y-99831205D01*
X118168049Y-99908883D01*
X118013548Y-100021135D01*
X117885762Y-100163057D01*
X117790276Y-100328443D01*
X117790273Y-100328450D01*
X117731262Y-100510068D01*
X117731261Y-100510072D01*
X117711299Y-100700000D01*
X114538307Y-100700000D01*
X114518345Y-100510072D01*
X114459330Y-100328444D01*
X114363843Y-100163056D01*
X114236056Y-100021134D01*
X114081555Y-99908882D01*
X113907091Y-99831206D01*
X113907089Y-99831205D01*
X113720290Y-99791500D01*
X113529316Y-99791500D01*
X113342517Y-99831205D01*
X113168049Y-99908883D01*
X113013548Y-100021135D01*
X112885762Y-100163057D01*
X112790276Y-100328443D01*
X112790273Y-100328450D01*
X112731262Y-100510068D01*
X112731261Y-100510072D01*
X112711299Y-100700000D01*
X109538307Y-100700000D01*
X109518345Y-100510072D01*
X109459330Y-100328444D01*
X109363843Y-100163056D01*
X109236056Y-100021134D01*
X109081555Y-99908882D01*
X108907091Y-99831206D01*
X108907089Y-99831205D01*
X108720290Y-99791500D01*
X108529316Y-99791500D01*
X108342517Y-99831205D01*
X108168049Y-99908883D01*
X108013548Y-100021135D01*
X107885762Y-100163057D01*
X107790276Y-100328443D01*
X107790273Y-100328450D01*
X107731262Y-100510068D01*
X107731261Y-100510072D01*
X107711299Y-100700000D01*
X104790000Y-100700000D01*
X104790000Y-95700000D01*
X107711299Y-95700000D01*
X107731261Y-95889928D01*
X107731262Y-95889931D01*
X107790273Y-96071549D01*
X107790276Y-96071556D01*
X107885763Y-96236944D01*
X108013550Y-96378866D01*
X108168051Y-96491118D01*
X108342515Y-96568794D01*
X108529316Y-96608500D01*
X108720290Y-96608500D01*
X108907091Y-96568794D01*
X109081555Y-96491118D01*
X109236056Y-96378866D01*
X109363843Y-96236944D01*
X109459330Y-96071556D01*
X109518345Y-95889928D01*
X109538307Y-95700000D01*
X112711299Y-95700000D01*
X112731261Y-95889928D01*
X112731262Y-95889931D01*
X112790273Y-96071549D01*
X112790276Y-96071556D01*
X112885763Y-96236944D01*
X113013550Y-96378866D01*
X113168051Y-96491118D01*
X113342515Y-96568794D01*
X113529316Y-96608500D01*
X113720290Y-96608500D01*
X113907091Y-96568794D01*
X114081555Y-96491118D01*
X114236056Y-96378866D01*
X114363843Y-96236944D01*
X114459330Y-96071556D01*
X114518345Y-95889928D01*
X114538307Y-95700000D01*
X117711299Y-95700000D01*
X117731261Y-95889928D01*
X117731262Y-95889931D01*
X117790273Y-96071549D01*
X117790276Y-96071556D01*
X117885763Y-96236944D01*
X118013550Y-96378866D01*
X118168051Y-96491118D01*
X118342515Y-96568794D01*
X118529316Y-96608500D01*
X118720290Y-96608500D01*
X118907091Y-96568794D01*
X119081555Y-96491118D01*
X119236056Y-96378866D01*
X119363843Y-96236944D01*
X119459330Y-96071556D01*
X119518345Y-95889928D01*
X119538307Y-95700000D01*
X122711299Y-95700000D01*
X122731261Y-95889928D01*
X122731262Y-95889931D01*
X122790273Y-96071549D01*
X122790276Y-96071556D01*
X122885763Y-96236944D01*
X123013550Y-96378866D01*
X123168051Y-96491118D01*
X123342515Y-96568794D01*
X123529316Y-96608500D01*
X123720290Y-96608500D01*
X123907091Y-96568794D01*
X124081555Y-96491118D01*
X124236056Y-96378866D01*
X124363843Y-96236944D01*
X124459330Y-96071556D01*
X124518345Y-95889928D01*
X124538307Y-95700000D01*
X127711299Y-95700000D01*
X127731261Y-95889928D01*
X127731262Y-95889931D01*
X127790273Y-96071549D01*
X127790276Y-96071556D01*
X127885763Y-96236944D01*
X128013550Y-96378866D01*
X128168051Y-96491118D01*
X128342515Y-96568794D01*
X128529316Y-96608500D01*
X128720290Y-96608500D01*
X128907091Y-96568794D01*
X129081555Y-96491118D01*
X129236056Y-96378866D01*
X129363843Y-96236944D01*
X129459330Y-96071556D01*
X129518345Y-95889928D01*
X129538307Y-95700000D01*
X129518345Y-95510072D01*
X129459330Y-95328444D01*
X129363843Y-95163056D01*
X129236056Y-95021134D01*
X129081555Y-94908882D01*
X128907091Y-94831206D01*
X128907089Y-94831205D01*
X128720290Y-94791500D01*
X128529316Y-94791500D01*
X128342517Y-94831205D01*
X128168049Y-94908883D01*
X128013548Y-95021135D01*
X127885762Y-95163057D01*
X127790276Y-95328443D01*
X127790273Y-95328450D01*
X127736048Y-95495338D01*
X127731261Y-95510072D01*
X127711299Y-95700000D01*
X124538307Y-95700000D01*
X124518345Y-95510072D01*
X124459330Y-95328444D01*
X124363843Y-95163056D01*
X124236056Y-95021134D01*
X124081555Y-94908882D01*
X123907091Y-94831206D01*
X123907089Y-94831205D01*
X123720290Y-94791500D01*
X123529316Y-94791500D01*
X123342517Y-94831205D01*
X123168049Y-94908883D01*
X123013548Y-95021135D01*
X122885762Y-95163057D01*
X122790276Y-95328443D01*
X122790273Y-95328450D01*
X122736048Y-95495338D01*
X122731261Y-95510072D01*
X122711299Y-95700000D01*
X119538307Y-95700000D01*
X119518345Y-95510072D01*
X119459330Y-95328444D01*
X119363843Y-95163056D01*
X119236056Y-95021134D01*
X119081555Y-94908882D01*
X118907091Y-94831206D01*
X118907089Y-94831205D01*
X118720290Y-94791500D01*
X118529316Y-94791500D01*
X118342517Y-94831205D01*
X118168049Y-94908883D01*
X118013548Y-95021135D01*
X117885762Y-95163057D01*
X117790276Y-95328443D01*
X117790273Y-95328450D01*
X117736048Y-95495338D01*
X117731261Y-95510072D01*
X117711299Y-95700000D01*
X114538307Y-95700000D01*
X114518345Y-95510072D01*
X114459330Y-95328444D01*
X114363843Y-95163056D01*
X114236056Y-95021134D01*
X114081555Y-94908882D01*
X113907091Y-94831206D01*
X113907089Y-94831205D01*
X113720290Y-94791500D01*
X113529316Y-94791500D01*
X113342517Y-94831205D01*
X113168049Y-94908883D01*
X113013548Y-95021135D01*
X112885762Y-95163057D01*
X112790276Y-95328443D01*
X112790273Y-95328450D01*
X112736048Y-95495338D01*
X112731261Y-95510072D01*
X112711299Y-95700000D01*
X109538307Y-95700000D01*
X109518345Y-95510072D01*
X109459330Y-95328444D01*
X109363843Y-95163056D01*
X109236056Y-95021134D01*
X109081555Y-94908882D01*
X108907091Y-94831206D01*
X108907089Y-94831205D01*
X108720290Y-94791500D01*
X108529316Y-94791500D01*
X108342517Y-94831205D01*
X108168049Y-94908883D01*
X108013548Y-95021135D01*
X107885762Y-95163057D01*
X107790276Y-95328443D01*
X107790273Y-95328450D01*
X107736048Y-95495338D01*
X107731261Y-95510072D01*
X107711299Y-95700000D01*
X104790000Y-95700000D01*
X104790000Y-94080000D01*
X131267245Y-94080000D01*
X132253588Y-94080000D01*
X132320627Y-94099685D01*
X132366382Y-94152489D01*
X132376526Y-94220183D01*
X132362069Y-94330000D01*
X132376526Y-94439816D01*
X132365762Y-94508849D01*
X132319382Y-94561105D01*
X132253588Y-94580000D01*
X131267246Y-94580000D01*
X131267246Y-95577844D01*
X131273647Y-95637372D01*
X131273649Y-95637379D01*
X131323891Y-95772086D01*
X131323895Y-95772093D01*
X131410055Y-95887187D01*
X131410058Y-95887190D01*
X131525152Y-95973350D01*
X131525159Y-95973354D01*
X131659866Y-96023596D01*
X131659873Y-96023598D01*
X131719401Y-96029999D01*
X131719418Y-96030000D01*
X132717246Y-96030000D01*
X132717246Y-95043658D01*
X132736931Y-94976619D01*
X132789735Y-94930864D01*
X132857430Y-94920719D01*
X132927923Y-94930000D01*
X132927930Y-94930000D01*
X133006562Y-94930000D01*
X133006569Y-94930000D01*
X133077061Y-94920719D01*
X133146094Y-94931484D01*
X133198350Y-94977863D01*
X133217245Y-95043658D01*
X133217245Y-96029999D01*
X133217246Y-96030000D01*
X134215074Y-96030000D01*
X134215090Y-96029999D01*
X134274618Y-96023598D01*
X134274625Y-96023596D01*
X134409332Y-95973354D01*
X134409339Y-95973350D01*
X134524433Y-95887190D01*
X134524436Y-95887187D01*
X134610596Y-95772093D01*
X134610600Y-95772086D01*
X134660842Y-95637379D01*
X134660844Y-95637372D01*
X134667245Y-95577844D01*
X134667246Y-95577827D01*
X134667246Y-94580000D01*
X133680904Y-94580000D01*
X133613865Y-94560315D01*
X133568110Y-94507511D01*
X133557965Y-94439816D01*
X133572422Y-94330004D01*
X138753955Y-94330004D01*
X138773089Y-94585343D01*
X138773090Y-94585348D01*
X138830068Y-94834987D01*
X138830070Y-94834996D01*
X138830072Y-94835001D01*
X138923624Y-95073369D01*
X139051659Y-95295131D01*
X139102194Y-95358500D01*
X139211318Y-95495338D01*
X139364396Y-95637372D01*
X139399027Y-95669505D01*
X139610601Y-95813754D01*
X139610606Y-95813756D01*
X139610607Y-95813757D01*
X139610608Y-95813758D01*
X139733136Y-95872764D01*
X139841307Y-95924856D01*
X139841308Y-95924856D01*
X139841311Y-95924858D01*
X140086003Y-96000335D01*
X140086004Y-96000335D01*
X140086007Y-96000336D01*
X140339204Y-96038499D01*
X140339209Y-96038499D01*
X140339212Y-96038500D01*
X140339213Y-96038500D01*
X140595279Y-96038500D01*
X140595280Y-96038500D01*
X140595287Y-96038499D01*
X140848484Y-96000336D01*
X140848485Y-96000335D01*
X140848489Y-96000335D01*
X141093181Y-95924858D01*
X141323892Y-95813754D01*
X141490737Y-95700000D01*
X142711299Y-95700000D01*
X142731261Y-95889928D01*
X142731262Y-95889931D01*
X142790273Y-96071549D01*
X142790276Y-96071556D01*
X142885763Y-96236944D01*
X143013550Y-96378866D01*
X143168051Y-96491118D01*
X143342515Y-96568794D01*
X143529316Y-96608500D01*
X143720290Y-96608500D01*
X143907091Y-96568794D01*
X144081555Y-96491118D01*
X144236056Y-96378866D01*
X144363843Y-96236944D01*
X144459330Y-96071556D01*
X144518345Y-95889928D01*
X144538307Y-95700000D01*
X152711299Y-95700000D01*
X152731261Y-95889928D01*
X152731262Y-95889931D01*
X152790273Y-96071549D01*
X152790276Y-96071556D01*
X152885763Y-96236944D01*
X153013550Y-96378866D01*
X153168051Y-96491118D01*
X153342515Y-96568794D01*
X153529316Y-96608500D01*
X153720290Y-96608500D01*
X153907091Y-96568794D01*
X154081555Y-96491118D01*
X154236056Y-96378866D01*
X154363843Y-96236944D01*
X154459330Y-96071556D01*
X154518345Y-95889928D01*
X154538307Y-95700000D01*
X157711299Y-95700000D01*
X157731261Y-95889928D01*
X157731262Y-95889931D01*
X157790273Y-96071549D01*
X157790276Y-96071556D01*
X157885763Y-96236944D01*
X158013550Y-96378866D01*
X158168051Y-96491118D01*
X158342515Y-96568794D01*
X158529316Y-96608500D01*
X158720290Y-96608500D01*
X158907091Y-96568794D01*
X159081555Y-96491118D01*
X159236056Y-96378866D01*
X159363843Y-96236944D01*
X159459330Y-96071556D01*
X159518345Y-95889928D01*
X159538307Y-95700000D01*
X167711299Y-95700000D01*
X167731261Y-95889928D01*
X167731262Y-95889931D01*
X167790273Y-96071549D01*
X167790276Y-96071556D01*
X167885763Y-96236944D01*
X168013550Y-96378866D01*
X168168051Y-96491118D01*
X168342515Y-96568794D01*
X168529316Y-96608500D01*
X168720290Y-96608500D01*
X168907091Y-96568794D01*
X169081555Y-96491118D01*
X169236056Y-96378866D01*
X169363843Y-96236944D01*
X169459330Y-96071556D01*
X169518345Y-95889928D01*
X169538307Y-95700000D01*
X172711299Y-95700000D01*
X172731261Y-95889928D01*
X172731262Y-95889931D01*
X172790273Y-96071549D01*
X172790276Y-96071556D01*
X172885763Y-96236944D01*
X173013550Y-96378866D01*
X173168051Y-96491118D01*
X173342515Y-96568794D01*
X173529316Y-96608500D01*
X173720290Y-96608500D01*
X173907091Y-96568794D01*
X174081555Y-96491118D01*
X174236056Y-96378866D01*
X174363843Y-96236944D01*
X174459330Y-96071556D01*
X174518345Y-95889928D01*
X174538307Y-95700000D01*
X174518345Y-95510072D01*
X174459330Y-95328444D01*
X174363843Y-95163056D01*
X174236056Y-95021134D01*
X174081555Y-94908882D01*
X173907091Y-94831206D01*
X173907089Y-94831205D01*
X173720290Y-94791500D01*
X173529316Y-94791500D01*
X173342517Y-94831205D01*
X173168049Y-94908883D01*
X173013548Y-95021135D01*
X172885762Y-95163057D01*
X172790276Y-95328443D01*
X172790273Y-95328450D01*
X172736048Y-95495338D01*
X172731261Y-95510072D01*
X172711299Y-95700000D01*
X169538307Y-95700000D01*
X169518345Y-95510072D01*
X169459330Y-95328444D01*
X169363843Y-95163056D01*
X169236056Y-95021134D01*
X169081555Y-94908882D01*
X168907091Y-94831206D01*
X168907089Y-94831205D01*
X168720290Y-94791500D01*
X168529316Y-94791500D01*
X168342517Y-94831205D01*
X168168049Y-94908883D01*
X168013548Y-95021135D01*
X167885762Y-95163057D01*
X167790276Y-95328443D01*
X167790273Y-95328450D01*
X167736048Y-95495338D01*
X167731261Y-95510072D01*
X167711299Y-95700000D01*
X159538307Y-95700000D01*
X159518345Y-95510072D01*
X159459330Y-95328444D01*
X159363843Y-95163056D01*
X159236056Y-95021134D01*
X159081555Y-94908882D01*
X158907091Y-94831206D01*
X158907089Y-94831205D01*
X158720290Y-94791500D01*
X158529316Y-94791500D01*
X158342517Y-94831205D01*
X158168049Y-94908883D01*
X158013548Y-95021135D01*
X157885762Y-95163057D01*
X157790276Y-95328443D01*
X157790273Y-95328450D01*
X157736048Y-95495338D01*
X157731261Y-95510072D01*
X157711299Y-95700000D01*
X154538307Y-95700000D01*
X154518345Y-95510072D01*
X154459330Y-95328444D01*
X154363843Y-95163056D01*
X154236056Y-95021134D01*
X154081555Y-94908882D01*
X153907091Y-94831206D01*
X153907089Y-94831205D01*
X153720290Y-94791500D01*
X153529316Y-94791500D01*
X153342517Y-94831205D01*
X153168049Y-94908883D01*
X153013548Y-95021135D01*
X152885762Y-95163057D01*
X152790276Y-95328443D01*
X152790273Y-95328450D01*
X152736048Y-95495338D01*
X152731261Y-95510072D01*
X152711299Y-95700000D01*
X144538307Y-95700000D01*
X144518345Y-95510072D01*
X144459330Y-95328444D01*
X144363843Y-95163056D01*
X144236056Y-95021134D01*
X144081555Y-94908882D01*
X144056763Y-94897844D01*
X146530000Y-94897844D01*
X146536401Y-94957372D01*
X146536403Y-94957379D01*
X146586645Y-95092086D01*
X146586649Y-95092093D01*
X146672809Y-95207187D01*
X146672812Y-95207190D01*
X146787906Y-95293350D01*
X146787913Y-95293354D01*
X146922620Y-95343596D01*
X146922627Y-95343598D01*
X146982155Y-95349999D01*
X146982172Y-95350000D01*
X148380000Y-95350000D01*
X148380000Y-94165649D01*
X148399685Y-94098610D01*
X148452489Y-94052855D01*
X148517883Y-94042429D01*
X148555485Y-94046666D01*
X148585071Y-94050000D01*
X148585074Y-94050000D01*
X148674929Y-94050000D01*
X148704514Y-94046666D01*
X148742116Y-94042429D01*
X148810937Y-94054483D01*
X148862317Y-94101831D01*
X148880000Y-94165649D01*
X148880000Y-95350000D01*
X150277828Y-95350000D01*
X150277844Y-95349999D01*
X150337372Y-95343598D01*
X150337379Y-95343596D01*
X150472086Y-95293354D01*
X150472093Y-95293350D01*
X150587187Y-95207190D01*
X150587190Y-95207187D01*
X150673350Y-95092093D01*
X150673354Y-95092086D01*
X150723596Y-94957379D01*
X150723598Y-94957372D01*
X150729999Y-94897844D01*
X150730000Y-94897827D01*
X150730000Y-93500000D01*
X149545650Y-93500000D01*
X149478611Y-93480315D01*
X149432856Y-93427511D01*
X149422430Y-93362117D01*
X149435062Y-93250003D01*
X149435062Y-93250000D01*
X161756573Y-93250000D01*
X161776257Y-93537778D01*
X161776258Y-93537780D01*
X161834941Y-93820185D01*
X161834946Y-93820201D01*
X161927279Y-94080000D01*
X161931541Y-94091992D01*
X162064247Y-94348103D01*
X162230591Y-94583758D01*
X162230595Y-94583762D01*
X162230595Y-94583763D01*
X162427477Y-94794571D01*
X162582534Y-94920719D01*
X162651228Y-94976606D01*
X162897686Y-95126481D01*
X162897688Y-95126482D01*
X162897690Y-95126483D01*
X162981890Y-95163056D01*
X163162256Y-95241400D01*
X163440011Y-95319223D01*
X163691243Y-95353753D01*
X163725774Y-95358500D01*
X163725775Y-95358500D01*
X164014226Y-95358500D01*
X164045033Y-95354265D01*
X164299989Y-95319223D01*
X164577744Y-95241400D01*
X164842314Y-95126481D01*
X165088772Y-94976606D01*
X165312526Y-94794568D01*
X165509409Y-94583758D01*
X165675753Y-94348103D01*
X165808459Y-94091992D01*
X165905055Y-93820196D01*
X165905055Y-93820191D01*
X165905058Y-93820185D01*
X165953590Y-93586630D01*
X165963742Y-93537778D01*
X165983427Y-93250000D01*
X165963742Y-92962222D01*
X165943789Y-92866204D01*
X165905058Y-92679814D01*
X165905053Y-92679798D01*
X165849918Y-92524664D01*
X165808459Y-92408008D01*
X165675753Y-92151897D01*
X165509409Y-91916242D01*
X165509404Y-91916236D01*
X165312522Y-91705428D01*
X165088771Y-91523393D01*
X164842309Y-91373516D01*
X164577740Y-91258598D01*
X164536622Y-91247077D01*
X164477380Y-91210035D01*
X164447569Y-91146844D01*
X164456653Y-91077568D01*
X164456802Y-91077233D01*
X164459331Y-91071553D01*
X164479866Y-91008353D01*
X164518345Y-90889928D01*
X164538307Y-90700000D01*
X167711299Y-90700000D01*
X167731261Y-90889928D01*
X167731262Y-90889931D01*
X167790273Y-91071549D01*
X167790275Y-91071553D01*
X167790276Y-91071556D01*
X167885763Y-91236944D01*
X167936064Y-91292809D01*
X168008735Y-91373519D01*
X168013550Y-91378866D01*
X168168051Y-91491118D01*
X168342515Y-91568794D01*
X168529316Y-91608500D01*
X168720290Y-91608500D01*
X168901417Y-91570000D01*
X173776681Y-91570000D01*
X173795927Y-91814554D01*
X173853193Y-92053087D01*
X173947071Y-92279730D01*
X174060680Y-92465123D01*
X174075248Y-92488896D01*
X174234567Y-92675433D01*
X174421104Y-92834752D01*
X174439854Y-92846242D01*
X174630269Y-92962928D01*
X174737108Y-93007181D01*
X174856908Y-93056805D01*
X175095443Y-93114072D01*
X175340000Y-93133319D01*
X175584557Y-93114072D01*
X175823092Y-93056805D01*
X176049732Y-92962927D01*
X176258896Y-92834752D01*
X176445433Y-92675433D01*
X176604752Y-92488896D01*
X176732927Y-92279732D01*
X176826805Y-92053092D01*
X176884072Y-91814557D01*
X176903319Y-91570000D01*
X176884072Y-91325443D01*
X176826805Y-91086908D01*
X176745213Y-90889928D01*
X176732928Y-90860269D01*
X176618720Y-90673897D01*
X176600476Y-90606452D01*
X176621593Y-90539849D01*
X176650137Y-90509841D01*
X176747191Y-90437186D01*
X176833350Y-90322093D01*
X176833354Y-90322086D01*
X176883596Y-90187379D01*
X176883598Y-90187372D01*
X176889999Y-90127844D01*
X176890000Y-90127827D01*
X176890000Y-89280000D01*
X176006956Y-89280000D01*
X175939917Y-89260315D01*
X175894162Y-89207511D01*
X175883245Y-89147537D01*
X175884392Y-89130772D01*
X175893877Y-88992114D01*
X175880809Y-88929227D01*
X175886443Y-88859586D01*
X175928834Y-88804045D01*
X175994523Y-88780239D01*
X176002216Y-88780000D01*
X176890000Y-88780000D01*
X176890000Y-87932172D01*
X176889999Y-87932155D01*
X176883598Y-87872627D01*
X176883596Y-87872620D01*
X176833354Y-87737913D01*
X176833350Y-87737906D01*
X176747190Y-87622812D01*
X176747187Y-87622809D01*
X176632093Y-87536649D01*
X176632086Y-87536645D01*
X176497379Y-87486403D01*
X176497372Y-87486401D01*
X176437844Y-87480000D01*
X175590000Y-87480000D01*
X175590000Y-88365347D01*
X175570315Y-88432386D01*
X175517511Y-88478141D01*
X175448353Y-88488085D01*
X175432547Y-88484749D01*
X175415598Y-88480000D01*
X175415596Y-88480000D01*
X175302378Y-88480000D01*
X175302376Y-88480000D01*
X175230884Y-88489826D01*
X175161789Y-88479453D01*
X175109270Y-88433371D01*
X175090000Y-88366981D01*
X175090000Y-87480000D01*
X174242155Y-87480000D01*
X174182627Y-87486401D01*
X174182620Y-87486403D01*
X174047913Y-87536645D01*
X174047906Y-87536649D01*
X173932812Y-87622809D01*
X173932809Y-87622812D01*
X173846649Y-87737906D01*
X173846645Y-87737913D01*
X173796403Y-87872620D01*
X173796401Y-87872627D01*
X173790000Y-87932155D01*
X173790000Y-88780000D01*
X174673044Y-88780000D01*
X174740083Y-88799685D01*
X174785838Y-88852489D01*
X174796755Y-88912463D01*
X174796441Y-88917045D01*
X174796441Y-88917047D01*
X174786123Y-89067886D01*
X174799191Y-89130772D01*
X174793557Y-89200414D01*
X174751166Y-89255955D01*
X174685477Y-89279761D01*
X174677784Y-89280000D01*
X173790000Y-89280000D01*
X173790000Y-90127844D01*
X173796401Y-90187372D01*
X173796403Y-90187379D01*
X173846645Y-90322086D01*
X173846649Y-90322093D01*
X173932809Y-90437186D01*
X174029862Y-90509841D01*
X174071733Y-90565775D01*
X174076717Y-90635467D01*
X174061279Y-90673897D01*
X173947072Y-90860269D01*
X173853193Y-91086912D01*
X173795927Y-91325445D01*
X173776681Y-91570000D01*
X168901417Y-91570000D01*
X168907091Y-91568794D01*
X169081555Y-91491118D01*
X169236056Y-91378866D01*
X169363843Y-91236944D01*
X169459330Y-91071556D01*
X169518345Y-90889928D01*
X169538307Y-90700000D01*
X169518345Y-90510072D01*
X169459330Y-90328444D01*
X169363843Y-90163056D01*
X169236056Y-90021134D01*
X169081555Y-89908882D01*
X168907091Y-89831206D01*
X168907089Y-89831205D01*
X168720290Y-89791500D01*
X168529316Y-89791500D01*
X168342517Y-89831205D01*
X168168049Y-89908883D01*
X168013548Y-90021135D01*
X167885762Y-90163057D01*
X167790276Y-90328443D01*
X167790273Y-90328450D01*
X167731336Y-90509841D01*
X167731261Y-90510072D01*
X167711299Y-90700000D01*
X164538307Y-90700000D01*
X164518345Y-90510072D01*
X164459330Y-90328444D01*
X164363843Y-90163056D01*
X164236056Y-90021134D01*
X164081555Y-89908882D01*
X163907091Y-89831206D01*
X163907089Y-89831205D01*
X163720290Y-89791500D01*
X163529316Y-89791500D01*
X163342517Y-89831205D01*
X163168049Y-89908883D01*
X163013548Y-90021135D01*
X162885762Y-90163057D01*
X162790276Y-90328443D01*
X162790273Y-90328450D01*
X162731336Y-90509841D01*
X162731261Y-90510072D01*
X162721131Y-90606452D01*
X162714043Y-90673897D01*
X162711299Y-90700000D01*
X162731261Y-90889928D01*
X162731262Y-90889931D01*
X162790273Y-91071549D01*
X162790278Y-91071561D01*
X162886617Y-91238426D01*
X162903090Y-91306326D01*
X162880237Y-91372353D01*
X162843659Y-91406373D01*
X162651228Y-91523393D01*
X162427477Y-91705428D01*
X162230595Y-91916236D01*
X162230595Y-91916237D01*
X162064247Y-92151896D01*
X161931540Y-92408009D01*
X161834946Y-92679798D01*
X161834941Y-92679814D01*
X161776258Y-92962219D01*
X161776257Y-92962221D01*
X161756573Y-93250000D01*
X149435062Y-93250000D01*
X149435062Y-93249996D01*
X149422430Y-93137883D01*
X149434484Y-93069062D01*
X149481834Y-93017682D01*
X149545650Y-93000000D01*
X150730000Y-93000000D01*
X150730000Y-91602172D01*
X150729999Y-91602155D01*
X150723598Y-91542627D01*
X150723596Y-91542620D01*
X150673354Y-91407913D01*
X150673350Y-91407906D01*
X150587190Y-91292812D01*
X150587187Y-91292809D01*
X150472093Y-91206649D01*
X150472086Y-91206645D01*
X150337379Y-91156403D01*
X150337372Y-91156401D01*
X150277844Y-91150000D01*
X149604514Y-91150000D01*
X149537475Y-91130315D01*
X149491720Y-91077511D01*
X149481776Y-91008353D01*
X149486583Y-90987682D01*
X149496437Y-90957350D01*
X149518345Y-90889928D01*
X149538307Y-90700000D01*
X152711299Y-90700000D01*
X152731261Y-90889928D01*
X152731262Y-90889931D01*
X152790273Y-91071549D01*
X152790275Y-91071553D01*
X152790276Y-91071556D01*
X152885763Y-91236944D01*
X152936064Y-91292809D01*
X153008735Y-91373519D01*
X153013550Y-91378866D01*
X153168051Y-91491118D01*
X153342515Y-91568794D01*
X153529316Y-91608500D01*
X153720290Y-91608500D01*
X153907091Y-91568794D01*
X154081555Y-91491118D01*
X154236056Y-91378866D01*
X154363843Y-91236944D01*
X154459330Y-91071556D01*
X154518345Y-90889928D01*
X154538307Y-90700000D01*
X157711299Y-90700000D01*
X157731261Y-90889928D01*
X157731262Y-90889931D01*
X157790273Y-91071549D01*
X157790275Y-91071553D01*
X157790276Y-91071556D01*
X157885763Y-91236944D01*
X157936064Y-91292809D01*
X158008735Y-91373519D01*
X158013550Y-91378866D01*
X158168051Y-91491118D01*
X158342515Y-91568794D01*
X158529316Y-91608500D01*
X158720290Y-91608500D01*
X158907091Y-91568794D01*
X159081555Y-91491118D01*
X159236056Y-91378866D01*
X159363843Y-91236944D01*
X159459330Y-91071556D01*
X159518345Y-90889928D01*
X159538307Y-90700000D01*
X159518345Y-90510072D01*
X159459330Y-90328444D01*
X159363843Y-90163056D01*
X159236056Y-90021134D01*
X159081555Y-89908882D01*
X158907091Y-89831206D01*
X158907089Y-89831205D01*
X158720290Y-89791500D01*
X158529316Y-89791500D01*
X158342517Y-89831205D01*
X158168049Y-89908883D01*
X158013548Y-90021135D01*
X157885762Y-90163057D01*
X157790276Y-90328443D01*
X157790273Y-90328450D01*
X157731336Y-90509841D01*
X157731261Y-90510072D01*
X157721131Y-90606452D01*
X157714043Y-90673897D01*
X157711299Y-90700000D01*
X154538307Y-90700000D01*
X154518345Y-90510072D01*
X154459330Y-90328444D01*
X154363843Y-90163056D01*
X154236056Y-90021134D01*
X154081555Y-89908882D01*
X153907091Y-89831206D01*
X153907089Y-89831205D01*
X153720290Y-89791500D01*
X153529316Y-89791500D01*
X153342517Y-89831205D01*
X153168049Y-89908883D01*
X153013548Y-90021135D01*
X152885762Y-90163057D01*
X152790276Y-90328443D01*
X152790273Y-90328450D01*
X152731336Y-90509841D01*
X152731261Y-90510072D01*
X152711299Y-90700000D01*
X149538307Y-90700000D01*
X149518345Y-90510072D01*
X149459330Y-90328444D01*
X149363843Y-90163056D01*
X149236056Y-90021134D01*
X149081555Y-89908882D01*
X148907091Y-89831206D01*
X148907089Y-89831205D01*
X148720290Y-89791500D01*
X148529316Y-89791500D01*
X148342517Y-89831205D01*
X148168049Y-89908883D01*
X148013548Y-90021135D01*
X147885762Y-90163057D01*
X147790276Y-90328443D01*
X147790273Y-90328450D01*
X147731336Y-90509841D01*
X147731261Y-90510072D01*
X147711299Y-90700000D01*
X147731261Y-90889928D01*
X147731262Y-90889931D01*
X147763023Y-90987682D01*
X147765018Y-91057523D01*
X147728938Y-91117356D01*
X147666237Y-91148184D01*
X147645092Y-91150000D01*
X146982155Y-91150000D01*
X146922627Y-91156401D01*
X146922620Y-91156403D01*
X146787913Y-91206645D01*
X146787906Y-91206649D01*
X146672812Y-91292809D01*
X146672809Y-91292812D01*
X146586649Y-91407906D01*
X146586645Y-91407913D01*
X146536403Y-91542620D01*
X146536401Y-91542627D01*
X146530000Y-91602155D01*
X146530000Y-93000000D01*
X147714350Y-93000000D01*
X147781389Y-93019685D01*
X147827144Y-93072489D01*
X147837570Y-93137883D01*
X147824938Y-93249996D01*
X147824938Y-93250003D01*
X147837570Y-93362117D01*
X147825516Y-93430938D01*
X147778166Y-93482318D01*
X147714350Y-93500000D01*
X146530000Y-93500000D01*
X146530000Y-94897844D01*
X144056763Y-94897844D01*
X143907091Y-94831206D01*
X143907089Y-94831205D01*
X143720290Y-94791500D01*
X143529316Y-94791500D01*
X143342517Y-94831205D01*
X143168049Y-94908883D01*
X143013548Y-95021135D01*
X142885762Y-95163057D01*
X142790276Y-95328443D01*
X142790273Y-95328450D01*
X142736048Y-95495338D01*
X142731261Y-95510072D01*
X142711299Y-95700000D01*
X141490737Y-95700000D01*
X141535465Y-95669505D01*
X141707293Y-95510072D01*
X141723173Y-95495338D01*
X141723173Y-95495336D01*
X141723177Y-95495334D01*
X141882833Y-95295131D01*
X142010868Y-95073369D01*
X142104420Y-94835001D01*
X142161401Y-94585353D01*
X142163218Y-94561105D01*
X142180537Y-94330004D01*
X142180537Y-94329995D01*
X142161402Y-94074656D01*
X142161401Y-94074651D01*
X142161401Y-94074647D01*
X142104420Y-93824999D01*
X142010868Y-93586631D01*
X141882833Y-93364869D01*
X141723177Y-93164666D01*
X141723176Y-93164665D01*
X141723173Y-93164661D01*
X141570095Y-93022627D01*
X141535465Y-92990495D01*
X141524853Y-92983260D01*
X141323895Y-92846248D01*
X141323884Y-92846241D01*
X141093186Y-92735144D01*
X141093167Y-92735137D01*
X140848494Y-92659666D01*
X140848484Y-92659663D01*
X140595287Y-92621500D01*
X140595280Y-92621500D01*
X140339212Y-92621500D01*
X140339204Y-92621500D01*
X140086007Y-92659663D01*
X140086001Y-92659665D01*
X139841307Y-92735143D01*
X139610608Y-92846241D01*
X139610607Y-92846242D01*
X139399026Y-92990495D01*
X139211318Y-93164661D01*
X139051659Y-93364869D01*
X138923624Y-93586630D01*
X138830074Y-93824993D01*
X138830068Y-93825012D01*
X138773090Y-94074651D01*
X138773089Y-94074656D01*
X138753955Y-94329995D01*
X138753955Y-94330004D01*
X133572422Y-94330004D01*
X133572423Y-94330000D01*
X133557965Y-94220183D01*
X133568730Y-94151151D01*
X133615110Y-94098895D01*
X133680904Y-94080000D01*
X134667246Y-94080000D01*
X134667246Y-93082172D01*
X134667245Y-93082155D01*
X134660844Y-93022627D01*
X134660842Y-93022620D01*
X134610600Y-92887913D01*
X134610596Y-92887906D01*
X134524436Y-92772812D01*
X134524433Y-92772809D01*
X134409339Y-92686649D01*
X134409332Y-92686645D01*
X134274625Y-92636403D01*
X134274618Y-92636401D01*
X134215090Y-92630000D01*
X133217246Y-92630000D01*
X133217246Y-93616341D01*
X133197561Y-93683380D01*
X133144757Y-93729135D01*
X133077061Y-93739280D01*
X133006579Y-93730001D01*
X133006574Y-93730000D01*
X133006569Y-93730000D01*
X132927923Y-93730000D01*
X132927917Y-93730000D01*
X132927912Y-93730001D01*
X132857431Y-93739280D01*
X132788396Y-93728514D01*
X132736140Y-93682134D01*
X132717246Y-93616341D01*
X132717246Y-92630000D01*
X131719401Y-92630000D01*
X131659873Y-92636401D01*
X131659866Y-92636403D01*
X131525159Y-92686645D01*
X131525152Y-92686649D01*
X131410058Y-92772809D01*
X131410055Y-92772812D01*
X131323895Y-92887906D01*
X131323891Y-92887913D01*
X131273649Y-93022620D01*
X131273647Y-93022627D01*
X131267246Y-93082155D01*
X131267246Y-93082172D01*
X131267245Y-94080000D01*
X104790000Y-94080000D01*
X104790000Y-89029999D01*
X107056681Y-89029999D01*
X107075927Y-89274554D01*
X107133193Y-89513087D01*
X107227072Y-89739730D01*
X107336819Y-89918824D01*
X107355063Y-89986270D01*
X107333946Y-90052872D01*
X107305402Y-90082879D01*
X107206741Y-90156737D01*
X107206740Y-90156738D01*
X107206739Y-90156739D01*
X107183802Y-90187379D01*
X107119111Y-90273795D01*
X107068011Y-90410795D01*
X107068011Y-90410797D01*
X107061500Y-90471345D01*
X107061500Y-92668654D01*
X107068011Y-92729202D01*
X107068011Y-92729204D01*
X107107380Y-92834752D01*
X107119111Y-92866204D01*
X107206739Y-92983261D01*
X107323796Y-93070889D01*
X107460799Y-93121989D01*
X107488050Y-93124918D01*
X107521345Y-93128499D01*
X107521362Y-93128500D01*
X109718638Y-93128500D01*
X109718654Y-93128499D01*
X109745692Y-93125591D01*
X109779201Y-93121989D01*
X109916204Y-93070889D01*
X110033261Y-92983261D01*
X110120889Y-92866204D01*
X110171989Y-92729201D01*
X110176564Y-92686645D01*
X110178499Y-92668654D01*
X110178499Y-92668647D01*
X110178500Y-92668638D01*
X110178500Y-90700000D01*
X112711299Y-90700000D01*
X112731261Y-90889928D01*
X112731262Y-90889931D01*
X112790273Y-91071549D01*
X112790275Y-91071553D01*
X112790276Y-91071556D01*
X112885763Y-91236944D01*
X112936064Y-91292809D01*
X113008735Y-91373519D01*
X113013550Y-91378866D01*
X113168051Y-91491118D01*
X113342515Y-91568794D01*
X113529316Y-91608500D01*
X113720290Y-91608500D01*
X113907091Y-91568794D01*
X114081555Y-91491118D01*
X114236056Y-91378866D01*
X114363843Y-91236944D01*
X114459330Y-91071556D01*
X114518345Y-90889928D01*
X114538307Y-90700000D01*
X122711299Y-90700000D01*
X122731261Y-90889928D01*
X122731262Y-90889931D01*
X122790273Y-91071549D01*
X122790275Y-91071553D01*
X122790276Y-91071556D01*
X122885763Y-91236944D01*
X122936064Y-91292809D01*
X123008735Y-91373519D01*
X123013550Y-91378866D01*
X123168051Y-91491118D01*
X123342515Y-91568794D01*
X123529316Y-91608500D01*
X123720290Y-91608500D01*
X123907091Y-91568794D01*
X124081555Y-91491118D01*
X124236056Y-91378866D01*
X124363843Y-91236944D01*
X124459330Y-91071556D01*
X124518345Y-90889928D01*
X124538307Y-90700000D01*
X127711299Y-90700000D01*
X127731261Y-90889928D01*
X127731262Y-90889931D01*
X127790273Y-91071549D01*
X127790275Y-91071553D01*
X127790276Y-91071556D01*
X127885763Y-91236944D01*
X127936064Y-91292809D01*
X128008735Y-91373519D01*
X128013550Y-91378866D01*
X128168051Y-91491118D01*
X128342515Y-91568794D01*
X128529316Y-91608500D01*
X128720290Y-91608500D01*
X128907091Y-91568794D01*
X129081555Y-91491118D01*
X129236056Y-91378866D01*
X129363843Y-91236944D01*
X129459330Y-91071556D01*
X129518345Y-90889928D01*
X129538307Y-90700000D01*
X132711299Y-90700000D01*
X132731261Y-90889928D01*
X132731262Y-90889931D01*
X132790273Y-91071549D01*
X132790275Y-91071553D01*
X132790276Y-91071556D01*
X132885763Y-91236944D01*
X132936064Y-91292809D01*
X133008735Y-91373519D01*
X133013550Y-91378866D01*
X133168051Y-91491118D01*
X133342515Y-91568794D01*
X133529316Y-91608500D01*
X133720290Y-91608500D01*
X133907091Y-91568794D01*
X134081555Y-91491118D01*
X134236056Y-91378866D01*
X134363843Y-91236944D01*
X134459330Y-91071556D01*
X134518345Y-90889928D01*
X134538307Y-90700000D01*
X137711299Y-90700000D01*
X137731261Y-90889928D01*
X137731262Y-90889931D01*
X137790273Y-91071549D01*
X137790275Y-91071553D01*
X137790276Y-91071556D01*
X137885763Y-91236944D01*
X137936064Y-91292809D01*
X138008735Y-91373519D01*
X138013550Y-91378866D01*
X138168051Y-91491118D01*
X138342515Y-91568794D01*
X138529316Y-91608500D01*
X138720290Y-91608500D01*
X138907091Y-91568794D01*
X139081555Y-91491118D01*
X139236056Y-91378866D01*
X139363843Y-91236944D01*
X139459330Y-91071556D01*
X139518345Y-90889928D01*
X139538307Y-90700000D01*
X142711299Y-90700000D01*
X142731261Y-90889928D01*
X142731262Y-90889931D01*
X142790273Y-91071549D01*
X142790275Y-91071553D01*
X142790276Y-91071556D01*
X142885763Y-91236944D01*
X142936064Y-91292809D01*
X143008735Y-91373519D01*
X143013550Y-91378866D01*
X143168051Y-91491118D01*
X143342515Y-91568794D01*
X143529316Y-91608500D01*
X143720290Y-91608500D01*
X143907091Y-91568794D01*
X144081555Y-91491118D01*
X144236056Y-91378866D01*
X144363843Y-91236944D01*
X144459330Y-91071556D01*
X144518345Y-90889928D01*
X144538307Y-90700000D01*
X144518345Y-90510072D01*
X144459330Y-90328444D01*
X144363843Y-90163056D01*
X144236056Y-90021134D01*
X144081555Y-89908882D01*
X143907091Y-89831206D01*
X143907089Y-89831205D01*
X143720290Y-89791500D01*
X143529316Y-89791500D01*
X143342517Y-89831205D01*
X143168049Y-89908883D01*
X143013548Y-90021135D01*
X142885762Y-90163057D01*
X142790276Y-90328443D01*
X142790273Y-90328450D01*
X142731336Y-90509841D01*
X142731261Y-90510072D01*
X142721131Y-90606452D01*
X142714043Y-90673897D01*
X142711299Y-90700000D01*
X139538307Y-90700000D01*
X139518345Y-90510072D01*
X139459330Y-90328444D01*
X139363843Y-90163056D01*
X139236056Y-90021134D01*
X139081555Y-89908882D01*
X138907091Y-89831206D01*
X138907089Y-89831205D01*
X138720290Y-89791500D01*
X138529316Y-89791500D01*
X138342517Y-89831205D01*
X138168049Y-89908883D01*
X138013548Y-90021135D01*
X137885762Y-90163057D01*
X137790276Y-90328443D01*
X137790273Y-90328450D01*
X137731336Y-90509841D01*
X137731261Y-90510072D01*
X137721131Y-90606452D01*
X137714043Y-90673897D01*
X137711299Y-90700000D01*
X134538307Y-90700000D01*
X134518345Y-90510072D01*
X134459330Y-90328444D01*
X134363843Y-90163056D01*
X134236056Y-90021134D01*
X134081555Y-89908882D01*
X133907091Y-89831206D01*
X133907089Y-89831205D01*
X133720290Y-89791500D01*
X133529316Y-89791500D01*
X133342517Y-89831205D01*
X133168049Y-89908883D01*
X133013548Y-90021135D01*
X132885762Y-90163057D01*
X132790276Y-90328443D01*
X132790273Y-90328450D01*
X132731336Y-90509841D01*
X132731261Y-90510072D01*
X132711299Y-90700000D01*
X129538307Y-90700000D01*
X129518345Y-90510072D01*
X129459330Y-90328444D01*
X129363843Y-90163056D01*
X129236056Y-90021134D01*
X129081555Y-89908882D01*
X128907091Y-89831206D01*
X128907089Y-89831205D01*
X128720290Y-89791500D01*
X128529316Y-89791500D01*
X128342517Y-89831205D01*
X128168049Y-89908883D01*
X128013548Y-90021135D01*
X127885762Y-90163057D01*
X127790276Y-90328443D01*
X127790273Y-90328450D01*
X127731336Y-90509841D01*
X127731261Y-90510072D01*
X127711299Y-90700000D01*
X124538307Y-90700000D01*
X124518345Y-90510072D01*
X124459330Y-90328444D01*
X124363843Y-90163056D01*
X124236056Y-90021134D01*
X124081555Y-89908882D01*
X123907091Y-89831206D01*
X123907089Y-89831205D01*
X123720290Y-89791500D01*
X123529316Y-89791500D01*
X123342517Y-89831205D01*
X123168049Y-89908883D01*
X123013548Y-90021135D01*
X122885762Y-90163057D01*
X122790276Y-90328443D01*
X122790273Y-90328450D01*
X122731336Y-90509841D01*
X122731261Y-90510072D01*
X122721131Y-90606452D01*
X122714043Y-90673897D01*
X122711299Y-90700000D01*
X114538307Y-90700000D01*
X114518345Y-90510072D01*
X114459330Y-90328444D01*
X114363843Y-90163056D01*
X114236056Y-90021134D01*
X114081555Y-89908882D01*
X113907091Y-89831206D01*
X113907089Y-89831205D01*
X113720290Y-89791500D01*
X113529316Y-89791500D01*
X113342517Y-89831205D01*
X113168049Y-89908883D01*
X113013548Y-90021135D01*
X112885762Y-90163057D01*
X112790276Y-90328443D01*
X112790273Y-90328450D01*
X112731336Y-90509841D01*
X112731261Y-90510072D01*
X112721131Y-90606452D01*
X112714043Y-90673897D01*
X112711299Y-90700000D01*
X110178500Y-90700000D01*
X110178500Y-90471362D01*
X110178499Y-90471352D01*
X110178499Y-90471345D01*
X110174826Y-90437186D01*
X110171989Y-90410799D01*
X110120889Y-90273796D01*
X110033261Y-90156739D01*
X109934596Y-90082879D01*
X109892726Y-90026946D01*
X109887742Y-89957254D01*
X109903180Y-89918824D01*
X110012927Y-89739732D01*
X110106805Y-89513092D01*
X110164072Y-89274557D01*
X110183319Y-89030000D01*
X120796496Y-89030000D01*
X120816458Y-89219928D01*
X120816459Y-89219931D01*
X120875470Y-89401549D01*
X120875473Y-89401556D01*
X120970960Y-89566944D01*
X121098747Y-89708866D01*
X121253248Y-89821118D01*
X121427712Y-89898794D01*
X121614513Y-89938500D01*
X121805487Y-89938500D01*
X121992288Y-89898794D01*
X122166752Y-89821118D01*
X122321253Y-89708866D01*
X122449040Y-89566944D01*
X122544527Y-89401556D01*
X122603542Y-89219928D01*
X122623504Y-89030000D01*
X122603542Y-88840072D01*
X122544527Y-88658444D01*
X122449040Y-88493056D01*
X122321253Y-88351134D01*
X122166752Y-88238882D01*
X121992288Y-88161206D01*
X121992286Y-88161205D01*
X121805487Y-88121500D01*
X121614513Y-88121500D01*
X121427714Y-88161205D01*
X121253246Y-88238883D01*
X121098745Y-88351135D01*
X120970959Y-88493057D01*
X120875473Y-88658443D01*
X120875470Y-88658450D01*
X120828164Y-88804045D01*
X120816458Y-88840072D01*
X120796496Y-89030000D01*
X110183319Y-89030000D01*
X110164072Y-88785443D01*
X110106805Y-88546908D01*
X110057182Y-88427108D01*
X110012928Y-88320269D01*
X109915454Y-88161205D01*
X109884752Y-88111104D01*
X109725433Y-87924567D01*
X109538896Y-87765248D01*
X109538893Y-87765246D01*
X109329730Y-87637071D01*
X109103087Y-87543193D01*
X108864553Y-87485927D01*
X108864554Y-87485927D01*
X108620000Y-87466681D01*
X108375445Y-87485927D01*
X108136912Y-87543193D01*
X107910269Y-87637071D01*
X107701106Y-87765246D01*
X107514567Y-87924567D01*
X107355246Y-88111106D01*
X107227071Y-88320269D01*
X107133193Y-88546912D01*
X107075927Y-88785445D01*
X107056681Y-89029999D01*
X104790000Y-89029999D01*
X104790000Y-85884000D01*
X104809685Y-85816961D01*
X104862489Y-85771206D01*
X104914000Y-85760000D01*
X179065500Y-85760000D01*
X179132539Y-85779685D01*
G37*
%TD.AperFunction*%
%TD*%
M02*
