M48
; DRILL file {KiCad 7.0.7} date Wed Sep 13 13:51:18 2023
; FORMAT={-:-/ absolute / inch / decimal}
; #@! TF.CreationDate,2023-09-13T13:51:18-04:00
; #@! TF.GenerationSoftware,Kicad,Pcbnew,7.0.7
; #@! TF.FileFunction,Plated,1,4,PTH
FMAT,2
INCH
; #@! TA.AperFunction,Plated,PTH,ViaDrill
T1C0.0157
; #@! TA.AperFunction,Plated,PTH,ComponentDrill
T2C0.0236
; #@! TA.AperFunction,Plated,PTH,ComponentDrill
T3C0.0300
; #@! TA.AperFunction,Plated,PTH,ComponentDrill
T4C0.0433
; #@! TA.AperFunction,Plated,PTH,ComponentDrill
T5C0.0472
; #@! TA.AperFunction,Plated,PTH,ComponentDrill
T6C0.0630
; #@! TA.AperFunction,Plated,PTH,ComponentDrill
T7C0.0780
%
G90
G05
T1
X4.2766Y-3.7677
X4.2766Y-3.9646
X4.2766Y-4.1614
X4.2766Y-4.3583
X4.2766Y-4.5551
X4.4734Y-3.5709
X4.4734Y-3.7677
X4.4734Y-3.9646
X4.4734Y-4.1614
X4.4734Y-4.3583
X4.4734Y-4.5551
X4.6703Y-3.7677
X4.6703Y-3.9646
X4.6703Y-4.1614
X4.6703Y-4.3583
X4.6703Y-4.5551
X4.6703Y-4.752
X4.7917Y-3.5051
X4.8671Y-3.5709
X4.8671Y-3.7677
X4.8671Y-3.9646
X4.8671Y-4.1614
X4.8671Y-4.3583
X4.8671Y-4.5551
X4.8671Y-4.752
X5.064Y-3.5709
X5.064Y-3.7677
X5.064Y-3.9646
X5.064Y-4.1614
X5.064Y-4.3583
X5.064Y-4.5551
X5.064Y-4.752
X5.2608Y-3.5709
X5.2608Y-3.9646
X5.2608Y-4.1614
X5.2608Y-4.3583
X5.2608Y-4.5551
X5.4577Y-3.5709
X5.4577Y-3.9646
X5.4577Y-4.1614
X5.4577Y-4.5551
X5.4577Y-4.752
X5.6545Y-3.5709
X5.6545Y-3.7677
X5.6545Y-3.9646
X5.6545Y-4.5551
X5.6545Y-4.752
X5.6874Y-4.1327
X5.6874Y-4.2327
X5.6874Y-4.2827
X5.8514Y-3.5709
X5.8514Y-3.9646
X5.8514Y-4.3583
X5.8514Y-4.5551
X5.8514Y-4.752
X5.9083Y-4.1327
X5.9083Y-4.1827
X5.9083Y-4.2327
X5.9083Y-4.2827
X6.0482Y-3.5709
X6.0482Y-3.7677
X6.0482Y-3.9646
X6.0482Y-4.5551
X6.2451Y-3.5709
X6.2451Y-3.7677
X6.2451Y-3.9646
X6.2451Y-4.1614
X6.2451Y-4.3583
X6.2451Y-4.5551
X6.2451Y-4.752
X6.4419Y-3.5709
X6.4419Y-3.9646
X6.4419Y-4.1614
X6.4419Y-4.3583
X6.4419Y-4.5551
X6.4419Y-4.752
X6.6388Y-3.5709
X6.6388Y-3.7677
X6.6388Y-3.9646
X6.6388Y-4.1614
X6.6388Y-4.3583
X6.6388Y-4.5551
X6.6388Y-4.752
X6.8356Y-3.7677
X6.8356Y-3.9646
X6.8356Y-4.1614
X6.8356Y-4.3583
X6.8356Y-4.5551
X6.8356Y-4.752
T2
X5.4681Y-4.2619
X5.4681Y-4.3407
T3
X6.5413Y-4.0694
X6.5413Y-4.7694
T4
X4.2764Y-3.5051
X4.2764Y-3.6051
X6.9031Y-3.5051
X6.9031Y-3.6051
T5
X4.9685Y-4.2366
X5.1654Y-4.2366
X5.2349Y-3.7138
X5.5302Y-3.7138
T6
X5.8516Y-3.6713
X6.4516Y-3.6713
T7
X4.2067Y-4.6732
X4.5067Y-4.6732
X5.2535Y-4.6732
X5.5535Y-4.6732
T0
M30
