%TF.GenerationSoftware,KiCad,Pcbnew,7.0.7*%
%TF.CreationDate,2023-09-13T14:32:17-04:00*%
%TF.ProjectId,Alim5,416c696d-352e-46b6-9963-61645f706362,rev?*%
%TF.SameCoordinates,Original*%
%TF.FileFunction,Soldermask,Top*%
%TF.FilePolarity,Negative*%
%FSLAX46Y46*%
G04 Gerber Fmt 4.6, Leading zero omitted, Abs format (unit mm)*
G04 Created by KiCad (PCBNEW 7.0.7) date 2023-09-13 14:32:17*
%MOMM*%
%LPD*%
G01*
G04 APERTURE LIST*
G04 Aperture macros list*
%AMRoundRect*
0 Rectangle with rounded corners*
0 $1 Rounding radius*
0 $2 $3 $4 $5 $6 $7 $8 $9 X,Y pos of 4 corners*
0 Add a 4 corners polygon primitive as box body*
4,1,4,$2,$3,$4,$5,$6,$7,$8,$9,$2,$3,0*
0 Add four circle primitives for the rounded corners*
1,1,$1+$1,$2,$3*
1,1,$1+$1,$4,$5*
1,1,$1+$1,$6,$7*
1,1,$1+$1,$8,$9*
0 Add four rect primitives between the rounded corners*
20,1,$1+$1,$2,$3,$4,$5,0*
20,1,$1+$1,$4,$5,$6,$7,0*
20,1,$1+$1,$6,$7,$8,$9,0*
20,1,$1+$1,$8,$9,$2,$3,0*%
G04 Aperture macros list end*
%ADD10C,0.010000*%
%ADD11C,1.524000*%
%ADD12R,2.100000X2.100000*%
%ADD13C,2.100000*%
%ADD14RoundRect,0.750000X-0.750000X-0.750000X0.750000X-0.750000X0.750000X0.750000X-0.750000X0.750000X0*%
%ADD15C,3.000000*%
%ADD16R,2.400000X2.400000*%
%ADD17C,2.400000*%
%ADD18R,3.200000X3.200000*%
%ADD19O,3.200000X3.200000*%
%ADD20RoundRect,0.243750X0.243750X0.456250X-0.243750X0.456250X-0.243750X-0.456250X0.243750X-0.456250X0*%
%ADD21RoundRect,0.250000X0.362500X1.425000X-0.362500X1.425000X-0.362500X-1.425000X0.362500X-1.425000X0*%
%ADD22R,1.200000X1.200000*%
%ADD23C,1.200000*%
%ADD24RoundRect,0.250000X-0.262500X-0.450000X0.262500X-0.450000X0.262500X0.450000X-0.262500X0.450000X0*%
G04 APERTURE END LIST*
%TO.C,U1*%
D10*
X143630500Y-103336000D02*
X143632500Y-103336000D01*
X143635500Y-103337000D01*
X143637500Y-103337000D01*
X143640500Y-103338000D01*
X143642500Y-103339000D01*
X143645500Y-103340000D01*
X143647500Y-103342000D01*
X143649500Y-103343000D01*
X143651500Y-103345000D01*
X143653500Y-103346000D01*
X143655500Y-103348000D01*
X143657500Y-103350000D01*
X143659500Y-103352000D01*
X143661500Y-103354000D01*
X143662500Y-103356000D01*
X143664500Y-103358000D01*
X143665500Y-103360000D01*
X143667500Y-103362000D01*
X143668500Y-103365000D01*
X143669500Y-103367000D01*
X143670500Y-103370000D01*
X143670500Y-103372000D01*
X143671500Y-103375000D01*
X143671500Y-103377000D01*
X143672500Y-103380000D01*
X143672500Y-103382000D01*
X143672500Y-103385000D01*
X143672500Y-104025000D01*
X143672500Y-104028000D01*
X143672500Y-104030000D01*
X143671500Y-104033000D01*
X143671500Y-104035000D01*
X143670500Y-104038000D01*
X143670500Y-104040000D01*
X143669500Y-104043000D01*
X143668500Y-104045000D01*
X143667500Y-104048000D01*
X143665500Y-104050000D01*
X143664500Y-104052000D01*
X143662500Y-104054000D01*
X143661500Y-104056000D01*
X143659500Y-104058000D01*
X143657500Y-104060000D01*
X143655500Y-104062000D01*
X143653500Y-104064000D01*
X143651500Y-104065000D01*
X143649500Y-104067000D01*
X143647500Y-104068000D01*
X143645500Y-104070000D01*
X143642500Y-104071000D01*
X143640500Y-104072000D01*
X143637500Y-104073000D01*
X143635500Y-104073000D01*
X143632500Y-104074000D01*
X143630500Y-104074000D01*
X143627500Y-104075000D01*
X143625500Y-104075000D01*
X143622500Y-104075000D01*
X141582500Y-104075000D01*
X141579500Y-104075000D01*
X141577500Y-104075000D01*
X141574500Y-104074000D01*
X141572500Y-104074000D01*
X141569500Y-104073000D01*
X141567500Y-104073000D01*
X141564500Y-104072000D01*
X141562500Y-104071000D01*
X141559500Y-104070000D01*
X141557500Y-104068000D01*
X141555500Y-104067000D01*
X141553500Y-104065000D01*
X141551500Y-104064000D01*
X141549500Y-104062000D01*
X141547500Y-104060000D01*
X141545500Y-104058000D01*
X141543500Y-104056000D01*
X141542500Y-104054000D01*
X141540500Y-104052000D01*
X141539500Y-104050000D01*
X141537500Y-104048000D01*
X141536500Y-104045000D01*
X141535500Y-104043000D01*
X141534500Y-104040000D01*
X141534500Y-104038000D01*
X141533500Y-104035000D01*
X141533500Y-104033000D01*
X141532500Y-104030000D01*
X141532500Y-104028000D01*
X141532500Y-104025000D01*
X141532500Y-103385000D01*
X141532500Y-103382000D01*
X141532500Y-103380000D01*
X141533500Y-103377000D01*
X141533500Y-103375000D01*
X141534500Y-103372000D01*
X141534500Y-103370000D01*
X141535500Y-103367000D01*
X141536500Y-103365000D01*
X141537500Y-103362000D01*
X141539500Y-103360000D01*
X141540500Y-103358000D01*
X141542500Y-103356000D01*
X141543500Y-103354000D01*
X141545500Y-103352000D01*
X141547500Y-103350000D01*
X141549500Y-103348000D01*
X141551500Y-103346000D01*
X141553500Y-103345000D01*
X141555500Y-103343000D01*
X141557500Y-103342000D01*
X141559500Y-103340000D01*
X141562500Y-103339000D01*
X141564500Y-103338000D01*
X141567500Y-103337000D01*
X141569500Y-103337000D01*
X141572500Y-103336000D01*
X141574500Y-103336000D01*
X141577500Y-103335000D01*
X141579500Y-103335000D01*
X141582500Y-103335000D01*
X143622500Y-103335000D01*
X143625500Y-103335000D01*
X143627500Y-103335000D01*
X143630500Y-103336000D01*
G36*
X143630500Y-103336000D02*
G01*
X143632500Y-103336000D01*
X143635500Y-103337000D01*
X143637500Y-103337000D01*
X143640500Y-103338000D01*
X143642500Y-103339000D01*
X143645500Y-103340000D01*
X143647500Y-103342000D01*
X143649500Y-103343000D01*
X143651500Y-103345000D01*
X143653500Y-103346000D01*
X143655500Y-103348000D01*
X143657500Y-103350000D01*
X143659500Y-103352000D01*
X143661500Y-103354000D01*
X143662500Y-103356000D01*
X143664500Y-103358000D01*
X143665500Y-103360000D01*
X143667500Y-103362000D01*
X143668500Y-103365000D01*
X143669500Y-103367000D01*
X143670500Y-103370000D01*
X143670500Y-103372000D01*
X143671500Y-103375000D01*
X143671500Y-103377000D01*
X143672500Y-103380000D01*
X143672500Y-103382000D01*
X143672500Y-103385000D01*
X143672500Y-104025000D01*
X143672500Y-104028000D01*
X143672500Y-104030000D01*
X143671500Y-104033000D01*
X143671500Y-104035000D01*
X143670500Y-104038000D01*
X143670500Y-104040000D01*
X143669500Y-104043000D01*
X143668500Y-104045000D01*
X143667500Y-104048000D01*
X143665500Y-104050000D01*
X143664500Y-104052000D01*
X143662500Y-104054000D01*
X143661500Y-104056000D01*
X143659500Y-104058000D01*
X143657500Y-104060000D01*
X143655500Y-104062000D01*
X143653500Y-104064000D01*
X143651500Y-104065000D01*
X143649500Y-104067000D01*
X143647500Y-104068000D01*
X143645500Y-104070000D01*
X143642500Y-104071000D01*
X143640500Y-104072000D01*
X143637500Y-104073000D01*
X143635500Y-104073000D01*
X143632500Y-104074000D01*
X143630500Y-104074000D01*
X143627500Y-104075000D01*
X143625500Y-104075000D01*
X143622500Y-104075000D01*
X141582500Y-104075000D01*
X141579500Y-104075000D01*
X141577500Y-104075000D01*
X141574500Y-104074000D01*
X141572500Y-104074000D01*
X141569500Y-104073000D01*
X141567500Y-104073000D01*
X141564500Y-104072000D01*
X141562500Y-104071000D01*
X141559500Y-104070000D01*
X141557500Y-104068000D01*
X141555500Y-104067000D01*
X141553500Y-104065000D01*
X141551500Y-104064000D01*
X141549500Y-104062000D01*
X141547500Y-104060000D01*
X141545500Y-104058000D01*
X141543500Y-104056000D01*
X141542500Y-104054000D01*
X141540500Y-104052000D01*
X141539500Y-104050000D01*
X141537500Y-104048000D01*
X141536500Y-104045000D01*
X141535500Y-104043000D01*
X141534500Y-104040000D01*
X141534500Y-104038000D01*
X141533500Y-104035000D01*
X141533500Y-104033000D01*
X141532500Y-104030000D01*
X141532500Y-104028000D01*
X141532500Y-104025000D01*
X141532500Y-103385000D01*
X141532500Y-103382000D01*
X141532500Y-103380000D01*
X141533500Y-103377000D01*
X141533500Y-103375000D01*
X141534500Y-103372000D01*
X141534500Y-103370000D01*
X141535500Y-103367000D01*
X141536500Y-103365000D01*
X141537500Y-103362000D01*
X141539500Y-103360000D01*
X141540500Y-103358000D01*
X141542500Y-103356000D01*
X141543500Y-103354000D01*
X141545500Y-103352000D01*
X141547500Y-103350000D01*
X141549500Y-103348000D01*
X141551500Y-103346000D01*
X141553500Y-103345000D01*
X141555500Y-103343000D01*
X141557500Y-103342000D01*
X141559500Y-103340000D01*
X141562500Y-103339000D01*
X141564500Y-103338000D01*
X141567500Y-103337000D01*
X141569500Y-103337000D01*
X141572500Y-103336000D01*
X141574500Y-103336000D01*
X141577500Y-103335000D01*
X141579500Y-103335000D01*
X141582500Y-103335000D01*
X143622500Y-103335000D01*
X143625500Y-103335000D01*
X143627500Y-103335000D01*
X143630500Y-103336000D01*
G37*
X143630500Y-104606000D02*
X143632500Y-104606000D01*
X143635500Y-104607000D01*
X143637500Y-104607000D01*
X143640500Y-104608000D01*
X143642500Y-104609000D01*
X143645500Y-104610000D01*
X143647500Y-104612000D01*
X143649500Y-104613000D01*
X143651500Y-104615000D01*
X143653500Y-104616000D01*
X143655500Y-104618000D01*
X143657500Y-104620000D01*
X143659500Y-104622000D01*
X143661500Y-104624000D01*
X143662500Y-104626000D01*
X143664500Y-104628000D01*
X143665500Y-104630000D01*
X143667500Y-104632000D01*
X143668500Y-104635000D01*
X143669500Y-104637000D01*
X143670500Y-104640000D01*
X143670500Y-104642000D01*
X143671500Y-104645000D01*
X143671500Y-104647000D01*
X143672500Y-104650000D01*
X143672500Y-104652000D01*
X143672500Y-104655000D01*
X143672500Y-105295000D01*
X143672500Y-105298000D01*
X143672500Y-105300000D01*
X143671500Y-105303000D01*
X143671500Y-105305000D01*
X143670500Y-105308000D01*
X143670500Y-105310000D01*
X143669500Y-105313000D01*
X143668500Y-105315000D01*
X143667500Y-105318000D01*
X143665500Y-105320000D01*
X143664500Y-105322000D01*
X143662500Y-105324000D01*
X143661500Y-105326000D01*
X143659500Y-105328000D01*
X143657500Y-105330000D01*
X143655500Y-105332000D01*
X143653500Y-105334000D01*
X143651500Y-105335000D01*
X143649500Y-105337000D01*
X143647500Y-105338000D01*
X143645500Y-105340000D01*
X143642500Y-105341000D01*
X143640500Y-105342000D01*
X143637500Y-105343000D01*
X143635500Y-105343000D01*
X143632500Y-105344000D01*
X143630500Y-105344000D01*
X143627500Y-105345000D01*
X143625500Y-105345000D01*
X143622500Y-105345000D01*
X141582500Y-105345000D01*
X141579500Y-105345000D01*
X141577500Y-105345000D01*
X141574500Y-105344000D01*
X141572500Y-105344000D01*
X141569500Y-105343000D01*
X141567500Y-105343000D01*
X141564500Y-105342000D01*
X141562500Y-105341000D01*
X141559500Y-105340000D01*
X141557500Y-105338000D01*
X141555500Y-105337000D01*
X141553500Y-105335000D01*
X141551500Y-105334000D01*
X141549500Y-105332000D01*
X141547500Y-105330000D01*
X141545500Y-105328000D01*
X141543500Y-105326000D01*
X141542500Y-105324000D01*
X141540500Y-105322000D01*
X141539500Y-105320000D01*
X141537500Y-105318000D01*
X141536500Y-105315000D01*
X141535500Y-105313000D01*
X141534500Y-105310000D01*
X141534500Y-105308000D01*
X141533500Y-105305000D01*
X141533500Y-105303000D01*
X141532500Y-105300000D01*
X141532500Y-105298000D01*
X141532500Y-105295000D01*
X141532500Y-104655000D01*
X141532500Y-104652000D01*
X141532500Y-104650000D01*
X141533500Y-104647000D01*
X141533500Y-104645000D01*
X141534500Y-104642000D01*
X141534500Y-104640000D01*
X141535500Y-104637000D01*
X141536500Y-104635000D01*
X141537500Y-104632000D01*
X141539500Y-104630000D01*
X141540500Y-104628000D01*
X141542500Y-104626000D01*
X141543500Y-104624000D01*
X141545500Y-104622000D01*
X141547500Y-104620000D01*
X141549500Y-104618000D01*
X141551500Y-104616000D01*
X141553500Y-104615000D01*
X141555500Y-104613000D01*
X141557500Y-104612000D01*
X141559500Y-104610000D01*
X141562500Y-104609000D01*
X141564500Y-104608000D01*
X141567500Y-104607000D01*
X141569500Y-104607000D01*
X141572500Y-104606000D01*
X141574500Y-104606000D01*
X141577500Y-104605000D01*
X141579500Y-104605000D01*
X141582500Y-104605000D01*
X143622500Y-104605000D01*
X143625500Y-104605000D01*
X143627500Y-104605000D01*
X143630500Y-104606000D01*
G36*
X143630500Y-104606000D02*
G01*
X143632500Y-104606000D01*
X143635500Y-104607000D01*
X143637500Y-104607000D01*
X143640500Y-104608000D01*
X143642500Y-104609000D01*
X143645500Y-104610000D01*
X143647500Y-104612000D01*
X143649500Y-104613000D01*
X143651500Y-104615000D01*
X143653500Y-104616000D01*
X143655500Y-104618000D01*
X143657500Y-104620000D01*
X143659500Y-104622000D01*
X143661500Y-104624000D01*
X143662500Y-104626000D01*
X143664500Y-104628000D01*
X143665500Y-104630000D01*
X143667500Y-104632000D01*
X143668500Y-104635000D01*
X143669500Y-104637000D01*
X143670500Y-104640000D01*
X143670500Y-104642000D01*
X143671500Y-104645000D01*
X143671500Y-104647000D01*
X143672500Y-104650000D01*
X143672500Y-104652000D01*
X143672500Y-104655000D01*
X143672500Y-105295000D01*
X143672500Y-105298000D01*
X143672500Y-105300000D01*
X143671500Y-105303000D01*
X143671500Y-105305000D01*
X143670500Y-105308000D01*
X143670500Y-105310000D01*
X143669500Y-105313000D01*
X143668500Y-105315000D01*
X143667500Y-105318000D01*
X143665500Y-105320000D01*
X143664500Y-105322000D01*
X143662500Y-105324000D01*
X143661500Y-105326000D01*
X143659500Y-105328000D01*
X143657500Y-105330000D01*
X143655500Y-105332000D01*
X143653500Y-105334000D01*
X143651500Y-105335000D01*
X143649500Y-105337000D01*
X143647500Y-105338000D01*
X143645500Y-105340000D01*
X143642500Y-105341000D01*
X143640500Y-105342000D01*
X143637500Y-105343000D01*
X143635500Y-105343000D01*
X143632500Y-105344000D01*
X143630500Y-105344000D01*
X143627500Y-105345000D01*
X143625500Y-105345000D01*
X143622500Y-105345000D01*
X141582500Y-105345000D01*
X141579500Y-105345000D01*
X141577500Y-105345000D01*
X141574500Y-105344000D01*
X141572500Y-105344000D01*
X141569500Y-105343000D01*
X141567500Y-105343000D01*
X141564500Y-105342000D01*
X141562500Y-105341000D01*
X141559500Y-105340000D01*
X141557500Y-105338000D01*
X141555500Y-105337000D01*
X141553500Y-105335000D01*
X141551500Y-105334000D01*
X141549500Y-105332000D01*
X141547500Y-105330000D01*
X141545500Y-105328000D01*
X141543500Y-105326000D01*
X141542500Y-105324000D01*
X141540500Y-105322000D01*
X141539500Y-105320000D01*
X141537500Y-105318000D01*
X141536500Y-105315000D01*
X141535500Y-105313000D01*
X141534500Y-105310000D01*
X141534500Y-105308000D01*
X141533500Y-105305000D01*
X141533500Y-105303000D01*
X141532500Y-105300000D01*
X141532500Y-105298000D01*
X141532500Y-105295000D01*
X141532500Y-104655000D01*
X141532500Y-104652000D01*
X141532500Y-104650000D01*
X141533500Y-104647000D01*
X141533500Y-104645000D01*
X141534500Y-104642000D01*
X141534500Y-104640000D01*
X141535500Y-104637000D01*
X141536500Y-104635000D01*
X141537500Y-104632000D01*
X141539500Y-104630000D01*
X141540500Y-104628000D01*
X141542500Y-104626000D01*
X141543500Y-104624000D01*
X141545500Y-104622000D01*
X141547500Y-104620000D01*
X141549500Y-104618000D01*
X141551500Y-104616000D01*
X141553500Y-104615000D01*
X141555500Y-104613000D01*
X141557500Y-104612000D01*
X141559500Y-104610000D01*
X141562500Y-104609000D01*
X141564500Y-104608000D01*
X141567500Y-104607000D01*
X141569500Y-104607000D01*
X141572500Y-104606000D01*
X141574500Y-104606000D01*
X141577500Y-104605000D01*
X141579500Y-104605000D01*
X141582500Y-104605000D01*
X143622500Y-104605000D01*
X143625500Y-104605000D01*
X143627500Y-104605000D01*
X143630500Y-104606000D01*
G37*
X143630500Y-105876000D02*
X143632500Y-105876000D01*
X143635500Y-105877000D01*
X143637500Y-105877000D01*
X143640500Y-105878000D01*
X143642500Y-105879000D01*
X143645500Y-105880000D01*
X143647500Y-105882000D01*
X143649500Y-105883000D01*
X143651500Y-105885000D01*
X143653500Y-105886000D01*
X143655500Y-105888000D01*
X143657500Y-105890000D01*
X143659500Y-105892000D01*
X143661500Y-105894000D01*
X143662500Y-105896000D01*
X143664500Y-105898000D01*
X143665500Y-105900000D01*
X143667500Y-105902000D01*
X143668500Y-105905000D01*
X143669500Y-105907000D01*
X143670500Y-105910000D01*
X143670500Y-105912000D01*
X143671500Y-105915000D01*
X143671500Y-105917000D01*
X143672500Y-105920000D01*
X143672500Y-105922000D01*
X143672500Y-105925000D01*
X143672500Y-106565000D01*
X143672500Y-106568000D01*
X143672500Y-106570000D01*
X143671500Y-106573000D01*
X143671500Y-106575000D01*
X143670500Y-106578000D01*
X143670500Y-106580000D01*
X143669500Y-106583000D01*
X143668500Y-106585000D01*
X143667500Y-106588000D01*
X143665500Y-106590000D01*
X143664500Y-106592000D01*
X143662500Y-106594000D01*
X143661500Y-106596000D01*
X143659500Y-106598000D01*
X143657500Y-106600000D01*
X143655500Y-106602000D01*
X143653500Y-106604000D01*
X143651500Y-106605000D01*
X143649500Y-106607000D01*
X143647500Y-106608000D01*
X143645500Y-106610000D01*
X143642500Y-106611000D01*
X143640500Y-106612000D01*
X143637500Y-106613000D01*
X143635500Y-106613000D01*
X143632500Y-106614000D01*
X143630500Y-106614000D01*
X143627500Y-106615000D01*
X143625500Y-106615000D01*
X143622500Y-106615000D01*
X141582500Y-106615000D01*
X141579500Y-106615000D01*
X141577500Y-106615000D01*
X141574500Y-106614000D01*
X141572500Y-106614000D01*
X141569500Y-106613000D01*
X141567500Y-106613000D01*
X141564500Y-106612000D01*
X141562500Y-106611000D01*
X141559500Y-106610000D01*
X141557500Y-106608000D01*
X141555500Y-106607000D01*
X141553500Y-106605000D01*
X141551500Y-106604000D01*
X141549500Y-106602000D01*
X141547500Y-106600000D01*
X141545500Y-106598000D01*
X141543500Y-106596000D01*
X141542500Y-106594000D01*
X141540500Y-106592000D01*
X141539500Y-106590000D01*
X141537500Y-106588000D01*
X141536500Y-106585000D01*
X141535500Y-106583000D01*
X141534500Y-106580000D01*
X141534500Y-106578000D01*
X141533500Y-106575000D01*
X141533500Y-106573000D01*
X141532500Y-106570000D01*
X141532500Y-106568000D01*
X141532500Y-106565000D01*
X141532500Y-105925000D01*
X141532500Y-105922000D01*
X141532500Y-105920000D01*
X141533500Y-105917000D01*
X141533500Y-105915000D01*
X141534500Y-105912000D01*
X141534500Y-105910000D01*
X141535500Y-105907000D01*
X141536500Y-105905000D01*
X141537500Y-105902000D01*
X141539500Y-105900000D01*
X141540500Y-105898000D01*
X141542500Y-105896000D01*
X141543500Y-105894000D01*
X141545500Y-105892000D01*
X141547500Y-105890000D01*
X141549500Y-105888000D01*
X141551500Y-105886000D01*
X141553500Y-105885000D01*
X141555500Y-105883000D01*
X141557500Y-105882000D01*
X141559500Y-105880000D01*
X141562500Y-105879000D01*
X141564500Y-105878000D01*
X141567500Y-105877000D01*
X141569500Y-105877000D01*
X141572500Y-105876000D01*
X141574500Y-105876000D01*
X141577500Y-105875000D01*
X141579500Y-105875000D01*
X141582500Y-105875000D01*
X143622500Y-105875000D01*
X143625500Y-105875000D01*
X143627500Y-105875000D01*
X143630500Y-105876000D01*
G36*
X143630500Y-105876000D02*
G01*
X143632500Y-105876000D01*
X143635500Y-105877000D01*
X143637500Y-105877000D01*
X143640500Y-105878000D01*
X143642500Y-105879000D01*
X143645500Y-105880000D01*
X143647500Y-105882000D01*
X143649500Y-105883000D01*
X143651500Y-105885000D01*
X143653500Y-105886000D01*
X143655500Y-105888000D01*
X143657500Y-105890000D01*
X143659500Y-105892000D01*
X143661500Y-105894000D01*
X143662500Y-105896000D01*
X143664500Y-105898000D01*
X143665500Y-105900000D01*
X143667500Y-105902000D01*
X143668500Y-105905000D01*
X143669500Y-105907000D01*
X143670500Y-105910000D01*
X143670500Y-105912000D01*
X143671500Y-105915000D01*
X143671500Y-105917000D01*
X143672500Y-105920000D01*
X143672500Y-105922000D01*
X143672500Y-105925000D01*
X143672500Y-106565000D01*
X143672500Y-106568000D01*
X143672500Y-106570000D01*
X143671500Y-106573000D01*
X143671500Y-106575000D01*
X143670500Y-106578000D01*
X143670500Y-106580000D01*
X143669500Y-106583000D01*
X143668500Y-106585000D01*
X143667500Y-106588000D01*
X143665500Y-106590000D01*
X143664500Y-106592000D01*
X143662500Y-106594000D01*
X143661500Y-106596000D01*
X143659500Y-106598000D01*
X143657500Y-106600000D01*
X143655500Y-106602000D01*
X143653500Y-106604000D01*
X143651500Y-106605000D01*
X143649500Y-106607000D01*
X143647500Y-106608000D01*
X143645500Y-106610000D01*
X143642500Y-106611000D01*
X143640500Y-106612000D01*
X143637500Y-106613000D01*
X143635500Y-106613000D01*
X143632500Y-106614000D01*
X143630500Y-106614000D01*
X143627500Y-106615000D01*
X143625500Y-106615000D01*
X143622500Y-106615000D01*
X141582500Y-106615000D01*
X141579500Y-106615000D01*
X141577500Y-106615000D01*
X141574500Y-106614000D01*
X141572500Y-106614000D01*
X141569500Y-106613000D01*
X141567500Y-106613000D01*
X141564500Y-106612000D01*
X141562500Y-106611000D01*
X141559500Y-106610000D01*
X141557500Y-106608000D01*
X141555500Y-106607000D01*
X141553500Y-106605000D01*
X141551500Y-106604000D01*
X141549500Y-106602000D01*
X141547500Y-106600000D01*
X141545500Y-106598000D01*
X141543500Y-106596000D01*
X141542500Y-106594000D01*
X141540500Y-106592000D01*
X141539500Y-106590000D01*
X141537500Y-106588000D01*
X141536500Y-106585000D01*
X141535500Y-106583000D01*
X141534500Y-106580000D01*
X141534500Y-106578000D01*
X141533500Y-106575000D01*
X141533500Y-106573000D01*
X141532500Y-106570000D01*
X141532500Y-106568000D01*
X141532500Y-106565000D01*
X141532500Y-105925000D01*
X141532500Y-105922000D01*
X141532500Y-105920000D01*
X141533500Y-105917000D01*
X141533500Y-105915000D01*
X141534500Y-105912000D01*
X141534500Y-105910000D01*
X141535500Y-105907000D01*
X141536500Y-105905000D01*
X141537500Y-105902000D01*
X141539500Y-105900000D01*
X141540500Y-105898000D01*
X141542500Y-105896000D01*
X141543500Y-105894000D01*
X141545500Y-105892000D01*
X141547500Y-105890000D01*
X141549500Y-105888000D01*
X141551500Y-105886000D01*
X141553500Y-105885000D01*
X141555500Y-105883000D01*
X141557500Y-105882000D01*
X141559500Y-105880000D01*
X141562500Y-105879000D01*
X141564500Y-105878000D01*
X141567500Y-105877000D01*
X141569500Y-105877000D01*
X141572500Y-105876000D01*
X141574500Y-105876000D01*
X141577500Y-105875000D01*
X141579500Y-105875000D01*
X141582500Y-105875000D01*
X143622500Y-105875000D01*
X143625500Y-105875000D01*
X143627500Y-105875000D01*
X143630500Y-105876000D01*
G37*
X143630500Y-107146000D02*
X143632500Y-107146000D01*
X143635500Y-107147000D01*
X143637500Y-107147000D01*
X143640500Y-107148000D01*
X143642500Y-107149000D01*
X143645500Y-107150000D01*
X143647500Y-107152000D01*
X143649500Y-107153000D01*
X143651500Y-107155000D01*
X143653500Y-107156000D01*
X143655500Y-107158000D01*
X143657500Y-107160000D01*
X143659500Y-107162000D01*
X143661500Y-107164000D01*
X143662500Y-107166000D01*
X143664500Y-107168000D01*
X143665500Y-107170000D01*
X143667500Y-107172000D01*
X143668500Y-107175000D01*
X143669500Y-107177000D01*
X143670500Y-107180000D01*
X143670500Y-107182000D01*
X143671500Y-107185000D01*
X143671500Y-107187000D01*
X143672500Y-107190000D01*
X143672500Y-107192000D01*
X143672500Y-107195000D01*
X143672500Y-107835000D01*
X143672500Y-107838000D01*
X143672500Y-107840000D01*
X143671500Y-107843000D01*
X143671500Y-107845000D01*
X143670500Y-107848000D01*
X143670500Y-107850000D01*
X143669500Y-107853000D01*
X143668500Y-107855000D01*
X143667500Y-107858000D01*
X143665500Y-107860000D01*
X143664500Y-107862000D01*
X143662500Y-107864000D01*
X143661500Y-107866000D01*
X143659500Y-107868000D01*
X143657500Y-107870000D01*
X143655500Y-107872000D01*
X143653500Y-107874000D01*
X143651500Y-107875000D01*
X143649500Y-107877000D01*
X143647500Y-107878000D01*
X143645500Y-107880000D01*
X143642500Y-107881000D01*
X143640500Y-107882000D01*
X143637500Y-107883000D01*
X143635500Y-107883000D01*
X143632500Y-107884000D01*
X143630500Y-107884000D01*
X143627500Y-107885000D01*
X143625500Y-107885000D01*
X143622500Y-107885000D01*
X141582500Y-107885000D01*
X141579500Y-107885000D01*
X141577500Y-107885000D01*
X141574500Y-107884000D01*
X141572500Y-107884000D01*
X141569500Y-107883000D01*
X141567500Y-107883000D01*
X141564500Y-107882000D01*
X141562500Y-107881000D01*
X141559500Y-107880000D01*
X141557500Y-107878000D01*
X141555500Y-107877000D01*
X141553500Y-107875000D01*
X141551500Y-107874000D01*
X141549500Y-107872000D01*
X141547500Y-107870000D01*
X141545500Y-107868000D01*
X141543500Y-107866000D01*
X141542500Y-107864000D01*
X141540500Y-107862000D01*
X141539500Y-107860000D01*
X141537500Y-107858000D01*
X141536500Y-107855000D01*
X141535500Y-107853000D01*
X141534500Y-107850000D01*
X141534500Y-107848000D01*
X141533500Y-107845000D01*
X141533500Y-107843000D01*
X141532500Y-107840000D01*
X141532500Y-107838000D01*
X141532500Y-107835000D01*
X141532500Y-107195000D01*
X141532500Y-107192000D01*
X141532500Y-107190000D01*
X141533500Y-107187000D01*
X141533500Y-107185000D01*
X141534500Y-107182000D01*
X141534500Y-107180000D01*
X141535500Y-107177000D01*
X141536500Y-107175000D01*
X141537500Y-107172000D01*
X141539500Y-107170000D01*
X141540500Y-107168000D01*
X141542500Y-107166000D01*
X141543500Y-107164000D01*
X141545500Y-107162000D01*
X141547500Y-107160000D01*
X141549500Y-107158000D01*
X141551500Y-107156000D01*
X141553500Y-107155000D01*
X141555500Y-107153000D01*
X141557500Y-107152000D01*
X141559500Y-107150000D01*
X141562500Y-107149000D01*
X141564500Y-107148000D01*
X141567500Y-107147000D01*
X141569500Y-107147000D01*
X141572500Y-107146000D01*
X141574500Y-107146000D01*
X141577500Y-107145000D01*
X141579500Y-107145000D01*
X141582500Y-107145000D01*
X143622500Y-107145000D01*
X143625500Y-107145000D01*
X143627500Y-107145000D01*
X143630500Y-107146000D01*
G36*
X143630500Y-107146000D02*
G01*
X143632500Y-107146000D01*
X143635500Y-107147000D01*
X143637500Y-107147000D01*
X143640500Y-107148000D01*
X143642500Y-107149000D01*
X143645500Y-107150000D01*
X143647500Y-107152000D01*
X143649500Y-107153000D01*
X143651500Y-107155000D01*
X143653500Y-107156000D01*
X143655500Y-107158000D01*
X143657500Y-107160000D01*
X143659500Y-107162000D01*
X143661500Y-107164000D01*
X143662500Y-107166000D01*
X143664500Y-107168000D01*
X143665500Y-107170000D01*
X143667500Y-107172000D01*
X143668500Y-107175000D01*
X143669500Y-107177000D01*
X143670500Y-107180000D01*
X143670500Y-107182000D01*
X143671500Y-107185000D01*
X143671500Y-107187000D01*
X143672500Y-107190000D01*
X143672500Y-107192000D01*
X143672500Y-107195000D01*
X143672500Y-107835000D01*
X143672500Y-107838000D01*
X143672500Y-107840000D01*
X143671500Y-107843000D01*
X143671500Y-107845000D01*
X143670500Y-107848000D01*
X143670500Y-107850000D01*
X143669500Y-107853000D01*
X143668500Y-107855000D01*
X143667500Y-107858000D01*
X143665500Y-107860000D01*
X143664500Y-107862000D01*
X143662500Y-107864000D01*
X143661500Y-107866000D01*
X143659500Y-107868000D01*
X143657500Y-107870000D01*
X143655500Y-107872000D01*
X143653500Y-107874000D01*
X143651500Y-107875000D01*
X143649500Y-107877000D01*
X143647500Y-107878000D01*
X143645500Y-107880000D01*
X143642500Y-107881000D01*
X143640500Y-107882000D01*
X143637500Y-107883000D01*
X143635500Y-107883000D01*
X143632500Y-107884000D01*
X143630500Y-107884000D01*
X143627500Y-107885000D01*
X143625500Y-107885000D01*
X143622500Y-107885000D01*
X141582500Y-107885000D01*
X141579500Y-107885000D01*
X141577500Y-107885000D01*
X141574500Y-107884000D01*
X141572500Y-107884000D01*
X141569500Y-107883000D01*
X141567500Y-107883000D01*
X141564500Y-107882000D01*
X141562500Y-107881000D01*
X141559500Y-107880000D01*
X141557500Y-107878000D01*
X141555500Y-107877000D01*
X141553500Y-107875000D01*
X141551500Y-107874000D01*
X141549500Y-107872000D01*
X141547500Y-107870000D01*
X141545500Y-107868000D01*
X141543500Y-107866000D01*
X141542500Y-107864000D01*
X141540500Y-107862000D01*
X141539500Y-107860000D01*
X141537500Y-107858000D01*
X141536500Y-107855000D01*
X141535500Y-107853000D01*
X141534500Y-107850000D01*
X141534500Y-107848000D01*
X141533500Y-107845000D01*
X141533500Y-107843000D01*
X141532500Y-107840000D01*
X141532500Y-107838000D01*
X141532500Y-107835000D01*
X141532500Y-107195000D01*
X141532500Y-107192000D01*
X141532500Y-107190000D01*
X141533500Y-107187000D01*
X141533500Y-107185000D01*
X141534500Y-107182000D01*
X141534500Y-107180000D01*
X141535500Y-107177000D01*
X141536500Y-107175000D01*
X141537500Y-107172000D01*
X141539500Y-107170000D01*
X141540500Y-107168000D01*
X141542500Y-107166000D01*
X141543500Y-107164000D01*
X141545500Y-107162000D01*
X141547500Y-107160000D01*
X141549500Y-107158000D01*
X141551500Y-107156000D01*
X141553500Y-107155000D01*
X141555500Y-107153000D01*
X141557500Y-107152000D01*
X141559500Y-107150000D01*
X141562500Y-107149000D01*
X141564500Y-107148000D01*
X141567500Y-107147000D01*
X141569500Y-107147000D01*
X141572500Y-107146000D01*
X141574500Y-107146000D01*
X141577500Y-107145000D01*
X141579500Y-107145000D01*
X141582500Y-107145000D01*
X143622500Y-107145000D01*
X143625500Y-107145000D01*
X143627500Y-107145000D01*
X143630500Y-107146000D01*
G37*
X143630500Y-108416000D02*
X143632500Y-108416000D01*
X143635500Y-108417000D01*
X143637500Y-108417000D01*
X143640500Y-108418000D01*
X143642500Y-108419000D01*
X143645500Y-108420000D01*
X143647500Y-108422000D01*
X143649500Y-108423000D01*
X143651500Y-108425000D01*
X143653500Y-108426000D01*
X143655500Y-108428000D01*
X143657500Y-108430000D01*
X143659500Y-108432000D01*
X143661500Y-108434000D01*
X143662500Y-108436000D01*
X143664500Y-108438000D01*
X143665500Y-108440000D01*
X143667500Y-108442000D01*
X143668500Y-108445000D01*
X143669500Y-108447000D01*
X143670500Y-108450000D01*
X143670500Y-108452000D01*
X143671500Y-108455000D01*
X143671500Y-108457000D01*
X143672500Y-108460000D01*
X143672500Y-108462000D01*
X143672500Y-108465000D01*
X143672500Y-109105000D01*
X143672500Y-109108000D01*
X143672500Y-109110000D01*
X143671500Y-109113000D01*
X143671500Y-109115000D01*
X143670500Y-109118000D01*
X143670500Y-109120000D01*
X143669500Y-109123000D01*
X143668500Y-109125000D01*
X143667500Y-109128000D01*
X143665500Y-109130000D01*
X143664500Y-109132000D01*
X143662500Y-109134000D01*
X143661500Y-109136000D01*
X143659500Y-109138000D01*
X143657500Y-109140000D01*
X143655500Y-109142000D01*
X143653500Y-109144000D01*
X143651500Y-109145000D01*
X143649500Y-109147000D01*
X143647500Y-109148000D01*
X143645500Y-109150000D01*
X143642500Y-109151000D01*
X143640500Y-109152000D01*
X143637500Y-109153000D01*
X143635500Y-109153000D01*
X143632500Y-109154000D01*
X143630500Y-109154000D01*
X143627500Y-109155000D01*
X143625500Y-109155000D01*
X143622500Y-109155000D01*
X141582500Y-109155000D01*
X141579500Y-109155000D01*
X141577500Y-109155000D01*
X141574500Y-109154000D01*
X141572500Y-109154000D01*
X141569500Y-109153000D01*
X141567500Y-109153000D01*
X141564500Y-109152000D01*
X141562500Y-109151000D01*
X141559500Y-109150000D01*
X141557500Y-109148000D01*
X141555500Y-109147000D01*
X141553500Y-109145000D01*
X141551500Y-109144000D01*
X141549500Y-109142000D01*
X141547500Y-109140000D01*
X141545500Y-109138000D01*
X141543500Y-109136000D01*
X141542500Y-109134000D01*
X141540500Y-109132000D01*
X141539500Y-109130000D01*
X141537500Y-109128000D01*
X141536500Y-109125000D01*
X141535500Y-109123000D01*
X141534500Y-109120000D01*
X141534500Y-109118000D01*
X141533500Y-109115000D01*
X141533500Y-109113000D01*
X141532500Y-109110000D01*
X141532500Y-109108000D01*
X141532500Y-109105000D01*
X141532500Y-108465000D01*
X141532500Y-108462000D01*
X141532500Y-108460000D01*
X141533500Y-108457000D01*
X141533500Y-108455000D01*
X141534500Y-108452000D01*
X141534500Y-108450000D01*
X141535500Y-108447000D01*
X141536500Y-108445000D01*
X141537500Y-108442000D01*
X141539500Y-108440000D01*
X141540500Y-108438000D01*
X141542500Y-108436000D01*
X141543500Y-108434000D01*
X141545500Y-108432000D01*
X141547500Y-108430000D01*
X141549500Y-108428000D01*
X141551500Y-108426000D01*
X141553500Y-108425000D01*
X141555500Y-108423000D01*
X141557500Y-108422000D01*
X141559500Y-108420000D01*
X141562500Y-108419000D01*
X141564500Y-108418000D01*
X141567500Y-108417000D01*
X141569500Y-108417000D01*
X141572500Y-108416000D01*
X141574500Y-108416000D01*
X141577500Y-108415000D01*
X141579500Y-108415000D01*
X141582500Y-108415000D01*
X143622500Y-108415000D01*
X143625500Y-108415000D01*
X143627500Y-108415000D01*
X143630500Y-108416000D01*
G36*
X143630500Y-108416000D02*
G01*
X143632500Y-108416000D01*
X143635500Y-108417000D01*
X143637500Y-108417000D01*
X143640500Y-108418000D01*
X143642500Y-108419000D01*
X143645500Y-108420000D01*
X143647500Y-108422000D01*
X143649500Y-108423000D01*
X143651500Y-108425000D01*
X143653500Y-108426000D01*
X143655500Y-108428000D01*
X143657500Y-108430000D01*
X143659500Y-108432000D01*
X143661500Y-108434000D01*
X143662500Y-108436000D01*
X143664500Y-108438000D01*
X143665500Y-108440000D01*
X143667500Y-108442000D01*
X143668500Y-108445000D01*
X143669500Y-108447000D01*
X143670500Y-108450000D01*
X143670500Y-108452000D01*
X143671500Y-108455000D01*
X143671500Y-108457000D01*
X143672500Y-108460000D01*
X143672500Y-108462000D01*
X143672500Y-108465000D01*
X143672500Y-109105000D01*
X143672500Y-109108000D01*
X143672500Y-109110000D01*
X143671500Y-109113000D01*
X143671500Y-109115000D01*
X143670500Y-109118000D01*
X143670500Y-109120000D01*
X143669500Y-109123000D01*
X143668500Y-109125000D01*
X143667500Y-109128000D01*
X143665500Y-109130000D01*
X143664500Y-109132000D01*
X143662500Y-109134000D01*
X143661500Y-109136000D01*
X143659500Y-109138000D01*
X143657500Y-109140000D01*
X143655500Y-109142000D01*
X143653500Y-109144000D01*
X143651500Y-109145000D01*
X143649500Y-109147000D01*
X143647500Y-109148000D01*
X143645500Y-109150000D01*
X143642500Y-109151000D01*
X143640500Y-109152000D01*
X143637500Y-109153000D01*
X143635500Y-109153000D01*
X143632500Y-109154000D01*
X143630500Y-109154000D01*
X143627500Y-109155000D01*
X143625500Y-109155000D01*
X143622500Y-109155000D01*
X141582500Y-109155000D01*
X141579500Y-109155000D01*
X141577500Y-109155000D01*
X141574500Y-109154000D01*
X141572500Y-109154000D01*
X141569500Y-109153000D01*
X141567500Y-109153000D01*
X141564500Y-109152000D01*
X141562500Y-109151000D01*
X141559500Y-109150000D01*
X141557500Y-109148000D01*
X141555500Y-109147000D01*
X141553500Y-109145000D01*
X141551500Y-109144000D01*
X141549500Y-109142000D01*
X141547500Y-109140000D01*
X141545500Y-109138000D01*
X141543500Y-109136000D01*
X141542500Y-109134000D01*
X141540500Y-109132000D01*
X141539500Y-109130000D01*
X141537500Y-109128000D01*
X141536500Y-109125000D01*
X141535500Y-109123000D01*
X141534500Y-109120000D01*
X141534500Y-109118000D01*
X141533500Y-109115000D01*
X141533500Y-109113000D01*
X141532500Y-109110000D01*
X141532500Y-109108000D01*
X141532500Y-109105000D01*
X141532500Y-108465000D01*
X141532500Y-108462000D01*
X141532500Y-108460000D01*
X141533500Y-108457000D01*
X141533500Y-108455000D01*
X141534500Y-108452000D01*
X141534500Y-108450000D01*
X141535500Y-108447000D01*
X141536500Y-108445000D01*
X141537500Y-108442000D01*
X141539500Y-108440000D01*
X141540500Y-108438000D01*
X141542500Y-108436000D01*
X141543500Y-108434000D01*
X141545500Y-108432000D01*
X141547500Y-108430000D01*
X141549500Y-108428000D01*
X141551500Y-108426000D01*
X141553500Y-108425000D01*
X141555500Y-108423000D01*
X141557500Y-108422000D01*
X141559500Y-108420000D01*
X141562500Y-108419000D01*
X141564500Y-108418000D01*
X141567500Y-108417000D01*
X141569500Y-108417000D01*
X141572500Y-108416000D01*
X141574500Y-108416000D01*
X141577500Y-108415000D01*
X141579500Y-108415000D01*
X141582500Y-108415000D01*
X143622500Y-108415000D01*
X143625500Y-108415000D01*
X143627500Y-108415000D01*
X143630500Y-108416000D01*
G37*
X143630500Y-109686000D02*
X143632500Y-109686000D01*
X143635500Y-109687000D01*
X143637500Y-109687000D01*
X143640500Y-109688000D01*
X143642500Y-109689000D01*
X143645500Y-109690000D01*
X143647500Y-109692000D01*
X143649500Y-109693000D01*
X143651500Y-109695000D01*
X143653500Y-109696000D01*
X143655500Y-109698000D01*
X143657500Y-109700000D01*
X143659500Y-109702000D01*
X143661500Y-109704000D01*
X143662500Y-109706000D01*
X143664500Y-109708000D01*
X143665500Y-109710000D01*
X143667500Y-109712000D01*
X143668500Y-109715000D01*
X143669500Y-109717000D01*
X143670500Y-109720000D01*
X143670500Y-109722000D01*
X143671500Y-109725000D01*
X143671500Y-109727000D01*
X143672500Y-109730000D01*
X143672500Y-109732000D01*
X143672500Y-109735000D01*
X143672500Y-110375000D01*
X143672500Y-110378000D01*
X143672500Y-110380000D01*
X143671500Y-110383000D01*
X143671500Y-110385000D01*
X143670500Y-110388000D01*
X143670500Y-110390000D01*
X143669500Y-110393000D01*
X143668500Y-110395000D01*
X143667500Y-110398000D01*
X143665500Y-110400000D01*
X143664500Y-110402000D01*
X143662500Y-110404000D01*
X143661500Y-110406000D01*
X143659500Y-110408000D01*
X143657500Y-110410000D01*
X143655500Y-110412000D01*
X143653500Y-110414000D01*
X143651500Y-110415000D01*
X143649500Y-110417000D01*
X143647500Y-110418000D01*
X143645500Y-110420000D01*
X143642500Y-110421000D01*
X143640500Y-110422000D01*
X143637500Y-110423000D01*
X143635500Y-110423000D01*
X143632500Y-110424000D01*
X143630500Y-110424000D01*
X143627500Y-110425000D01*
X143625500Y-110425000D01*
X143622500Y-110425000D01*
X141582500Y-110425000D01*
X141579500Y-110425000D01*
X141577500Y-110425000D01*
X141574500Y-110424000D01*
X141572500Y-110424000D01*
X141569500Y-110423000D01*
X141567500Y-110423000D01*
X141564500Y-110422000D01*
X141562500Y-110421000D01*
X141559500Y-110420000D01*
X141557500Y-110418000D01*
X141555500Y-110417000D01*
X141553500Y-110415000D01*
X141551500Y-110414000D01*
X141549500Y-110412000D01*
X141547500Y-110410000D01*
X141545500Y-110408000D01*
X141543500Y-110406000D01*
X141542500Y-110404000D01*
X141540500Y-110402000D01*
X141539500Y-110400000D01*
X141537500Y-110398000D01*
X141536500Y-110395000D01*
X141535500Y-110393000D01*
X141534500Y-110390000D01*
X141534500Y-110388000D01*
X141533500Y-110385000D01*
X141533500Y-110383000D01*
X141532500Y-110380000D01*
X141532500Y-110378000D01*
X141532500Y-110375000D01*
X141532500Y-109735000D01*
X141532500Y-109732000D01*
X141532500Y-109730000D01*
X141533500Y-109727000D01*
X141533500Y-109725000D01*
X141534500Y-109722000D01*
X141534500Y-109720000D01*
X141535500Y-109717000D01*
X141536500Y-109715000D01*
X141537500Y-109712000D01*
X141539500Y-109710000D01*
X141540500Y-109708000D01*
X141542500Y-109706000D01*
X141543500Y-109704000D01*
X141545500Y-109702000D01*
X141547500Y-109700000D01*
X141549500Y-109698000D01*
X141551500Y-109696000D01*
X141553500Y-109695000D01*
X141555500Y-109693000D01*
X141557500Y-109692000D01*
X141559500Y-109690000D01*
X141562500Y-109689000D01*
X141564500Y-109688000D01*
X141567500Y-109687000D01*
X141569500Y-109687000D01*
X141572500Y-109686000D01*
X141574500Y-109686000D01*
X141577500Y-109685000D01*
X141579500Y-109685000D01*
X141582500Y-109685000D01*
X143622500Y-109685000D01*
X143625500Y-109685000D01*
X143627500Y-109685000D01*
X143630500Y-109686000D01*
G36*
X143630500Y-109686000D02*
G01*
X143632500Y-109686000D01*
X143635500Y-109687000D01*
X143637500Y-109687000D01*
X143640500Y-109688000D01*
X143642500Y-109689000D01*
X143645500Y-109690000D01*
X143647500Y-109692000D01*
X143649500Y-109693000D01*
X143651500Y-109695000D01*
X143653500Y-109696000D01*
X143655500Y-109698000D01*
X143657500Y-109700000D01*
X143659500Y-109702000D01*
X143661500Y-109704000D01*
X143662500Y-109706000D01*
X143664500Y-109708000D01*
X143665500Y-109710000D01*
X143667500Y-109712000D01*
X143668500Y-109715000D01*
X143669500Y-109717000D01*
X143670500Y-109720000D01*
X143670500Y-109722000D01*
X143671500Y-109725000D01*
X143671500Y-109727000D01*
X143672500Y-109730000D01*
X143672500Y-109732000D01*
X143672500Y-109735000D01*
X143672500Y-110375000D01*
X143672500Y-110378000D01*
X143672500Y-110380000D01*
X143671500Y-110383000D01*
X143671500Y-110385000D01*
X143670500Y-110388000D01*
X143670500Y-110390000D01*
X143669500Y-110393000D01*
X143668500Y-110395000D01*
X143667500Y-110398000D01*
X143665500Y-110400000D01*
X143664500Y-110402000D01*
X143662500Y-110404000D01*
X143661500Y-110406000D01*
X143659500Y-110408000D01*
X143657500Y-110410000D01*
X143655500Y-110412000D01*
X143653500Y-110414000D01*
X143651500Y-110415000D01*
X143649500Y-110417000D01*
X143647500Y-110418000D01*
X143645500Y-110420000D01*
X143642500Y-110421000D01*
X143640500Y-110422000D01*
X143637500Y-110423000D01*
X143635500Y-110423000D01*
X143632500Y-110424000D01*
X143630500Y-110424000D01*
X143627500Y-110425000D01*
X143625500Y-110425000D01*
X143622500Y-110425000D01*
X141582500Y-110425000D01*
X141579500Y-110425000D01*
X141577500Y-110425000D01*
X141574500Y-110424000D01*
X141572500Y-110424000D01*
X141569500Y-110423000D01*
X141567500Y-110423000D01*
X141564500Y-110422000D01*
X141562500Y-110421000D01*
X141559500Y-110420000D01*
X141557500Y-110418000D01*
X141555500Y-110417000D01*
X141553500Y-110415000D01*
X141551500Y-110414000D01*
X141549500Y-110412000D01*
X141547500Y-110410000D01*
X141545500Y-110408000D01*
X141543500Y-110406000D01*
X141542500Y-110404000D01*
X141540500Y-110402000D01*
X141539500Y-110400000D01*
X141537500Y-110398000D01*
X141536500Y-110395000D01*
X141535500Y-110393000D01*
X141534500Y-110390000D01*
X141534500Y-110388000D01*
X141533500Y-110385000D01*
X141533500Y-110383000D01*
X141532500Y-110380000D01*
X141532500Y-110378000D01*
X141532500Y-110375000D01*
X141532500Y-109735000D01*
X141532500Y-109732000D01*
X141532500Y-109730000D01*
X141533500Y-109727000D01*
X141533500Y-109725000D01*
X141534500Y-109722000D01*
X141534500Y-109720000D01*
X141535500Y-109717000D01*
X141536500Y-109715000D01*
X141537500Y-109712000D01*
X141539500Y-109710000D01*
X141540500Y-109708000D01*
X141542500Y-109706000D01*
X141543500Y-109704000D01*
X141545500Y-109702000D01*
X141547500Y-109700000D01*
X141549500Y-109698000D01*
X141551500Y-109696000D01*
X141553500Y-109695000D01*
X141555500Y-109693000D01*
X141557500Y-109692000D01*
X141559500Y-109690000D01*
X141562500Y-109689000D01*
X141564500Y-109688000D01*
X141567500Y-109687000D01*
X141569500Y-109687000D01*
X141572500Y-109686000D01*
X141574500Y-109686000D01*
X141577500Y-109685000D01*
X141579500Y-109685000D01*
X141582500Y-109685000D01*
X143622500Y-109685000D01*
X143625500Y-109685000D01*
X143627500Y-109685000D01*
X143630500Y-109686000D01*
G37*
X143630500Y-110956000D02*
X143632500Y-110956000D01*
X143635500Y-110957000D01*
X143637500Y-110957000D01*
X143640500Y-110958000D01*
X143642500Y-110959000D01*
X143645500Y-110960000D01*
X143647500Y-110962000D01*
X143649500Y-110963000D01*
X143651500Y-110965000D01*
X143653500Y-110966000D01*
X143655500Y-110968000D01*
X143657500Y-110970000D01*
X143659500Y-110972000D01*
X143661500Y-110974000D01*
X143662500Y-110976000D01*
X143664500Y-110978000D01*
X143665500Y-110980000D01*
X143667500Y-110982000D01*
X143668500Y-110985000D01*
X143669500Y-110987000D01*
X143670500Y-110990000D01*
X143670500Y-110992000D01*
X143671500Y-110995000D01*
X143671500Y-110997000D01*
X143672500Y-111000000D01*
X143672500Y-111002000D01*
X143672500Y-111005000D01*
X143672500Y-111645000D01*
X143672500Y-111648000D01*
X143672500Y-111650000D01*
X143671500Y-111653000D01*
X143671500Y-111655000D01*
X143670500Y-111658000D01*
X143670500Y-111660000D01*
X143669500Y-111663000D01*
X143668500Y-111665000D01*
X143667500Y-111668000D01*
X143665500Y-111670000D01*
X143664500Y-111672000D01*
X143662500Y-111674000D01*
X143661500Y-111676000D01*
X143659500Y-111678000D01*
X143657500Y-111680000D01*
X143655500Y-111682000D01*
X143653500Y-111684000D01*
X143651500Y-111685000D01*
X143649500Y-111687000D01*
X143647500Y-111688000D01*
X143645500Y-111690000D01*
X143642500Y-111691000D01*
X143640500Y-111692000D01*
X143637500Y-111693000D01*
X143635500Y-111693000D01*
X143632500Y-111694000D01*
X143630500Y-111694000D01*
X143627500Y-111695000D01*
X143625500Y-111695000D01*
X143622500Y-111695000D01*
X141582500Y-111695000D01*
X141579500Y-111695000D01*
X141577500Y-111695000D01*
X141574500Y-111694000D01*
X141572500Y-111694000D01*
X141569500Y-111693000D01*
X141567500Y-111693000D01*
X141564500Y-111692000D01*
X141562500Y-111691000D01*
X141559500Y-111690000D01*
X141557500Y-111688000D01*
X141555500Y-111687000D01*
X141553500Y-111685000D01*
X141551500Y-111684000D01*
X141549500Y-111682000D01*
X141547500Y-111680000D01*
X141545500Y-111678000D01*
X141543500Y-111676000D01*
X141542500Y-111674000D01*
X141540500Y-111672000D01*
X141539500Y-111670000D01*
X141537500Y-111668000D01*
X141536500Y-111665000D01*
X141535500Y-111663000D01*
X141534500Y-111660000D01*
X141534500Y-111658000D01*
X141533500Y-111655000D01*
X141533500Y-111653000D01*
X141532500Y-111650000D01*
X141532500Y-111648000D01*
X141532500Y-111645000D01*
X141532500Y-111005000D01*
X141532500Y-111002000D01*
X141532500Y-111000000D01*
X141533500Y-110997000D01*
X141533500Y-110995000D01*
X141534500Y-110992000D01*
X141534500Y-110990000D01*
X141535500Y-110987000D01*
X141536500Y-110985000D01*
X141537500Y-110982000D01*
X141539500Y-110980000D01*
X141540500Y-110978000D01*
X141542500Y-110976000D01*
X141543500Y-110974000D01*
X141545500Y-110972000D01*
X141547500Y-110970000D01*
X141549500Y-110968000D01*
X141551500Y-110966000D01*
X141553500Y-110965000D01*
X141555500Y-110963000D01*
X141557500Y-110962000D01*
X141559500Y-110960000D01*
X141562500Y-110959000D01*
X141564500Y-110958000D01*
X141567500Y-110957000D01*
X141569500Y-110957000D01*
X141572500Y-110956000D01*
X141574500Y-110956000D01*
X141577500Y-110955000D01*
X141579500Y-110955000D01*
X141582500Y-110955000D01*
X143622500Y-110955000D01*
X143625500Y-110955000D01*
X143627500Y-110955000D01*
X143630500Y-110956000D01*
G36*
X143630500Y-110956000D02*
G01*
X143632500Y-110956000D01*
X143635500Y-110957000D01*
X143637500Y-110957000D01*
X143640500Y-110958000D01*
X143642500Y-110959000D01*
X143645500Y-110960000D01*
X143647500Y-110962000D01*
X143649500Y-110963000D01*
X143651500Y-110965000D01*
X143653500Y-110966000D01*
X143655500Y-110968000D01*
X143657500Y-110970000D01*
X143659500Y-110972000D01*
X143661500Y-110974000D01*
X143662500Y-110976000D01*
X143664500Y-110978000D01*
X143665500Y-110980000D01*
X143667500Y-110982000D01*
X143668500Y-110985000D01*
X143669500Y-110987000D01*
X143670500Y-110990000D01*
X143670500Y-110992000D01*
X143671500Y-110995000D01*
X143671500Y-110997000D01*
X143672500Y-111000000D01*
X143672500Y-111002000D01*
X143672500Y-111005000D01*
X143672500Y-111645000D01*
X143672500Y-111648000D01*
X143672500Y-111650000D01*
X143671500Y-111653000D01*
X143671500Y-111655000D01*
X143670500Y-111658000D01*
X143670500Y-111660000D01*
X143669500Y-111663000D01*
X143668500Y-111665000D01*
X143667500Y-111668000D01*
X143665500Y-111670000D01*
X143664500Y-111672000D01*
X143662500Y-111674000D01*
X143661500Y-111676000D01*
X143659500Y-111678000D01*
X143657500Y-111680000D01*
X143655500Y-111682000D01*
X143653500Y-111684000D01*
X143651500Y-111685000D01*
X143649500Y-111687000D01*
X143647500Y-111688000D01*
X143645500Y-111690000D01*
X143642500Y-111691000D01*
X143640500Y-111692000D01*
X143637500Y-111693000D01*
X143635500Y-111693000D01*
X143632500Y-111694000D01*
X143630500Y-111694000D01*
X143627500Y-111695000D01*
X143625500Y-111695000D01*
X143622500Y-111695000D01*
X141582500Y-111695000D01*
X141579500Y-111695000D01*
X141577500Y-111695000D01*
X141574500Y-111694000D01*
X141572500Y-111694000D01*
X141569500Y-111693000D01*
X141567500Y-111693000D01*
X141564500Y-111692000D01*
X141562500Y-111691000D01*
X141559500Y-111690000D01*
X141557500Y-111688000D01*
X141555500Y-111687000D01*
X141553500Y-111685000D01*
X141551500Y-111684000D01*
X141549500Y-111682000D01*
X141547500Y-111680000D01*
X141545500Y-111678000D01*
X141543500Y-111676000D01*
X141542500Y-111674000D01*
X141540500Y-111672000D01*
X141539500Y-111670000D01*
X141537500Y-111668000D01*
X141536500Y-111665000D01*
X141535500Y-111663000D01*
X141534500Y-111660000D01*
X141534500Y-111658000D01*
X141533500Y-111655000D01*
X141533500Y-111653000D01*
X141532500Y-111650000D01*
X141532500Y-111648000D01*
X141532500Y-111645000D01*
X141532500Y-111005000D01*
X141532500Y-111002000D01*
X141532500Y-111000000D01*
X141533500Y-110997000D01*
X141533500Y-110995000D01*
X141534500Y-110992000D01*
X141534500Y-110990000D01*
X141535500Y-110987000D01*
X141536500Y-110985000D01*
X141537500Y-110982000D01*
X141539500Y-110980000D01*
X141540500Y-110978000D01*
X141542500Y-110976000D01*
X141543500Y-110974000D01*
X141545500Y-110972000D01*
X141547500Y-110970000D01*
X141549500Y-110968000D01*
X141551500Y-110966000D01*
X141553500Y-110965000D01*
X141555500Y-110963000D01*
X141557500Y-110962000D01*
X141559500Y-110960000D01*
X141562500Y-110959000D01*
X141564500Y-110958000D01*
X141567500Y-110957000D01*
X141569500Y-110957000D01*
X141572500Y-110956000D01*
X141574500Y-110956000D01*
X141577500Y-110955000D01*
X141579500Y-110955000D01*
X141582500Y-110955000D01*
X143622500Y-110955000D01*
X143625500Y-110955000D01*
X143627500Y-110955000D01*
X143630500Y-110956000D01*
G37*
X143630500Y-112226000D02*
X143632500Y-112226000D01*
X143635500Y-112227000D01*
X143637500Y-112227000D01*
X143640500Y-112228000D01*
X143642500Y-112229000D01*
X143645500Y-112230000D01*
X143647500Y-112232000D01*
X143649500Y-112233000D01*
X143651500Y-112235000D01*
X143653500Y-112236000D01*
X143655500Y-112238000D01*
X143657500Y-112240000D01*
X143659500Y-112242000D01*
X143661500Y-112244000D01*
X143662500Y-112246000D01*
X143664500Y-112248000D01*
X143665500Y-112250000D01*
X143667500Y-112252000D01*
X143668500Y-112255000D01*
X143669500Y-112257000D01*
X143670500Y-112260000D01*
X143670500Y-112262000D01*
X143671500Y-112265000D01*
X143671500Y-112267000D01*
X143672500Y-112270000D01*
X143672500Y-112272000D01*
X143672500Y-112275000D01*
X143672500Y-112915000D01*
X143672500Y-112918000D01*
X143672500Y-112920000D01*
X143671500Y-112923000D01*
X143671500Y-112925000D01*
X143670500Y-112928000D01*
X143670500Y-112930000D01*
X143669500Y-112933000D01*
X143668500Y-112935000D01*
X143667500Y-112938000D01*
X143665500Y-112940000D01*
X143664500Y-112942000D01*
X143662500Y-112944000D01*
X143661500Y-112946000D01*
X143659500Y-112948000D01*
X143657500Y-112950000D01*
X143655500Y-112952000D01*
X143653500Y-112954000D01*
X143651500Y-112955000D01*
X143649500Y-112957000D01*
X143647500Y-112958000D01*
X143645500Y-112960000D01*
X143642500Y-112961000D01*
X143640500Y-112962000D01*
X143637500Y-112963000D01*
X143635500Y-112963000D01*
X143632500Y-112964000D01*
X143630500Y-112964000D01*
X143627500Y-112965000D01*
X143625500Y-112965000D01*
X143622500Y-112965000D01*
X141582500Y-112965000D01*
X141579500Y-112965000D01*
X141577500Y-112965000D01*
X141574500Y-112964000D01*
X141572500Y-112964000D01*
X141569500Y-112963000D01*
X141567500Y-112963000D01*
X141564500Y-112962000D01*
X141562500Y-112961000D01*
X141559500Y-112960000D01*
X141557500Y-112958000D01*
X141555500Y-112957000D01*
X141553500Y-112955000D01*
X141551500Y-112954000D01*
X141549500Y-112952000D01*
X141547500Y-112950000D01*
X141545500Y-112948000D01*
X141543500Y-112946000D01*
X141542500Y-112944000D01*
X141540500Y-112942000D01*
X141539500Y-112940000D01*
X141537500Y-112938000D01*
X141536500Y-112935000D01*
X141535500Y-112933000D01*
X141534500Y-112930000D01*
X141534500Y-112928000D01*
X141533500Y-112925000D01*
X141533500Y-112923000D01*
X141532500Y-112920000D01*
X141532500Y-112918000D01*
X141532500Y-112915000D01*
X141532500Y-112275000D01*
X141532500Y-112272000D01*
X141532500Y-112270000D01*
X141533500Y-112267000D01*
X141533500Y-112265000D01*
X141534500Y-112262000D01*
X141534500Y-112260000D01*
X141535500Y-112257000D01*
X141536500Y-112255000D01*
X141537500Y-112252000D01*
X141539500Y-112250000D01*
X141540500Y-112248000D01*
X141542500Y-112246000D01*
X141543500Y-112244000D01*
X141545500Y-112242000D01*
X141547500Y-112240000D01*
X141549500Y-112238000D01*
X141551500Y-112236000D01*
X141553500Y-112235000D01*
X141555500Y-112233000D01*
X141557500Y-112232000D01*
X141559500Y-112230000D01*
X141562500Y-112229000D01*
X141564500Y-112228000D01*
X141567500Y-112227000D01*
X141569500Y-112227000D01*
X141572500Y-112226000D01*
X141574500Y-112226000D01*
X141577500Y-112225000D01*
X141579500Y-112225000D01*
X141582500Y-112225000D01*
X143622500Y-112225000D01*
X143625500Y-112225000D01*
X143627500Y-112225000D01*
X143630500Y-112226000D01*
G36*
X143630500Y-112226000D02*
G01*
X143632500Y-112226000D01*
X143635500Y-112227000D01*
X143637500Y-112227000D01*
X143640500Y-112228000D01*
X143642500Y-112229000D01*
X143645500Y-112230000D01*
X143647500Y-112232000D01*
X143649500Y-112233000D01*
X143651500Y-112235000D01*
X143653500Y-112236000D01*
X143655500Y-112238000D01*
X143657500Y-112240000D01*
X143659500Y-112242000D01*
X143661500Y-112244000D01*
X143662500Y-112246000D01*
X143664500Y-112248000D01*
X143665500Y-112250000D01*
X143667500Y-112252000D01*
X143668500Y-112255000D01*
X143669500Y-112257000D01*
X143670500Y-112260000D01*
X143670500Y-112262000D01*
X143671500Y-112265000D01*
X143671500Y-112267000D01*
X143672500Y-112270000D01*
X143672500Y-112272000D01*
X143672500Y-112275000D01*
X143672500Y-112915000D01*
X143672500Y-112918000D01*
X143672500Y-112920000D01*
X143671500Y-112923000D01*
X143671500Y-112925000D01*
X143670500Y-112928000D01*
X143670500Y-112930000D01*
X143669500Y-112933000D01*
X143668500Y-112935000D01*
X143667500Y-112938000D01*
X143665500Y-112940000D01*
X143664500Y-112942000D01*
X143662500Y-112944000D01*
X143661500Y-112946000D01*
X143659500Y-112948000D01*
X143657500Y-112950000D01*
X143655500Y-112952000D01*
X143653500Y-112954000D01*
X143651500Y-112955000D01*
X143649500Y-112957000D01*
X143647500Y-112958000D01*
X143645500Y-112960000D01*
X143642500Y-112961000D01*
X143640500Y-112962000D01*
X143637500Y-112963000D01*
X143635500Y-112963000D01*
X143632500Y-112964000D01*
X143630500Y-112964000D01*
X143627500Y-112965000D01*
X143625500Y-112965000D01*
X143622500Y-112965000D01*
X141582500Y-112965000D01*
X141579500Y-112965000D01*
X141577500Y-112965000D01*
X141574500Y-112964000D01*
X141572500Y-112964000D01*
X141569500Y-112963000D01*
X141567500Y-112963000D01*
X141564500Y-112962000D01*
X141562500Y-112961000D01*
X141559500Y-112960000D01*
X141557500Y-112958000D01*
X141555500Y-112957000D01*
X141553500Y-112955000D01*
X141551500Y-112954000D01*
X141549500Y-112952000D01*
X141547500Y-112950000D01*
X141545500Y-112948000D01*
X141543500Y-112946000D01*
X141542500Y-112944000D01*
X141540500Y-112942000D01*
X141539500Y-112940000D01*
X141537500Y-112938000D01*
X141536500Y-112935000D01*
X141535500Y-112933000D01*
X141534500Y-112930000D01*
X141534500Y-112928000D01*
X141533500Y-112925000D01*
X141533500Y-112923000D01*
X141532500Y-112920000D01*
X141532500Y-112918000D01*
X141532500Y-112915000D01*
X141532500Y-112275000D01*
X141532500Y-112272000D01*
X141532500Y-112270000D01*
X141533500Y-112267000D01*
X141533500Y-112265000D01*
X141534500Y-112262000D01*
X141534500Y-112260000D01*
X141535500Y-112257000D01*
X141536500Y-112255000D01*
X141537500Y-112252000D01*
X141539500Y-112250000D01*
X141540500Y-112248000D01*
X141542500Y-112246000D01*
X141543500Y-112244000D01*
X141545500Y-112242000D01*
X141547500Y-112240000D01*
X141549500Y-112238000D01*
X141551500Y-112236000D01*
X141553500Y-112235000D01*
X141555500Y-112233000D01*
X141557500Y-112232000D01*
X141559500Y-112230000D01*
X141562500Y-112229000D01*
X141564500Y-112228000D01*
X141567500Y-112227000D01*
X141569500Y-112227000D01*
X141572500Y-112226000D01*
X141574500Y-112226000D01*
X141577500Y-112225000D01*
X141579500Y-112225000D01*
X141582500Y-112225000D01*
X143622500Y-112225000D01*
X143625500Y-112225000D01*
X143627500Y-112225000D01*
X143630500Y-112226000D01*
G37*
X152930500Y-103336000D02*
X152932500Y-103336000D01*
X152935500Y-103337000D01*
X152937500Y-103337000D01*
X152940500Y-103338000D01*
X152942500Y-103339000D01*
X152945500Y-103340000D01*
X152947500Y-103342000D01*
X152949500Y-103343000D01*
X152951500Y-103345000D01*
X152953500Y-103346000D01*
X152955500Y-103348000D01*
X152957500Y-103350000D01*
X152959500Y-103352000D01*
X152961500Y-103354000D01*
X152962500Y-103356000D01*
X152964500Y-103358000D01*
X152965500Y-103360000D01*
X152967500Y-103362000D01*
X152968500Y-103365000D01*
X152969500Y-103367000D01*
X152970500Y-103370000D01*
X152970500Y-103372000D01*
X152971500Y-103375000D01*
X152971500Y-103377000D01*
X152972500Y-103380000D01*
X152972500Y-103382000D01*
X152972500Y-103385000D01*
X152972500Y-104025000D01*
X152972500Y-104028000D01*
X152972500Y-104030000D01*
X152971500Y-104033000D01*
X152971500Y-104035000D01*
X152970500Y-104038000D01*
X152970500Y-104040000D01*
X152969500Y-104043000D01*
X152968500Y-104045000D01*
X152967500Y-104048000D01*
X152965500Y-104050000D01*
X152964500Y-104052000D01*
X152962500Y-104054000D01*
X152961500Y-104056000D01*
X152959500Y-104058000D01*
X152957500Y-104060000D01*
X152955500Y-104062000D01*
X152953500Y-104064000D01*
X152951500Y-104065000D01*
X152949500Y-104067000D01*
X152947500Y-104068000D01*
X152945500Y-104070000D01*
X152942500Y-104071000D01*
X152940500Y-104072000D01*
X152937500Y-104073000D01*
X152935500Y-104073000D01*
X152932500Y-104074000D01*
X152930500Y-104074000D01*
X152927500Y-104075000D01*
X152925500Y-104075000D01*
X152922500Y-104075000D01*
X150882500Y-104075000D01*
X150879500Y-104075000D01*
X150877500Y-104075000D01*
X150874500Y-104074000D01*
X150872500Y-104074000D01*
X150869500Y-104073000D01*
X150867500Y-104073000D01*
X150864500Y-104072000D01*
X150862500Y-104071000D01*
X150859500Y-104070000D01*
X150857500Y-104068000D01*
X150855500Y-104067000D01*
X150853500Y-104065000D01*
X150851500Y-104064000D01*
X150849500Y-104062000D01*
X150847500Y-104060000D01*
X150845500Y-104058000D01*
X150843500Y-104056000D01*
X150842500Y-104054000D01*
X150840500Y-104052000D01*
X150839500Y-104050000D01*
X150837500Y-104048000D01*
X150836500Y-104045000D01*
X150835500Y-104043000D01*
X150834500Y-104040000D01*
X150834500Y-104038000D01*
X150833500Y-104035000D01*
X150833500Y-104033000D01*
X150832500Y-104030000D01*
X150832500Y-104028000D01*
X150832500Y-104025000D01*
X150832500Y-103385000D01*
X150832500Y-103382000D01*
X150832500Y-103380000D01*
X150833500Y-103377000D01*
X150833500Y-103375000D01*
X150834500Y-103372000D01*
X150834500Y-103370000D01*
X150835500Y-103367000D01*
X150836500Y-103365000D01*
X150837500Y-103362000D01*
X150839500Y-103360000D01*
X150840500Y-103358000D01*
X150842500Y-103356000D01*
X150843500Y-103354000D01*
X150845500Y-103352000D01*
X150847500Y-103350000D01*
X150849500Y-103348000D01*
X150851500Y-103346000D01*
X150853500Y-103345000D01*
X150855500Y-103343000D01*
X150857500Y-103342000D01*
X150859500Y-103340000D01*
X150862500Y-103339000D01*
X150864500Y-103338000D01*
X150867500Y-103337000D01*
X150869500Y-103337000D01*
X150872500Y-103336000D01*
X150874500Y-103336000D01*
X150877500Y-103335000D01*
X150879500Y-103335000D01*
X150882500Y-103335000D01*
X152922500Y-103335000D01*
X152925500Y-103335000D01*
X152927500Y-103335000D01*
X152930500Y-103336000D01*
G36*
X152930500Y-103336000D02*
G01*
X152932500Y-103336000D01*
X152935500Y-103337000D01*
X152937500Y-103337000D01*
X152940500Y-103338000D01*
X152942500Y-103339000D01*
X152945500Y-103340000D01*
X152947500Y-103342000D01*
X152949500Y-103343000D01*
X152951500Y-103345000D01*
X152953500Y-103346000D01*
X152955500Y-103348000D01*
X152957500Y-103350000D01*
X152959500Y-103352000D01*
X152961500Y-103354000D01*
X152962500Y-103356000D01*
X152964500Y-103358000D01*
X152965500Y-103360000D01*
X152967500Y-103362000D01*
X152968500Y-103365000D01*
X152969500Y-103367000D01*
X152970500Y-103370000D01*
X152970500Y-103372000D01*
X152971500Y-103375000D01*
X152971500Y-103377000D01*
X152972500Y-103380000D01*
X152972500Y-103382000D01*
X152972500Y-103385000D01*
X152972500Y-104025000D01*
X152972500Y-104028000D01*
X152972500Y-104030000D01*
X152971500Y-104033000D01*
X152971500Y-104035000D01*
X152970500Y-104038000D01*
X152970500Y-104040000D01*
X152969500Y-104043000D01*
X152968500Y-104045000D01*
X152967500Y-104048000D01*
X152965500Y-104050000D01*
X152964500Y-104052000D01*
X152962500Y-104054000D01*
X152961500Y-104056000D01*
X152959500Y-104058000D01*
X152957500Y-104060000D01*
X152955500Y-104062000D01*
X152953500Y-104064000D01*
X152951500Y-104065000D01*
X152949500Y-104067000D01*
X152947500Y-104068000D01*
X152945500Y-104070000D01*
X152942500Y-104071000D01*
X152940500Y-104072000D01*
X152937500Y-104073000D01*
X152935500Y-104073000D01*
X152932500Y-104074000D01*
X152930500Y-104074000D01*
X152927500Y-104075000D01*
X152925500Y-104075000D01*
X152922500Y-104075000D01*
X150882500Y-104075000D01*
X150879500Y-104075000D01*
X150877500Y-104075000D01*
X150874500Y-104074000D01*
X150872500Y-104074000D01*
X150869500Y-104073000D01*
X150867500Y-104073000D01*
X150864500Y-104072000D01*
X150862500Y-104071000D01*
X150859500Y-104070000D01*
X150857500Y-104068000D01*
X150855500Y-104067000D01*
X150853500Y-104065000D01*
X150851500Y-104064000D01*
X150849500Y-104062000D01*
X150847500Y-104060000D01*
X150845500Y-104058000D01*
X150843500Y-104056000D01*
X150842500Y-104054000D01*
X150840500Y-104052000D01*
X150839500Y-104050000D01*
X150837500Y-104048000D01*
X150836500Y-104045000D01*
X150835500Y-104043000D01*
X150834500Y-104040000D01*
X150834500Y-104038000D01*
X150833500Y-104035000D01*
X150833500Y-104033000D01*
X150832500Y-104030000D01*
X150832500Y-104028000D01*
X150832500Y-104025000D01*
X150832500Y-103385000D01*
X150832500Y-103382000D01*
X150832500Y-103380000D01*
X150833500Y-103377000D01*
X150833500Y-103375000D01*
X150834500Y-103372000D01*
X150834500Y-103370000D01*
X150835500Y-103367000D01*
X150836500Y-103365000D01*
X150837500Y-103362000D01*
X150839500Y-103360000D01*
X150840500Y-103358000D01*
X150842500Y-103356000D01*
X150843500Y-103354000D01*
X150845500Y-103352000D01*
X150847500Y-103350000D01*
X150849500Y-103348000D01*
X150851500Y-103346000D01*
X150853500Y-103345000D01*
X150855500Y-103343000D01*
X150857500Y-103342000D01*
X150859500Y-103340000D01*
X150862500Y-103339000D01*
X150864500Y-103338000D01*
X150867500Y-103337000D01*
X150869500Y-103337000D01*
X150872500Y-103336000D01*
X150874500Y-103336000D01*
X150877500Y-103335000D01*
X150879500Y-103335000D01*
X150882500Y-103335000D01*
X152922500Y-103335000D01*
X152925500Y-103335000D01*
X152927500Y-103335000D01*
X152930500Y-103336000D01*
G37*
X152930500Y-104606000D02*
X152932500Y-104606000D01*
X152935500Y-104607000D01*
X152937500Y-104607000D01*
X152940500Y-104608000D01*
X152942500Y-104609000D01*
X152945500Y-104610000D01*
X152947500Y-104612000D01*
X152949500Y-104613000D01*
X152951500Y-104615000D01*
X152953500Y-104616000D01*
X152955500Y-104618000D01*
X152957500Y-104620000D01*
X152959500Y-104622000D01*
X152961500Y-104624000D01*
X152962500Y-104626000D01*
X152964500Y-104628000D01*
X152965500Y-104630000D01*
X152967500Y-104632000D01*
X152968500Y-104635000D01*
X152969500Y-104637000D01*
X152970500Y-104640000D01*
X152970500Y-104642000D01*
X152971500Y-104645000D01*
X152971500Y-104647000D01*
X152972500Y-104650000D01*
X152972500Y-104652000D01*
X152972500Y-104655000D01*
X152972500Y-105295000D01*
X152972500Y-105298000D01*
X152972500Y-105300000D01*
X152971500Y-105303000D01*
X152971500Y-105305000D01*
X152970500Y-105308000D01*
X152970500Y-105310000D01*
X152969500Y-105313000D01*
X152968500Y-105315000D01*
X152967500Y-105318000D01*
X152965500Y-105320000D01*
X152964500Y-105322000D01*
X152962500Y-105324000D01*
X152961500Y-105326000D01*
X152959500Y-105328000D01*
X152957500Y-105330000D01*
X152955500Y-105332000D01*
X152953500Y-105334000D01*
X152951500Y-105335000D01*
X152949500Y-105337000D01*
X152947500Y-105338000D01*
X152945500Y-105340000D01*
X152942500Y-105341000D01*
X152940500Y-105342000D01*
X152937500Y-105343000D01*
X152935500Y-105343000D01*
X152932500Y-105344000D01*
X152930500Y-105344000D01*
X152927500Y-105345000D01*
X152925500Y-105345000D01*
X152922500Y-105345000D01*
X150882500Y-105345000D01*
X150879500Y-105345000D01*
X150877500Y-105345000D01*
X150874500Y-105344000D01*
X150872500Y-105344000D01*
X150869500Y-105343000D01*
X150867500Y-105343000D01*
X150864500Y-105342000D01*
X150862500Y-105341000D01*
X150859500Y-105340000D01*
X150857500Y-105338000D01*
X150855500Y-105337000D01*
X150853500Y-105335000D01*
X150851500Y-105334000D01*
X150849500Y-105332000D01*
X150847500Y-105330000D01*
X150845500Y-105328000D01*
X150843500Y-105326000D01*
X150842500Y-105324000D01*
X150840500Y-105322000D01*
X150839500Y-105320000D01*
X150837500Y-105318000D01*
X150836500Y-105315000D01*
X150835500Y-105313000D01*
X150834500Y-105310000D01*
X150834500Y-105308000D01*
X150833500Y-105305000D01*
X150833500Y-105303000D01*
X150832500Y-105300000D01*
X150832500Y-105298000D01*
X150832500Y-105295000D01*
X150832500Y-104655000D01*
X150832500Y-104652000D01*
X150832500Y-104650000D01*
X150833500Y-104647000D01*
X150833500Y-104645000D01*
X150834500Y-104642000D01*
X150834500Y-104640000D01*
X150835500Y-104637000D01*
X150836500Y-104635000D01*
X150837500Y-104632000D01*
X150839500Y-104630000D01*
X150840500Y-104628000D01*
X150842500Y-104626000D01*
X150843500Y-104624000D01*
X150845500Y-104622000D01*
X150847500Y-104620000D01*
X150849500Y-104618000D01*
X150851500Y-104616000D01*
X150853500Y-104615000D01*
X150855500Y-104613000D01*
X150857500Y-104612000D01*
X150859500Y-104610000D01*
X150862500Y-104609000D01*
X150864500Y-104608000D01*
X150867500Y-104607000D01*
X150869500Y-104607000D01*
X150872500Y-104606000D01*
X150874500Y-104606000D01*
X150877500Y-104605000D01*
X150879500Y-104605000D01*
X150882500Y-104605000D01*
X152922500Y-104605000D01*
X152925500Y-104605000D01*
X152927500Y-104605000D01*
X152930500Y-104606000D01*
G36*
X152930500Y-104606000D02*
G01*
X152932500Y-104606000D01*
X152935500Y-104607000D01*
X152937500Y-104607000D01*
X152940500Y-104608000D01*
X152942500Y-104609000D01*
X152945500Y-104610000D01*
X152947500Y-104612000D01*
X152949500Y-104613000D01*
X152951500Y-104615000D01*
X152953500Y-104616000D01*
X152955500Y-104618000D01*
X152957500Y-104620000D01*
X152959500Y-104622000D01*
X152961500Y-104624000D01*
X152962500Y-104626000D01*
X152964500Y-104628000D01*
X152965500Y-104630000D01*
X152967500Y-104632000D01*
X152968500Y-104635000D01*
X152969500Y-104637000D01*
X152970500Y-104640000D01*
X152970500Y-104642000D01*
X152971500Y-104645000D01*
X152971500Y-104647000D01*
X152972500Y-104650000D01*
X152972500Y-104652000D01*
X152972500Y-104655000D01*
X152972500Y-105295000D01*
X152972500Y-105298000D01*
X152972500Y-105300000D01*
X152971500Y-105303000D01*
X152971500Y-105305000D01*
X152970500Y-105308000D01*
X152970500Y-105310000D01*
X152969500Y-105313000D01*
X152968500Y-105315000D01*
X152967500Y-105318000D01*
X152965500Y-105320000D01*
X152964500Y-105322000D01*
X152962500Y-105324000D01*
X152961500Y-105326000D01*
X152959500Y-105328000D01*
X152957500Y-105330000D01*
X152955500Y-105332000D01*
X152953500Y-105334000D01*
X152951500Y-105335000D01*
X152949500Y-105337000D01*
X152947500Y-105338000D01*
X152945500Y-105340000D01*
X152942500Y-105341000D01*
X152940500Y-105342000D01*
X152937500Y-105343000D01*
X152935500Y-105343000D01*
X152932500Y-105344000D01*
X152930500Y-105344000D01*
X152927500Y-105345000D01*
X152925500Y-105345000D01*
X152922500Y-105345000D01*
X150882500Y-105345000D01*
X150879500Y-105345000D01*
X150877500Y-105345000D01*
X150874500Y-105344000D01*
X150872500Y-105344000D01*
X150869500Y-105343000D01*
X150867500Y-105343000D01*
X150864500Y-105342000D01*
X150862500Y-105341000D01*
X150859500Y-105340000D01*
X150857500Y-105338000D01*
X150855500Y-105337000D01*
X150853500Y-105335000D01*
X150851500Y-105334000D01*
X150849500Y-105332000D01*
X150847500Y-105330000D01*
X150845500Y-105328000D01*
X150843500Y-105326000D01*
X150842500Y-105324000D01*
X150840500Y-105322000D01*
X150839500Y-105320000D01*
X150837500Y-105318000D01*
X150836500Y-105315000D01*
X150835500Y-105313000D01*
X150834500Y-105310000D01*
X150834500Y-105308000D01*
X150833500Y-105305000D01*
X150833500Y-105303000D01*
X150832500Y-105300000D01*
X150832500Y-105298000D01*
X150832500Y-105295000D01*
X150832500Y-104655000D01*
X150832500Y-104652000D01*
X150832500Y-104650000D01*
X150833500Y-104647000D01*
X150833500Y-104645000D01*
X150834500Y-104642000D01*
X150834500Y-104640000D01*
X150835500Y-104637000D01*
X150836500Y-104635000D01*
X150837500Y-104632000D01*
X150839500Y-104630000D01*
X150840500Y-104628000D01*
X150842500Y-104626000D01*
X150843500Y-104624000D01*
X150845500Y-104622000D01*
X150847500Y-104620000D01*
X150849500Y-104618000D01*
X150851500Y-104616000D01*
X150853500Y-104615000D01*
X150855500Y-104613000D01*
X150857500Y-104612000D01*
X150859500Y-104610000D01*
X150862500Y-104609000D01*
X150864500Y-104608000D01*
X150867500Y-104607000D01*
X150869500Y-104607000D01*
X150872500Y-104606000D01*
X150874500Y-104606000D01*
X150877500Y-104605000D01*
X150879500Y-104605000D01*
X150882500Y-104605000D01*
X152922500Y-104605000D01*
X152925500Y-104605000D01*
X152927500Y-104605000D01*
X152930500Y-104606000D01*
G37*
X152930500Y-105876000D02*
X152932500Y-105876000D01*
X152935500Y-105877000D01*
X152937500Y-105877000D01*
X152940500Y-105878000D01*
X152942500Y-105879000D01*
X152945500Y-105880000D01*
X152947500Y-105882000D01*
X152949500Y-105883000D01*
X152951500Y-105885000D01*
X152953500Y-105886000D01*
X152955500Y-105888000D01*
X152957500Y-105890000D01*
X152959500Y-105892000D01*
X152961500Y-105894000D01*
X152962500Y-105896000D01*
X152964500Y-105898000D01*
X152965500Y-105900000D01*
X152967500Y-105902000D01*
X152968500Y-105905000D01*
X152969500Y-105907000D01*
X152970500Y-105910000D01*
X152970500Y-105912000D01*
X152971500Y-105915000D01*
X152971500Y-105917000D01*
X152972500Y-105920000D01*
X152972500Y-105922000D01*
X152972500Y-105925000D01*
X152972500Y-106565000D01*
X152972500Y-106568000D01*
X152972500Y-106570000D01*
X152971500Y-106573000D01*
X152971500Y-106575000D01*
X152970500Y-106578000D01*
X152970500Y-106580000D01*
X152969500Y-106583000D01*
X152968500Y-106585000D01*
X152967500Y-106588000D01*
X152965500Y-106590000D01*
X152964500Y-106592000D01*
X152962500Y-106594000D01*
X152961500Y-106596000D01*
X152959500Y-106598000D01*
X152957500Y-106600000D01*
X152955500Y-106602000D01*
X152953500Y-106604000D01*
X152951500Y-106605000D01*
X152949500Y-106607000D01*
X152947500Y-106608000D01*
X152945500Y-106610000D01*
X152942500Y-106611000D01*
X152940500Y-106612000D01*
X152937500Y-106613000D01*
X152935500Y-106613000D01*
X152932500Y-106614000D01*
X152930500Y-106614000D01*
X152927500Y-106615000D01*
X152925500Y-106615000D01*
X152922500Y-106615000D01*
X150882500Y-106615000D01*
X150879500Y-106615000D01*
X150877500Y-106615000D01*
X150874500Y-106614000D01*
X150872500Y-106614000D01*
X150869500Y-106613000D01*
X150867500Y-106613000D01*
X150864500Y-106612000D01*
X150862500Y-106611000D01*
X150859500Y-106610000D01*
X150857500Y-106608000D01*
X150855500Y-106607000D01*
X150853500Y-106605000D01*
X150851500Y-106604000D01*
X150849500Y-106602000D01*
X150847500Y-106600000D01*
X150845500Y-106598000D01*
X150843500Y-106596000D01*
X150842500Y-106594000D01*
X150840500Y-106592000D01*
X150839500Y-106590000D01*
X150837500Y-106588000D01*
X150836500Y-106585000D01*
X150835500Y-106583000D01*
X150834500Y-106580000D01*
X150834500Y-106578000D01*
X150833500Y-106575000D01*
X150833500Y-106573000D01*
X150832500Y-106570000D01*
X150832500Y-106568000D01*
X150832500Y-106565000D01*
X150832500Y-105925000D01*
X150832500Y-105922000D01*
X150832500Y-105920000D01*
X150833500Y-105917000D01*
X150833500Y-105915000D01*
X150834500Y-105912000D01*
X150834500Y-105910000D01*
X150835500Y-105907000D01*
X150836500Y-105905000D01*
X150837500Y-105902000D01*
X150839500Y-105900000D01*
X150840500Y-105898000D01*
X150842500Y-105896000D01*
X150843500Y-105894000D01*
X150845500Y-105892000D01*
X150847500Y-105890000D01*
X150849500Y-105888000D01*
X150851500Y-105886000D01*
X150853500Y-105885000D01*
X150855500Y-105883000D01*
X150857500Y-105882000D01*
X150859500Y-105880000D01*
X150862500Y-105879000D01*
X150864500Y-105878000D01*
X150867500Y-105877000D01*
X150869500Y-105877000D01*
X150872500Y-105876000D01*
X150874500Y-105876000D01*
X150877500Y-105875000D01*
X150879500Y-105875000D01*
X150882500Y-105875000D01*
X152922500Y-105875000D01*
X152925500Y-105875000D01*
X152927500Y-105875000D01*
X152930500Y-105876000D01*
G36*
X152930500Y-105876000D02*
G01*
X152932500Y-105876000D01*
X152935500Y-105877000D01*
X152937500Y-105877000D01*
X152940500Y-105878000D01*
X152942500Y-105879000D01*
X152945500Y-105880000D01*
X152947500Y-105882000D01*
X152949500Y-105883000D01*
X152951500Y-105885000D01*
X152953500Y-105886000D01*
X152955500Y-105888000D01*
X152957500Y-105890000D01*
X152959500Y-105892000D01*
X152961500Y-105894000D01*
X152962500Y-105896000D01*
X152964500Y-105898000D01*
X152965500Y-105900000D01*
X152967500Y-105902000D01*
X152968500Y-105905000D01*
X152969500Y-105907000D01*
X152970500Y-105910000D01*
X152970500Y-105912000D01*
X152971500Y-105915000D01*
X152971500Y-105917000D01*
X152972500Y-105920000D01*
X152972500Y-105922000D01*
X152972500Y-105925000D01*
X152972500Y-106565000D01*
X152972500Y-106568000D01*
X152972500Y-106570000D01*
X152971500Y-106573000D01*
X152971500Y-106575000D01*
X152970500Y-106578000D01*
X152970500Y-106580000D01*
X152969500Y-106583000D01*
X152968500Y-106585000D01*
X152967500Y-106588000D01*
X152965500Y-106590000D01*
X152964500Y-106592000D01*
X152962500Y-106594000D01*
X152961500Y-106596000D01*
X152959500Y-106598000D01*
X152957500Y-106600000D01*
X152955500Y-106602000D01*
X152953500Y-106604000D01*
X152951500Y-106605000D01*
X152949500Y-106607000D01*
X152947500Y-106608000D01*
X152945500Y-106610000D01*
X152942500Y-106611000D01*
X152940500Y-106612000D01*
X152937500Y-106613000D01*
X152935500Y-106613000D01*
X152932500Y-106614000D01*
X152930500Y-106614000D01*
X152927500Y-106615000D01*
X152925500Y-106615000D01*
X152922500Y-106615000D01*
X150882500Y-106615000D01*
X150879500Y-106615000D01*
X150877500Y-106615000D01*
X150874500Y-106614000D01*
X150872500Y-106614000D01*
X150869500Y-106613000D01*
X150867500Y-106613000D01*
X150864500Y-106612000D01*
X150862500Y-106611000D01*
X150859500Y-106610000D01*
X150857500Y-106608000D01*
X150855500Y-106607000D01*
X150853500Y-106605000D01*
X150851500Y-106604000D01*
X150849500Y-106602000D01*
X150847500Y-106600000D01*
X150845500Y-106598000D01*
X150843500Y-106596000D01*
X150842500Y-106594000D01*
X150840500Y-106592000D01*
X150839500Y-106590000D01*
X150837500Y-106588000D01*
X150836500Y-106585000D01*
X150835500Y-106583000D01*
X150834500Y-106580000D01*
X150834500Y-106578000D01*
X150833500Y-106575000D01*
X150833500Y-106573000D01*
X150832500Y-106570000D01*
X150832500Y-106568000D01*
X150832500Y-106565000D01*
X150832500Y-105925000D01*
X150832500Y-105922000D01*
X150832500Y-105920000D01*
X150833500Y-105917000D01*
X150833500Y-105915000D01*
X150834500Y-105912000D01*
X150834500Y-105910000D01*
X150835500Y-105907000D01*
X150836500Y-105905000D01*
X150837500Y-105902000D01*
X150839500Y-105900000D01*
X150840500Y-105898000D01*
X150842500Y-105896000D01*
X150843500Y-105894000D01*
X150845500Y-105892000D01*
X150847500Y-105890000D01*
X150849500Y-105888000D01*
X150851500Y-105886000D01*
X150853500Y-105885000D01*
X150855500Y-105883000D01*
X150857500Y-105882000D01*
X150859500Y-105880000D01*
X150862500Y-105879000D01*
X150864500Y-105878000D01*
X150867500Y-105877000D01*
X150869500Y-105877000D01*
X150872500Y-105876000D01*
X150874500Y-105876000D01*
X150877500Y-105875000D01*
X150879500Y-105875000D01*
X150882500Y-105875000D01*
X152922500Y-105875000D01*
X152925500Y-105875000D01*
X152927500Y-105875000D01*
X152930500Y-105876000D01*
G37*
X152930500Y-107146000D02*
X152932500Y-107146000D01*
X152935500Y-107147000D01*
X152937500Y-107147000D01*
X152940500Y-107148000D01*
X152942500Y-107149000D01*
X152945500Y-107150000D01*
X152947500Y-107152000D01*
X152949500Y-107153000D01*
X152951500Y-107155000D01*
X152953500Y-107156000D01*
X152955500Y-107158000D01*
X152957500Y-107160000D01*
X152959500Y-107162000D01*
X152961500Y-107164000D01*
X152962500Y-107166000D01*
X152964500Y-107168000D01*
X152965500Y-107170000D01*
X152967500Y-107172000D01*
X152968500Y-107175000D01*
X152969500Y-107177000D01*
X152970500Y-107180000D01*
X152970500Y-107182000D01*
X152971500Y-107185000D01*
X152971500Y-107187000D01*
X152972500Y-107190000D01*
X152972500Y-107192000D01*
X152972500Y-107195000D01*
X152972500Y-107835000D01*
X152972500Y-107838000D01*
X152972500Y-107840000D01*
X152971500Y-107843000D01*
X152971500Y-107845000D01*
X152970500Y-107848000D01*
X152970500Y-107850000D01*
X152969500Y-107853000D01*
X152968500Y-107855000D01*
X152967500Y-107858000D01*
X152965500Y-107860000D01*
X152964500Y-107862000D01*
X152962500Y-107864000D01*
X152961500Y-107866000D01*
X152959500Y-107868000D01*
X152957500Y-107870000D01*
X152955500Y-107872000D01*
X152953500Y-107874000D01*
X152951500Y-107875000D01*
X152949500Y-107877000D01*
X152947500Y-107878000D01*
X152945500Y-107880000D01*
X152942500Y-107881000D01*
X152940500Y-107882000D01*
X152937500Y-107883000D01*
X152935500Y-107883000D01*
X152932500Y-107884000D01*
X152930500Y-107884000D01*
X152927500Y-107885000D01*
X152925500Y-107885000D01*
X152922500Y-107885000D01*
X150882500Y-107885000D01*
X150879500Y-107885000D01*
X150877500Y-107885000D01*
X150874500Y-107884000D01*
X150872500Y-107884000D01*
X150869500Y-107883000D01*
X150867500Y-107883000D01*
X150864500Y-107882000D01*
X150862500Y-107881000D01*
X150859500Y-107880000D01*
X150857500Y-107878000D01*
X150855500Y-107877000D01*
X150853500Y-107875000D01*
X150851500Y-107874000D01*
X150849500Y-107872000D01*
X150847500Y-107870000D01*
X150845500Y-107868000D01*
X150843500Y-107866000D01*
X150842500Y-107864000D01*
X150840500Y-107862000D01*
X150839500Y-107860000D01*
X150837500Y-107858000D01*
X150836500Y-107855000D01*
X150835500Y-107853000D01*
X150834500Y-107850000D01*
X150834500Y-107848000D01*
X150833500Y-107845000D01*
X150833500Y-107843000D01*
X150832500Y-107840000D01*
X150832500Y-107838000D01*
X150832500Y-107835000D01*
X150832500Y-107195000D01*
X150832500Y-107192000D01*
X150832500Y-107190000D01*
X150833500Y-107187000D01*
X150833500Y-107185000D01*
X150834500Y-107182000D01*
X150834500Y-107180000D01*
X150835500Y-107177000D01*
X150836500Y-107175000D01*
X150837500Y-107172000D01*
X150839500Y-107170000D01*
X150840500Y-107168000D01*
X150842500Y-107166000D01*
X150843500Y-107164000D01*
X150845500Y-107162000D01*
X150847500Y-107160000D01*
X150849500Y-107158000D01*
X150851500Y-107156000D01*
X150853500Y-107155000D01*
X150855500Y-107153000D01*
X150857500Y-107152000D01*
X150859500Y-107150000D01*
X150862500Y-107149000D01*
X150864500Y-107148000D01*
X150867500Y-107147000D01*
X150869500Y-107147000D01*
X150872500Y-107146000D01*
X150874500Y-107146000D01*
X150877500Y-107145000D01*
X150879500Y-107145000D01*
X150882500Y-107145000D01*
X152922500Y-107145000D01*
X152925500Y-107145000D01*
X152927500Y-107145000D01*
X152930500Y-107146000D01*
G36*
X152930500Y-107146000D02*
G01*
X152932500Y-107146000D01*
X152935500Y-107147000D01*
X152937500Y-107147000D01*
X152940500Y-107148000D01*
X152942500Y-107149000D01*
X152945500Y-107150000D01*
X152947500Y-107152000D01*
X152949500Y-107153000D01*
X152951500Y-107155000D01*
X152953500Y-107156000D01*
X152955500Y-107158000D01*
X152957500Y-107160000D01*
X152959500Y-107162000D01*
X152961500Y-107164000D01*
X152962500Y-107166000D01*
X152964500Y-107168000D01*
X152965500Y-107170000D01*
X152967500Y-107172000D01*
X152968500Y-107175000D01*
X152969500Y-107177000D01*
X152970500Y-107180000D01*
X152970500Y-107182000D01*
X152971500Y-107185000D01*
X152971500Y-107187000D01*
X152972500Y-107190000D01*
X152972500Y-107192000D01*
X152972500Y-107195000D01*
X152972500Y-107835000D01*
X152972500Y-107838000D01*
X152972500Y-107840000D01*
X152971500Y-107843000D01*
X152971500Y-107845000D01*
X152970500Y-107848000D01*
X152970500Y-107850000D01*
X152969500Y-107853000D01*
X152968500Y-107855000D01*
X152967500Y-107858000D01*
X152965500Y-107860000D01*
X152964500Y-107862000D01*
X152962500Y-107864000D01*
X152961500Y-107866000D01*
X152959500Y-107868000D01*
X152957500Y-107870000D01*
X152955500Y-107872000D01*
X152953500Y-107874000D01*
X152951500Y-107875000D01*
X152949500Y-107877000D01*
X152947500Y-107878000D01*
X152945500Y-107880000D01*
X152942500Y-107881000D01*
X152940500Y-107882000D01*
X152937500Y-107883000D01*
X152935500Y-107883000D01*
X152932500Y-107884000D01*
X152930500Y-107884000D01*
X152927500Y-107885000D01*
X152925500Y-107885000D01*
X152922500Y-107885000D01*
X150882500Y-107885000D01*
X150879500Y-107885000D01*
X150877500Y-107885000D01*
X150874500Y-107884000D01*
X150872500Y-107884000D01*
X150869500Y-107883000D01*
X150867500Y-107883000D01*
X150864500Y-107882000D01*
X150862500Y-107881000D01*
X150859500Y-107880000D01*
X150857500Y-107878000D01*
X150855500Y-107877000D01*
X150853500Y-107875000D01*
X150851500Y-107874000D01*
X150849500Y-107872000D01*
X150847500Y-107870000D01*
X150845500Y-107868000D01*
X150843500Y-107866000D01*
X150842500Y-107864000D01*
X150840500Y-107862000D01*
X150839500Y-107860000D01*
X150837500Y-107858000D01*
X150836500Y-107855000D01*
X150835500Y-107853000D01*
X150834500Y-107850000D01*
X150834500Y-107848000D01*
X150833500Y-107845000D01*
X150833500Y-107843000D01*
X150832500Y-107840000D01*
X150832500Y-107838000D01*
X150832500Y-107835000D01*
X150832500Y-107195000D01*
X150832500Y-107192000D01*
X150832500Y-107190000D01*
X150833500Y-107187000D01*
X150833500Y-107185000D01*
X150834500Y-107182000D01*
X150834500Y-107180000D01*
X150835500Y-107177000D01*
X150836500Y-107175000D01*
X150837500Y-107172000D01*
X150839500Y-107170000D01*
X150840500Y-107168000D01*
X150842500Y-107166000D01*
X150843500Y-107164000D01*
X150845500Y-107162000D01*
X150847500Y-107160000D01*
X150849500Y-107158000D01*
X150851500Y-107156000D01*
X150853500Y-107155000D01*
X150855500Y-107153000D01*
X150857500Y-107152000D01*
X150859500Y-107150000D01*
X150862500Y-107149000D01*
X150864500Y-107148000D01*
X150867500Y-107147000D01*
X150869500Y-107147000D01*
X150872500Y-107146000D01*
X150874500Y-107146000D01*
X150877500Y-107145000D01*
X150879500Y-107145000D01*
X150882500Y-107145000D01*
X152922500Y-107145000D01*
X152925500Y-107145000D01*
X152927500Y-107145000D01*
X152930500Y-107146000D01*
G37*
X152930500Y-108416000D02*
X152932500Y-108416000D01*
X152935500Y-108417000D01*
X152937500Y-108417000D01*
X152940500Y-108418000D01*
X152942500Y-108419000D01*
X152945500Y-108420000D01*
X152947500Y-108422000D01*
X152949500Y-108423000D01*
X152951500Y-108425000D01*
X152953500Y-108426000D01*
X152955500Y-108428000D01*
X152957500Y-108430000D01*
X152959500Y-108432000D01*
X152961500Y-108434000D01*
X152962500Y-108436000D01*
X152964500Y-108438000D01*
X152965500Y-108440000D01*
X152967500Y-108442000D01*
X152968500Y-108445000D01*
X152969500Y-108447000D01*
X152970500Y-108450000D01*
X152970500Y-108452000D01*
X152971500Y-108455000D01*
X152971500Y-108457000D01*
X152972500Y-108460000D01*
X152972500Y-108462000D01*
X152972500Y-108465000D01*
X152972500Y-109105000D01*
X152972500Y-109108000D01*
X152972500Y-109110000D01*
X152971500Y-109113000D01*
X152971500Y-109115000D01*
X152970500Y-109118000D01*
X152970500Y-109120000D01*
X152969500Y-109123000D01*
X152968500Y-109125000D01*
X152967500Y-109128000D01*
X152965500Y-109130000D01*
X152964500Y-109132000D01*
X152962500Y-109134000D01*
X152961500Y-109136000D01*
X152959500Y-109138000D01*
X152957500Y-109140000D01*
X152955500Y-109142000D01*
X152953500Y-109144000D01*
X152951500Y-109145000D01*
X152949500Y-109147000D01*
X152947500Y-109148000D01*
X152945500Y-109150000D01*
X152942500Y-109151000D01*
X152940500Y-109152000D01*
X152937500Y-109153000D01*
X152935500Y-109153000D01*
X152932500Y-109154000D01*
X152930500Y-109154000D01*
X152927500Y-109155000D01*
X152925500Y-109155000D01*
X152922500Y-109155000D01*
X150882500Y-109155000D01*
X150879500Y-109155000D01*
X150877500Y-109155000D01*
X150874500Y-109154000D01*
X150872500Y-109154000D01*
X150869500Y-109153000D01*
X150867500Y-109153000D01*
X150864500Y-109152000D01*
X150862500Y-109151000D01*
X150859500Y-109150000D01*
X150857500Y-109148000D01*
X150855500Y-109147000D01*
X150853500Y-109145000D01*
X150851500Y-109144000D01*
X150849500Y-109142000D01*
X150847500Y-109140000D01*
X150845500Y-109138000D01*
X150843500Y-109136000D01*
X150842500Y-109134000D01*
X150840500Y-109132000D01*
X150839500Y-109130000D01*
X150837500Y-109128000D01*
X150836500Y-109125000D01*
X150835500Y-109123000D01*
X150834500Y-109120000D01*
X150834500Y-109118000D01*
X150833500Y-109115000D01*
X150833500Y-109113000D01*
X150832500Y-109110000D01*
X150832500Y-109108000D01*
X150832500Y-109105000D01*
X150832500Y-108465000D01*
X150832500Y-108462000D01*
X150832500Y-108460000D01*
X150833500Y-108457000D01*
X150833500Y-108455000D01*
X150834500Y-108452000D01*
X150834500Y-108450000D01*
X150835500Y-108447000D01*
X150836500Y-108445000D01*
X150837500Y-108442000D01*
X150839500Y-108440000D01*
X150840500Y-108438000D01*
X150842500Y-108436000D01*
X150843500Y-108434000D01*
X150845500Y-108432000D01*
X150847500Y-108430000D01*
X150849500Y-108428000D01*
X150851500Y-108426000D01*
X150853500Y-108425000D01*
X150855500Y-108423000D01*
X150857500Y-108422000D01*
X150859500Y-108420000D01*
X150862500Y-108419000D01*
X150864500Y-108418000D01*
X150867500Y-108417000D01*
X150869500Y-108417000D01*
X150872500Y-108416000D01*
X150874500Y-108416000D01*
X150877500Y-108415000D01*
X150879500Y-108415000D01*
X150882500Y-108415000D01*
X152922500Y-108415000D01*
X152925500Y-108415000D01*
X152927500Y-108415000D01*
X152930500Y-108416000D01*
G36*
X152930500Y-108416000D02*
G01*
X152932500Y-108416000D01*
X152935500Y-108417000D01*
X152937500Y-108417000D01*
X152940500Y-108418000D01*
X152942500Y-108419000D01*
X152945500Y-108420000D01*
X152947500Y-108422000D01*
X152949500Y-108423000D01*
X152951500Y-108425000D01*
X152953500Y-108426000D01*
X152955500Y-108428000D01*
X152957500Y-108430000D01*
X152959500Y-108432000D01*
X152961500Y-108434000D01*
X152962500Y-108436000D01*
X152964500Y-108438000D01*
X152965500Y-108440000D01*
X152967500Y-108442000D01*
X152968500Y-108445000D01*
X152969500Y-108447000D01*
X152970500Y-108450000D01*
X152970500Y-108452000D01*
X152971500Y-108455000D01*
X152971500Y-108457000D01*
X152972500Y-108460000D01*
X152972500Y-108462000D01*
X152972500Y-108465000D01*
X152972500Y-109105000D01*
X152972500Y-109108000D01*
X152972500Y-109110000D01*
X152971500Y-109113000D01*
X152971500Y-109115000D01*
X152970500Y-109118000D01*
X152970500Y-109120000D01*
X152969500Y-109123000D01*
X152968500Y-109125000D01*
X152967500Y-109128000D01*
X152965500Y-109130000D01*
X152964500Y-109132000D01*
X152962500Y-109134000D01*
X152961500Y-109136000D01*
X152959500Y-109138000D01*
X152957500Y-109140000D01*
X152955500Y-109142000D01*
X152953500Y-109144000D01*
X152951500Y-109145000D01*
X152949500Y-109147000D01*
X152947500Y-109148000D01*
X152945500Y-109150000D01*
X152942500Y-109151000D01*
X152940500Y-109152000D01*
X152937500Y-109153000D01*
X152935500Y-109153000D01*
X152932500Y-109154000D01*
X152930500Y-109154000D01*
X152927500Y-109155000D01*
X152925500Y-109155000D01*
X152922500Y-109155000D01*
X150882500Y-109155000D01*
X150879500Y-109155000D01*
X150877500Y-109155000D01*
X150874500Y-109154000D01*
X150872500Y-109154000D01*
X150869500Y-109153000D01*
X150867500Y-109153000D01*
X150864500Y-109152000D01*
X150862500Y-109151000D01*
X150859500Y-109150000D01*
X150857500Y-109148000D01*
X150855500Y-109147000D01*
X150853500Y-109145000D01*
X150851500Y-109144000D01*
X150849500Y-109142000D01*
X150847500Y-109140000D01*
X150845500Y-109138000D01*
X150843500Y-109136000D01*
X150842500Y-109134000D01*
X150840500Y-109132000D01*
X150839500Y-109130000D01*
X150837500Y-109128000D01*
X150836500Y-109125000D01*
X150835500Y-109123000D01*
X150834500Y-109120000D01*
X150834500Y-109118000D01*
X150833500Y-109115000D01*
X150833500Y-109113000D01*
X150832500Y-109110000D01*
X150832500Y-109108000D01*
X150832500Y-109105000D01*
X150832500Y-108465000D01*
X150832500Y-108462000D01*
X150832500Y-108460000D01*
X150833500Y-108457000D01*
X150833500Y-108455000D01*
X150834500Y-108452000D01*
X150834500Y-108450000D01*
X150835500Y-108447000D01*
X150836500Y-108445000D01*
X150837500Y-108442000D01*
X150839500Y-108440000D01*
X150840500Y-108438000D01*
X150842500Y-108436000D01*
X150843500Y-108434000D01*
X150845500Y-108432000D01*
X150847500Y-108430000D01*
X150849500Y-108428000D01*
X150851500Y-108426000D01*
X150853500Y-108425000D01*
X150855500Y-108423000D01*
X150857500Y-108422000D01*
X150859500Y-108420000D01*
X150862500Y-108419000D01*
X150864500Y-108418000D01*
X150867500Y-108417000D01*
X150869500Y-108417000D01*
X150872500Y-108416000D01*
X150874500Y-108416000D01*
X150877500Y-108415000D01*
X150879500Y-108415000D01*
X150882500Y-108415000D01*
X152922500Y-108415000D01*
X152925500Y-108415000D01*
X152927500Y-108415000D01*
X152930500Y-108416000D01*
G37*
X152930500Y-109686000D02*
X152932500Y-109686000D01*
X152935500Y-109687000D01*
X152937500Y-109687000D01*
X152940500Y-109688000D01*
X152942500Y-109689000D01*
X152945500Y-109690000D01*
X152947500Y-109692000D01*
X152949500Y-109693000D01*
X152951500Y-109695000D01*
X152953500Y-109696000D01*
X152955500Y-109698000D01*
X152957500Y-109700000D01*
X152959500Y-109702000D01*
X152961500Y-109704000D01*
X152962500Y-109706000D01*
X152964500Y-109708000D01*
X152965500Y-109710000D01*
X152967500Y-109712000D01*
X152968500Y-109715000D01*
X152969500Y-109717000D01*
X152970500Y-109720000D01*
X152970500Y-109722000D01*
X152971500Y-109725000D01*
X152971500Y-109727000D01*
X152972500Y-109730000D01*
X152972500Y-109732000D01*
X152972500Y-109735000D01*
X152972500Y-110375000D01*
X152972500Y-110378000D01*
X152972500Y-110380000D01*
X152971500Y-110383000D01*
X152971500Y-110385000D01*
X152970500Y-110388000D01*
X152970500Y-110390000D01*
X152969500Y-110393000D01*
X152968500Y-110395000D01*
X152967500Y-110398000D01*
X152965500Y-110400000D01*
X152964500Y-110402000D01*
X152962500Y-110404000D01*
X152961500Y-110406000D01*
X152959500Y-110408000D01*
X152957500Y-110410000D01*
X152955500Y-110412000D01*
X152953500Y-110414000D01*
X152951500Y-110415000D01*
X152949500Y-110417000D01*
X152947500Y-110418000D01*
X152945500Y-110420000D01*
X152942500Y-110421000D01*
X152940500Y-110422000D01*
X152937500Y-110423000D01*
X152935500Y-110423000D01*
X152932500Y-110424000D01*
X152930500Y-110424000D01*
X152927500Y-110425000D01*
X152925500Y-110425000D01*
X152922500Y-110425000D01*
X150882500Y-110425000D01*
X150879500Y-110425000D01*
X150877500Y-110425000D01*
X150874500Y-110424000D01*
X150872500Y-110424000D01*
X150869500Y-110423000D01*
X150867500Y-110423000D01*
X150864500Y-110422000D01*
X150862500Y-110421000D01*
X150859500Y-110420000D01*
X150857500Y-110418000D01*
X150855500Y-110417000D01*
X150853500Y-110415000D01*
X150851500Y-110414000D01*
X150849500Y-110412000D01*
X150847500Y-110410000D01*
X150845500Y-110408000D01*
X150843500Y-110406000D01*
X150842500Y-110404000D01*
X150840500Y-110402000D01*
X150839500Y-110400000D01*
X150837500Y-110398000D01*
X150836500Y-110395000D01*
X150835500Y-110393000D01*
X150834500Y-110390000D01*
X150834500Y-110388000D01*
X150833500Y-110385000D01*
X150833500Y-110383000D01*
X150832500Y-110380000D01*
X150832500Y-110378000D01*
X150832500Y-110375000D01*
X150832500Y-109735000D01*
X150832500Y-109732000D01*
X150832500Y-109730000D01*
X150833500Y-109727000D01*
X150833500Y-109725000D01*
X150834500Y-109722000D01*
X150834500Y-109720000D01*
X150835500Y-109717000D01*
X150836500Y-109715000D01*
X150837500Y-109712000D01*
X150839500Y-109710000D01*
X150840500Y-109708000D01*
X150842500Y-109706000D01*
X150843500Y-109704000D01*
X150845500Y-109702000D01*
X150847500Y-109700000D01*
X150849500Y-109698000D01*
X150851500Y-109696000D01*
X150853500Y-109695000D01*
X150855500Y-109693000D01*
X150857500Y-109692000D01*
X150859500Y-109690000D01*
X150862500Y-109689000D01*
X150864500Y-109688000D01*
X150867500Y-109687000D01*
X150869500Y-109687000D01*
X150872500Y-109686000D01*
X150874500Y-109686000D01*
X150877500Y-109685000D01*
X150879500Y-109685000D01*
X150882500Y-109685000D01*
X152922500Y-109685000D01*
X152925500Y-109685000D01*
X152927500Y-109685000D01*
X152930500Y-109686000D01*
G36*
X152930500Y-109686000D02*
G01*
X152932500Y-109686000D01*
X152935500Y-109687000D01*
X152937500Y-109687000D01*
X152940500Y-109688000D01*
X152942500Y-109689000D01*
X152945500Y-109690000D01*
X152947500Y-109692000D01*
X152949500Y-109693000D01*
X152951500Y-109695000D01*
X152953500Y-109696000D01*
X152955500Y-109698000D01*
X152957500Y-109700000D01*
X152959500Y-109702000D01*
X152961500Y-109704000D01*
X152962500Y-109706000D01*
X152964500Y-109708000D01*
X152965500Y-109710000D01*
X152967500Y-109712000D01*
X152968500Y-109715000D01*
X152969500Y-109717000D01*
X152970500Y-109720000D01*
X152970500Y-109722000D01*
X152971500Y-109725000D01*
X152971500Y-109727000D01*
X152972500Y-109730000D01*
X152972500Y-109732000D01*
X152972500Y-109735000D01*
X152972500Y-110375000D01*
X152972500Y-110378000D01*
X152972500Y-110380000D01*
X152971500Y-110383000D01*
X152971500Y-110385000D01*
X152970500Y-110388000D01*
X152970500Y-110390000D01*
X152969500Y-110393000D01*
X152968500Y-110395000D01*
X152967500Y-110398000D01*
X152965500Y-110400000D01*
X152964500Y-110402000D01*
X152962500Y-110404000D01*
X152961500Y-110406000D01*
X152959500Y-110408000D01*
X152957500Y-110410000D01*
X152955500Y-110412000D01*
X152953500Y-110414000D01*
X152951500Y-110415000D01*
X152949500Y-110417000D01*
X152947500Y-110418000D01*
X152945500Y-110420000D01*
X152942500Y-110421000D01*
X152940500Y-110422000D01*
X152937500Y-110423000D01*
X152935500Y-110423000D01*
X152932500Y-110424000D01*
X152930500Y-110424000D01*
X152927500Y-110425000D01*
X152925500Y-110425000D01*
X152922500Y-110425000D01*
X150882500Y-110425000D01*
X150879500Y-110425000D01*
X150877500Y-110425000D01*
X150874500Y-110424000D01*
X150872500Y-110424000D01*
X150869500Y-110423000D01*
X150867500Y-110423000D01*
X150864500Y-110422000D01*
X150862500Y-110421000D01*
X150859500Y-110420000D01*
X150857500Y-110418000D01*
X150855500Y-110417000D01*
X150853500Y-110415000D01*
X150851500Y-110414000D01*
X150849500Y-110412000D01*
X150847500Y-110410000D01*
X150845500Y-110408000D01*
X150843500Y-110406000D01*
X150842500Y-110404000D01*
X150840500Y-110402000D01*
X150839500Y-110400000D01*
X150837500Y-110398000D01*
X150836500Y-110395000D01*
X150835500Y-110393000D01*
X150834500Y-110390000D01*
X150834500Y-110388000D01*
X150833500Y-110385000D01*
X150833500Y-110383000D01*
X150832500Y-110380000D01*
X150832500Y-110378000D01*
X150832500Y-110375000D01*
X150832500Y-109735000D01*
X150832500Y-109732000D01*
X150832500Y-109730000D01*
X150833500Y-109727000D01*
X150833500Y-109725000D01*
X150834500Y-109722000D01*
X150834500Y-109720000D01*
X150835500Y-109717000D01*
X150836500Y-109715000D01*
X150837500Y-109712000D01*
X150839500Y-109710000D01*
X150840500Y-109708000D01*
X150842500Y-109706000D01*
X150843500Y-109704000D01*
X150845500Y-109702000D01*
X150847500Y-109700000D01*
X150849500Y-109698000D01*
X150851500Y-109696000D01*
X150853500Y-109695000D01*
X150855500Y-109693000D01*
X150857500Y-109692000D01*
X150859500Y-109690000D01*
X150862500Y-109689000D01*
X150864500Y-109688000D01*
X150867500Y-109687000D01*
X150869500Y-109687000D01*
X150872500Y-109686000D01*
X150874500Y-109686000D01*
X150877500Y-109685000D01*
X150879500Y-109685000D01*
X150882500Y-109685000D01*
X152922500Y-109685000D01*
X152925500Y-109685000D01*
X152927500Y-109685000D01*
X152930500Y-109686000D01*
G37*
X152930500Y-110956000D02*
X152932500Y-110956000D01*
X152935500Y-110957000D01*
X152937500Y-110957000D01*
X152940500Y-110958000D01*
X152942500Y-110959000D01*
X152945500Y-110960000D01*
X152947500Y-110962000D01*
X152949500Y-110963000D01*
X152951500Y-110965000D01*
X152953500Y-110966000D01*
X152955500Y-110968000D01*
X152957500Y-110970000D01*
X152959500Y-110972000D01*
X152961500Y-110974000D01*
X152962500Y-110976000D01*
X152964500Y-110978000D01*
X152965500Y-110980000D01*
X152967500Y-110982000D01*
X152968500Y-110985000D01*
X152969500Y-110987000D01*
X152970500Y-110990000D01*
X152970500Y-110992000D01*
X152971500Y-110995000D01*
X152971500Y-110997000D01*
X152972500Y-111000000D01*
X152972500Y-111002000D01*
X152972500Y-111005000D01*
X152972500Y-111645000D01*
X152972500Y-111648000D01*
X152972500Y-111650000D01*
X152971500Y-111653000D01*
X152971500Y-111655000D01*
X152970500Y-111658000D01*
X152970500Y-111660000D01*
X152969500Y-111663000D01*
X152968500Y-111665000D01*
X152967500Y-111668000D01*
X152965500Y-111670000D01*
X152964500Y-111672000D01*
X152962500Y-111674000D01*
X152961500Y-111676000D01*
X152959500Y-111678000D01*
X152957500Y-111680000D01*
X152955500Y-111682000D01*
X152953500Y-111684000D01*
X152951500Y-111685000D01*
X152949500Y-111687000D01*
X152947500Y-111688000D01*
X152945500Y-111690000D01*
X152942500Y-111691000D01*
X152940500Y-111692000D01*
X152937500Y-111693000D01*
X152935500Y-111693000D01*
X152932500Y-111694000D01*
X152930500Y-111694000D01*
X152927500Y-111695000D01*
X152925500Y-111695000D01*
X152922500Y-111695000D01*
X150882500Y-111695000D01*
X150879500Y-111695000D01*
X150877500Y-111695000D01*
X150874500Y-111694000D01*
X150872500Y-111694000D01*
X150869500Y-111693000D01*
X150867500Y-111693000D01*
X150864500Y-111692000D01*
X150862500Y-111691000D01*
X150859500Y-111690000D01*
X150857500Y-111688000D01*
X150855500Y-111687000D01*
X150853500Y-111685000D01*
X150851500Y-111684000D01*
X150849500Y-111682000D01*
X150847500Y-111680000D01*
X150845500Y-111678000D01*
X150843500Y-111676000D01*
X150842500Y-111674000D01*
X150840500Y-111672000D01*
X150839500Y-111670000D01*
X150837500Y-111668000D01*
X150836500Y-111665000D01*
X150835500Y-111663000D01*
X150834500Y-111660000D01*
X150834500Y-111658000D01*
X150833500Y-111655000D01*
X150833500Y-111653000D01*
X150832500Y-111650000D01*
X150832500Y-111648000D01*
X150832500Y-111645000D01*
X150832500Y-111005000D01*
X150832500Y-111002000D01*
X150832500Y-111000000D01*
X150833500Y-110997000D01*
X150833500Y-110995000D01*
X150834500Y-110992000D01*
X150834500Y-110990000D01*
X150835500Y-110987000D01*
X150836500Y-110985000D01*
X150837500Y-110982000D01*
X150839500Y-110980000D01*
X150840500Y-110978000D01*
X150842500Y-110976000D01*
X150843500Y-110974000D01*
X150845500Y-110972000D01*
X150847500Y-110970000D01*
X150849500Y-110968000D01*
X150851500Y-110966000D01*
X150853500Y-110965000D01*
X150855500Y-110963000D01*
X150857500Y-110962000D01*
X150859500Y-110960000D01*
X150862500Y-110959000D01*
X150864500Y-110958000D01*
X150867500Y-110957000D01*
X150869500Y-110957000D01*
X150872500Y-110956000D01*
X150874500Y-110956000D01*
X150877500Y-110955000D01*
X150879500Y-110955000D01*
X150882500Y-110955000D01*
X152922500Y-110955000D01*
X152925500Y-110955000D01*
X152927500Y-110955000D01*
X152930500Y-110956000D01*
G36*
X152930500Y-110956000D02*
G01*
X152932500Y-110956000D01*
X152935500Y-110957000D01*
X152937500Y-110957000D01*
X152940500Y-110958000D01*
X152942500Y-110959000D01*
X152945500Y-110960000D01*
X152947500Y-110962000D01*
X152949500Y-110963000D01*
X152951500Y-110965000D01*
X152953500Y-110966000D01*
X152955500Y-110968000D01*
X152957500Y-110970000D01*
X152959500Y-110972000D01*
X152961500Y-110974000D01*
X152962500Y-110976000D01*
X152964500Y-110978000D01*
X152965500Y-110980000D01*
X152967500Y-110982000D01*
X152968500Y-110985000D01*
X152969500Y-110987000D01*
X152970500Y-110990000D01*
X152970500Y-110992000D01*
X152971500Y-110995000D01*
X152971500Y-110997000D01*
X152972500Y-111000000D01*
X152972500Y-111002000D01*
X152972500Y-111005000D01*
X152972500Y-111645000D01*
X152972500Y-111648000D01*
X152972500Y-111650000D01*
X152971500Y-111653000D01*
X152971500Y-111655000D01*
X152970500Y-111658000D01*
X152970500Y-111660000D01*
X152969500Y-111663000D01*
X152968500Y-111665000D01*
X152967500Y-111668000D01*
X152965500Y-111670000D01*
X152964500Y-111672000D01*
X152962500Y-111674000D01*
X152961500Y-111676000D01*
X152959500Y-111678000D01*
X152957500Y-111680000D01*
X152955500Y-111682000D01*
X152953500Y-111684000D01*
X152951500Y-111685000D01*
X152949500Y-111687000D01*
X152947500Y-111688000D01*
X152945500Y-111690000D01*
X152942500Y-111691000D01*
X152940500Y-111692000D01*
X152937500Y-111693000D01*
X152935500Y-111693000D01*
X152932500Y-111694000D01*
X152930500Y-111694000D01*
X152927500Y-111695000D01*
X152925500Y-111695000D01*
X152922500Y-111695000D01*
X150882500Y-111695000D01*
X150879500Y-111695000D01*
X150877500Y-111695000D01*
X150874500Y-111694000D01*
X150872500Y-111694000D01*
X150869500Y-111693000D01*
X150867500Y-111693000D01*
X150864500Y-111692000D01*
X150862500Y-111691000D01*
X150859500Y-111690000D01*
X150857500Y-111688000D01*
X150855500Y-111687000D01*
X150853500Y-111685000D01*
X150851500Y-111684000D01*
X150849500Y-111682000D01*
X150847500Y-111680000D01*
X150845500Y-111678000D01*
X150843500Y-111676000D01*
X150842500Y-111674000D01*
X150840500Y-111672000D01*
X150839500Y-111670000D01*
X150837500Y-111668000D01*
X150836500Y-111665000D01*
X150835500Y-111663000D01*
X150834500Y-111660000D01*
X150834500Y-111658000D01*
X150833500Y-111655000D01*
X150833500Y-111653000D01*
X150832500Y-111650000D01*
X150832500Y-111648000D01*
X150832500Y-111645000D01*
X150832500Y-111005000D01*
X150832500Y-111002000D01*
X150832500Y-111000000D01*
X150833500Y-110997000D01*
X150833500Y-110995000D01*
X150834500Y-110992000D01*
X150834500Y-110990000D01*
X150835500Y-110987000D01*
X150836500Y-110985000D01*
X150837500Y-110982000D01*
X150839500Y-110980000D01*
X150840500Y-110978000D01*
X150842500Y-110976000D01*
X150843500Y-110974000D01*
X150845500Y-110972000D01*
X150847500Y-110970000D01*
X150849500Y-110968000D01*
X150851500Y-110966000D01*
X150853500Y-110965000D01*
X150855500Y-110963000D01*
X150857500Y-110962000D01*
X150859500Y-110960000D01*
X150862500Y-110959000D01*
X150864500Y-110958000D01*
X150867500Y-110957000D01*
X150869500Y-110957000D01*
X150872500Y-110956000D01*
X150874500Y-110956000D01*
X150877500Y-110955000D01*
X150879500Y-110955000D01*
X150882500Y-110955000D01*
X152922500Y-110955000D01*
X152925500Y-110955000D01*
X152927500Y-110955000D01*
X152930500Y-110956000D01*
G37*
X152930500Y-112226000D02*
X152932500Y-112226000D01*
X152935500Y-112227000D01*
X152937500Y-112227000D01*
X152940500Y-112228000D01*
X152942500Y-112229000D01*
X152945500Y-112230000D01*
X152947500Y-112232000D01*
X152949500Y-112233000D01*
X152951500Y-112235000D01*
X152953500Y-112236000D01*
X152955500Y-112238000D01*
X152957500Y-112240000D01*
X152959500Y-112242000D01*
X152961500Y-112244000D01*
X152962500Y-112246000D01*
X152964500Y-112248000D01*
X152965500Y-112250000D01*
X152967500Y-112252000D01*
X152968500Y-112255000D01*
X152969500Y-112257000D01*
X152970500Y-112260000D01*
X152970500Y-112262000D01*
X152971500Y-112265000D01*
X152971500Y-112267000D01*
X152972500Y-112270000D01*
X152972500Y-112272000D01*
X152972500Y-112275000D01*
X152972500Y-112915000D01*
X152972500Y-112918000D01*
X152972500Y-112920000D01*
X152971500Y-112923000D01*
X152971500Y-112925000D01*
X152970500Y-112928000D01*
X152970500Y-112930000D01*
X152969500Y-112933000D01*
X152968500Y-112935000D01*
X152967500Y-112938000D01*
X152965500Y-112940000D01*
X152964500Y-112942000D01*
X152962500Y-112944000D01*
X152961500Y-112946000D01*
X152959500Y-112948000D01*
X152957500Y-112950000D01*
X152955500Y-112952000D01*
X152953500Y-112954000D01*
X152951500Y-112955000D01*
X152949500Y-112957000D01*
X152947500Y-112958000D01*
X152945500Y-112960000D01*
X152942500Y-112961000D01*
X152940500Y-112962000D01*
X152937500Y-112963000D01*
X152935500Y-112963000D01*
X152932500Y-112964000D01*
X152930500Y-112964000D01*
X152927500Y-112965000D01*
X152925500Y-112965000D01*
X152922500Y-112965000D01*
X150882500Y-112965000D01*
X150879500Y-112965000D01*
X150877500Y-112965000D01*
X150874500Y-112964000D01*
X150872500Y-112964000D01*
X150869500Y-112963000D01*
X150867500Y-112963000D01*
X150864500Y-112962000D01*
X150862500Y-112961000D01*
X150859500Y-112960000D01*
X150857500Y-112958000D01*
X150855500Y-112957000D01*
X150853500Y-112955000D01*
X150851500Y-112954000D01*
X150849500Y-112952000D01*
X150847500Y-112950000D01*
X150845500Y-112948000D01*
X150843500Y-112946000D01*
X150842500Y-112944000D01*
X150840500Y-112942000D01*
X150839500Y-112940000D01*
X150837500Y-112938000D01*
X150836500Y-112935000D01*
X150835500Y-112933000D01*
X150834500Y-112930000D01*
X150834500Y-112928000D01*
X150833500Y-112925000D01*
X150833500Y-112923000D01*
X150832500Y-112920000D01*
X150832500Y-112918000D01*
X150832500Y-112915000D01*
X150832500Y-112275000D01*
X150832500Y-112272000D01*
X150832500Y-112270000D01*
X150833500Y-112267000D01*
X150833500Y-112265000D01*
X150834500Y-112262000D01*
X150834500Y-112260000D01*
X150835500Y-112257000D01*
X150836500Y-112255000D01*
X150837500Y-112252000D01*
X150839500Y-112250000D01*
X150840500Y-112248000D01*
X150842500Y-112246000D01*
X150843500Y-112244000D01*
X150845500Y-112242000D01*
X150847500Y-112240000D01*
X150849500Y-112238000D01*
X150851500Y-112236000D01*
X150853500Y-112235000D01*
X150855500Y-112233000D01*
X150857500Y-112232000D01*
X150859500Y-112230000D01*
X150862500Y-112229000D01*
X150864500Y-112228000D01*
X150867500Y-112227000D01*
X150869500Y-112227000D01*
X150872500Y-112226000D01*
X150874500Y-112226000D01*
X150877500Y-112225000D01*
X150879500Y-112225000D01*
X150882500Y-112225000D01*
X152922500Y-112225000D01*
X152925500Y-112225000D01*
X152927500Y-112225000D01*
X152930500Y-112226000D01*
G36*
X152930500Y-112226000D02*
G01*
X152932500Y-112226000D01*
X152935500Y-112227000D01*
X152937500Y-112227000D01*
X152940500Y-112228000D01*
X152942500Y-112229000D01*
X152945500Y-112230000D01*
X152947500Y-112232000D01*
X152949500Y-112233000D01*
X152951500Y-112235000D01*
X152953500Y-112236000D01*
X152955500Y-112238000D01*
X152957500Y-112240000D01*
X152959500Y-112242000D01*
X152961500Y-112244000D01*
X152962500Y-112246000D01*
X152964500Y-112248000D01*
X152965500Y-112250000D01*
X152967500Y-112252000D01*
X152968500Y-112255000D01*
X152969500Y-112257000D01*
X152970500Y-112260000D01*
X152970500Y-112262000D01*
X152971500Y-112265000D01*
X152971500Y-112267000D01*
X152972500Y-112270000D01*
X152972500Y-112272000D01*
X152972500Y-112275000D01*
X152972500Y-112915000D01*
X152972500Y-112918000D01*
X152972500Y-112920000D01*
X152971500Y-112923000D01*
X152971500Y-112925000D01*
X152970500Y-112928000D01*
X152970500Y-112930000D01*
X152969500Y-112933000D01*
X152968500Y-112935000D01*
X152967500Y-112938000D01*
X152965500Y-112940000D01*
X152964500Y-112942000D01*
X152962500Y-112944000D01*
X152961500Y-112946000D01*
X152959500Y-112948000D01*
X152957500Y-112950000D01*
X152955500Y-112952000D01*
X152953500Y-112954000D01*
X152951500Y-112955000D01*
X152949500Y-112957000D01*
X152947500Y-112958000D01*
X152945500Y-112960000D01*
X152942500Y-112961000D01*
X152940500Y-112962000D01*
X152937500Y-112963000D01*
X152935500Y-112963000D01*
X152932500Y-112964000D01*
X152930500Y-112964000D01*
X152927500Y-112965000D01*
X152925500Y-112965000D01*
X152922500Y-112965000D01*
X150882500Y-112965000D01*
X150879500Y-112965000D01*
X150877500Y-112965000D01*
X150874500Y-112964000D01*
X150872500Y-112964000D01*
X150869500Y-112963000D01*
X150867500Y-112963000D01*
X150864500Y-112962000D01*
X150862500Y-112961000D01*
X150859500Y-112960000D01*
X150857500Y-112958000D01*
X150855500Y-112957000D01*
X150853500Y-112955000D01*
X150851500Y-112954000D01*
X150849500Y-112952000D01*
X150847500Y-112950000D01*
X150845500Y-112948000D01*
X150843500Y-112946000D01*
X150842500Y-112944000D01*
X150840500Y-112942000D01*
X150839500Y-112940000D01*
X150837500Y-112938000D01*
X150836500Y-112935000D01*
X150835500Y-112933000D01*
X150834500Y-112930000D01*
X150834500Y-112928000D01*
X150833500Y-112925000D01*
X150833500Y-112923000D01*
X150832500Y-112920000D01*
X150832500Y-112918000D01*
X150832500Y-112915000D01*
X150832500Y-112275000D01*
X150832500Y-112272000D01*
X150832500Y-112270000D01*
X150833500Y-112267000D01*
X150833500Y-112265000D01*
X150834500Y-112262000D01*
X150834500Y-112260000D01*
X150835500Y-112257000D01*
X150836500Y-112255000D01*
X150837500Y-112252000D01*
X150839500Y-112250000D01*
X150840500Y-112248000D01*
X150842500Y-112246000D01*
X150843500Y-112244000D01*
X150845500Y-112242000D01*
X150847500Y-112240000D01*
X150849500Y-112238000D01*
X150851500Y-112236000D01*
X150853500Y-112235000D01*
X150855500Y-112233000D01*
X150857500Y-112232000D01*
X150859500Y-112230000D01*
X150862500Y-112229000D01*
X150864500Y-112228000D01*
X150867500Y-112227000D01*
X150869500Y-112227000D01*
X150872500Y-112226000D01*
X150874500Y-112226000D01*
X150877500Y-112225000D01*
X150879500Y-112225000D01*
X150882500Y-112225000D01*
X152922500Y-112225000D01*
X152925500Y-112225000D01*
X152927500Y-112225000D01*
X152930500Y-112226000D01*
G37*
%TD*%
D11*
%TO.C,L1*%
X166150000Y-121142000D03*
X166150000Y-103362000D03*
%TD*%
D12*
%TO.C,J3*%
X175340000Y-89030000D03*
D13*
X175340000Y-91570000D03*
%TD*%
D14*
%TO.C,F1*%
X106850000Y-118700000D03*
X114470000Y-118700000D03*
D15*
X133440000Y-118700000D03*
X141060000Y-118700000D03*
%TD*%
D16*
%TO.C,C1*%
X126200000Y-107610000D03*
D17*
X131200000Y-107610000D03*
%TD*%
D18*
%TO.C,D1*%
X148630000Y-93250000D03*
D19*
X163870000Y-93250000D03*
%TD*%
D12*
%TO.C,J1*%
X108620000Y-91570000D03*
D13*
X108620000Y-89030000D03*
%TD*%
D16*
%TO.C,C3*%
X132967246Y-94330000D03*
D17*
X140467246Y-94330000D03*
%TD*%
D20*
%TO.C,D2*%
X120287500Y-89030000D03*
X118412500Y-89030000D03*
%TD*%
D21*
%TO.C,R1*%
X152432500Y-118700000D03*
X146507500Y-118700000D03*
%TD*%
D22*
%TO.C,C2*%
X138890000Y-110252600D03*
D23*
X138890000Y-108252600D03*
%TD*%
D24*
%TO.C,R3*%
X118410000Y-92350000D03*
X120235000Y-92350000D03*
%TD*%
M02*
