%TF.GenerationSoftware,KiCad,Pcbnew,7.0.7*%
%TF.CreationDate,2023-09-13T14:32:16-04:00*%
%TF.ProjectId,Alim5,416c696d-352e-46b6-9963-61645f706362,rev?*%
%TF.SameCoordinates,Original*%
%TF.FileFunction,Copper,L2,Inr*%
%TF.FilePolarity,Positive*%
%FSLAX46Y46*%
G04 Gerber Fmt 4.6, Leading zero omitted, Abs format (unit mm)*
G04 Created by KiCad (PCBNEW 7.0.7) date 2023-09-13 14:32:16*
%MOMM*%
%LPD*%
G01*
G04 APERTURE LIST*
G04 Aperture macros list*
%AMRoundRect*
0 Rectangle with rounded corners*
0 $1 Rounding radius*
0 $2 $3 $4 $5 $6 $7 $8 $9 X,Y pos of 4 corners*
0 Add a 4 corners polygon primitive as box body*
4,1,4,$2,$3,$4,$5,$6,$7,$8,$9,$2,$3,0*
0 Add four circle primitives for the rounded corners*
1,1,$1+$1,$2,$3*
1,1,$1+$1,$4,$5*
1,1,$1+$1,$6,$7*
1,1,$1+$1,$8,$9*
0 Add four rect primitives between the rounded corners*
20,1,$1+$1,$2,$3,$4,$5,0*
20,1,$1+$1,$4,$5,$6,$7,0*
20,1,$1+$1,$6,$7,$8,$9,0*
20,1,$1+$1,$8,$9,$2,$3,0*%
G04 Aperture macros list end*
%TA.AperFunction,ComponentPad*%
%ADD10C,1.524000*%
%TD*%
%TA.AperFunction,ComponentPad*%
%ADD11R,2.100000X2.100000*%
%TD*%
%TA.AperFunction,ComponentPad*%
%ADD12C,2.100000*%
%TD*%
%TA.AperFunction,ComponentPad*%
%ADD13RoundRect,0.750000X-0.750000X-0.750000X0.750000X-0.750000X0.750000X0.750000X-0.750000X0.750000X0*%
%TD*%
%TA.AperFunction,ComponentPad*%
%ADD14C,3.000000*%
%TD*%
%TA.AperFunction,ComponentPad*%
%ADD15R,2.400000X2.400000*%
%TD*%
%TA.AperFunction,ComponentPad*%
%ADD16C,2.400000*%
%TD*%
%TA.AperFunction,ComponentPad*%
%ADD17R,3.200000X3.200000*%
%TD*%
%TA.AperFunction,ComponentPad*%
%ADD18O,3.200000X3.200000*%
%TD*%
%TA.AperFunction,ComponentPad*%
%ADD19R,1.200000X1.200000*%
%TD*%
%TA.AperFunction,ComponentPad*%
%ADD20C,1.200000*%
%TD*%
%TA.AperFunction,ViaPad*%
%ADD21C,0.800000*%
%TD*%
G04 APERTURE END LIST*
D10*
%TO.N,Net-(U1-Ipk_Sense)*%
%TO.C,L1*%
X166150000Y-121142000D03*
%TO.N,Net-(D1-A)*%
X166150000Y-103362000D03*
%TD*%
D11*
%TO.N,Net-(D1-K)*%
%TO.C,J3*%
X175340000Y-89030000D03*
D12*
%TO.N,GND*%
X175340000Y-91570000D03*
%TD*%
D13*
%TO.N,Net-(J1-Pin_1)*%
%TO.C,F1*%
X106850000Y-118700000D03*
X114470000Y-118700000D03*
D14*
%TO.N,Net-(U1-VCC)*%
X133440000Y-118700000D03*
X141060000Y-118700000D03*
%TD*%
D15*
%TO.N,Net-(U1-VCC)*%
%TO.C,C1*%
X126200000Y-107610000D03*
D16*
%TO.N,GND*%
X131200000Y-107610000D03*
%TD*%
D17*
%TO.N,Net-(D1-K)*%
%TO.C,D1*%
X148630000Y-93250000D03*
D18*
%TO.N,Net-(D1-A)*%
X163870000Y-93250000D03*
%TD*%
D11*
%TO.N,Net-(J1-Pin_1)*%
%TO.C,J1*%
X108620000Y-91570000D03*
D12*
%TO.N,GND*%
X108620000Y-89030000D03*
%TD*%
D15*
%TO.N,Net-(D1-K)*%
%TO.C,C3*%
X132967246Y-94330000D03*
D16*
%TO.N,GND*%
X140467246Y-94330000D03*
%TD*%
D19*
%TO.N,Net-(U1-timing_capacitor)*%
%TO.C,C2*%
X138890000Y-110252600D03*
D20*
%TO.N,GND*%
X138890000Y-108252600D03*
%TD*%
D21*
%TO.N,GND*%
X128624803Y-95700000D03*
X128624803Y-115700000D03*
X144460000Y-108780000D03*
X118624803Y-95700000D03*
X168624803Y-100700000D03*
X150070000Y-107510000D03*
X153624803Y-115700000D03*
X173624803Y-120700000D03*
X153624803Y-95700000D03*
X163624803Y-115700000D03*
X158624803Y-115700000D03*
X108624803Y-105700000D03*
X168624803Y-95700000D03*
X123624803Y-120700000D03*
X108624803Y-110700000D03*
X143624803Y-100700000D03*
X148624803Y-90700000D03*
X163624803Y-120700000D03*
X138624803Y-115700000D03*
X123624803Y-115700000D03*
X173624803Y-110700000D03*
X158624803Y-95700000D03*
X118624803Y-120700000D03*
X113624803Y-95700000D03*
X128624803Y-90700000D03*
X163624803Y-100700000D03*
X118624803Y-105700000D03*
X118624803Y-100700000D03*
X168624803Y-120700000D03*
X121710000Y-89030000D03*
X123624803Y-105700000D03*
X168624803Y-115700000D03*
X158624803Y-110700000D03*
X123624803Y-90700000D03*
X173624803Y-105700000D03*
X158624803Y-120700000D03*
X128624803Y-105700000D03*
X118624803Y-115700000D03*
X163624803Y-105700000D03*
X138624803Y-90700000D03*
X153624803Y-100700000D03*
X143624803Y-95700000D03*
X118624803Y-110700000D03*
X173624803Y-115700000D03*
X133624803Y-90700000D03*
X150070000Y-104970000D03*
X153624803Y-90700000D03*
X108624803Y-100700000D03*
X108624803Y-95700000D03*
X113624803Y-90700000D03*
X173624803Y-100700000D03*
X173624803Y-95700000D03*
X113624803Y-110700000D03*
X123624803Y-95700000D03*
X163624803Y-110700000D03*
X144460000Y-107510000D03*
X143624803Y-115700000D03*
X128624803Y-110700000D03*
X123624803Y-100700000D03*
X168624803Y-105700000D03*
X133624803Y-100700000D03*
X123624803Y-110700000D03*
X143624803Y-120700000D03*
X138624803Y-105700000D03*
X133624803Y-110700000D03*
X138624803Y-100700000D03*
X113624803Y-105700000D03*
X143624803Y-90700000D03*
X148624803Y-110700000D03*
X150070000Y-108780000D03*
X158624803Y-90700000D03*
X113624803Y-115700000D03*
X148624803Y-120700000D03*
X148624803Y-100700000D03*
X133624803Y-105700000D03*
X128624803Y-120700000D03*
X163624803Y-90700000D03*
X144460000Y-104970000D03*
X108624803Y-115700000D03*
X113624803Y-100700000D03*
X138624803Y-120700000D03*
X168624803Y-90700000D03*
X128624803Y-100700000D03*
X158624803Y-100700000D03*
X150070000Y-106240000D03*
X158624803Y-105700000D03*
X148624803Y-115700000D03*
X133624803Y-115700000D03*
X168624803Y-110700000D03*
%TD*%
%TA.AperFunction,Conductor*%
%TO.N,GND*%
G36*
X179132539Y-85770185D02*
G01*
X179178294Y-85822989D01*
X179189500Y-85874500D01*
X179189500Y-123095500D01*
X179169815Y-123162539D01*
X179117011Y-123208294D01*
X179065500Y-123219500D01*
X104904500Y-123219500D01*
X104837461Y-123199815D01*
X104791706Y-123147011D01*
X104780500Y-123095500D01*
X104780500Y-121142002D01*
X164874647Y-121142002D01*
X164894021Y-121363457D01*
X164894022Y-121363465D01*
X164951558Y-121578191D01*
X164951559Y-121578193D01*
X164951560Y-121578196D01*
X164998536Y-121678936D01*
X165045511Y-121779676D01*
X165045512Y-121779677D01*
X165173023Y-121961781D01*
X165330219Y-122118977D01*
X165512323Y-122246488D01*
X165713804Y-122340440D01*
X165928537Y-122397978D01*
X166086724Y-122411817D01*
X166149998Y-122417353D01*
X166150000Y-122417353D01*
X166150002Y-122417353D01*
X166205365Y-122412509D01*
X166371463Y-122397978D01*
X166586196Y-122340440D01*
X166787677Y-122246488D01*
X166969781Y-122118977D01*
X167126977Y-121961781D01*
X167254488Y-121779677D01*
X167348440Y-121578196D01*
X167405978Y-121363463D01*
X167425353Y-121142000D01*
X167405978Y-120920537D01*
X167348440Y-120705804D01*
X167254488Y-120504324D01*
X167254486Y-120504321D01*
X167254485Y-120504319D01*
X167126978Y-120322220D01*
X167064560Y-120259802D01*
X166969781Y-120165023D01*
X166787677Y-120037512D01*
X166787678Y-120037512D01*
X166787676Y-120037511D01*
X166643973Y-119970502D01*
X166586196Y-119943560D01*
X166586193Y-119943559D01*
X166586191Y-119943558D01*
X166371465Y-119886022D01*
X166371457Y-119886021D01*
X166150002Y-119866647D01*
X166149998Y-119866647D01*
X165928542Y-119886021D01*
X165928535Y-119886022D01*
X165713800Y-119943561D01*
X165512323Y-120037512D01*
X165512319Y-120037514D01*
X165330217Y-120165023D01*
X165173023Y-120322217D01*
X165045514Y-120504319D01*
X165045512Y-120504323D01*
X164951561Y-120705800D01*
X164894022Y-120920535D01*
X164894021Y-120920542D01*
X164874647Y-121141997D01*
X164874647Y-121142002D01*
X104780500Y-121142002D01*
X104780500Y-120152034D01*
X104800185Y-120084995D01*
X104852989Y-120039240D01*
X104922147Y-120029296D01*
X104985703Y-120058321D01*
X105006428Y-120081418D01*
X105130014Y-120259803D01*
X105290196Y-120419985D01*
X105476404Y-120548991D01*
X105476405Y-120548991D01*
X105476409Y-120548994D01*
X105581995Y-120596953D01*
X105682661Y-120642678D01*
X105682662Y-120642678D01*
X105682664Y-120642679D01*
X105902331Y-120698030D01*
X106017270Y-120707075D01*
X106035362Y-120708500D01*
X106035364Y-120708500D01*
X107664638Y-120708500D01*
X107681577Y-120707166D01*
X107797669Y-120698030D01*
X108017336Y-120642679D01*
X108223591Y-120548994D01*
X108409802Y-120419986D01*
X108569986Y-120259802D01*
X108698994Y-120073591D01*
X108792679Y-119867336D01*
X108848030Y-119647669D01*
X108858500Y-119514638D01*
X112461500Y-119514638D01*
X112471970Y-119647668D01*
X112527321Y-119867338D01*
X112621008Y-120073595D01*
X112750014Y-120259803D01*
X112910196Y-120419985D01*
X113096404Y-120548991D01*
X113096405Y-120548991D01*
X113096409Y-120548994D01*
X113201995Y-120596953D01*
X113302661Y-120642678D01*
X113302662Y-120642678D01*
X113302664Y-120642679D01*
X113522331Y-120698030D01*
X113637270Y-120707075D01*
X113655362Y-120708500D01*
X113655364Y-120708500D01*
X115284638Y-120708500D01*
X115301577Y-120707166D01*
X115417669Y-120698030D01*
X115637336Y-120642679D01*
X115843591Y-120548994D01*
X116029802Y-120419986D01*
X116189986Y-120259802D01*
X116318994Y-120073591D01*
X116412679Y-119867336D01*
X116468030Y-119647669D01*
X116478500Y-119514636D01*
X116478500Y-118700000D01*
X131426807Y-118700000D01*
X131445557Y-118974130D01*
X131445558Y-118974132D01*
X131501458Y-119243141D01*
X131501463Y-119243158D01*
X131593476Y-119502056D01*
X131719889Y-119746024D01*
X131719893Y-119746030D01*
X131878340Y-119970499D01*
X131878343Y-119970502D01*
X132065889Y-120171314D01*
X132279031Y-120344718D01*
X132279033Y-120344719D01*
X132279034Y-120344720D01*
X132513801Y-120487485D01*
X132655403Y-120548991D01*
X132765823Y-120596953D01*
X133030404Y-120671085D01*
X133269720Y-120703978D01*
X133302614Y-120708500D01*
X133302615Y-120708500D01*
X133577386Y-120708500D01*
X133606733Y-120704466D01*
X133849596Y-120671085D01*
X134114177Y-120596953D01*
X134366200Y-120487484D01*
X134600969Y-120344718D01*
X134814111Y-120171314D01*
X135001657Y-119970502D01*
X135160111Y-119746023D01*
X135286523Y-119502058D01*
X135378538Y-119243153D01*
X135378539Y-119243146D01*
X135378541Y-119243141D01*
X135404491Y-119118259D01*
X135434442Y-118974130D01*
X135453193Y-118700000D01*
X135453193Y-118699999D01*
X139046807Y-118699999D01*
X139065557Y-118974130D01*
X139065558Y-118974132D01*
X139121458Y-119243141D01*
X139121463Y-119243158D01*
X139213476Y-119502056D01*
X139339889Y-119746024D01*
X139339893Y-119746030D01*
X139498340Y-119970499D01*
X139498343Y-119970502D01*
X139685889Y-120171314D01*
X139899031Y-120344718D01*
X139899033Y-120344719D01*
X139899034Y-120344720D01*
X140133801Y-120487485D01*
X140275403Y-120548991D01*
X140385823Y-120596953D01*
X140650404Y-120671085D01*
X140889720Y-120703978D01*
X140922614Y-120708500D01*
X140922615Y-120708500D01*
X141197386Y-120708500D01*
X141226733Y-120704466D01*
X141469596Y-120671085D01*
X141734177Y-120596953D01*
X141986200Y-120487484D01*
X142220969Y-120344718D01*
X142434111Y-120171314D01*
X142621657Y-119970502D01*
X142780111Y-119746023D01*
X142906523Y-119502058D01*
X142998538Y-119243153D01*
X142998539Y-119243146D01*
X142998541Y-119243141D01*
X143024491Y-119118259D01*
X143054442Y-118974130D01*
X143073193Y-118700000D01*
X143054442Y-118425870D01*
X143035141Y-118332989D01*
X142998541Y-118156858D01*
X142998536Y-118156841D01*
X142906523Y-117897943D01*
X142906523Y-117897942D01*
X142780111Y-117653977D01*
X142780110Y-117653975D01*
X142780106Y-117653969D01*
X142621659Y-117429500D01*
X142525378Y-117326409D01*
X142434111Y-117228686D01*
X142220969Y-117055282D01*
X142220967Y-117055281D01*
X142220965Y-117055279D01*
X141986198Y-116912514D01*
X141734178Y-116803047D01*
X141469602Y-116728916D01*
X141469597Y-116728915D01*
X141469596Y-116728915D01*
X141273559Y-116701970D01*
X141197386Y-116691500D01*
X141197385Y-116691500D01*
X140922615Y-116691500D01*
X140922614Y-116691500D01*
X140650404Y-116728915D01*
X140650397Y-116728916D01*
X140385821Y-116803047D01*
X140133801Y-116912514D01*
X139899034Y-117055279D01*
X139685892Y-117228683D01*
X139498340Y-117429500D01*
X139339893Y-117653969D01*
X139339889Y-117653975D01*
X139213476Y-117897943D01*
X139121463Y-118156841D01*
X139121458Y-118156858D01*
X139065558Y-118425867D01*
X139065557Y-118425869D01*
X139046807Y-118699999D01*
X135453193Y-118699999D01*
X135434442Y-118425870D01*
X135415141Y-118332989D01*
X135378541Y-118156858D01*
X135378536Y-118156841D01*
X135286523Y-117897943D01*
X135286523Y-117897942D01*
X135160111Y-117653977D01*
X135160110Y-117653975D01*
X135160106Y-117653969D01*
X135001659Y-117429500D01*
X134905378Y-117326409D01*
X134814111Y-117228686D01*
X134600969Y-117055282D01*
X134600967Y-117055281D01*
X134600965Y-117055279D01*
X134366198Y-116912514D01*
X134114178Y-116803047D01*
X133849602Y-116728916D01*
X133849597Y-116728915D01*
X133849596Y-116728915D01*
X133653559Y-116701970D01*
X133577386Y-116691500D01*
X133577385Y-116691500D01*
X133302615Y-116691500D01*
X133302614Y-116691500D01*
X133030404Y-116728915D01*
X133030397Y-116728916D01*
X132765821Y-116803047D01*
X132513801Y-116912514D01*
X132279034Y-117055279D01*
X132065892Y-117228683D01*
X131878340Y-117429500D01*
X131719893Y-117653969D01*
X131719889Y-117653975D01*
X131593476Y-117897943D01*
X131501463Y-118156841D01*
X131501458Y-118156858D01*
X131445558Y-118425867D01*
X131445557Y-118425869D01*
X131426807Y-118700000D01*
X116478500Y-118700000D01*
X116478500Y-117885364D01*
X116468030Y-117752331D01*
X116412679Y-117532664D01*
X116318994Y-117326409D01*
X116313571Y-117318582D01*
X116189985Y-117140196D01*
X116029802Y-116980014D01*
X116029803Y-116980014D01*
X115843595Y-116851008D01*
X115637338Y-116757321D01*
X115490891Y-116720420D01*
X115417669Y-116701970D01*
X115373324Y-116698480D01*
X115284638Y-116691500D01*
X115284636Y-116691500D01*
X113655364Y-116691500D01*
X113655362Y-116691500D01*
X113522331Y-116701970D01*
X113302661Y-116757321D01*
X113096404Y-116851008D01*
X112910196Y-116980014D01*
X112750014Y-117140196D01*
X112621008Y-117326404D01*
X112527321Y-117532661D01*
X112471970Y-117752331D01*
X112461500Y-117885362D01*
X112461500Y-119514638D01*
X108858500Y-119514638D01*
X108858500Y-119514636D01*
X108858500Y-117885364D01*
X108848030Y-117752331D01*
X108792679Y-117532664D01*
X108698994Y-117326409D01*
X108693571Y-117318582D01*
X108569985Y-117140196D01*
X108409802Y-116980014D01*
X108409803Y-116980014D01*
X108223595Y-116851008D01*
X108017338Y-116757321D01*
X107870891Y-116720420D01*
X107797669Y-116701970D01*
X107753324Y-116698480D01*
X107664638Y-116691500D01*
X107664636Y-116691500D01*
X106035364Y-116691500D01*
X106035362Y-116691500D01*
X105902331Y-116701970D01*
X105682661Y-116757321D01*
X105476404Y-116851008D01*
X105290196Y-116980014D01*
X105130016Y-117140194D01*
X105006428Y-117318582D01*
X104952069Y-117362478D01*
X104882607Y-117370017D01*
X104820096Y-117338806D01*
X104784383Y-117278753D01*
X104780500Y-117247965D01*
X104780500Y-110901254D01*
X137781500Y-110901254D01*
X137788011Y-110961802D01*
X137788011Y-110961804D01*
X137839110Y-111098804D01*
X137839111Y-111098804D01*
X137926739Y-111215861D01*
X138043796Y-111303489D01*
X138180799Y-111354589D01*
X138208050Y-111357518D01*
X138241345Y-111361099D01*
X138241362Y-111361100D01*
X139538638Y-111361100D01*
X139538654Y-111361099D01*
X139565692Y-111358191D01*
X139599201Y-111354589D01*
X139736204Y-111303489D01*
X139853261Y-111215861D01*
X139940889Y-111098804D01*
X139991989Y-110961801D01*
X139995591Y-110928292D01*
X139998499Y-110901254D01*
X139998500Y-110901237D01*
X139998500Y-109603962D01*
X139998499Y-109603945D01*
X139995157Y-109572870D01*
X139991989Y-109543399D01*
X139940889Y-109406396D01*
X139853261Y-109289339D01*
X139736204Y-109201711D01*
X139723362Y-109196921D01*
X139599203Y-109150611D01*
X139538654Y-109144100D01*
X139538638Y-109144100D01*
X139479309Y-109144100D01*
X139412270Y-109124415D01*
X139391628Y-109107781D01*
X139000263Y-108716416D01*
X138966778Y-108655093D01*
X138971762Y-108585401D01*
X139013634Y-108529468D01*
X139022658Y-108523313D01*
X139095610Y-108478143D01*
X139163201Y-108388638D01*
X139163200Y-108388638D01*
X139170126Y-108379468D01*
X139173540Y-108382046D01*
X139205721Y-108347273D01*
X139273368Y-108329790D01*
X139339728Y-108351656D01*
X139356995Y-108366043D01*
X139827465Y-108836512D01*
X139829247Y-108834152D01*
X139829249Y-108834150D01*
X139920113Y-108651669D01*
X139920116Y-108651663D01*
X139975902Y-108455592D01*
X139975903Y-108455589D01*
X139994713Y-108252600D01*
X139994713Y-108252599D01*
X139975903Y-108049610D01*
X139975902Y-108049607D01*
X139920116Y-107853536D01*
X139920113Y-107853530D01*
X139829244Y-107671041D01*
X139827466Y-107668686D01*
X139827465Y-107668685D01*
X139353119Y-108143032D01*
X139291796Y-108176517D01*
X139222104Y-108171533D01*
X139166171Y-108129661D01*
X139154440Y-108110628D01*
X139133552Y-108068678D01*
X139050666Y-107993116D01*
X139044511Y-107990731D01*
X138989110Y-107948161D01*
X138965518Y-107882395D01*
X138981228Y-107814314D01*
X139001623Y-107787424D01*
X139470688Y-107318358D01*
X139470687Y-107318357D01*
X139382418Y-107263704D01*
X139382411Y-107263700D01*
X139192321Y-107190060D01*
X138991928Y-107152600D01*
X138788072Y-107152600D01*
X138587678Y-107190060D01*
X138397588Y-107263700D01*
X138397584Y-107263702D01*
X138309310Y-107318358D01*
X138779736Y-107788783D01*
X138813221Y-107850106D01*
X138808237Y-107919797D01*
X138766366Y-107975731D01*
X138757334Y-107981890D01*
X138684390Y-108027056D01*
X138609874Y-108125732D01*
X138606484Y-108123172D01*
X138574007Y-108158088D01*
X138506315Y-108175398D01*
X138440011Y-108153363D01*
X138423004Y-108139156D01*
X137952533Y-107668685D01*
X137952532Y-107668685D01*
X137950756Y-107671039D01*
X137950754Y-107671042D01*
X137859886Y-107853530D01*
X137859883Y-107853536D01*
X137804097Y-108049607D01*
X137804096Y-108049610D01*
X137785287Y-108252599D01*
X137785287Y-108252600D01*
X137804096Y-108455589D01*
X137804097Y-108455592D01*
X137859883Y-108651663D01*
X137859886Y-108651669D01*
X137950754Y-108834156D01*
X137950755Y-108834157D01*
X137952533Y-108836512D01*
X138426879Y-108362166D01*
X138488202Y-108328681D01*
X138557893Y-108333665D01*
X138613827Y-108375536D01*
X138625560Y-108394574D01*
X138646448Y-108436522D01*
X138729334Y-108512084D01*
X138735488Y-108514468D01*
X138790890Y-108557041D01*
X138814481Y-108622807D01*
X138798770Y-108690888D01*
X138778376Y-108717776D01*
X138388372Y-109107781D01*
X138327049Y-109141266D01*
X138300691Y-109144100D01*
X138241345Y-109144100D01*
X138180797Y-109150611D01*
X138180795Y-109150611D01*
X138043795Y-109201711D01*
X137926739Y-109289339D01*
X137839111Y-109406395D01*
X137788011Y-109543395D01*
X137788011Y-109543397D01*
X137781500Y-109603945D01*
X137781500Y-110901254D01*
X104780500Y-110901254D01*
X104780500Y-108858654D01*
X124491500Y-108858654D01*
X124498011Y-108919202D01*
X124498011Y-108919204D01*
X124549110Y-109056204D01*
X124549111Y-109056204D01*
X124636739Y-109173261D01*
X124753796Y-109260889D01*
X124830073Y-109289339D01*
X124885463Y-109309999D01*
X124890799Y-109311989D01*
X124918050Y-109314918D01*
X124951345Y-109318499D01*
X124951362Y-109318500D01*
X127448638Y-109318500D01*
X127448654Y-109318499D01*
X127475692Y-109315591D01*
X127509201Y-109311989D01*
X127514537Y-109309999D01*
X127523768Y-109306555D01*
X127646204Y-109260889D01*
X127763261Y-109173261D01*
X127850889Y-109056204D01*
X127901989Y-108919201D01*
X127905591Y-108885692D01*
X127908499Y-108858654D01*
X127908499Y-108858647D01*
X127908500Y-108858638D01*
X127908500Y-107610004D01*
X129495233Y-107610004D01*
X129514273Y-107864079D01*
X129570968Y-108112477D01*
X129570973Y-108112494D01*
X129664058Y-108349671D01*
X129664057Y-108349671D01*
X129791457Y-108570332D01*
X129833452Y-108622993D01*
X130518590Y-107937855D01*
X130579913Y-107904370D01*
X130649604Y-107909354D01*
X130704645Y-107950049D01*
X130737692Y-107993116D01*
X130772075Y-108037925D01*
X130859948Y-108105353D01*
X130901150Y-108161781D01*
X130905305Y-108231527D01*
X130872142Y-108291409D01*
X130186813Y-108976737D01*
X130347623Y-109086375D01*
X130347624Y-109086376D01*
X130577176Y-109196921D01*
X130577174Y-109196921D01*
X130820652Y-109272024D01*
X130820658Y-109272026D01*
X131072595Y-109309999D01*
X131072604Y-109310000D01*
X131327396Y-109310000D01*
X131327404Y-109309999D01*
X131579341Y-109272026D01*
X131579347Y-109272024D01*
X131822824Y-109196921D01*
X132052381Y-109086373D01*
X132213185Y-108976737D01*
X131527856Y-108291409D01*
X131494371Y-108230086D01*
X131499355Y-108160395D01*
X131540049Y-108105353D01*
X131627925Y-108037925D01*
X131695354Y-107950048D01*
X131751779Y-107908848D01*
X131821525Y-107904693D01*
X131881409Y-107937856D01*
X132566545Y-108622993D01*
X132608545Y-108570327D01*
X132735941Y-108349671D01*
X132829026Y-108112494D01*
X132829031Y-108112477D01*
X132885726Y-107864079D01*
X132904767Y-107610004D01*
X132904767Y-107609995D01*
X132885726Y-107355920D01*
X132829031Y-107107522D01*
X132829026Y-107107505D01*
X132735941Y-106870328D01*
X132735942Y-106870328D01*
X132608544Y-106649671D01*
X132566545Y-106597005D01*
X131881409Y-107282142D01*
X131820086Y-107315627D01*
X131750394Y-107310643D01*
X131695353Y-107269948D01*
X131627925Y-107182075D01*
X131589512Y-107152600D01*
X131540049Y-107114645D01*
X131498847Y-107058219D01*
X131494692Y-106988473D01*
X131527855Y-106928590D01*
X132213185Y-106243261D01*
X132052377Y-106133624D01*
X132052376Y-106133623D01*
X131822823Y-106023078D01*
X131822825Y-106023078D01*
X131579347Y-105947975D01*
X131579341Y-105947973D01*
X131327404Y-105910000D01*
X131072595Y-105910000D01*
X130820658Y-105947973D01*
X130820652Y-105947975D01*
X130577175Y-106023078D01*
X130347624Y-106133623D01*
X130347616Y-106133628D01*
X130186813Y-106243261D01*
X130872143Y-106928590D01*
X130905628Y-106989913D01*
X130900644Y-107059604D01*
X130859949Y-107114646D01*
X130772075Y-107182074D01*
X130772074Y-107182075D01*
X130704646Y-107269949D01*
X130648218Y-107311151D01*
X130578472Y-107315306D01*
X130518590Y-107282143D01*
X129833453Y-106597006D01*
X129791455Y-106649670D01*
X129664058Y-106870328D01*
X129570973Y-107107505D01*
X129570968Y-107107522D01*
X129514273Y-107355920D01*
X129495233Y-107609995D01*
X129495233Y-107610004D01*
X127908500Y-107610004D01*
X127908500Y-106361362D01*
X127908499Y-106361352D01*
X127908499Y-106361345D01*
X127905157Y-106330270D01*
X127901989Y-106300799D01*
X127850889Y-106163796D01*
X127763261Y-106046739D01*
X127646204Y-105959111D01*
X127616348Y-105947975D01*
X127509203Y-105908011D01*
X127448654Y-105901500D01*
X127448638Y-105901500D01*
X124951362Y-105901500D01*
X124951345Y-105901500D01*
X124890797Y-105908011D01*
X124890795Y-105908011D01*
X124753795Y-105959111D01*
X124636739Y-106046739D01*
X124549111Y-106163795D01*
X124498011Y-106300795D01*
X124498011Y-106300797D01*
X124491500Y-106361345D01*
X124491500Y-108858654D01*
X104780500Y-108858654D01*
X104780500Y-103362002D01*
X164874647Y-103362002D01*
X164894021Y-103583457D01*
X164894022Y-103583465D01*
X164951558Y-103798191D01*
X164951559Y-103798193D01*
X164951560Y-103798196D01*
X164998536Y-103898936D01*
X165045511Y-103999676D01*
X165045512Y-103999677D01*
X165173023Y-104181781D01*
X165330219Y-104338977D01*
X165512323Y-104466488D01*
X165713804Y-104560440D01*
X165928537Y-104617978D01*
X166086724Y-104631817D01*
X166149998Y-104637353D01*
X166150000Y-104637353D01*
X166150002Y-104637353D01*
X166205365Y-104632509D01*
X166371463Y-104617978D01*
X166586196Y-104560440D01*
X166787677Y-104466488D01*
X166969781Y-104338977D01*
X167126977Y-104181781D01*
X167254488Y-103999677D01*
X167348440Y-103798196D01*
X167405978Y-103583463D01*
X167425353Y-103362000D01*
X167405978Y-103140537D01*
X167348440Y-102925804D01*
X167254488Y-102724324D01*
X167254486Y-102724321D01*
X167254485Y-102724319D01*
X167126978Y-102542220D01*
X167126975Y-102542217D01*
X166969781Y-102385023D01*
X166787677Y-102257512D01*
X166787678Y-102257512D01*
X166787676Y-102257511D01*
X166686936Y-102210535D01*
X166586196Y-102163560D01*
X166586193Y-102163559D01*
X166586191Y-102163558D01*
X166371465Y-102106022D01*
X166371457Y-102106021D01*
X166150002Y-102086647D01*
X166149998Y-102086647D01*
X165928542Y-102106021D01*
X165928535Y-102106022D01*
X165713800Y-102163561D01*
X165512323Y-102257512D01*
X165512319Y-102257514D01*
X165330217Y-102385023D01*
X165173023Y-102542217D01*
X165045514Y-102724319D01*
X165045512Y-102724323D01*
X164951561Y-102925800D01*
X164894022Y-103140535D01*
X164894021Y-103140542D01*
X164874647Y-103361997D01*
X164874647Y-103362002D01*
X104780500Y-103362002D01*
X104780500Y-95578654D01*
X131258746Y-95578654D01*
X131265257Y-95639202D01*
X131265257Y-95639204D01*
X131316357Y-95776204D01*
X131403985Y-95893261D01*
X131521042Y-95980889D01*
X131636195Y-96023839D01*
X131652709Y-96029999D01*
X131658045Y-96031989D01*
X131685296Y-96034918D01*
X131718591Y-96038499D01*
X131718608Y-96038500D01*
X134215884Y-96038500D01*
X134215900Y-96038499D01*
X134242938Y-96035591D01*
X134276447Y-96031989D01*
X134281783Y-96029999D01*
X134291014Y-96026555D01*
X134413450Y-95980889D01*
X134530507Y-95893261D01*
X134618135Y-95776204D01*
X134669235Y-95639201D01*
X134672837Y-95605692D01*
X134675745Y-95578654D01*
X134675746Y-95578637D01*
X134675746Y-94330004D01*
X138762479Y-94330004D01*
X138781519Y-94584079D01*
X138838214Y-94832477D01*
X138838219Y-94832494D01*
X138931304Y-95069671D01*
X138931303Y-95069671D01*
X139058703Y-95290332D01*
X139100698Y-95342993D01*
X139785836Y-94657855D01*
X139847159Y-94624370D01*
X139916850Y-94629354D01*
X139971891Y-94670049D01*
X140039321Y-94757924D01*
X140039321Y-94757925D01*
X140127194Y-94825353D01*
X140168396Y-94881781D01*
X140172551Y-94951527D01*
X140139388Y-95011409D01*
X139454059Y-95696737D01*
X139614869Y-95806375D01*
X139614870Y-95806376D01*
X139844422Y-95916921D01*
X139844420Y-95916921D01*
X140087898Y-95992024D01*
X140087904Y-95992026D01*
X140339841Y-96029999D01*
X140339850Y-96030000D01*
X140594642Y-96030000D01*
X140594650Y-96029999D01*
X140846587Y-95992026D01*
X140846593Y-95992024D01*
X141090070Y-95916921D01*
X141319627Y-95806373D01*
X141480431Y-95696737D01*
X140795102Y-95011409D01*
X140761617Y-94950086D01*
X140766601Y-94880395D01*
X140807295Y-94825353D01*
X140895171Y-94757925D01*
X140962600Y-94670048D01*
X141019025Y-94628848D01*
X141088771Y-94624693D01*
X141148655Y-94657856D01*
X141833791Y-95342993D01*
X141875791Y-95290327D01*
X142003187Y-95069671D01*
X142070306Y-94898654D01*
X146521500Y-94898654D01*
X146528011Y-94959202D01*
X146528011Y-94959204D01*
X146579110Y-95096204D01*
X146579111Y-95096204D01*
X146666739Y-95213261D01*
X146783796Y-95300889D01*
X146920799Y-95351989D01*
X146948050Y-95354918D01*
X146981345Y-95358499D01*
X146981362Y-95358500D01*
X150278638Y-95358500D01*
X150278654Y-95358499D01*
X150305692Y-95355591D01*
X150339201Y-95351989D01*
X150476204Y-95300889D01*
X150593261Y-95213261D01*
X150680889Y-95096204D01*
X150731989Y-94959201D01*
X150736789Y-94914556D01*
X150738499Y-94898654D01*
X150738500Y-94898637D01*
X150738500Y-93250000D01*
X161756573Y-93250000D01*
X161776257Y-93537778D01*
X161776258Y-93537780D01*
X161834941Y-93820185D01*
X161834946Y-93820201D01*
X161911509Y-94035627D01*
X161931541Y-94091992D01*
X162064247Y-94348103D01*
X162230591Y-94583758D01*
X162230595Y-94583762D01*
X162230595Y-94583763D01*
X162427477Y-94794571D01*
X162593942Y-94930000D01*
X162651228Y-94976606D01*
X162897686Y-95126481D01*
X162897688Y-95126482D01*
X162897690Y-95126483D01*
X163074065Y-95203093D01*
X163162256Y-95241400D01*
X163440011Y-95319223D01*
X163678404Y-95351989D01*
X163725774Y-95358500D01*
X163725775Y-95358500D01*
X164014226Y-95358500D01*
X164061596Y-95351989D01*
X164299989Y-95319223D01*
X164577744Y-95241400D01*
X164842314Y-95126481D01*
X165088772Y-94976606D01*
X165312526Y-94794568D01*
X165509409Y-94583758D01*
X165675753Y-94348103D01*
X165808459Y-94091992D01*
X165905055Y-93820196D01*
X165905055Y-93820191D01*
X165905058Y-93820185D01*
X165952822Y-93590328D01*
X165963742Y-93537778D01*
X165983427Y-93250000D01*
X165963742Y-92962222D01*
X165941175Y-92853623D01*
X165905058Y-92679814D01*
X165905053Y-92679798D01*
X165808459Y-92408009D01*
X165808459Y-92408008D01*
X165675753Y-92151897D01*
X165509409Y-91916242D01*
X165509404Y-91916236D01*
X165312522Y-91705428D01*
X165088771Y-91523393D01*
X164842309Y-91373516D01*
X164577745Y-91258600D01*
X164299995Y-91180778D01*
X164299990Y-91180777D01*
X164299989Y-91180777D01*
X164157106Y-91161138D01*
X164014226Y-91141500D01*
X164014225Y-91141500D01*
X163725775Y-91141500D01*
X163725774Y-91141500D01*
X163440011Y-91180777D01*
X163440004Y-91180778D01*
X163162254Y-91258600D01*
X162897690Y-91373516D01*
X162651228Y-91523393D01*
X162427477Y-91705428D01*
X162230595Y-91916236D01*
X162230595Y-91916237D01*
X162230592Y-91916239D01*
X162230591Y-91916242D01*
X162171008Y-92000651D01*
X162064247Y-92151896D01*
X161931540Y-92408009D01*
X161834946Y-92679798D01*
X161834941Y-92679814D01*
X161776258Y-92962219D01*
X161776257Y-92962221D01*
X161756573Y-93250000D01*
X150738500Y-93250000D01*
X150738500Y-91601362D01*
X150738499Y-91601345D01*
X150735128Y-91570000D01*
X150731989Y-91540799D01*
X150725497Y-91523394D01*
X150700751Y-91457047D01*
X150680889Y-91403796D01*
X150593261Y-91286739D01*
X150476204Y-91199111D01*
X150454635Y-91191066D01*
X150339203Y-91148011D01*
X150278654Y-91141500D01*
X150278638Y-91141500D01*
X146981362Y-91141500D01*
X146981345Y-91141500D01*
X146920797Y-91148011D01*
X146920795Y-91148011D01*
X146783795Y-91199111D01*
X146666739Y-91286739D01*
X146579111Y-91403795D01*
X146528011Y-91540795D01*
X146528011Y-91540797D01*
X146521500Y-91601345D01*
X146521500Y-94898654D01*
X142070306Y-94898654D01*
X142096272Y-94832494D01*
X142096277Y-94832477D01*
X142152972Y-94584079D01*
X142172013Y-94330004D01*
X142172013Y-94329995D01*
X142152972Y-94075920D01*
X142096277Y-93827522D01*
X142096272Y-93827505D01*
X142003187Y-93590328D01*
X142003188Y-93590328D01*
X141875790Y-93369671D01*
X141833791Y-93317005D01*
X141148655Y-94002142D01*
X141087332Y-94035627D01*
X141017640Y-94030643D01*
X140962599Y-93989948D01*
X140895171Y-93902075D01*
X140895171Y-93902074D01*
X140807295Y-93834645D01*
X140766093Y-93778219D01*
X140761938Y-93708473D01*
X140795101Y-93648590D01*
X141480431Y-92963261D01*
X141319623Y-92853624D01*
X141319622Y-92853623D01*
X141090069Y-92743078D01*
X141090071Y-92743078D01*
X140846593Y-92667975D01*
X140846587Y-92667973D01*
X140594650Y-92630000D01*
X140339841Y-92630000D01*
X140087904Y-92667973D01*
X140087898Y-92667975D01*
X139844421Y-92743078D01*
X139614870Y-92853623D01*
X139614862Y-92853628D01*
X139454059Y-92963261D01*
X140139389Y-93648590D01*
X140172874Y-93709913D01*
X140167890Y-93779604D01*
X140127195Y-93834646D01*
X140039321Y-93902074D01*
X140039320Y-93902075D01*
X139971892Y-93989949D01*
X139915464Y-94031151D01*
X139845718Y-94035306D01*
X139785836Y-94002143D01*
X139100699Y-93317006D01*
X139058701Y-93369670D01*
X138931304Y-93590328D01*
X138838219Y-93827505D01*
X138838214Y-93827522D01*
X138781519Y-94075920D01*
X138762479Y-94329995D01*
X138762479Y-94330004D01*
X134675746Y-94330004D01*
X134675746Y-93081362D01*
X134675745Y-93081345D01*
X134672234Y-93048696D01*
X134669235Y-93020799D01*
X134618135Y-92883796D01*
X134530507Y-92766739D01*
X134413450Y-92679111D01*
X134383594Y-92667975D01*
X134276449Y-92628011D01*
X134215900Y-92621500D01*
X134215884Y-92621500D01*
X131718608Y-92621500D01*
X131718591Y-92621500D01*
X131658043Y-92628011D01*
X131658041Y-92628011D01*
X131521041Y-92679111D01*
X131403985Y-92766739D01*
X131316357Y-92883795D01*
X131265257Y-93020795D01*
X131265257Y-93020797D01*
X131258746Y-93081345D01*
X131258746Y-95578654D01*
X104780500Y-95578654D01*
X104780500Y-92668654D01*
X107061500Y-92668654D01*
X107068011Y-92729202D01*
X107068011Y-92729204D01*
X107114418Y-92853623D01*
X107119111Y-92866204D01*
X107206739Y-92983261D01*
X107323796Y-93070889D01*
X107460799Y-93121989D01*
X107486872Y-93124792D01*
X107521345Y-93128499D01*
X107521362Y-93128500D01*
X109718638Y-93128500D01*
X109718654Y-93128499D01*
X109745692Y-93125591D01*
X109779201Y-93121989D01*
X109916204Y-93070889D01*
X110033261Y-92983261D01*
X110120889Y-92866204D01*
X110171989Y-92729201D01*
X110175591Y-92695692D01*
X110178499Y-92668654D01*
X110178499Y-92668647D01*
X110178500Y-92668638D01*
X110178500Y-90471362D01*
X110178499Y-90471352D01*
X110178499Y-90471345D01*
X110175157Y-90440270D01*
X110171989Y-90410799D01*
X110120889Y-90273796D01*
X110033261Y-90156739D01*
X109995744Y-90128654D01*
X173781500Y-90128654D01*
X173788011Y-90189202D01*
X173788011Y-90189204D01*
X173839110Y-90326204D01*
X173839111Y-90326204D01*
X173926739Y-90443261D01*
X174032236Y-90522235D01*
X174074107Y-90578169D01*
X174079091Y-90647861D01*
X174063653Y-90686291D01*
X173954667Y-90864140D01*
X173861303Y-91089542D01*
X173804348Y-91326780D01*
X173785207Y-91570000D01*
X173804348Y-91813219D01*
X173861303Y-92050457D01*
X173954668Y-92275861D01*
X174078504Y-92477942D01*
X174691482Y-91864964D01*
X174752805Y-91831479D01*
X174822496Y-91836463D01*
X174878430Y-91878334D01*
X174881514Y-91883249D01*
X174881549Y-91883225D01*
X174886441Y-91890156D01*
X174989637Y-92000651D01*
X174989638Y-92000652D01*
X175024698Y-92021973D01*
X175071749Y-92073623D01*
X175083407Y-92142513D01*
X175055970Y-92206770D01*
X175047950Y-92215601D01*
X174432056Y-92831494D01*
X174634138Y-92955331D01*
X174859542Y-93048696D01*
X175096780Y-93105651D01*
X175096779Y-93105651D01*
X175339999Y-93124792D01*
X175583219Y-93105651D01*
X175820457Y-93048696D01*
X176045861Y-92955331D01*
X176247942Y-92831494D01*
X175633166Y-92216718D01*
X175599681Y-92155395D01*
X175604665Y-92085703D01*
X175642588Y-92032853D01*
X175745739Y-91948934D01*
X175796052Y-91877655D01*
X175850793Y-91834239D01*
X175920318Y-91827310D01*
X175982553Y-91859068D01*
X175985037Y-91861484D01*
X176601494Y-92477942D01*
X176725331Y-92275861D01*
X176818696Y-92050457D01*
X176875651Y-91813219D01*
X176894792Y-91570000D01*
X176875651Y-91326780D01*
X176818696Y-91089542D01*
X176725331Y-90864138D01*
X176616347Y-90686292D01*
X176598102Y-90618846D01*
X176619218Y-90552244D01*
X176647764Y-90522235D01*
X176753261Y-90443261D01*
X176840889Y-90326204D01*
X176891989Y-90189201D01*
X176895591Y-90155692D01*
X176898499Y-90128654D01*
X176898500Y-90128637D01*
X176898500Y-87931362D01*
X176898499Y-87931345D01*
X176895157Y-87900270D01*
X176891989Y-87870799D01*
X176840889Y-87733796D01*
X176753261Y-87616739D01*
X176636204Y-87529111D01*
X176636203Y-87529110D01*
X176499203Y-87478011D01*
X176438654Y-87471500D01*
X176438638Y-87471500D01*
X174241362Y-87471500D01*
X174241345Y-87471500D01*
X174180797Y-87478011D01*
X174180795Y-87478011D01*
X174043795Y-87529111D01*
X173926739Y-87616739D01*
X173839111Y-87733795D01*
X173788011Y-87870795D01*
X173788011Y-87870797D01*
X173781500Y-87931345D01*
X173781500Y-90128654D01*
X109995744Y-90128654D01*
X109927762Y-90077763D01*
X109885892Y-90021830D01*
X109880908Y-89952138D01*
X109896347Y-89913707D01*
X110005331Y-89735861D01*
X110098696Y-89510457D01*
X110155651Y-89273219D01*
X110174792Y-89030000D01*
X110155651Y-88786780D01*
X110098696Y-88549542D01*
X110005331Y-88324138D01*
X109881494Y-88122056D01*
X109268517Y-88735034D01*
X109207194Y-88768519D01*
X109137502Y-88763535D01*
X109081569Y-88721663D01*
X109078486Y-88716750D01*
X109078451Y-88716775D01*
X109073558Y-88709843D01*
X109018661Y-88651064D01*
X108970362Y-88599348D01*
X108935300Y-88578026D01*
X108888248Y-88526374D01*
X108876591Y-88457484D01*
X108904029Y-88393227D01*
X108912048Y-88384397D01*
X109527942Y-87768504D01*
X109325861Y-87644668D01*
X109100457Y-87551303D01*
X108863219Y-87494348D01*
X108863220Y-87494348D01*
X108620000Y-87475207D01*
X108376780Y-87494348D01*
X108139542Y-87551303D01*
X107914146Y-87644665D01*
X107914141Y-87644668D01*
X107712056Y-87768504D01*
X108326833Y-88383280D01*
X108360318Y-88444603D01*
X108355334Y-88514294D01*
X108317408Y-88567148D01*
X108214262Y-88651064D01*
X108214258Y-88651069D01*
X108163947Y-88722343D01*
X108109204Y-88765760D01*
X108039679Y-88772689D01*
X107977444Y-88740930D01*
X107974962Y-88738515D01*
X107358504Y-88122056D01*
X107234668Y-88324141D01*
X107234665Y-88324146D01*
X107141303Y-88549542D01*
X107084348Y-88786780D01*
X107065207Y-89030000D01*
X107084348Y-89273219D01*
X107141303Y-89510457D01*
X107234666Y-89735856D01*
X107343653Y-89913707D01*
X107361897Y-89981153D01*
X107340780Y-90047756D01*
X107312236Y-90077763D01*
X107206741Y-90156737D01*
X107206740Y-90156738D01*
X107206739Y-90156739D01*
X107182436Y-90189204D01*
X107119111Y-90273795D01*
X107068011Y-90410795D01*
X107068011Y-90410797D01*
X107061500Y-90471345D01*
X107061500Y-92668654D01*
X104780500Y-92668654D01*
X104780500Y-85874500D01*
X104800185Y-85807461D01*
X104852989Y-85761706D01*
X104904500Y-85750500D01*
X179065500Y-85750500D01*
X179132539Y-85770185D01*
G37*
%TD.AperFunction*%
%TD*%
M02*
