%TF.GenerationSoftware,KiCad,Pcbnew,7.0.7*%
%TF.CreationDate,2023-09-13T14:32:16-04:00*%
%TF.ProjectId,Alim5,416c696d-352e-46b6-9963-61645f706362,rev?*%
%TF.SameCoordinates,Original*%
%TF.FileFunction,Legend,Top*%
%TF.FilePolarity,Positive*%
%FSLAX46Y46*%
G04 Gerber Fmt 4.6, Leading zero omitted, Abs format (unit mm)*
G04 Created by KiCad (PCBNEW 7.0.7) date 2023-09-13 14:32:16*
%MOMM*%
%LPD*%
G01*
G04 APERTURE LIST*
%ADD10C,0.150000*%
%ADD11C,0.120000*%
%ADD12C,0.127000*%
%ADD13C,0.200000*%
G04 APERTURE END LIST*
D10*
X177806779Y-86698866D02*
X178568684Y-86698866D01*
X178187731Y-87079819D02*
X178187731Y-86317914D01*
X176072969Y-120209819D02*
X175596779Y-120209819D01*
X175596779Y-120209819D02*
X175596779Y-119209819D01*
X176930112Y-120209819D02*
X176358684Y-120209819D01*
X176644398Y-120209819D02*
X176644398Y-119209819D01*
X176644398Y-119209819D02*
X176549160Y-119352676D01*
X176549160Y-119352676D02*
X176453922Y-119447914D01*
X176453922Y-119447914D02*
X176358684Y-119495533D01*
X105436779Y-109419819D02*
X105436779Y-108419819D01*
X105436779Y-108419819D02*
X105674874Y-108419819D01*
X105674874Y-108419819D02*
X105817731Y-108467438D01*
X105817731Y-108467438D02*
X105912969Y-108562676D01*
X105912969Y-108562676D02*
X105960588Y-108657914D01*
X105960588Y-108657914D02*
X106008207Y-108848390D01*
X106008207Y-108848390D02*
X106008207Y-108991247D01*
X106008207Y-108991247D02*
X105960588Y-109181723D01*
X105960588Y-109181723D02*
X105912969Y-109276961D01*
X105912969Y-109276961D02*
X105817731Y-109372200D01*
X105817731Y-109372200D02*
X105674874Y-109419819D01*
X105674874Y-109419819D02*
X105436779Y-109419819D01*
X106865350Y-108753152D02*
X106865350Y-109419819D01*
X106436779Y-108753152D02*
X106436779Y-109276961D01*
X106436779Y-109276961D02*
X106484398Y-109372200D01*
X106484398Y-109372200D02*
X106579636Y-109419819D01*
X106579636Y-109419819D02*
X106722493Y-109419819D01*
X106722493Y-109419819D02*
X106817731Y-109372200D01*
X106817731Y-109372200D02*
X106865350Y-109324580D01*
X107770112Y-109372200D02*
X107674874Y-109419819D01*
X107674874Y-109419819D02*
X107484398Y-109419819D01*
X107484398Y-109419819D02*
X107389160Y-109372200D01*
X107389160Y-109372200D02*
X107341541Y-109324580D01*
X107341541Y-109324580D02*
X107293922Y-109229342D01*
X107293922Y-109229342D02*
X107293922Y-108943628D01*
X107293922Y-108943628D02*
X107341541Y-108848390D01*
X107341541Y-108848390D02*
X107389160Y-108800771D01*
X107389160Y-108800771D02*
X107484398Y-108753152D01*
X107484398Y-108753152D02*
X107674874Y-108753152D01*
X107674874Y-108753152D02*
X107770112Y-108800771D01*
X108198684Y-109419819D02*
X108198684Y-108419819D01*
X108293922Y-109038866D02*
X108579636Y-109419819D01*
X108579636Y-108753152D02*
X108198684Y-109134104D01*
X110341541Y-109324580D02*
X110293922Y-109372200D01*
X110293922Y-109372200D02*
X110151065Y-109419819D01*
X110151065Y-109419819D02*
X110055827Y-109419819D01*
X110055827Y-109419819D02*
X109912970Y-109372200D01*
X109912970Y-109372200D02*
X109817732Y-109276961D01*
X109817732Y-109276961D02*
X109770113Y-109181723D01*
X109770113Y-109181723D02*
X109722494Y-108991247D01*
X109722494Y-108991247D02*
X109722494Y-108848390D01*
X109722494Y-108848390D02*
X109770113Y-108657914D01*
X109770113Y-108657914D02*
X109817732Y-108562676D01*
X109817732Y-108562676D02*
X109912970Y-108467438D01*
X109912970Y-108467438D02*
X110055827Y-108419819D01*
X110055827Y-108419819D02*
X110151065Y-108419819D01*
X110151065Y-108419819D02*
X110293922Y-108467438D01*
X110293922Y-108467438D02*
X110341541Y-108515057D01*
X110912970Y-109419819D02*
X110817732Y-109372200D01*
X110817732Y-109372200D02*
X110770113Y-109324580D01*
X110770113Y-109324580D02*
X110722494Y-109229342D01*
X110722494Y-109229342D02*
X110722494Y-108943628D01*
X110722494Y-108943628D02*
X110770113Y-108848390D01*
X110770113Y-108848390D02*
X110817732Y-108800771D01*
X110817732Y-108800771D02*
X110912970Y-108753152D01*
X110912970Y-108753152D02*
X111055827Y-108753152D01*
X111055827Y-108753152D02*
X111151065Y-108800771D01*
X111151065Y-108800771D02*
X111198684Y-108848390D01*
X111198684Y-108848390D02*
X111246303Y-108943628D01*
X111246303Y-108943628D02*
X111246303Y-109229342D01*
X111246303Y-109229342D02*
X111198684Y-109324580D01*
X111198684Y-109324580D02*
X111151065Y-109372200D01*
X111151065Y-109372200D02*
X111055827Y-109419819D01*
X111055827Y-109419819D02*
X110912970Y-109419819D01*
X111674875Y-109419819D02*
X111674875Y-108753152D01*
X111674875Y-108848390D02*
X111722494Y-108800771D01*
X111722494Y-108800771D02*
X111817732Y-108753152D01*
X111817732Y-108753152D02*
X111960589Y-108753152D01*
X111960589Y-108753152D02*
X112055827Y-108800771D01*
X112055827Y-108800771D02*
X112103446Y-108896009D01*
X112103446Y-108896009D02*
X112103446Y-109419819D01*
X112103446Y-108896009D02*
X112151065Y-108800771D01*
X112151065Y-108800771D02*
X112246303Y-108753152D01*
X112246303Y-108753152D02*
X112389160Y-108753152D01*
X112389160Y-108753152D02*
X112484399Y-108800771D01*
X112484399Y-108800771D02*
X112532018Y-108896009D01*
X112532018Y-108896009D02*
X112532018Y-109419819D01*
X113008208Y-108753152D02*
X113008208Y-109753152D01*
X113008208Y-108800771D02*
X113103446Y-108753152D01*
X113103446Y-108753152D02*
X113293922Y-108753152D01*
X113293922Y-108753152D02*
X113389160Y-108800771D01*
X113389160Y-108800771D02*
X113436779Y-108848390D01*
X113436779Y-108848390D02*
X113484398Y-108943628D01*
X113484398Y-108943628D02*
X113484398Y-109229342D01*
X113484398Y-109229342D02*
X113436779Y-109324580D01*
X113436779Y-109324580D02*
X113389160Y-109372200D01*
X113389160Y-109372200D02*
X113293922Y-109419819D01*
X113293922Y-109419819D02*
X113103446Y-109419819D01*
X113103446Y-109419819D02*
X113008208Y-109372200D01*
X114341541Y-109419819D02*
X114341541Y-108896009D01*
X114341541Y-108896009D02*
X114293922Y-108800771D01*
X114293922Y-108800771D02*
X114198684Y-108753152D01*
X114198684Y-108753152D02*
X114008208Y-108753152D01*
X114008208Y-108753152D02*
X113912970Y-108800771D01*
X114341541Y-109372200D02*
X114246303Y-109419819D01*
X114246303Y-109419819D02*
X114008208Y-109419819D01*
X114008208Y-109419819D02*
X113912970Y-109372200D01*
X113912970Y-109372200D02*
X113865351Y-109276961D01*
X113865351Y-109276961D02*
X113865351Y-109181723D01*
X113865351Y-109181723D02*
X113912970Y-109086485D01*
X113912970Y-109086485D02*
X114008208Y-109038866D01*
X114008208Y-109038866D02*
X114246303Y-109038866D01*
X114246303Y-109038866D02*
X114341541Y-108991247D01*
X114817732Y-108753152D02*
X114817732Y-109419819D01*
X114817732Y-108848390D02*
X114865351Y-108800771D01*
X114865351Y-108800771D02*
X114960589Y-108753152D01*
X114960589Y-108753152D02*
X115103446Y-108753152D01*
X115103446Y-108753152D02*
X115198684Y-108800771D01*
X115198684Y-108800771D02*
X115246303Y-108896009D01*
X115246303Y-108896009D02*
X115246303Y-109419819D01*
X115627256Y-108753152D02*
X115865351Y-109419819D01*
X116103446Y-108753152D02*
X115865351Y-109419819D01*
X115865351Y-109419819D02*
X115770113Y-109657914D01*
X115770113Y-109657914D02*
X115722494Y-109705533D01*
X115722494Y-109705533D02*
X115627256Y-109753152D01*
X105858866Y-87073220D02*
X105858866Y-86311316D01*
X105426779Y-93758866D02*
X106188684Y-93758866D01*
X105807731Y-94139819D02*
X105807731Y-93377914D01*
X108106779Y-94369819D02*
X108106779Y-93369819D01*
X108582969Y-93703152D02*
X108582969Y-94369819D01*
X108582969Y-93798390D02*
X108630588Y-93750771D01*
X108630588Y-93750771D02*
X108725826Y-93703152D01*
X108725826Y-93703152D02*
X108868683Y-93703152D01*
X108868683Y-93703152D02*
X108963921Y-93750771D01*
X108963921Y-93750771D02*
X109011540Y-93846009D01*
X109011540Y-93846009D02*
X109011540Y-94369819D01*
X109487731Y-93703152D02*
X109487731Y-94703152D01*
X109487731Y-93750771D02*
X109582969Y-93703152D01*
X109582969Y-93703152D02*
X109773445Y-93703152D01*
X109773445Y-93703152D02*
X109868683Y-93750771D01*
X109868683Y-93750771D02*
X109916302Y-93798390D01*
X109916302Y-93798390D02*
X109963921Y-93893628D01*
X109963921Y-93893628D02*
X109963921Y-94179342D01*
X109963921Y-94179342D02*
X109916302Y-94274580D01*
X109916302Y-94274580D02*
X109868683Y-94322200D01*
X109868683Y-94322200D02*
X109773445Y-94369819D01*
X109773445Y-94369819D02*
X109582969Y-94369819D01*
X109582969Y-94369819D02*
X109487731Y-94322200D01*
X110821064Y-93703152D02*
X110821064Y-94369819D01*
X110392493Y-93703152D02*
X110392493Y-94226961D01*
X110392493Y-94226961D02*
X110440112Y-94322200D01*
X110440112Y-94322200D02*
X110535350Y-94369819D01*
X110535350Y-94369819D02*
X110678207Y-94369819D01*
X110678207Y-94369819D02*
X110773445Y-94322200D01*
X110773445Y-94322200D02*
X110821064Y-94274580D01*
X111154398Y-93703152D02*
X111535350Y-93703152D01*
X111297255Y-93369819D02*
X111297255Y-94226961D01*
X111297255Y-94226961D02*
X111344874Y-94322200D01*
X111344874Y-94322200D02*
X111440112Y-94369819D01*
X111440112Y-94369819D02*
X111535350Y-94369819D01*
X178108866Y-94183220D02*
X178108866Y-93421316D01*
X172307255Y-93369819D02*
X172497731Y-93369819D01*
X172497731Y-93369819D02*
X172592969Y-93417438D01*
X172592969Y-93417438D02*
X172688207Y-93512676D01*
X172688207Y-93512676D02*
X172735826Y-93703152D01*
X172735826Y-93703152D02*
X172735826Y-94036485D01*
X172735826Y-94036485D02*
X172688207Y-94226961D01*
X172688207Y-94226961D02*
X172592969Y-94322200D01*
X172592969Y-94322200D02*
X172497731Y-94369819D01*
X172497731Y-94369819D02*
X172307255Y-94369819D01*
X172307255Y-94369819D02*
X172212017Y-94322200D01*
X172212017Y-94322200D02*
X172116779Y-94226961D01*
X172116779Y-94226961D02*
X172069160Y-94036485D01*
X172069160Y-94036485D02*
X172069160Y-93703152D01*
X172069160Y-93703152D02*
X172116779Y-93512676D01*
X172116779Y-93512676D02*
X172212017Y-93417438D01*
X172212017Y-93417438D02*
X172307255Y-93369819D01*
X173592969Y-93703152D02*
X173592969Y-94369819D01*
X173164398Y-93703152D02*
X173164398Y-94226961D01*
X173164398Y-94226961D02*
X173212017Y-94322200D01*
X173212017Y-94322200D02*
X173307255Y-94369819D01*
X173307255Y-94369819D02*
X173450112Y-94369819D01*
X173450112Y-94369819D02*
X173545350Y-94322200D01*
X173545350Y-94322200D02*
X173592969Y-94274580D01*
X173926303Y-93703152D02*
X174307255Y-93703152D01*
X174069160Y-93369819D02*
X174069160Y-94226961D01*
X174069160Y-94226961D02*
X174116779Y-94322200D01*
X174116779Y-94322200D02*
X174212017Y-94369819D01*
X174212017Y-94369819D02*
X174307255Y-94369819D01*
X174640589Y-93703152D02*
X174640589Y-94703152D01*
X174640589Y-93750771D02*
X174735827Y-93703152D01*
X174735827Y-93703152D02*
X174926303Y-93703152D01*
X174926303Y-93703152D02*
X175021541Y-93750771D01*
X175021541Y-93750771D02*
X175069160Y-93798390D01*
X175069160Y-93798390D02*
X175116779Y-93893628D01*
X175116779Y-93893628D02*
X175116779Y-94179342D01*
X175116779Y-94179342D02*
X175069160Y-94274580D01*
X175069160Y-94274580D02*
X175021541Y-94322200D01*
X175021541Y-94322200D02*
X174926303Y-94369819D01*
X174926303Y-94369819D02*
X174735827Y-94369819D01*
X174735827Y-94369819D02*
X174640589Y-94322200D01*
X175973922Y-93703152D02*
X175973922Y-94369819D01*
X175545351Y-93703152D02*
X175545351Y-94226961D01*
X175545351Y-94226961D02*
X175592970Y-94322200D01*
X175592970Y-94322200D02*
X175688208Y-94369819D01*
X175688208Y-94369819D02*
X175831065Y-94369819D01*
X175831065Y-94369819D02*
X175926303Y-94322200D01*
X175926303Y-94322200D02*
X175973922Y-94274580D01*
X176307256Y-93703152D02*
X176688208Y-93703152D01*
X176450113Y-93369819D02*
X176450113Y-94226961D01*
X176450113Y-94226961D02*
X176497732Y-94322200D01*
X176497732Y-94322200D02*
X176592970Y-94369819D01*
X176592970Y-94369819D02*
X176688208Y-94369819D01*
X172976666Y-86194819D02*
X172976666Y-86909104D01*
X172976666Y-86909104D02*
X172929047Y-87051961D01*
X172929047Y-87051961D02*
X172833809Y-87147200D01*
X172833809Y-87147200D02*
X172690952Y-87194819D01*
X172690952Y-87194819D02*
X172595714Y-87194819D01*
X173357619Y-86194819D02*
X173976666Y-86194819D01*
X173976666Y-86194819D02*
X173643333Y-86575771D01*
X173643333Y-86575771D02*
X173786190Y-86575771D01*
X173786190Y-86575771D02*
X173881428Y-86623390D01*
X173881428Y-86623390D02*
X173929047Y-86671009D01*
X173929047Y-86671009D02*
X173976666Y-86766247D01*
X173976666Y-86766247D02*
X173976666Y-87004342D01*
X173976666Y-87004342D02*
X173929047Y-87099580D01*
X173929047Y-87099580D02*
X173881428Y-87147200D01*
X173881428Y-87147200D02*
X173786190Y-87194819D01*
X173786190Y-87194819D02*
X173500476Y-87194819D01*
X173500476Y-87194819D02*
X173405238Y-87147200D01*
X173405238Y-87147200D02*
X173357619Y-87099580D01*
X114956666Y-114641009D02*
X114623333Y-114641009D01*
X114623333Y-115164819D02*
X114623333Y-114164819D01*
X114623333Y-114164819D02*
X115099523Y-114164819D01*
X116004285Y-115164819D02*
X115432857Y-115164819D01*
X115718571Y-115164819D02*
X115718571Y-114164819D01*
X115718571Y-114164819D02*
X115623333Y-114307676D01*
X115623333Y-114307676D02*
X115528095Y-114402914D01*
X115528095Y-114402914D02*
X115432857Y-114450533D01*
X128533333Y-100219580D02*
X128485714Y-100267200D01*
X128485714Y-100267200D02*
X128342857Y-100314819D01*
X128342857Y-100314819D02*
X128247619Y-100314819D01*
X128247619Y-100314819D02*
X128104762Y-100267200D01*
X128104762Y-100267200D02*
X128009524Y-100171961D01*
X128009524Y-100171961D02*
X127961905Y-100076723D01*
X127961905Y-100076723D02*
X127914286Y-99886247D01*
X127914286Y-99886247D02*
X127914286Y-99743390D01*
X127914286Y-99743390D02*
X127961905Y-99552914D01*
X127961905Y-99552914D02*
X128009524Y-99457676D01*
X128009524Y-99457676D02*
X128104762Y-99362438D01*
X128104762Y-99362438D02*
X128247619Y-99314819D01*
X128247619Y-99314819D02*
X128342857Y-99314819D01*
X128342857Y-99314819D02*
X128485714Y-99362438D01*
X128485714Y-99362438D02*
X128533333Y-99410057D01*
X129485714Y-100314819D02*
X128914286Y-100314819D01*
X129200000Y-100314819D02*
X129200000Y-99314819D01*
X129200000Y-99314819D02*
X129104762Y-99457676D01*
X129104762Y-99457676D02*
X129009524Y-99552914D01*
X129009524Y-99552914D02*
X128914286Y-99600533D01*
X155511905Y-89984819D02*
X155511905Y-88984819D01*
X155511905Y-88984819D02*
X155750000Y-88984819D01*
X155750000Y-88984819D02*
X155892857Y-89032438D01*
X155892857Y-89032438D02*
X155988095Y-89127676D01*
X155988095Y-89127676D02*
X156035714Y-89222914D01*
X156035714Y-89222914D02*
X156083333Y-89413390D01*
X156083333Y-89413390D02*
X156083333Y-89556247D01*
X156083333Y-89556247D02*
X156035714Y-89746723D01*
X156035714Y-89746723D02*
X155988095Y-89841961D01*
X155988095Y-89841961D02*
X155892857Y-89937200D01*
X155892857Y-89937200D02*
X155750000Y-89984819D01*
X155750000Y-89984819D02*
X155511905Y-89984819D01*
X157035714Y-89984819D02*
X156464286Y-89984819D01*
X156750000Y-89984819D02*
X156750000Y-88984819D01*
X156750000Y-88984819D02*
X156654762Y-89127676D01*
X156654762Y-89127676D02*
X156559524Y-89222914D01*
X156559524Y-89222914D02*
X156464286Y-89270533D01*
X148368095Y-91104819D02*
X148368095Y-90104819D01*
X148939523Y-91104819D02*
X148510952Y-90533390D01*
X148939523Y-90104819D02*
X148368095Y-90676247D01*
X110956666Y-86214819D02*
X110956666Y-86929104D01*
X110956666Y-86929104D02*
X110909047Y-87071961D01*
X110909047Y-87071961D02*
X110813809Y-87167200D01*
X110813809Y-87167200D02*
X110670952Y-87214819D01*
X110670952Y-87214819D02*
X110575714Y-87214819D01*
X111956666Y-87214819D02*
X111385238Y-87214819D01*
X111670952Y-87214819D02*
X111670952Y-86214819D01*
X111670952Y-86214819D02*
X111575714Y-86357676D01*
X111575714Y-86357676D02*
X111480476Y-86452914D01*
X111480476Y-86452914D02*
X111385238Y-86500533D01*
X144103333Y-89439580D02*
X144055714Y-89487200D01*
X144055714Y-89487200D02*
X143912857Y-89534819D01*
X143912857Y-89534819D02*
X143817619Y-89534819D01*
X143817619Y-89534819D02*
X143674762Y-89487200D01*
X143674762Y-89487200D02*
X143579524Y-89391961D01*
X143579524Y-89391961D02*
X143531905Y-89296723D01*
X143531905Y-89296723D02*
X143484286Y-89106247D01*
X143484286Y-89106247D02*
X143484286Y-88963390D01*
X143484286Y-88963390D02*
X143531905Y-88772914D01*
X143531905Y-88772914D02*
X143579524Y-88677676D01*
X143579524Y-88677676D02*
X143674762Y-88582438D01*
X143674762Y-88582438D02*
X143817619Y-88534819D01*
X143817619Y-88534819D02*
X143912857Y-88534819D01*
X143912857Y-88534819D02*
X144055714Y-88582438D01*
X144055714Y-88582438D02*
X144103333Y-88630057D01*
X144436667Y-88534819D02*
X145055714Y-88534819D01*
X145055714Y-88534819D02*
X144722381Y-88915771D01*
X144722381Y-88915771D02*
X144865238Y-88915771D01*
X144865238Y-88915771D02*
X144960476Y-88963390D01*
X144960476Y-88963390D02*
X145008095Y-89011009D01*
X145008095Y-89011009D02*
X145055714Y-89106247D01*
X145055714Y-89106247D02*
X145055714Y-89344342D01*
X145055714Y-89344342D02*
X145008095Y-89439580D01*
X145008095Y-89439580D02*
X144960476Y-89487200D01*
X144960476Y-89487200D02*
X144865238Y-89534819D01*
X144865238Y-89534819D02*
X144579524Y-89534819D01*
X144579524Y-89534819D02*
X144484286Y-89487200D01*
X144484286Y-89487200D02*
X144436667Y-89439580D01*
X117711905Y-87844819D02*
X117711905Y-86844819D01*
X117711905Y-86844819D02*
X117950000Y-86844819D01*
X117950000Y-86844819D02*
X118092857Y-86892438D01*
X118092857Y-86892438D02*
X118188095Y-86987676D01*
X118188095Y-86987676D02*
X118235714Y-87082914D01*
X118235714Y-87082914D02*
X118283333Y-87273390D01*
X118283333Y-87273390D02*
X118283333Y-87416247D01*
X118283333Y-87416247D02*
X118235714Y-87606723D01*
X118235714Y-87606723D02*
X118188095Y-87701961D01*
X118188095Y-87701961D02*
X118092857Y-87797200D01*
X118092857Y-87797200D02*
X117950000Y-87844819D01*
X117950000Y-87844819D02*
X117711905Y-87844819D01*
X118664286Y-86940057D02*
X118711905Y-86892438D01*
X118711905Y-86892438D02*
X118807143Y-86844819D01*
X118807143Y-86844819D02*
X119045238Y-86844819D01*
X119045238Y-86844819D02*
X119140476Y-86892438D01*
X119140476Y-86892438D02*
X119188095Y-86940057D01*
X119188095Y-86940057D02*
X119235714Y-87035295D01*
X119235714Y-87035295D02*
X119235714Y-87130533D01*
X119235714Y-87130533D02*
X119188095Y-87273390D01*
X119188095Y-87273390D02*
X118616667Y-87844819D01*
X118616667Y-87844819D02*
X119235714Y-87844819D01*
X149303333Y-121774819D02*
X148970000Y-121298628D01*
X148731905Y-121774819D02*
X148731905Y-120774819D01*
X148731905Y-120774819D02*
X149112857Y-120774819D01*
X149112857Y-120774819D02*
X149208095Y-120822438D01*
X149208095Y-120822438D02*
X149255714Y-120870057D01*
X149255714Y-120870057D02*
X149303333Y-120965295D01*
X149303333Y-120965295D02*
X149303333Y-121108152D01*
X149303333Y-121108152D02*
X149255714Y-121203390D01*
X149255714Y-121203390D02*
X149208095Y-121251009D01*
X149208095Y-121251009D02*
X149112857Y-121298628D01*
X149112857Y-121298628D02*
X148731905Y-121298628D01*
X150255714Y-121774819D02*
X149684286Y-121774819D01*
X149970000Y-121774819D02*
X149970000Y-120774819D01*
X149970000Y-120774819D02*
X149874762Y-120917676D01*
X149874762Y-120917676D02*
X149779524Y-121012914D01*
X149779524Y-121012914D02*
X149684286Y-121060533D01*
X143540595Y-101739819D02*
X143540595Y-102549342D01*
X143540595Y-102549342D02*
X143588214Y-102644580D01*
X143588214Y-102644580D02*
X143635833Y-102692200D01*
X143635833Y-102692200D02*
X143731071Y-102739819D01*
X143731071Y-102739819D02*
X143921547Y-102739819D01*
X143921547Y-102739819D02*
X144016785Y-102692200D01*
X144016785Y-102692200D02*
X144064404Y-102644580D01*
X144064404Y-102644580D02*
X144112023Y-102549342D01*
X144112023Y-102549342D02*
X144112023Y-101739819D01*
X145112023Y-102739819D02*
X144540595Y-102739819D01*
X144826309Y-102739819D02*
X144826309Y-101739819D01*
X144826309Y-101739819D02*
X144731071Y-101882676D01*
X144731071Y-101882676D02*
X144635833Y-101977914D01*
X144635833Y-101977914D02*
X144540595Y-102025533D01*
X138733333Y-106722180D02*
X138685714Y-106769800D01*
X138685714Y-106769800D02*
X138542857Y-106817419D01*
X138542857Y-106817419D02*
X138447619Y-106817419D01*
X138447619Y-106817419D02*
X138304762Y-106769800D01*
X138304762Y-106769800D02*
X138209524Y-106674561D01*
X138209524Y-106674561D02*
X138161905Y-106579323D01*
X138161905Y-106579323D02*
X138114286Y-106388847D01*
X138114286Y-106388847D02*
X138114286Y-106245990D01*
X138114286Y-106245990D02*
X138161905Y-106055514D01*
X138161905Y-106055514D02*
X138209524Y-105960276D01*
X138209524Y-105960276D02*
X138304762Y-105865038D01*
X138304762Y-105865038D02*
X138447619Y-105817419D01*
X138447619Y-105817419D02*
X138542857Y-105817419D01*
X138542857Y-105817419D02*
X138685714Y-105865038D01*
X138685714Y-105865038D02*
X138733333Y-105912657D01*
X139114286Y-105912657D02*
X139161905Y-105865038D01*
X139161905Y-105865038D02*
X139257143Y-105817419D01*
X139257143Y-105817419D02*
X139495238Y-105817419D01*
X139495238Y-105817419D02*
X139590476Y-105865038D01*
X139590476Y-105865038D02*
X139638095Y-105912657D01*
X139638095Y-105912657D02*
X139685714Y-106007895D01*
X139685714Y-106007895D02*
X139685714Y-106103133D01*
X139685714Y-106103133D02*
X139638095Y-106245990D01*
X139638095Y-106245990D02*
X139066667Y-106817419D01*
X139066667Y-106817419D02*
X139685714Y-106817419D01*
X118258333Y-91264819D02*
X117925000Y-90788628D01*
X117686905Y-91264819D02*
X117686905Y-90264819D01*
X117686905Y-90264819D02*
X118067857Y-90264819D01*
X118067857Y-90264819D02*
X118163095Y-90312438D01*
X118163095Y-90312438D02*
X118210714Y-90360057D01*
X118210714Y-90360057D02*
X118258333Y-90455295D01*
X118258333Y-90455295D02*
X118258333Y-90598152D01*
X118258333Y-90598152D02*
X118210714Y-90693390D01*
X118210714Y-90693390D02*
X118163095Y-90741009D01*
X118163095Y-90741009D02*
X118067857Y-90788628D01*
X118067857Y-90788628D02*
X117686905Y-90788628D01*
X118591667Y-90264819D02*
X119210714Y-90264819D01*
X119210714Y-90264819D02*
X118877381Y-90645771D01*
X118877381Y-90645771D02*
X119020238Y-90645771D01*
X119020238Y-90645771D02*
X119115476Y-90693390D01*
X119115476Y-90693390D02*
X119163095Y-90741009D01*
X119163095Y-90741009D02*
X119210714Y-90836247D01*
X119210714Y-90836247D02*
X119210714Y-91074342D01*
X119210714Y-91074342D02*
X119163095Y-91169580D01*
X119163095Y-91169580D02*
X119115476Y-91217200D01*
X119115476Y-91217200D02*
X119020238Y-91264819D01*
X119020238Y-91264819D02*
X118734524Y-91264819D01*
X118734524Y-91264819D02*
X118639286Y-91217200D01*
X118639286Y-91217200D02*
X118591667Y-91169580D01*
D11*
%TO.C,L1*%
X178824600Y-110220000D02*
G75*
G03*
X178824600Y-110220000I-12674600J0D01*
G01*
%TO.C,J3*%
X172370000Y-87170000D02*
X171730000Y-87170000D01*
X171730000Y-87170000D02*
X171730000Y-87570000D01*
X178710000Y-87410000D02*
X171970000Y-87410000D01*
X178710000Y-87410000D02*
X178710000Y-93190000D01*
X177590000Y-87410000D02*
X177590000Y-93190000D01*
X172490000Y-87410000D02*
X172490000Y-93190000D01*
X171970000Y-87410000D02*
X171970000Y-93190000D01*
X178710000Y-93190000D02*
X171970000Y-93190000D01*
%TO.C,F1*%
X107150000Y-114765000D02*
X107150000Y-116950000D01*
X107150000Y-122635000D02*
X107150000Y-120450000D01*
X114215000Y-114765000D02*
X107150000Y-114765000D01*
X114215000Y-114765000D02*
X114215000Y-116950000D01*
X114215000Y-122635000D02*
X107150000Y-122635000D01*
X114215000Y-122635000D02*
X114215000Y-120450000D01*
X133695000Y-114765000D02*
X133695000Y-116950000D01*
X133695000Y-115525000D02*
X114215000Y-115525000D01*
X133695000Y-121875000D02*
X114215000Y-121875000D01*
X133695000Y-122635000D02*
X133695000Y-120450000D01*
X133695000Y-122635000D02*
X140805000Y-122635000D01*
X140805000Y-114765000D02*
X133695000Y-114765000D01*
X140805000Y-116950000D02*
X140805000Y-114765000D01*
X140805000Y-120450000D02*
X140805000Y-122635000D01*
%TO.C,C1*%
X121615431Y-103895000D02*
X122915431Y-103895000D01*
X122265431Y-103245000D02*
X122265431Y-104545000D01*
X128700000Y-101030000D02*
X128700000Y-114190000D01*
X128740000Y-101030000D02*
X128740000Y-114190000D01*
X128780000Y-101030000D02*
X128780000Y-114190000D01*
X128820000Y-101031000D02*
X128820000Y-114189000D01*
X128860000Y-101031000D02*
X128860000Y-114189000D01*
X128900000Y-101033000D02*
X128900000Y-114187000D01*
X128940000Y-101034000D02*
X128940000Y-114186000D01*
X128980000Y-101035000D02*
X128980000Y-114185000D01*
X129020000Y-101037000D02*
X129020000Y-114183000D01*
X129060000Y-101039000D02*
X129060000Y-114181000D01*
X129100000Y-101042000D02*
X129100000Y-114178000D01*
X129140000Y-101044000D02*
X129140000Y-114176000D01*
X129180000Y-101047000D02*
X129180000Y-114173000D01*
X129220000Y-101050000D02*
X129220000Y-114170000D01*
X129260000Y-101053000D02*
X129260000Y-114167000D01*
X129300000Y-101057000D02*
X129300000Y-114163000D01*
X129340000Y-101061000D02*
X129340000Y-114159000D01*
X129380000Y-101065000D02*
X129380000Y-114155000D01*
X129421000Y-101069000D02*
X129421000Y-114151000D01*
X129461000Y-101073000D02*
X129461000Y-114147000D01*
X129501000Y-101078000D02*
X129501000Y-114142000D01*
X129541000Y-101083000D02*
X129541000Y-114137000D01*
X129581000Y-101088000D02*
X129581000Y-114132000D01*
X129621000Y-101094000D02*
X129621000Y-114126000D01*
X129661000Y-101099000D02*
X129661000Y-114121000D01*
X129701000Y-101105000D02*
X129701000Y-114115000D01*
X129741000Y-101112000D02*
X129741000Y-114108000D01*
X129781000Y-101118000D02*
X129781000Y-106170000D01*
X129781000Y-109050000D02*
X129781000Y-114102000D01*
X129821000Y-101125000D02*
X129821000Y-106170000D01*
X129821000Y-109050000D02*
X129821000Y-114095000D01*
X129861000Y-101132000D02*
X129861000Y-106170000D01*
X129861000Y-109050000D02*
X129861000Y-114088000D01*
X129901000Y-101139000D02*
X129901000Y-106170000D01*
X129901000Y-109050000D02*
X129901000Y-114081000D01*
X129941000Y-101147000D02*
X129941000Y-106170000D01*
X129941000Y-109050000D02*
X129941000Y-114073000D01*
X129981000Y-101154000D02*
X129981000Y-106170000D01*
X129981000Y-109050000D02*
X129981000Y-114066000D01*
X130021000Y-101162000D02*
X130021000Y-106170000D01*
X130021000Y-109050000D02*
X130021000Y-114058000D01*
X130061000Y-101171000D02*
X130061000Y-106170000D01*
X130061000Y-109050000D02*
X130061000Y-114049000D01*
X130101000Y-101179000D02*
X130101000Y-106170000D01*
X130101000Y-109050000D02*
X130101000Y-114041000D01*
X130141000Y-101188000D02*
X130141000Y-106170000D01*
X130141000Y-109050000D02*
X130141000Y-114032000D01*
X130181000Y-101197000D02*
X130181000Y-106170000D01*
X130181000Y-109050000D02*
X130181000Y-114023000D01*
X130221000Y-101206000D02*
X130221000Y-106170000D01*
X130221000Y-109050000D02*
X130221000Y-114014000D01*
X130261000Y-101216000D02*
X130261000Y-106170000D01*
X130261000Y-109050000D02*
X130261000Y-114004000D01*
X130301000Y-101226000D02*
X130301000Y-106170000D01*
X130301000Y-109050000D02*
X130301000Y-113994000D01*
X130341000Y-101236000D02*
X130341000Y-106170000D01*
X130341000Y-109050000D02*
X130341000Y-113984000D01*
X130381000Y-101246000D02*
X130381000Y-106170000D01*
X130381000Y-109050000D02*
X130381000Y-113974000D01*
X130421000Y-101257000D02*
X130421000Y-106170000D01*
X130421000Y-109050000D02*
X130421000Y-113963000D01*
X130461000Y-101268000D02*
X130461000Y-106170000D01*
X130461000Y-109050000D02*
X130461000Y-113952000D01*
X130501000Y-101279000D02*
X130501000Y-106170000D01*
X130501000Y-109050000D02*
X130501000Y-113941000D01*
X130541000Y-101290000D02*
X130541000Y-106170000D01*
X130541000Y-109050000D02*
X130541000Y-113930000D01*
X130581000Y-101302000D02*
X130581000Y-106170000D01*
X130581000Y-109050000D02*
X130581000Y-113918000D01*
X130621000Y-101314000D02*
X130621000Y-106170000D01*
X130621000Y-109050000D02*
X130621000Y-113906000D01*
X130661000Y-101326000D02*
X130661000Y-106170000D01*
X130661000Y-109050000D02*
X130661000Y-113894000D01*
X130701000Y-101339000D02*
X130701000Y-106170000D01*
X130701000Y-109050000D02*
X130701000Y-113881000D01*
X130741000Y-101352000D02*
X130741000Y-106170000D01*
X130741000Y-109050000D02*
X130741000Y-113868000D01*
X130781000Y-101365000D02*
X130781000Y-106170000D01*
X130781000Y-109050000D02*
X130781000Y-113855000D01*
X130821000Y-101378000D02*
X130821000Y-106170000D01*
X130821000Y-109050000D02*
X130821000Y-113842000D01*
X130861000Y-101392000D02*
X130861000Y-106170000D01*
X130861000Y-109050000D02*
X130861000Y-113828000D01*
X130901000Y-101406000D02*
X130901000Y-106170000D01*
X130901000Y-109050000D02*
X130901000Y-113814000D01*
X130941000Y-101420000D02*
X130941000Y-106170000D01*
X130941000Y-109050000D02*
X130941000Y-113800000D01*
X130981000Y-101435000D02*
X130981000Y-106170000D01*
X130981000Y-109050000D02*
X130981000Y-113785000D01*
X131021000Y-101449000D02*
X131021000Y-106170000D01*
X131021000Y-109050000D02*
X131021000Y-113771000D01*
X131061000Y-101464000D02*
X131061000Y-106170000D01*
X131061000Y-109050000D02*
X131061000Y-113756000D01*
X131101000Y-101480000D02*
X131101000Y-106170000D01*
X131101000Y-109050000D02*
X131101000Y-113740000D01*
X131141000Y-101496000D02*
X131141000Y-106170000D01*
X131141000Y-109050000D02*
X131141000Y-113724000D01*
X131181000Y-101512000D02*
X131181000Y-106170000D01*
X131181000Y-109050000D02*
X131181000Y-113708000D01*
X131221000Y-101528000D02*
X131221000Y-106170000D01*
X131221000Y-109050000D02*
X131221000Y-113692000D01*
X131261000Y-101545000D02*
X131261000Y-106170000D01*
X131261000Y-109050000D02*
X131261000Y-113675000D01*
X131301000Y-101561000D02*
X131301000Y-106170000D01*
X131301000Y-109050000D02*
X131301000Y-113659000D01*
X131341000Y-101579000D02*
X131341000Y-106170000D01*
X131341000Y-109050000D02*
X131341000Y-113641000D01*
X131381000Y-101596000D02*
X131381000Y-106170000D01*
X131381000Y-109050000D02*
X131381000Y-113624000D01*
X131421000Y-101614000D02*
X131421000Y-106170000D01*
X131421000Y-109050000D02*
X131421000Y-113606000D01*
X131461000Y-101632000D02*
X131461000Y-106170000D01*
X131461000Y-109050000D02*
X131461000Y-113588000D01*
X131501000Y-101651000D02*
X131501000Y-106170000D01*
X131501000Y-109050000D02*
X131501000Y-113569000D01*
X131541000Y-101670000D02*
X131541000Y-106170000D01*
X131541000Y-109050000D02*
X131541000Y-113550000D01*
X131581000Y-101689000D02*
X131581000Y-106170000D01*
X131581000Y-109050000D02*
X131581000Y-113531000D01*
X131621000Y-101708000D02*
X131621000Y-106170000D01*
X131621000Y-109050000D02*
X131621000Y-113512000D01*
X131661000Y-101728000D02*
X131661000Y-106170000D01*
X131661000Y-109050000D02*
X131661000Y-113492000D01*
X131701000Y-101748000D02*
X131701000Y-106170000D01*
X131701000Y-109050000D02*
X131701000Y-113472000D01*
X131741000Y-101769000D02*
X131741000Y-106170000D01*
X131741000Y-109050000D02*
X131741000Y-113451000D01*
X131781000Y-101790000D02*
X131781000Y-106170000D01*
X131781000Y-109050000D02*
X131781000Y-113430000D01*
X131821000Y-101811000D02*
X131821000Y-106170000D01*
X131821000Y-109050000D02*
X131821000Y-113409000D01*
X131861000Y-101832000D02*
X131861000Y-106170000D01*
X131861000Y-109050000D02*
X131861000Y-113388000D01*
X131901000Y-101854000D02*
X131901000Y-106170000D01*
X131901000Y-109050000D02*
X131901000Y-113366000D01*
X131941000Y-101877000D02*
X131941000Y-106170000D01*
X131941000Y-109050000D02*
X131941000Y-113343000D01*
X131981000Y-101899000D02*
X131981000Y-106170000D01*
X131981000Y-109050000D02*
X131981000Y-113321000D01*
X132021000Y-101922000D02*
X132021000Y-106170000D01*
X132021000Y-109050000D02*
X132021000Y-113298000D01*
X132061000Y-101946000D02*
X132061000Y-106170000D01*
X132061000Y-109050000D02*
X132061000Y-113274000D01*
X132101000Y-101969000D02*
X132101000Y-106170000D01*
X132101000Y-109050000D02*
X132101000Y-113251000D01*
X132141000Y-101993000D02*
X132141000Y-106170000D01*
X132141000Y-109050000D02*
X132141000Y-113227000D01*
X132181000Y-102018000D02*
X132181000Y-106170000D01*
X132181000Y-109050000D02*
X132181000Y-113202000D01*
X132221000Y-102043000D02*
X132221000Y-106170000D01*
X132221000Y-109050000D02*
X132221000Y-113177000D01*
X132261000Y-102068000D02*
X132261000Y-106170000D01*
X132261000Y-109050000D02*
X132261000Y-113152000D01*
X132301000Y-102094000D02*
X132301000Y-106170000D01*
X132301000Y-109050000D02*
X132301000Y-113126000D01*
X132341000Y-102120000D02*
X132341000Y-106170000D01*
X132341000Y-109050000D02*
X132341000Y-113100000D01*
X132381000Y-102147000D02*
X132381000Y-106170000D01*
X132381000Y-109050000D02*
X132381000Y-113073000D01*
X132421000Y-102174000D02*
X132421000Y-106170000D01*
X132421000Y-109050000D02*
X132421000Y-113046000D01*
X132461000Y-102201000D02*
X132461000Y-106170000D01*
X132461000Y-109050000D02*
X132461000Y-113019000D01*
X132501000Y-102229000D02*
X132501000Y-106170000D01*
X132501000Y-109050000D02*
X132501000Y-112991000D01*
X132541000Y-102257000D02*
X132541000Y-106170000D01*
X132541000Y-109050000D02*
X132541000Y-112963000D01*
X132581000Y-102286000D02*
X132581000Y-106170000D01*
X132581000Y-109050000D02*
X132581000Y-112934000D01*
X132621000Y-102315000D02*
X132621000Y-106170000D01*
X132621000Y-109050000D02*
X132621000Y-112905000D01*
X132661000Y-102345000D02*
X132661000Y-112875000D01*
X132701000Y-102375000D02*
X132701000Y-112845000D01*
X132741000Y-102405000D02*
X132741000Y-112815000D01*
X132781000Y-102436000D02*
X132781000Y-112784000D01*
X132821000Y-102468000D02*
X132821000Y-112752000D01*
X132861000Y-102500000D02*
X132861000Y-112720000D01*
X132901000Y-102532000D02*
X132901000Y-112688000D01*
X132941000Y-102566000D02*
X132941000Y-112654000D01*
X132981000Y-102599000D02*
X132981000Y-112621000D01*
X133021000Y-102633000D02*
X133021000Y-112587000D01*
X133061000Y-102668000D02*
X133061000Y-112552000D01*
X133101000Y-102703000D02*
X133101000Y-112517000D01*
X133141000Y-102739000D02*
X133141000Y-112481000D01*
X133181000Y-102776000D02*
X133181000Y-112444000D01*
X133221000Y-102813000D02*
X133221000Y-112407000D01*
X133261000Y-102850000D02*
X133261000Y-112370000D01*
X133301000Y-102889000D02*
X133301000Y-112331000D01*
X133341000Y-102928000D02*
X133341000Y-112292000D01*
X133381000Y-102967000D02*
X133381000Y-112253000D01*
X133421000Y-103008000D02*
X133421000Y-112212000D01*
X133461000Y-103049000D02*
X133461000Y-112171000D01*
X133501000Y-103091000D02*
X133501000Y-112129000D01*
X133541000Y-103133000D02*
X133541000Y-112087000D01*
X133581000Y-103176000D02*
X133581000Y-112044000D01*
X133621000Y-103220000D02*
X133621000Y-112000000D01*
X133661000Y-103265000D02*
X133661000Y-111955000D01*
X133701000Y-103311000D02*
X133701000Y-111909000D01*
X133741000Y-103357000D02*
X133741000Y-111863000D01*
X133781000Y-103405000D02*
X133781000Y-111815000D01*
X133821000Y-103453000D02*
X133821000Y-111767000D01*
X133861000Y-103502000D02*
X133861000Y-111718000D01*
X133901000Y-103553000D02*
X133901000Y-111667000D01*
X133941000Y-103604000D02*
X133941000Y-111616000D01*
X133981000Y-103656000D02*
X133981000Y-111564000D01*
X134021000Y-103710000D02*
X134021000Y-111510000D01*
X134061000Y-103764000D02*
X134061000Y-111456000D01*
X134101000Y-103820000D02*
X134101000Y-111400000D01*
X134141000Y-103877000D02*
X134141000Y-111343000D01*
X134181000Y-103935000D02*
X134181000Y-111285000D01*
X134221000Y-103995000D02*
X134221000Y-111225000D01*
X134261000Y-104056000D02*
X134261000Y-111164000D01*
X134301000Y-104119000D02*
X134301000Y-111101000D01*
X134341000Y-104183000D02*
X134341000Y-111037000D01*
X134381000Y-104249000D02*
X134381000Y-110971000D01*
X134421000Y-104317000D02*
X134421000Y-110903000D01*
X134461000Y-104387000D02*
X134461000Y-110833000D01*
X134501000Y-104458000D02*
X134501000Y-110762000D01*
X134541000Y-104532000D02*
X134541000Y-110688000D01*
X134581000Y-104608000D02*
X134581000Y-110612000D01*
X134621000Y-104687000D02*
X134621000Y-110533000D01*
X134661000Y-104768000D02*
X134661000Y-110452000D01*
X134701000Y-104852000D02*
X134701000Y-110368000D01*
X134741000Y-104940000D02*
X134741000Y-110280000D01*
X134781000Y-105031000D02*
X134781000Y-110189000D01*
X134821000Y-105126000D02*
X134821000Y-110094000D01*
X134861000Y-105225000D02*
X134861000Y-109995000D01*
X134901000Y-105329000D02*
X134901000Y-109891000D01*
X134941000Y-105439000D02*
X134941000Y-109781000D01*
X134981000Y-105555000D02*
X134981000Y-109665000D01*
X135021000Y-105679000D02*
X135021000Y-109541000D01*
X135061000Y-105812000D02*
X135061000Y-109408000D01*
X135101000Y-105957000D02*
X135101000Y-109263000D01*
X135141000Y-106116000D02*
X135141000Y-109104000D01*
X135181000Y-106295000D02*
X135181000Y-108925000D01*
X135221000Y-106503000D02*
X135221000Y-108717000D01*
X135261000Y-106760000D02*
X135261000Y-108460000D01*
X135301000Y-107135000D02*
X135301000Y-108085000D01*
X135320000Y-107610000D02*
G75*
G03*
X135320000Y-107610000I-6620000J0D01*
G01*
%TO.C,D1*%
X150470000Y-93250000D02*
X151380000Y-93250000D01*
X151380000Y-90530000D02*
X151380000Y-95970000D01*
X151380000Y-95970000D02*
X161120000Y-95970000D01*
X152805000Y-90530000D02*
X152805000Y-95970000D01*
X152925000Y-90530000D02*
X152925000Y-95970000D01*
X153045000Y-90530000D02*
X153045000Y-95970000D01*
X161120000Y-90530000D02*
X151380000Y-90530000D01*
X161120000Y-95970000D02*
X161120000Y-90530000D01*
X162030000Y-93250000D02*
X161120000Y-93250000D01*
%TO.C,G\u002A\u002A\u002A*%
G36*
X103639460Y-109825991D02*
G01*
X103632132Y-109833319D01*
X103624803Y-109825991D01*
X103632132Y-109818662D01*
X103639460Y-109825991D01*
G37*
G36*
X104152443Y-109752707D02*
G01*
X104145115Y-109760036D01*
X104137787Y-109752707D01*
X104145115Y-109745379D01*
X104152443Y-109752707D01*
G37*
G36*
X107215638Y-97913236D02*
G01*
X107209873Y-97941494D01*
X107194175Y-97989654D01*
X107171069Y-98051085D01*
X107143080Y-98119158D01*
X107112733Y-98187240D01*
X107105184Y-98203256D01*
X107064401Y-98280358D01*
X107019928Y-98344514D01*
X106966111Y-98401614D01*
X106897292Y-98457547D01*
X106807818Y-98518202D01*
X106794790Y-98526478D01*
X106680324Y-98599645D01*
X106568215Y-98672902D01*
X106461590Y-98744081D01*
X106363578Y-98811012D01*
X106277309Y-98871525D01*
X106205910Y-98923452D01*
X106152510Y-98964623D01*
X106120238Y-98992868D01*
X106116665Y-98996695D01*
X106084973Y-99037483D01*
X106074200Y-99068050D01*
X106082575Y-99096739D01*
X106092305Y-99111512D01*
X106098034Y-99119628D01*
X106104108Y-99125745D01*
X106113411Y-99129258D01*
X106128827Y-99129562D01*
X106153242Y-99126052D01*
X106189538Y-99118124D01*
X106240602Y-99105171D01*
X106309317Y-99086590D01*
X106398567Y-99061775D01*
X106511237Y-99030121D01*
X106601548Y-99004706D01*
X106790666Y-98952103D01*
X106955076Y-98907702D01*
X107097964Y-98870697D01*
X107222515Y-98840281D01*
X107331917Y-98815648D01*
X107417142Y-98798314D01*
X107509848Y-98781336D01*
X107589617Y-98768335D01*
X107652676Y-98759811D01*
X107695254Y-98756261D01*
X107713580Y-98758183D01*
X107714013Y-98759115D01*
X107701180Y-98766796D01*
X107667598Y-98779857D01*
X107622409Y-98794872D01*
X107579205Y-98809026D01*
X107514715Y-98831062D01*
X107435183Y-98858804D01*
X107346856Y-98890072D01*
X107259656Y-98921360D01*
X107079763Y-98985803D01*
X106908428Y-99046089D01*
X106747824Y-99101512D01*
X106600123Y-99151366D01*
X106467496Y-99194945D01*
X106352116Y-99231544D01*
X106256155Y-99260456D01*
X106181784Y-99280976D01*
X106131176Y-99292398D01*
X106111133Y-99294603D01*
X106075969Y-99288386D01*
X106034065Y-99274142D01*
X106032449Y-99273447D01*
X105977471Y-99236366D01*
X105943273Y-99181040D01*
X105929010Y-99105724D01*
X105929074Y-99060342D01*
X105936124Y-98993476D01*
X105951271Y-98945011D01*
X105967810Y-98916996D01*
X105998602Y-98884983D01*
X106052008Y-98841859D01*
X106124528Y-98789823D01*
X106212659Y-98731076D01*
X106312898Y-98667819D01*
X106421746Y-98602251D01*
X106535698Y-98536573D01*
X106651255Y-98472985D01*
X106764913Y-98413687D01*
X106784769Y-98403704D01*
X106858475Y-98362305D01*
X106922203Y-98315047D01*
X106980617Y-98257040D01*
X107038380Y-98183393D01*
X107100158Y-98089216D01*
X107126787Y-98045124D01*
X107160935Y-97988954D01*
X107189007Y-97945407D01*
X107208178Y-97918675D01*
X107215623Y-97912951D01*
X107215638Y-97913236D01*
G37*
G36*
X108559509Y-96927097D02*
G01*
X108726041Y-96951129D01*
X108885101Y-96994416D01*
X109033873Y-97054961D01*
X109169543Y-97130767D01*
X109289296Y-97219837D01*
X109390317Y-97320176D01*
X109469793Y-97429786D01*
X109524908Y-97546670D01*
X109546682Y-97627405D01*
X109556455Y-97668631D01*
X109573573Y-97730512D01*
X109595960Y-97805945D01*
X109621542Y-97887824D01*
X109633401Y-97924444D01*
X109672399Y-98051252D01*
X109698930Y-98158196D01*
X109713770Y-98251567D01*
X109717695Y-98337652D01*
X109711479Y-98422741D01*
X109702139Y-98481732D01*
X109652035Y-98754484D01*
X109605714Y-99014583D01*
X109563448Y-99260245D01*
X109525512Y-99489691D01*
X109492179Y-99701136D01*
X109463721Y-99892799D01*
X109440413Y-100062899D01*
X109422528Y-100209653D01*
X109410339Y-100331279D01*
X109404210Y-100423740D01*
X109402384Y-100481650D01*
X109402209Y-100535369D01*
X109404111Y-100589700D01*
X109408518Y-100649444D01*
X109415857Y-100719403D01*
X109426557Y-100804378D01*
X109441044Y-100909171D01*
X109457714Y-101024663D01*
X109488498Y-101229152D01*
X109517338Y-101406600D01*
X109544731Y-101559175D01*
X109571175Y-101689049D01*
X109597168Y-101798391D01*
X109623207Y-101889371D01*
X109649790Y-101964159D01*
X109677416Y-102024924D01*
X109693928Y-102054294D01*
X109717944Y-102098296D01*
X109723535Y-102119743D01*
X109711718Y-102118018D01*
X109683512Y-102092506D01*
X109664758Y-102071980D01*
X109615320Y-102004525D01*
X109567119Y-101915699D01*
X109519790Y-101804355D01*
X109472967Y-101669350D01*
X109426283Y-101509537D01*
X109379372Y-101323772D01*
X109331869Y-101110909D01*
X109287830Y-100892753D01*
X109266471Y-100781163D01*
X109250417Y-100693290D01*
X109239077Y-100624135D01*
X109231860Y-100568703D01*
X109228175Y-100521994D01*
X109227431Y-100479012D01*
X109229038Y-100434759D01*
X109230640Y-100409083D01*
X109242695Y-100273999D01*
X109261929Y-100119990D01*
X109288673Y-99944913D01*
X109323263Y-99746626D01*
X109366032Y-99522985D01*
X109377867Y-99463729D01*
X109402397Y-99343712D01*
X109425740Y-99234134D01*
X109449219Y-99129605D01*
X109474156Y-99024735D01*
X109501873Y-98914134D01*
X109533693Y-98792412D01*
X109570938Y-98654179D01*
X109614931Y-98494045D01*
X109622395Y-98467075D01*
X109642835Y-98365660D01*
X109647499Y-98261246D01*
X109635898Y-98148505D01*
X109607548Y-98022111D01*
X109570874Y-97902794D01*
X109544442Y-97823268D01*
X109519380Y-97746035D01*
X109498241Y-97679083D01*
X109483577Y-97630397D01*
X109481777Y-97624030D01*
X109438925Y-97517985D01*
X109371459Y-97421715D01*
X109278227Y-97334058D01*
X109158078Y-97253847D01*
X109069754Y-97207439D01*
X108915487Y-97142524D01*
X108765439Y-97100585D01*
X108609178Y-97079208D01*
X108498144Y-97075193D01*
X108420350Y-97075569D01*
X108363504Y-97078050D01*
X108319256Y-97083889D01*
X108279253Y-97094337D01*
X108235144Y-97110648D01*
X108219668Y-97116952D01*
X108113905Y-97169060D01*
X107996733Y-97241784D01*
X107873018Y-97331361D01*
X107747630Y-97434027D01*
X107625435Y-97546018D01*
X107511300Y-97663573D01*
X107508080Y-97667114D01*
X107464235Y-97713522D01*
X107427813Y-97748469D01*
X107402912Y-97768259D01*
X107393774Y-97770178D01*
X107399151Y-97748981D01*
X107420401Y-97709685D01*
X107454489Y-97656590D01*
X107498380Y-97593995D01*
X107549037Y-97526201D01*
X107603426Y-97457508D01*
X107658512Y-97392216D01*
X107668785Y-97380574D01*
X107813182Y-97233485D01*
X107959366Y-97114707D01*
X108106948Y-97024439D01*
X108255535Y-96962879D01*
X108404738Y-96930227D01*
X108554166Y-96926682D01*
X108559509Y-96927097D01*
G37*
G36*
X108045587Y-98837874D02*
G01*
X108087109Y-98856711D01*
X108161035Y-98899520D01*
X108210855Y-98949050D01*
X108241739Y-99010632D01*
X108244313Y-99018734D01*
X108251229Y-99057835D01*
X108256647Y-99120818D01*
X108260575Y-99202288D01*
X108263020Y-99296855D01*
X108263991Y-99399123D01*
X108263495Y-99503701D01*
X108261540Y-99605195D01*
X108258134Y-99698212D01*
X108253284Y-99777359D01*
X108246998Y-99837243D01*
X108243100Y-99859273D01*
X108228058Y-99914752D01*
X108205205Y-99979963D01*
X108173494Y-100057117D01*
X108131881Y-100148427D01*
X108079319Y-100256106D01*
X108014763Y-100382365D01*
X107937168Y-100529416D01*
X107849348Y-100692367D01*
X107766105Y-100844439D01*
X107688871Y-100982671D01*
X107614859Y-101111587D01*
X107541279Y-101235712D01*
X107465343Y-101359570D01*
X107384263Y-101487687D01*
X107295251Y-101624588D01*
X107195517Y-101774798D01*
X107082273Y-101942842D01*
X107043942Y-101999332D01*
X106977466Y-102110627D01*
X106927375Y-102226877D01*
X106892333Y-102353287D01*
X106871006Y-102495058D01*
X106862059Y-102657395D01*
X106861589Y-102710180D01*
X106867457Y-102878606D01*
X106885401Y-103055676D01*
X106915964Y-103243543D01*
X106959687Y-103444362D01*
X107017112Y-103660285D01*
X107088780Y-103893467D01*
X107175234Y-104146061D01*
X107277015Y-104420221D01*
X107318686Y-104527606D01*
X107379385Y-104682028D01*
X107431000Y-104811978D01*
X107475022Y-104920327D01*
X107512942Y-105009943D01*
X107546250Y-105083696D01*
X107576436Y-105144454D01*
X107604991Y-105195087D01*
X107633407Y-105238463D01*
X107663172Y-105277452D01*
X107695777Y-105314923D01*
X107732714Y-105353745D01*
X107764560Y-105385879D01*
X107862789Y-105476121D01*
X107970006Y-105558315D01*
X108088418Y-105633301D01*
X108220231Y-105701919D01*
X108367652Y-105765011D01*
X108532888Y-105823417D01*
X108718145Y-105877976D01*
X108925629Y-105929529D01*
X109157547Y-105978918D01*
X109416106Y-106026981D01*
X109474145Y-106037011D01*
X109578958Y-106055298D01*
X109681396Y-106073879D01*
X109775484Y-106091618D01*
X109855246Y-106107376D01*
X109914705Y-106120018D01*
X109933000Y-106124326D01*
X110035990Y-106145389D01*
X110155348Y-106161232D01*
X110293093Y-106171917D01*
X110451243Y-106177509D01*
X110631817Y-106178071D01*
X110836833Y-106173667D01*
X111068310Y-106164359D01*
X111121687Y-106161726D01*
X111180297Y-106159604D01*
X111211409Y-106160402D01*
X111216653Y-106163757D01*
X111197661Y-106169307D01*
X111156064Y-106176691D01*
X111093492Y-106185544D01*
X111011577Y-106195505D01*
X110929669Y-106204395D01*
X110822640Y-106213948D01*
X110703694Y-106221984D01*
X110578687Y-106228336D01*
X110453471Y-106232839D01*
X110333900Y-106235326D01*
X110225828Y-106235631D01*
X110135109Y-106233588D01*
X110067597Y-106229031D01*
X110066408Y-106228900D01*
X109996365Y-106219443D01*
X109916642Y-106206234D01*
X109853886Y-106194057D01*
X109800290Y-106183969D01*
X109725736Y-106171759D01*
X109638386Y-106158676D01*
X109546403Y-106145967D01*
X109502126Y-106140257D01*
X109217922Y-106100518D01*
X108960534Y-106055899D01*
X108727791Y-106005903D01*
X108517528Y-105950036D01*
X108327574Y-105887803D01*
X108228130Y-105849526D01*
X108072266Y-105780034D01*
X107937699Y-105706039D01*
X107816420Y-105622348D01*
X107700419Y-105523764D01*
X107647608Y-105472961D01*
X107595767Y-105420285D01*
X107551624Y-105371864D01*
X107512946Y-105323831D01*
X107477500Y-105272321D01*
X107443055Y-105213468D01*
X107407377Y-105143406D01*
X107368233Y-105058268D01*
X107323391Y-104954189D01*
X107270619Y-104827302D01*
X107260435Y-104802545D01*
X107133467Y-104484266D01*
X107023485Y-104188284D01*
X106930216Y-103913202D01*
X106853390Y-103657622D01*
X106792732Y-103420148D01*
X106747971Y-103199381D01*
X106718833Y-102993926D01*
X106705048Y-102802383D01*
X106706342Y-102623358D01*
X106722443Y-102455451D01*
X106753078Y-102297267D01*
X106763867Y-102255823D01*
X106791049Y-102169687D01*
X106825041Y-102088263D01*
X106869282Y-102005057D01*
X106927212Y-101913574D01*
X106999047Y-101811727D01*
X107099211Y-101670985D01*
X107207390Y-101512538D01*
X107320995Y-101340610D01*
X107437437Y-101159424D01*
X107554127Y-100973205D01*
X107668475Y-100786175D01*
X107777892Y-100602559D01*
X107879791Y-100426579D01*
X107971580Y-100262461D01*
X108050673Y-100114427D01*
X108102433Y-100011717D01*
X108135280Y-99938751D01*
X108159065Y-99870408D01*
X108177406Y-99794690D01*
X108191031Y-99718001D01*
X108200676Y-99643067D01*
X108208404Y-99554110D01*
X108214141Y-99456457D01*
X108217810Y-99355436D01*
X108219336Y-99256373D01*
X108218643Y-99164595D01*
X108215656Y-99085429D01*
X108210300Y-99024202D01*
X108202498Y-98986240D01*
X108201442Y-98983610D01*
X108179883Y-98954841D01*
X108140613Y-98919111D01*
X108093134Y-98884677D01*
X108043239Y-98851504D01*
X108018710Y-98832770D01*
X108019506Y-98828288D01*
X108045587Y-98837874D01*
G37*
G36*
X109773046Y-106413090D02*
G01*
X109777735Y-106445353D01*
X109781924Y-106496019D01*
X109785525Y-106561449D01*
X109788453Y-106638007D01*
X109790621Y-106722057D01*
X109791943Y-106809961D01*
X109792332Y-106898083D01*
X109791703Y-106982785D01*
X109789969Y-107060432D01*
X109787044Y-107127386D01*
X109782840Y-107180010D01*
X109780944Y-107195119D01*
X109776578Y-107228566D01*
X109772286Y-107256347D01*
X109765512Y-107279022D01*
X109753704Y-107297147D01*
X109734308Y-107311281D01*
X109704770Y-107321982D01*
X109662536Y-107329807D01*
X109605054Y-107335315D01*
X109529768Y-107339064D01*
X109434126Y-107341611D01*
X109315573Y-107343515D01*
X109171556Y-107345334D01*
X109088596Y-107346393D01*
X108923292Y-107348812D01*
X108784183Y-107351451D01*
X108668153Y-107354487D01*
X108572082Y-107358098D01*
X108492854Y-107362462D01*
X108427350Y-107367757D01*
X108372453Y-107374159D01*
X108325045Y-107381848D01*
X108282008Y-107390999D01*
X108274630Y-107392780D01*
X108246470Y-107404738D01*
X108246972Y-107419293D01*
X108275659Y-107435860D01*
X108322264Y-107451201D01*
X108386747Y-107469116D01*
X108456537Y-107488506D01*
X108483824Y-107496088D01*
X108559921Y-107524094D01*
X108612097Y-107562032D01*
X108645440Y-107615596D01*
X108665034Y-107690479D01*
X108666645Y-107700774D01*
X108677977Y-107776322D01*
X108686905Y-107827606D01*
X108695563Y-107859320D01*
X108706086Y-107876160D01*
X108720611Y-107882820D01*
X108741272Y-107883997D01*
X108749964Y-107883982D01*
X108779630Y-107880869D01*
X108832714Y-107872177D01*
X108904061Y-107858877D01*
X108988515Y-107841941D01*
X109080922Y-107822340D01*
X109104224Y-107817234D01*
X109248018Y-107786700D01*
X109367588Y-107764197D01*
X109466796Y-107749357D01*
X109549502Y-107741816D01*
X109619569Y-107741206D01*
X109680857Y-107747161D01*
X109731420Y-107757758D01*
X109792073Y-107769635D01*
X109863116Y-107777409D01*
X109937120Y-107780994D01*
X110006658Y-107780305D01*
X110064303Y-107775257D01*
X110102628Y-107765766D01*
X110109201Y-107762073D01*
X110122222Y-107750440D01*
X110128052Y-107735183D01*
X110126848Y-107709203D01*
X110118767Y-107665401D01*
X110112029Y-107633828D01*
X110097736Y-107570459D01*
X110082986Y-107509264D01*
X110071034Y-107463728D01*
X110063421Y-107410504D01*
X110074225Y-107374948D01*
X110101802Y-107360157D01*
X110124915Y-107362331D01*
X110140795Y-107364985D01*
X110146018Y-107358931D01*
X110139788Y-107338918D01*
X110121308Y-107299692D01*
X110112805Y-107282482D01*
X110088441Y-107228168D01*
X110075578Y-107181357D01*
X110071166Y-107127825D01*
X110071268Y-107088678D01*
X110073013Y-107042680D01*
X110076678Y-106978739D01*
X110081847Y-106901870D01*
X110088107Y-106817088D01*
X110095043Y-106729406D01*
X110102241Y-106643840D01*
X110109286Y-106565404D01*
X110115766Y-106499112D01*
X110121264Y-106449979D01*
X110125367Y-106423019D01*
X110126552Y-106419537D01*
X110128197Y-106431771D01*
X110129714Y-106469398D01*
X110131031Y-106528499D01*
X110132073Y-106605154D01*
X110132767Y-106695444D01*
X110133006Y-106763969D01*
X110133911Y-106895106D01*
X110136153Y-106998882D01*
X110139825Y-107077222D01*
X110145019Y-107132051D01*
X110151828Y-107165295D01*
X110152367Y-107166861D01*
X110168405Y-107201544D01*
X110196372Y-107252388D01*
X110231696Y-107311325D01*
X110254994Y-107347944D01*
X110307799Y-107435528D01*
X110339248Y-107503989D01*
X110349426Y-107554192D01*
X110338418Y-107587001D01*
X110306309Y-107603282D01*
X110280320Y-107605506D01*
X110241329Y-107605506D01*
X110247178Y-107709007D01*
X110249257Y-107765332D01*
X110246451Y-107801440D01*
X110236959Y-107826267D01*
X110219022Y-107848704D01*
X110162809Y-107888196D01*
X110082530Y-107913697D01*
X109980103Y-107924782D01*
X109883525Y-107922986D01*
X109814670Y-107917172D01*
X109749892Y-107909314D01*
X109699627Y-107900765D01*
X109685472Y-107897327D01*
X109638425Y-107888806D01*
X109580025Y-107887827D01*
X109506437Y-107894801D01*
X109413826Y-107910139D01*
X109298358Y-107934251D01*
X109260291Y-107942889D01*
X109115773Y-107975836D01*
X108996745Y-108002043D01*
X108900242Y-108021808D01*
X108823298Y-108035429D01*
X108762949Y-108043202D01*
X108716227Y-108045426D01*
X108680169Y-108042399D01*
X108651807Y-108034418D01*
X108628177Y-108021780D01*
X108610228Y-108008131D01*
X108568980Y-107955874D01*
X108537412Y-107877445D01*
X108516166Y-107774555D01*
X108512989Y-107749231D01*
X108509178Y-107713927D01*
X108504025Y-107689105D01*
X108492847Y-107671410D01*
X108470957Y-107657485D01*
X108433671Y-107643975D01*
X108376303Y-107627523D01*
X108322264Y-107612619D01*
X108221048Y-107577043D01*
X108148091Y-107534223D01*
X108103200Y-107483950D01*
X108086178Y-107426018D01*
X108093680Y-107369911D01*
X108113573Y-107327425D01*
X108146988Y-107293098D01*
X108196654Y-107266040D01*
X108265296Y-107245364D01*
X108355641Y-107230181D01*
X108470418Y-107219603D01*
X108571428Y-107214269D01*
X108663805Y-107212401D01*
X108780603Y-107213129D01*
X108917063Y-107216287D01*
X109068423Y-107221706D01*
X109229922Y-107229218D01*
X109396799Y-107238656D01*
X109549336Y-107248776D01*
X109610736Y-107252792D01*
X109649226Y-107253380D01*
X109671118Y-107249379D01*
X109682728Y-107239627D01*
X109690370Y-107222965D01*
X109690418Y-107222839D01*
X109698406Y-107189251D01*
X109707115Y-107131218D01*
X109716078Y-107053587D01*
X109724830Y-106961202D01*
X109732906Y-106858910D01*
X109739839Y-106751556D01*
X109744478Y-106660151D01*
X109748415Y-106583307D01*
X109753067Y-106512569D01*
X109757870Y-106455507D01*
X109762259Y-106419692D01*
X109762510Y-106418316D01*
X109767942Y-106402865D01*
X109773046Y-106413090D01*
G37*
G36*
X112323994Y-106261885D02*
G01*
X112329631Y-106286755D01*
X112331023Y-106293734D01*
X112335617Y-106323381D01*
X112342796Y-106377818D01*
X112352033Y-106452686D01*
X112362805Y-106543627D01*
X112374587Y-106646282D01*
X112386855Y-106756293D01*
X112388367Y-106770076D01*
X112400756Y-106880445D01*
X112412928Y-106983761D01*
X112424330Y-107075713D01*
X112434410Y-107151993D01*
X112442615Y-107208292D01*
X112448392Y-107240300D01*
X112448931Y-107242432D01*
X112465567Y-107278578D01*
X112498698Y-107330568D01*
X112544660Y-107392969D01*
X112580518Y-107437546D01*
X112634983Y-107505271D01*
X112671063Y-107555828D01*
X112691060Y-107592817D01*
X112697279Y-107619835D01*
X112697279Y-107620029D01*
X112686267Y-107666000D01*
X112657647Y-107697911D01*
X112623311Y-107708103D01*
X112604641Y-107712096D01*
X112604174Y-107729610D01*
X112609702Y-107745698D01*
X112622664Y-107803616D01*
X112623280Y-107867438D01*
X112612366Y-107925416D01*
X112594710Y-107961231D01*
X112566767Y-107989051D01*
X112529276Y-108011050D01*
X112478557Y-108028063D01*
X112410934Y-108040929D01*
X112322729Y-108050486D01*
X112210264Y-108057570D01*
X112162311Y-108059710D01*
X112066597Y-108063884D01*
X111993743Y-108068108D01*
X111937307Y-108073375D01*
X111890852Y-108080678D01*
X111847936Y-108091008D01*
X111802120Y-108105359D01*
X111751924Y-108122947D01*
X111598548Y-108177569D01*
X111470070Y-108222591D01*
X111363906Y-108258610D01*
X111277471Y-108286223D01*
X111208182Y-108306030D01*
X111153454Y-108318626D01*
X111110702Y-108324610D01*
X111077344Y-108324581D01*
X111050793Y-108319134D01*
X111028467Y-108308869D01*
X111008447Y-108294907D01*
X110975904Y-108257039D01*
X110944412Y-108199435D01*
X110918327Y-108131487D01*
X110902682Y-108066891D01*
X110893546Y-108024186D01*
X110882971Y-107992317D01*
X110880597Y-107987784D01*
X110860169Y-107975913D01*
X110816022Y-107963098D01*
X110753646Y-107950832D01*
X110732697Y-107947556D01*
X110629628Y-107928878D01*
X110552332Y-107906467D01*
X110497348Y-107878747D01*
X110461214Y-107844143D01*
X110446155Y-107817114D01*
X110431152Y-107764957D01*
X110432720Y-107717868D01*
X110452017Y-107675477D01*
X110490202Y-107637416D01*
X110548430Y-107603314D01*
X110627860Y-107572801D01*
X110729650Y-107545508D01*
X110854956Y-107521064D01*
X111004937Y-107499102D01*
X111180750Y-107479249D01*
X111383552Y-107461138D01*
X111612686Y-107444517D01*
X111698414Y-107438604D01*
X111780346Y-107432495D01*
X111851000Y-107426781D01*
X111902894Y-107422051D01*
X111916812Y-107420556D01*
X111993759Y-107411592D01*
X111993643Y-107219080D01*
X111992409Y-107139979D01*
X111989063Y-107040832D01*
X111984014Y-106930799D01*
X111977673Y-106819038D01*
X111971865Y-106733434D01*
X111965217Y-106639633D01*
X111959541Y-106552122D01*
X111955159Y-106476512D01*
X111952395Y-106418416D01*
X111951571Y-106383442D01*
X111951602Y-106381674D01*
X111953001Y-106323048D01*
X111966519Y-106389003D01*
X111977840Y-106450313D01*
X111991628Y-106534470D01*
X112007008Y-106635195D01*
X112023107Y-106746212D01*
X112039049Y-106861245D01*
X112053960Y-106974017D01*
X112066967Y-107078250D01*
X112077195Y-107167670D01*
X112082650Y-107222743D01*
X112089624Y-107317936D01*
X112090625Y-107388393D01*
X112084675Y-107438265D01*
X112070790Y-107471702D01*
X112047989Y-107492854D01*
X112015744Y-107505749D01*
X111988224Y-107511065D01*
X111936665Y-107518972D01*
X111866152Y-107528771D01*
X111781775Y-107539761D01*
X111688620Y-107551241D01*
X111663984Y-107554174D01*
X111479929Y-107576163D01*
X111322206Y-107595607D01*
X111187985Y-107612954D01*
X111074439Y-107628652D01*
X110978737Y-107643148D01*
X110898052Y-107656890D01*
X110829554Y-107670326D01*
X110770415Y-107683904D01*
X110717807Y-107698071D01*
X110678323Y-107710193D01*
X110623988Y-107729304D01*
X110593385Y-107744778D01*
X110587548Y-107757698D01*
X110607507Y-107769145D01*
X110654294Y-107780201D01*
X110728940Y-107791949D01*
X110760316Y-107796223D01*
X110849883Y-107809895D01*
X110915336Y-107825852D01*
X110961848Y-107847699D01*
X110994588Y-107879046D01*
X111018727Y-107923500D01*
X111039435Y-107984669D01*
X111041729Y-107992584D01*
X111062961Y-108064552D01*
X111079395Y-108112817D01*
X111093614Y-108142046D01*
X111108204Y-108156905D01*
X111125747Y-108162061D01*
X111135804Y-108162459D01*
X111162300Y-108157631D01*
X111210303Y-108144353D01*
X111273862Y-108124438D01*
X111347026Y-108099697D01*
X111378027Y-108088720D01*
X111521718Y-108037651D01*
X111641666Y-107996383D01*
X111741440Y-107964069D01*
X111824609Y-107939867D01*
X111894741Y-107922932D01*
X111955408Y-107912421D01*
X112010177Y-107907489D01*
X112062618Y-107907293D01*
X112116300Y-107910988D01*
X112125669Y-107911928D01*
X112200111Y-107916132D01*
X112279298Y-107914805D01*
X112354852Y-107908643D01*
X112418397Y-107898346D01*
X112461556Y-107884610D01*
X112463050Y-107883834D01*
X112486384Y-107859771D01*
X112492086Y-107839831D01*
X112486347Y-107809668D01*
X112470460Y-107758487D01*
X112446417Y-107691951D01*
X112416210Y-107615725D01*
X112398097Y-107572667D01*
X112384123Y-107536488D01*
X112383544Y-107514725D01*
X112397279Y-107495267D01*
X112404541Y-107487857D01*
X112430354Y-107469011D01*
X112448650Y-107466598D01*
X112461645Y-107469896D01*
X112456186Y-107452057D01*
X112432061Y-107412557D01*
X112419542Y-107394059D01*
X112390112Y-107342398D01*
X112366974Y-107286402D01*
X112361387Y-107266836D01*
X112357112Y-107236118D01*
X112352244Y-107180775D01*
X112346999Y-107105486D01*
X112341597Y-107014929D01*
X112336253Y-106913781D01*
X112331186Y-106806722D01*
X112326614Y-106698427D01*
X112322754Y-106593577D01*
X112319825Y-106496847D01*
X112318043Y-106412917D01*
X112317626Y-106346465D01*
X112317805Y-106330376D01*
X112318925Y-106281354D01*
X112320707Y-106259304D01*
X112323994Y-106261885D01*
G37*
G36*
X109806453Y-101835331D02*
G01*
X109842370Y-101845011D01*
X109897667Y-101862286D01*
X109974979Y-101887878D01*
X110076936Y-101922506D01*
X110091648Y-101927542D01*
X110235200Y-101976526D01*
X110355202Y-102017031D01*
X110455735Y-102050361D01*
X110540881Y-102077820D01*
X110614721Y-102100714D01*
X110681337Y-102120347D01*
X110744812Y-102138023D01*
X110777256Y-102146697D01*
X110894888Y-102181312D01*
X111033052Y-102227963D01*
X111187533Y-102284795D01*
X111354117Y-102349950D01*
X111528588Y-102421574D01*
X111706733Y-102497811D01*
X111884337Y-102576805D01*
X112057184Y-102656699D01*
X112221060Y-102735640D01*
X112371752Y-102811770D01*
X112505043Y-102883233D01*
X112616719Y-102948175D01*
X112660637Y-102975980D01*
X112859154Y-103105086D01*
X113058551Y-103232840D01*
X113257178Y-103358287D01*
X113453386Y-103480475D01*
X113645525Y-103598449D01*
X113831946Y-103711256D01*
X114010999Y-103817942D01*
X114181034Y-103917553D01*
X114340401Y-104009135D01*
X114487452Y-104091736D01*
X114620536Y-104164401D01*
X114738004Y-104226176D01*
X114838206Y-104276108D01*
X114919492Y-104313242D01*
X114980213Y-104336627D01*
X115018720Y-104345306D01*
X115027619Y-104344420D01*
X115052337Y-104331080D01*
X115092836Y-104303448D01*
X115142526Y-104266173D01*
X115174003Y-104241121D01*
X115255162Y-104176630D01*
X115318122Y-104130938D01*
X115366030Y-104102754D01*
X115402034Y-104090786D01*
X115429282Y-104093745D01*
X115450920Y-104110338D01*
X115460730Y-104123513D01*
X115479537Y-104166938D01*
X115496563Y-104233741D01*
X115511225Y-104318012D01*
X115522941Y-104413841D01*
X115531126Y-104515315D01*
X115535197Y-104616525D01*
X115534573Y-104711561D01*
X115528668Y-104794511D01*
X115527702Y-104802406D01*
X115509127Y-104909114D01*
X115482744Y-104991799D01*
X115446240Y-105055230D01*
X115397302Y-105104178D01*
X115373186Y-105121116D01*
X115292027Y-105168976D01*
X115186446Y-105224886D01*
X115059771Y-105287440D01*
X114915327Y-105355230D01*
X114756438Y-105426850D01*
X114586431Y-105500893D01*
X114408630Y-105575952D01*
X114226361Y-105650619D01*
X114042949Y-105723489D01*
X113861721Y-105793153D01*
X113686001Y-105858206D01*
X113519114Y-105917240D01*
X113386142Y-105961813D01*
X113301480Y-105989442D01*
X113233319Y-106011004D01*
X113176509Y-106026834D01*
X113125900Y-106037264D01*
X113076342Y-106042627D01*
X113022684Y-106043256D01*
X112959776Y-106039485D01*
X112882468Y-106031646D01*
X112785610Y-106020073D01*
X112682299Y-106007332D01*
X112565875Y-105993191D01*
X112475184Y-105982628D01*
X112406888Y-105975445D01*
X112357651Y-105971446D01*
X112324134Y-105970434D01*
X112303002Y-105972212D01*
X112290917Y-105976582D01*
X112284542Y-105983347D01*
X112284265Y-105983831D01*
X112265689Y-106005499D01*
X112231864Y-106036255D01*
X112203557Y-106059026D01*
X112167108Y-106085402D01*
X112137079Y-106100632D01*
X112103184Y-106107576D01*
X112055138Y-106109091D01*
X112024629Y-106108739D01*
X111954183Y-106106012D01*
X111880592Y-106100667D01*
X111825207Y-106094544D01*
X111698353Y-106071634D01*
X111577893Y-106040387D01*
X111469482Y-106002779D01*
X111378771Y-105960786D01*
X111311415Y-105916384D01*
X111308560Y-105913962D01*
X111281313Y-105887322D01*
X111278169Y-105875837D01*
X111298025Y-105879697D01*
X111339780Y-105899092D01*
X111353291Y-105906271D01*
X111462948Y-105952843D01*
X111597715Y-105987233D01*
X111758225Y-106009573D01*
X111886436Y-106018122D01*
X112094232Y-106026812D01*
X112173086Y-105944087D01*
X112251941Y-105861363D01*
X112370611Y-105861363D01*
X112424688Y-105862660D01*
X112500487Y-105866255D01*
X112590546Y-105871704D01*
X112687402Y-105878565D01*
X112765496Y-105884833D01*
X112863092Y-105893010D01*
X112940825Y-105898313D01*
X113004779Y-105899832D01*
X113061037Y-105896655D01*
X113115681Y-105887869D01*
X113174794Y-105872565D01*
X113244458Y-105849828D01*
X113330757Y-105818749D01*
X113415455Y-105787416D01*
X113495385Y-105757217D01*
X113597847Y-105717581D01*
X113718310Y-105670327D01*
X113852241Y-105617275D01*
X113995107Y-105560245D01*
X114142376Y-105501058D01*
X114289516Y-105441532D01*
X114431993Y-105383487D01*
X114565274Y-105328743D01*
X114684829Y-105279121D01*
X114756540Y-105248990D01*
X114883874Y-105193919D01*
X115001315Y-105140736D01*
X115105893Y-105090939D01*
X115194640Y-105046023D01*
X115264584Y-105007485D01*
X115312756Y-104976820D01*
X115334550Y-104957830D01*
X115359348Y-104907893D01*
X115377357Y-104830214D01*
X115388484Y-104725591D01*
X115392633Y-104594819D01*
X115391125Y-104480617D01*
X115388313Y-104401154D01*
X115384887Y-104332315D01*
X115381185Y-104279293D01*
X115377544Y-104247283D01*
X115375538Y-104240333D01*
X115360780Y-104244676D01*
X115327950Y-104263438D01*
X115282373Y-104293375D01*
X115244237Y-104320331D01*
X115186043Y-104360931D01*
X115130078Y-104397075D01*
X115084555Y-104423588D01*
X115066441Y-104432400D01*
X115033310Y-104444727D01*
X115007347Y-104447104D01*
X114977227Y-104438385D01*
X114935082Y-104419080D01*
X114897850Y-104400764D01*
X114858741Y-104380455D01*
X114814073Y-104356056D01*
X114760167Y-104325469D01*
X114693341Y-104286596D01*
X114609916Y-104237339D01*
X114506210Y-104175601D01*
X114470735Y-104154417D01*
X114343698Y-104078678D01*
X114225843Y-104008733D01*
X114120595Y-103946597D01*
X114031375Y-103894286D01*
X113961605Y-103853818D01*
X113928439Y-103834894D01*
X113893601Y-103814960D01*
X113841819Y-103785002D01*
X113781421Y-103749848D01*
X113745230Y-103728691D01*
X113678808Y-103690250D01*
X113593625Y-103641667D01*
X113493024Y-103584794D01*
X113380349Y-103521484D01*
X113258941Y-103453586D01*
X113132144Y-103382953D01*
X113003301Y-103311437D01*
X112875754Y-103240888D01*
X112752847Y-103173158D01*
X112637922Y-103110098D01*
X112534323Y-103053561D01*
X112445392Y-103005398D01*
X112374472Y-102967459D01*
X112324906Y-102941597D01*
X112316206Y-102937217D01*
X112192634Y-102876743D01*
X112057103Y-102812156D01*
X111912927Y-102744906D01*
X111763419Y-102676441D01*
X111611893Y-102608209D01*
X111461664Y-102541659D01*
X111316044Y-102478239D01*
X111178348Y-102419398D01*
X111051890Y-102366585D01*
X110939983Y-102321247D01*
X110845942Y-102284834D01*
X110773080Y-102258793D01*
X110741566Y-102248938D01*
X110694203Y-102233523D01*
X110627938Y-102209284D01*
X110546741Y-102177905D01*
X110454584Y-102141071D01*
X110355439Y-102100468D01*
X110253278Y-102057779D01*
X110152071Y-102014691D01*
X110055791Y-101972889D01*
X109968409Y-101934056D01*
X109893896Y-101899878D01*
X109836225Y-101872039D01*
X109799366Y-101852226D01*
X109788664Y-101844668D01*
X109782233Y-101835880D01*
X109787285Y-101832527D01*
X109806453Y-101835331D01*
G37*
%TO.C,J1*%
X111590000Y-93430000D02*
X112230000Y-93430000D01*
X112230000Y-93430000D02*
X112230000Y-93030000D01*
X105250000Y-93190000D02*
X111990000Y-93190000D01*
X105250000Y-93190000D02*
X105250000Y-87410000D01*
X106370000Y-93190000D02*
X106370000Y-87410000D01*
X111470000Y-93190000D02*
X111470000Y-87410000D01*
X111990000Y-93190000D02*
X111990000Y-87410000D01*
X105250000Y-87410000D02*
X111990000Y-87410000D01*
%TO.C,C3*%
X128027755Y-89775000D02*
X129627755Y-89775000D01*
X128827755Y-88975000D02*
X128827755Y-90575000D01*
X136717246Y-86249000D02*
X136717246Y-102411000D01*
X136757246Y-86250000D02*
X136757246Y-102410000D01*
X136797246Y-86250000D02*
X136797246Y-102410000D01*
X136837246Y-86250000D02*
X136837246Y-102410000D01*
X136877246Y-86251000D02*
X136877246Y-102409000D01*
X136917246Y-86252000D02*
X136917246Y-102408000D01*
X136957246Y-86253000D02*
X136957246Y-102407000D01*
X136997246Y-86254000D02*
X136997246Y-102406000D01*
X137037246Y-86256000D02*
X137037246Y-102404000D01*
X137077246Y-86257000D02*
X137077246Y-102403000D01*
X137117246Y-86259000D02*
X137117246Y-102401000D01*
X137157246Y-86261000D02*
X137157246Y-102399000D01*
X137197246Y-86264000D02*
X137197246Y-102396000D01*
X137237246Y-86266000D02*
X137237246Y-102394000D01*
X137277246Y-86269000D02*
X137277246Y-102391000D01*
X137317246Y-86272000D02*
X137317246Y-102388000D01*
X137357246Y-86275000D02*
X137357246Y-102385000D01*
X137397246Y-86278000D02*
X137397246Y-102382000D01*
X137438246Y-86281000D02*
X137438246Y-102379000D01*
X137478246Y-86285000D02*
X137478246Y-102375000D01*
X137518246Y-86289000D02*
X137518246Y-102371000D01*
X137558246Y-86293000D02*
X137558246Y-102367000D01*
X137598246Y-86297000D02*
X137598246Y-102363000D01*
X137638246Y-86302000D02*
X137638246Y-102358000D01*
X137678246Y-86306000D02*
X137678246Y-102354000D01*
X137718246Y-86311000D02*
X137718246Y-102349000D01*
X137758246Y-86316000D02*
X137758246Y-102344000D01*
X137798246Y-86322000D02*
X137798246Y-102338000D01*
X137838246Y-86327000D02*
X137838246Y-102333000D01*
X137878246Y-86333000D02*
X137878246Y-102327000D01*
X137918246Y-86339000D02*
X137918246Y-102321000D01*
X137958246Y-86345000D02*
X137958246Y-102315000D01*
X137998246Y-86351000D02*
X137998246Y-102309000D01*
X138038246Y-86358000D02*
X138038246Y-102302000D01*
X138078246Y-86364000D02*
X138078246Y-102296000D01*
X138118246Y-86371000D02*
X138118246Y-102289000D01*
X138158246Y-86378000D02*
X138158246Y-102282000D01*
X138198246Y-86386000D02*
X138198246Y-102274000D01*
X138238246Y-86393000D02*
X138238246Y-102267000D01*
X138278246Y-86401000D02*
X138278246Y-102259000D01*
X138318246Y-86409000D02*
X138318246Y-102251000D01*
X138358246Y-86417000D02*
X138358246Y-102243000D01*
X138398246Y-86425000D02*
X138398246Y-102235000D01*
X138438246Y-86434000D02*
X138438246Y-102226000D01*
X138478246Y-86443000D02*
X138478246Y-102217000D01*
X138518246Y-86452000D02*
X138518246Y-102208000D01*
X138558246Y-86461000D02*
X138558246Y-102199000D01*
X138598246Y-86470000D02*
X138598246Y-102190000D01*
X138638246Y-86480000D02*
X138638246Y-102180000D01*
X138678246Y-86490000D02*
X138678246Y-102170000D01*
X138718246Y-86500000D02*
X138718246Y-102160000D01*
X138758246Y-86510000D02*
X138758246Y-102150000D01*
X138798246Y-86520000D02*
X138798246Y-102140000D01*
X138838246Y-86531000D02*
X138838246Y-102129000D01*
X138878246Y-86542000D02*
X138878246Y-102118000D01*
X138918246Y-86553000D02*
X138918246Y-102107000D01*
X138958246Y-86565000D02*
X138958246Y-102095000D01*
X138998246Y-86576000D02*
X138998246Y-102084000D01*
X139038246Y-86588000D02*
X139038246Y-92890000D01*
X139038246Y-95770000D02*
X139038246Y-102072000D01*
X139078246Y-86600000D02*
X139078246Y-92890000D01*
X139078246Y-95770000D02*
X139078246Y-102060000D01*
X139118246Y-86612000D02*
X139118246Y-92890000D01*
X139118246Y-95770000D02*
X139118246Y-102048000D01*
X139158246Y-86625000D02*
X139158246Y-92890000D01*
X139158246Y-95770000D02*
X139158246Y-102035000D01*
X139198246Y-86637000D02*
X139198246Y-92890000D01*
X139198246Y-95770000D02*
X139198246Y-102023000D01*
X139238246Y-86650000D02*
X139238246Y-92890000D01*
X139238246Y-95770000D02*
X139238246Y-102010000D01*
X139278246Y-86664000D02*
X139278246Y-92890000D01*
X139278246Y-95770000D02*
X139278246Y-101996000D01*
X139318246Y-86677000D02*
X139318246Y-92890000D01*
X139318246Y-95770000D02*
X139318246Y-101983000D01*
X139358246Y-86691000D02*
X139358246Y-92890000D01*
X139358246Y-95770000D02*
X139358246Y-101969000D01*
X139398246Y-86705000D02*
X139398246Y-92890000D01*
X139398246Y-95770000D02*
X139398246Y-101955000D01*
X139438246Y-86719000D02*
X139438246Y-92890000D01*
X139438246Y-95770000D02*
X139438246Y-101941000D01*
X139478246Y-86733000D02*
X139478246Y-92890000D01*
X139478246Y-95770000D02*
X139478246Y-101927000D01*
X139518246Y-86748000D02*
X139518246Y-92890000D01*
X139518246Y-95770000D02*
X139518246Y-101912000D01*
X139558246Y-86762000D02*
X139558246Y-92890000D01*
X139558246Y-95770000D02*
X139558246Y-101898000D01*
X139598246Y-86777000D02*
X139598246Y-92890000D01*
X139598246Y-95770000D02*
X139598246Y-101883000D01*
X139638246Y-86793000D02*
X139638246Y-92890000D01*
X139638246Y-95770000D02*
X139638246Y-101867000D01*
X139678246Y-86808000D02*
X139678246Y-92890000D01*
X139678246Y-95770000D02*
X139678246Y-101852000D01*
X139718246Y-86824000D02*
X139718246Y-92890000D01*
X139718246Y-95770000D02*
X139718246Y-101836000D01*
X139758246Y-86840000D02*
X139758246Y-92890000D01*
X139758246Y-95770000D02*
X139758246Y-101820000D01*
X139798246Y-86856000D02*
X139798246Y-92890000D01*
X139798246Y-95770000D02*
X139798246Y-101804000D01*
X139838246Y-86873000D02*
X139838246Y-92890000D01*
X139838246Y-95770000D02*
X139838246Y-101787000D01*
X139878246Y-86890000D02*
X139878246Y-92890000D01*
X139878246Y-95770000D02*
X139878246Y-101770000D01*
X139918246Y-86907000D02*
X139918246Y-92890000D01*
X139918246Y-95770000D02*
X139918246Y-101753000D01*
X139958246Y-86924000D02*
X139958246Y-92890000D01*
X139958246Y-95770000D02*
X139958246Y-101736000D01*
X139998246Y-86941000D02*
X139998246Y-92890000D01*
X139998246Y-95770000D02*
X139998246Y-101719000D01*
X140038246Y-86959000D02*
X140038246Y-92890000D01*
X140038246Y-95770000D02*
X140038246Y-101701000D01*
X140078246Y-86977000D02*
X140078246Y-92890000D01*
X140078246Y-95770000D02*
X140078246Y-101683000D01*
X140118246Y-86996000D02*
X140118246Y-92890000D01*
X140118246Y-95770000D02*
X140118246Y-101664000D01*
X140158246Y-87014000D02*
X140158246Y-92890000D01*
X140158246Y-95770000D02*
X140158246Y-101646000D01*
X140198246Y-87033000D02*
X140198246Y-92890000D01*
X140198246Y-95770000D02*
X140198246Y-101627000D01*
X140238246Y-87052000D02*
X140238246Y-92890000D01*
X140238246Y-95770000D02*
X140238246Y-101608000D01*
X140278246Y-87072000D02*
X140278246Y-92890000D01*
X140278246Y-95770000D02*
X140278246Y-101588000D01*
X140318246Y-87091000D02*
X140318246Y-92890000D01*
X140318246Y-95770000D02*
X140318246Y-101569000D01*
X140358246Y-87111000D02*
X140358246Y-92890000D01*
X140358246Y-95770000D02*
X140358246Y-101549000D01*
X140398246Y-87131000D02*
X140398246Y-92890000D01*
X140398246Y-95770000D02*
X140398246Y-101529000D01*
X140438246Y-87152000D02*
X140438246Y-92890000D01*
X140438246Y-95770000D02*
X140438246Y-101508000D01*
X140478246Y-87173000D02*
X140478246Y-92890000D01*
X140478246Y-95770000D02*
X140478246Y-101487000D01*
X140518246Y-87194000D02*
X140518246Y-92890000D01*
X140518246Y-95770000D02*
X140518246Y-101466000D01*
X140558246Y-87215000D02*
X140558246Y-92890000D01*
X140558246Y-95770000D02*
X140558246Y-101445000D01*
X140598246Y-87236000D02*
X140598246Y-92890000D01*
X140598246Y-95770000D02*
X140598246Y-101424000D01*
X140638246Y-87258000D02*
X140638246Y-92890000D01*
X140638246Y-95770000D02*
X140638246Y-101402000D01*
X140678246Y-87281000D02*
X140678246Y-92890000D01*
X140678246Y-95770000D02*
X140678246Y-101379000D01*
X140718246Y-87303000D02*
X140718246Y-92890000D01*
X140718246Y-95770000D02*
X140718246Y-101357000D01*
X140758246Y-87326000D02*
X140758246Y-92890000D01*
X140758246Y-95770000D02*
X140758246Y-101334000D01*
X140798246Y-87349000D02*
X140798246Y-92890000D01*
X140798246Y-95770000D02*
X140798246Y-101311000D01*
X140838246Y-87372000D02*
X140838246Y-92890000D01*
X140838246Y-95770000D02*
X140838246Y-101288000D01*
X140878246Y-87396000D02*
X140878246Y-92890000D01*
X140878246Y-95770000D02*
X140878246Y-101264000D01*
X140918246Y-87420000D02*
X140918246Y-92890000D01*
X140918246Y-95770000D02*
X140918246Y-101240000D01*
X140958246Y-87444000D02*
X140958246Y-92890000D01*
X140958246Y-95770000D02*
X140958246Y-101216000D01*
X140998246Y-87469000D02*
X140998246Y-92890000D01*
X140998246Y-95770000D02*
X140998246Y-101191000D01*
X141038246Y-87494000D02*
X141038246Y-92890000D01*
X141038246Y-95770000D02*
X141038246Y-101166000D01*
X141078246Y-87519000D02*
X141078246Y-92890000D01*
X141078246Y-95770000D02*
X141078246Y-101141000D01*
X141118246Y-87545000D02*
X141118246Y-92890000D01*
X141118246Y-95770000D02*
X141118246Y-101115000D01*
X141158246Y-87571000D02*
X141158246Y-92890000D01*
X141158246Y-95770000D02*
X141158246Y-101089000D01*
X141198246Y-87597000D02*
X141198246Y-92890000D01*
X141198246Y-95770000D02*
X141198246Y-101063000D01*
X141238246Y-87624000D02*
X141238246Y-92890000D01*
X141238246Y-95770000D02*
X141238246Y-101036000D01*
X141278246Y-87651000D02*
X141278246Y-92890000D01*
X141278246Y-95770000D02*
X141278246Y-101009000D01*
X141318246Y-87678000D02*
X141318246Y-92890000D01*
X141318246Y-95770000D02*
X141318246Y-100982000D01*
X141358246Y-87706000D02*
X141358246Y-92890000D01*
X141358246Y-95770000D02*
X141358246Y-100954000D01*
X141398246Y-87734000D02*
X141398246Y-92890000D01*
X141398246Y-95770000D02*
X141398246Y-100926000D01*
X141438246Y-87762000D02*
X141438246Y-92890000D01*
X141438246Y-95770000D02*
X141438246Y-100898000D01*
X141478246Y-87791000D02*
X141478246Y-92890000D01*
X141478246Y-95770000D02*
X141478246Y-100869000D01*
X141518246Y-87820000D02*
X141518246Y-92890000D01*
X141518246Y-95770000D02*
X141518246Y-100840000D01*
X141558246Y-87850000D02*
X141558246Y-92890000D01*
X141558246Y-95770000D02*
X141558246Y-100810000D01*
X141598246Y-87880000D02*
X141598246Y-92890000D01*
X141598246Y-95770000D02*
X141598246Y-100780000D01*
X141638246Y-87910000D02*
X141638246Y-92890000D01*
X141638246Y-95770000D02*
X141638246Y-100750000D01*
X141678246Y-87940000D02*
X141678246Y-92890000D01*
X141678246Y-95770000D02*
X141678246Y-100720000D01*
X141718246Y-87972000D02*
X141718246Y-92890000D01*
X141718246Y-95770000D02*
X141718246Y-100688000D01*
X141758246Y-88003000D02*
X141758246Y-92890000D01*
X141758246Y-95770000D02*
X141758246Y-100657000D01*
X141798246Y-88035000D02*
X141798246Y-92890000D01*
X141798246Y-95770000D02*
X141798246Y-100625000D01*
X141838246Y-88067000D02*
X141838246Y-92890000D01*
X141838246Y-95770000D02*
X141838246Y-100593000D01*
X141878246Y-88100000D02*
X141878246Y-92890000D01*
X141878246Y-95770000D02*
X141878246Y-100560000D01*
X141918246Y-88133000D02*
X141918246Y-100527000D01*
X141958246Y-88167000D02*
X141958246Y-100493000D01*
X141998246Y-88201000D02*
X141998246Y-100459000D01*
X142038246Y-88235000D02*
X142038246Y-100425000D01*
X142078246Y-88270000D02*
X142078246Y-100390000D01*
X142118246Y-88305000D02*
X142118246Y-100355000D01*
X142158246Y-88341000D02*
X142158246Y-100319000D01*
X142198246Y-88378000D02*
X142198246Y-100282000D01*
X142238246Y-88414000D02*
X142238246Y-100246000D01*
X142278246Y-88452000D02*
X142278246Y-100208000D01*
X142318246Y-88490000D02*
X142318246Y-100170000D01*
X142358246Y-88528000D02*
X142358246Y-100132000D01*
X142398246Y-88567000D02*
X142398246Y-100093000D01*
X142438246Y-88606000D02*
X142438246Y-100054000D01*
X142478246Y-88646000D02*
X142478246Y-100014000D01*
X142518246Y-88687000D02*
X142518246Y-99973000D01*
X142558246Y-88728000D02*
X142558246Y-99932000D01*
X142598246Y-88770000D02*
X142598246Y-99890000D01*
X142638246Y-88812000D02*
X142638246Y-99848000D01*
X142678246Y-88855000D02*
X142678246Y-99805000D01*
X142718246Y-88898000D02*
X142718246Y-99762000D01*
X142758246Y-88942000D02*
X142758246Y-99718000D01*
X142798246Y-88987000D02*
X142798246Y-99673000D01*
X142838246Y-89033000D02*
X142838246Y-99627000D01*
X142878246Y-89079000D02*
X142878246Y-99581000D01*
X142918246Y-89126000D02*
X142918246Y-99534000D01*
X142958246Y-89174000D02*
X142958246Y-99486000D01*
X142998246Y-89222000D02*
X142998246Y-99438000D01*
X143038246Y-89271000D02*
X143038246Y-99389000D01*
X143078246Y-89321000D02*
X143078246Y-99339000D01*
X143118246Y-89372000D02*
X143118246Y-99288000D01*
X143158246Y-89424000D02*
X143158246Y-99236000D01*
X143198246Y-89476000D02*
X143198246Y-99184000D01*
X143238246Y-89530000D02*
X143238246Y-99130000D01*
X143278246Y-89584000D02*
X143278246Y-99076000D01*
X143318246Y-89639000D02*
X143318246Y-99021000D01*
X143358246Y-89696000D02*
X143358246Y-98964000D01*
X143398246Y-89753000D02*
X143398246Y-98907000D01*
X143438246Y-89811000D02*
X143438246Y-98849000D01*
X143478246Y-89871000D02*
X143478246Y-98789000D01*
X143518246Y-89932000D02*
X143518246Y-98728000D01*
X143558246Y-89994000D02*
X143558246Y-98666000D01*
X143598246Y-90057000D02*
X143598246Y-98603000D01*
X143638246Y-90121000D02*
X143638246Y-98539000D01*
X143678246Y-90187000D02*
X143678246Y-98473000D01*
X143718246Y-90254000D02*
X143718246Y-98406000D01*
X143758246Y-90323000D02*
X143758246Y-98337000D01*
X143798246Y-90394000D02*
X143798246Y-98266000D01*
X143838246Y-90466000D02*
X143838246Y-98194000D01*
X143878246Y-90540000D02*
X143878246Y-98120000D01*
X143918246Y-90615000D02*
X143918246Y-98045000D01*
X143958246Y-90693000D02*
X143958246Y-97967000D01*
X143998246Y-90773000D02*
X143998246Y-97887000D01*
X144038246Y-90855000D02*
X144038246Y-97805000D01*
X144078246Y-90940000D02*
X144078246Y-97720000D01*
X144118246Y-91027000D02*
X144118246Y-97633000D01*
X144158246Y-91117000D02*
X144158246Y-97543000D01*
X144198246Y-91210000D02*
X144198246Y-97450000D01*
X144238246Y-91306000D02*
X144238246Y-97354000D01*
X144278246Y-91406000D02*
X144278246Y-97254000D01*
X144318246Y-91510000D02*
X144318246Y-97150000D01*
X144358246Y-91619000D02*
X144358246Y-97041000D01*
X144398246Y-91733000D02*
X144398246Y-96927000D01*
X144438246Y-91852000D02*
X144438246Y-96808000D01*
X144478246Y-91979000D02*
X144478246Y-96681000D01*
X144518246Y-92112000D02*
X144518246Y-96548000D01*
X144558246Y-92256000D02*
X144558246Y-96404000D01*
X144598246Y-92410000D02*
X144598246Y-96250000D01*
X144638246Y-92578000D02*
X144638246Y-96082000D01*
X144678246Y-92766000D02*
X144678246Y-95894000D01*
X144718246Y-92979000D02*
X144718246Y-95681000D01*
X144758246Y-93232000D02*
X144758246Y-95428000D01*
X144798246Y-93565000D02*
X144798246Y-95095000D01*
X144837246Y-94330000D02*
G75*
G03*
X144837246Y-94330000I-8120000J0D01*
G01*
%TO.C,D2*%
X121035000Y-89990000D02*
X121035000Y-88070000D01*
X121035000Y-88070000D02*
X118350000Y-88070000D01*
X118350000Y-89990000D02*
X121035000Y-89990000D01*
%TO.C,R1*%
X151647064Y-120410000D02*
X147292936Y-120410000D01*
X151647064Y-116990000D02*
X147292936Y-116990000D01*
D12*
%TO.C,U1*%
X143502500Y-103000000D02*
X143502500Y-103085000D01*
X143502500Y-103000000D02*
X151002500Y-103000000D01*
X143502500Y-113300000D02*
X143502500Y-113215000D01*
X143502500Y-113300000D02*
X151002500Y-113300000D01*
X151002500Y-103000000D02*
X151002500Y-103085000D01*
X151002500Y-113300000D02*
X151002500Y-113215000D01*
D13*
X140702500Y-103705000D02*
G75*
G03*
X140702500Y-103705000I-100000J0D01*
G01*
D11*
%TO.C,C2*%
X137695000Y-111522401D02*
X137695000Y-111122401D01*
X137495000Y-111322401D02*
X137895000Y-111322401D01*
X136810000Y-109252600D02*
X140970000Y-109252600D01*
X136810000Y-109212600D02*
X140970000Y-109212600D01*
X136811000Y-109172600D02*
X140969000Y-109172600D01*
X136813000Y-109132600D02*
X140967000Y-109132600D01*
X136816000Y-109092600D02*
X140964000Y-109092600D01*
X136819000Y-109052600D02*
X138050000Y-109052600D01*
X139730000Y-109052600D02*
X140961000Y-109052600D01*
X136823000Y-109012600D02*
X138050000Y-109012600D01*
X139730000Y-109012600D02*
X140957000Y-109012600D01*
X136828000Y-108972600D02*
X138050000Y-108972600D01*
X139730000Y-108972600D02*
X140952000Y-108972600D01*
X136834000Y-108932600D02*
X138050000Y-108932600D01*
X139730000Y-108932600D02*
X140946000Y-108932600D01*
X136840000Y-108892600D02*
X138050000Y-108892600D01*
X139730000Y-108892600D02*
X140940000Y-108892600D01*
X136848000Y-108852600D02*
X138050000Y-108852600D01*
X139730000Y-108852600D02*
X140932000Y-108852600D01*
X136856000Y-108812600D02*
X138050000Y-108812600D01*
X139730000Y-108812600D02*
X140924000Y-108812600D01*
X136865000Y-108772600D02*
X138050000Y-108772600D01*
X139730000Y-108772600D02*
X140915000Y-108772600D01*
X136874000Y-108732600D02*
X138050000Y-108732600D01*
X139730000Y-108732600D02*
X140906000Y-108732600D01*
X136885000Y-108692600D02*
X138050000Y-108692600D01*
X139730000Y-108692600D02*
X140895000Y-108692600D01*
X136896000Y-108652600D02*
X138050000Y-108652600D01*
X139730000Y-108652600D02*
X140884000Y-108652600D01*
X136908000Y-108612600D02*
X138050000Y-108612600D01*
X139730000Y-108612600D02*
X140872000Y-108612600D01*
X136922000Y-108572600D02*
X138050000Y-108572600D01*
X139730000Y-108572600D02*
X140858000Y-108572600D01*
X136936000Y-108531600D02*
X138050000Y-108531600D01*
X139730000Y-108531600D02*
X140844000Y-108531600D01*
X136950000Y-108491600D02*
X138050000Y-108491600D01*
X139730000Y-108491600D02*
X140830000Y-108491600D01*
X136966000Y-108451600D02*
X138050000Y-108451600D01*
X139730000Y-108451600D02*
X140814000Y-108451600D01*
X136983000Y-108411600D02*
X138050000Y-108411600D01*
X139730000Y-108411600D02*
X140797000Y-108411600D01*
X137001000Y-108371600D02*
X138050000Y-108371600D01*
X139730000Y-108371600D02*
X140779000Y-108371600D01*
X137020000Y-108331600D02*
X138050000Y-108331600D01*
X139730000Y-108331600D02*
X140760000Y-108331600D01*
X137039000Y-108291600D02*
X138050000Y-108291600D01*
X139730000Y-108291600D02*
X140741000Y-108291600D01*
X137060000Y-108251600D02*
X138050000Y-108251600D01*
X139730000Y-108251600D02*
X140720000Y-108251600D01*
X137082000Y-108211600D02*
X138050000Y-108211600D01*
X139730000Y-108211600D02*
X140698000Y-108211600D01*
X137105000Y-108171600D02*
X138050000Y-108171600D01*
X139730000Y-108171600D02*
X140675000Y-108171600D01*
X137130000Y-108131600D02*
X138050000Y-108131600D01*
X139730000Y-108131600D02*
X140650000Y-108131600D01*
X137155000Y-108091600D02*
X138050000Y-108091600D01*
X139730000Y-108091600D02*
X140625000Y-108091600D01*
X137182000Y-108051600D02*
X138050000Y-108051600D01*
X139730000Y-108051600D02*
X140598000Y-108051600D01*
X137210000Y-108011600D02*
X138050000Y-108011600D01*
X139730000Y-108011600D02*
X140570000Y-108011600D01*
X137240000Y-107971600D02*
X138050000Y-107971600D01*
X139730000Y-107971600D02*
X140540000Y-107971600D01*
X137271000Y-107931600D02*
X138050000Y-107931600D01*
X139730000Y-107931600D02*
X140509000Y-107931600D01*
X137303000Y-107891600D02*
X138050000Y-107891600D01*
X139730000Y-107891600D02*
X140477000Y-107891600D01*
X137338000Y-107851600D02*
X138050000Y-107851600D01*
X139730000Y-107851600D02*
X140442000Y-107851600D01*
X137374000Y-107811600D02*
X138050000Y-107811600D01*
X139730000Y-107811600D02*
X140406000Y-107811600D01*
X137412000Y-107771600D02*
X138050000Y-107771600D01*
X139730000Y-107771600D02*
X140368000Y-107771600D01*
X137452000Y-107731600D02*
X138050000Y-107731600D01*
X139730000Y-107731600D02*
X140328000Y-107731600D01*
X137494000Y-107691600D02*
X138050000Y-107691600D01*
X139730000Y-107691600D02*
X140286000Y-107691600D01*
X137539000Y-107651600D02*
X138050000Y-107651600D01*
X139730000Y-107651600D02*
X140241000Y-107651600D01*
X137586000Y-107611600D02*
X138050000Y-107611600D01*
X139730000Y-107611600D02*
X140194000Y-107611600D01*
X137636000Y-107571600D02*
X138050000Y-107571600D01*
X139730000Y-107571600D02*
X140144000Y-107571600D01*
X137690000Y-107531600D02*
X138050000Y-107531600D01*
X139730000Y-107531600D02*
X140090000Y-107531600D01*
X137748000Y-107491600D02*
X138050000Y-107491600D01*
X139730000Y-107491600D02*
X140032000Y-107491600D01*
X137810000Y-107451600D02*
X138050000Y-107451600D01*
X139730000Y-107451600D02*
X139970000Y-107451600D01*
X137877000Y-107411600D02*
X139903000Y-107411600D01*
X137950000Y-107371600D02*
X139830000Y-107371600D01*
X138031000Y-107331600D02*
X139749000Y-107331600D01*
X138122000Y-107291600D02*
X139658000Y-107291600D01*
X138226000Y-107251600D02*
X139554000Y-107251600D01*
X138353000Y-107211600D02*
X139427000Y-107211600D01*
X138520000Y-107171600D02*
X139260000Y-107171600D01*
X141010000Y-109252600D02*
G75*
G03*
X141010000Y-109252600I-2120000J0D01*
G01*
%TO.C,R3*%
X119095436Y-91615000D02*
X119549564Y-91615000D01*
X119095436Y-93085000D02*
X119549564Y-93085000D01*
%TD*%
M02*
