%TF.GenerationSoftware,KiCad,Pcbnew,7.0.7*%
%TF.CreationDate,2023-09-13T14:26:25-04:00*%
%TF.ProjectId,Alim12,416c696d-3132-42e6-9b69-6361645f7063,rev?*%
%TF.SameCoordinates,Original*%
%TF.FileFunction,Legend,Bot*%
%TF.FilePolarity,Positive*%
%FSLAX46Y46*%
G04 Gerber Fmt 4.6, Leading zero omitted, Abs format (unit mm)*
G04 Created by KiCad (PCBNEW 7.0.7) date 2023-09-13 14:26:25*
%MOMM*%
%LPD*%
G01*
G04 APERTURE LIST*
%ADD10C,0.150000*%
G04 APERTURE END LIST*
D10*
X176350839Y-109664104D02*
X175874649Y-109664104D01*
X176446077Y-109949819D02*
X176112744Y-108949819D01*
X176112744Y-108949819D02*
X175779411Y-109949819D01*
X175303220Y-109949819D02*
X175398458Y-109902200D01*
X175398458Y-109902200D02*
X175446077Y-109806961D01*
X175446077Y-109806961D02*
X175446077Y-108949819D01*
X174922267Y-109949819D02*
X174922267Y-109283152D01*
X174922267Y-108949819D02*
X174969886Y-108997438D01*
X174969886Y-108997438D02*
X174922267Y-109045057D01*
X174922267Y-109045057D02*
X174874648Y-108997438D01*
X174874648Y-108997438D02*
X174922267Y-108949819D01*
X174922267Y-108949819D02*
X174922267Y-109045057D01*
X174446077Y-109949819D02*
X174446077Y-109283152D01*
X174446077Y-109378390D02*
X174398458Y-109330771D01*
X174398458Y-109330771D02*
X174303220Y-109283152D01*
X174303220Y-109283152D02*
X174160363Y-109283152D01*
X174160363Y-109283152D02*
X174065125Y-109330771D01*
X174065125Y-109330771D02*
X174017506Y-109426009D01*
X174017506Y-109426009D02*
X174017506Y-109949819D01*
X174017506Y-109426009D02*
X173969887Y-109330771D01*
X173969887Y-109330771D02*
X173874649Y-109283152D01*
X173874649Y-109283152D02*
X173731792Y-109283152D01*
X173731792Y-109283152D02*
X173636553Y-109330771D01*
X173636553Y-109330771D02*
X173588934Y-109426009D01*
X173588934Y-109426009D02*
X173588934Y-109949819D01*
X172731792Y-109902200D02*
X172827030Y-109949819D01*
X172827030Y-109949819D02*
X173017506Y-109949819D01*
X173017506Y-109949819D02*
X173112744Y-109902200D01*
X173112744Y-109902200D02*
X173160363Y-109806961D01*
X173160363Y-109806961D02*
X173160363Y-109426009D01*
X173160363Y-109426009D02*
X173112744Y-109330771D01*
X173112744Y-109330771D02*
X173017506Y-109283152D01*
X173017506Y-109283152D02*
X172827030Y-109283152D01*
X172827030Y-109283152D02*
X172731792Y-109330771D01*
X172731792Y-109330771D02*
X172684173Y-109426009D01*
X172684173Y-109426009D02*
X172684173Y-109521247D01*
X172684173Y-109521247D02*
X173160363Y-109616485D01*
X172255601Y-109283152D02*
X172255601Y-109949819D01*
X172255601Y-109378390D02*
X172207982Y-109330771D01*
X172207982Y-109330771D02*
X172112744Y-109283152D01*
X172112744Y-109283152D02*
X171969887Y-109283152D01*
X171969887Y-109283152D02*
X171874649Y-109330771D01*
X171874649Y-109330771D02*
X171827030Y-109426009D01*
X171827030Y-109426009D02*
X171827030Y-109949819D01*
X171493696Y-109283152D02*
X171112744Y-109283152D01*
X171350839Y-108949819D02*
X171350839Y-109806961D01*
X171350839Y-109806961D02*
X171303220Y-109902200D01*
X171303220Y-109902200D02*
X171207982Y-109949819D01*
X171207982Y-109949819D02*
X171112744Y-109949819D01*
X170350839Y-109949819D02*
X170350839Y-109426009D01*
X170350839Y-109426009D02*
X170398458Y-109330771D01*
X170398458Y-109330771D02*
X170493696Y-109283152D01*
X170493696Y-109283152D02*
X170684172Y-109283152D01*
X170684172Y-109283152D02*
X170779410Y-109330771D01*
X170350839Y-109902200D02*
X170446077Y-109949819D01*
X170446077Y-109949819D02*
X170684172Y-109949819D01*
X170684172Y-109949819D02*
X170779410Y-109902200D01*
X170779410Y-109902200D02*
X170827029Y-109806961D01*
X170827029Y-109806961D02*
X170827029Y-109711723D01*
X170827029Y-109711723D02*
X170779410Y-109616485D01*
X170779410Y-109616485D02*
X170684172Y-109568866D01*
X170684172Y-109568866D02*
X170446077Y-109568866D01*
X170446077Y-109568866D02*
X170350839Y-109521247D01*
X170017505Y-109283152D02*
X169636553Y-109283152D01*
X169874648Y-108949819D02*
X169874648Y-109806961D01*
X169874648Y-109806961D02*
X169827029Y-109902200D01*
X169827029Y-109902200D02*
X169731791Y-109949819D01*
X169731791Y-109949819D02*
X169636553Y-109949819D01*
X169303219Y-109949819D02*
X169303219Y-109283152D01*
X169303219Y-108949819D02*
X169350838Y-108997438D01*
X169350838Y-108997438D02*
X169303219Y-109045057D01*
X169303219Y-109045057D02*
X169255600Y-108997438D01*
X169255600Y-108997438D02*
X169303219Y-108949819D01*
X169303219Y-108949819D02*
X169303219Y-109045057D01*
X168684172Y-109949819D02*
X168779410Y-109902200D01*
X168779410Y-109902200D02*
X168827029Y-109854580D01*
X168827029Y-109854580D02*
X168874648Y-109759342D01*
X168874648Y-109759342D02*
X168874648Y-109473628D01*
X168874648Y-109473628D02*
X168827029Y-109378390D01*
X168827029Y-109378390D02*
X168779410Y-109330771D01*
X168779410Y-109330771D02*
X168684172Y-109283152D01*
X168684172Y-109283152D02*
X168541315Y-109283152D01*
X168541315Y-109283152D02*
X168446077Y-109330771D01*
X168446077Y-109330771D02*
X168398458Y-109378390D01*
X168398458Y-109378390D02*
X168350839Y-109473628D01*
X168350839Y-109473628D02*
X168350839Y-109759342D01*
X168350839Y-109759342D02*
X168398458Y-109854580D01*
X168398458Y-109854580D02*
X168446077Y-109902200D01*
X168446077Y-109902200D02*
X168541315Y-109949819D01*
X168541315Y-109949819D02*
X168684172Y-109949819D01*
X167922267Y-109283152D02*
X167922267Y-109949819D01*
X167922267Y-109378390D02*
X167874648Y-109330771D01*
X167874648Y-109330771D02*
X167779410Y-109283152D01*
X167779410Y-109283152D02*
X167636553Y-109283152D01*
X167636553Y-109283152D02*
X167541315Y-109330771D01*
X167541315Y-109330771D02*
X167493696Y-109426009D01*
X167493696Y-109426009D02*
X167493696Y-109949819D01*
X165827029Y-108949819D02*
X166017505Y-108949819D01*
X166017505Y-108949819D02*
X166112743Y-108997438D01*
X166112743Y-108997438D02*
X166160362Y-109045057D01*
X166160362Y-109045057D02*
X166255600Y-109187914D01*
X166255600Y-109187914D02*
X166303219Y-109378390D01*
X166303219Y-109378390D02*
X166303219Y-109759342D01*
X166303219Y-109759342D02*
X166255600Y-109854580D01*
X166255600Y-109854580D02*
X166207981Y-109902200D01*
X166207981Y-109902200D02*
X166112743Y-109949819D01*
X166112743Y-109949819D02*
X165922267Y-109949819D01*
X165922267Y-109949819D02*
X165827029Y-109902200D01*
X165827029Y-109902200D02*
X165779410Y-109854580D01*
X165779410Y-109854580D02*
X165731791Y-109759342D01*
X165731791Y-109759342D02*
X165731791Y-109521247D01*
X165731791Y-109521247D02*
X165779410Y-109426009D01*
X165779410Y-109426009D02*
X165827029Y-109378390D01*
X165827029Y-109378390D02*
X165922267Y-109330771D01*
X165922267Y-109330771D02*
X166112743Y-109330771D01*
X166112743Y-109330771D02*
X166207981Y-109378390D01*
X166207981Y-109378390D02*
X166255600Y-109426009D01*
X166255600Y-109426009D02*
X166303219Y-109521247D01*
X165446076Y-108949819D02*
X165112743Y-109949819D01*
X165112743Y-109949819D02*
X164779410Y-108949819D01*
X175731792Y-111464580D02*
X175779411Y-111512200D01*
X175779411Y-111512200D02*
X175922268Y-111559819D01*
X175922268Y-111559819D02*
X176017506Y-111559819D01*
X176017506Y-111559819D02*
X176160363Y-111512200D01*
X176160363Y-111512200D02*
X176255601Y-111416961D01*
X176255601Y-111416961D02*
X176303220Y-111321723D01*
X176303220Y-111321723D02*
X176350839Y-111131247D01*
X176350839Y-111131247D02*
X176350839Y-110988390D01*
X176350839Y-110988390D02*
X176303220Y-110797914D01*
X176303220Y-110797914D02*
X176255601Y-110702676D01*
X176255601Y-110702676D02*
X176160363Y-110607438D01*
X176160363Y-110607438D02*
X176017506Y-110559819D01*
X176017506Y-110559819D02*
X175922268Y-110559819D01*
X175922268Y-110559819D02*
X175779411Y-110607438D01*
X175779411Y-110607438D02*
X175731792Y-110655057D01*
X174922268Y-111512200D02*
X175017506Y-111559819D01*
X175017506Y-111559819D02*
X175207982Y-111559819D01*
X175207982Y-111559819D02*
X175303220Y-111512200D01*
X175303220Y-111512200D02*
X175350839Y-111416961D01*
X175350839Y-111416961D02*
X175350839Y-111036009D01*
X175350839Y-111036009D02*
X175303220Y-110940771D01*
X175303220Y-110940771D02*
X175207982Y-110893152D01*
X175207982Y-110893152D02*
X175017506Y-110893152D01*
X175017506Y-110893152D02*
X174922268Y-110940771D01*
X174922268Y-110940771D02*
X174874649Y-111036009D01*
X174874649Y-111036009D02*
X174874649Y-111131247D01*
X174874649Y-111131247D02*
X175350839Y-111226485D01*
X175017506Y-110512200D02*
X175160363Y-110655057D01*
X174017506Y-110893152D02*
X174017506Y-111702676D01*
X174017506Y-111702676D02*
X174065125Y-111797914D01*
X174065125Y-111797914D02*
X174112744Y-111845533D01*
X174112744Y-111845533D02*
X174207982Y-111893152D01*
X174207982Y-111893152D02*
X174350839Y-111893152D01*
X174350839Y-111893152D02*
X174446077Y-111845533D01*
X174017506Y-111512200D02*
X174112744Y-111559819D01*
X174112744Y-111559819D02*
X174303220Y-111559819D01*
X174303220Y-111559819D02*
X174398458Y-111512200D01*
X174398458Y-111512200D02*
X174446077Y-111464580D01*
X174446077Y-111464580D02*
X174493696Y-111369342D01*
X174493696Y-111369342D02*
X174493696Y-111083628D01*
X174493696Y-111083628D02*
X174446077Y-110988390D01*
X174446077Y-110988390D02*
X174398458Y-110940771D01*
X174398458Y-110940771D02*
X174303220Y-110893152D01*
X174303220Y-110893152D02*
X174112744Y-110893152D01*
X174112744Y-110893152D02*
X174017506Y-110940771D01*
X173160363Y-111512200D02*
X173255601Y-111559819D01*
X173255601Y-111559819D02*
X173446077Y-111559819D01*
X173446077Y-111559819D02*
X173541315Y-111512200D01*
X173541315Y-111512200D02*
X173588934Y-111416961D01*
X173588934Y-111416961D02*
X173588934Y-111036009D01*
X173588934Y-111036009D02*
X173541315Y-110940771D01*
X173541315Y-110940771D02*
X173446077Y-110893152D01*
X173446077Y-110893152D02*
X173255601Y-110893152D01*
X173255601Y-110893152D02*
X173160363Y-110940771D01*
X173160363Y-110940771D02*
X173112744Y-111036009D01*
X173112744Y-111036009D02*
X173112744Y-111131247D01*
X173112744Y-111131247D02*
X173588934Y-111226485D01*
X172684172Y-110893152D02*
X172684172Y-111893152D01*
X172684172Y-110940771D02*
X172588934Y-110893152D01*
X172588934Y-110893152D02*
X172398458Y-110893152D01*
X172398458Y-110893152D02*
X172303220Y-110940771D01*
X172303220Y-110940771D02*
X172255601Y-110988390D01*
X172255601Y-110988390D02*
X172207982Y-111083628D01*
X172207982Y-111083628D02*
X172207982Y-111369342D01*
X172207982Y-111369342D02*
X172255601Y-111464580D01*
X172255601Y-111464580D02*
X172303220Y-111512200D01*
X172303220Y-111512200D02*
X172398458Y-111559819D01*
X172398458Y-111559819D02*
X172588934Y-111559819D01*
X172588934Y-111559819D02*
X172684172Y-111512200D01*
X170588934Y-111559819D02*
X170588934Y-110559819D01*
X170588934Y-111512200D02*
X170684172Y-111559819D01*
X170684172Y-111559819D02*
X170874648Y-111559819D01*
X170874648Y-111559819D02*
X170969886Y-111512200D01*
X170969886Y-111512200D02*
X171017505Y-111464580D01*
X171017505Y-111464580D02*
X171065124Y-111369342D01*
X171065124Y-111369342D02*
X171065124Y-111083628D01*
X171065124Y-111083628D02*
X171017505Y-110988390D01*
X171017505Y-110988390D02*
X170969886Y-110940771D01*
X170969886Y-110940771D02*
X170874648Y-110893152D01*
X170874648Y-110893152D02*
X170684172Y-110893152D01*
X170684172Y-110893152D02*
X170588934Y-110940771D01*
X169731791Y-111512200D02*
X169827029Y-111559819D01*
X169827029Y-111559819D02*
X170017505Y-111559819D01*
X170017505Y-111559819D02*
X170112743Y-111512200D01*
X170112743Y-111512200D02*
X170160362Y-111416961D01*
X170160362Y-111416961D02*
X170160362Y-111036009D01*
X170160362Y-111036009D02*
X170112743Y-110940771D01*
X170112743Y-110940771D02*
X170017505Y-110893152D01*
X170017505Y-110893152D02*
X169827029Y-110893152D01*
X169827029Y-110893152D02*
X169731791Y-110940771D01*
X169731791Y-110940771D02*
X169684172Y-111036009D01*
X169684172Y-111036009D02*
X169684172Y-111131247D01*
X169684172Y-111131247D02*
X170160362Y-111226485D01*
X168541314Y-111512200D02*
X168398457Y-111559819D01*
X168398457Y-111559819D02*
X168160362Y-111559819D01*
X168160362Y-111559819D02*
X168065124Y-111512200D01*
X168065124Y-111512200D02*
X168017505Y-111464580D01*
X168017505Y-111464580D02*
X167969886Y-111369342D01*
X167969886Y-111369342D02*
X167969886Y-111274104D01*
X167969886Y-111274104D02*
X168017505Y-111178866D01*
X168017505Y-111178866D02*
X168065124Y-111131247D01*
X168065124Y-111131247D02*
X168160362Y-111083628D01*
X168160362Y-111083628D02*
X168350838Y-111036009D01*
X168350838Y-111036009D02*
X168446076Y-110988390D01*
X168446076Y-110988390D02*
X168493695Y-110940771D01*
X168493695Y-110940771D02*
X168541314Y-110845533D01*
X168541314Y-110845533D02*
X168541314Y-110750295D01*
X168541314Y-110750295D02*
X168493695Y-110655057D01*
X168493695Y-110655057D02*
X168446076Y-110607438D01*
X168446076Y-110607438D02*
X168350838Y-110559819D01*
X168350838Y-110559819D02*
X168112743Y-110559819D01*
X168112743Y-110559819D02*
X167969886Y-110607438D01*
X167541314Y-111559819D02*
X167541314Y-110559819D01*
X167112743Y-111559819D02*
X167112743Y-111036009D01*
X167112743Y-111036009D02*
X167160362Y-110940771D01*
X167160362Y-110940771D02*
X167255600Y-110893152D01*
X167255600Y-110893152D02*
X167398457Y-110893152D01*
X167398457Y-110893152D02*
X167493695Y-110940771D01*
X167493695Y-110940771D02*
X167541314Y-110988390D01*
X166255600Y-111512200D02*
X166350838Y-111559819D01*
X166350838Y-111559819D02*
X166541314Y-111559819D01*
X166541314Y-111559819D02*
X166636552Y-111512200D01*
X166636552Y-111512200D02*
X166684171Y-111416961D01*
X166684171Y-111416961D02*
X166684171Y-111036009D01*
X166684171Y-111036009D02*
X166636552Y-110940771D01*
X166636552Y-110940771D02*
X166541314Y-110893152D01*
X166541314Y-110893152D02*
X166350838Y-110893152D01*
X166350838Y-110893152D02*
X166255600Y-110940771D01*
X166255600Y-110940771D02*
X166207981Y-111036009D01*
X166207981Y-111036009D02*
X166207981Y-111131247D01*
X166207981Y-111131247D02*
X166684171Y-111226485D01*
X165779409Y-111559819D02*
X165779409Y-110893152D01*
X165779409Y-111083628D02*
X165731790Y-110988390D01*
X165731790Y-110988390D02*
X165684171Y-110940771D01*
X165684171Y-110940771D02*
X165588933Y-110893152D01*
X165588933Y-110893152D02*
X165493695Y-110893152D01*
X165160361Y-111559819D02*
X165160361Y-110559819D01*
X165160361Y-110940771D02*
X165065123Y-110893152D01*
X165065123Y-110893152D02*
X164874647Y-110893152D01*
X164874647Y-110893152D02*
X164779409Y-110940771D01*
X164779409Y-110940771D02*
X164731790Y-110988390D01*
X164731790Y-110988390D02*
X164684171Y-111083628D01*
X164684171Y-111083628D02*
X164684171Y-111369342D01*
X164684171Y-111369342D02*
X164731790Y-111464580D01*
X164731790Y-111464580D02*
X164779409Y-111512200D01*
X164779409Y-111512200D02*
X164874647Y-111559819D01*
X164874647Y-111559819D02*
X165065123Y-111559819D01*
X165065123Y-111559819D02*
X165160361Y-111512200D01*
X164255599Y-111559819D02*
X164255599Y-110893152D01*
X164255599Y-111083628D02*
X164207980Y-110988390D01*
X164207980Y-110988390D02*
X164160361Y-110940771D01*
X164160361Y-110940771D02*
X164065123Y-110893152D01*
X164065123Y-110893152D02*
X163969885Y-110893152D01*
X163493694Y-111559819D02*
X163588932Y-111512200D01*
X163588932Y-111512200D02*
X163636551Y-111464580D01*
X163636551Y-111464580D02*
X163684170Y-111369342D01*
X163684170Y-111369342D02*
X163684170Y-111083628D01*
X163684170Y-111083628D02*
X163636551Y-110988390D01*
X163636551Y-110988390D02*
X163588932Y-110940771D01*
X163588932Y-110940771D02*
X163493694Y-110893152D01*
X163493694Y-110893152D02*
X163350837Y-110893152D01*
X163350837Y-110893152D02*
X163255599Y-110940771D01*
X163255599Y-110940771D02*
X163207980Y-110988390D01*
X163207980Y-110988390D02*
X163160361Y-111083628D01*
X163160361Y-111083628D02*
X163160361Y-111369342D01*
X163160361Y-111369342D02*
X163207980Y-111464580D01*
X163207980Y-111464580D02*
X163255599Y-111512200D01*
X163255599Y-111512200D02*
X163350837Y-111559819D01*
X163350837Y-111559819D02*
X163493694Y-111559819D01*
X162588932Y-111559819D02*
X162684170Y-111512200D01*
X162684170Y-111512200D02*
X162731789Y-111464580D01*
X162731789Y-111464580D02*
X162779408Y-111369342D01*
X162779408Y-111369342D02*
X162779408Y-111083628D01*
X162779408Y-111083628D02*
X162731789Y-110988390D01*
X162731789Y-110988390D02*
X162684170Y-110940771D01*
X162684170Y-110940771D02*
X162588932Y-110893152D01*
X162588932Y-110893152D02*
X162446075Y-110893152D01*
X162446075Y-110893152D02*
X162350837Y-110940771D01*
X162350837Y-110940771D02*
X162303218Y-110988390D01*
X162303218Y-110988390D02*
X162255599Y-111083628D01*
X162255599Y-111083628D02*
X162255599Y-111369342D01*
X162255599Y-111369342D02*
X162303218Y-111464580D01*
X162303218Y-111464580D02*
X162350837Y-111512200D01*
X162350837Y-111512200D02*
X162446075Y-111559819D01*
X162446075Y-111559819D02*
X162588932Y-111559819D01*
X161827027Y-111559819D02*
X161827027Y-110559819D01*
X161731789Y-111178866D02*
X161446075Y-111559819D01*
X161446075Y-110893152D02*
X161827027Y-111274104D01*
X160636551Y-111512200D02*
X160731789Y-111559819D01*
X160731789Y-111559819D02*
X160922265Y-111559819D01*
X160922265Y-111559819D02*
X161017503Y-111512200D01*
X161017503Y-111512200D02*
X161065122Y-111416961D01*
X161065122Y-111416961D02*
X161065122Y-111036009D01*
X161065122Y-111036009D02*
X161017503Y-110940771D01*
X161017503Y-110940771D02*
X160922265Y-110893152D01*
X160922265Y-110893152D02*
X160731789Y-110893152D01*
X160731789Y-110893152D02*
X160636551Y-110940771D01*
X160636551Y-110940771D02*
X160588932Y-111036009D01*
X160588932Y-111036009D02*
X160588932Y-111131247D01*
X160588932Y-111131247D02*
X161065122Y-111226485D01*
X175969887Y-112646009D02*
X176303220Y-112646009D01*
X176303220Y-113169819D02*
X176303220Y-112169819D01*
X176303220Y-112169819D02*
X175827030Y-112169819D01*
X175065125Y-113122200D02*
X175160363Y-113169819D01*
X175160363Y-113169819D02*
X175350839Y-113169819D01*
X175350839Y-113169819D02*
X175446077Y-113122200D01*
X175446077Y-113122200D02*
X175493696Y-113026961D01*
X175493696Y-113026961D02*
X175493696Y-112646009D01*
X175493696Y-112646009D02*
X175446077Y-112550771D01*
X175446077Y-112550771D02*
X175350839Y-112503152D01*
X175350839Y-112503152D02*
X175160363Y-112503152D01*
X175160363Y-112503152D02*
X175065125Y-112550771D01*
X175065125Y-112550771D02*
X175017506Y-112646009D01*
X175017506Y-112646009D02*
X175017506Y-112741247D01*
X175017506Y-112741247D02*
X175493696Y-112836485D01*
X175160363Y-112122200D02*
X175303220Y-112265057D01*
X174446077Y-113169819D02*
X174541315Y-113122200D01*
X174541315Y-113122200D02*
X174588934Y-113026961D01*
X174588934Y-113026961D02*
X174588934Y-112169819D01*
X174065124Y-113169819D02*
X174065124Y-112503152D01*
X174065124Y-112169819D02*
X174112743Y-112217438D01*
X174112743Y-112217438D02*
X174065124Y-112265057D01*
X174065124Y-112265057D02*
X174017505Y-112217438D01*
X174017505Y-112217438D02*
X174065124Y-112169819D01*
X174065124Y-112169819D02*
X174065124Y-112265057D01*
X173684172Y-113169819D02*
X173160363Y-112503152D01*
X173684172Y-112503152D02*
X173160363Y-113169819D01*
X172779410Y-112788866D02*
X172017506Y-112788866D01*
X171588934Y-112884104D02*
X171112744Y-112884104D01*
X171684172Y-113169819D02*
X171350839Y-112169819D01*
X171350839Y-112169819D02*
X171017506Y-113169819D01*
X170684172Y-112503152D02*
X170684172Y-113169819D01*
X170684172Y-112598390D02*
X170636553Y-112550771D01*
X170636553Y-112550771D02*
X170541315Y-112503152D01*
X170541315Y-112503152D02*
X170398458Y-112503152D01*
X170398458Y-112503152D02*
X170303220Y-112550771D01*
X170303220Y-112550771D02*
X170255601Y-112646009D01*
X170255601Y-112646009D02*
X170255601Y-113169819D01*
X169922267Y-112503152D02*
X169541315Y-112503152D01*
X169779410Y-112169819D02*
X169779410Y-113026961D01*
X169779410Y-113026961D02*
X169731791Y-113122200D01*
X169731791Y-113122200D02*
X169636553Y-113169819D01*
X169636553Y-113169819D02*
X169541315Y-113169819D01*
X169065124Y-113169819D02*
X169160362Y-113122200D01*
X169160362Y-113122200D02*
X169207981Y-113074580D01*
X169207981Y-113074580D02*
X169255600Y-112979342D01*
X169255600Y-112979342D02*
X169255600Y-112693628D01*
X169255600Y-112693628D02*
X169207981Y-112598390D01*
X169207981Y-112598390D02*
X169160362Y-112550771D01*
X169160362Y-112550771D02*
X169065124Y-112503152D01*
X169065124Y-112503152D02*
X168922267Y-112503152D01*
X168922267Y-112503152D02*
X168827029Y-112550771D01*
X168827029Y-112550771D02*
X168779410Y-112598390D01*
X168779410Y-112598390D02*
X168731791Y-112693628D01*
X168731791Y-112693628D02*
X168731791Y-112979342D01*
X168731791Y-112979342D02*
X168779410Y-113074580D01*
X168779410Y-113074580D02*
X168827029Y-113122200D01*
X168827029Y-113122200D02*
X168922267Y-113169819D01*
X168922267Y-113169819D02*
X169065124Y-113169819D01*
X168303219Y-113169819D02*
X168303219Y-112503152D01*
X168303219Y-112169819D02*
X168350838Y-112217438D01*
X168350838Y-112217438D02*
X168303219Y-112265057D01*
X168303219Y-112265057D02*
X168255600Y-112217438D01*
X168255600Y-112217438D02*
X168303219Y-112169819D01*
X168303219Y-112169819D02*
X168303219Y-112265057D01*
X167827029Y-112503152D02*
X167827029Y-113169819D01*
X167827029Y-112598390D02*
X167779410Y-112550771D01*
X167779410Y-112550771D02*
X167684172Y-112503152D01*
X167684172Y-112503152D02*
X167541315Y-112503152D01*
X167541315Y-112503152D02*
X167446077Y-112550771D01*
X167446077Y-112550771D02*
X167398458Y-112646009D01*
X167398458Y-112646009D02*
X167398458Y-113169819D01*
X166541315Y-113122200D02*
X166636553Y-113169819D01*
X166636553Y-113169819D02*
X166827029Y-113169819D01*
X166827029Y-113169819D02*
X166922267Y-113122200D01*
X166922267Y-113122200D02*
X166969886Y-113026961D01*
X166969886Y-113026961D02*
X166969886Y-112646009D01*
X166969886Y-112646009D02*
X166922267Y-112550771D01*
X166922267Y-112550771D02*
X166827029Y-112503152D01*
X166827029Y-112503152D02*
X166636553Y-112503152D01*
X166636553Y-112503152D02*
X166541315Y-112550771D01*
X166541315Y-112550771D02*
X166493696Y-112646009D01*
X166493696Y-112646009D02*
X166493696Y-112741247D01*
X166493696Y-112741247D02*
X166969886Y-112836485D01*
X164779410Y-112217438D02*
X164874648Y-112169819D01*
X164874648Y-112169819D02*
X165017505Y-112169819D01*
X165017505Y-112169819D02*
X165160362Y-112217438D01*
X165160362Y-112217438D02*
X165255600Y-112312676D01*
X165255600Y-112312676D02*
X165303219Y-112407914D01*
X165303219Y-112407914D02*
X165350838Y-112598390D01*
X165350838Y-112598390D02*
X165350838Y-112741247D01*
X165350838Y-112741247D02*
X165303219Y-112931723D01*
X165303219Y-112931723D02*
X165255600Y-113026961D01*
X165255600Y-113026961D02*
X165160362Y-113122200D01*
X165160362Y-113122200D02*
X165017505Y-113169819D01*
X165017505Y-113169819D02*
X164922267Y-113169819D01*
X164922267Y-113169819D02*
X164779410Y-113122200D01*
X164779410Y-113122200D02*
X164731791Y-113074580D01*
X164731791Y-113074580D02*
X164731791Y-112741247D01*
X164731791Y-112741247D02*
X164922267Y-112741247D01*
X163874648Y-112503152D02*
X163874648Y-113169819D01*
X164303219Y-112503152D02*
X164303219Y-113026961D01*
X164303219Y-113026961D02*
X164255600Y-113122200D01*
X164255600Y-113122200D02*
X164160362Y-113169819D01*
X164160362Y-113169819D02*
X164017505Y-113169819D01*
X164017505Y-113169819D02*
X163922267Y-113122200D01*
X163922267Y-113122200D02*
X163874648Y-113074580D01*
X163398457Y-113169819D02*
X163398457Y-112503152D01*
X163398457Y-112169819D02*
X163446076Y-112217438D01*
X163446076Y-112217438D02*
X163398457Y-112265057D01*
X163398457Y-112265057D02*
X163350838Y-112217438D01*
X163350838Y-112217438D02*
X163398457Y-112169819D01*
X163398457Y-112169819D02*
X163398457Y-112265057D01*
X162922267Y-113169819D02*
X162922267Y-112503152D01*
X162922267Y-112598390D02*
X162874648Y-112550771D01*
X162874648Y-112550771D02*
X162779410Y-112503152D01*
X162779410Y-112503152D02*
X162636553Y-112503152D01*
X162636553Y-112503152D02*
X162541315Y-112550771D01*
X162541315Y-112550771D02*
X162493696Y-112646009D01*
X162493696Y-112646009D02*
X162493696Y-113169819D01*
X162493696Y-112646009D02*
X162446077Y-112550771D01*
X162446077Y-112550771D02*
X162350839Y-112503152D01*
X162350839Y-112503152D02*
X162207982Y-112503152D01*
X162207982Y-112503152D02*
X162112743Y-112550771D01*
X162112743Y-112550771D02*
X162065124Y-112646009D01*
X162065124Y-112646009D02*
X162065124Y-113169819D01*
X161446077Y-113169819D02*
X161541315Y-113122200D01*
X161541315Y-113122200D02*
X161588934Y-113074580D01*
X161588934Y-113074580D02*
X161636553Y-112979342D01*
X161636553Y-112979342D02*
X161636553Y-112693628D01*
X161636553Y-112693628D02*
X161588934Y-112598390D01*
X161588934Y-112598390D02*
X161541315Y-112550771D01*
X161541315Y-112550771D02*
X161446077Y-112503152D01*
X161446077Y-112503152D02*
X161303220Y-112503152D01*
X161303220Y-112503152D02*
X161207982Y-112550771D01*
X161207982Y-112550771D02*
X161160363Y-112598390D01*
X161160363Y-112598390D02*
X161112744Y-112693628D01*
X161112744Y-112693628D02*
X161112744Y-112979342D01*
X161112744Y-112979342D02*
X161160363Y-113074580D01*
X161160363Y-113074580D02*
X161207982Y-113122200D01*
X161207982Y-113122200D02*
X161303220Y-113169819D01*
X161303220Y-113169819D02*
X161446077Y-113169819D01*
X160684172Y-112503152D02*
X160684172Y-113169819D01*
X160684172Y-112598390D02*
X160636553Y-112550771D01*
X160636553Y-112550771D02*
X160541315Y-112503152D01*
X160541315Y-112503152D02*
X160398458Y-112503152D01*
X160398458Y-112503152D02*
X160303220Y-112550771D01*
X160303220Y-112550771D02*
X160255601Y-112646009D01*
X160255601Y-112646009D02*
X160255601Y-113169819D01*
X159922267Y-112503152D02*
X159541315Y-112503152D01*
X159779410Y-112169819D02*
X159779410Y-113026961D01*
X159779410Y-113026961D02*
X159731791Y-113122200D01*
X159731791Y-113122200D02*
X159636553Y-113169819D01*
X159636553Y-113169819D02*
X159541315Y-113169819D01*
X176303220Y-114779819D02*
X176303220Y-113779819D01*
X176303220Y-113779819D02*
X175969887Y-114494104D01*
X175969887Y-114494104D02*
X175636554Y-113779819D01*
X175636554Y-113779819D02*
X175636554Y-114779819D01*
X174731792Y-114779819D02*
X174731792Y-114256009D01*
X174731792Y-114256009D02*
X174779411Y-114160771D01*
X174779411Y-114160771D02*
X174874649Y-114113152D01*
X174874649Y-114113152D02*
X175065125Y-114113152D01*
X175065125Y-114113152D02*
X175160363Y-114160771D01*
X174731792Y-114732200D02*
X174827030Y-114779819D01*
X174827030Y-114779819D02*
X175065125Y-114779819D01*
X175065125Y-114779819D02*
X175160363Y-114732200D01*
X175160363Y-114732200D02*
X175207982Y-114636961D01*
X175207982Y-114636961D02*
X175207982Y-114541723D01*
X175207982Y-114541723D02*
X175160363Y-114446485D01*
X175160363Y-114446485D02*
X175065125Y-114398866D01*
X175065125Y-114398866D02*
X174827030Y-114398866D01*
X174827030Y-114398866D02*
X174731792Y-114351247D01*
X174255601Y-114779819D02*
X174255601Y-114113152D01*
X174255601Y-114303628D02*
X174207982Y-114208390D01*
X174207982Y-114208390D02*
X174160363Y-114160771D01*
X174160363Y-114160771D02*
X174065125Y-114113152D01*
X174065125Y-114113152D02*
X173969887Y-114113152D01*
X173207982Y-114732200D02*
X173303220Y-114779819D01*
X173303220Y-114779819D02*
X173493696Y-114779819D01*
X173493696Y-114779819D02*
X173588934Y-114732200D01*
X173588934Y-114732200D02*
X173636553Y-114684580D01*
X173636553Y-114684580D02*
X173684172Y-114589342D01*
X173684172Y-114589342D02*
X173684172Y-114303628D01*
X173684172Y-114303628D02*
X173636553Y-114208390D01*
X173636553Y-114208390D02*
X173588934Y-114160771D01*
X173588934Y-114160771D02*
X173493696Y-114113152D01*
X173493696Y-114113152D02*
X173303220Y-114113152D01*
X173303220Y-114113152D02*
X173207982Y-114160771D01*
X172779410Y-114398866D02*
X172017506Y-114398866D01*
X171541315Y-114256009D02*
X171207982Y-114256009D01*
X171065125Y-114779819D02*
X171541315Y-114779819D01*
X171541315Y-114779819D02*
X171541315Y-113779819D01*
X171541315Y-113779819D02*
X171065125Y-113779819D01*
X171207982Y-113398866D02*
X171350839Y-113541723D01*
X170779410Y-114113152D02*
X170398458Y-114113152D01*
X170636553Y-113779819D02*
X170636553Y-114636961D01*
X170636553Y-114636961D02*
X170588934Y-114732200D01*
X170588934Y-114732200D02*
X170493696Y-114779819D01*
X170493696Y-114779819D02*
X170398458Y-114779819D01*
X170065124Y-114779819D02*
X170065124Y-114113152D01*
X170065124Y-113779819D02*
X170112743Y-113827438D01*
X170112743Y-113827438D02*
X170065124Y-113875057D01*
X170065124Y-113875057D02*
X170017505Y-113827438D01*
X170017505Y-113827438D02*
X170065124Y-113779819D01*
X170065124Y-113779819D02*
X170065124Y-113875057D01*
X169207982Y-114732200D02*
X169303220Y-114779819D01*
X169303220Y-114779819D02*
X169493696Y-114779819D01*
X169493696Y-114779819D02*
X169588934Y-114732200D01*
X169588934Y-114732200D02*
X169636553Y-114636961D01*
X169636553Y-114636961D02*
X169636553Y-114256009D01*
X169636553Y-114256009D02*
X169588934Y-114160771D01*
X169588934Y-114160771D02*
X169493696Y-114113152D01*
X169493696Y-114113152D02*
X169303220Y-114113152D01*
X169303220Y-114113152D02*
X169207982Y-114160771D01*
X169207982Y-114160771D02*
X169160363Y-114256009D01*
X169160363Y-114256009D02*
X169160363Y-114351247D01*
X169160363Y-114351247D02*
X169636553Y-114446485D01*
X168731791Y-114113152D02*
X168731791Y-114779819D01*
X168731791Y-114208390D02*
X168684172Y-114160771D01*
X168684172Y-114160771D02*
X168588934Y-114113152D01*
X168588934Y-114113152D02*
X168446077Y-114113152D01*
X168446077Y-114113152D02*
X168350839Y-114160771D01*
X168350839Y-114160771D02*
X168303220Y-114256009D01*
X168303220Y-114256009D02*
X168303220Y-114779819D01*
X167827029Y-114113152D02*
X167827029Y-114779819D01*
X167827029Y-114208390D02*
X167779410Y-114160771D01*
X167779410Y-114160771D02*
X167684172Y-114113152D01*
X167684172Y-114113152D02*
X167541315Y-114113152D01*
X167541315Y-114113152D02*
X167446077Y-114160771D01*
X167446077Y-114160771D02*
X167398458Y-114256009D01*
X167398458Y-114256009D02*
X167398458Y-114779819D01*
X166541315Y-114732200D02*
X166636553Y-114779819D01*
X166636553Y-114779819D02*
X166827029Y-114779819D01*
X166827029Y-114779819D02*
X166922267Y-114732200D01*
X166922267Y-114732200D02*
X166969886Y-114636961D01*
X166969886Y-114636961D02*
X166969886Y-114256009D01*
X166969886Y-114256009D02*
X166922267Y-114160771D01*
X166922267Y-114160771D02*
X166827029Y-114113152D01*
X166827029Y-114113152D02*
X166636553Y-114113152D01*
X166636553Y-114113152D02*
X166541315Y-114160771D01*
X166541315Y-114160771D02*
X166493696Y-114256009D01*
X166493696Y-114256009D02*
X166493696Y-114351247D01*
X166493696Y-114351247D02*
X166969886Y-114446485D01*
X164779410Y-113827438D02*
X164874648Y-113779819D01*
X164874648Y-113779819D02*
X165017505Y-113779819D01*
X165017505Y-113779819D02*
X165160362Y-113827438D01*
X165160362Y-113827438D02*
X165255600Y-113922676D01*
X165255600Y-113922676D02*
X165303219Y-114017914D01*
X165303219Y-114017914D02*
X165350838Y-114208390D01*
X165350838Y-114208390D02*
X165350838Y-114351247D01*
X165350838Y-114351247D02*
X165303219Y-114541723D01*
X165303219Y-114541723D02*
X165255600Y-114636961D01*
X165255600Y-114636961D02*
X165160362Y-114732200D01*
X165160362Y-114732200D02*
X165017505Y-114779819D01*
X165017505Y-114779819D02*
X164922267Y-114779819D01*
X164922267Y-114779819D02*
X164779410Y-114732200D01*
X164779410Y-114732200D02*
X164731791Y-114684580D01*
X164731791Y-114684580D02*
X164731791Y-114351247D01*
X164731791Y-114351247D02*
X164922267Y-114351247D01*
X163922267Y-114732200D02*
X164017505Y-114779819D01*
X164017505Y-114779819D02*
X164207981Y-114779819D01*
X164207981Y-114779819D02*
X164303219Y-114732200D01*
X164303219Y-114732200D02*
X164350838Y-114636961D01*
X164350838Y-114636961D02*
X164350838Y-114256009D01*
X164350838Y-114256009D02*
X164303219Y-114160771D01*
X164303219Y-114160771D02*
X164207981Y-114113152D01*
X164207981Y-114113152D02*
X164017505Y-114113152D01*
X164017505Y-114113152D02*
X163922267Y-114160771D01*
X163922267Y-114160771D02*
X163874648Y-114256009D01*
X163874648Y-114256009D02*
X163874648Y-114351247D01*
X163874648Y-114351247D02*
X164350838Y-114446485D01*
X163446076Y-114113152D02*
X163446076Y-114779819D01*
X163446076Y-114208390D02*
X163398457Y-114160771D01*
X163398457Y-114160771D02*
X163303219Y-114113152D01*
X163303219Y-114113152D02*
X163160362Y-114113152D01*
X163160362Y-114113152D02*
X163065124Y-114160771D01*
X163065124Y-114160771D02*
X163017505Y-114256009D01*
X163017505Y-114256009D02*
X163017505Y-114779819D01*
X162112743Y-114779819D02*
X162112743Y-113779819D01*
X162112743Y-114732200D02*
X162207981Y-114779819D01*
X162207981Y-114779819D02*
X162398457Y-114779819D01*
X162398457Y-114779819D02*
X162493695Y-114732200D01*
X162493695Y-114732200D02*
X162541314Y-114684580D01*
X162541314Y-114684580D02*
X162588933Y-114589342D01*
X162588933Y-114589342D02*
X162588933Y-114303628D01*
X162588933Y-114303628D02*
X162541314Y-114208390D01*
X162541314Y-114208390D02*
X162493695Y-114160771D01*
X162493695Y-114160771D02*
X162398457Y-114113152D01*
X162398457Y-114113152D02*
X162207981Y-114113152D01*
X162207981Y-114113152D02*
X162112743Y-114160771D01*
X161636552Y-114779819D02*
X161636552Y-114113152D01*
X161636552Y-114303628D02*
X161588933Y-114208390D01*
X161588933Y-114208390D02*
X161541314Y-114160771D01*
X161541314Y-114160771D02*
X161446076Y-114113152D01*
X161446076Y-114113152D02*
X161350838Y-114113152D01*
X160874647Y-114779819D02*
X160969885Y-114732200D01*
X160969885Y-114732200D02*
X161017504Y-114684580D01*
X161017504Y-114684580D02*
X161065123Y-114589342D01*
X161065123Y-114589342D02*
X161065123Y-114303628D01*
X161065123Y-114303628D02*
X161017504Y-114208390D01*
X161017504Y-114208390D02*
X160969885Y-114160771D01*
X160969885Y-114160771D02*
X160874647Y-114113152D01*
X160874647Y-114113152D02*
X160731790Y-114113152D01*
X160731790Y-114113152D02*
X160636552Y-114160771D01*
X160636552Y-114160771D02*
X160588933Y-114208390D01*
X160588933Y-114208390D02*
X160541314Y-114303628D01*
X160541314Y-114303628D02*
X160541314Y-114589342D01*
X160541314Y-114589342D02*
X160588933Y-114684580D01*
X160588933Y-114684580D02*
X160636552Y-114732200D01*
X160636552Y-114732200D02*
X160731790Y-114779819D01*
X160731790Y-114779819D02*
X160874647Y-114779819D01*
X160112742Y-114113152D02*
X160112742Y-114779819D01*
X160112742Y-114208390D02*
X160065123Y-114160771D01*
X160065123Y-114160771D02*
X159969885Y-114113152D01*
X159969885Y-114113152D02*
X159827028Y-114113152D01*
X159827028Y-114113152D02*
X159731790Y-114160771D01*
X159731790Y-114160771D02*
X159684171Y-114256009D01*
X159684171Y-114256009D02*
X159684171Y-114779819D01*
X159207980Y-114398866D02*
X158446076Y-114398866D01*
X157636552Y-114256009D02*
X157969885Y-114256009D01*
X157969885Y-114779819D02*
X157969885Y-113779819D01*
X157969885Y-113779819D02*
X157493695Y-113779819D01*
X156969885Y-114779819D02*
X157065123Y-114732200D01*
X157065123Y-114732200D02*
X157112742Y-114684580D01*
X157112742Y-114684580D02*
X157160361Y-114589342D01*
X157160361Y-114589342D02*
X157160361Y-114303628D01*
X157160361Y-114303628D02*
X157112742Y-114208390D01*
X157112742Y-114208390D02*
X157065123Y-114160771D01*
X157065123Y-114160771D02*
X156969885Y-114113152D01*
X156969885Y-114113152D02*
X156827028Y-114113152D01*
X156827028Y-114113152D02*
X156731790Y-114160771D01*
X156731790Y-114160771D02*
X156684171Y-114208390D01*
X156684171Y-114208390D02*
X156636552Y-114303628D01*
X156636552Y-114303628D02*
X156636552Y-114589342D01*
X156636552Y-114589342D02*
X156684171Y-114684580D01*
X156684171Y-114684580D02*
X156731790Y-114732200D01*
X156731790Y-114732200D02*
X156827028Y-114779819D01*
X156827028Y-114779819D02*
X156969885Y-114779819D01*
X156207980Y-114113152D02*
X156207980Y-114779819D01*
X156207980Y-114208390D02*
X156160361Y-114160771D01*
X156160361Y-114160771D02*
X156065123Y-114113152D01*
X156065123Y-114113152D02*
X155922266Y-114113152D01*
X155922266Y-114113152D02*
X155827028Y-114160771D01*
X155827028Y-114160771D02*
X155779409Y-114256009D01*
X155779409Y-114256009D02*
X155779409Y-114779819D01*
X155446075Y-114113152D02*
X155065123Y-114113152D01*
X155303218Y-113779819D02*
X155303218Y-114636961D01*
X155303218Y-114636961D02*
X155255599Y-114732200D01*
X155255599Y-114732200D02*
X155160361Y-114779819D01*
X155160361Y-114779819D02*
X155065123Y-114779819D01*
X154303218Y-114779819D02*
X154303218Y-114256009D01*
X154303218Y-114256009D02*
X154350837Y-114160771D01*
X154350837Y-114160771D02*
X154446075Y-114113152D01*
X154446075Y-114113152D02*
X154636551Y-114113152D01*
X154636551Y-114113152D02*
X154731789Y-114160771D01*
X154303218Y-114732200D02*
X154398456Y-114779819D01*
X154398456Y-114779819D02*
X154636551Y-114779819D01*
X154636551Y-114779819D02*
X154731789Y-114732200D01*
X154731789Y-114732200D02*
X154779408Y-114636961D01*
X154779408Y-114636961D02*
X154779408Y-114541723D01*
X154779408Y-114541723D02*
X154731789Y-114446485D01*
X154731789Y-114446485D02*
X154636551Y-114398866D01*
X154636551Y-114398866D02*
X154398456Y-114398866D01*
X154398456Y-114398866D02*
X154303218Y-114351247D01*
X153827027Y-114779819D02*
X153827027Y-114113152D01*
X153827027Y-113779819D02*
X153874646Y-113827438D01*
X153874646Y-113827438D02*
X153827027Y-113875057D01*
X153827027Y-113875057D02*
X153779408Y-113827438D01*
X153779408Y-113827438D02*
X153827027Y-113779819D01*
X153827027Y-113779819D02*
X153827027Y-113875057D01*
X153350837Y-114113152D02*
X153350837Y-114779819D01*
X153350837Y-114208390D02*
X153303218Y-114160771D01*
X153303218Y-114160771D02*
X153207980Y-114113152D01*
X153207980Y-114113152D02*
X153065123Y-114113152D01*
X153065123Y-114113152D02*
X152969885Y-114160771D01*
X152969885Y-114160771D02*
X152922266Y-114256009D01*
X152922266Y-114256009D02*
X152922266Y-114779819D01*
X152065123Y-114732200D02*
X152160361Y-114779819D01*
X152160361Y-114779819D02*
X152350837Y-114779819D01*
X152350837Y-114779819D02*
X152446075Y-114732200D01*
X152446075Y-114732200D02*
X152493694Y-114636961D01*
X152493694Y-114636961D02*
X152493694Y-114256009D01*
X152493694Y-114256009D02*
X152446075Y-114160771D01*
X152446075Y-114160771D02*
X152350837Y-114113152D01*
X152350837Y-114113152D02*
X152160361Y-114113152D01*
X152160361Y-114113152D02*
X152065123Y-114160771D01*
X152065123Y-114160771D02*
X152017504Y-114256009D01*
X152017504Y-114256009D02*
X152017504Y-114351247D01*
X152017504Y-114351247D02*
X152493694Y-114446485D01*
M02*
