%TF.GenerationSoftware,KiCad,Pcbnew,7.0.7*%
%TF.CreationDate,2023-09-13T14:26:25-04:00*%
%TF.ProjectId,Alim12,416c696d-3132-42e6-9b69-6361645f7063,rev?*%
%TF.SameCoordinates,Original*%
%TF.FileFunction,Soldermask,Top*%
%TF.FilePolarity,Negative*%
%FSLAX46Y46*%
G04 Gerber Fmt 4.6, Leading zero omitted, Abs format (unit mm)*
G04 Created by KiCad (PCBNEW 7.0.7) date 2023-09-13 14:26:25*
%MOMM*%
%LPD*%
G01*
G04 APERTURE LIST*
G04 Aperture macros list*
%AMRoundRect*
0 Rectangle with rounded corners*
0 $1 Rounding radius*
0 $2 $3 $4 $5 $6 $7 $8 $9 X,Y pos of 4 corners*
0 Add a 4 corners polygon primitive as box body*
4,1,4,$2,$3,$4,$5,$6,$7,$8,$9,$2,$3,0*
0 Add four circle primitives for the rounded corners*
1,1,$1+$1,$2,$3*
1,1,$1+$1,$4,$5*
1,1,$1+$1,$6,$7*
1,1,$1+$1,$8,$9*
0 Add four rect primitives between the rounded corners*
20,1,$1+$1,$2,$3,$4,$5,0*
20,1,$1+$1,$4,$5,$6,$7,0*
20,1,$1+$1,$6,$7,$8,$9,0*
20,1,$1+$1,$8,$9,$2,$3,0*%
G04 Aperture macros list end*
%ADD10C,0.010000*%
%ADD11R,2.400000X2.400000*%
%ADD12C,2.400000*%
%ADD13R,2.100000X2.100000*%
%ADD14C,2.100000*%
%ADD15RoundRect,0.250000X0.262500X0.450000X-0.262500X0.450000X-0.262500X-0.450000X0.262500X-0.450000X0*%
%ADD16RoundRect,0.250000X0.362500X1.425000X-0.362500X1.425000X-0.362500X-1.425000X0.362500X-1.425000X0*%
%ADD17C,1.524000*%
%ADD18RoundRect,0.243750X-0.243750X-0.456250X0.243750X-0.456250X0.243750X0.456250X-0.243750X0.456250X0*%
%ADD19RoundRect,0.250000X-0.262500X-0.450000X0.262500X-0.450000X0.262500X0.450000X-0.262500X0.450000X0*%
%ADD20RoundRect,0.750000X-0.750000X-0.750000X0.750000X-0.750000X0.750000X0.750000X-0.750000X0.750000X0*%
%ADD21C,3.000000*%
%ADD22R,3.200000X3.200000*%
%ADD23O,3.200000X3.200000*%
%ADD24R,1.200000X1.200000*%
%ADD25C,1.200000*%
G04 APERTURE END LIST*
%TO.C,U1*%
D10*
X142748000Y-104811000D02*
X142750000Y-104811000D01*
X142753000Y-104812000D01*
X142755000Y-104812000D01*
X142758000Y-104813000D01*
X142760000Y-104814000D01*
X142763000Y-104815000D01*
X142765000Y-104817000D01*
X142767000Y-104818000D01*
X142769000Y-104820000D01*
X142771000Y-104821000D01*
X142773000Y-104823000D01*
X142775000Y-104825000D01*
X142777000Y-104827000D01*
X142779000Y-104829000D01*
X142780000Y-104831000D01*
X142782000Y-104833000D01*
X142783000Y-104835000D01*
X142785000Y-104837000D01*
X142786000Y-104840000D01*
X142787000Y-104842000D01*
X142788000Y-104845000D01*
X142788000Y-104847000D01*
X142789000Y-104850000D01*
X142789000Y-104852000D01*
X142790000Y-104855000D01*
X142790000Y-104857000D01*
X142790000Y-104860000D01*
X142790000Y-105500000D01*
X142790000Y-105503000D01*
X142790000Y-105505000D01*
X142789000Y-105508000D01*
X142789000Y-105510000D01*
X142788000Y-105513000D01*
X142788000Y-105515000D01*
X142787000Y-105518000D01*
X142786000Y-105520000D01*
X142785000Y-105523000D01*
X142783000Y-105525000D01*
X142782000Y-105527000D01*
X142780000Y-105529000D01*
X142779000Y-105531000D01*
X142777000Y-105533000D01*
X142775000Y-105535000D01*
X142773000Y-105537000D01*
X142771000Y-105539000D01*
X142769000Y-105540000D01*
X142767000Y-105542000D01*
X142765000Y-105543000D01*
X142763000Y-105545000D01*
X142760000Y-105546000D01*
X142758000Y-105547000D01*
X142755000Y-105548000D01*
X142753000Y-105548000D01*
X142750000Y-105549000D01*
X142748000Y-105549000D01*
X142745000Y-105550000D01*
X142743000Y-105550000D01*
X142740000Y-105550000D01*
X140700000Y-105550000D01*
X140697000Y-105550000D01*
X140695000Y-105550000D01*
X140692000Y-105549000D01*
X140690000Y-105549000D01*
X140687000Y-105548000D01*
X140685000Y-105548000D01*
X140682000Y-105547000D01*
X140680000Y-105546000D01*
X140677000Y-105545000D01*
X140675000Y-105543000D01*
X140673000Y-105542000D01*
X140671000Y-105540000D01*
X140669000Y-105539000D01*
X140667000Y-105537000D01*
X140665000Y-105535000D01*
X140663000Y-105533000D01*
X140661000Y-105531000D01*
X140660000Y-105529000D01*
X140658000Y-105527000D01*
X140657000Y-105525000D01*
X140655000Y-105523000D01*
X140654000Y-105520000D01*
X140653000Y-105518000D01*
X140652000Y-105515000D01*
X140652000Y-105513000D01*
X140651000Y-105510000D01*
X140651000Y-105508000D01*
X140650000Y-105505000D01*
X140650000Y-105503000D01*
X140650000Y-105500000D01*
X140650000Y-104860000D01*
X140650000Y-104857000D01*
X140650000Y-104855000D01*
X140651000Y-104852000D01*
X140651000Y-104850000D01*
X140652000Y-104847000D01*
X140652000Y-104845000D01*
X140653000Y-104842000D01*
X140654000Y-104840000D01*
X140655000Y-104837000D01*
X140657000Y-104835000D01*
X140658000Y-104833000D01*
X140660000Y-104831000D01*
X140661000Y-104829000D01*
X140663000Y-104827000D01*
X140665000Y-104825000D01*
X140667000Y-104823000D01*
X140669000Y-104821000D01*
X140671000Y-104820000D01*
X140673000Y-104818000D01*
X140675000Y-104817000D01*
X140677000Y-104815000D01*
X140680000Y-104814000D01*
X140682000Y-104813000D01*
X140685000Y-104812000D01*
X140687000Y-104812000D01*
X140690000Y-104811000D01*
X140692000Y-104811000D01*
X140695000Y-104810000D01*
X140697000Y-104810000D01*
X140700000Y-104810000D01*
X142740000Y-104810000D01*
X142743000Y-104810000D01*
X142745000Y-104810000D01*
X142748000Y-104811000D01*
G36*
X142748000Y-104811000D02*
G01*
X142750000Y-104811000D01*
X142753000Y-104812000D01*
X142755000Y-104812000D01*
X142758000Y-104813000D01*
X142760000Y-104814000D01*
X142763000Y-104815000D01*
X142765000Y-104817000D01*
X142767000Y-104818000D01*
X142769000Y-104820000D01*
X142771000Y-104821000D01*
X142773000Y-104823000D01*
X142775000Y-104825000D01*
X142777000Y-104827000D01*
X142779000Y-104829000D01*
X142780000Y-104831000D01*
X142782000Y-104833000D01*
X142783000Y-104835000D01*
X142785000Y-104837000D01*
X142786000Y-104840000D01*
X142787000Y-104842000D01*
X142788000Y-104845000D01*
X142788000Y-104847000D01*
X142789000Y-104850000D01*
X142789000Y-104852000D01*
X142790000Y-104855000D01*
X142790000Y-104857000D01*
X142790000Y-104860000D01*
X142790000Y-105500000D01*
X142790000Y-105503000D01*
X142790000Y-105505000D01*
X142789000Y-105508000D01*
X142789000Y-105510000D01*
X142788000Y-105513000D01*
X142788000Y-105515000D01*
X142787000Y-105518000D01*
X142786000Y-105520000D01*
X142785000Y-105523000D01*
X142783000Y-105525000D01*
X142782000Y-105527000D01*
X142780000Y-105529000D01*
X142779000Y-105531000D01*
X142777000Y-105533000D01*
X142775000Y-105535000D01*
X142773000Y-105537000D01*
X142771000Y-105539000D01*
X142769000Y-105540000D01*
X142767000Y-105542000D01*
X142765000Y-105543000D01*
X142763000Y-105545000D01*
X142760000Y-105546000D01*
X142758000Y-105547000D01*
X142755000Y-105548000D01*
X142753000Y-105548000D01*
X142750000Y-105549000D01*
X142748000Y-105549000D01*
X142745000Y-105550000D01*
X142743000Y-105550000D01*
X142740000Y-105550000D01*
X140700000Y-105550000D01*
X140697000Y-105550000D01*
X140695000Y-105550000D01*
X140692000Y-105549000D01*
X140690000Y-105549000D01*
X140687000Y-105548000D01*
X140685000Y-105548000D01*
X140682000Y-105547000D01*
X140680000Y-105546000D01*
X140677000Y-105545000D01*
X140675000Y-105543000D01*
X140673000Y-105542000D01*
X140671000Y-105540000D01*
X140669000Y-105539000D01*
X140667000Y-105537000D01*
X140665000Y-105535000D01*
X140663000Y-105533000D01*
X140661000Y-105531000D01*
X140660000Y-105529000D01*
X140658000Y-105527000D01*
X140657000Y-105525000D01*
X140655000Y-105523000D01*
X140654000Y-105520000D01*
X140653000Y-105518000D01*
X140652000Y-105515000D01*
X140652000Y-105513000D01*
X140651000Y-105510000D01*
X140651000Y-105508000D01*
X140650000Y-105505000D01*
X140650000Y-105503000D01*
X140650000Y-105500000D01*
X140650000Y-104860000D01*
X140650000Y-104857000D01*
X140650000Y-104855000D01*
X140651000Y-104852000D01*
X140651000Y-104850000D01*
X140652000Y-104847000D01*
X140652000Y-104845000D01*
X140653000Y-104842000D01*
X140654000Y-104840000D01*
X140655000Y-104837000D01*
X140657000Y-104835000D01*
X140658000Y-104833000D01*
X140660000Y-104831000D01*
X140661000Y-104829000D01*
X140663000Y-104827000D01*
X140665000Y-104825000D01*
X140667000Y-104823000D01*
X140669000Y-104821000D01*
X140671000Y-104820000D01*
X140673000Y-104818000D01*
X140675000Y-104817000D01*
X140677000Y-104815000D01*
X140680000Y-104814000D01*
X140682000Y-104813000D01*
X140685000Y-104812000D01*
X140687000Y-104812000D01*
X140690000Y-104811000D01*
X140692000Y-104811000D01*
X140695000Y-104810000D01*
X140697000Y-104810000D01*
X140700000Y-104810000D01*
X142740000Y-104810000D01*
X142743000Y-104810000D01*
X142745000Y-104810000D01*
X142748000Y-104811000D01*
G37*
X142748000Y-106081000D02*
X142750000Y-106081000D01*
X142753000Y-106082000D01*
X142755000Y-106082000D01*
X142758000Y-106083000D01*
X142760000Y-106084000D01*
X142763000Y-106085000D01*
X142765000Y-106087000D01*
X142767000Y-106088000D01*
X142769000Y-106090000D01*
X142771000Y-106091000D01*
X142773000Y-106093000D01*
X142775000Y-106095000D01*
X142777000Y-106097000D01*
X142779000Y-106099000D01*
X142780000Y-106101000D01*
X142782000Y-106103000D01*
X142783000Y-106105000D01*
X142785000Y-106107000D01*
X142786000Y-106110000D01*
X142787000Y-106112000D01*
X142788000Y-106115000D01*
X142788000Y-106117000D01*
X142789000Y-106120000D01*
X142789000Y-106122000D01*
X142790000Y-106125000D01*
X142790000Y-106127000D01*
X142790000Y-106130000D01*
X142790000Y-106770000D01*
X142790000Y-106773000D01*
X142790000Y-106775000D01*
X142789000Y-106778000D01*
X142789000Y-106780000D01*
X142788000Y-106783000D01*
X142788000Y-106785000D01*
X142787000Y-106788000D01*
X142786000Y-106790000D01*
X142785000Y-106793000D01*
X142783000Y-106795000D01*
X142782000Y-106797000D01*
X142780000Y-106799000D01*
X142779000Y-106801000D01*
X142777000Y-106803000D01*
X142775000Y-106805000D01*
X142773000Y-106807000D01*
X142771000Y-106809000D01*
X142769000Y-106810000D01*
X142767000Y-106812000D01*
X142765000Y-106813000D01*
X142763000Y-106815000D01*
X142760000Y-106816000D01*
X142758000Y-106817000D01*
X142755000Y-106818000D01*
X142753000Y-106818000D01*
X142750000Y-106819000D01*
X142748000Y-106819000D01*
X142745000Y-106820000D01*
X142743000Y-106820000D01*
X142740000Y-106820000D01*
X140700000Y-106820000D01*
X140697000Y-106820000D01*
X140695000Y-106820000D01*
X140692000Y-106819000D01*
X140690000Y-106819000D01*
X140687000Y-106818000D01*
X140685000Y-106818000D01*
X140682000Y-106817000D01*
X140680000Y-106816000D01*
X140677000Y-106815000D01*
X140675000Y-106813000D01*
X140673000Y-106812000D01*
X140671000Y-106810000D01*
X140669000Y-106809000D01*
X140667000Y-106807000D01*
X140665000Y-106805000D01*
X140663000Y-106803000D01*
X140661000Y-106801000D01*
X140660000Y-106799000D01*
X140658000Y-106797000D01*
X140657000Y-106795000D01*
X140655000Y-106793000D01*
X140654000Y-106790000D01*
X140653000Y-106788000D01*
X140652000Y-106785000D01*
X140652000Y-106783000D01*
X140651000Y-106780000D01*
X140651000Y-106778000D01*
X140650000Y-106775000D01*
X140650000Y-106773000D01*
X140650000Y-106770000D01*
X140650000Y-106130000D01*
X140650000Y-106127000D01*
X140650000Y-106125000D01*
X140651000Y-106122000D01*
X140651000Y-106120000D01*
X140652000Y-106117000D01*
X140652000Y-106115000D01*
X140653000Y-106112000D01*
X140654000Y-106110000D01*
X140655000Y-106107000D01*
X140657000Y-106105000D01*
X140658000Y-106103000D01*
X140660000Y-106101000D01*
X140661000Y-106099000D01*
X140663000Y-106097000D01*
X140665000Y-106095000D01*
X140667000Y-106093000D01*
X140669000Y-106091000D01*
X140671000Y-106090000D01*
X140673000Y-106088000D01*
X140675000Y-106087000D01*
X140677000Y-106085000D01*
X140680000Y-106084000D01*
X140682000Y-106083000D01*
X140685000Y-106082000D01*
X140687000Y-106082000D01*
X140690000Y-106081000D01*
X140692000Y-106081000D01*
X140695000Y-106080000D01*
X140697000Y-106080000D01*
X140700000Y-106080000D01*
X142740000Y-106080000D01*
X142743000Y-106080000D01*
X142745000Y-106080000D01*
X142748000Y-106081000D01*
G36*
X142748000Y-106081000D02*
G01*
X142750000Y-106081000D01*
X142753000Y-106082000D01*
X142755000Y-106082000D01*
X142758000Y-106083000D01*
X142760000Y-106084000D01*
X142763000Y-106085000D01*
X142765000Y-106087000D01*
X142767000Y-106088000D01*
X142769000Y-106090000D01*
X142771000Y-106091000D01*
X142773000Y-106093000D01*
X142775000Y-106095000D01*
X142777000Y-106097000D01*
X142779000Y-106099000D01*
X142780000Y-106101000D01*
X142782000Y-106103000D01*
X142783000Y-106105000D01*
X142785000Y-106107000D01*
X142786000Y-106110000D01*
X142787000Y-106112000D01*
X142788000Y-106115000D01*
X142788000Y-106117000D01*
X142789000Y-106120000D01*
X142789000Y-106122000D01*
X142790000Y-106125000D01*
X142790000Y-106127000D01*
X142790000Y-106130000D01*
X142790000Y-106770000D01*
X142790000Y-106773000D01*
X142790000Y-106775000D01*
X142789000Y-106778000D01*
X142789000Y-106780000D01*
X142788000Y-106783000D01*
X142788000Y-106785000D01*
X142787000Y-106788000D01*
X142786000Y-106790000D01*
X142785000Y-106793000D01*
X142783000Y-106795000D01*
X142782000Y-106797000D01*
X142780000Y-106799000D01*
X142779000Y-106801000D01*
X142777000Y-106803000D01*
X142775000Y-106805000D01*
X142773000Y-106807000D01*
X142771000Y-106809000D01*
X142769000Y-106810000D01*
X142767000Y-106812000D01*
X142765000Y-106813000D01*
X142763000Y-106815000D01*
X142760000Y-106816000D01*
X142758000Y-106817000D01*
X142755000Y-106818000D01*
X142753000Y-106818000D01*
X142750000Y-106819000D01*
X142748000Y-106819000D01*
X142745000Y-106820000D01*
X142743000Y-106820000D01*
X142740000Y-106820000D01*
X140700000Y-106820000D01*
X140697000Y-106820000D01*
X140695000Y-106820000D01*
X140692000Y-106819000D01*
X140690000Y-106819000D01*
X140687000Y-106818000D01*
X140685000Y-106818000D01*
X140682000Y-106817000D01*
X140680000Y-106816000D01*
X140677000Y-106815000D01*
X140675000Y-106813000D01*
X140673000Y-106812000D01*
X140671000Y-106810000D01*
X140669000Y-106809000D01*
X140667000Y-106807000D01*
X140665000Y-106805000D01*
X140663000Y-106803000D01*
X140661000Y-106801000D01*
X140660000Y-106799000D01*
X140658000Y-106797000D01*
X140657000Y-106795000D01*
X140655000Y-106793000D01*
X140654000Y-106790000D01*
X140653000Y-106788000D01*
X140652000Y-106785000D01*
X140652000Y-106783000D01*
X140651000Y-106780000D01*
X140651000Y-106778000D01*
X140650000Y-106775000D01*
X140650000Y-106773000D01*
X140650000Y-106770000D01*
X140650000Y-106130000D01*
X140650000Y-106127000D01*
X140650000Y-106125000D01*
X140651000Y-106122000D01*
X140651000Y-106120000D01*
X140652000Y-106117000D01*
X140652000Y-106115000D01*
X140653000Y-106112000D01*
X140654000Y-106110000D01*
X140655000Y-106107000D01*
X140657000Y-106105000D01*
X140658000Y-106103000D01*
X140660000Y-106101000D01*
X140661000Y-106099000D01*
X140663000Y-106097000D01*
X140665000Y-106095000D01*
X140667000Y-106093000D01*
X140669000Y-106091000D01*
X140671000Y-106090000D01*
X140673000Y-106088000D01*
X140675000Y-106087000D01*
X140677000Y-106085000D01*
X140680000Y-106084000D01*
X140682000Y-106083000D01*
X140685000Y-106082000D01*
X140687000Y-106082000D01*
X140690000Y-106081000D01*
X140692000Y-106081000D01*
X140695000Y-106080000D01*
X140697000Y-106080000D01*
X140700000Y-106080000D01*
X142740000Y-106080000D01*
X142743000Y-106080000D01*
X142745000Y-106080000D01*
X142748000Y-106081000D01*
G37*
X142748000Y-107351000D02*
X142750000Y-107351000D01*
X142753000Y-107352000D01*
X142755000Y-107352000D01*
X142758000Y-107353000D01*
X142760000Y-107354000D01*
X142763000Y-107355000D01*
X142765000Y-107357000D01*
X142767000Y-107358000D01*
X142769000Y-107360000D01*
X142771000Y-107361000D01*
X142773000Y-107363000D01*
X142775000Y-107365000D01*
X142777000Y-107367000D01*
X142779000Y-107369000D01*
X142780000Y-107371000D01*
X142782000Y-107373000D01*
X142783000Y-107375000D01*
X142785000Y-107377000D01*
X142786000Y-107380000D01*
X142787000Y-107382000D01*
X142788000Y-107385000D01*
X142788000Y-107387000D01*
X142789000Y-107390000D01*
X142789000Y-107392000D01*
X142790000Y-107395000D01*
X142790000Y-107397000D01*
X142790000Y-107400000D01*
X142790000Y-108040000D01*
X142790000Y-108043000D01*
X142790000Y-108045000D01*
X142789000Y-108048000D01*
X142789000Y-108050000D01*
X142788000Y-108053000D01*
X142788000Y-108055000D01*
X142787000Y-108058000D01*
X142786000Y-108060000D01*
X142785000Y-108063000D01*
X142783000Y-108065000D01*
X142782000Y-108067000D01*
X142780000Y-108069000D01*
X142779000Y-108071000D01*
X142777000Y-108073000D01*
X142775000Y-108075000D01*
X142773000Y-108077000D01*
X142771000Y-108079000D01*
X142769000Y-108080000D01*
X142767000Y-108082000D01*
X142765000Y-108083000D01*
X142763000Y-108085000D01*
X142760000Y-108086000D01*
X142758000Y-108087000D01*
X142755000Y-108088000D01*
X142753000Y-108088000D01*
X142750000Y-108089000D01*
X142748000Y-108089000D01*
X142745000Y-108090000D01*
X142743000Y-108090000D01*
X142740000Y-108090000D01*
X140700000Y-108090000D01*
X140697000Y-108090000D01*
X140695000Y-108090000D01*
X140692000Y-108089000D01*
X140690000Y-108089000D01*
X140687000Y-108088000D01*
X140685000Y-108088000D01*
X140682000Y-108087000D01*
X140680000Y-108086000D01*
X140677000Y-108085000D01*
X140675000Y-108083000D01*
X140673000Y-108082000D01*
X140671000Y-108080000D01*
X140669000Y-108079000D01*
X140667000Y-108077000D01*
X140665000Y-108075000D01*
X140663000Y-108073000D01*
X140661000Y-108071000D01*
X140660000Y-108069000D01*
X140658000Y-108067000D01*
X140657000Y-108065000D01*
X140655000Y-108063000D01*
X140654000Y-108060000D01*
X140653000Y-108058000D01*
X140652000Y-108055000D01*
X140652000Y-108053000D01*
X140651000Y-108050000D01*
X140651000Y-108048000D01*
X140650000Y-108045000D01*
X140650000Y-108043000D01*
X140650000Y-108040000D01*
X140650000Y-107400000D01*
X140650000Y-107397000D01*
X140650000Y-107395000D01*
X140651000Y-107392000D01*
X140651000Y-107390000D01*
X140652000Y-107387000D01*
X140652000Y-107385000D01*
X140653000Y-107382000D01*
X140654000Y-107380000D01*
X140655000Y-107377000D01*
X140657000Y-107375000D01*
X140658000Y-107373000D01*
X140660000Y-107371000D01*
X140661000Y-107369000D01*
X140663000Y-107367000D01*
X140665000Y-107365000D01*
X140667000Y-107363000D01*
X140669000Y-107361000D01*
X140671000Y-107360000D01*
X140673000Y-107358000D01*
X140675000Y-107357000D01*
X140677000Y-107355000D01*
X140680000Y-107354000D01*
X140682000Y-107353000D01*
X140685000Y-107352000D01*
X140687000Y-107352000D01*
X140690000Y-107351000D01*
X140692000Y-107351000D01*
X140695000Y-107350000D01*
X140697000Y-107350000D01*
X140700000Y-107350000D01*
X142740000Y-107350000D01*
X142743000Y-107350000D01*
X142745000Y-107350000D01*
X142748000Y-107351000D01*
G36*
X142748000Y-107351000D02*
G01*
X142750000Y-107351000D01*
X142753000Y-107352000D01*
X142755000Y-107352000D01*
X142758000Y-107353000D01*
X142760000Y-107354000D01*
X142763000Y-107355000D01*
X142765000Y-107357000D01*
X142767000Y-107358000D01*
X142769000Y-107360000D01*
X142771000Y-107361000D01*
X142773000Y-107363000D01*
X142775000Y-107365000D01*
X142777000Y-107367000D01*
X142779000Y-107369000D01*
X142780000Y-107371000D01*
X142782000Y-107373000D01*
X142783000Y-107375000D01*
X142785000Y-107377000D01*
X142786000Y-107380000D01*
X142787000Y-107382000D01*
X142788000Y-107385000D01*
X142788000Y-107387000D01*
X142789000Y-107390000D01*
X142789000Y-107392000D01*
X142790000Y-107395000D01*
X142790000Y-107397000D01*
X142790000Y-107400000D01*
X142790000Y-108040000D01*
X142790000Y-108043000D01*
X142790000Y-108045000D01*
X142789000Y-108048000D01*
X142789000Y-108050000D01*
X142788000Y-108053000D01*
X142788000Y-108055000D01*
X142787000Y-108058000D01*
X142786000Y-108060000D01*
X142785000Y-108063000D01*
X142783000Y-108065000D01*
X142782000Y-108067000D01*
X142780000Y-108069000D01*
X142779000Y-108071000D01*
X142777000Y-108073000D01*
X142775000Y-108075000D01*
X142773000Y-108077000D01*
X142771000Y-108079000D01*
X142769000Y-108080000D01*
X142767000Y-108082000D01*
X142765000Y-108083000D01*
X142763000Y-108085000D01*
X142760000Y-108086000D01*
X142758000Y-108087000D01*
X142755000Y-108088000D01*
X142753000Y-108088000D01*
X142750000Y-108089000D01*
X142748000Y-108089000D01*
X142745000Y-108090000D01*
X142743000Y-108090000D01*
X142740000Y-108090000D01*
X140700000Y-108090000D01*
X140697000Y-108090000D01*
X140695000Y-108090000D01*
X140692000Y-108089000D01*
X140690000Y-108089000D01*
X140687000Y-108088000D01*
X140685000Y-108088000D01*
X140682000Y-108087000D01*
X140680000Y-108086000D01*
X140677000Y-108085000D01*
X140675000Y-108083000D01*
X140673000Y-108082000D01*
X140671000Y-108080000D01*
X140669000Y-108079000D01*
X140667000Y-108077000D01*
X140665000Y-108075000D01*
X140663000Y-108073000D01*
X140661000Y-108071000D01*
X140660000Y-108069000D01*
X140658000Y-108067000D01*
X140657000Y-108065000D01*
X140655000Y-108063000D01*
X140654000Y-108060000D01*
X140653000Y-108058000D01*
X140652000Y-108055000D01*
X140652000Y-108053000D01*
X140651000Y-108050000D01*
X140651000Y-108048000D01*
X140650000Y-108045000D01*
X140650000Y-108043000D01*
X140650000Y-108040000D01*
X140650000Y-107400000D01*
X140650000Y-107397000D01*
X140650000Y-107395000D01*
X140651000Y-107392000D01*
X140651000Y-107390000D01*
X140652000Y-107387000D01*
X140652000Y-107385000D01*
X140653000Y-107382000D01*
X140654000Y-107380000D01*
X140655000Y-107377000D01*
X140657000Y-107375000D01*
X140658000Y-107373000D01*
X140660000Y-107371000D01*
X140661000Y-107369000D01*
X140663000Y-107367000D01*
X140665000Y-107365000D01*
X140667000Y-107363000D01*
X140669000Y-107361000D01*
X140671000Y-107360000D01*
X140673000Y-107358000D01*
X140675000Y-107357000D01*
X140677000Y-107355000D01*
X140680000Y-107354000D01*
X140682000Y-107353000D01*
X140685000Y-107352000D01*
X140687000Y-107352000D01*
X140690000Y-107351000D01*
X140692000Y-107351000D01*
X140695000Y-107350000D01*
X140697000Y-107350000D01*
X140700000Y-107350000D01*
X142740000Y-107350000D01*
X142743000Y-107350000D01*
X142745000Y-107350000D01*
X142748000Y-107351000D01*
G37*
X142748000Y-108621000D02*
X142750000Y-108621000D01*
X142753000Y-108622000D01*
X142755000Y-108622000D01*
X142758000Y-108623000D01*
X142760000Y-108624000D01*
X142763000Y-108625000D01*
X142765000Y-108627000D01*
X142767000Y-108628000D01*
X142769000Y-108630000D01*
X142771000Y-108631000D01*
X142773000Y-108633000D01*
X142775000Y-108635000D01*
X142777000Y-108637000D01*
X142779000Y-108639000D01*
X142780000Y-108641000D01*
X142782000Y-108643000D01*
X142783000Y-108645000D01*
X142785000Y-108647000D01*
X142786000Y-108650000D01*
X142787000Y-108652000D01*
X142788000Y-108655000D01*
X142788000Y-108657000D01*
X142789000Y-108660000D01*
X142789000Y-108662000D01*
X142790000Y-108665000D01*
X142790000Y-108667000D01*
X142790000Y-108670000D01*
X142790000Y-109310000D01*
X142790000Y-109313000D01*
X142790000Y-109315000D01*
X142789000Y-109318000D01*
X142789000Y-109320000D01*
X142788000Y-109323000D01*
X142788000Y-109325000D01*
X142787000Y-109328000D01*
X142786000Y-109330000D01*
X142785000Y-109333000D01*
X142783000Y-109335000D01*
X142782000Y-109337000D01*
X142780000Y-109339000D01*
X142779000Y-109341000D01*
X142777000Y-109343000D01*
X142775000Y-109345000D01*
X142773000Y-109347000D01*
X142771000Y-109349000D01*
X142769000Y-109350000D01*
X142767000Y-109352000D01*
X142765000Y-109353000D01*
X142763000Y-109355000D01*
X142760000Y-109356000D01*
X142758000Y-109357000D01*
X142755000Y-109358000D01*
X142753000Y-109358000D01*
X142750000Y-109359000D01*
X142748000Y-109359000D01*
X142745000Y-109360000D01*
X142743000Y-109360000D01*
X142740000Y-109360000D01*
X140700000Y-109360000D01*
X140697000Y-109360000D01*
X140695000Y-109360000D01*
X140692000Y-109359000D01*
X140690000Y-109359000D01*
X140687000Y-109358000D01*
X140685000Y-109358000D01*
X140682000Y-109357000D01*
X140680000Y-109356000D01*
X140677000Y-109355000D01*
X140675000Y-109353000D01*
X140673000Y-109352000D01*
X140671000Y-109350000D01*
X140669000Y-109349000D01*
X140667000Y-109347000D01*
X140665000Y-109345000D01*
X140663000Y-109343000D01*
X140661000Y-109341000D01*
X140660000Y-109339000D01*
X140658000Y-109337000D01*
X140657000Y-109335000D01*
X140655000Y-109333000D01*
X140654000Y-109330000D01*
X140653000Y-109328000D01*
X140652000Y-109325000D01*
X140652000Y-109323000D01*
X140651000Y-109320000D01*
X140651000Y-109318000D01*
X140650000Y-109315000D01*
X140650000Y-109313000D01*
X140650000Y-109310000D01*
X140650000Y-108670000D01*
X140650000Y-108667000D01*
X140650000Y-108665000D01*
X140651000Y-108662000D01*
X140651000Y-108660000D01*
X140652000Y-108657000D01*
X140652000Y-108655000D01*
X140653000Y-108652000D01*
X140654000Y-108650000D01*
X140655000Y-108647000D01*
X140657000Y-108645000D01*
X140658000Y-108643000D01*
X140660000Y-108641000D01*
X140661000Y-108639000D01*
X140663000Y-108637000D01*
X140665000Y-108635000D01*
X140667000Y-108633000D01*
X140669000Y-108631000D01*
X140671000Y-108630000D01*
X140673000Y-108628000D01*
X140675000Y-108627000D01*
X140677000Y-108625000D01*
X140680000Y-108624000D01*
X140682000Y-108623000D01*
X140685000Y-108622000D01*
X140687000Y-108622000D01*
X140690000Y-108621000D01*
X140692000Y-108621000D01*
X140695000Y-108620000D01*
X140697000Y-108620000D01*
X140700000Y-108620000D01*
X142740000Y-108620000D01*
X142743000Y-108620000D01*
X142745000Y-108620000D01*
X142748000Y-108621000D01*
G36*
X142748000Y-108621000D02*
G01*
X142750000Y-108621000D01*
X142753000Y-108622000D01*
X142755000Y-108622000D01*
X142758000Y-108623000D01*
X142760000Y-108624000D01*
X142763000Y-108625000D01*
X142765000Y-108627000D01*
X142767000Y-108628000D01*
X142769000Y-108630000D01*
X142771000Y-108631000D01*
X142773000Y-108633000D01*
X142775000Y-108635000D01*
X142777000Y-108637000D01*
X142779000Y-108639000D01*
X142780000Y-108641000D01*
X142782000Y-108643000D01*
X142783000Y-108645000D01*
X142785000Y-108647000D01*
X142786000Y-108650000D01*
X142787000Y-108652000D01*
X142788000Y-108655000D01*
X142788000Y-108657000D01*
X142789000Y-108660000D01*
X142789000Y-108662000D01*
X142790000Y-108665000D01*
X142790000Y-108667000D01*
X142790000Y-108670000D01*
X142790000Y-109310000D01*
X142790000Y-109313000D01*
X142790000Y-109315000D01*
X142789000Y-109318000D01*
X142789000Y-109320000D01*
X142788000Y-109323000D01*
X142788000Y-109325000D01*
X142787000Y-109328000D01*
X142786000Y-109330000D01*
X142785000Y-109333000D01*
X142783000Y-109335000D01*
X142782000Y-109337000D01*
X142780000Y-109339000D01*
X142779000Y-109341000D01*
X142777000Y-109343000D01*
X142775000Y-109345000D01*
X142773000Y-109347000D01*
X142771000Y-109349000D01*
X142769000Y-109350000D01*
X142767000Y-109352000D01*
X142765000Y-109353000D01*
X142763000Y-109355000D01*
X142760000Y-109356000D01*
X142758000Y-109357000D01*
X142755000Y-109358000D01*
X142753000Y-109358000D01*
X142750000Y-109359000D01*
X142748000Y-109359000D01*
X142745000Y-109360000D01*
X142743000Y-109360000D01*
X142740000Y-109360000D01*
X140700000Y-109360000D01*
X140697000Y-109360000D01*
X140695000Y-109360000D01*
X140692000Y-109359000D01*
X140690000Y-109359000D01*
X140687000Y-109358000D01*
X140685000Y-109358000D01*
X140682000Y-109357000D01*
X140680000Y-109356000D01*
X140677000Y-109355000D01*
X140675000Y-109353000D01*
X140673000Y-109352000D01*
X140671000Y-109350000D01*
X140669000Y-109349000D01*
X140667000Y-109347000D01*
X140665000Y-109345000D01*
X140663000Y-109343000D01*
X140661000Y-109341000D01*
X140660000Y-109339000D01*
X140658000Y-109337000D01*
X140657000Y-109335000D01*
X140655000Y-109333000D01*
X140654000Y-109330000D01*
X140653000Y-109328000D01*
X140652000Y-109325000D01*
X140652000Y-109323000D01*
X140651000Y-109320000D01*
X140651000Y-109318000D01*
X140650000Y-109315000D01*
X140650000Y-109313000D01*
X140650000Y-109310000D01*
X140650000Y-108670000D01*
X140650000Y-108667000D01*
X140650000Y-108665000D01*
X140651000Y-108662000D01*
X140651000Y-108660000D01*
X140652000Y-108657000D01*
X140652000Y-108655000D01*
X140653000Y-108652000D01*
X140654000Y-108650000D01*
X140655000Y-108647000D01*
X140657000Y-108645000D01*
X140658000Y-108643000D01*
X140660000Y-108641000D01*
X140661000Y-108639000D01*
X140663000Y-108637000D01*
X140665000Y-108635000D01*
X140667000Y-108633000D01*
X140669000Y-108631000D01*
X140671000Y-108630000D01*
X140673000Y-108628000D01*
X140675000Y-108627000D01*
X140677000Y-108625000D01*
X140680000Y-108624000D01*
X140682000Y-108623000D01*
X140685000Y-108622000D01*
X140687000Y-108622000D01*
X140690000Y-108621000D01*
X140692000Y-108621000D01*
X140695000Y-108620000D01*
X140697000Y-108620000D01*
X140700000Y-108620000D01*
X142740000Y-108620000D01*
X142743000Y-108620000D01*
X142745000Y-108620000D01*
X142748000Y-108621000D01*
G37*
X142748000Y-109891000D02*
X142750000Y-109891000D01*
X142753000Y-109892000D01*
X142755000Y-109892000D01*
X142758000Y-109893000D01*
X142760000Y-109894000D01*
X142763000Y-109895000D01*
X142765000Y-109897000D01*
X142767000Y-109898000D01*
X142769000Y-109900000D01*
X142771000Y-109901000D01*
X142773000Y-109903000D01*
X142775000Y-109905000D01*
X142777000Y-109907000D01*
X142779000Y-109909000D01*
X142780000Y-109911000D01*
X142782000Y-109913000D01*
X142783000Y-109915000D01*
X142785000Y-109917000D01*
X142786000Y-109920000D01*
X142787000Y-109922000D01*
X142788000Y-109925000D01*
X142788000Y-109927000D01*
X142789000Y-109930000D01*
X142789000Y-109932000D01*
X142790000Y-109935000D01*
X142790000Y-109937000D01*
X142790000Y-109940000D01*
X142790000Y-110580000D01*
X142790000Y-110583000D01*
X142790000Y-110585000D01*
X142789000Y-110588000D01*
X142789000Y-110590000D01*
X142788000Y-110593000D01*
X142788000Y-110595000D01*
X142787000Y-110598000D01*
X142786000Y-110600000D01*
X142785000Y-110603000D01*
X142783000Y-110605000D01*
X142782000Y-110607000D01*
X142780000Y-110609000D01*
X142779000Y-110611000D01*
X142777000Y-110613000D01*
X142775000Y-110615000D01*
X142773000Y-110617000D01*
X142771000Y-110619000D01*
X142769000Y-110620000D01*
X142767000Y-110622000D01*
X142765000Y-110623000D01*
X142763000Y-110625000D01*
X142760000Y-110626000D01*
X142758000Y-110627000D01*
X142755000Y-110628000D01*
X142753000Y-110628000D01*
X142750000Y-110629000D01*
X142748000Y-110629000D01*
X142745000Y-110630000D01*
X142743000Y-110630000D01*
X142740000Y-110630000D01*
X140700000Y-110630000D01*
X140697000Y-110630000D01*
X140695000Y-110630000D01*
X140692000Y-110629000D01*
X140690000Y-110629000D01*
X140687000Y-110628000D01*
X140685000Y-110628000D01*
X140682000Y-110627000D01*
X140680000Y-110626000D01*
X140677000Y-110625000D01*
X140675000Y-110623000D01*
X140673000Y-110622000D01*
X140671000Y-110620000D01*
X140669000Y-110619000D01*
X140667000Y-110617000D01*
X140665000Y-110615000D01*
X140663000Y-110613000D01*
X140661000Y-110611000D01*
X140660000Y-110609000D01*
X140658000Y-110607000D01*
X140657000Y-110605000D01*
X140655000Y-110603000D01*
X140654000Y-110600000D01*
X140653000Y-110598000D01*
X140652000Y-110595000D01*
X140652000Y-110593000D01*
X140651000Y-110590000D01*
X140651000Y-110588000D01*
X140650000Y-110585000D01*
X140650000Y-110583000D01*
X140650000Y-110580000D01*
X140650000Y-109940000D01*
X140650000Y-109937000D01*
X140650000Y-109935000D01*
X140651000Y-109932000D01*
X140651000Y-109930000D01*
X140652000Y-109927000D01*
X140652000Y-109925000D01*
X140653000Y-109922000D01*
X140654000Y-109920000D01*
X140655000Y-109917000D01*
X140657000Y-109915000D01*
X140658000Y-109913000D01*
X140660000Y-109911000D01*
X140661000Y-109909000D01*
X140663000Y-109907000D01*
X140665000Y-109905000D01*
X140667000Y-109903000D01*
X140669000Y-109901000D01*
X140671000Y-109900000D01*
X140673000Y-109898000D01*
X140675000Y-109897000D01*
X140677000Y-109895000D01*
X140680000Y-109894000D01*
X140682000Y-109893000D01*
X140685000Y-109892000D01*
X140687000Y-109892000D01*
X140690000Y-109891000D01*
X140692000Y-109891000D01*
X140695000Y-109890000D01*
X140697000Y-109890000D01*
X140700000Y-109890000D01*
X142740000Y-109890000D01*
X142743000Y-109890000D01*
X142745000Y-109890000D01*
X142748000Y-109891000D01*
G36*
X142748000Y-109891000D02*
G01*
X142750000Y-109891000D01*
X142753000Y-109892000D01*
X142755000Y-109892000D01*
X142758000Y-109893000D01*
X142760000Y-109894000D01*
X142763000Y-109895000D01*
X142765000Y-109897000D01*
X142767000Y-109898000D01*
X142769000Y-109900000D01*
X142771000Y-109901000D01*
X142773000Y-109903000D01*
X142775000Y-109905000D01*
X142777000Y-109907000D01*
X142779000Y-109909000D01*
X142780000Y-109911000D01*
X142782000Y-109913000D01*
X142783000Y-109915000D01*
X142785000Y-109917000D01*
X142786000Y-109920000D01*
X142787000Y-109922000D01*
X142788000Y-109925000D01*
X142788000Y-109927000D01*
X142789000Y-109930000D01*
X142789000Y-109932000D01*
X142790000Y-109935000D01*
X142790000Y-109937000D01*
X142790000Y-109940000D01*
X142790000Y-110580000D01*
X142790000Y-110583000D01*
X142790000Y-110585000D01*
X142789000Y-110588000D01*
X142789000Y-110590000D01*
X142788000Y-110593000D01*
X142788000Y-110595000D01*
X142787000Y-110598000D01*
X142786000Y-110600000D01*
X142785000Y-110603000D01*
X142783000Y-110605000D01*
X142782000Y-110607000D01*
X142780000Y-110609000D01*
X142779000Y-110611000D01*
X142777000Y-110613000D01*
X142775000Y-110615000D01*
X142773000Y-110617000D01*
X142771000Y-110619000D01*
X142769000Y-110620000D01*
X142767000Y-110622000D01*
X142765000Y-110623000D01*
X142763000Y-110625000D01*
X142760000Y-110626000D01*
X142758000Y-110627000D01*
X142755000Y-110628000D01*
X142753000Y-110628000D01*
X142750000Y-110629000D01*
X142748000Y-110629000D01*
X142745000Y-110630000D01*
X142743000Y-110630000D01*
X142740000Y-110630000D01*
X140700000Y-110630000D01*
X140697000Y-110630000D01*
X140695000Y-110630000D01*
X140692000Y-110629000D01*
X140690000Y-110629000D01*
X140687000Y-110628000D01*
X140685000Y-110628000D01*
X140682000Y-110627000D01*
X140680000Y-110626000D01*
X140677000Y-110625000D01*
X140675000Y-110623000D01*
X140673000Y-110622000D01*
X140671000Y-110620000D01*
X140669000Y-110619000D01*
X140667000Y-110617000D01*
X140665000Y-110615000D01*
X140663000Y-110613000D01*
X140661000Y-110611000D01*
X140660000Y-110609000D01*
X140658000Y-110607000D01*
X140657000Y-110605000D01*
X140655000Y-110603000D01*
X140654000Y-110600000D01*
X140653000Y-110598000D01*
X140652000Y-110595000D01*
X140652000Y-110593000D01*
X140651000Y-110590000D01*
X140651000Y-110588000D01*
X140650000Y-110585000D01*
X140650000Y-110583000D01*
X140650000Y-110580000D01*
X140650000Y-109940000D01*
X140650000Y-109937000D01*
X140650000Y-109935000D01*
X140651000Y-109932000D01*
X140651000Y-109930000D01*
X140652000Y-109927000D01*
X140652000Y-109925000D01*
X140653000Y-109922000D01*
X140654000Y-109920000D01*
X140655000Y-109917000D01*
X140657000Y-109915000D01*
X140658000Y-109913000D01*
X140660000Y-109911000D01*
X140661000Y-109909000D01*
X140663000Y-109907000D01*
X140665000Y-109905000D01*
X140667000Y-109903000D01*
X140669000Y-109901000D01*
X140671000Y-109900000D01*
X140673000Y-109898000D01*
X140675000Y-109897000D01*
X140677000Y-109895000D01*
X140680000Y-109894000D01*
X140682000Y-109893000D01*
X140685000Y-109892000D01*
X140687000Y-109892000D01*
X140690000Y-109891000D01*
X140692000Y-109891000D01*
X140695000Y-109890000D01*
X140697000Y-109890000D01*
X140700000Y-109890000D01*
X142740000Y-109890000D01*
X142743000Y-109890000D01*
X142745000Y-109890000D01*
X142748000Y-109891000D01*
G37*
X142748000Y-111161000D02*
X142750000Y-111161000D01*
X142753000Y-111162000D01*
X142755000Y-111162000D01*
X142758000Y-111163000D01*
X142760000Y-111164000D01*
X142763000Y-111165000D01*
X142765000Y-111167000D01*
X142767000Y-111168000D01*
X142769000Y-111170000D01*
X142771000Y-111171000D01*
X142773000Y-111173000D01*
X142775000Y-111175000D01*
X142777000Y-111177000D01*
X142779000Y-111179000D01*
X142780000Y-111181000D01*
X142782000Y-111183000D01*
X142783000Y-111185000D01*
X142785000Y-111187000D01*
X142786000Y-111190000D01*
X142787000Y-111192000D01*
X142788000Y-111195000D01*
X142788000Y-111197000D01*
X142789000Y-111200000D01*
X142789000Y-111202000D01*
X142790000Y-111205000D01*
X142790000Y-111207000D01*
X142790000Y-111210000D01*
X142790000Y-111850000D01*
X142790000Y-111853000D01*
X142790000Y-111855000D01*
X142789000Y-111858000D01*
X142789000Y-111860000D01*
X142788000Y-111863000D01*
X142788000Y-111865000D01*
X142787000Y-111868000D01*
X142786000Y-111870000D01*
X142785000Y-111873000D01*
X142783000Y-111875000D01*
X142782000Y-111877000D01*
X142780000Y-111879000D01*
X142779000Y-111881000D01*
X142777000Y-111883000D01*
X142775000Y-111885000D01*
X142773000Y-111887000D01*
X142771000Y-111889000D01*
X142769000Y-111890000D01*
X142767000Y-111892000D01*
X142765000Y-111893000D01*
X142763000Y-111895000D01*
X142760000Y-111896000D01*
X142758000Y-111897000D01*
X142755000Y-111898000D01*
X142753000Y-111898000D01*
X142750000Y-111899000D01*
X142748000Y-111899000D01*
X142745000Y-111900000D01*
X142743000Y-111900000D01*
X142740000Y-111900000D01*
X140700000Y-111900000D01*
X140697000Y-111900000D01*
X140695000Y-111900000D01*
X140692000Y-111899000D01*
X140690000Y-111899000D01*
X140687000Y-111898000D01*
X140685000Y-111898000D01*
X140682000Y-111897000D01*
X140680000Y-111896000D01*
X140677000Y-111895000D01*
X140675000Y-111893000D01*
X140673000Y-111892000D01*
X140671000Y-111890000D01*
X140669000Y-111889000D01*
X140667000Y-111887000D01*
X140665000Y-111885000D01*
X140663000Y-111883000D01*
X140661000Y-111881000D01*
X140660000Y-111879000D01*
X140658000Y-111877000D01*
X140657000Y-111875000D01*
X140655000Y-111873000D01*
X140654000Y-111870000D01*
X140653000Y-111868000D01*
X140652000Y-111865000D01*
X140652000Y-111863000D01*
X140651000Y-111860000D01*
X140651000Y-111858000D01*
X140650000Y-111855000D01*
X140650000Y-111853000D01*
X140650000Y-111850000D01*
X140650000Y-111210000D01*
X140650000Y-111207000D01*
X140650000Y-111205000D01*
X140651000Y-111202000D01*
X140651000Y-111200000D01*
X140652000Y-111197000D01*
X140652000Y-111195000D01*
X140653000Y-111192000D01*
X140654000Y-111190000D01*
X140655000Y-111187000D01*
X140657000Y-111185000D01*
X140658000Y-111183000D01*
X140660000Y-111181000D01*
X140661000Y-111179000D01*
X140663000Y-111177000D01*
X140665000Y-111175000D01*
X140667000Y-111173000D01*
X140669000Y-111171000D01*
X140671000Y-111170000D01*
X140673000Y-111168000D01*
X140675000Y-111167000D01*
X140677000Y-111165000D01*
X140680000Y-111164000D01*
X140682000Y-111163000D01*
X140685000Y-111162000D01*
X140687000Y-111162000D01*
X140690000Y-111161000D01*
X140692000Y-111161000D01*
X140695000Y-111160000D01*
X140697000Y-111160000D01*
X140700000Y-111160000D01*
X142740000Y-111160000D01*
X142743000Y-111160000D01*
X142745000Y-111160000D01*
X142748000Y-111161000D01*
G36*
X142748000Y-111161000D02*
G01*
X142750000Y-111161000D01*
X142753000Y-111162000D01*
X142755000Y-111162000D01*
X142758000Y-111163000D01*
X142760000Y-111164000D01*
X142763000Y-111165000D01*
X142765000Y-111167000D01*
X142767000Y-111168000D01*
X142769000Y-111170000D01*
X142771000Y-111171000D01*
X142773000Y-111173000D01*
X142775000Y-111175000D01*
X142777000Y-111177000D01*
X142779000Y-111179000D01*
X142780000Y-111181000D01*
X142782000Y-111183000D01*
X142783000Y-111185000D01*
X142785000Y-111187000D01*
X142786000Y-111190000D01*
X142787000Y-111192000D01*
X142788000Y-111195000D01*
X142788000Y-111197000D01*
X142789000Y-111200000D01*
X142789000Y-111202000D01*
X142790000Y-111205000D01*
X142790000Y-111207000D01*
X142790000Y-111210000D01*
X142790000Y-111850000D01*
X142790000Y-111853000D01*
X142790000Y-111855000D01*
X142789000Y-111858000D01*
X142789000Y-111860000D01*
X142788000Y-111863000D01*
X142788000Y-111865000D01*
X142787000Y-111868000D01*
X142786000Y-111870000D01*
X142785000Y-111873000D01*
X142783000Y-111875000D01*
X142782000Y-111877000D01*
X142780000Y-111879000D01*
X142779000Y-111881000D01*
X142777000Y-111883000D01*
X142775000Y-111885000D01*
X142773000Y-111887000D01*
X142771000Y-111889000D01*
X142769000Y-111890000D01*
X142767000Y-111892000D01*
X142765000Y-111893000D01*
X142763000Y-111895000D01*
X142760000Y-111896000D01*
X142758000Y-111897000D01*
X142755000Y-111898000D01*
X142753000Y-111898000D01*
X142750000Y-111899000D01*
X142748000Y-111899000D01*
X142745000Y-111900000D01*
X142743000Y-111900000D01*
X142740000Y-111900000D01*
X140700000Y-111900000D01*
X140697000Y-111900000D01*
X140695000Y-111900000D01*
X140692000Y-111899000D01*
X140690000Y-111899000D01*
X140687000Y-111898000D01*
X140685000Y-111898000D01*
X140682000Y-111897000D01*
X140680000Y-111896000D01*
X140677000Y-111895000D01*
X140675000Y-111893000D01*
X140673000Y-111892000D01*
X140671000Y-111890000D01*
X140669000Y-111889000D01*
X140667000Y-111887000D01*
X140665000Y-111885000D01*
X140663000Y-111883000D01*
X140661000Y-111881000D01*
X140660000Y-111879000D01*
X140658000Y-111877000D01*
X140657000Y-111875000D01*
X140655000Y-111873000D01*
X140654000Y-111870000D01*
X140653000Y-111868000D01*
X140652000Y-111865000D01*
X140652000Y-111863000D01*
X140651000Y-111860000D01*
X140651000Y-111858000D01*
X140650000Y-111855000D01*
X140650000Y-111853000D01*
X140650000Y-111850000D01*
X140650000Y-111210000D01*
X140650000Y-111207000D01*
X140650000Y-111205000D01*
X140651000Y-111202000D01*
X140651000Y-111200000D01*
X140652000Y-111197000D01*
X140652000Y-111195000D01*
X140653000Y-111192000D01*
X140654000Y-111190000D01*
X140655000Y-111187000D01*
X140657000Y-111185000D01*
X140658000Y-111183000D01*
X140660000Y-111181000D01*
X140661000Y-111179000D01*
X140663000Y-111177000D01*
X140665000Y-111175000D01*
X140667000Y-111173000D01*
X140669000Y-111171000D01*
X140671000Y-111170000D01*
X140673000Y-111168000D01*
X140675000Y-111167000D01*
X140677000Y-111165000D01*
X140680000Y-111164000D01*
X140682000Y-111163000D01*
X140685000Y-111162000D01*
X140687000Y-111162000D01*
X140690000Y-111161000D01*
X140692000Y-111161000D01*
X140695000Y-111160000D01*
X140697000Y-111160000D01*
X140700000Y-111160000D01*
X142740000Y-111160000D01*
X142743000Y-111160000D01*
X142745000Y-111160000D01*
X142748000Y-111161000D01*
G37*
X142748000Y-112431000D02*
X142750000Y-112431000D01*
X142753000Y-112432000D01*
X142755000Y-112432000D01*
X142758000Y-112433000D01*
X142760000Y-112434000D01*
X142763000Y-112435000D01*
X142765000Y-112437000D01*
X142767000Y-112438000D01*
X142769000Y-112440000D01*
X142771000Y-112441000D01*
X142773000Y-112443000D01*
X142775000Y-112445000D01*
X142777000Y-112447000D01*
X142779000Y-112449000D01*
X142780000Y-112451000D01*
X142782000Y-112453000D01*
X142783000Y-112455000D01*
X142785000Y-112457000D01*
X142786000Y-112460000D01*
X142787000Y-112462000D01*
X142788000Y-112465000D01*
X142788000Y-112467000D01*
X142789000Y-112470000D01*
X142789000Y-112472000D01*
X142790000Y-112475000D01*
X142790000Y-112477000D01*
X142790000Y-112480000D01*
X142790000Y-113120000D01*
X142790000Y-113123000D01*
X142790000Y-113125000D01*
X142789000Y-113128000D01*
X142789000Y-113130000D01*
X142788000Y-113133000D01*
X142788000Y-113135000D01*
X142787000Y-113138000D01*
X142786000Y-113140000D01*
X142785000Y-113143000D01*
X142783000Y-113145000D01*
X142782000Y-113147000D01*
X142780000Y-113149000D01*
X142779000Y-113151000D01*
X142777000Y-113153000D01*
X142775000Y-113155000D01*
X142773000Y-113157000D01*
X142771000Y-113159000D01*
X142769000Y-113160000D01*
X142767000Y-113162000D01*
X142765000Y-113163000D01*
X142763000Y-113165000D01*
X142760000Y-113166000D01*
X142758000Y-113167000D01*
X142755000Y-113168000D01*
X142753000Y-113168000D01*
X142750000Y-113169000D01*
X142748000Y-113169000D01*
X142745000Y-113170000D01*
X142743000Y-113170000D01*
X142740000Y-113170000D01*
X140700000Y-113170000D01*
X140697000Y-113170000D01*
X140695000Y-113170000D01*
X140692000Y-113169000D01*
X140690000Y-113169000D01*
X140687000Y-113168000D01*
X140685000Y-113168000D01*
X140682000Y-113167000D01*
X140680000Y-113166000D01*
X140677000Y-113165000D01*
X140675000Y-113163000D01*
X140673000Y-113162000D01*
X140671000Y-113160000D01*
X140669000Y-113159000D01*
X140667000Y-113157000D01*
X140665000Y-113155000D01*
X140663000Y-113153000D01*
X140661000Y-113151000D01*
X140660000Y-113149000D01*
X140658000Y-113147000D01*
X140657000Y-113145000D01*
X140655000Y-113143000D01*
X140654000Y-113140000D01*
X140653000Y-113138000D01*
X140652000Y-113135000D01*
X140652000Y-113133000D01*
X140651000Y-113130000D01*
X140651000Y-113128000D01*
X140650000Y-113125000D01*
X140650000Y-113123000D01*
X140650000Y-113120000D01*
X140650000Y-112480000D01*
X140650000Y-112477000D01*
X140650000Y-112475000D01*
X140651000Y-112472000D01*
X140651000Y-112470000D01*
X140652000Y-112467000D01*
X140652000Y-112465000D01*
X140653000Y-112462000D01*
X140654000Y-112460000D01*
X140655000Y-112457000D01*
X140657000Y-112455000D01*
X140658000Y-112453000D01*
X140660000Y-112451000D01*
X140661000Y-112449000D01*
X140663000Y-112447000D01*
X140665000Y-112445000D01*
X140667000Y-112443000D01*
X140669000Y-112441000D01*
X140671000Y-112440000D01*
X140673000Y-112438000D01*
X140675000Y-112437000D01*
X140677000Y-112435000D01*
X140680000Y-112434000D01*
X140682000Y-112433000D01*
X140685000Y-112432000D01*
X140687000Y-112432000D01*
X140690000Y-112431000D01*
X140692000Y-112431000D01*
X140695000Y-112430000D01*
X140697000Y-112430000D01*
X140700000Y-112430000D01*
X142740000Y-112430000D01*
X142743000Y-112430000D01*
X142745000Y-112430000D01*
X142748000Y-112431000D01*
G36*
X142748000Y-112431000D02*
G01*
X142750000Y-112431000D01*
X142753000Y-112432000D01*
X142755000Y-112432000D01*
X142758000Y-112433000D01*
X142760000Y-112434000D01*
X142763000Y-112435000D01*
X142765000Y-112437000D01*
X142767000Y-112438000D01*
X142769000Y-112440000D01*
X142771000Y-112441000D01*
X142773000Y-112443000D01*
X142775000Y-112445000D01*
X142777000Y-112447000D01*
X142779000Y-112449000D01*
X142780000Y-112451000D01*
X142782000Y-112453000D01*
X142783000Y-112455000D01*
X142785000Y-112457000D01*
X142786000Y-112460000D01*
X142787000Y-112462000D01*
X142788000Y-112465000D01*
X142788000Y-112467000D01*
X142789000Y-112470000D01*
X142789000Y-112472000D01*
X142790000Y-112475000D01*
X142790000Y-112477000D01*
X142790000Y-112480000D01*
X142790000Y-113120000D01*
X142790000Y-113123000D01*
X142790000Y-113125000D01*
X142789000Y-113128000D01*
X142789000Y-113130000D01*
X142788000Y-113133000D01*
X142788000Y-113135000D01*
X142787000Y-113138000D01*
X142786000Y-113140000D01*
X142785000Y-113143000D01*
X142783000Y-113145000D01*
X142782000Y-113147000D01*
X142780000Y-113149000D01*
X142779000Y-113151000D01*
X142777000Y-113153000D01*
X142775000Y-113155000D01*
X142773000Y-113157000D01*
X142771000Y-113159000D01*
X142769000Y-113160000D01*
X142767000Y-113162000D01*
X142765000Y-113163000D01*
X142763000Y-113165000D01*
X142760000Y-113166000D01*
X142758000Y-113167000D01*
X142755000Y-113168000D01*
X142753000Y-113168000D01*
X142750000Y-113169000D01*
X142748000Y-113169000D01*
X142745000Y-113170000D01*
X142743000Y-113170000D01*
X142740000Y-113170000D01*
X140700000Y-113170000D01*
X140697000Y-113170000D01*
X140695000Y-113170000D01*
X140692000Y-113169000D01*
X140690000Y-113169000D01*
X140687000Y-113168000D01*
X140685000Y-113168000D01*
X140682000Y-113167000D01*
X140680000Y-113166000D01*
X140677000Y-113165000D01*
X140675000Y-113163000D01*
X140673000Y-113162000D01*
X140671000Y-113160000D01*
X140669000Y-113159000D01*
X140667000Y-113157000D01*
X140665000Y-113155000D01*
X140663000Y-113153000D01*
X140661000Y-113151000D01*
X140660000Y-113149000D01*
X140658000Y-113147000D01*
X140657000Y-113145000D01*
X140655000Y-113143000D01*
X140654000Y-113140000D01*
X140653000Y-113138000D01*
X140652000Y-113135000D01*
X140652000Y-113133000D01*
X140651000Y-113130000D01*
X140651000Y-113128000D01*
X140650000Y-113125000D01*
X140650000Y-113123000D01*
X140650000Y-113120000D01*
X140650000Y-112480000D01*
X140650000Y-112477000D01*
X140650000Y-112475000D01*
X140651000Y-112472000D01*
X140651000Y-112470000D01*
X140652000Y-112467000D01*
X140652000Y-112465000D01*
X140653000Y-112462000D01*
X140654000Y-112460000D01*
X140655000Y-112457000D01*
X140657000Y-112455000D01*
X140658000Y-112453000D01*
X140660000Y-112451000D01*
X140661000Y-112449000D01*
X140663000Y-112447000D01*
X140665000Y-112445000D01*
X140667000Y-112443000D01*
X140669000Y-112441000D01*
X140671000Y-112440000D01*
X140673000Y-112438000D01*
X140675000Y-112437000D01*
X140677000Y-112435000D01*
X140680000Y-112434000D01*
X140682000Y-112433000D01*
X140685000Y-112432000D01*
X140687000Y-112432000D01*
X140690000Y-112431000D01*
X140692000Y-112431000D01*
X140695000Y-112430000D01*
X140697000Y-112430000D01*
X140700000Y-112430000D01*
X142740000Y-112430000D01*
X142743000Y-112430000D01*
X142745000Y-112430000D01*
X142748000Y-112431000D01*
G37*
X142748000Y-113701000D02*
X142750000Y-113701000D01*
X142753000Y-113702000D01*
X142755000Y-113702000D01*
X142758000Y-113703000D01*
X142760000Y-113704000D01*
X142763000Y-113705000D01*
X142765000Y-113707000D01*
X142767000Y-113708000D01*
X142769000Y-113710000D01*
X142771000Y-113711000D01*
X142773000Y-113713000D01*
X142775000Y-113715000D01*
X142777000Y-113717000D01*
X142779000Y-113719000D01*
X142780000Y-113721000D01*
X142782000Y-113723000D01*
X142783000Y-113725000D01*
X142785000Y-113727000D01*
X142786000Y-113730000D01*
X142787000Y-113732000D01*
X142788000Y-113735000D01*
X142788000Y-113737000D01*
X142789000Y-113740000D01*
X142789000Y-113742000D01*
X142790000Y-113745000D01*
X142790000Y-113747000D01*
X142790000Y-113750000D01*
X142790000Y-114390000D01*
X142790000Y-114393000D01*
X142790000Y-114395000D01*
X142789000Y-114398000D01*
X142789000Y-114400000D01*
X142788000Y-114403000D01*
X142788000Y-114405000D01*
X142787000Y-114408000D01*
X142786000Y-114410000D01*
X142785000Y-114413000D01*
X142783000Y-114415000D01*
X142782000Y-114417000D01*
X142780000Y-114419000D01*
X142779000Y-114421000D01*
X142777000Y-114423000D01*
X142775000Y-114425000D01*
X142773000Y-114427000D01*
X142771000Y-114429000D01*
X142769000Y-114430000D01*
X142767000Y-114432000D01*
X142765000Y-114433000D01*
X142763000Y-114435000D01*
X142760000Y-114436000D01*
X142758000Y-114437000D01*
X142755000Y-114438000D01*
X142753000Y-114438000D01*
X142750000Y-114439000D01*
X142748000Y-114439000D01*
X142745000Y-114440000D01*
X142743000Y-114440000D01*
X142740000Y-114440000D01*
X140700000Y-114440000D01*
X140697000Y-114440000D01*
X140695000Y-114440000D01*
X140692000Y-114439000D01*
X140690000Y-114439000D01*
X140687000Y-114438000D01*
X140685000Y-114438000D01*
X140682000Y-114437000D01*
X140680000Y-114436000D01*
X140677000Y-114435000D01*
X140675000Y-114433000D01*
X140673000Y-114432000D01*
X140671000Y-114430000D01*
X140669000Y-114429000D01*
X140667000Y-114427000D01*
X140665000Y-114425000D01*
X140663000Y-114423000D01*
X140661000Y-114421000D01*
X140660000Y-114419000D01*
X140658000Y-114417000D01*
X140657000Y-114415000D01*
X140655000Y-114413000D01*
X140654000Y-114410000D01*
X140653000Y-114408000D01*
X140652000Y-114405000D01*
X140652000Y-114403000D01*
X140651000Y-114400000D01*
X140651000Y-114398000D01*
X140650000Y-114395000D01*
X140650000Y-114393000D01*
X140650000Y-114390000D01*
X140650000Y-113750000D01*
X140650000Y-113747000D01*
X140650000Y-113745000D01*
X140651000Y-113742000D01*
X140651000Y-113740000D01*
X140652000Y-113737000D01*
X140652000Y-113735000D01*
X140653000Y-113732000D01*
X140654000Y-113730000D01*
X140655000Y-113727000D01*
X140657000Y-113725000D01*
X140658000Y-113723000D01*
X140660000Y-113721000D01*
X140661000Y-113719000D01*
X140663000Y-113717000D01*
X140665000Y-113715000D01*
X140667000Y-113713000D01*
X140669000Y-113711000D01*
X140671000Y-113710000D01*
X140673000Y-113708000D01*
X140675000Y-113707000D01*
X140677000Y-113705000D01*
X140680000Y-113704000D01*
X140682000Y-113703000D01*
X140685000Y-113702000D01*
X140687000Y-113702000D01*
X140690000Y-113701000D01*
X140692000Y-113701000D01*
X140695000Y-113700000D01*
X140697000Y-113700000D01*
X140700000Y-113700000D01*
X142740000Y-113700000D01*
X142743000Y-113700000D01*
X142745000Y-113700000D01*
X142748000Y-113701000D01*
G36*
X142748000Y-113701000D02*
G01*
X142750000Y-113701000D01*
X142753000Y-113702000D01*
X142755000Y-113702000D01*
X142758000Y-113703000D01*
X142760000Y-113704000D01*
X142763000Y-113705000D01*
X142765000Y-113707000D01*
X142767000Y-113708000D01*
X142769000Y-113710000D01*
X142771000Y-113711000D01*
X142773000Y-113713000D01*
X142775000Y-113715000D01*
X142777000Y-113717000D01*
X142779000Y-113719000D01*
X142780000Y-113721000D01*
X142782000Y-113723000D01*
X142783000Y-113725000D01*
X142785000Y-113727000D01*
X142786000Y-113730000D01*
X142787000Y-113732000D01*
X142788000Y-113735000D01*
X142788000Y-113737000D01*
X142789000Y-113740000D01*
X142789000Y-113742000D01*
X142790000Y-113745000D01*
X142790000Y-113747000D01*
X142790000Y-113750000D01*
X142790000Y-114390000D01*
X142790000Y-114393000D01*
X142790000Y-114395000D01*
X142789000Y-114398000D01*
X142789000Y-114400000D01*
X142788000Y-114403000D01*
X142788000Y-114405000D01*
X142787000Y-114408000D01*
X142786000Y-114410000D01*
X142785000Y-114413000D01*
X142783000Y-114415000D01*
X142782000Y-114417000D01*
X142780000Y-114419000D01*
X142779000Y-114421000D01*
X142777000Y-114423000D01*
X142775000Y-114425000D01*
X142773000Y-114427000D01*
X142771000Y-114429000D01*
X142769000Y-114430000D01*
X142767000Y-114432000D01*
X142765000Y-114433000D01*
X142763000Y-114435000D01*
X142760000Y-114436000D01*
X142758000Y-114437000D01*
X142755000Y-114438000D01*
X142753000Y-114438000D01*
X142750000Y-114439000D01*
X142748000Y-114439000D01*
X142745000Y-114440000D01*
X142743000Y-114440000D01*
X142740000Y-114440000D01*
X140700000Y-114440000D01*
X140697000Y-114440000D01*
X140695000Y-114440000D01*
X140692000Y-114439000D01*
X140690000Y-114439000D01*
X140687000Y-114438000D01*
X140685000Y-114438000D01*
X140682000Y-114437000D01*
X140680000Y-114436000D01*
X140677000Y-114435000D01*
X140675000Y-114433000D01*
X140673000Y-114432000D01*
X140671000Y-114430000D01*
X140669000Y-114429000D01*
X140667000Y-114427000D01*
X140665000Y-114425000D01*
X140663000Y-114423000D01*
X140661000Y-114421000D01*
X140660000Y-114419000D01*
X140658000Y-114417000D01*
X140657000Y-114415000D01*
X140655000Y-114413000D01*
X140654000Y-114410000D01*
X140653000Y-114408000D01*
X140652000Y-114405000D01*
X140652000Y-114403000D01*
X140651000Y-114400000D01*
X140651000Y-114398000D01*
X140650000Y-114395000D01*
X140650000Y-114393000D01*
X140650000Y-114390000D01*
X140650000Y-113750000D01*
X140650000Y-113747000D01*
X140650000Y-113745000D01*
X140651000Y-113742000D01*
X140651000Y-113740000D01*
X140652000Y-113737000D01*
X140652000Y-113735000D01*
X140653000Y-113732000D01*
X140654000Y-113730000D01*
X140655000Y-113727000D01*
X140657000Y-113725000D01*
X140658000Y-113723000D01*
X140660000Y-113721000D01*
X140661000Y-113719000D01*
X140663000Y-113717000D01*
X140665000Y-113715000D01*
X140667000Y-113713000D01*
X140669000Y-113711000D01*
X140671000Y-113710000D01*
X140673000Y-113708000D01*
X140675000Y-113707000D01*
X140677000Y-113705000D01*
X140680000Y-113704000D01*
X140682000Y-113703000D01*
X140685000Y-113702000D01*
X140687000Y-113702000D01*
X140690000Y-113701000D01*
X140692000Y-113701000D01*
X140695000Y-113700000D01*
X140697000Y-113700000D01*
X140700000Y-113700000D01*
X142740000Y-113700000D01*
X142743000Y-113700000D01*
X142745000Y-113700000D01*
X142748000Y-113701000D01*
G37*
X152048000Y-104811000D02*
X152050000Y-104811000D01*
X152053000Y-104812000D01*
X152055000Y-104812000D01*
X152058000Y-104813000D01*
X152060000Y-104814000D01*
X152063000Y-104815000D01*
X152065000Y-104817000D01*
X152067000Y-104818000D01*
X152069000Y-104820000D01*
X152071000Y-104821000D01*
X152073000Y-104823000D01*
X152075000Y-104825000D01*
X152077000Y-104827000D01*
X152079000Y-104829000D01*
X152080000Y-104831000D01*
X152082000Y-104833000D01*
X152083000Y-104835000D01*
X152085000Y-104837000D01*
X152086000Y-104840000D01*
X152087000Y-104842000D01*
X152088000Y-104845000D01*
X152088000Y-104847000D01*
X152089000Y-104850000D01*
X152089000Y-104852000D01*
X152090000Y-104855000D01*
X152090000Y-104857000D01*
X152090000Y-104860000D01*
X152090000Y-105500000D01*
X152090000Y-105503000D01*
X152090000Y-105505000D01*
X152089000Y-105508000D01*
X152089000Y-105510000D01*
X152088000Y-105513000D01*
X152088000Y-105515000D01*
X152087000Y-105518000D01*
X152086000Y-105520000D01*
X152085000Y-105523000D01*
X152083000Y-105525000D01*
X152082000Y-105527000D01*
X152080000Y-105529000D01*
X152079000Y-105531000D01*
X152077000Y-105533000D01*
X152075000Y-105535000D01*
X152073000Y-105537000D01*
X152071000Y-105539000D01*
X152069000Y-105540000D01*
X152067000Y-105542000D01*
X152065000Y-105543000D01*
X152063000Y-105545000D01*
X152060000Y-105546000D01*
X152058000Y-105547000D01*
X152055000Y-105548000D01*
X152053000Y-105548000D01*
X152050000Y-105549000D01*
X152048000Y-105549000D01*
X152045000Y-105550000D01*
X152043000Y-105550000D01*
X152040000Y-105550000D01*
X150000000Y-105550000D01*
X149997000Y-105550000D01*
X149995000Y-105550000D01*
X149992000Y-105549000D01*
X149990000Y-105549000D01*
X149987000Y-105548000D01*
X149985000Y-105548000D01*
X149982000Y-105547000D01*
X149980000Y-105546000D01*
X149977000Y-105545000D01*
X149975000Y-105543000D01*
X149973000Y-105542000D01*
X149971000Y-105540000D01*
X149969000Y-105539000D01*
X149967000Y-105537000D01*
X149965000Y-105535000D01*
X149963000Y-105533000D01*
X149961000Y-105531000D01*
X149960000Y-105529000D01*
X149958000Y-105527000D01*
X149957000Y-105525000D01*
X149955000Y-105523000D01*
X149954000Y-105520000D01*
X149953000Y-105518000D01*
X149952000Y-105515000D01*
X149952000Y-105513000D01*
X149951000Y-105510000D01*
X149951000Y-105508000D01*
X149950000Y-105505000D01*
X149950000Y-105503000D01*
X149950000Y-105500000D01*
X149950000Y-104860000D01*
X149950000Y-104857000D01*
X149950000Y-104855000D01*
X149951000Y-104852000D01*
X149951000Y-104850000D01*
X149952000Y-104847000D01*
X149952000Y-104845000D01*
X149953000Y-104842000D01*
X149954000Y-104840000D01*
X149955000Y-104837000D01*
X149957000Y-104835000D01*
X149958000Y-104833000D01*
X149960000Y-104831000D01*
X149961000Y-104829000D01*
X149963000Y-104827000D01*
X149965000Y-104825000D01*
X149967000Y-104823000D01*
X149969000Y-104821000D01*
X149971000Y-104820000D01*
X149973000Y-104818000D01*
X149975000Y-104817000D01*
X149977000Y-104815000D01*
X149980000Y-104814000D01*
X149982000Y-104813000D01*
X149985000Y-104812000D01*
X149987000Y-104812000D01*
X149990000Y-104811000D01*
X149992000Y-104811000D01*
X149995000Y-104810000D01*
X149997000Y-104810000D01*
X150000000Y-104810000D01*
X152040000Y-104810000D01*
X152043000Y-104810000D01*
X152045000Y-104810000D01*
X152048000Y-104811000D01*
G36*
X152048000Y-104811000D02*
G01*
X152050000Y-104811000D01*
X152053000Y-104812000D01*
X152055000Y-104812000D01*
X152058000Y-104813000D01*
X152060000Y-104814000D01*
X152063000Y-104815000D01*
X152065000Y-104817000D01*
X152067000Y-104818000D01*
X152069000Y-104820000D01*
X152071000Y-104821000D01*
X152073000Y-104823000D01*
X152075000Y-104825000D01*
X152077000Y-104827000D01*
X152079000Y-104829000D01*
X152080000Y-104831000D01*
X152082000Y-104833000D01*
X152083000Y-104835000D01*
X152085000Y-104837000D01*
X152086000Y-104840000D01*
X152087000Y-104842000D01*
X152088000Y-104845000D01*
X152088000Y-104847000D01*
X152089000Y-104850000D01*
X152089000Y-104852000D01*
X152090000Y-104855000D01*
X152090000Y-104857000D01*
X152090000Y-104860000D01*
X152090000Y-105500000D01*
X152090000Y-105503000D01*
X152090000Y-105505000D01*
X152089000Y-105508000D01*
X152089000Y-105510000D01*
X152088000Y-105513000D01*
X152088000Y-105515000D01*
X152087000Y-105518000D01*
X152086000Y-105520000D01*
X152085000Y-105523000D01*
X152083000Y-105525000D01*
X152082000Y-105527000D01*
X152080000Y-105529000D01*
X152079000Y-105531000D01*
X152077000Y-105533000D01*
X152075000Y-105535000D01*
X152073000Y-105537000D01*
X152071000Y-105539000D01*
X152069000Y-105540000D01*
X152067000Y-105542000D01*
X152065000Y-105543000D01*
X152063000Y-105545000D01*
X152060000Y-105546000D01*
X152058000Y-105547000D01*
X152055000Y-105548000D01*
X152053000Y-105548000D01*
X152050000Y-105549000D01*
X152048000Y-105549000D01*
X152045000Y-105550000D01*
X152043000Y-105550000D01*
X152040000Y-105550000D01*
X150000000Y-105550000D01*
X149997000Y-105550000D01*
X149995000Y-105550000D01*
X149992000Y-105549000D01*
X149990000Y-105549000D01*
X149987000Y-105548000D01*
X149985000Y-105548000D01*
X149982000Y-105547000D01*
X149980000Y-105546000D01*
X149977000Y-105545000D01*
X149975000Y-105543000D01*
X149973000Y-105542000D01*
X149971000Y-105540000D01*
X149969000Y-105539000D01*
X149967000Y-105537000D01*
X149965000Y-105535000D01*
X149963000Y-105533000D01*
X149961000Y-105531000D01*
X149960000Y-105529000D01*
X149958000Y-105527000D01*
X149957000Y-105525000D01*
X149955000Y-105523000D01*
X149954000Y-105520000D01*
X149953000Y-105518000D01*
X149952000Y-105515000D01*
X149952000Y-105513000D01*
X149951000Y-105510000D01*
X149951000Y-105508000D01*
X149950000Y-105505000D01*
X149950000Y-105503000D01*
X149950000Y-105500000D01*
X149950000Y-104860000D01*
X149950000Y-104857000D01*
X149950000Y-104855000D01*
X149951000Y-104852000D01*
X149951000Y-104850000D01*
X149952000Y-104847000D01*
X149952000Y-104845000D01*
X149953000Y-104842000D01*
X149954000Y-104840000D01*
X149955000Y-104837000D01*
X149957000Y-104835000D01*
X149958000Y-104833000D01*
X149960000Y-104831000D01*
X149961000Y-104829000D01*
X149963000Y-104827000D01*
X149965000Y-104825000D01*
X149967000Y-104823000D01*
X149969000Y-104821000D01*
X149971000Y-104820000D01*
X149973000Y-104818000D01*
X149975000Y-104817000D01*
X149977000Y-104815000D01*
X149980000Y-104814000D01*
X149982000Y-104813000D01*
X149985000Y-104812000D01*
X149987000Y-104812000D01*
X149990000Y-104811000D01*
X149992000Y-104811000D01*
X149995000Y-104810000D01*
X149997000Y-104810000D01*
X150000000Y-104810000D01*
X152040000Y-104810000D01*
X152043000Y-104810000D01*
X152045000Y-104810000D01*
X152048000Y-104811000D01*
G37*
X152048000Y-106081000D02*
X152050000Y-106081000D01*
X152053000Y-106082000D01*
X152055000Y-106082000D01*
X152058000Y-106083000D01*
X152060000Y-106084000D01*
X152063000Y-106085000D01*
X152065000Y-106087000D01*
X152067000Y-106088000D01*
X152069000Y-106090000D01*
X152071000Y-106091000D01*
X152073000Y-106093000D01*
X152075000Y-106095000D01*
X152077000Y-106097000D01*
X152079000Y-106099000D01*
X152080000Y-106101000D01*
X152082000Y-106103000D01*
X152083000Y-106105000D01*
X152085000Y-106107000D01*
X152086000Y-106110000D01*
X152087000Y-106112000D01*
X152088000Y-106115000D01*
X152088000Y-106117000D01*
X152089000Y-106120000D01*
X152089000Y-106122000D01*
X152090000Y-106125000D01*
X152090000Y-106127000D01*
X152090000Y-106130000D01*
X152090000Y-106770000D01*
X152090000Y-106773000D01*
X152090000Y-106775000D01*
X152089000Y-106778000D01*
X152089000Y-106780000D01*
X152088000Y-106783000D01*
X152088000Y-106785000D01*
X152087000Y-106788000D01*
X152086000Y-106790000D01*
X152085000Y-106793000D01*
X152083000Y-106795000D01*
X152082000Y-106797000D01*
X152080000Y-106799000D01*
X152079000Y-106801000D01*
X152077000Y-106803000D01*
X152075000Y-106805000D01*
X152073000Y-106807000D01*
X152071000Y-106809000D01*
X152069000Y-106810000D01*
X152067000Y-106812000D01*
X152065000Y-106813000D01*
X152063000Y-106815000D01*
X152060000Y-106816000D01*
X152058000Y-106817000D01*
X152055000Y-106818000D01*
X152053000Y-106818000D01*
X152050000Y-106819000D01*
X152048000Y-106819000D01*
X152045000Y-106820000D01*
X152043000Y-106820000D01*
X152040000Y-106820000D01*
X150000000Y-106820000D01*
X149997000Y-106820000D01*
X149995000Y-106820000D01*
X149992000Y-106819000D01*
X149990000Y-106819000D01*
X149987000Y-106818000D01*
X149985000Y-106818000D01*
X149982000Y-106817000D01*
X149980000Y-106816000D01*
X149977000Y-106815000D01*
X149975000Y-106813000D01*
X149973000Y-106812000D01*
X149971000Y-106810000D01*
X149969000Y-106809000D01*
X149967000Y-106807000D01*
X149965000Y-106805000D01*
X149963000Y-106803000D01*
X149961000Y-106801000D01*
X149960000Y-106799000D01*
X149958000Y-106797000D01*
X149957000Y-106795000D01*
X149955000Y-106793000D01*
X149954000Y-106790000D01*
X149953000Y-106788000D01*
X149952000Y-106785000D01*
X149952000Y-106783000D01*
X149951000Y-106780000D01*
X149951000Y-106778000D01*
X149950000Y-106775000D01*
X149950000Y-106773000D01*
X149950000Y-106770000D01*
X149950000Y-106130000D01*
X149950000Y-106127000D01*
X149950000Y-106125000D01*
X149951000Y-106122000D01*
X149951000Y-106120000D01*
X149952000Y-106117000D01*
X149952000Y-106115000D01*
X149953000Y-106112000D01*
X149954000Y-106110000D01*
X149955000Y-106107000D01*
X149957000Y-106105000D01*
X149958000Y-106103000D01*
X149960000Y-106101000D01*
X149961000Y-106099000D01*
X149963000Y-106097000D01*
X149965000Y-106095000D01*
X149967000Y-106093000D01*
X149969000Y-106091000D01*
X149971000Y-106090000D01*
X149973000Y-106088000D01*
X149975000Y-106087000D01*
X149977000Y-106085000D01*
X149980000Y-106084000D01*
X149982000Y-106083000D01*
X149985000Y-106082000D01*
X149987000Y-106082000D01*
X149990000Y-106081000D01*
X149992000Y-106081000D01*
X149995000Y-106080000D01*
X149997000Y-106080000D01*
X150000000Y-106080000D01*
X152040000Y-106080000D01*
X152043000Y-106080000D01*
X152045000Y-106080000D01*
X152048000Y-106081000D01*
G36*
X152048000Y-106081000D02*
G01*
X152050000Y-106081000D01*
X152053000Y-106082000D01*
X152055000Y-106082000D01*
X152058000Y-106083000D01*
X152060000Y-106084000D01*
X152063000Y-106085000D01*
X152065000Y-106087000D01*
X152067000Y-106088000D01*
X152069000Y-106090000D01*
X152071000Y-106091000D01*
X152073000Y-106093000D01*
X152075000Y-106095000D01*
X152077000Y-106097000D01*
X152079000Y-106099000D01*
X152080000Y-106101000D01*
X152082000Y-106103000D01*
X152083000Y-106105000D01*
X152085000Y-106107000D01*
X152086000Y-106110000D01*
X152087000Y-106112000D01*
X152088000Y-106115000D01*
X152088000Y-106117000D01*
X152089000Y-106120000D01*
X152089000Y-106122000D01*
X152090000Y-106125000D01*
X152090000Y-106127000D01*
X152090000Y-106130000D01*
X152090000Y-106770000D01*
X152090000Y-106773000D01*
X152090000Y-106775000D01*
X152089000Y-106778000D01*
X152089000Y-106780000D01*
X152088000Y-106783000D01*
X152088000Y-106785000D01*
X152087000Y-106788000D01*
X152086000Y-106790000D01*
X152085000Y-106793000D01*
X152083000Y-106795000D01*
X152082000Y-106797000D01*
X152080000Y-106799000D01*
X152079000Y-106801000D01*
X152077000Y-106803000D01*
X152075000Y-106805000D01*
X152073000Y-106807000D01*
X152071000Y-106809000D01*
X152069000Y-106810000D01*
X152067000Y-106812000D01*
X152065000Y-106813000D01*
X152063000Y-106815000D01*
X152060000Y-106816000D01*
X152058000Y-106817000D01*
X152055000Y-106818000D01*
X152053000Y-106818000D01*
X152050000Y-106819000D01*
X152048000Y-106819000D01*
X152045000Y-106820000D01*
X152043000Y-106820000D01*
X152040000Y-106820000D01*
X150000000Y-106820000D01*
X149997000Y-106820000D01*
X149995000Y-106820000D01*
X149992000Y-106819000D01*
X149990000Y-106819000D01*
X149987000Y-106818000D01*
X149985000Y-106818000D01*
X149982000Y-106817000D01*
X149980000Y-106816000D01*
X149977000Y-106815000D01*
X149975000Y-106813000D01*
X149973000Y-106812000D01*
X149971000Y-106810000D01*
X149969000Y-106809000D01*
X149967000Y-106807000D01*
X149965000Y-106805000D01*
X149963000Y-106803000D01*
X149961000Y-106801000D01*
X149960000Y-106799000D01*
X149958000Y-106797000D01*
X149957000Y-106795000D01*
X149955000Y-106793000D01*
X149954000Y-106790000D01*
X149953000Y-106788000D01*
X149952000Y-106785000D01*
X149952000Y-106783000D01*
X149951000Y-106780000D01*
X149951000Y-106778000D01*
X149950000Y-106775000D01*
X149950000Y-106773000D01*
X149950000Y-106770000D01*
X149950000Y-106130000D01*
X149950000Y-106127000D01*
X149950000Y-106125000D01*
X149951000Y-106122000D01*
X149951000Y-106120000D01*
X149952000Y-106117000D01*
X149952000Y-106115000D01*
X149953000Y-106112000D01*
X149954000Y-106110000D01*
X149955000Y-106107000D01*
X149957000Y-106105000D01*
X149958000Y-106103000D01*
X149960000Y-106101000D01*
X149961000Y-106099000D01*
X149963000Y-106097000D01*
X149965000Y-106095000D01*
X149967000Y-106093000D01*
X149969000Y-106091000D01*
X149971000Y-106090000D01*
X149973000Y-106088000D01*
X149975000Y-106087000D01*
X149977000Y-106085000D01*
X149980000Y-106084000D01*
X149982000Y-106083000D01*
X149985000Y-106082000D01*
X149987000Y-106082000D01*
X149990000Y-106081000D01*
X149992000Y-106081000D01*
X149995000Y-106080000D01*
X149997000Y-106080000D01*
X150000000Y-106080000D01*
X152040000Y-106080000D01*
X152043000Y-106080000D01*
X152045000Y-106080000D01*
X152048000Y-106081000D01*
G37*
X152048000Y-107351000D02*
X152050000Y-107351000D01*
X152053000Y-107352000D01*
X152055000Y-107352000D01*
X152058000Y-107353000D01*
X152060000Y-107354000D01*
X152063000Y-107355000D01*
X152065000Y-107357000D01*
X152067000Y-107358000D01*
X152069000Y-107360000D01*
X152071000Y-107361000D01*
X152073000Y-107363000D01*
X152075000Y-107365000D01*
X152077000Y-107367000D01*
X152079000Y-107369000D01*
X152080000Y-107371000D01*
X152082000Y-107373000D01*
X152083000Y-107375000D01*
X152085000Y-107377000D01*
X152086000Y-107380000D01*
X152087000Y-107382000D01*
X152088000Y-107385000D01*
X152088000Y-107387000D01*
X152089000Y-107390000D01*
X152089000Y-107392000D01*
X152090000Y-107395000D01*
X152090000Y-107397000D01*
X152090000Y-107400000D01*
X152090000Y-108040000D01*
X152090000Y-108043000D01*
X152090000Y-108045000D01*
X152089000Y-108048000D01*
X152089000Y-108050000D01*
X152088000Y-108053000D01*
X152088000Y-108055000D01*
X152087000Y-108058000D01*
X152086000Y-108060000D01*
X152085000Y-108063000D01*
X152083000Y-108065000D01*
X152082000Y-108067000D01*
X152080000Y-108069000D01*
X152079000Y-108071000D01*
X152077000Y-108073000D01*
X152075000Y-108075000D01*
X152073000Y-108077000D01*
X152071000Y-108079000D01*
X152069000Y-108080000D01*
X152067000Y-108082000D01*
X152065000Y-108083000D01*
X152063000Y-108085000D01*
X152060000Y-108086000D01*
X152058000Y-108087000D01*
X152055000Y-108088000D01*
X152053000Y-108088000D01*
X152050000Y-108089000D01*
X152048000Y-108089000D01*
X152045000Y-108090000D01*
X152043000Y-108090000D01*
X152040000Y-108090000D01*
X150000000Y-108090000D01*
X149997000Y-108090000D01*
X149995000Y-108090000D01*
X149992000Y-108089000D01*
X149990000Y-108089000D01*
X149987000Y-108088000D01*
X149985000Y-108088000D01*
X149982000Y-108087000D01*
X149980000Y-108086000D01*
X149977000Y-108085000D01*
X149975000Y-108083000D01*
X149973000Y-108082000D01*
X149971000Y-108080000D01*
X149969000Y-108079000D01*
X149967000Y-108077000D01*
X149965000Y-108075000D01*
X149963000Y-108073000D01*
X149961000Y-108071000D01*
X149960000Y-108069000D01*
X149958000Y-108067000D01*
X149957000Y-108065000D01*
X149955000Y-108063000D01*
X149954000Y-108060000D01*
X149953000Y-108058000D01*
X149952000Y-108055000D01*
X149952000Y-108053000D01*
X149951000Y-108050000D01*
X149951000Y-108048000D01*
X149950000Y-108045000D01*
X149950000Y-108043000D01*
X149950000Y-108040000D01*
X149950000Y-107400000D01*
X149950000Y-107397000D01*
X149950000Y-107395000D01*
X149951000Y-107392000D01*
X149951000Y-107390000D01*
X149952000Y-107387000D01*
X149952000Y-107385000D01*
X149953000Y-107382000D01*
X149954000Y-107380000D01*
X149955000Y-107377000D01*
X149957000Y-107375000D01*
X149958000Y-107373000D01*
X149960000Y-107371000D01*
X149961000Y-107369000D01*
X149963000Y-107367000D01*
X149965000Y-107365000D01*
X149967000Y-107363000D01*
X149969000Y-107361000D01*
X149971000Y-107360000D01*
X149973000Y-107358000D01*
X149975000Y-107357000D01*
X149977000Y-107355000D01*
X149980000Y-107354000D01*
X149982000Y-107353000D01*
X149985000Y-107352000D01*
X149987000Y-107352000D01*
X149990000Y-107351000D01*
X149992000Y-107351000D01*
X149995000Y-107350000D01*
X149997000Y-107350000D01*
X150000000Y-107350000D01*
X152040000Y-107350000D01*
X152043000Y-107350000D01*
X152045000Y-107350000D01*
X152048000Y-107351000D01*
G36*
X152048000Y-107351000D02*
G01*
X152050000Y-107351000D01*
X152053000Y-107352000D01*
X152055000Y-107352000D01*
X152058000Y-107353000D01*
X152060000Y-107354000D01*
X152063000Y-107355000D01*
X152065000Y-107357000D01*
X152067000Y-107358000D01*
X152069000Y-107360000D01*
X152071000Y-107361000D01*
X152073000Y-107363000D01*
X152075000Y-107365000D01*
X152077000Y-107367000D01*
X152079000Y-107369000D01*
X152080000Y-107371000D01*
X152082000Y-107373000D01*
X152083000Y-107375000D01*
X152085000Y-107377000D01*
X152086000Y-107380000D01*
X152087000Y-107382000D01*
X152088000Y-107385000D01*
X152088000Y-107387000D01*
X152089000Y-107390000D01*
X152089000Y-107392000D01*
X152090000Y-107395000D01*
X152090000Y-107397000D01*
X152090000Y-107400000D01*
X152090000Y-108040000D01*
X152090000Y-108043000D01*
X152090000Y-108045000D01*
X152089000Y-108048000D01*
X152089000Y-108050000D01*
X152088000Y-108053000D01*
X152088000Y-108055000D01*
X152087000Y-108058000D01*
X152086000Y-108060000D01*
X152085000Y-108063000D01*
X152083000Y-108065000D01*
X152082000Y-108067000D01*
X152080000Y-108069000D01*
X152079000Y-108071000D01*
X152077000Y-108073000D01*
X152075000Y-108075000D01*
X152073000Y-108077000D01*
X152071000Y-108079000D01*
X152069000Y-108080000D01*
X152067000Y-108082000D01*
X152065000Y-108083000D01*
X152063000Y-108085000D01*
X152060000Y-108086000D01*
X152058000Y-108087000D01*
X152055000Y-108088000D01*
X152053000Y-108088000D01*
X152050000Y-108089000D01*
X152048000Y-108089000D01*
X152045000Y-108090000D01*
X152043000Y-108090000D01*
X152040000Y-108090000D01*
X150000000Y-108090000D01*
X149997000Y-108090000D01*
X149995000Y-108090000D01*
X149992000Y-108089000D01*
X149990000Y-108089000D01*
X149987000Y-108088000D01*
X149985000Y-108088000D01*
X149982000Y-108087000D01*
X149980000Y-108086000D01*
X149977000Y-108085000D01*
X149975000Y-108083000D01*
X149973000Y-108082000D01*
X149971000Y-108080000D01*
X149969000Y-108079000D01*
X149967000Y-108077000D01*
X149965000Y-108075000D01*
X149963000Y-108073000D01*
X149961000Y-108071000D01*
X149960000Y-108069000D01*
X149958000Y-108067000D01*
X149957000Y-108065000D01*
X149955000Y-108063000D01*
X149954000Y-108060000D01*
X149953000Y-108058000D01*
X149952000Y-108055000D01*
X149952000Y-108053000D01*
X149951000Y-108050000D01*
X149951000Y-108048000D01*
X149950000Y-108045000D01*
X149950000Y-108043000D01*
X149950000Y-108040000D01*
X149950000Y-107400000D01*
X149950000Y-107397000D01*
X149950000Y-107395000D01*
X149951000Y-107392000D01*
X149951000Y-107390000D01*
X149952000Y-107387000D01*
X149952000Y-107385000D01*
X149953000Y-107382000D01*
X149954000Y-107380000D01*
X149955000Y-107377000D01*
X149957000Y-107375000D01*
X149958000Y-107373000D01*
X149960000Y-107371000D01*
X149961000Y-107369000D01*
X149963000Y-107367000D01*
X149965000Y-107365000D01*
X149967000Y-107363000D01*
X149969000Y-107361000D01*
X149971000Y-107360000D01*
X149973000Y-107358000D01*
X149975000Y-107357000D01*
X149977000Y-107355000D01*
X149980000Y-107354000D01*
X149982000Y-107353000D01*
X149985000Y-107352000D01*
X149987000Y-107352000D01*
X149990000Y-107351000D01*
X149992000Y-107351000D01*
X149995000Y-107350000D01*
X149997000Y-107350000D01*
X150000000Y-107350000D01*
X152040000Y-107350000D01*
X152043000Y-107350000D01*
X152045000Y-107350000D01*
X152048000Y-107351000D01*
G37*
X152048000Y-108621000D02*
X152050000Y-108621000D01*
X152053000Y-108622000D01*
X152055000Y-108622000D01*
X152058000Y-108623000D01*
X152060000Y-108624000D01*
X152063000Y-108625000D01*
X152065000Y-108627000D01*
X152067000Y-108628000D01*
X152069000Y-108630000D01*
X152071000Y-108631000D01*
X152073000Y-108633000D01*
X152075000Y-108635000D01*
X152077000Y-108637000D01*
X152079000Y-108639000D01*
X152080000Y-108641000D01*
X152082000Y-108643000D01*
X152083000Y-108645000D01*
X152085000Y-108647000D01*
X152086000Y-108650000D01*
X152087000Y-108652000D01*
X152088000Y-108655000D01*
X152088000Y-108657000D01*
X152089000Y-108660000D01*
X152089000Y-108662000D01*
X152090000Y-108665000D01*
X152090000Y-108667000D01*
X152090000Y-108670000D01*
X152090000Y-109310000D01*
X152090000Y-109313000D01*
X152090000Y-109315000D01*
X152089000Y-109318000D01*
X152089000Y-109320000D01*
X152088000Y-109323000D01*
X152088000Y-109325000D01*
X152087000Y-109328000D01*
X152086000Y-109330000D01*
X152085000Y-109333000D01*
X152083000Y-109335000D01*
X152082000Y-109337000D01*
X152080000Y-109339000D01*
X152079000Y-109341000D01*
X152077000Y-109343000D01*
X152075000Y-109345000D01*
X152073000Y-109347000D01*
X152071000Y-109349000D01*
X152069000Y-109350000D01*
X152067000Y-109352000D01*
X152065000Y-109353000D01*
X152063000Y-109355000D01*
X152060000Y-109356000D01*
X152058000Y-109357000D01*
X152055000Y-109358000D01*
X152053000Y-109358000D01*
X152050000Y-109359000D01*
X152048000Y-109359000D01*
X152045000Y-109360000D01*
X152043000Y-109360000D01*
X152040000Y-109360000D01*
X150000000Y-109360000D01*
X149997000Y-109360000D01*
X149995000Y-109360000D01*
X149992000Y-109359000D01*
X149990000Y-109359000D01*
X149987000Y-109358000D01*
X149985000Y-109358000D01*
X149982000Y-109357000D01*
X149980000Y-109356000D01*
X149977000Y-109355000D01*
X149975000Y-109353000D01*
X149973000Y-109352000D01*
X149971000Y-109350000D01*
X149969000Y-109349000D01*
X149967000Y-109347000D01*
X149965000Y-109345000D01*
X149963000Y-109343000D01*
X149961000Y-109341000D01*
X149960000Y-109339000D01*
X149958000Y-109337000D01*
X149957000Y-109335000D01*
X149955000Y-109333000D01*
X149954000Y-109330000D01*
X149953000Y-109328000D01*
X149952000Y-109325000D01*
X149952000Y-109323000D01*
X149951000Y-109320000D01*
X149951000Y-109318000D01*
X149950000Y-109315000D01*
X149950000Y-109313000D01*
X149950000Y-109310000D01*
X149950000Y-108670000D01*
X149950000Y-108667000D01*
X149950000Y-108665000D01*
X149951000Y-108662000D01*
X149951000Y-108660000D01*
X149952000Y-108657000D01*
X149952000Y-108655000D01*
X149953000Y-108652000D01*
X149954000Y-108650000D01*
X149955000Y-108647000D01*
X149957000Y-108645000D01*
X149958000Y-108643000D01*
X149960000Y-108641000D01*
X149961000Y-108639000D01*
X149963000Y-108637000D01*
X149965000Y-108635000D01*
X149967000Y-108633000D01*
X149969000Y-108631000D01*
X149971000Y-108630000D01*
X149973000Y-108628000D01*
X149975000Y-108627000D01*
X149977000Y-108625000D01*
X149980000Y-108624000D01*
X149982000Y-108623000D01*
X149985000Y-108622000D01*
X149987000Y-108622000D01*
X149990000Y-108621000D01*
X149992000Y-108621000D01*
X149995000Y-108620000D01*
X149997000Y-108620000D01*
X150000000Y-108620000D01*
X152040000Y-108620000D01*
X152043000Y-108620000D01*
X152045000Y-108620000D01*
X152048000Y-108621000D01*
G36*
X152048000Y-108621000D02*
G01*
X152050000Y-108621000D01*
X152053000Y-108622000D01*
X152055000Y-108622000D01*
X152058000Y-108623000D01*
X152060000Y-108624000D01*
X152063000Y-108625000D01*
X152065000Y-108627000D01*
X152067000Y-108628000D01*
X152069000Y-108630000D01*
X152071000Y-108631000D01*
X152073000Y-108633000D01*
X152075000Y-108635000D01*
X152077000Y-108637000D01*
X152079000Y-108639000D01*
X152080000Y-108641000D01*
X152082000Y-108643000D01*
X152083000Y-108645000D01*
X152085000Y-108647000D01*
X152086000Y-108650000D01*
X152087000Y-108652000D01*
X152088000Y-108655000D01*
X152088000Y-108657000D01*
X152089000Y-108660000D01*
X152089000Y-108662000D01*
X152090000Y-108665000D01*
X152090000Y-108667000D01*
X152090000Y-108670000D01*
X152090000Y-109310000D01*
X152090000Y-109313000D01*
X152090000Y-109315000D01*
X152089000Y-109318000D01*
X152089000Y-109320000D01*
X152088000Y-109323000D01*
X152088000Y-109325000D01*
X152087000Y-109328000D01*
X152086000Y-109330000D01*
X152085000Y-109333000D01*
X152083000Y-109335000D01*
X152082000Y-109337000D01*
X152080000Y-109339000D01*
X152079000Y-109341000D01*
X152077000Y-109343000D01*
X152075000Y-109345000D01*
X152073000Y-109347000D01*
X152071000Y-109349000D01*
X152069000Y-109350000D01*
X152067000Y-109352000D01*
X152065000Y-109353000D01*
X152063000Y-109355000D01*
X152060000Y-109356000D01*
X152058000Y-109357000D01*
X152055000Y-109358000D01*
X152053000Y-109358000D01*
X152050000Y-109359000D01*
X152048000Y-109359000D01*
X152045000Y-109360000D01*
X152043000Y-109360000D01*
X152040000Y-109360000D01*
X150000000Y-109360000D01*
X149997000Y-109360000D01*
X149995000Y-109360000D01*
X149992000Y-109359000D01*
X149990000Y-109359000D01*
X149987000Y-109358000D01*
X149985000Y-109358000D01*
X149982000Y-109357000D01*
X149980000Y-109356000D01*
X149977000Y-109355000D01*
X149975000Y-109353000D01*
X149973000Y-109352000D01*
X149971000Y-109350000D01*
X149969000Y-109349000D01*
X149967000Y-109347000D01*
X149965000Y-109345000D01*
X149963000Y-109343000D01*
X149961000Y-109341000D01*
X149960000Y-109339000D01*
X149958000Y-109337000D01*
X149957000Y-109335000D01*
X149955000Y-109333000D01*
X149954000Y-109330000D01*
X149953000Y-109328000D01*
X149952000Y-109325000D01*
X149952000Y-109323000D01*
X149951000Y-109320000D01*
X149951000Y-109318000D01*
X149950000Y-109315000D01*
X149950000Y-109313000D01*
X149950000Y-109310000D01*
X149950000Y-108670000D01*
X149950000Y-108667000D01*
X149950000Y-108665000D01*
X149951000Y-108662000D01*
X149951000Y-108660000D01*
X149952000Y-108657000D01*
X149952000Y-108655000D01*
X149953000Y-108652000D01*
X149954000Y-108650000D01*
X149955000Y-108647000D01*
X149957000Y-108645000D01*
X149958000Y-108643000D01*
X149960000Y-108641000D01*
X149961000Y-108639000D01*
X149963000Y-108637000D01*
X149965000Y-108635000D01*
X149967000Y-108633000D01*
X149969000Y-108631000D01*
X149971000Y-108630000D01*
X149973000Y-108628000D01*
X149975000Y-108627000D01*
X149977000Y-108625000D01*
X149980000Y-108624000D01*
X149982000Y-108623000D01*
X149985000Y-108622000D01*
X149987000Y-108622000D01*
X149990000Y-108621000D01*
X149992000Y-108621000D01*
X149995000Y-108620000D01*
X149997000Y-108620000D01*
X150000000Y-108620000D01*
X152040000Y-108620000D01*
X152043000Y-108620000D01*
X152045000Y-108620000D01*
X152048000Y-108621000D01*
G37*
X152048000Y-109891000D02*
X152050000Y-109891000D01*
X152053000Y-109892000D01*
X152055000Y-109892000D01*
X152058000Y-109893000D01*
X152060000Y-109894000D01*
X152063000Y-109895000D01*
X152065000Y-109897000D01*
X152067000Y-109898000D01*
X152069000Y-109900000D01*
X152071000Y-109901000D01*
X152073000Y-109903000D01*
X152075000Y-109905000D01*
X152077000Y-109907000D01*
X152079000Y-109909000D01*
X152080000Y-109911000D01*
X152082000Y-109913000D01*
X152083000Y-109915000D01*
X152085000Y-109917000D01*
X152086000Y-109920000D01*
X152087000Y-109922000D01*
X152088000Y-109925000D01*
X152088000Y-109927000D01*
X152089000Y-109930000D01*
X152089000Y-109932000D01*
X152090000Y-109935000D01*
X152090000Y-109937000D01*
X152090000Y-109940000D01*
X152090000Y-110580000D01*
X152090000Y-110583000D01*
X152090000Y-110585000D01*
X152089000Y-110588000D01*
X152089000Y-110590000D01*
X152088000Y-110593000D01*
X152088000Y-110595000D01*
X152087000Y-110598000D01*
X152086000Y-110600000D01*
X152085000Y-110603000D01*
X152083000Y-110605000D01*
X152082000Y-110607000D01*
X152080000Y-110609000D01*
X152079000Y-110611000D01*
X152077000Y-110613000D01*
X152075000Y-110615000D01*
X152073000Y-110617000D01*
X152071000Y-110619000D01*
X152069000Y-110620000D01*
X152067000Y-110622000D01*
X152065000Y-110623000D01*
X152063000Y-110625000D01*
X152060000Y-110626000D01*
X152058000Y-110627000D01*
X152055000Y-110628000D01*
X152053000Y-110628000D01*
X152050000Y-110629000D01*
X152048000Y-110629000D01*
X152045000Y-110630000D01*
X152043000Y-110630000D01*
X152040000Y-110630000D01*
X150000000Y-110630000D01*
X149997000Y-110630000D01*
X149995000Y-110630000D01*
X149992000Y-110629000D01*
X149990000Y-110629000D01*
X149987000Y-110628000D01*
X149985000Y-110628000D01*
X149982000Y-110627000D01*
X149980000Y-110626000D01*
X149977000Y-110625000D01*
X149975000Y-110623000D01*
X149973000Y-110622000D01*
X149971000Y-110620000D01*
X149969000Y-110619000D01*
X149967000Y-110617000D01*
X149965000Y-110615000D01*
X149963000Y-110613000D01*
X149961000Y-110611000D01*
X149960000Y-110609000D01*
X149958000Y-110607000D01*
X149957000Y-110605000D01*
X149955000Y-110603000D01*
X149954000Y-110600000D01*
X149953000Y-110598000D01*
X149952000Y-110595000D01*
X149952000Y-110593000D01*
X149951000Y-110590000D01*
X149951000Y-110588000D01*
X149950000Y-110585000D01*
X149950000Y-110583000D01*
X149950000Y-110580000D01*
X149950000Y-109940000D01*
X149950000Y-109937000D01*
X149950000Y-109935000D01*
X149951000Y-109932000D01*
X149951000Y-109930000D01*
X149952000Y-109927000D01*
X149952000Y-109925000D01*
X149953000Y-109922000D01*
X149954000Y-109920000D01*
X149955000Y-109917000D01*
X149957000Y-109915000D01*
X149958000Y-109913000D01*
X149960000Y-109911000D01*
X149961000Y-109909000D01*
X149963000Y-109907000D01*
X149965000Y-109905000D01*
X149967000Y-109903000D01*
X149969000Y-109901000D01*
X149971000Y-109900000D01*
X149973000Y-109898000D01*
X149975000Y-109897000D01*
X149977000Y-109895000D01*
X149980000Y-109894000D01*
X149982000Y-109893000D01*
X149985000Y-109892000D01*
X149987000Y-109892000D01*
X149990000Y-109891000D01*
X149992000Y-109891000D01*
X149995000Y-109890000D01*
X149997000Y-109890000D01*
X150000000Y-109890000D01*
X152040000Y-109890000D01*
X152043000Y-109890000D01*
X152045000Y-109890000D01*
X152048000Y-109891000D01*
G36*
X152048000Y-109891000D02*
G01*
X152050000Y-109891000D01*
X152053000Y-109892000D01*
X152055000Y-109892000D01*
X152058000Y-109893000D01*
X152060000Y-109894000D01*
X152063000Y-109895000D01*
X152065000Y-109897000D01*
X152067000Y-109898000D01*
X152069000Y-109900000D01*
X152071000Y-109901000D01*
X152073000Y-109903000D01*
X152075000Y-109905000D01*
X152077000Y-109907000D01*
X152079000Y-109909000D01*
X152080000Y-109911000D01*
X152082000Y-109913000D01*
X152083000Y-109915000D01*
X152085000Y-109917000D01*
X152086000Y-109920000D01*
X152087000Y-109922000D01*
X152088000Y-109925000D01*
X152088000Y-109927000D01*
X152089000Y-109930000D01*
X152089000Y-109932000D01*
X152090000Y-109935000D01*
X152090000Y-109937000D01*
X152090000Y-109940000D01*
X152090000Y-110580000D01*
X152090000Y-110583000D01*
X152090000Y-110585000D01*
X152089000Y-110588000D01*
X152089000Y-110590000D01*
X152088000Y-110593000D01*
X152088000Y-110595000D01*
X152087000Y-110598000D01*
X152086000Y-110600000D01*
X152085000Y-110603000D01*
X152083000Y-110605000D01*
X152082000Y-110607000D01*
X152080000Y-110609000D01*
X152079000Y-110611000D01*
X152077000Y-110613000D01*
X152075000Y-110615000D01*
X152073000Y-110617000D01*
X152071000Y-110619000D01*
X152069000Y-110620000D01*
X152067000Y-110622000D01*
X152065000Y-110623000D01*
X152063000Y-110625000D01*
X152060000Y-110626000D01*
X152058000Y-110627000D01*
X152055000Y-110628000D01*
X152053000Y-110628000D01*
X152050000Y-110629000D01*
X152048000Y-110629000D01*
X152045000Y-110630000D01*
X152043000Y-110630000D01*
X152040000Y-110630000D01*
X150000000Y-110630000D01*
X149997000Y-110630000D01*
X149995000Y-110630000D01*
X149992000Y-110629000D01*
X149990000Y-110629000D01*
X149987000Y-110628000D01*
X149985000Y-110628000D01*
X149982000Y-110627000D01*
X149980000Y-110626000D01*
X149977000Y-110625000D01*
X149975000Y-110623000D01*
X149973000Y-110622000D01*
X149971000Y-110620000D01*
X149969000Y-110619000D01*
X149967000Y-110617000D01*
X149965000Y-110615000D01*
X149963000Y-110613000D01*
X149961000Y-110611000D01*
X149960000Y-110609000D01*
X149958000Y-110607000D01*
X149957000Y-110605000D01*
X149955000Y-110603000D01*
X149954000Y-110600000D01*
X149953000Y-110598000D01*
X149952000Y-110595000D01*
X149952000Y-110593000D01*
X149951000Y-110590000D01*
X149951000Y-110588000D01*
X149950000Y-110585000D01*
X149950000Y-110583000D01*
X149950000Y-110580000D01*
X149950000Y-109940000D01*
X149950000Y-109937000D01*
X149950000Y-109935000D01*
X149951000Y-109932000D01*
X149951000Y-109930000D01*
X149952000Y-109927000D01*
X149952000Y-109925000D01*
X149953000Y-109922000D01*
X149954000Y-109920000D01*
X149955000Y-109917000D01*
X149957000Y-109915000D01*
X149958000Y-109913000D01*
X149960000Y-109911000D01*
X149961000Y-109909000D01*
X149963000Y-109907000D01*
X149965000Y-109905000D01*
X149967000Y-109903000D01*
X149969000Y-109901000D01*
X149971000Y-109900000D01*
X149973000Y-109898000D01*
X149975000Y-109897000D01*
X149977000Y-109895000D01*
X149980000Y-109894000D01*
X149982000Y-109893000D01*
X149985000Y-109892000D01*
X149987000Y-109892000D01*
X149990000Y-109891000D01*
X149992000Y-109891000D01*
X149995000Y-109890000D01*
X149997000Y-109890000D01*
X150000000Y-109890000D01*
X152040000Y-109890000D01*
X152043000Y-109890000D01*
X152045000Y-109890000D01*
X152048000Y-109891000D01*
G37*
X152048000Y-111161000D02*
X152050000Y-111161000D01*
X152053000Y-111162000D01*
X152055000Y-111162000D01*
X152058000Y-111163000D01*
X152060000Y-111164000D01*
X152063000Y-111165000D01*
X152065000Y-111167000D01*
X152067000Y-111168000D01*
X152069000Y-111170000D01*
X152071000Y-111171000D01*
X152073000Y-111173000D01*
X152075000Y-111175000D01*
X152077000Y-111177000D01*
X152079000Y-111179000D01*
X152080000Y-111181000D01*
X152082000Y-111183000D01*
X152083000Y-111185000D01*
X152085000Y-111187000D01*
X152086000Y-111190000D01*
X152087000Y-111192000D01*
X152088000Y-111195000D01*
X152088000Y-111197000D01*
X152089000Y-111200000D01*
X152089000Y-111202000D01*
X152090000Y-111205000D01*
X152090000Y-111207000D01*
X152090000Y-111210000D01*
X152090000Y-111850000D01*
X152090000Y-111853000D01*
X152090000Y-111855000D01*
X152089000Y-111858000D01*
X152089000Y-111860000D01*
X152088000Y-111863000D01*
X152088000Y-111865000D01*
X152087000Y-111868000D01*
X152086000Y-111870000D01*
X152085000Y-111873000D01*
X152083000Y-111875000D01*
X152082000Y-111877000D01*
X152080000Y-111879000D01*
X152079000Y-111881000D01*
X152077000Y-111883000D01*
X152075000Y-111885000D01*
X152073000Y-111887000D01*
X152071000Y-111889000D01*
X152069000Y-111890000D01*
X152067000Y-111892000D01*
X152065000Y-111893000D01*
X152063000Y-111895000D01*
X152060000Y-111896000D01*
X152058000Y-111897000D01*
X152055000Y-111898000D01*
X152053000Y-111898000D01*
X152050000Y-111899000D01*
X152048000Y-111899000D01*
X152045000Y-111900000D01*
X152043000Y-111900000D01*
X152040000Y-111900000D01*
X150000000Y-111900000D01*
X149997000Y-111900000D01*
X149995000Y-111900000D01*
X149992000Y-111899000D01*
X149990000Y-111899000D01*
X149987000Y-111898000D01*
X149985000Y-111898000D01*
X149982000Y-111897000D01*
X149980000Y-111896000D01*
X149977000Y-111895000D01*
X149975000Y-111893000D01*
X149973000Y-111892000D01*
X149971000Y-111890000D01*
X149969000Y-111889000D01*
X149967000Y-111887000D01*
X149965000Y-111885000D01*
X149963000Y-111883000D01*
X149961000Y-111881000D01*
X149960000Y-111879000D01*
X149958000Y-111877000D01*
X149957000Y-111875000D01*
X149955000Y-111873000D01*
X149954000Y-111870000D01*
X149953000Y-111868000D01*
X149952000Y-111865000D01*
X149952000Y-111863000D01*
X149951000Y-111860000D01*
X149951000Y-111858000D01*
X149950000Y-111855000D01*
X149950000Y-111853000D01*
X149950000Y-111850000D01*
X149950000Y-111210000D01*
X149950000Y-111207000D01*
X149950000Y-111205000D01*
X149951000Y-111202000D01*
X149951000Y-111200000D01*
X149952000Y-111197000D01*
X149952000Y-111195000D01*
X149953000Y-111192000D01*
X149954000Y-111190000D01*
X149955000Y-111187000D01*
X149957000Y-111185000D01*
X149958000Y-111183000D01*
X149960000Y-111181000D01*
X149961000Y-111179000D01*
X149963000Y-111177000D01*
X149965000Y-111175000D01*
X149967000Y-111173000D01*
X149969000Y-111171000D01*
X149971000Y-111170000D01*
X149973000Y-111168000D01*
X149975000Y-111167000D01*
X149977000Y-111165000D01*
X149980000Y-111164000D01*
X149982000Y-111163000D01*
X149985000Y-111162000D01*
X149987000Y-111162000D01*
X149990000Y-111161000D01*
X149992000Y-111161000D01*
X149995000Y-111160000D01*
X149997000Y-111160000D01*
X150000000Y-111160000D01*
X152040000Y-111160000D01*
X152043000Y-111160000D01*
X152045000Y-111160000D01*
X152048000Y-111161000D01*
G36*
X152048000Y-111161000D02*
G01*
X152050000Y-111161000D01*
X152053000Y-111162000D01*
X152055000Y-111162000D01*
X152058000Y-111163000D01*
X152060000Y-111164000D01*
X152063000Y-111165000D01*
X152065000Y-111167000D01*
X152067000Y-111168000D01*
X152069000Y-111170000D01*
X152071000Y-111171000D01*
X152073000Y-111173000D01*
X152075000Y-111175000D01*
X152077000Y-111177000D01*
X152079000Y-111179000D01*
X152080000Y-111181000D01*
X152082000Y-111183000D01*
X152083000Y-111185000D01*
X152085000Y-111187000D01*
X152086000Y-111190000D01*
X152087000Y-111192000D01*
X152088000Y-111195000D01*
X152088000Y-111197000D01*
X152089000Y-111200000D01*
X152089000Y-111202000D01*
X152090000Y-111205000D01*
X152090000Y-111207000D01*
X152090000Y-111210000D01*
X152090000Y-111850000D01*
X152090000Y-111853000D01*
X152090000Y-111855000D01*
X152089000Y-111858000D01*
X152089000Y-111860000D01*
X152088000Y-111863000D01*
X152088000Y-111865000D01*
X152087000Y-111868000D01*
X152086000Y-111870000D01*
X152085000Y-111873000D01*
X152083000Y-111875000D01*
X152082000Y-111877000D01*
X152080000Y-111879000D01*
X152079000Y-111881000D01*
X152077000Y-111883000D01*
X152075000Y-111885000D01*
X152073000Y-111887000D01*
X152071000Y-111889000D01*
X152069000Y-111890000D01*
X152067000Y-111892000D01*
X152065000Y-111893000D01*
X152063000Y-111895000D01*
X152060000Y-111896000D01*
X152058000Y-111897000D01*
X152055000Y-111898000D01*
X152053000Y-111898000D01*
X152050000Y-111899000D01*
X152048000Y-111899000D01*
X152045000Y-111900000D01*
X152043000Y-111900000D01*
X152040000Y-111900000D01*
X150000000Y-111900000D01*
X149997000Y-111900000D01*
X149995000Y-111900000D01*
X149992000Y-111899000D01*
X149990000Y-111899000D01*
X149987000Y-111898000D01*
X149985000Y-111898000D01*
X149982000Y-111897000D01*
X149980000Y-111896000D01*
X149977000Y-111895000D01*
X149975000Y-111893000D01*
X149973000Y-111892000D01*
X149971000Y-111890000D01*
X149969000Y-111889000D01*
X149967000Y-111887000D01*
X149965000Y-111885000D01*
X149963000Y-111883000D01*
X149961000Y-111881000D01*
X149960000Y-111879000D01*
X149958000Y-111877000D01*
X149957000Y-111875000D01*
X149955000Y-111873000D01*
X149954000Y-111870000D01*
X149953000Y-111868000D01*
X149952000Y-111865000D01*
X149952000Y-111863000D01*
X149951000Y-111860000D01*
X149951000Y-111858000D01*
X149950000Y-111855000D01*
X149950000Y-111853000D01*
X149950000Y-111850000D01*
X149950000Y-111210000D01*
X149950000Y-111207000D01*
X149950000Y-111205000D01*
X149951000Y-111202000D01*
X149951000Y-111200000D01*
X149952000Y-111197000D01*
X149952000Y-111195000D01*
X149953000Y-111192000D01*
X149954000Y-111190000D01*
X149955000Y-111187000D01*
X149957000Y-111185000D01*
X149958000Y-111183000D01*
X149960000Y-111181000D01*
X149961000Y-111179000D01*
X149963000Y-111177000D01*
X149965000Y-111175000D01*
X149967000Y-111173000D01*
X149969000Y-111171000D01*
X149971000Y-111170000D01*
X149973000Y-111168000D01*
X149975000Y-111167000D01*
X149977000Y-111165000D01*
X149980000Y-111164000D01*
X149982000Y-111163000D01*
X149985000Y-111162000D01*
X149987000Y-111162000D01*
X149990000Y-111161000D01*
X149992000Y-111161000D01*
X149995000Y-111160000D01*
X149997000Y-111160000D01*
X150000000Y-111160000D01*
X152040000Y-111160000D01*
X152043000Y-111160000D01*
X152045000Y-111160000D01*
X152048000Y-111161000D01*
G37*
X152048000Y-112431000D02*
X152050000Y-112431000D01*
X152053000Y-112432000D01*
X152055000Y-112432000D01*
X152058000Y-112433000D01*
X152060000Y-112434000D01*
X152063000Y-112435000D01*
X152065000Y-112437000D01*
X152067000Y-112438000D01*
X152069000Y-112440000D01*
X152071000Y-112441000D01*
X152073000Y-112443000D01*
X152075000Y-112445000D01*
X152077000Y-112447000D01*
X152079000Y-112449000D01*
X152080000Y-112451000D01*
X152082000Y-112453000D01*
X152083000Y-112455000D01*
X152085000Y-112457000D01*
X152086000Y-112460000D01*
X152087000Y-112462000D01*
X152088000Y-112465000D01*
X152088000Y-112467000D01*
X152089000Y-112470000D01*
X152089000Y-112472000D01*
X152090000Y-112475000D01*
X152090000Y-112477000D01*
X152090000Y-112480000D01*
X152090000Y-113120000D01*
X152090000Y-113123000D01*
X152090000Y-113125000D01*
X152089000Y-113128000D01*
X152089000Y-113130000D01*
X152088000Y-113133000D01*
X152088000Y-113135000D01*
X152087000Y-113138000D01*
X152086000Y-113140000D01*
X152085000Y-113143000D01*
X152083000Y-113145000D01*
X152082000Y-113147000D01*
X152080000Y-113149000D01*
X152079000Y-113151000D01*
X152077000Y-113153000D01*
X152075000Y-113155000D01*
X152073000Y-113157000D01*
X152071000Y-113159000D01*
X152069000Y-113160000D01*
X152067000Y-113162000D01*
X152065000Y-113163000D01*
X152063000Y-113165000D01*
X152060000Y-113166000D01*
X152058000Y-113167000D01*
X152055000Y-113168000D01*
X152053000Y-113168000D01*
X152050000Y-113169000D01*
X152048000Y-113169000D01*
X152045000Y-113170000D01*
X152043000Y-113170000D01*
X152040000Y-113170000D01*
X150000000Y-113170000D01*
X149997000Y-113170000D01*
X149995000Y-113170000D01*
X149992000Y-113169000D01*
X149990000Y-113169000D01*
X149987000Y-113168000D01*
X149985000Y-113168000D01*
X149982000Y-113167000D01*
X149980000Y-113166000D01*
X149977000Y-113165000D01*
X149975000Y-113163000D01*
X149973000Y-113162000D01*
X149971000Y-113160000D01*
X149969000Y-113159000D01*
X149967000Y-113157000D01*
X149965000Y-113155000D01*
X149963000Y-113153000D01*
X149961000Y-113151000D01*
X149960000Y-113149000D01*
X149958000Y-113147000D01*
X149957000Y-113145000D01*
X149955000Y-113143000D01*
X149954000Y-113140000D01*
X149953000Y-113138000D01*
X149952000Y-113135000D01*
X149952000Y-113133000D01*
X149951000Y-113130000D01*
X149951000Y-113128000D01*
X149950000Y-113125000D01*
X149950000Y-113123000D01*
X149950000Y-113120000D01*
X149950000Y-112480000D01*
X149950000Y-112477000D01*
X149950000Y-112475000D01*
X149951000Y-112472000D01*
X149951000Y-112470000D01*
X149952000Y-112467000D01*
X149952000Y-112465000D01*
X149953000Y-112462000D01*
X149954000Y-112460000D01*
X149955000Y-112457000D01*
X149957000Y-112455000D01*
X149958000Y-112453000D01*
X149960000Y-112451000D01*
X149961000Y-112449000D01*
X149963000Y-112447000D01*
X149965000Y-112445000D01*
X149967000Y-112443000D01*
X149969000Y-112441000D01*
X149971000Y-112440000D01*
X149973000Y-112438000D01*
X149975000Y-112437000D01*
X149977000Y-112435000D01*
X149980000Y-112434000D01*
X149982000Y-112433000D01*
X149985000Y-112432000D01*
X149987000Y-112432000D01*
X149990000Y-112431000D01*
X149992000Y-112431000D01*
X149995000Y-112430000D01*
X149997000Y-112430000D01*
X150000000Y-112430000D01*
X152040000Y-112430000D01*
X152043000Y-112430000D01*
X152045000Y-112430000D01*
X152048000Y-112431000D01*
G36*
X152048000Y-112431000D02*
G01*
X152050000Y-112431000D01*
X152053000Y-112432000D01*
X152055000Y-112432000D01*
X152058000Y-112433000D01*
X152060000Y-112434000D01*
X152063000Y-112435000D01*
X152065000Y-112437000D01*
X152067000Y-112438000D01*
X152069000Y-112440000D01*
X152071000Y-112441000D01*
X152073000Y-112443000D01*
X152075000Y-112445000D01*
X152077000Y-112447000D01*
X152079000Y-112449000D01*
X152080000Y-112451000D01*
X152082000Y-112453000D01*
X152083000Y-112455000D01*
X152085000Y-112457000D01*
X152086000Y-112460000D01*
X152087000Y-112462000D01*
X152088000Y-112465000D01*
X152088000Y-112467000D01*
X152089000Y-112470000D01*
X152089000Y-112472000D01*
X152090000Y-112475000D01*
X152090000Y-112477000D01*
X152090000Y-112480000D01*
X152090000Y-113120000D01*
X152090000Y-113123000D01*
X152090000Y-113125000D01*
X152089000Y-113128000D01*
X152089000Y-113130000D01*
X152088000Y-113133000D01*
X152088000Y-113135000D01*
X152087000Y-113138000D01*
X152086000Y-113140000D01*
X152085000Y-113143000D01*
X152083000Y-113145000D01*
X152082000Y-113147000D01*
X152080000Y-113149000D01*
X152079000Y-113151000D01*
X152077000Y-113153000D01*
X152075000Y-113155000D01*
X152073000Y-113157000D01*
X152071000Y-113159000D01*
X152069000Y-113160000D01*
X152067000Y-113162000D01*
X152065000Y-113163000D01*
X152063000Y-113165000D01*
X152060000Y-113166000D01*
X152058000Y-113167000D01*
X152055000Y-113168000D01*
X152053000Y-113168000D01*
X152050000Y-113169000D01*
X152048000Y-113169000D01*
X152045000Y-113170000D01*
X152043000Y-113170000D01*
X152040000Y-113170000D01*
X150000000Y-113170000D01*
X149997000Y-113170000D01*
X149995000Y-113170000D01*
X149992000Y-113169000D01*
X149990000Y-113169000D01*
X149987000Y-113168000D01*
X149985000Y-113168000D01*
X149982000Y-113167000D01*
X149980000Y-113166000D01*
X149977000Y-113165000D01*
X149975000Y-113163000D01*
X149973000Y-113162000D01*
X149971000Y-113160000D01*
X149969000Y-113159000D01*
X149967000Y-113157000D01*
X149965000Y-113155000D01*
X149963000Y-113153000D01*
X149961000Y-113151000D01*
X149960000Y-113149000D01*
X149958000Y-113147000D01*
X149957000Y-113145000D01*
X149955000Y-113143000D01*
X149954000Y-113140000D01*
X149953000Y-113138000D01*
X149952000Y-113135000D01*
X149952000Y-113133000D01*
X149951000Y-113130000D01*
X149951000Y-113128000D01*
X149950000Y-113125000D01*
X149950000Y-113123000D01*
X149950000Y-113120000D01*
X149950000Y-112480000D01*
X149950000Y-112477000D01*
X149950000Y-112475000D01*
X149951000Y-112472000D01*
X149951000Y-112470000D01*
X149952000Y-112467000D01*
X149952000Y-112465000D01*
X149953000Y-112462000D01*
X149954000Y-112460000D01*
X149955000Y-112457000D01*
X149957000Y-112455000D01*
X149958000Y-112453000D01*
X149960000Y-112451000D01*
X149961000Y-112449000D01*
X149963000Y-112447000D01*
X149965000Y-112445000D01*
X149967000Y-112443000D01*
X149969000Y-112441000D01*
X149971000Y-112440000D01*
X149973000Y-112438000D01*
X149975000Y-112437000D01*
X149977000Y-112435000D01*
X149980000Y-112434000D01*
X149982000Y-112433000D01*
X149985000Y-112432000D01*
X149987000Y-112432000D01*
X149990000Y-112431000D01*
X149992000Y-112431000D01*
X149995000Y-112430000D01*
X149997000Y-112430000D01*
X150000000Y-112430000D01*
X152040000Y-112430000D01*
X152043000Y-112430000D01*
X152045000Y-112430000D01*
X152048000Y-112431000D01*
G37*
X152048000Y-113701000D02*
X152050000Y-113701000D01*
X152053000Y-113702000D01*
X152055000Y-113702000D01*
X152058000Y-113703000D01*
X152060000Y-113704000D01*
X152063000Y-113705000D01*
X152065000Y-113707000D01*
X152067000Y-113708000D01*
X152069000Y-113710000D01*
X152071000Y-113711000D01*
X152073000Y-113713000D01*
X152075000Y-113715000D01*
X152077000Y-113717000D01*
X152079000Y-113719000D01*
X152080000Y-113721000D01*
X152082000Y-113723000D01*
X152083000Y-113725000D01*
X152085000Y-113727000D01*
X152086000Y-113730000D01*
X152087000Y-113732000D01*
X152088000Y-113735000D01*
X152088000Y-113737000D01*
X152089000Y-113740000D01*
X152089000Y-113742000D01*
X152090000Y-113745000D01*
X152090000Y-113747000D01*
X152090000Y-113750000D01*
X152090000Y-114390000D01*
X152090000Y-114393000D01*
X152090000Y-114395000D01*
X152089000Y-114398000D01*
X152089000Y-114400000D01*
X152088000Y-114403000D01*
X152088000Y-114405000D01*
X152087000Y-114408000D01*
X152086000Y-114410000D01*
X152085000Y-114413000D01*
X152083000Y-114415000D01*
X152082000Y-114417000D01*
X152080000Y-114419000D01*
X152079000Y-114421000D01*
X152077000Y-114423000D01*
X152075000Y-114425000D01*
X152073000Y-114427000D01*
X152071000Y-114429000D01*
X152069000Y-114430000D01*
X152067000Y-114432000D01*
X152065000Y-114433000D01*
X152063000Y-114435000D01*
X152060000Y-114436000D01*
X152058000Y-114437000D01*
X152055000Y-114438000D01*
X152053000Y-114438000D01*
X152050000Y-114439000D01*
X152048000Y-114439000D01*
X152045000Y-114440000D01*
X152043000Y-114440000D01*
X152040000Y-114440000D01*
X150000000Y-114440000D01*
X149997000Y-114440000D01*
X149995000Y-114440000D01*
X149992000Y-114439000D01*
X149990000Y-114439000D01*
X149987000Y-114438000D01*
X149985000Y-114438000D01*
X149982000Y-114437000D01*
X149980000Y-114436000D01*
X149977000Y-114435000D01*
X149975000Y-114433000D01*
X149973000Y-114432000D01*
X149971000Y-114430000D01*
X149969000Y-114429000D01*
X149967000Y-114427000D01*
X149965000Y-114425000D01*
X149963000Y-114423000D01*
X149961000Y-114421000D01*
X149960000Y-114419000D01*
X149958000Y-114417000D01*
X149957000Y-114415000D01*
X149955000Y-114413000D01*
X149954000Y-114410000D01*
X149953000Y-114408000D01*
X149952000Y-114405000D01*
X149952000Y-114403000D01*
X149951000Y-114400000D01*
X149951000Y-114398000D01*
X149950000Y-114395000D01*
X149950000Y-114393000D01*
X149950000Y-114390000D01*
X149950000Y-113750000D01*
X149950000Y-113747000D01*
X149950000Y-113745000D01*
X149951000Y-113742000D01*
X149951000Y-113740000D01*
X149952000Y-113737000D01*
X149952000Y-113735000D01*
X149953000Y-113732000D01*
X149954000Y-113730000D01*
X149955000Y-113727000D01*
X149957000Y-113725000D01*
X149958000Y-113723000D01*
X149960000Y-113721000D01*
X149961000Y-113719000D01*
X149963000Y-113717000D01*
X149965000Y-113715000D01*
X149967000Y-113713000D01*
X149969000Y-113711000D01*
X149971000Y-113710000D01*
X149973000Y-113708000D01*
X149975000Y-113707000D01*
X149977000Y-113705000D01*
X149980000Y-113704000D01*
X149982000Y-113703000D01*
X149985000Y-113702000D01*
X149987000Y-113702000D01*
X149990000Y-113701000D01*
X149992000Y-113701000D01*
X149995000Y-113700000D01*
X149997000Y-113700000D01*
X150000000Y-113700000D01*
X152040000Y-113700000D01*
X152043000Y-113700000D01*
X152045000Y-113700000D01*
X152048000Y-113701000D01*
G36*
X152048000Y-113701000D02*
G01*
X152050000Y-113701000D01*
X152053000Y-113702000D01*
X152055000Y-113702000D01*
X152058000Y-113703000D01*
X152060000Y-113704000D01*
X152063000Y-113705000D01*
X152065000Y-113707000D01*
X152067000Y-113708000D01*
X152069000Y-113710000D01*
X152071000Y-113711000D01*
X152073000Y-113713000D01*
X152075000Y-113715000D01*
X152077000Y-113717000D01*
X152079000Y-113719000D01*
X152080000Y-113721000D01*
X152082000Y-113723000D01*
X152083000Y-113725000D01*
X152085000Y-113727000D01*
X152086000Y-113730000D01*
X152087000Y-113732000D01*
X152088000Y-113735000D01*
X152088000Y-113737000D01*
X152089000Y-113740000D01*
X152089000Y-113742000D01*
X152090000Y-113745000D01*
X152090000Y-113747000D01*
X152090000Y-113750000D01*
X152090000Y-114390000D01*
X152090000Y-114393000D01*
X152090000Y-114395000D01*
X152089000Y-114398000D01*
X152089000Y-114400000D01*
X152088000Y-114403000D01*
X152088000Y-114405000D01*
X152087000Y-114408000D01*
X152086000Y-114410000D01*
X152085000Y-114413000D01*
X152083000Y-114415000D01*
X152082000Y-114417000D01*
X152080000Y-114419000D01*
X152079000Y-114421000D01*
X152077000Y-114423000D01*
X152075000Y-114425000D01*
X152073000Y-114427000D01*
X152071000Y-114429000D01*
X152069000Y-114430000D01*
X152067000Y-114432000D01*
X152065000Y-114433000D01*
X152063000Y-114435000D01*
X152060000Y-114436000D01*
X152058000Y-114437000D01*
X152055000Y-114438000D01*
X152053000Y-114438000D01*
X152050000Y-114439000D01*
X152048000Y-114439000D01*
X152045000Y-114440000D01*
X152043000Y-114440000D01*
X152040000Y-114440000D01*
X150000000Y-114440000D01*
X149997000Y-114440000D01*
X149995000Y-114440000D01*
X149992000Y-114439000D01*
X149990000Y-114439000D01*
X149987000Y-114438000D01*
X149985000Y-114438000D01*
X149982000Y-114437000D01*
X149980000Y-114436000D01*
X149977000Y-114435000D01*
X149975000Y-114433000D01*
X149973000Y-114432000D01*
X149971000Y-114430000D01*
X149969000Y-114429000D01*
X149967000Y-114427000D01*
X149965000Y-114425000D01*
X149963000Y-114423000D01*
X149961000Y-114421000D01*
X149960000Y-114419000D01*
X149958000Y-114417000D01*
X149957000Y-114415000D01*
X149955000Y-114413000D01*
X149954000Y-114410000D01*
X149953000Y-114408000D01*
X149952000Y-114405000D01*
X149952000Y-114403000D01*
X149951000Y-114400000D01*
X149951000Y-114398000D01*
X149950000Y-114395000D01*
X149950000Y-114393000D01*
X149950000Y-114390000D01*
X149950000Y-113750000D01*
X149950000Y-113747000D01*
X149950000Y-113745000D01*
X149951000Y-113742000D01*
X149951000Y-113740000D01*
X149952000Y-113737000D01*
X149952000Y-113735000D01*
X149953000Y-113732000D01*
X149954000Y-113730000D01*
X149955000Y-113727000D01*
X149957000Y-113725000D01*
X149958000Y-113723000D01*
X149960000Y-113721000D01*
X149961000Y-113719000D01*
X149963000Y-113717000D01*
X149965000Y-113715000D01*
X149967000Y-113713000D01*
X149969000Y-113711000D01*
X149971000Y-113710000D01*
X149973000Y-113708000D01*
X149975000Y-113707000D01*
X149977000Y-113705000D01*
X149980000Y-113704000D01*
X149982000Y-113703000D01*
X149985000Y-113702000D01*
X149987000Y-113702000D01*
X149990000Y-113701000D01*
X149992000Y-113701000D01*
X149995000Y-113700000D01*
X149997000Y-113700000D01*
X150000000Y-113700000D01*
X152040000Y-113700000D01*
X152043000Y-113700000D01*
X152045000Y-113700000D01*
X152048000Y-113701000D01*
G37*
%TD*%
D11*
%TO.C,C3*%
X139160000Y-96030000D03*
D12*
X131660000Y-96030000D03*
%TD*%
D13*
%TO.C,J3*%
X174820000Y-94090000D03*
D14*
X174820000Y-96630000D03*
%TD*%
D11*
%TO.C,C1*%
X124350000Y-108830000D03*
D12*
X129350000Y-108830000D03*
%TD*%
D15*
%TO.C,R3*%
X143672500Y-103070000D03*
X141847500Y-103070000D03*
%TD*%
D16*
%TO.C,R1*%
X149060000Y-120040000D03*
X143135000Y-120040000D03*
%TD*%
D17*
%TO.C,L1*%
X165530000Y-122370000D03*
X165530000Y-104590000D03*
%TD*%
D15*
%TO.C,R5*%
X117260000Y-93660000D03*
X115435000Y-93660000D03*
%TD*%
D18*
%TO.C,D2*%
X111715000Y-93660000D03*
X113590000Y-93660000D03*
%TD*%
D19*
%TO.C,R2*%
X145345000Y-103070000D03*
X147170000Y-103070000D03*
%TD*%
D13*
%TO.C,J1*%
X106470000Y-96220000D03*
D14*
X106470000Y-93680000D03*
%TD*%
D20*
%TO.C,F1*%
X104515000Y-120030000D03*
X112135000Y-120030000D03*
D21*
X131105000Y-120030000D03*
X138725000Y-120030000D03*
%TD*%
D22*
%TO.C,D1*%
X149820000Y-94970000D03*
D23*
X165060000Y-94970000D03*
%TD*%
D24*
%TO.C,C2*%
X137490000Y-111832599D03*
D25*
X137490000Y-109832599D03*
%TD*%
M02*
