M48
; DRILL file {KiCad 7.0.7} date Wed Sep 13 14:26:22 2023
; FORMAT={-:-/ absolute / inch / decimal}
; #@! TF.CreationDate,2023-09-13T14:26:22-04:00
; #@! TF.GenerationSoftware,Kicad,Pcbnew,7.0.7
; #@! TF.FileFunction,Plated,1,4,PTH
FMAT,2
INCH
; #@! TA.AperFunction,Plated,PTH,ViaDrill
T1C0.0118
; #@! TA.AperFunction,Plated,PTH,ViaDrill
T2C0.0157
; #@! TA.AperFunction,Plated,PTH,ComponentDrill
T3C0.0236
; #@! TA.AperFunction,Plated,PTH,ComponentDrill
T4C0.0300
; #@! TA.AperFunction,Plated,PTH,ComponentDrill
T5C0.0433
; #@! TA.AperFunction,Plated,PTH,ComponentDrill
T6C0.0472
; #@! TA.AperFunction,Plated,PTH,ComponentDrill
T7C0.0630
; #@! TA.AperFunction,Plated,PTH,ComponentDrill
T8C0.0780
%
G90
G05
T1
X4.1942Y-4.0552
X4.1942Y-4.252
X4.1942Y-4.4489
X4.1942Y-4.8426
X4.391Y-3.8583
X4.391Y-4.0552
X4.391Y-4.252
X4.391Y-4.4489
X4.391Y-4.8426
X4.5879Y-3.8583
X4.5879Y-4.0552
X4.5879Y-4.252
X4.5879Y-4.4489
X4.5879Y-4.6457
X4.5879Y-4.8426
X4.7847Y-3.6615
X4.7847Y-3.8583
X4.7847Y-4.0552
X4.7847Y-4.252
X4.7847Y-4.4489
X4.7847Y-4.6457
X4.7847Y-4.8426
X4.9816Y-3.6615
X4.9816Y-3.8583
X4.9816Y-4.0552
X4.9816Y-4.252
X4.9816Y-4.4489
X4.9816Y-4.6457
X4.9816Y-4.8426
X5.1784Y-3.6615
X5.1784Y-4.0552
X5.1784Y-4.252
X5.1784Y-4.4489
X5.1784Y-4.8426
X5.3753Y-3.6615
X5.3753Y-3.8583
X5.3753Y-4.0552
X5.3753Y-4.252
X5.3753Y-4.6457
X5.3753Y-4.8426
X5.5721Y-3.6615
X5.5721Y-3.8583
X5.5721Y-4.6457
X5.5721Y-4.8426
X5.769Y-3.6615
X5.769Y-3.8583
X5.769Y-4.4489
X5.769Y-4.6457
X5.769Y-4.8426
X5.9658Y-3.8583
X5.9658Y-4.0552
X5.9658Y-4.6457
X5.9658Y-4.8426
X6.1627Y-3.6615
X6.1627Y-3.8583
X6.1627Y-4.0552
X6.1627Y-4.252
X6.1627Y-4.4489
X6.1627Y-4.6457
X6.1627Y-4.8426
X6.3595Y-3.6615
X6.3595Y-3.8583
X6.3595Y-4.0552
X6.3595Y-4.252
X6.3595Y-4.4489
X6.3595Y-4.6457
X6.3595Y-4.8426
X6.5564Y-3.8583
X6.5564Y-4.252
X6.5564Y-4.4489
X6.5564Y-4.6457
X6.7532Y-3.6615
X6.7532Y-3.8583
X6.7532Y-4.0552
X6.7532Y-4.252
X6.7532Y-4.4489
X6.7532Y-4.6457
X6.7532Y-4.8426
X6.9501Y-4.0552
X6.9501Y-4.252
X6.9501Y-4.4489
X6.9501Y-4.6457
X6.9501Y-4.8426
T2
X4.398Y-3.7516
X5.6508Y-4.2909
X5.6512Y-4.1909
X5.6512Y-4.3409
X5.8492Y-4.0339
X5.8736Y-4.2409
X5.874Y-4.1909
X5.874Y-4.2909
X5.874Y-4.3409
T3
X5.413Y-4.3241
X5.413Y-4.4029
T4
X6.5169Y-4.1177
X6.5169Y-4.8177
T5
X4.1917Y-3.6882
X4.1917Y-3.7882
X6.8827Y-3.7043
X6.8827Y-3.8043
T6
X4.8957Y-4.2846
X5.0925Y-4.2846
X5.1835Y-3.7807
X5.4787Y-3.7807
T7
X5.8984Y-3.739
X6.4984Y-3.739
T8
X4.1148Y-4.7256
X4.4148Y-4.7256
X5.1616Y-4.7256
X5.4616Y-4.7256
T0
M30
