%TF.GenerationSoftware,KiCad,Pcbnew,7.0.7*%
%TF.CreationDate,2023-09-13T14:26:25-04:00*%
%TF.ProjectId,Alim12,416c696d-3132-42e6-9b69-6361645f7063,rev?*%
%TF.SameCoordinates,Original*%
%TF.FileFunction,Copper,L1,Top*%
%TF.FilePolarity,Positive*%
%FSLAX46Y46*%
G04 Gerber Fmt 4.6, Leading zero omitted, Abs format (unit mm)*
G04 Created by KiCad (PCBNEW 7.0.7) date 2023-09-13 14:26:25*
%MOMM*%
%LPD*%
G01*
G04 APERTURE LIST*
G04 Aperture macros list*
%AMRoundRect*
0 Rectangle with rounded corners*
0 $1 Rounding radius*
0 $2 $3 $4 $5 $6 $7 $8 $9 X,Y pos of 4 corners*
0 Add a 4 corners polygon primitive as box body*
4,1,4,$2,$3,$4,$5,$6,$7,$8,$9,$2,$3,0*
0 Add four circle primitives for the rounded corners*
1,1,$1+$1,$2,$3*
1,1,$1+$1,$4,$5*
1,1,$1+$1,$6,$7*
1,1,$1+$1,$8,$9*
0 Add four rect primitives between the rounded corners*
20,1,$1+$1,$2,$3,$4,$5,0*
20,1,$1+$1,$4,$5,$6,$7,0*
20,1,$1+$1,$6,$7,$8,$9,0*
20,1,$1+$1,$8,$9,$2,$3,0*%
G04 Aperture macros list end*
%TA.AperFunction,ComponentPad*%
%ADD10R,2.400000X2.400000*%
%TD*%
%TA.AperFunction,ComponentPad*%
%ADD11C,2.400000*%
%TD*%
%TA.AperFunction,ComponentPad*%
%ADD12R,2.100000X2.100000*%
%TD*%
%TA.AperFunction,ComponentPad*%
%ADD13C,2.100000*%
%TD*%
%TA.AperFunction,SMDPad,CuDef*%
%ADD14RoundRect,0.250000X0.262500X0.450000X-0.262500X0.450000X-0.262500X-0.450000X0.262500X-0.450000X0*%
%TD*%
%TA.AperFunction,SMDPad,CuDef*%
%ADD15RoundRect,0.250000X0.362500X1.425000X-0.362500X1.425000X-0.362500X-1.425000X0.362500X-1.425000X0*%
%TD*%
%TA.AperFunction,ComponentPad*%
%ADD16C,1.524000*%
%TD*%
%TA.AperFunction,SMDPad,CuDef*%
%ADD17RoundRect,0.243750X-0.243750X-0.456250X0.243750X-0.456250X0.243750X0.456250X-0.243750X0.456250X0*%
%TD*%
%TA.AperFunction,SMDPad,CuDef*%
%ADD18RoundRect,0.250000X-0.262500X-0.450000X0.262500X-0.450000X0.262500X0.450000X-0.262500X0.450000X0*%
%TD*%
%TA.AperFunction,SMDPad,CuDef*%
%ADD19RoundRect,0.030000X-0.970000X-0.270000X0.970000X-0.270000X0.970000X0.270000X-0.970000X0.270000X0*%
%TD*%
%TA.AperFunction,ComponentPad*%
%ADD20RoundRect,0.750000X-0.750000X-0.750000X0.750000X-0.750000X0.750000X0.750000X-0.750000X0.750000X0*%
%TD*%
%TA.AperFunction,ComponentPad*%
%ADD21C,3.000000*%
%TD*%
%TA.AperFunction,ComponentPad*%
%ADD22R,3.200000X3.200000*%
%TD*%
%TA.AperFunction,ComponentPad*%
%ADD23O,3.200000X3.200000*%
%TD*%
%TA.AperFunction,ComponentPad*%
%ADD24R,1.200000X1.200000*%
%TD*%
%TA.AperFunction,ComponentPad*%
%ADD25C,1.200000*%
%TD*%
%TA.AperFunction,ViaPad*%
%ADD26C,0.800000*%
%TD*%
%TA.AperFunction,Conductor*%
%ADD27C,0.750000*%
%TD*%
%TA.AperFunction,Conductor*%
%ADD28C,0.250000*%
%TD*%
G04 APERTURE END LIST*
D10*
%TO.P,C3,1*%
%TO.N,Net-(D1-K)*%
X139160000Y-96030000D03*
D11*
%TO.P,C3,2*%
%TO.N,GND*%
X131660000Y-96030000D03*
%TD*%
D12*
%TO.P,J3,1,Pin_1*%
%TO.N,Net-(D1-K)*%
X174820000Y-94090000D03*
D13*
%TO.P,J3,2,Pin_2*%
%TO.N,GND*%
X174820000Y-96630000D03*
%TD*%
D10*
%TO.P,C1,1*%
%TO.N,Net-(U1-VCC)*%
X124350000Y-108830000D03*
D11*
%TO.P,C1,2*%
%TO.N,GND*%
X129350000Y-108830000D03*
%TD*%
D14*
%TO.P,R3,1*%
%TO.N,Net-(U1-Feedback_1)*%
X143672500Y-103070000D03*
%TO.P,R3,2*%
%TO.N,Net-(D1-K)*%
X141847500Y-103070000D03*
%TD*%
D15*
%TO.P,R1,1*%
%TO.N,Net-(U1-Ipk_Sense)*%
X149060000Y-120040000D03*
%TO.P,R1,2*%
%TO.N,Net-(U1-VCC)*%
X143135000Y-120040000D03*
%TD*%
D16*
%TO.P,L1,1,1*%
%TO.N,Net-(U1-Ipk_Sense)*%
X165530000Y-122370000D03*
%TO.P,L1,2,2*%
%TO.N,Net-(D1-A)*%
X165530000Y-104590000D03*
%TD*%
D14*
%TO.P,R5,1*%
%TO.N,Net-(U1-VCC)*%
X117260000Y-93660000D03*
%TO.P,R5,2*%
%TO.N,Net-(D2-A)*%
X115435000Y-93660000D03*
%TD*%
D17*
%TO.P,D2,1,K*%
%TO.N,GND*%
X111715000Y-93660000D03*
%TO.P,D2,2,A*%
%TO.N,Net-(D2-A)*%
X113590000Y-93660000D03*
%TD*%
D18*
%TO.P,R2,1*%
%TO.N,Net-(U1-Feedback_1)*%
X145345000Y-103070000D03*
%TO.P,R2,2*%
%TO.N,GND*%
X147170000Y-103070000D03*
%TD*%
D19*
%TO.P,U1,1,LVI_Output*%
%TO.N,unconnected-(U1-LVI_Output-Pad1)*%
X141720000Y-105180000D03*
%TO.P,U1,2,Feedback_2*%
%TO.N,GND*%
X141720000Y-106450000D03*
%TO.P,U1,3,Feedback_1*%
%TO.N,Net-(U1-Feedback_1)*%
X141720000Y-107720000D03*
%TO.P,U1,4,gnd*%
%TO.N,GND*%
X141720000Y-108990000D03*
%TO.P,U1,5,gnd*%
X141720000Y-110260000D03*
%TO.P,U1,6,timing_capacitor*%
%TO.N,Net-(U1-timing_capacitor)*%
X141720000Y-111530000D03*
%TO.P,U1,7,VCC*%
%TO.N,Net-(U1-VCC)*%
X141720000Y-112800000D03*
%TO.P,U1,8,Ipk_Sense*%
%TO.N,Net-(U1-Ipk_Sense)*%
X141720000Y-114070000D03*
%TO.P,U1,9,driver*%
%TO.N,Net-(D1-A)*%
X151020000Y-114070000D03*
%TO.P,U1,10,switch*%
X151020000Y-112800000D03*
%TO.P,U1,11,switch*%
X151020000Y-111530000D03*
%TO.P,U1,12,gnd*%
%TO.N,GND*%
X151020000Y-110260000D03*
%TO.P,U1,13,gnd*%
X151020000Y-108990000D03*
%TO.P,U1,14,switch_E*%
X151020000Y-107720000D03*
%TO.P,U1,15,switch_E*%
X151020000Y-106450000D03*
%TO.P,U1,16,Boostrap*%
%TO.N,unconnected-(U1-Boostrap-Pad16)*%
X151020000Y-105180000D03*
%TD*%
D12*
%TO.P,J1,1,Pin_1*%
%TO.N,Net-(J1-Pin_1)*%
X106470000Y-96220000D03*
D13*
%TO.P,J1,2,Pin_2*%
%TO.N,GND*%
X106470000Y-93680000D03*
%TD*%
D20*
%TO.P,F1,1*%
%TO.N,Net-(J1-Pin_1)*%
X104515000Y-120030000D03*
X112135000Y-120030000D03*
D21*
%TO.P,F1,2*%
%TO.N,Net-(U1-VCC)*%
X131105000Y-120030000D03*
X138725000Y-120030000D03*
%TD*%
D22*
%TO.P,D1,1,K*%
%TO.N,Net-(D1-K)*%
X149820000Y-94970000D03*
D23*
%TO.P,D1,2,A*%
%TO.N,Net-(D1-A)*%
X165060000Y-94970000D03*
%TD*%
D24*
%TO.P,C2,1*%
%TO.N,Net-(U1-timing_capacitor)*%
X137490000Y-111832599D03*
D25*
%TO.P,C2,2*%
%TO.N,GND*%
X137490000Y-109832599D03*
%TD*%
D26*
%TO.N,GND*%
X176531517Y-123001750D03*
X176531517Y-118001750D03*
X176531517Y-113001750D03*
X176531517Y-108001750D03*
X176531517Y-103001750D03*
X171531517Y-123001750D03*
X171531517Y-118001750D03*
X171531517Y-113001750D03*
X171531517Y-108001750D03*
X171531517Y-103001750D03*
X171531517Y-98001750D03*
X171531517Y-93001750D03*
X166531517Y-118001750D03*
X166531517Y-113001750D03*
X166531517Y-108001750D03*
X166531517Y-98001750D03*
X161531517Y-123001750D03*
X161531517Y-118001750D03*
X161531517Y-113001750D03*
X161531517Y-108001750D03*
X161531517Y-103001750D03*
X161531517Y-98001750D03*
X161531517Y-93001750D03*
X156531517Y-123001750D03*
X156531517Y-118001750D03*
X156531517Y-113001750D03*
X156531517Y-108001750D03*
X156531517Y-103001750D03*
X156531517Y-98001750D03*
X156531517Y-93001750D03*
X151531517Y-123001750D03*
X151531517Y-118001750D03*
X151531517Y-103001750D03*
X151531517Y-98001750D03*
X146531517Y-123001750D03*
X146531517Y-118001750D03*
X146531517Y-113001750D03*
X146531517Y-98001750D03*
X146531517Y-93001750D03*
X141531517Y-123001750D03*
X141531517Y-118001750D03*
X141531517Y-98001750D03*
X141531517Y-93001750D03*
X136531517Y-123001750D03*
X136531517Y-118001750D03*
X136531517Y-108001750D03*
X136531517Y-103001750D03*
X136531517Y-98001750D03*
X136531517Y-93001750D03*
X131531517Y-123001750D03*
X131531517Y-113001750D03*
X131531517Y-108001750D03*
X131531517Y-103001750D03*
X131531517Y-93001750D03*
X126531517Y-123001750D03*
X126531517Y-118001750D03*
X126531517Y-113001750D03*
X126531517Y-108001750D03*
X126531517Y-103001750D03*
X126531517Y-98001750D03*
X126531517Y-93001750D03*
X121531517Y-123001750D03*
X121531517Y-118001750D03*
X121531517Y-113001750D03*
X121531517Y-108001750D03*
X121531517Y-103001750D03*
X121531517Y-98001750D03*
X121531517Y-93001750D03*
X116531517Y-123001750D03*
X116531517Y-118001750D03*
X116531517Y-113001750D03*
X116531517Y-108001750D03*
X116531517Y-103001750D03*
X116531517Y-98001750D03*
X111531517Y-123001750D03*
X111531517Y-113001750D03*
X111531517Y-108001750D03*
X111531517Y-103001750D03*
X111531517Y-98001750D03*
X106531517Y-123001750D03*
X106531517Y-113001750D03*
X106531517Y-108001750D03*
X106531517Y-103001750D03*
X149200000Y-108990000D03*
X143540000Y-106450000D03*
X149190000Y-107720000D03*
X111710000Y-95290000D03*
X143530000Y-108990000D03*
X149200000Y-106450000D03*
X143540000Y-110260000D03*
X149200000Y-110260000D03*
X148570000Y-102460000D03*
%TD*%
D27*
%TO.N,Net-(U1-Feedback_1)*%
X143672500Y-103070000D02*
X145345000Y-103070000D01*
X141720000Y-107720000D02*
X144880000Y-107720000D01*
X144880000Y-107720000D02*
X145345000Y-107255000D01*
X145345000Y-107255000D02*
X145345000Y-103070000D01*
%TO.N,GND*%
X141720000Y-110260000D02*
X143540000Y-110260000D01*
X147960000Y-103070000D02*
X148570000Y-102460000D01*
X151020000Y-107720000D02*
X149190000Y-107720000D01*
X151020000Y-108990000D02*
X149200000Y-108990000D01*
X141720000Y-106450000D02*
X143540000Y-106450000D01*
X151020000Y-106450000D02*
X149200000Y-106450000D01*
X111715000Y-93660000D02*
X111715000Y-95285000D01*
X147170000Y-103070000D02*
X147960000Y-103070000D01*
X151020000Y-110260000D02*
X149200000Y-110260000D01*
X141720000Y-108990000D02*
X143530000Y-108990000D01*
D28*
X111715000Y-95285000D02*
X111710000Y-95290000D01*
D27*
%TO.N,Net-(U1-timing_capacitor)*%
X141720000Y-111530000D02*
X139870000Y-111530000D01*
D28*
X139560000Y-111840000D02*
X139552599Y-111832599D01*
D27*
X139552599Y-111832599D02*
X137490000Y-111832599D01*
X139870000Y-111530000D02*
X139560000Y-111840000D01*
%TO.N,Net-(D2-A)*%
X113590000Y-93660000D02*
X115435000Y-93660000D01*
%TD*%
%TA.AperFunction,Conductor*%
%TO.N,Net-(D1-A)*%
G36*
X160912444Y-92119685D02*
G01*
X160958199Y-92172489D01*
X160968143Y-92241647D01*
X160939118Y-92305203D01*
X160924865Y-92318283D01*
X160925093Y-92318536D01*
X160920263Y-92322884D01*
X160792476Y-92464807D01*
X160696990Y-92630193D01*
X160696987Y-92630200D01*
X160681866Y-92676739D01*
X160637975Y-92811822D01*
X160618013Y-93001750D01*
X160637975Y-93191678D01*
X160637976Y-93191681D01*
X160696987Y-93373299D01*
X160696990Y-93373306D01*
X160792477Y-93538694D01*
X160920264Y-93680616D01*
X161074765Y-93792868D01*
X161249229Y-93870544D01*
X161436030Y-93910250D01*
X161627004Y-93910250D01*
X161813805Y-93870544D01*
X161988269Y-93792868D01*
X162142770Y-93680616D01*
X162270557Y-93538694D01*
X162366044Y-93373306D01*
X162425059Y-93191678D01*
X162445021Y-93001750D01*
X162425059Y-92811822D01*
X162366044Y-92630194D01*
X162270557Y-92464806D01*
X162142770Y-92322884D01*
X162142769Y-92322884D01*
X162137941Y-92318536D01*
X162139203Y-92317133D01*
X162102078Y-92268987D01*
X162096099Y-92199374D01*
X162128705Y-92137579D01*
X162189544Y-92103222D01*
X162217629Y-92100000D01*
X167486000Y-92100000D01*
X167553039Y-92119685D01*
X167598794Y-92172489D01*
X167610000Y-92224000D01*
X167610000Y-97598107D01*
X167590315Y-97665146D01*
X167537511Y-97710901D01*
X167468353Y-97720845D01*
X167404797Y-97691820D01*
X167368069Y-97636426D01*
X167366045Y-97630197D01*
X167366044Y-97630196D01*
X167366044Y-97630194D01*
X167270557Y-97464806D01*
X167142770Y-97322884D01*
X166988269Y-97210632D01*
X166813805Y-97132956D01*
X166813803Y-97132955D01*
X166627004Y-97093250D01*
X166436030Y-97093250D01*
X166249231Y-97132955D01*
X166074763Y-97210633D01*
X165920262Y-97322885D01*
X165792476Y-97464807D01*
X165696990Y-97630193D01*
X165696987Y-97630200D01*
X165676966Y-97691820D01*
X165637975Y-97811822D01*
X165618013Y-98001750D01*
X165637975Y-98191678D01*
X165637976Y-98191681D01*
X165696987Y-98373299D01*
X165696989Y-98373303D01*
X165696990Y-98373306D01*
X165792477Y-98538694D01*
X165920264Y-98680616D01*
X166074765Y-98792868D01*
X166249229Y-98870544D01*
X166436030Y-98910250D01*
X166627004Y-98910250D01*
X166813805Y-98870544D01*
X166988269Y-98792868D01*
X167142770Y-98680616D01*
X167270557Y-98538694D01*
X167366044Y-98373306D01*
X167368068Y-98367075D01*
X167407505Y-98309400D01*
X167471863Y-98282200D01*
X167540710Y-98294114D01*
X167592186Y-98341357D01*
X167610000Y-98405391D01*
X167610000Y-99560000D01*
X178615500Y-99560000D01*
X178682539Y-99579685D01*
X178728294Y-99632489D01*
X178739500Y-99684000D01*
X178739500Y-110536000D01*
X178719815Y-110603039D01*
X178667011Y-110648794D01*
X178615500Y-110660000D01*
X165020000Y-110660000D01*
X165020000Y-115046377D01*
X165000315Y-115113416D01*
X164947511Y-115159171D01*
X164895923Y-115170377D01*
X149013653Y-115160543D01*
X148946626Y-115140817D01*
X148900904Y-115087985D01*
X148889730Y-115036594D01*
X148889450Y-114320000D01*
X149520000Y-114320000D01*
X149520000Y-114381487D01*
X149530227Y-114466663D01*
X149583676Y-114602201D01*
X149671710Y-114718289D01*
X149787798Y-114806323D01*
X149923336Y-114859772D01*
X150008512Y-114870000D01*
X150770000Y-114870000D01*
X150770000Y-114320000D01*
X151270000Y-114320000D01*
X151270000Y-114870000D01*
X152031488Y-114870000D01*
X152116663Y-114859772D01*
X152252201Y-114806323D01*
X152368289Y-114718289D01*
X152456323Y-114602201D01*
X152509772Y-114466663D01*
X152520000Y-114381487D01*
X152520000Y-114320000D01*
X151270000Y-114320000D01*
X150770000Y-114320000D01*
X149520000Y-114320000D01*
X148889450Y-114320000D01*
X148888953Y-113050000D01*
X149520000Y-113050000D01*
X149520000Y-113111487D01*
X149530227Y-113196663D01*
X149583677Y-113332203D01*
X149604813Y-113360075D01*
X149629636Y-113425387D01*
X149615208Y-113493751D01*
X149604813Y-113509925D01*
X149583677Y-113537796D01*
X149530227Y-113673336D01*
X149520000Y-113758512D01*
X149520000Y-113820000D01*
X150770000Y-113820000D01*
X150770000Y-113050000D01*
X151270000Y-113050000D01*
X151270000Y-113820000D01*
X152520000Y-113820000D01*
X152520000Y-113758512D01*
X152509772Y-113673336D01*
X152456323Y-113537798D01*
X152435187Y-113509927D01*
X152410363Y-113444615D01*
X152424790Y-113376251D01*
X152435187Y-113360073D01*
X152456323Y-113332201D01*
X152509772Y-113196663D01*
X152520000Y-113111487D01*
X152520000Y-113050000D01*
X151270000Y-113050000D01*
X150770000Y-113050000D01*
X149520000Y-113050000D01*
X148888953Y-113050000D01*
X148888934Y-113001750D01*
X155618013Y-113001750D01*
X155637975Y-113191678D01*
X155637976Y-113191681D01*
X155696987Y-113373299D01*
X155696990Y-113373306D01*
X155792477Y-113538694D01*
X155920264Y-113680616D01*
X156074765Y-113792868D01*
X156249229Y-113870544D01*
X156436030Y-113910250D01*
X156627004Y-113910250D01*
X156813805Y-113870544D01*
X156988269Y-113792868D01*
X157142770Y-113680616D01*
X157270557Y-113538694D01*
X157366044Y-113373306D01*
X157425059Y-113191678D01*
X157445021Y-113001750D01*
X160618013Y-113001750D01*
X160637975Y-113191678D01*
X160637976Y-113191681D01*
X160696987Y-113373299D01*
X160696990Y-113373306D01*
X160792477Y-113538694D01*
X160920264Y-113680616D01*
X161074765Y-113792868D01*
X161249229Y-113870544D01*
X161436030Y-113910250D01*
X161627004Y-113910250D01*
X161813805Y-113870544D01*
X161988269Y-113792868D01*
X162142770Y-113680616D01*
X162270557Y-113538694D01*
X162366044Y-113373306D01*
X162425059Y-113191678D01*
X162445021Y-113001750D01*
X162425059Y-112811822D01*
X162366044Y-112630194D01*
X162270557Y-112464806D01*
X162142770Y-112322884D01*
X161988269Y-112210632D01*
X161813805Y-112132956D01*
X161813803Y-112132955D01*
X161627004Y-112093250D01*
X161436030Y-112093250D01*
X161249231Y-112132955D01*
X161074763Y-112210633D01*
X160920262Y-112322885D01*
X160792476Y-112464807D01*
X160696990Y-112630193D01*
X160696987Y-112630200D01*
X160637976Y-112811818D01*
X160637975Y-112811822D01*
X160618013Y-113001750D01*
X157445021Y-113001750D01*
X157425059Y-112811822D01*
X157366044Y-112630194D01*
X157270557Y-112464806D01*
X157142770Y-112322884D01*
X156988269Y-112210632D01*
X156813805Y-112132956D01*
X156813803Y-112132955D01*
X156627004Y-112093250D01*
X156436030Y-112093250D01*
X156249231Y-112132955D01*
X156074763Y-112210633D01*
X155920262Y-112322885D01*
X155792476Y-112464807D01*
X155696990Y-112630193D01*
X155696987Y-112630200D01*
X155637976Y-112811818D01*
X155637975Y-112811822D01*
X155618013Y-113001750D01*
X148888934Y-113001750D01*
X148888456Y-111780000D01*
X149520000Y-111780000D01*
X149520000Y-111841487D01*
X149530227Y-111926663D01*
X149583677Y-112062203D01*
X149604813Y-112090075D01*
X149629636Y-112155387D01*
X149615208Y-112223751D01*
X149604813Y-112239925D01*
X149583677Y-112267796D01*
X149530227Y-112403336D01*
X149520000Y-112488512D01*
X149520000Y-112550000D01*
X150770000Y-112550000D01*
X150770000Y-111780000D01*
X151270000Y-111780000D01*
X151270000Y-112550000D01*
X152520000Y-112550000D01*
X152520000Y-112488512D01*
X152509772Y-112403336D01*
X152456322Y-112267796D01*
X152435186Y-112239924D01*
X152410363Y-112174613D01*
X152424791Y-112106249D01*
X152435188Y-112090071D01*
X152456323Y-112062201D01*
X152509772Y-111926663D01*
X152520000Y-111841487D01*
X152520000Y-111780000D01*
X151270000Y-111780000D01*
X150770000Y-111780000D01*
X149520000Y-111780000D01*
X148888456Y-111780000D01*
X148888259Y-111275705D01*
X148907916Y-111208661D01*
X148960702Y-111162886D01*
X149029857Y-111152915D01*
X149038021Y-111154366D01*
X149104513Y-111168500D01*
X149104514Y-111168500D01*
X149295487Y-111168500D01*
X149370219Y-111152615D01*
X149439886Y-111157931D01*
X149495620Y-111200068D01*
X149519725Y-111265647D01*
X149520000Y-111273905D01*
X149520000Y-111280000D01*
X152520000Y-111280000D01*
X152520000Y-111218512D01*
X152509771Y-111133333D01*
X152492482Y-111089490D01*
X152486200Y-111019904D01*
X152518537Y-110957967D01*
X152573239Y-110926760D01*
X152580000Y-110920000D01*
X152580000Y-108001750D01*
X155618013Y-108001750D01*
X155637975Y-108191678D01*
X155637976Y-108191681D01*
X155696987Y-108373299D01*
X155696990Y-108373306D01*
X155792477Y-108538694D01*
X155920264Y-108680616D01*
X156074765Y-108792868D01*
X156249229Y-108870544D01*
X156436030Y-108910250D01*
X156627004Y-108910250D01*
X156813805Y-108870544D01*
X156988269Y-108792868D01*
X157142770Y-108680616D01*
X157270557Y-108538694D01*
X157366044Y-108373306D01*
X157425059Y-108191678D01*
X157445021Y-108001750D01*
X160618013Y-108001750D01*
X160637975Y-108191678D01*
X160637976Y-108191681D01*
X160696987Y-108373299D01*
X160696990Y-108373306D01*
X160792477Y-108538694D01*
X160920264Y-108680616D01*
X161074765Y-108792868D01*
X161249229Y-108870544D01*
X161436030Y-108910250D01*
X161627004Y-108910250D01*
X161813805Y-108870544D01*
X161988269Y-108792868D01*
X162142770Y-108680616D01*
X162270557Y-108538694D01*
X162366044Y-108373306D01*
X162425059Y-108191678D01*
X162445021Y-108001750D01*
X165618013Y-108001750D01*
X165637975Y-108191678D01*
X165637976Y-108191681D01*
X165696987Y-108373299D01*
X165696990Y-108373306D01*
X165792477Y-108538694D01*
X165920264Y-108680616D01*
X166074765Y-108792868D01*
X166249229Y-108870544D01*
X166436030Y-108910250D01*
X166627004Y-108910250D01*
X166813805Y-108870544D01*
X166988269Y-108792868D01*
X167142770Y-108680616D01*
X167270557Y-108538694D01*
X167366044Y-108373306D01*
X167425059Y-108191678D01*
X167445021Y-108001750D01*
X170618013Y-108001750D01*
X170637975Y-108191678D01*
X170637976Y-108191681D01*
X170696987Y-108373299D01*
X170696990Y-108373306D01*
X170792477Y-108538694D01*
X170920264Y-108680616D01*
X171074765Y-108792868D01*
X171249229Y-108870544D01*
X171436030Y-108910250D01*
X171627004Y-108910250D01*
X171813805Y-108870544D01*
X171988269Y-108792868D01*
X172142770Y-108680616D01*
X172270557Y-108538694D01*
X172366044Y-108373306D01*
X172425059Y-108191678D01*
X172445021Y-108001750D01*
X175618013Y-108001750D01*
X175637975Y-108191678D01*
X175637976Y-108191681D01*
X175696987Y-108373299D01*
X175696990Y-108373306D01*
X175792477Y-108538694D01*
X175920264Y-108680616D01*
X176074765Y-108792868D01*
X176249229Y-108870544D01*
X176436030Y-108910250D01*
X176627004Y-108910250D01*
X176813805Y-108870544D01*
X176988269Y-108792868D01*
X177142770Y-108680616D01*
X177270557Y-108538694D01*
X177366044Y-108373306D01*
X177425059Y-108191678D01*
X177445021Y-108001750D01*
X177425059Y-107811822D01*
X177366044Y-107630194D01*
X177270557Y-107464806D01*
X177142770Y-107322884D01*
X176988269Y-107210632D01*
X176813805Y-107132956D01*
X176813803Y-107132955D01*
X176627004Y-107093250D01*
X176436030Y-107093250D01*
X176249231Y-107132955D01*
X176074763Y-107210633D01*
X175920262Y-107322885D01*
X175792476Y-107464807D01*
X175696990Y-107630193D01*
X175696987Y-107630200D01*
X175637976Y-107811818D01*
X175637975Y-107811822D01*
X175618013Y-108001750D01*
X172445021Y-108001750D01*
X172425059Y-107811822D01*
X172366044Y-107630194D01*
X172270557Y-107464806D01*
X172142770Y-107322884D01*
X171988269Y-107210632D01*
X171813805Y-107132956D01*
X171813803Y-107132955D01*
X171627004Y-107093250D01*
X171436030Y-107093250D01*
X171249231Y-107132955D01*
X171074763Y-107210633D01*
X170920262Y-107322885D01*
X170792476Y-107464807D01*
X170696990Y-107630193D01*
X170696987Y-107630200D01*
X170637976Y-107811818D01*
X170637975Y-107811822D01*
X170618013Y-108001750D01*
X167445021Y-108001750D01*
X167425059Y-107811822D01*
X167366044Y-107630194D01*
X167270557Y-107464806D01*
X167142770Y-107322884D01*
X166988269Y-107210632D01*
X166813805Y-107132956D01*
X166813803Y-107132955D01*
X166627004Y-107093250D01*
X166436030Y-107093250D01*
X166249231Y-107132955D01*
X166074763Y-107210633D01*
X165920262Y-107322885D01*
X165792476Y-107464807D01*
X165696990Y-107630193D01*
X165696987Y-107630200D01*
X165637976Y-107811818D01*
X165637975Y-107811822D01*
X165618013Y-108001750D01*
X162445021Y-108001750D01*
X162425059Y-107811822D01*
X162366044Y-107630194D01*
X162270557Y-107464806D01*
X162142770Y-107322884D01*
X161988269Y-107210632D01*
X161813805Y-107132956D01*
X161813803Y-107132955D01*
X161627004Y-107093250D01*
X161436030Y-107093250D01*
X161249231Y-107132955D01*
X161074763Y-107210633D01*
X160920262Y-107322885D01*
X160792476Y-107464807D01*
X160696990Y-107630193D01*
X160696987Y-107630200D01*
X160637976Y-107811818D01*
X160637975Y-107811822D01*
X160618013Y-108001750D01*
X157445021Y-108001750D01*
X157425059Y-107811822D01*
X157366044Y-107630194D01*
X157270557Y-107464806D01*
X157142770Y-107322884D01*
X156988269Y-107210632D01*
X156813805Y-107132956D01*
X156813803Y-107132955D01*
X156627004Y-107093250D01*
X156436030Y-107093250D01*
X156249231Y-107132955D01*
X156074763Y-107210633D01*
X155920262Y-107322885D01*
X155792476Y-107464807D01*
X155696990Y-107630193D01*
X155696987Y-107630200D01*
X155637976Y-107811818D01*
X155637975Y-107811822D01*
X155618013Y-108001750D01*
X152580000Y-108001750D01*
X152580000Y-104590000D01*
X164263179Y-104590000D01*
X164282424Y-104809976D01*
X164282426Y-104809986D01*
X164339575Y-105023270D01*
X164339580Y-105023284D01*
X164432899Y-105223407D01*
X164432900Y-105223409D01*
X164478258Y-105288187D01*
X165007050Y-104759395D01*
X165068373Y-104725910D01*
X165138064Y-104730894D01*
X165193998Y-104772765D01*
X165198539Y-104779254D01*
X165245813Y-104851612D01*
X165346157Y-104929713D01*
X165346160Y-104929714D01*
X165346511Y-104929987D01*
X165387324Y-104986697D01*
X165390999Y-105056470D01*
X165358030Y-105115522D01*
X164831811Y-105641741D01*
X164896582Y-105687094D01*
X164896592Y-105687100D01*
X165096715Y-105780419D01*
X165096729Y-105780424D01*
X165310013Y-105837573D01*
X165310023Y-105837575D01*
X165529999Y-105856821D01*
X165530001Y-105856821D01*
X165749976Y-105837575D01*
X165749986Y-105837573D01*
X165963270Y-105780424D01*
X165963284Y-105780419D01*
X166163408Y-105687100D01*
X166163420Y-105687093D01*
X166228186Y-105641742D01*
X166228187Y-105641740D01*
X165699276Y-105112829D01*
X165665791Y-105051506D01*
X165670775Y-104981814D01*
X165712647Y-104925881D01*
X165727933Y-104916097D01*
X165767251Y-104894820D01*
X165853371Y-104801269D01*
X165854083Y-104799643D01*
X165855652Y-104797777D01*
X165858992Y-104792666D01*
X165859609Y-104793069D01*
X165899036Y-104746158D01*
X165965770Y-104725464D01*
X166033099Y-104744135D01*
X166055322Y-104761769D01*
X166581740Y-105288187D01*
X166581742Y-105288186D01*
X166627093Y-105223420D01*
X166627100Y-105223408D01*
X166720419Y-105023284D01*
X166720424Y-105023270D01*
X166777573Y-104809986D01*
X166777575Y-104809976D01*
X166796821Y-104590000D01*
X166796821Y-104589999D01*
X166777575Y-104370023D01*
X166777573Y-104370013D01*
X166720424Y-104156729D01*
X166720420Y-104156720D01*
X166627098Y-103956590D01*
X166581740Y-103891811D01*
X166052949Y-104420602D01*
X165991626Y-104454087D01*
X165921934Y-104449103D01*
X165866001Y-104407231D01*
X165861460Y-104400743D01*
X165814189Y-104328391D01*
X165814187Y-104328388D01*
X165758673Y-104285180D01*
X165713843Y-104250287D01*
X165713840Y-104250285D01*
X165713488Y-104250012D01*
X165672675Y-104193301D01*
X165669000Y-104123529D01*
X165701969Y-104064477D01*
X166228187Y-103538258D01*
X166163409Y-103492900D01*
X166163407Y-103492899D01*
X165963284Y-103399580D01*
X165963270Y-103399575D01*
X165749986Y-103342426D01*
X165749976Y-103342424D01*
X165530001Y-103323179D01*
X165529999Y-103323179D01*
X165310023Y-103342424D01*
X165310013Y-103342426D01*
X165096729Y-103399575D01*
X165096720Y-103399579D01*
X164896586Y-103492903D01*
X164831812Y-103538257D01*
X164831811Y-103538258D01*
X165360723Y-104067170D01*
X165394208Y-104128493D01*
X165389224Y-104198185D01*
X165347352Y-104254118D01*
X165332059Y-104263906D01*
X165292749Y-104285179D01*
X165292748Y-104285179D01*
X165206626Y-104378733D01*
X165206626Y-104378734D01*
X165205911Y-104380365D01*
X165204340Y-104382233D01*
X165201008Y-104387334D01*
X165200391Y-104386931D01*
X165160952Y-104433849D01*
X165094215Y-104454535D01*
X165026888Y-104435857D01*
X165004677Y-104418230D01*
X164478258Y-103891811D01*
X164478257Y-103891812D01*
X164432903Y-103956586D01*
X164339579Y-104156720D01*
X164339575Y-104156729D01*
X164282426Y-104370013D01*
X164282424Y-104370023D01*
X164263179Y-104589999D01*
X164263179Y-104590000D01*
X152580000Y-104590000D01*
X152580000Y-104554000D01*
X152599685Y-104486961D01*
X152652489Y-104441206D01*
X152704000Y-104430000D01*
X158350000Y-104430000D01*
X158350000Y-103001750D01*
X160618013Y-103001750D01*
X160637975Y-103191678D01*
X160637976Y-103191681D01*
X160696987Y-103373299D01*
X160696990Y-103373306D01*
X160792477Y-103538694D01*
X160920264Y-103680616D01*
X161074765Y-103792868D01*
X161249229Y-103870544D01*
X161436030Y-103910250D01*
X161627004Y-103910250D01*
X161813805Y-103870544D01*
X161988269Y-103792868D01*
X162142770Y-103680616D01*
X162270557Y-103538694D01*
X162366044Y-103373306D01*
X162425059Y-103191678D01*
X162445021Y-103001750D01*
X170618013Y-103001750D01*
X170637975Y-103191678D01*
X170637976Y-103191681D01*
X170696987Y-103373299D01*
X170696990Y-103373306D01*
X170792477Y-103538694D01*
X170920264Y-103680616D01*
X171074765Y-103792868D01*
X171249229Y-103870544D01*
X171436030Y-103910250D01*
X171627004Y-103910250D01*
X171813805Y-103870544D01*
X171988269Y-103792868D01*
X172142770Y-103680616D01*
X172270557Y-103538694D01*
X172366044Y-103373306D01*
X172425059Y-103191678D01*
X172445021Y-103001750D01*
X175618013Y-103001750D01*
X175637975Y-103191678D01*
X175637976Y-103191681D01*
X175696987Y-103373299D01*
X175696990Y-103373306D01*
X175792477Y-103538694D01*
X175920264Y-103680616D01*
X176074765Y-103792868D01*
X176249229Y-103870544D01*
X176436030Y-103910250D01*
X176627004Y-103910250D01*
X176813805Y-103870544D01*
X176988269Y-103792868D01*
X177142770Y-103680616D01*
X177270557Y-103538694D01*
X177366044Y-103373306D01*
X177425059Y-103191678D01*
X177445021Y-103001750D01*
X177425059Y-102811822D01*
X177366044Y-102630194D01*
X177270557Y-102464806D01*
X177142770Y-102322884D01*
X176988269Y-102210632D01*
X176813805Y-102132956D01*
X176813803Y-102132955D01*
X176627004Y-102093250D01*
X176436030Y-102093250D01*
X176249231Y-102132955D01*
X176074763Y-102210633D01*
X175920262Y-102322885D01*
X175792476Y-102464807D01*
X175696990Y-102630193D01*
X175696987Y-102630200D01*
X175657530Y-102751637D01*
X175637975Y-102811822D01*
X175618013Y-103001750D01*
X172445021Y-103001750D01*
X172425059Y-102811822D01*
X172366044Y-102630194D01*
X172270557Y-102464806D01*
X172142770Y-102322884D01*
X171988269Y-102210632D01*
X171813805Y-102132956D01*
X171813803Y-102132955D01*
X171627004Y-102093250D01*
X171436030Y-102093250D01*
X171249231Y-102132955D01*
X171074763Y-102210633D01*
X170920262Y-102322885D01*
X170792476Y-102464807D01*
X170696990Y-102630193D01*
X170696987Y-102630200D01*
X170657530Y-102751637D01*
X170637975Y-102811822D01*
X170618013Y-103001750D01*
X162445021Y-103001750D01*
X162425059Y-102811822D01*
X162366044Y-102630194D01*
X162270557Y-102464806D01*
X162142770Y-102322884D01*
X161988269Y-102210632D01*
X161813805Y-102132956D01*
X161813803Y-102132955D01*
X161627004Y-102093250D01*
X161436030Y-102093250D01*
X161249231Y-102132955D01*
X161074763Y-102210633D01*
X160920262Y-102322885D01*
X160792476Y-102464807D01*
X160696990Y-102630193D01*
X160696987Y-102630200D01*
X160657530Y-102751637D01*
X160637975Y-102811822D01*
X160618013Y-103001750D01*
X158350000Y-103001750D01*
X158350000Y-98001750D01*
X160618013Y-98001750D01*
X160637975Y-98191678D01*
X160637976Y-98191681D01*
X160696987Y-98373299D01*
X160696989Y-98373303D01*
X160696990Y-98373306D01*
X160792477Y-98538694D01*
X160920264Y-98680616D01*
X161074765Y-98792868D01*
X161249229Y-98870544D01*
X161436030Y-98910250D01*
X161627004Y-98910250D01*
X161813805Y-98870544D01*
X161988269Y-98792868D01*
X162142770Y-98680616D01*
X162270557Y-98538694D01*
X162366044Y-98373306D01*
X162425059Y-98191678D01*
X162445021Y-98001750D01*
X162425059Y-97811822D01*
X162366044Y-97630194D01*
X162270557Y-97464806D01*
X162142770Y-97322884D01*
X161988269Y-97210632D01*
X161813805Y-97132956D01*
X161813803Y-97132955D01*
X161627004Y-97093250D01*
X161436030Y-97093250D01*
X161249231Y-97132955D01*
X161074763Y-97210633D01*
X160920262Y-97322885D01*
X160792476Y-97464807D01*
X160696990Y-97630193D01*
X160696987Y-97630200D01*
X160676966Y-97691820D01*
X160637975Y-97811822D01*
X160618013Y-98001750D01*
X158350000Y-98001750D01*
X158350000Y-94719999D01*
X162972192Y-94719999D01*
X162972193Y-94720000D01*
X164144350Y-94720000D01*
X164211389Y-94739685D01*
X164257144Y-94792489D01*
X164267570Y-94857883D01*
X164254938Y-94969996D01*
X164254938Y-94970003D01*
X164267570Y-95082117D01*
X164255516Y-95150938D01*
X164208166Y-95202318D01*
X164144350Y-95220000D01*
X162972193Y-95220000D01*
X162974697Y-95256619D01*
X163033146Y-95537888D01*
X163033150Y-95537902D01*
X163129355Y-95808595D01*
X163261527Y-96063676D01*
X163427204Y-96298385D01*
X163427204Y-96298386D01*
X163623288Y-96508341D01*
X163846135Y-96689641D01*
X163846146Y-96689648D01*
X164091607Y-96838917D01*
X164355108Y-96953371D01*
X164631737Y-97030879D01*
X164631746Y-97030881D01*
X164809999Y-97055380D01*
X164810000Y-97055380D01*
X164810000Y-95885649D01*
X164829685Y-95818610D01*
X164882489Y-95772855D01*
X164947883Y-95762429D01*
X164985485Y-95766666D01*
X165015071Y-95770000D01*
X165015074Y-95770000D01*
X165104929Y-95770000D01*
X165134514Y-95766666D01*
X165172116Y-95762429D01*
X165240937Y-95774483D01*
X165292317Y-95821831D01*
X165310000Y-95885649D01*
X165310000Y-97055380D01*
X165488253Y-97030881D01*
X165488262Y-97030879D01*
X165764891Y-96953371D01*
X166028392Y-96838917D01*
X166273853Y-96689648D01*
X166273864Y-96689641D01*
X166496711Y-96508341D01*
X166692795Y-96298386D01*
X166692795Y-96298385D01*
X166858472Y-96063676D01*
X166990644Y-95808595D01*
X167086849Y-95537902D01*
X167086853Y-95537888D01*
X167145302Y-95256619D01*
X167147807Y-95220000D01*
X165975650Y-95220000D01*
X165908611Y-95200315D01*
X165862856Y-95147511D01*
X165852430Y-95082117D01*
X165865062Y-94970003D01*
X165865062Y-94969996D01*
X165852430Y-94857883D01*
X165864484Y-94789062D01*
X165911834Y-94737682D01*
X165975650Y-94720000D01*
X167147807Y-94720000D01*
X167147807Y-94719999D01*
X167145302Y-94683380D01*
X167086853Y-94402111D01*
X167086849Y-94402097D01*
X166990644Y-94131404D01*
X166858472Y-93876323D01*
X166692795Y-93641614D01*
X166692795Y-93641613D01*
X166496711Y-93431658D01*
X166273864Y-93250358D01*
X166273853Y-93250351D01*
X166028392Y-93101082D01*
X165764891Y-92986628D01*
X165488262Y-92909120D01*
X165488255Y-92909119D01*
X165310000Y-92884618D01*
X165310000Y-94054350D01*
X165290315Y-94121389D01*
X165237511Y-94167144D01*
X165172116Y-94177570D01*
X165104930Y-94170000D01*
X165104926Y-94170000D01*
X165015074Y-94170000D01*
X165015070Y-94170000D01*
X164947884Y-94177570D01*
X164879062Y-94165516D01*
X164827682Y-94118167D01*
X164810000Y-94054350D01*
X164810000Y-92884618D01*
X164631744Y-92909119D01*
X164631737Y-92909120D01*
X164355108Y-92986628D01*
X164091607Y-93101082D01*
X163846146Y-93250351D01*
X163846135Y-93250358D01*
X163623288Y-93431658D01*
X163427204Y-93641613D01*
X163427204Y-93641614D01*
X163261527Y-93876323D01*
X163129355Y-94131404D01*
X163033150Y-94402097D01*
X163033146Y-94402111D01*
X162974697Y-94683380D01*
X162972192Y-94719999D01*
X158350000Y-94719999D01*
X158350000Y-92224000D01*
X158369685Y-92156961D01*
X158422489Y-92111206D01*
X158474000Y-92100000D01*
X160845405Y-92100000D01*
X160912444Y-92119685D01*
G37*
%TD.AperFunction*%
%TD*%
%TA.AperFunction,Conductor*%
%TO.N,Net-(U1-Ipk_Sense)*%
G36*
X178673039Y-111199685D02*
G01*
X178718794Y-111252489D01*
X178730000Y-111304000D01*
X178730000Y-124316000D01*
X178710315Y-124383039D01*
X178657511Y-124428794D01*
X178606000Y-124440000D01*
X146634000Y-124440000D01*
X146566961Y-124420315D01*
X146521206Y-124367511D01*
X146510000Y-124316000D01*
X146510000Y-124034197D01*
X146529685Y-123967158D01*
X146582489Y-123921403D01*
X146621042Y-123910876D01*
X146626998Y-123910250D01*
X146627004Y-123910250D01*
X146813805Y-123870544D01*
X146988269Y-123792868D01*
X147142770Y-123680616D01*
X147270557Y-123538694D01*
X147366044Y-123373306D01*
X147425059Y-123191678D01*
X147445021Y-123001750D01*
X150618013Y-123001750D01*
X150637975Y-123191678D01*
X150637976Y-123191681D01*
X150696987Y-123373299D01*
X150696990Y-123373306D01*
X150792477Y-123538694D01*
X150920264Y-123680616D01*
X151074765Y-123792868D01*
X151249229Y-123870544D01*
X151436030Y-123910250D01*
X151627004Y-123910250D01*
X151813805Y-123870544D01*
X151988269Y-123792868D01*
X152142770Y-123680616D01*
X152270557Y-123538694D01*
X152366044Y-123373306D01*
X152425059Y-123191678D01*
X152445021Y-123001750D01*
X155618013Y-123001750D01*
X155637975Y-123191678D01*
X155637976Y-123191681D01*
X155696987Y-123373299D01*
X155696990Y-123373306D01*
X155792477Y-123538694D01*
X155920264Y-123680616D01*
X156074765Y-123792868D01*
X156249229Y-123870544D01*
X156436030Y-123910250D01*
X156627004Y-123910250D01*
X156813805Y-123870544D01*
X156988269Y-123792868D01*
X157142770Y-123680616D01*
X157270557Y-123538694D01*
X157366044Y-123373306D01*
X157425059Y-123191678D01*
X157445021Y-123001750D01*
X160618013Y-123001750D01*
X160637975Y-123191678D01*
X160637976Y-123191681D01*
X160696987Y-123373299D01*
X160696990Y-123373306D01*
X160792477Y-123538694D01*
X160920264Y-123680616D01*
X161074765Y-123792868D01*
X161249229Y-123870544D01*
X161436030Y-123910250D01*
X161627004Y-123910250D01*
X161813805Y-123870544D01*
X161988269Y-123792868D01*
X162142770Y-123680616D01*
X162270557Y-123538694D01*
X162366044Y-123373306D01*
X162425059Y-123191678D01*
X162445021Y-123001750D01*
X162425059Y-122811822D01*
X162366044Y-122630194D01*
X162270557Y-122464806D01*
X162185193Y-122370000D01*
X164263179Y-122370000D01*
X164282424Y-122589976D01*
X164282426Y-122589986D01*
X164339575Y-122803270D01*
X164339580Y-122803284D01*
X164432899Y-123003407D01*
X164432900Y-123003409D01*
X164478258Y-123068187D01*
X165007050Y-122539395D01*
X165068373Y-122505910D01*
X165138064Y-122510894D01*
X165193998Y-122552765D01*
X165198539Y-122559254D01*
X165245813Y-122631612D01*
X165346157Y-122709713D01*
X165346160Y-122709714D01*
X165346511Y-122709987D01*
X165387324Y-122766697D01*
X165390999Y-122836470D01*
X165358030Y-122895522D01*
X164831811Y-123421741D01*
X164896582Y-123467094D01*
X164896592Y-123467100D01*
X165096715Y-123560419D01*
X165096729Y-123560424D01*
X165310013Y-123617573D01*
X165310023Y-123617575D01*
X165529999Y-123636821D01*
X165530001Y-123636821D01*
X165749976Y-123617575D01*
X165749986Y-123617573D01*
X165963270Y-123560424D01*
X165963284Y-123560419D01*
X166163408Y-123467100D01*
X166163420Y-123467093D01*
X166228186Y-123421742D01*
X166228187Y-123421740D01*
X165699276Y-122892829D01*
X165665791Y-122831506D01*
X165670775Y-122761814D01*
X165712647Y-122705881D01*
X165727933Y-122696097D01*
X165767251Y-122674820D01*
X165853371Y-122581269D01*
X165854083Y-122579643D01*
X165855652Y-122577777D01*
X165858992Y-122572666D01*
X165859609Y-122573069D01*
X165899036Y-122526158D01*
X165965770Y-122505464D01*
X166033099Y-122524135D01*
X166055322Y-122541769D01*
X166581740Y-123068187D01*
X166581742Y-123068186D01*
X166627093Y-123003420D01*
X166627100Y-123003408D01*
X166627873Y-123001750D01*
X170618013Y-123001750D01*
X170637975Y-123191678D01*
X170637976Y-123191681D01*
X170696987Y-123373299D01*
X170696990Y-123373306D01*
X170792477Y-123538694D01*
X170920264Y-123680616D01*
X171074765Y-123792868D01*
X171249229Y-123870544D01*
X171436030Y-123910250D01*
X171627004Y-123910250D01*
X171813805Y-123870544D01*
X171988269Y-123792868D01*
X172142770Y-123680616D01*
X172270557Y-123538694D01*
X172366044Y-123373306D01*
X172425059Y-123191678D01*
X172445021Y-123001750D01*
X175618013Y-123001750D01*
X175637975Y-123191678D01*
X175637976Y-123191681D01*
X175696987Y-123373299D01*
X175696990Y-123373306D01*
X175792477Y-123538694D01*
X175920264Y-123680616D01*
X176074765Y-123792868D01*
X176249229Y-123870544D01*
X176436030Y-123910250D01*
X176627004Y-123910250D01*
X176813805Y-123870544D01*
X176988269Y-123792868D01*
X177142770Y-123680616D01*
X177270557Y-123538694D01*
X177366044Y-123373306D01*
X177425059Y-123191678D01*
X177445021Y-123001750D01*
X177425059Y-122811822D01*
X177366044Y-122630194D01*
X177270557Y-122464806D01*
X177142770Y-122322884D01*
X176988269Y-122210632D01*
X176813805Y-122132956D01*
X176813803Y-122132955D01*
X176627004Y-122093250D01*
X176436030Y-122093250D01*
X176249231Y-122132955D01*
X176172014Y-122167334D01*
X176102621Y-122198230D01*
X176074763Y-122210633D01*
X175920262Y-122322885D01*
X175792476Y-122464807D01*
X175696990Y-122630193D01*
X175696987Y-122630200D01*
X175640749Y-122803284D01*
X175637975Y-122811822D01*
X175618013Y-123001750D01*
X172445021Y-123001750D01*
X172425059Y-122811822D01*
X172366044Y-122630194D01*
X172270557Y-122464806D01*
X172142770Y-122322884D01*
X171988269Y-122210632D01*
X171813805Y-122132956D01*
X171813803Y-122132955D01*
X171627004Y-122093250D01*
X171436030Y-122093250D01*
X171249231Y-122132955D01*
X171172014Y-122167334D01*
X171102621Y-122198230D01*
X171074763Y-122210633D01*
X170920262Y-122322885D01*
X170792476Y-122464807D01*
X170696990Y-122630193D01*
X170696987Y-122630200D01*
X170640749Y-122803284D01*
X170637975Y-122811822D01*
X170618013Y-123001750D01*
X166627873Y-123001750D01*
X166720419Y-122803284D01*
X166720424Y-122803270D01*
X166777573Y-122589986D01*
X166777575Y-122589976D01*
X166796821Y-122370000D01*
X166796821Y-122369999D01*
X166777575Y-122150023D01*
X166777573Y-122150013D01*
X166720424Y-121936729D01*
X166720420Y-121936720D01*
X166627098Y-121736590D01*
X166581740Y-121671811D01*
X166052949Y-122200602D01*
X165991626Y-122234087D01*
X165921934Y-122229103D01*
X165866001Y-122187231D01*
X165861460Y-122180743D01*
X165814189Y-122108391D01*
X165814187Y-122108388D01*
X165814187Y-122108387D01*
X165713843Y-122030287D01*
X165713840Y-122030285D01*
X165713488Y-122030012D01*
X165672675Y-121973301D01*
X165669000Y-121903529D01*
X165701969Y-121844477D01*
X166228187Y-121318258D01*
X166163409Y-121272900D01*
X166163407Y-121272899D01*
X165963284Y-121179580D01*
X165963270Y-121179575D01*
X165749986Y-121122426D01*
X165749976Y-121122424D01*
X165530001Y-121103179D01*
X165529999Y-121103179D01*
X165310023Y-121122424D01*
X165310013Y-121122426D01*
X165096729Y-121179575D01*
X165096720Y-121179579D01*
X164896586Y-121272903D01*
X164831812Y-121318257D01*
X164831811Y-121318258D01*
X165360723Y-121847170D01*
X165394208Y-121908493D01*
X165389224Y-121978185D01*
X165347352Y-122034118D01*
X165332059Y-122043906D01*
X165292749Y-122065179D01*
X165292748Y-122065179D01*
X165206626Y-122158733D01*
X165206626Y-122158734D01*
X165205911Y-122160365D01*
X165204340Y-122162233D01*
X165201008Y-122167334D01*
X165200391Y-122166931D01*
X165160952Y-122213849D01*
X165094215Y-122234535D01*
X165026888Y-122215857D01*
X165004677Y-122198230D01*
X164478258Y-121671811D01*
X164478257Y-121671812D01*
X164432903Y-121736586D01*
X164339579Y-121936720D01*
X164339575Y-121936729D01*
X164282426Y-122150013D01*
X164282424Y-122150023D01*
X164263179Y-122369999D01*
X164263179Y-122370000D01*
X162185193Y-122370000D01*
X162142770Y-122322884D01*
X161988269Y-122210632D01*
X161813805Y-122132956D01*
X161813803Y-122132955D01*
X161627004Y-122093250D01*
X161436030Y-122093250D01*
X161249231Y-122132955D01*
X161172014Y-122167334D01*
X161102621Y-122198230D01*
X161074763Y-122210633D01*
X160920262Y-122322885D01*
X160792476Y-122464807D01*
X160696990Y-122630193D01*
X160696987Y-122630200D01*
X160640749Y-122803284D01*
X160637975Y-122811822D01*
X160618013Y-123001750D01*
X157445021Y-123001750D01*
X157425059Y-122811822D01*
X157366044Y-122630194D01*
X157270557Y-122464806D01*
X157142770Y-122322884D01*
X156988269Y-122210632D01*
X156813805Y-122132956D01*
X156813803Y-122132955D01*
X156627004Y-122093250D01*
X156436030Y-122093250D01*
X156249231Y-122132955D01*
X156172014Y-122167334D01*
X156102621Y-122198230D01*
X156074763Y-122210633D01*
X155920262Y-122322885D01*
X155792476Y-122464807D01*
X155696990Y-122630193D01*
X155696987Y-122630200D01*
X155640749Y-122803284D01*
X155637975Y-122811822D01*
X155618013Y-123001750D01*
X152445021Y-123001750D01*
X152425059Y-122811822D01*
X152366044Y-122630194D01*
X152270557Y-122464806D01*
X152142770Y-122322884D01*
X151988269Y-122210632D01*
X151813805Y-122132956D01*
X151813803Y-122132955D01*
X151627004Y-122093250D01*
X151436030Y-122093250D01*
X151249231Y-122132955D01*
X151172014Y-122167334D01*
X151102621Y-122198230D01*
X151074763Y-122210633D01*
X150920262Y-122322885D01*
X150792476Y-122464807D01*
X150696990Y-122630193D01*
X150696987Y-122630200D01*
X150640749Y-122803284D01*
X150637975Y-122811822D01*
X150618013Y-123001750D01*
X147445021Y-123001750D01*
X147425059Y-122811822D01*
X147366044Y-122630194D01*
X147270557Y-122464806D01*
X147142770Y-122322884D01*
X146988269Y-122210632D01*
X146813805Y-122132956D01*
X146813803Y-122132955D01*
X146627003Y-122093249D01*
X146621032Y-122092622D01*
X146556419Y-122066034D01*
X146516437Y-122008735D01*
X146510000Y-121969302D01*
X146510000Y-120290000D01*
X147947501Y-120290000D01*
X147947501Y-121514986D01*
X147957994Y-121617697D01*
X148013141Y-121784119D01*
X148013143Y-121784124D01*
X148105184Y-121933345D01*
X148229154Y-122057315D01*
X148378375Y-122149356D01*
X148378380Y-122149358D01*
X148544802Y-122204505D01*
X148544809Y-122204506D01*
X148647519Y-122214999D01*
X148809999Y-122214999D01*
X148810000Y-122214998D01*
X148810000Y-120290000D01*
X149310000Y-120290000D01*
X149310000Y-122214999D01*
X149472472Y-122214999D01*
X149472486Y-122214998D01*
X149575197Y-122204505D01*
X149741619Y-122149358D01*
X149741624Y-122149356D01*
X149890845Y-122057315D01*
X150014815Y-121933345D01*
X150106856Y-121784124D01*
X150106858Y-121784119D01*
X150162005Y-121617697D01*
X150162006Y-121617690D01*
X150172499Y-121514986D01*
X150172500Y-121514973D01*
X150172500Y-120290000D01*
X149310000Y-120290000D01*
X148810000Y-120290000D01*
X147947501Y-120290000D01*
X146510000Y-120290000D01*
X146510000Y-119790000D01*
X147947500Y-119790000D01*
X148810000Y-119790000D01*
X148810000Y-117865000D01*
X149310000Y-117865000D01*
X149310000Y-119790000D01*
X150172499Y-119790000D01*
X150172499Y-118565028D01*
X150172498Y-118565013D01*
X150162005Y-118462302D01*
X150106858Y-118295880D01*
X150106856Y-118295875D01*
X150014815Y-118146654D01*
X149890845Y-118022684D01*
X149856906Y-118001750D01*
X150618013Y-118001750D01*
X150637975Y-118191678D01*
X150637976Y-118191681D01*
X150696987Y-118373299D01*
X150696990Y-118373306D01*
X150792477Y-118538694D01*
X150920264Y-118680616D01*
X151074765Y-118792868D01*
X151249229Y-118870544D01*
X151436030Y-118910250D01*
X151627004Y-118910250D01*
X151813805Y-118870544D01*
X151988269Y-118792868D01*
X152142770Y-118680616D01*
X152270557Y-118538694D01*
X152366044Y-118373306D01*
X152425059Y-118191678D01*
X152445021Y-118001750D01*
X155618013Y-118001750D01*
X155637975Y-118191678D01*
X155637976Y-118191681D01*
X155696987Y-118373299D01*
X155696990Y-118373306D01*
X155792477Y-118538694D01*
X155920264Y-118680616D01*
X156074765Y-118792868D01*
X156249229Y-118870544D01*
X156436030Y-118910250D01*
X156627004Y-118910250D01*
X156813805Y-118870544D01*
X156988269Y-118792868D01*
X157142770Y-118680616D01*
X157270557Y-118538694D01*
X157366044Y-118373306D01*
X157425059Y-118191678D01*
X157445021Y-118001750D01*
X160618013Y-118001750D01*
X160637975Y-118191678D01*
X160637976Y-118191681D01*
X160696987Y-118373299D01*
X160696990Y-118373306D01*
X160792477Y-118538694D01*
X160920264Y-118680616D01*
X161074765Y-118792868D01*
X161249229Y-118870544D01*
X161436030Y-118910250D01*
X161627004Y-118910250D01*
X161813805Y-118870544D01*
X161988269Y-118792868D01*
X162142770Y-118680616D01*
X162270557Y-118538694D01*
X162366044Y-118373306D01*
X162425059Y-118191678D01*
X162445021Y-118001750D01*
X165618013Y-118001750D01*
X165637975Y-118191678D01*
X165637976Y-118191681D01*
X165696987Y-118373299D01*
X165696990Y-118373306D01*
X165792477Y-118538694D01*
X165920264Y-118680616D01*
X166074765Y-118792868D01*
X166249229Y-118870544D01*
X166436030Y-118910250D01*
X166627004Y-118910250D01*
X166813805Y-118870544D01*
X166988269Y-118792868D01*
X167142770Y-118680616D01*
X167270557Y-118538694D01*
X167366044Y-118373306D01*
X167425059Y-118191678D01*
X167445021Y-118001750D01*
X170618013Y-118001750D01*
X170637975Y-118191678D01*
X170637976Y-118191681D01*
X170696987Y-118373299D01*
X170696990Y-118373306D01*
X170792477Y-118538694D01*
X170920264Y-118680616D01*
X171074765Y-118792868D01*
X171249229Y-118870544D01*
X171436030Y-118910250D01*
X171627004Y-118910250D01*
X171813805Y-118870544D01*
X171988269Y-118792868D01*
X172142770Y-118680616D01*
X172270557Y-118538694D01*
X172366044Y-118373306D01*
X172425059Y-118191678D01*
X172445021Y-118001750D01*
X175618013Y-118001750D01*
X175637975Y-118191678D01*
X175637976Y-118191681D01*
X175696987Y-118373299D01*
X175696990Y-118373306D01*
X175792477Y-118538694D01*
X175920264Y-118680616D01*
X176074765Y-118792868D01*
X176249229Y-118870544D01*
X176436030Y-118910250D01*
X176627004Y-118910250D01*
X176813805Y-118870544D01*
X176988269Y-118792868D01*
X177142770Y-118680616D01*
X177270557Y-118538694D01*
X177366044Y-118373306D01*
X177425059Y-118191678D01*
X177445021Y-118001750D01*
X177425059Y-117811822D01*
X177366044Y-117630194D01*
X177270557Y-117464806D01*
X177142770Y-117322884D01*
X176988269Y-117210632D01*
X176813805Y-117132956D01*
X176813803Y-117132955D01*
X176627004Y-117093250D01*
X176436030Y-117093250D01*
X176249231Y-117132955D01*
X176074763Y-117210633D01*
X175920262Y-117322885D01*
X175792476Y-117464807D01*
X175696990Y-117630193D01*
X175696987Y-117630200D01*
X175637976Y-117811818D01*
X175637975Y-117811822D01*
X175618013Y-118001750D01*
X172445021Y-118001750D01*
X172425059Y-117811822D01*
X172366044Y-117630194D01*
X172270557Y-117464806D01*
X172142770Y-117322884D01*
X171988269Y-117210632D01*
X171813805Y-117132956D01*
X171813803Y-117132955D01*
X171627004Y-117093250D01*
X171436030Y-117093250D01*
X171249231Y-117132955D01*
X171074763Y-117210633D01*
X170920262Y-117322885D01*
X170792476Y-117464807D01*
X170696990Y-117630193D01*
X170696987Y-117630200D01*
X170637976Y-117811818D01*
X170637975Y-117811822D01*
X170618013Y-118001750D01*
X167445021Y-118001750D01*
X167425059Y-117811822D01*
X167366044Y-117630194D01*
X167270557Y-117464806D01*
X167142770Y-117322884D01*
X166988269Y-117210632D01*
X166813805Y-117132956D01*
X166813803Y-117132955D01*
X166627004Y-117093250D01*
X166436030Y-117093250D01*
X166249231Y-117132955D01*
X166074763Y-117210633D01*
X165920262Y-117322885D01*
X165792476Y-117464807D01*
X165696990Y-117630193D01*
X165696987Y-117630200D01*
X165637976Y-117811818D01*
X165637975Y-117811822D01*
X165618013Y-118001750D01*
X162445021Y-118001750D01*
X162425059Y-117811822D01*
X162366044Y-117630194D01*
X162270557Y-117464806D01*
X162142770Y-117322884D01*
X161988269Y-117210632D01*
X161813805Y-117132956D01*
X161813803Y-117132955D01*
X161627004Y-117093250D01*
X161436030Y-117093250D01*
X161249231Y-117132955D01*
X161074763Y-117210633D01*
X160920262Y-117322885D01*
X160792476Y-117464807D01*
X160696990Y-117630193D01*
X160696987Y-117630200D01*
X160637976Y-117811818D01*
X160637975Y-117811822D01*
X160618013Y-118001750D01*
X157445021Y-118001750D01*
X157425059Y-117811822D01*
X157366044Y-117630194D01*
X157270557Y-117464806D01*
X157142770Y-117322884D01*
X156988269Y-117210632D01*
X156813805Y-117132956D01*
X156813803Y-117132955D01*
X156627004Y-117093250D01*
X156436030Y-117093250D01*
X156249231Y-117132955D01*
X156074763Y-117210633D01*
X155920262Y-117322885D01*
X155792476Y-117464807D01*
X155696990Y-117630193D01*
X155696987Y-117630200D01*
X155637976Y-117811818D01*
X155637975Y-117811822D01*
X155618013Y-118001750D01*
X152445021Y-118001750D01*
X152425059Y-117811822D01*
X152366044Y-117630194D01*
X152270557Y-117464806D01*
X152142770Y-117322884D01*
X151988269Y-117210632D01*
X151813805Y-117132956D01*
X151813803Y-117132955D01*
X151627004Y-117093250D01*
X151436030Y-117093250D01*
X151249231Y-117132955D01*
X151074763Y-117210633D01*
X150920262Y-117322885D01*
X150792476Y-117464807D01*
X150696990Y-117630193D01*
X150696987Y-117630200D01*
X150637976Y-117811818D01*
X150637975Y-117811822D01*
X150618013Y-118001750D01*
X149856906Y-118001750D01*
X149741624Y-117930643D01*
X149741619Y-117930641D01*
X149575197Y-117875494D01*
X149575190Y-117875493D01*
X149472486Y-117865000D01*
X149310000Y-117865000D01*
X148810000Y-117865000D01*
X148647529Y-117865000D01*
X148647512Y-117865001D01*
X148544802Y-117875494D01*
X148378380Y-117930641D01*
X148378375Y-117930643D01*
X148229154Y-118022684D01*
X148105184Y-118146654D01*
X148013143Y-118295875D01*
X148013141Y-118295880D01*
X147957994Y-118462302D01*
X147957993Y-118462309D01*
X147947500Y-118565013D01*
X147947500Y-119790000D01*
X146510000Y-119790000D01*
X146510000Y-119034197D01*
X146529685Y-118967158D01*
X146582489Y-118921403D01*
X146621042Y-118910876D01*
X146626998Y-118910250D01*
X146627004Y-118910250D01*
X146813805Y-118870544D01*
X146988269Y-118792868D01*
X147142770Y-118680616D01*
X147270557Y-118538694D01*
X147366044Y-118373306D01*
X147425059Y-118191678D01*
X147445021Y-118001750D01*
X147425059Y-117811822D01*
X147366044Y-117630194D01*
X147270557Y-117464806D01*
X147142770Y-117322884D01*
X146988269Y-117210632D01*
X146813805Y-117132956D01*
X146813803Y-117132955D01*
X146627003Y-117093249D01*
X146621032Y-117092622D01*
X146556419Y-117066034D01*
X146516437Y-117008735D01*
X146510000Y-116969302D01*
X146510000Y-116510000D01*
X140624000Y-116510000D01*
X140556961Y-116490315D01*
X140511206Y-116437511D01*
X140500000Y-116386000D01*
X140500000Y-114984743D01*
X140519685Y-114917704D01*
X140572489Y-114871949D01*
X140638784Y-114861627D01*
X140708512Y-114870000D01*
X141470000Y-114870000D01*
X141470000Y-114320000D01*
X141970000Y-114320000D01*
X141970000Y-114870000D01*
X142731488Y-114870000D01*
X142816663Y-114859772D01*
X142952201Y-114806323D01*
X143068289Y-114718289D01*
X143156323Y-114602201D01*
X143209772Y-114466663D01*
X143220000Y-114381487D01*
X143220000Y-114320000D01*
X141970000Y-114320000D01*
X141470000Y-114320000D01*
X141470000Y-113944000D01*
X141489685Y-113876961D01*
X141542489Y-113831206D01*
X141594000Y-113820000D01*
X143220000Y-113820000D01*
X143220000Y-113758512D01*
X143208824Y-113665441D01*
X143210386Y-113665253D01*
X143212692Y-113604574D01*
X143252670Y-113547272D01*
X143317282Y-113520681D01*
X143330257Y-113520000D01*
X145720437Y-113520000D01*
X145787476Y-113539685D01*
X145812585Y-113561026D01*
X145920264Y-113680616D01*
X146074765Y-113792868D01*
X146249229Y-113870544D01*
X146436030Y-113910250D01*
X146627004Y-113910250D01*
X146813805Y-113870544D01*
X146988269Y-113792868D01*
X147142770Y-113680616D01*
X147250447Y-113561027D01*
X147309933Y-113524379D01*
X147342597Y-113520000D01*
X148186000Y-113520000D01*
X148253039Y-113539685D01*
X148298794Y-113592489D01*
X148310000Y-113643999D01*
X148310000Y-115870000D01*
X165540000Y-115870000D01*
X165540000Y-113564165D01*
X165559685Y-113497126D01*
X165612489Y-113451371D01*
X165681647Y-113441427D01*
X165745203Y-113470452D01*
X165771388Y-113502166D01*
X165792477Y-113538694D01*
X165855330Y-113608500D01*
X165920264Y-113680616D01*
X166074765Y-113792868D01*
X166249229Y-113870544D01*
X166436030Y-113910250D01*
X166627004Y-113910250D01*
X166813805Y-113870544D01*
X166988269Y-113792868D01*
X167142770Y-113680616D01*
X167270557Y-113538694D01*
X167366044Y-113373306D01*
X167425059Y-113191678D01*
X167445021Y-113001750D01*
X170618013Y-113001750D01*
X170637975Y-113191678D01*
X170637976Y-113191681D01*
X170696987Y-113373299D01*
X170696990Y-113373306D01*
X170792477Y-113538694D01*
X170920264Y-113680616D01*
X171074765Y-113792868D01*
X171249229Y-113870544D01*
X171436030Y-113910250D01*
X171627004Y-113910250D01*
X171813805Y-113870544D01*
X171988269Y-113792868D01*
X172142770Y-113680616D01*
X172270557Y-113538694D01*
X172366044Y-113373306D01*
X172425059Y-113191678D01*
X172445021Y-113001750D01*
X175618013Y-113001750D01*
X175637975Y-113191678D01*
X175637976Y-113191681D01*
X175696987Y-113373299D01*
X175696990Y-113373306D01*
X175792477Y-113538694D01*
X175920264Y-113680616D01*
X176074765Y-113792868D01*
X176249229Y-113870544D01*
X176436030Y-113910250D01*
X176627004Y-113910250D01*
X176813805Y-113870544D01*
X176988269Y-113792868D01*
X177142770Y-113680616D01*
X177270557Y-113538694D01*
X177366044Y-113373306D01*
X177425059Y-113191678D01*
X177445021Y-113001750D01*
X177425059Y-112811822D01*
X177366044Y-112630194D01*
X177270557Y-112464806D01*
X177142770Y-112322884D01*
X176988269Y-112210632D01*
X176813805Y-112132956D01*
X176813803Y-112132955D01*
X176627004Y-112093250D01*
X176436030Y-112093250D01*
X176249231Y-112132955D01*
X176074763Y-112210633D01*
X175920262Y-112322885D01*
X175792476Y-112464807D01*
X175696990Y-112630193D01*
X175696987Y-112630200D01*
X175637976Y-112811818D01*
X175637975Y-112811822D01*
X175618013Y-113001750D01*
X172445021Y-113001750D01*
X172425059Y-112811822D01*
X172366044Y-112630194D01*
X172270557Y-112464806D01*
X172142770Y-112322884D01*
X171988269Y-112210632D01*
X171813805Y-112132956D01*
X171813803Y-112132955D01*
X171627004Y-112093250D01*
X171436030Y-112093250D01*
X171249231Y-112132955D01*
X171074763Y-112210633D01*
X170920262Y-112322885D01*
X170792476Y-112464807D01*
X170696990Y-112630193D01*
X170696987Y-112630200D01*
X170637976Y-112811818D01*
X170637975Y-112811822D01*
X170618013Y-113001750D01*
X167445021Y-113001750D01*
X167425059Y-112811822D01*
X167366044Y-112630194D01*
X167270557Y-112464806D01*
X167142770Y-112322884D01*
X166988269Y-112210632D01*
X166813805Y-112132956D01*
X166813803Y-112132955D01*
X166627004Y-112093250D01*
X166436030Y-112093250D01*
X166249231Y-112132955D01*
X166074763Y-112210633D01*
X165920262Y-112322885D01*
X165792475Y-112464807D01*
X165771387Y-112501334D01*
X165720820Y-112549550D01*
X165652213Y-112562772D01*
X165587348Y-112536804D01*
X165546820Y-112479890D01*
X165540000Y-112439334D01*
X165540000Y-111304000D01*
X165559685Y-111236961D01*
X165612489Y-111191206D01*
X165664000Y-111180000D01*
X178606000Y-111180000D01*
X178673039Y-111199685D01*
G37*
%TD.AperFunction*%
%TD*%
%TA.AperFunction,Conductor*%
%TO.N,Net-(D1-K)*%
G36*
X178673039Y-87550185D02*
G01*
X178718794Y-87602989D01*
X178730000Y-87654500D01*
X178730000Y-98876000D01*
X178710315Y-98943039D01*
X178657511Y-98988794D01*
X178606000Y-99000000D01*
X172084809Y-99000000D01*
X172017770Y-98980315D01*
X171972015Y-98927511D01*
X171962071Y-98858353D01*
X171991096Y-98794797D01*
X172011923Y-98775682D01*
X172142770Y-98680616D01*
X172270557Y-98538694D01*
X172366044Y-98373306D01*
X172425059Y-98191678D01*
X172445021Y-98001750D01*
X172425059Y-97811822D01*
X172366044Y-97630194D01*
X172270557Y-97464806D01*
X172142770Y-97322884D01*
X171988269Y-97210632D01*
X171813805Y-97132956D01*
X171813803Y-97132955D01*
X171627004Y-97093250D01*
X171436030Y-97093250D01*
X171249231Y-97132955D01*
X171074763Y-97210633D01*
X170920262Y-97322885D01*
X170792476Y-97464807D01*
X170696990Y-97630193D01*
X170696987Y-97630200D01*
X170662795Y-97735433D01*
X170637975Y-97811822D01*
X170618013Y-98001750D01*
X170637975Y-98191678D01*
X170637976Y-98191681D01*
X170696987Y-98373299D01*
X170696990Y-98373306D01*
X170792477Y-98538694D01*
X170920264Y-98680616D01*
X171051111Y-98775682D01*
X171093776Y-98831012D01*
X171099755Y-98900626D01*
X171067149Y-98962421D01*
X171006310Y-98996778D01*
X170978225Y-99000000D01*
X168334000Y-99000000D01*
X168266961Y-98980315D01*
X168221206Y-98927511D01*
X168210000Y-98876000D01*
X168210000Y-96630000D01*
X173256681Y-96630000D01*
X173275927Y-96874554D01*
X173333193Y-97113087D01*
X173427071Y-97339730D01*
X173508001Y-97471796D01*
X173555248Y-97548896D01*
X173714567Y-97735433D01*
X173901104Y-97894752D01*
X173901106Y-97894753D01*
X174110269Y-98022928D01*
X174217108Y-98067181D01*
X174336908Y-98116805D01*
X174575443Y-98174072D01*
X174820000Y-98193319D01*
X175064557Y-98174072D01*
X175303092Y-98116805D01*
X175529732Y-98022927D01*
X175738896Y-97894752D01*
X175925433Y-97735433D01*
X176084752Y-97548896D01*
X176212927Y-97339732D01*
X176306805Y-97113092D01*
X176364072Y-96874557D01*
X176383319Y-96630000D01*
X176364072Y-96385443D01*
X176306805Y-96146908D01*
X176257182Y-96027108D01*
X176212928Y-95920269D01*
X176098720Y-95733897D01*
X176080476Y-95666452D01*
X176101593Y-95599849D01*
X176130137Y-95569841D01*
X176227191Y-95497186D01*
X176313350Y-95382093D01*
X176313354Y-95382086D01*
X176363596Y-95247379D01*
X176363598Y-95247372D01*
X176369999Y-95187844D01*
X176370000Y-95187827D01*
X176370000Y-94340000D01*
X175486956Y-94340000D01*
X175419917Y-94320315D01*
X175374162Y-94267511D01*
X175363245Y-94207537D01*
X175364392Y-94190772D01*
X175373877Y-94052114D01*
X175360809Y-93989227D01*
X175366443Y-93919586D01*
X175408834Y-93864045D01*
X175474523Y-93840239D01*
X175482216Y-93840000D01*
X176370000Y-93840000D01*
X176370000Y-92992172D01*
X176369999Y-92992155D01*
X176363598Y-92932627D01*
X176363596Y-92932620D01*
X176313354Y-92797913D01*
X176313350Y-92797906D01*
X176227190Y-92682812D01*
X176227187Y-92682809D01*
X176112093Y-92596649D01*
X176112086Y-92596645D01*
X175977379Y-92546403D01*
X175977372Y-92546401D01*
X175917844Y-92540000D01*
X175070000Y-92540000D01*
X175070000Y-93425347D01*
X175050315Y-93492386D01*
X174997511Y-93538141D01*
X174928353Y-93548085D01*
X174912547Y-93544749D01*
X174895598Y-93540000D01*
X174895596Y-93540000D01*
X174782378Y-93540000D01*
X174782376Y-93540000D01*
X174710884Y-93549826D01*
X174641789Y-93539453D01*
X174589270Y-93493371D01*
X174570000Y-93426981D01*
X174570000Y-92540000D01*
X173722155Y-92540000D01*
X173662627Y-92546401D01*
X173662620Y-92546403D01*
X173527913Y-92596645D01*
X173527906Y-92596649D01*
X173412812Y-92682809D01*
X173412809Y-92682812D01*
X173326649Y-92797906D01*
X173326645Y-92797913D01*
X173276403Y-92932620D01*
X173276401Y-92932627D01*
X173270000Y-92992155D01*
X173270000Y-93840000D01*
X174153044Y-93840000D01*
X174220083Y-93859685D01*
X174265838Y-93912489D01*
X174276755Y-93972463D01*
X174276441Y-93977045D01*
X174276441Y-93977047D01*
X174266123Y-94127886D01*
X174276448Y-94177570D01*
X174279191Y-94190772D01*
X174273557Y-94260414D01*
X174231166Y-94315955D01*
X174165477Y-94339761D01*
X174157784Y-94340000D01*
X173270000Y-94340000D01*
X173270000Y-95187844D01*
X173276401Y-95247372D01*
X173276403Y-95247379D01*
X173326645Y-95382086D01*
X173326649Y-95382093D01*
X173412809Y-95497186D01*
X173509862Y-95569841D01*
X173551733Y-95625775D01*
X173556717Y-95695467D01*
X173541279Y-95733897D01*
X173427072Y-95920269D01*
X173333193Y-96146912D01*
X173275927Y-96385445D01*
X173256681Y-96630000D01*
X168210000Y-96630000D01*
X168210000Y-93001750D01*
X170618013Y-93001750D01*
X170637975Y-93191678D01*
X170637976Y-93191681D01*
X170696987Y-93373299D01*
X170696990Y-93373306D01*
X170792477Y-93538694D01*
X170920264Y-93680616D01*
X171074765Y-93792868D01*
X171249229Y-93870544D01*
X171436030Y-93910250D01*
X171627004Y-93910250D01*
X171813805Y-93870544D01*
X171988269Y-93792868D01*
X172142770Y-93680616D01*
X172270557Y-93538694D01*
X172366044Y-93373306D01*
X172425059Y-93191678D01*
X172445021Y-93001750D01*
X172425059Y-92811822D01*
X172366044Y-92630194D01*
X172270557Y-92464806D01*
X172142770Y-92322884D01*
X171988269Y-92210632D01*
X171813805Y-92132956D01*
X171813803Y-92132955D01*
X171627004Y-92093250D01*
X171436030Y-92093250D01*
X171249231Y-92132955D01*
X171074763Y-92210633D01*
X170920262Y-92322885D01*
X170792476Y-92464807D01*
X170696990Y-92630193D01*
X170696987Y-92630200D01*
X170642494Y-92797913D01*
X170637975Y-92811822D01*
X170618013Y-93001750D01*
X168210000Y-93001750D01*
X168210000Y-91400000D01*
X157740000Y-91400000D01*
X157739999Y-91400000D01*
X157730000Y-91409999D01*
X157730000Y-103646000D01*
X157710315Y-103713039D01*
X157657511Y-103758794D01*
X157606000Y-103770000D01*
X157340797Y-103770000D01*
X157273758Y-103750315D01*
X157228003Y-103697511D01*
X157218059Y-103628353D01*
X157247084Y-103564797D01*
X157248646Y-103563029D01*
X157251845Y-103559475D01*
X157270557Y-103538694D01*
X157366044Y-103373306D01*
X157425059Y-103191678D01*
X157445021Y-103001750D01*
X157425059Y-102811822D01*
X157366044Y-102630194D01*
X157270557Y-102464806D01*
X157142770Y-102322884D01*
X156988269Y-102210632D01*
X156813805Y-102132956D01*
X156813803Y-102132955D01*
X156627004Y-102093250D01*
X156436030Y-102093250D01*
X156249231Y-102132955D01*
X156074763Y-102210633D01*
X155920262Y-102322885D01*
X155792476Y-102464807D01*
X155696990Y-102630193D01*
X155696987Y-102630200D01*
X155637976Y-102811818D01*
X155637975Y-102811822D01*
X155618013Y-103001750D01*
X155637975Y-103191678D01*
X155637976Y-103191681D01*
X155696987Y-103373299D01*
X155696990Y-103373306D01*
X155792477Y-103538694D01*
X155808302Y-103556269D01*
X155814388Y-103563029D01*
X155844617Y-103626020D01*
X155835991Y-103695356D01*
X155791249Y-103749021D01*
X155724597Y-103769978D01*
X155722237Y-103770000D01*
X152340797Y-103770000D01*
X152273758Y-103750315D01*
X152228003Y-103697511D01*
X152218059Y-103628353D01*
X152247084Y-103564797D01*
X152248646Y-103563029D01*
X152251845Y-103559475D01*
X152270557Y-103538694D01*
X152366044Y-103373306D01*
X152425059Y-103191678D01*
X152445021Y-103001750D01*
X152425059Y-102811822D01*
X152366044Y-102630194D01*
X152270557Y-102464806D01*
X152142770Y-102322884D01*
X151988269Y-102210632D01*
X151813805Y-102132956D01*
X151813803Y-102132955D01*
X151627004Y-102093250D01*
X151436030Y-102093250D01*
X151249231Y-102132955D01*
X151074763Y-102210633D01*
X150920262Y-102322885D01*
X150792476Y-102464807D01*
X150696990Y-102630193D01*
X150696987Y-102630200D01*
X150637976Y-102811818D01*
X150637975Y-102811822D01*
X150618013Y-103001750D01*
X150637975Y-103191678D01*
X150637976Y-103191681D01*
X150696987Y-103373299D01*
X150696990Y-103373306D01*
X150792477Y-103538694D01*
X150808302Y-103556269D01*
X150814388Y-103563029D01*
X150844617Y-103626020D01*
X150835991Y-103695356D01*
X150791249Y-103749021D01*
X150724597Y-103769978D01*
X150722237Y-103770000D01*
X149710000Y-103770000D01*
X149710000Y-103996000D01*
X149690315Y-104063039D01*
X149637511Y-104108794D01*
X149586000Y-104120000D01*
X148369169Y-104120000D01*
X148302130Y-104100315D01*
X148256375Y-104047511D01*
X148246431Y-103978353D01*
X148275456Y-103914797D01*
X148315763Y-103884921D01*
X148315701Y-103884814D01*
X148316641Y-103884271D01*
X148318734Y-103882720D01*
X148321328Y-103881565D01*
X148321328Y-103881564D01*
X148321331Y-103881564D01*
X148380347Y-103847489D01*
X148383117Y-103845985D01*
X148443839Y-103815047D01*
X148454391Y-103806501D01*
X148470412Y-103795490D01*
X148482169Y-103788704D01*
X148482172Y-103788700D01*
X148482174Y-103788700D01*
X148502698Y-103770219D01*
X148532812Y-103743103D01*
X148535227Y-103741042D01*
X148551986Y-103727472D01*
X148567240Y-103712216D01*
X148569542Y-103710031D01*
X148620185Y-103664434D01*
X148628165Y-103653449D01*
X148640794Y-103638662D01*
X149025664Y-103253792D01*
X149040438Y-103241173D01*
X149181253Y-103138866D01*
X149309040Y-102996944D01*
X149404527Y-102831556D01*
X149463542Y-102649928D01*
X149483504Y-102460000D01*
X149463542Y-102270072D01*
X149404527Y-102088444D01*
X149309040Y-101923056D01*
X149181253Y-101781134D01*
X149026752Y-101668882D01*
X148852288Y-101591206D01*
X148852286Y-101591205D01*
X148665487Y-101551500D01*
X148474513Y-101551500D01*
X148287714Y-101591205D01*
X148113246Y-101668883D01*
X147958747Y-101781133D01*
X147864437Y-101885876D01*
X147804950Y-101922524D01*
X147735093Y-101921193D01*
X147733284Y-101920609D01*
X147586928Y-101872113D01*
X147483046Y-101861500D01*
X146856962Y-101861500D01*
X146856946Y-101861501D01*
X146753072Y-101872113D01*
X146584764Y-101927884D01*
X146584759Y-101927886D01*
X146433846Y-102020971D01*
X146345181Y-102109637D01*
X146283858Y-102143122D01*
X146214166Y-102138138D01*
X146169819Y-102109637D01*
X146081153Y-102020971D01*
X146081152Y-102020970D01*
X145942816Y-101935643D01*
X145930240Y-101927886D01*
X145930235Y-101927884D01*
X145761927Y-101872113D01*
X145658046Y-101861500D01*
X145031962Y-101861500D01*
X145031946Y-101861501D01*
X144928072Y-101872113D01*
X144759764Y-101927884D01*
X144759759Y-101927886D01*
X144608848Y-102020970D01*
X144596429Y-102033389D01*
X144535105Y-102066872D01*
X144465413Y-102061886D01*
X144421071Y-102033389D01*
X144415366Y-102027684D01*
X144408652Y-102020970D01*
X144270316Y-101935643D01*
X144257740Y-101927886D01*
X144257735Y-101927884D01*
X144089427Y-101872113D01*
X143985546Y-101861500D01*
X143359462Y-101861500D01*
X143359446Y-101861501D01*
X143255572Y-101872113D01*
X143087264Y-101927884D01*
X143087259Y-101927886D01*
X142936349Y-102020969D01*
X142841670Y-102115648D01*
X142780346Y-102149132D01*
X142710655Y-102144148D01*
X142666308Y-102115647D01*
X142578345Y-102027684D01*
X142429124Y-101935643D01*
X142429119Y-101935641D01*
X142262697Y-101880494D01*
X142262690Y-101880493D01*
X142159986Y-101870000D01*
X142097500Y-101870000D01*
X142097500Y-103196000D01*
X142077815Y-103263039D01*
X142025011Y-103308794D01*
X141973500Y-103320000D01*
X140835001Y-103320000D01*
X140835001Y-103569986D01*
X140845494Y-103672697D01*
X140900641Y-103839119D01*
X140900646Y-103839130D01*
X140957253Y-103930903D01*
X140975694Y-103998295D01*
X140954772Y-104064959D01*
X140901130Y-104109728D01*
X140851715Y-104120000D01*
X136819988Y-104120000D01*
X136752949Y-104100315D01*
X136707194Y-104047511D01*
X136697250Y-103978353D01*
X136726275Y-103914797D01*
X136785053Y-103877023D01*
X136794207Y-103874710D01*
X136800379Y-103873397D01*
X136813805Y-103870544D01*
X136988269Y-103792868D01*
X137142770Y-103680616D01*
X137270557Y-103538694D01*
X137366044Y-103373306D01*
X137425059Y-103191678D01*
X137445021Y-103001750D01*
X137425919Y-102820000D01*
X140835000Y-102820000D01*
X141597500Y-102820000D01*
X141597500Y-101870000D01*
X141597499Y-101869999D01*
X141535028Y-101870000D01*
X141535011Y-101870001D01*
X141432302Y-101880494D01*
X141265880Y-101935641D01*
X141265875Y-101935643D01*
X141116654Y-102027684D01*
X140992684Y-102151654D01*
X140900643Y-102300875D01*
X140900641Y-102300880D01*
X140845494Y-102467302D01*
X140845493Y-102467309D01*
X140835000Y-102570013D01*
X140835000Y-102820000D01*
X137425919Y-102820000D01*
X137425059Y-102811822D01*
X137366044Y-102630194D01*
X137270557Y-102464806D01*
X137142770Y-102322884D01*
X136988269Y-102210632D01*
X136813805Y-102132956D01*
X136813803Y-102132955D01*
X136627004Y-102093250D01*
X136436030Y-102093250D01*
X136249231Y-102132955D01*
X136074763Y-102210633D01*
X135920262Y-102322885D01*
X135792476Y-102464807D01*
X135696990Y-102630193D01*
X135696987Y-102630200D01*
X135637976Y-102811818D01*
X135637975Y-102811822D01*
X135618013Y-103001750D01*
X135637975Y-103191678D01*
X135637976Y-103191681D01*
X135696987Y-103373299D01*
X135696990Y-103373306D01*
X135792477Y-103538694D01*
X135889096Y-103646000D01*
X135914690Y-103674426D01*
X135920264Y-103680616D01*
X136074765Y-103792868D01*
X136249229Y-103870544D01*
X136260827Y-103873009D01*
X136268827Y-103874710D01*
X136330309Y-103907903D01*
X136364085Y-103969066D01*
X136359433Y-104038780D01*
X136317828Y-104094913D01*
X136252480Y-104119641D01*
X136243046Y-104120000D01*
X135454000Y-104120000D01*
X135386961Y-104100315D01*
X135341206Y-104047511D01*
X135330000Y-103996000D01*
X135330000Y-98001750D01*
X135618013Y-98001750D01*
X135637975Y-98191678D01*
X135637976Y-98191681D01*
X135696987Y-98373299D01*
X135696990Y-98373306D01*
X135792477Y-98538694D01*
X135920264Y-98680616D01*
X136074765Y-98792868D01*
X136249229Y-98870544D01*
X136436030Y-98910250D01*
X136627004Y-98910250D01*
X136813805Y-98870544D01*
X136988269Y-98792868D01*
X137142770Y-98680616D01*
X137270557Y-98538694D01*
X137366044Y-98373306D01*
X137425059Y-98191678D01*
X137445021Y-98001750D01*
X137425059Y-97811822D01*
X137390993Y-97706981D01*
X137388999Y-97637143D01*
X137425079Y-97577310D01*
X137487780Y-97546481D01*
X137557194Y-97554445D01*
X137596606Y-97580984D01*
X137602812Y-97587190D01*
X137717906Y-97673350D01*
X137717913Y-97673354D01*
X137852620Y-97723596D01*
X137852627Y-97723598D01*
X137912155Y-97729999D01*
X137912172Y-97730000D01*
X138910000Y-97730000D01*
X138910000Y-96743658D01*
X138929685Y-96676619D01*
X138982489Y-96630864D01*
X139050184Y-96620719D01*
X139120677Y-96630000D01*
X139120684Y-96630000D01*
X139199316Y-96630000D01*
X139199323Y-96630000D01*
X139269815Y-96620719D01*
X139338849Y-96631484D01*
X139391105Y-96677864D01*
X139410000Y-96743658D01*
X139410000Y-97730000D01*
X140407828Y-97730000D01*
X140407844Y-97729999D01*
X140467372Y-97723598D01*
X140474930Y-97721813D01*
X140475245Y-97723147D01*
X140536694Y-97718751D01*
X140598018Y-97752235D01*
X140631505Y-97813557D01*
X140633659Y-97852877D01*
X140618013Y-98001750D01*
X140637975Y-98191678D01*
X140637976Y-98191681D01*
X140696987Y-98373299D01*
X140696990Y-98373306D01*
X140792477Y-98538694D01*
X140920264Y-98680616D01*
X141074765Y-98792868D01*
X141249229Y-98870544D01*
X141436030Y-98910250D01*
X141627004Y-98910250D01*
X141813805Y-98870544D01*
X141988269Y-98792868D01*
X142142770Y-98680616D01*
X142270557Y-98538694D01*
X142366044Y-98373306D01*
X142425059Y-98191678D01*
X142445021Y-98001750D01*
X145618013Y-98001750D01*
X145637975Y-98191678D01*
X145637976Y-98191681D01*
X145696987Y-98373299D01*
X145696990Y-98373306D01*
X145792477Y-98538694D01*
X145920264Y-98680616D01*
X146074765Y-98792868D01*
X146249229Y-98870544D01*
X146436030Y-98910250D01*
X146627004Y-98910250D01*
X146813805Y-98870544D01*
X146988269Y-98792868D01*
X147142770Y-98680616D01*
X147270557Y-98538694D01*
X147366044Y-98373306D01*
X147425059Y-98191678D01*
X147445021Y-98001750D01*
X147425059Y-97811822D01*
X147366044Y-97630194D01*
X147270557Y-97464806D01*
X147142770Y-97322884D01*
X146988269Y-97210632D01*
X146813805Y-97132956D01*
X146813803Y-97132955D01*
X146627004Y-97093250D01*
X146436030Y-97093250D01*
X146249231Y-97132955D01*
X146074763Y-97210633D01*
X145920262Y-97322885D01*
X145792476Y-97464807D01*
X145696990Y-97630193D01*
X145696987Y-97630200D01*
X145662795Y-97735433D01*
X145637975Y-97811822D01*
X145618013Y-98001750D01*
X142445021Y-98001750D01*
X142425059Y-97811822D01*
X142366044Y-97630194D01*
X142270557Y-97464806D01*
X142142770Y-97322884D01*
X141988269Y-97210632D01*
X141813805Y-97132956D01*
X141813803Y-97132955D01*
X141627004Y-97093250D01*
X141436030Y-97093250D01*
X141249231Y-97132955D01*
X141074760Y-97210634D01*
X141056885Y-97223622D01*
X140991079Y-97247102D01*
X140923025Y-97231276D01*
X140874330Y-97181171D01*
X140860000Y-97123304D01*
X140860000Y-96617844D01*
X147720000Y-96617844D01*
X147726401Y-96677372D01*
X147726403Y-96677379D01*
X147776645Y-96812086D01*
X147776649Y-96812093D01*
X147862809Y-96927187D01*
X147862812Y-96927190D01*
X147977906Y-97013350D01*
X147977913Y-97013354D01*
X148112620Y-97063596D01*
X148112627Y-97063598D01*
X148172155Y-97069999D01*
X148172172Y-97070000D01*
X149570000Y-97070000D01*
X149570000Y-95885649D01*
X149589685Y-95818610D01*
X149642489Y-95772855D01*
X149707883Y-95762429D01*
X149745485Y-95766666D01*
X149775071Y-95770000D01*
X149775074Y-95770000D01*
X149864929Y-95770000D01*
X149894514Y-95766666D01*
X149932116Y-95762429D01*
X150000937Y-95774483D01*
X150052317Y-95821831D01*
X150070000Y-95885649D01*
X150070000Y-97070000D01*
X150886696Y-97070000D01*
X150953735Y-97089685D01*
X150999490Y-97142489D01*
X151009434Y-97211647D01*
X150980409Y-97275203D01*
X150959582Y-97294318D01*
X150920262Y-97322885D01*
X150792476Y-97464807D01*
X150696990Y-97630193D01*
X150696987Y-97630200D01*
X150662795Y-97735433D01*
X150637975Y-97811822D01*
X150618013Y-98001750D01*
X150637975Y-98191678D01*
X150637976Y-98191681D01*
X150696987Y-98373299D01*
X150696990Y-98373306D01*
X150792477Y-98538694D01*
X150920264Y-98680616D01*
X151074765Y-98792868D01*
X151249229Y-98870544D01*
X151436030Y-98910250D01*
X151627004Y-98910250D01*
X151813805Y-98870544D01*
X151988269Y-98792868D01*
X152142770Y-98680616D01*
X152270557Y-98538694D01*
X152366044Y-98373306D01*
X152425059Y-98191678D01*
X152445021Y-98001750D01*
X155618013Y-98001750D01*
X155637975Y-98191678D01*
X155637976Y-98191681D01*
X155696987Y-98373299D01*
X155696990Y-98373306D01*
X155792477Y-98538694D01*
X155920264Y-98680616D01*
X156074765Y-98792868D01*
X156249229Y-98870544D01*
X156436030Y-98910250D01*
X156627004Y-98910250D01*
X156813805Y-98870544D01*
X156988269Y-98792868D01*
X157142770Y-98680616D01*
X157270557Y-98538694D01*
X157366044Y-98373306D01*
X157425059Y-98191678D01*
X157445021Y-98001750D01*
X157425059Y-97811822D01*
X157366044Y-97630194D01*
X157270557Y-97464806D01*
X157142770Y-97322884D01*
X156988269Y-97210632D01*
X156813805Y-97132956D01*
X156813803Y-97132955D01*
X156627004Y-97093250D01*
X156436030Y-97093250D01*
X156249231Y-97132955D01*
X156074763Y-97210633D01*
X155920262Y-97322885D01*
X155792476Y-97464807D01*
X155696990Y-97630193D01*
X155696987Y-97630200D01*
X155662795Y-97735433D01*
X155637975Y-97811822D01*
X155618013Y-98001750D01*
X152445021Y-98001750D01*
X152425059Y-97811822D01*
X152366044Y-97630194D01*
X152270557Y-97464806D01*
X152142770Y-97322884D01*
X151988269Y-97210632D01*
X151813805Y-97132956D01*
X151813804Y-97132955D01*
X151810914Y-97131669D01*
X151757677Y-97086418D01*
X151737356Y-97019569D01*
X151756401Y-96952345D01*
X151773673Y-96930703D01*
X151777195Y-96927181D01*
X151863350Y-96812093D01*
X151863354Y-96812086D01*
X151913596Y-96677379D01*
X151913598Y-96677372D01*
X151919999Y-96617844D01*
X151920000Y-96617827D01*
X151920000Y-95220000D01*
X150735650Y-95220000D01*
X150668611Y-95200315D01*
X150622856Y-95147511D01*
X150612430Y-95082117D01*
X150625062Y-94970003D01*
X150625062Y-94969996D01*
X150612430Y-94857883D01*
X150624484Y-94789062D01*
X150671834Y-94737682D01*
X150735650Y-94720000D01*
X151920000Y-94720000D01*
X151920000Y-93322172D01*
X151919999Y-93322155D01*
X151913598Y-93262627D01*
X151913596Y-93262620D01*
X151863354Y-93127913D01*
X151863350Y-93127906D01*
X151777190Y-93012812D01*
X151777187Y-93012809D01*
X151762414Y-93001750D01*
X155618013Y-93001750D01*
X155637975Y-93191678D01*
X155637976Y-93191681D01*
X155696987Y-93373299D01*
X155696990Y-93373306D01*
X155792477Y-93538694D01*
X155920264Y-93680616D01*
X156074765Y-93792868D01*
X156249229Y-93870544D01*
X156436030Y-93910250D01*
X156627004Y-93910250D01*
X156813805Y-93870544D01*
X156988269Y-93792868D01*
X157142770Y-93680616D01*
X157270557Y-93538694D01*
X157366044Y-93373306D01*
X157425059Y-93191678D01*
X157445021Y-93001750D01*
X157425059Y-92811822D01*
X157366044Y-92630194D01*
X157270557Y-92464806D01*
X157142770Y-92322884D01*
X156988269Y-92210632D01*
X156813805Y-92132956D01*
X156813803Y-92132955D01*
X156627004Y-92093250D01*
X156436030Y-92093250D01*
X156249231Y-92132955D01*
X156074763Y-92210633D01*
X155920262Y-92322885D01*
X155792476Y-92464807D01*
X155696990Y-92630193D01*
X155696987Y-92630200D01*
X155642494Y-92797913D01*
X155637975Y-92811822D01*
X155618013Y-93001750D01*
X151762414Y-93001750D01*
X151662093Y-92926649D01*
X151662086Y-92926645D01*
X151527379Y-92876403D01*
X151527372Y-92876401D01*
X151467844Y-92870000D01*
X150070000Y-92870000D01*
X150070000Y-94054350D01*
X150050315Y-94121389D01*
X149997511Y-94167144D01*
X149932116Y-94177570D01*
X149864930Y-94170000D01*
X149864926Y-94170000D01*
X149775074Y-94170000D01*
X149775070Y-94170000D01*
X149707884Y-94177570D01*
X149639062Y-94165516D01*
X149587682Y-94118167D01*
X149570000Y-94054350D01*
X149570000Y-92870000D01*
X148172155Y-92870000D01*
X148112627Y-92876401D01*
X148112620Y-92876403D01*
X147977913Y-92926645D01*
X147977906Y-92926649D01*
X147862812Y-93012809D01*
X147862809Y-93012812D01*
X147776649Y-93127906D01*
X147776645Y-93127913D01*
X147726403Y-93262620D01*
X147726401Y-93262627D01*
X147720000Y-93322155D01*
X147720000Y-94720000D01*
X148904350Y-94720000D01*
X148971389Y-94739685D01*
X149017144Y-94792489D01*
X149027570Y-94857883D01*
X149014938Y-94969996D01*
X149014938Y-94970003D01*
X149027570Y-95082117D01*
X149015516Y-95150938D01*
X148968166Y-95202318D01*
X148904350Y-95220000D01*
X147720000Y-95220000D01*
X147720000Y-96617844D01*
X140860000Y-96617844D01*
X140860000Y-96280000D01*
X139873658Y-96280000D01*
X139806619Y-96260315D01*
X139760864Y-96207511D01*
X139750719Y-96139816D01*
X139765177Y-96030000D01*
X139750719Y-95920183D01*
X139761484Y-95851151D01*
X139807864Y-95798895D01*
X139873658Y-95780000D01*
X140860000Y-95780000D01*
X140860000Y-94782172D01*
X140859999Y-94782155D01*
X140853598Y-94722627D01*
X140853596Y-94722620D01*
X140803354Y-94587913D01*
X140803350Y-94587906D01*
X140717190Y-94472812D01*
X140717187Y-94472809D01*
X140602093Y-94386649D01*
X140602086Y-94386645D01*
X140467379Y-94336403D01*
X140467372Y-94336401D01*
X140407844Y-94330000D01*
X139410000Y-94330000D01*
X139410000Y-95316341D01*
X139390315Y-95383380D01*
X139337511Y-95429135D01*
X139269815Y-95439280D01*
X139199333Y-95430001D01*
X139199328Y-95430000D01*
X139199323Y-95430000D01*
X139120677Y-95430000D01*
X139120671Y-95430000D01*
X139120666Y-95430001D01*
X139050185Y-95439280D01*
X138981150Y-95428514D01*
X138928894Y-95382134D01*
X138910000Y-95316341D01*
X138910000Y-94330000D01*
X137912155Y-94330000D01*
X137852627Y-94336401D01*
X137852620Y-94336403D01*
X137717913Y-94386645D01*
X137717906Y-94386649D01*
X137602812Y-94472809D01*
X137602809Y-94472812D01*
X137516649Y-94587906D01*
X137516645Y-94587913D01*
X137466403Y-94722620D01*
X137466401Y-94722627D01*
X137460000Y-94782155D01*
X137460000Y-95780000D01*
X138446342Y-95780000D01*
X138513381Y-95799685D01*
X138559136Y-95852489D01*
X138569280Y-95920183D01*
X138554823Y-96030000D01*
X138569280Y-96139816D01*
X138558516Y-96208849D01*
X138512136Y-96261105D01*
X138446342Y-96280000D01*
X137460000Y-96280000D01*
X137460000Y-97277844D01*
X137467231Y-97345087D01*
X137464833Y-97345344D01*
X137461715Y-97403221D01*
X137420833Y-97459882D01*
X137355808Y-97485446D01*
X137287285Y-97471796D01*
X137252642Y-97444910D01*
X137142770Y-97322884D01*
X136988269Y-97210632D01*
X136813805Y-97132956D01*
X136813803Y-97132955D01*
X136627004Y-97093250D01*
X136436030Y-97093250D01*
X136249231Y-97132955D01*
X136074763Y-97210633D01*
X135920262Y-97322885D01*
X135792476Y-97464807D01*
X135696990Y-97630193D01*
X135696987Y-97630200D01*
X135662795Y-97735433D01*
X135637975Y-97811822D01*
X135618013Y-98001750D01*
X135330000Y-98001750D01*
X135330000Y-93001750D01*
X135618013Y-93001750D01*
X135637975Y-93191678D01*
X135637976Y-93191681D01*
X135696987Y-93373299D01*
X135696990Y-93373306D01*
X135792477Y-93538694D01*
X135920264Y-93680616D01*
X136074765Y-93792868D01*
X136249229Y-93870544D01*
X136436030Y-93910250D01*
X136627004Y-93910250D01*
X136813805Y-93870544D01*
X136988269Y-93792868D01*
X137142770Y-93680616D01*
X137270557Y-93538694D01*
X137366044Y-93373306D01*
X137425059Y-93191678D01*
X137445021Y-93001750D01*
X140618013Y-93001750D01*
X140637975Y-93191678D01*
X140637976Y-93191681D01*
X140696987Y-93373299D01*
X140696990Y-93373306D01*
X140792477Y-93538694D01*
X140920264Y-93680616D01*
X141074765Y-93792868D01*
X141249229Y-93870544D01*
X141436030Y-93910250D01*
X141627004Y-93910250D01*
X141813805Y-93870544D01*
X141988269Y-93792868D01*
X142142770Y-93680616D01*
X142270557Y-93538694D01*
X142366044Y-93373306D01*
X142425059Y-93191678D01*
X142445021Y-93001750D01*
X145618013Y-93001750D01*
X145637975Y-93191678D01*
X145637976Y-93191681D01*
X145696987Y-93373299D01*
X145696990Y-93373306D01*
X145792477Y-93538694D01*
X145920264Y-93680616D01*
X146074765Y-93792868D01*
X146249229Y-93870544D01*
X146436030Y-93910250D01*
X146627004Y-93910250D01*
X146813805Y-93870544D01*
X146988269Y-93792868D01*
X147142770Y-93680616D01*
X147270557Y-93538694D01*
X147366044Y-93373306D01*
X147425059Y-93191678D01*
X147445021Y-93001750D01*
X147425059Y-92811822D01*
X147366044Y-92630194D01*
X147270557Y-92464806D01*
X147142770Y-92322884D01*
X146988269Y-92210632D01*
X146813805Y-92132956D01*
X146813803Y-92132955D01*
X146627004Y-92093250D01*
X146436030Y-92093250D01*
X146249231Y-92132955D01*
X146074763Y-92210633D01*
X145920262Y-92322885D01*
X145792476Y-92464807D01*
X145696990Y-92630193D01*
X145696987Y-92630200D01*
X145642494Y-92797913D01*
X145637975Y-92811822D01*
X145618013Y-93001750D01*
X142445021Y-93001750D01*
X142425059Y-92811822D01*
X142366044Y-92630194D01*
X142270557Y-92464806D01*
X142142770Y-92322884D01*
X141988269Y-92210632D01*
X141813805Y-92132956D01*
X141813803Y-92132955D01*
X141627004Y-92093250D01*
X141436030Y-92093250D01*
X141249231Y-92132955D01*
X141074763Y-92210633D01*
X140920262Y-92322885D01*
X140792476Y-92464807D01*
X140696990Y-92630193D01*
X140696987Y-92630200D01*
X140642494Y-92797913D01*
X140637975Y-92811822D01*
X140618013Y-93001750D01*
X137445021Y-93001750D01*
X137425059Y-92811822D01*
X137366044Y-92630194D01*
X137270557Y-92464806D01*
X137142770Y-92322884D01*
X136988269Y-92210632D01*
X136813805Y-92132956D01*
X136813803Y-92132955D01*
X136627004Y-92093250D01*
X136436030Y-92093250D01*
X136249231Y-92132955D01*
X136074763Y-92210633D01*
X135920262Y-92322885D01*
X135792476Y-92464807D01*
X135696990Y-92630193D01*
X135696987Y-92630200D01*
X135642494Y-92797913D01*
X135637975Y-92811822D01*
X135618013Y-93001750D01*
X135330000Y-93001750D01*
X135330000Y-87654500D01*
X135349685Y-87587461D01*
X135402489Y-87541706D01*
X135454000Y-87530500D01*
X178606000Y-87530500D01*
X178673039Y-87550185D01*
G37*
%TD.AperFunction*%
%TD*%
%TA.AperFunction,Conductor*%
%TO.N,Net-(U1-VCC)*%
G36*
X134655648Y-87544852D02*
G01*
X134670000Y-87579499D01*
X134670000Y-112960000D01*
X139059999Y-112960000D01*
X139060000Y-112960000D01*
X139070000Y-112950000D01*
X140620000Y-112950000D01*
X140620000Y-113082807D01*
X140627542Y-113120723D01*
X140656274Y-113163725D01*
X140699276Y-113192457D01*
X140737192Y-113199999D01*
X140737196Y-113200000D01*
X141570000Y-113200000D01*
X141570000Y-112950000D01*
X141870000Y-112950000D01*
X141870000Y-113200000D01*
X142702804Y-113200000D01*
X142702807Y-113199999D01*
X142740722Y-113192457D01*
X142781894Y-113164948D01*
X142785838Y-113164163D01*
X142787631Y-113157878D01*
X142812457Y-113120722D01*
X142819999Y-113082807D01*
X142820000Y-113082804D01*
X142820000Y-112950000D01*
X141870000Y-112950000D01*
X141570000Y-112950000D01*
X140620000Y-112950000D01*
X139070000Y-112950000D01*
X139369999Y-112650000D01*
X140620000Y-112650000D01*
X141570000Y-112650000D01*
X141570000Y-112400000D01*
X141870000Y-112400000D01*
X141870000Y-112650000D01*
X142820000Y-112650000D01*
X142820000Y-112517196D01*
X142819999Y-112517192D01*
X142812457Y-112479276D01*
X142783725Y-112436274D01*
X142740723Y-112407542D01*
X142702807Y-112400000D01*
X141870000Y-112400000D01*
X141570000Y-112400000D01*
X140737192Y-112400000D01*
X140699276Y-112407542D01*
X140656274Y-112436274D01*
X140627542Y-112479276D01*
X140620000Y-112517192D01*
X140620000Y-112650000D01*
X139369999Y-112650000D01*
X139593768Y-112426231D01*
X139622016Y-112412300D01*
X139710235Y-112400687D01*
X139850233Y-112342698D01*
X139940268Y-112273612D01*
X140059528Y-112154352D01*
X140094176Y-112140000D01*
X144351000Y-112140000D01*
X144385648Y-112154352D01*
X144400000Y-112189000D01*
X144400000Y-112957500D01*
X144385648Y-112992148D01*
X144351000Y-113006500D01*
X143323525Y-113006500D01*
X143310066Y-113006853D01*
X143290367Y-113007887D01*
X143263550Y-113010000D01*
X143121855Y-113045822D01*
X143121853Y-113045823D01*
X143058524Y-113071886D01*
X143058235Y-113071986D01*
X143057235Y-113072416D01*
X142931372Y-113146709D01*
X142864160Y-113218572D01*
X142852831Y-113223714D01*
X142844905Y-113239160D01*
X142831532Y-113253458D01*
X142809152Y-113285537D01*
X142777556Y-113305741D01*
X142768966Y-113306500D01*
X141593994Y-113306500D01*
X141484856Y-113318234D01*
X141484833Y-113318237D01*
X141433338Y-113329440D01*
X141433318Y-113329446D01*
X141329173Y-113364110D01*
X141329168Y-113364112D01*
X141206215Y-113443130D01*
X141153417Y-113488880D01*
X141141105Y-113503089D01*
X141107568Y-113519875D01*
X141104074Y-113520000D01*
X139950000Y-113520000D01*
X139950000Y-117080000D01*
X145891000Y-117080000D01*
X145925648Y-117094352D01*
X145940000Y-117129000D01*
X145940000Y-117892545D01*
X145939790Y-117895746D01*
X145925835Y-118001749D01*
X145939790Y-118107752D01*
X145940000Y-118110953D01*
X145940000Y-122892545D01*
X145939790Y-122895746D01*
X145925835Y-123001749D01*
X145939790Y-123107752D01*
X145940000Y-123110953D01*
X145940000Y-124391000D01*
X145925648Y-124425648D01*
X145891000Y-124440000D01*
X115509027Y-124440000D01*
X115474379Y-124425648D01*
X115460027Y-124391000D01*
X115460027Y-124390973D01*
X115460779Y-123001750D01*
X115925835Y-123001750D01*
X115946472Y-123158511D01*
X116006978Y-123304586D01*
X116006981Y-123304591D01*
X116103235Y-123430032D01*
X116228676Y-123526286D01*
X116228678Y-123526286D01*
X116228680Y-123526288D01*
X116246041Y-123533479D01*
X116374755Y-123586794D01*
X116531517Y-123607432D01*
X116688279Y-123586794D01*
X116834358Y-123526286D01*
X116959799Y-123430032D01*
X117056053Y-123304591D01*
X117116561Y-123158512D01*
X117137199Y-123001750D01*
X117137199Y-123001749D01*
X120925835Y-123001749D01*
X120946472Y-123158511D01*
X121006978Y-123304586D01*
X121006981Y-123304591D01*
X121103235Y-123430032D01*
X121228676Y-123526286D01*
X121228678Y-123526286D01*
X121228680Y-123526288D01*
X121246041Y-123533479D01*
X121374755Y-123586794D01*
X121531517Y-123607432D01*
X121688279Y-123586794D01*
X121834358Y-123526286D01*
X121959799Y-123430032D01*
X122056053Y-123304591D01*
X122116561Y-123158512D01*
X122137199Y-123001750D01*
X125925835Y-123001750D01*
X125946472Y-123158511D01*
X126006978Y-123304586D01*
X126006981Y-123304591D01*
X126103235Y-123430032D01*
X126228676Y-123526286D01*
X126228678Y-123526286D01*
X126228680Y-123526288D01*
X126246041Y-123533479D01*
X126374755Y-123586794D01*
X126531517Y-123607432D01*
X126688279Y-123586794D01*
X126834358Y-123526286D01*
X126959799Y-123430032D01*
X127056053Y-123304591D01*
X127116561Y-123158512D01*
X127137199Y-123001750D01*
X127137199Y-123001749D01*
X130925835Y-123001749D01*
X130946472Y-123158511D01*
X131006978Y-123304586D01*
X131006981Y-123304591D01*
X131103235Y-123430032D01*
X131228676Y-123526286D01*
X131228678Y-123526286D01*
X131228680Y-123526288D01*
X131246041Y-123533479D01*
X131374755Y-123586794D01*
X131531517Y-123607432D01*
X131688279Y-123586794D01*
X131834358Y-123526286D01*
X131959799Y-123430032D01*
X132056053Y-123304591D01*
X132116561Y-123158512D01*
X132137199Y-123001750D01*
X135925835Y-123001750D01*
X135946472Y-123158511D01*
X136006978Y-123304586D01*
X136006981Y-123304591D01*
X136103235Y-123430032D01*
X136228676Y-123526286D01*
X136228678Y-123526286D01*
X136228680Y-123526288D01*
X136246041Y-123533479D01*
X136374755Y-123586794D01*
X136531517Y-123607432D01*
X136688279Y-123586794D01*
X136834358Y-123526286D01*
X136959799Y-123430032D01*
X137056053Y-123304591D01*
X137116561Y-123158512D01*
X137137199Y-123001750D01*
X137137199Y-123001749D01*
X140925835Y-123001749D01*
X140946472Y-123158511D01*
X141006978Y-123304586D01*
X141006981Y-123304591D01*
X141103235Y-123430032D01*
X141228676Y-123526286D01*
X141228678Y-123526286D01*
X141228680Y-123526288D01*
X141246041Y-123533479D01*
X141374755Y-123586794D01*
X141531517Y-123607432D01*
X141688279Y-123586794D01*
X141834358Y-123526286D01*
X141959799Y-123430032D01*
X142056053Y-123304591D01*
X142116561Y-123158512D01*
X142137199Y-123001750D01*
X142116561Y-122844988D01*
X142084793Y-122768293D01*
X142056055Y-122698913D01*
X142056052Y-122698908D01*
X142024497Y-122657785D01*
X141959799Y-122573468D01*
X141834358Y-122477214D01*
X141834353Y-122477211D01*
X141688278Y-122416705D01*
X141531517Y-122396068D01*
X141374755Y-122416705D01*
X141228680Y-122477211D01*
X141228675Y-122477214D01*
X141103235Y-122573467D01*
X141103234Y-122573468D01*
X141006981Y-122698908D01*
X141006978Y-122698913D01*
X140946472Y-122844988D01*
X140925835Y-123001749D01*
X137137199Y-123001749D01*
X137116561Y-122844988D01*
X137084793Y-122768293D01*
X137056055Y-122698913D01*
X137056052Y-122698908D01*
X137024497Y-122657785D01*
X136959799Y-122573468D01*
X136834358Y-122477214D01*
X136834353Y-122477211D01*
X136688278Y-122416705D01*
X136531517Y-122396068D01*
X136374755Y-122416705D01*
X136228680Y-122477211D01*
X136228675Y-122477214D01*
X136103235Y-122573467D01*
X136103234Y-122573468D01*
X136006981Y-122698908D01*
X136006978Y-122698913D01*
X135946472Y-122844988D01*
X135925835Y-123001750D01*
X132137199Y-123001750D01*
X132116561Y-122844988D01*
X132084793Y-122768293D01*
X132056055Y-122698913D01*
X132056052Y-122698908D01*
X132024497Y-122657785D01*
X131959799Y-122573468D01*
X131834358Y-122477214D01*
X131834353Y-122477211D01*
X131688278Y-122416705D01*
X131531517Y-122396068D01*
X131374755Y-122416705D01*
X131228680Y-122477211D01*
X131228675Y-122477214D01*
X131103235Y-122573467D01*
X131103234Y-122573468D01*
X131006981Y-122698908D01*
X131006978Y-122698913D01*
X130946472Y-122844988D01*
X130925835Y-123001749D01*
X127137199Y-123001749D01*
X127116561Y-122844988D01*
X127084793Y-122768293D01*
X127056055Y-122698913D01*
X127056052Y-122698908D01*
X127024497Y-122657785D01*
X126959799Y-122573468D01*
X126834358Y-122477214D01*
X126834353Y-122477211D01*
X126688278Y-122416705D01*
X126531517Y-122396068D01*
X126374755Y-122416705D01*
X126228680Y-122477211D01*
X126228675Y-122477214D01*
X126103235Y-122573467D01*
X126103234Y-122573468D01*
X126006981Y-122698908D01*
X126006978Y-122698913D01*
X125946472Y-122844988D01*
X125925835Y-123001750D01*
X122137199Y-123001750D01*
X122116561Y-122844988D01*
X122084793Y-122768293D01*
X122056055Y-122698913D01*
X122056052Y-122698908D01*
X122024497Y-122657785D01*
X121959799Y-122573468D01*
X121834358Y-122477214D01*
X121834353Y-122477211D01*
X121688278Y-122416705D01*
X121531517Y-122396068D01*
X121374755Y-122416705D01*
X121228680Y-122477211D01*
X121228675Y-122477214D01*
X121103235Y-122573467D01*
X121103234Y-122573468D01*
X121006981Y-122698908D01*
X121006978Y-122698913D01*
X120946472Y-122844988D01*
X120925835Y-123001749D01*
X117137199Y-123001749D01*
X117116561Y-122844988D01*
X117084793Y-122768293D01*
X117056055Y-122698913D01*
X117056052Y-122698908D01*
X117024497Y-122657785D01*
X116959799Y-122573468D01*
X116834358Y-122477214D01*
X116834353Y-122477211D01*
X116688278Y-122416705D01*
X116531517Y-122396068D01*
X116374755Y-122416705D01*
X116228680Y-122477211D01*
X116228675Y-122477214D01*
X116103235Y-122573467D01*
X116103234Y-122573468D01*
X116006981Y-122698908D01*
X116006978Y-122698913D01*
X115946472Y-122844988D01*
X115925835Y-123001750D01*
X115460779Y-123001750D01*
X115462387Y-120030000D01*
X129500052Y-120030000D01*
X129519812Y-120281072D01*
X129578603Y-120525954D01*
X129674982Y-120758634D01*
X129674984Y-120758637D01*
X129806563Y-120973356D01*
X129806571Y-120973366D01*
X129872410Y-121050456D01*
X129872411Y-121050456D01*
X130265823Y-120657043D01*
X130300471Y-120642691D01*
X130335119Y-120657043D01*
X130335969Y-120657914D01*
X130456814Y-120785044D01*
X130456815Y-120785045D01*
X130456816Y-120785046D01*
X130470818Y-120794792D01*
X130491057Y-120826365D01*
X130483042Y-120863002D01*
X130477473Y-120869657D01*
X130084542Y-121262587D01*
X130161634Y-121328429D01*
X130161640Y-121328433D01*
X130376362Y-121460015D01*
X130376365Y-121460017D01*
X130609045Y-121556396D01*
X130853927Y-121615187D01*
X131105000Y-121634947D01*
X131356072Y-121615187D01*
X131600954Y-121556396D01*
X131833634Y-121460017D01*
X131833637Y-121460015D01*
X132048359Y-121328433D01*
X132048365Y-121328429D01*
X132125456Y-121262587D01*
X131730306Y-120867438D01*
X131715954Y-120832790D01*
X131730306Y-120798142D01*
X131733005Y-120795639D01*
X131826246Y-120715595D01*
X131869194Y-120660110D01*
X131901748Y-120641497D01*
X131937932Y-120651355D01*
X131942588Y-120655456D01*
X132337587Y-121050456D01*
X132403429Y-120973365D01*
X132403433Y-120973359D01*
X132535015Y-120758637D01*
X132535017Y-120758634D01*
X132631396Y-120525954D01*
X132690187Y-120281072D01*
X132709947Y-120030000D01*
X132709947Y-120029999D01*
X137120052Y-120029999D01*
X137139812Y-120281072D01*
X137198603Y-120525954D01*
X137294982Y-120758634D01*
X137294984Y-120758637D01*
X137426563Y-120973356D01*
X137426571Y-120973366D01*
X137492410Y-121050456D01*
X137492411Y-121050456D01*
X137885823Y-120657043D01*
X137920471Y-120642691D01*
X137955119Y-120657043D01*
X137955969Y-120657914D01*
X138076814Y-120785044D01*
X138076815Y-120785045D01*
X138076816Y-120785046D01*
X138090818Y-120794792D01*
X138111057Y-120826365D01*
X138103042Y-120863002D01*
X138097473Y-120869657D01*
X137704542Y-121262587D01*
X137781634Y-121328429D01*
X137781640Y-121328433D01*
X137996362Y-121460015D01*
X137996365Y-121460017D01*
X138229045Y-121556396D01*
X138473927Y-121615187D01*
X138725000Y-121634947D01*
X138976072Y-121615187D01*
X139220954Y-121556396D01*
X139453634Y-121460017D01*
X139453637Y-121460015D01*
X139668359Y-121328433D01*
X139668365Y-121328429D01*
X139745456Y-121262587D01*
X139350306Y-120867438D01*
X139335954Y-120832790D01*
X139350306Y-120798142D01*
X139353005Y-120795639D01*
X139446246Y-120715595D01*
X139489194Y-120660110D01*
X139521748Y-120641497D01*
X139557932Y-120651355D01*
X139562588Y-120655456D01*
X139957587Y-121050456D01*
X140023429Y-120973365D01*
X140023433Y-120973359D01*
X140155015Y-120758637D01*
X140155017Y-120758634D01*
X140251396Y-120525954D01*
X140310187Y-120281072D01*
X140317355Y-120190000D01*
X142422501Y-120190000D01*
X142422501Y-121498221D01*
X142432411Y-121566248D01*
X142432411Y-121566249D01*
X142483712Y-121671186D01*
X142483715Y-121671190D01*
X142566309Y-121753784D01*
X142566313Y-121753786D01*
X142671251Y-121805087D01*
X142739279Y-121814999D01*
X142984999Y-121814999D01*
X142985000Y-121814998D01*
X142985000Y-120190000D01*
X143285000Y-120190000D01*
X143285000Y-121814999D01*
X143530721Y-121814999D01*
X143598748Y-121805088D01*
X143598749Y-121805088D01*
X143703686Y-121753787D01*
X143703690Y-121753784D01*
X143786284Y-121671190D01*
X143786286Y-121671186D01*
X143837587Y-121566249D01*
X143837587Y-121566248D01*
X143847500Y-121498220D01*
X143847500Y-120190000D01*
X143285000Y-120190000D01*
X142985000Y-120190000D01*
X142422501Y-120190000D01*
X140317355Y-120190000D01*
X140329947Y-120029999D01*
X140318929Y-119890000D01*
X142422500Y-119890000D01*
X142985000Y-119890000D01*
X142985000Y-118265000D01*
X143285000Y-118265000D01*
X143285000Y-119890000D01*
X143847499Y-119890000D01*
X143847499Y-118581778D01*
X143837588Y-118513751D01*
X143837588Y-118513750D01*
X143786287Y-118408813D01*
X143786284Y-118408809D01*
X143703690Y-118326215D01*
X143703686Y-118326213D01*
X143598748Y-118274912D01*
X143530721Y-118265000D01*
X143285000Y-118265000D01*
X142985000Y-118265000D01*
X142739278Y-118265000D01*
X142671251Y-118274911D01*
X142671250Y-118274911D01*
X142566313Y-118326212D01*
X142566309Y-118326215D01*
X142483715Y-118408809D01*
X142483713Y-118408813D01*
X142432412Y-118513750D01*
X142432412Y-118513751D01*
X142422500Y-118581779D01*
X142422500Y-119890000D01*
X140318929Y-119890000D01*
X140310187Y-119778927D01*
X140251396Y-119534045D01*
X140155017Y-119301365D01*
X140155015Y-119301362D01*
X140023433Y-119086640D01*
X140023429Y-119086634D01*
X139957587Y-119009542D01*
X139564175Y-119402955D01*
X139529527Y-119417307D01*
X139494879Y-119402955D01*
X139494032Y-119402087D01*
X139373185Y-119274955D01*
X139373184Y-119274954D01*
X139373181Y-119274951D01*
X139359179Y-119265205D01*
X139338941Y-119233631D01*
X139346957Y-119196995D01*
X139352525Y-119190341D01*
X139745456Y-118797411D01*
X139745456Y-118797410D01*
X139668366Y-118731571D01*
X139668356Y-118731563D01*
X139453637Y-118599984D01*
X139453634Y-118599982D01*
X139220954Y-118503603D01*
X138976072Y-118444812D01*
X138725000Y-118425052D01*
X138473927Y-118444812D01*
X138229045Y-118503603D01*
X137996365Y-118599982D01*
X137996362Y-118599984D01*
X137781640Y-118731565D01*
X137781634Y-118731569D01*
X137704542Y-118797410D01*
X137704542Y-118797411D01*
X138099692Y-119192561D01*
X138114044Y-119227209D01*
X138099692Y-119261857D01*
X138096961Y-119264388D01*
X138003758Y-119344400D01*
X138003753Y-119344405D01*
X137960805Y-119399888D01*
X137928248Y-119418501D01*
X137892064Y-119408641D01*
X137887410Y-119404542D01*
X137492411Y-119009542D01*
X137492410Y-119009542D01*
X137426569Y-119086634D01*
X137426565Y-119086640D01*
X137294984Y-119301362D01*
X137294982Y-119301365D01*
X137198603Y-119534045D01*
X137139812Y-119778927D01*
X137120052Y-120029999D01*
X132709947Y-120029999D01*
X132690187Y-119778927D01*
X132631396Y-119534045D01*
X132535017Y-119301365D01*
X132535015Y-119301362D01*
X132403433Y-119086640D01*
X132403429Y-119086634D01*
X132337587Y-119009542D01*
X131944175Y-119402955D01*
X131909527Y-119417307D01*
X131874879Y-119402955D01*
X131874032Y-119402087D01*
X131753185Y-119274955D01*
X131753184Y-119274954D01*
X131753181Y-119274951D01*
X131739179Y-119265205D01*
X131718941Y-119233631D01*
X131726957Y-119196995D01*
X131732525Y-119190341D01*
X132125456Y-118797411D01*
X132125456Y-118797410D01*
X132048366Y-118731571D01*
X132048356Y-118731563D01*
X131833637Y-118599984D01*
X131833634Y-118599982D01*
X131600954Y-118503603D01*
X131356072Y-118444812D01*
X131104999Y-118425052D01*
X130853927Y-118444812D01*
X130609045Y-118503603D01*
X130376365Y-118599982D01*
X130376362Y-118599984D01*
X130161640Y-118731565D01*
X130161634Y-118731569D01*
X130084542Y-118797410D01*
X130084542Y-118797411D01*
X130479692Y-119192561D01*
X130494044Y-119227209D01*
X130479692Y-119261857D01*
X130476961Y-119264388D01*
X130383758Y-119344400D01*
X130383753Y-119344405D01*
X130340805Y-119399888D01*
X130308248Y-119418501D01*
X130272064Y-119408641D01*
X130267410Y-119404542D01*
X129872411Y-119009542D01*
X129872410Y-119009542D01*
X129806569Y-119086634D01*
X129806565Y-119086640D01*
X129674984Y-119301362D01*
X129674982Y-119301365D01*
X129578603Y-119534045D01*
X129519812Y-119778927D01*
X129500052Y-120030000D01*
X115462387Y-120030000D01*
X115463485Y-118001750D01*
X115925835Y-118001750D01*
X115946472Y-118158511D01*
X116006978Y-118304586D01*
X116006981Y-118304591D01*
X116099413Y-118425052D01*
X116103235Y-118430032D01*
X116228676Y-118526286D01*
X116228678Y-118526286D01*
X116228680Y-118526288D01*
X116246041Y-118533479D01*
X116374755Y-118586794D01*
X116531517Y-118607432D01*
X116688279Y-118586794D01*
X116834358Y-118526286D01*
X116959799Y-118430032D01*
X117056053Y-118304591D01*
X117116561Y-118158512D01*
X117137199Y-118001750D01*
X117137199Y-118001749D01*
X120925835Y-118001749D01*
X120946472Y-118158511D01*
X121006978Y-118304586D01*
X121006981Y-118304591D01*
X121099413Y-118425052D01*
X121103235Y-118430032D01*
X121228676Y-118526286D01*
X121228678Y-118526286D01*
X121228680Y-118526288D01*
X121246041Y-118533479D01*
X121374755Y-118586794D01*
X121531517Y-118607432D01*
X121688279Y-118586794D01*
X121834358Y-118526286D01*
X121959799Y-118430032D01*
X122056053Y-118304591D01*
X122116561Y-118158512D01*
X122137199Y-118001750D01*
X125925835Y-118001750D01*
X125946472Y-118158511D01*
X126006978Y-118304586D01*
X126006981Y-118304591D01*
X126099413Y-118425052D01*
X126103235Y-118430032D01*
X126228676Y-118526286D01*
X126228678Y-118526286D01*
X126228680Y-118526288D01*
X126246041Y-118533479D01*
X126374755Y-118586794D01*
X126531517Y-118607432D01*
X126688279Y-118586794D01*
X126834358Y-118526286D01*
X126959799Y-118430032D01*
X127056053Y-118304591D01*
X127116561Y-118158512D01*
X127137199Y-118001750D01*
X135925835Y-118001750D01*
X135946472Y-118158511D01*
X136006978Y-118304586D01*
X136006981Y-118304591D01*
X136099413Y-118425052D01*
X136103235Y-118430032D01*
X136228676Y-118526286D01*
X136228678Y-118526286D01*
X136228680Y-118526288D01*
X136246041Y-118533479D01*
X136374755Y-118586794D01*
X136531517Y-118607432D01*
X136688279Y-118586794D01*
X136834358Y-118526286D01*
X136959799Y-118430032D01*
X137056053Y-118304591D01*
X137116561Y-118158512D01*
X137137199Y-118001750D01*
X137137199Y-118001749D01*
X140925835Y-118001749D01*
X140946472Y-118158511D01*
X141006978Y-118304586D01*
X141006981Y-118304591D01*
X141099413Y-118425052D01*
X141103235Y-118430032D01*
X141228676Y-118526286D01*
X141228678Y-118526286D01*
X141228680Y-118526288D01*
X141246041Y-118533479D01*
X141374755Y-118586794D01*
X141531517Y-118607432D01*
X141688279Y-118586794D01*
X141834358Y-118526286D01*
X141959799Y-118430032D01*
X142056053Y-118304591D01*
X142116561Y-118158512D01*
X142137199Y-118001750D01*
X142116561Y-117844988D01*
X142056053Y-117698909D01*
X141959799Y-117573468D01*
X141834358Y-117477214D01*
X141834353Y-117477211D01*
X141688278Y-117416705D01*
X141531517Y-117396068D01*
X141374755Y-117416705D01*
X141228680Y-117477211D01*
X141228675Y-117477214D01*
X141103235Y-117573467D01*
X141103234Y-117573468D01*
X141006981Y-117698908D01*
X141006978Y-117698913D01*
X140946472Y-117844988D01*
X140925835Y-118001749D01*
X137137199Y-118001749D01*
X137116561Y-117844988D01*
X137056053Y-117698909D01*
X136959799Y-117573468D01*
X136834358Y-117477214D01*
X136834353Y-117477211D01*
X136688278Y-117416705D01*
X136531517Y-117396068D01*
X136374755Y-117416705D01*
X136228680Y-117477211D01*
X136228675Y-117477214D01*
X136103235Y-117573467D01*
X136103234Y-117573468D01*
X136006981Y-117698908D01*
X136006978Y-117698913D01*
X135946472Y-117844988D01*
X135925835Y-118001750D01*
X127137199Y-118001750D01*
X127116561Y-117844988D01*
X127056053Y-117698909D01*
X126959799Y-117573468D01*
X126834358Y-117477214D01*
X126834353Y-117477211D01*
X126688278Y-117416705D01*
X126531517Y-117396068D01*
X126374755Y-117416705D01*
X126228680Y-117477211D01*
X126228675Y-117477214D01*
X126103235Y-117573467D01*
X126103234Y-117573468D01*
X126006981Y-117698908D01*
X126006978Y-117698913D01*
X125946472Y-117844988D01*
X125925835Y-118001750D01*
X122137199Y-118001750D01*
X122116561Y-117844988D01*
X122056053Y-117698909D01*
X121959799Y-117573468D01*
X121834358Y-117477214D01*
X121834353Y-117477211D01*
X121688278Y-117416705D01*
X121531517Y-117396068D01*
X121374755Y-117416705D01*
X121228680Y-117477211D01*
X121228675Y-117477214D01*
X121103235Y-117573467D01*
X121103234Y-117573468D01*
X121006981Y-117698908D01*
X121006978Y-117698913D01*
X120946472Y-117844988D01*
X120925835Y-118001749D01*
X117137199Y-118001749D01*
X117116561Y-117844988D01*
X117056053Y-117698909D01*
X116959799Y-117573468D01*
X116834358Y-117477214D01*
X116834353Y-117477211D01*
X116688278Y-117416705D01*
X116531517Y-117396068D01*
X116374755Y-117416705D01*
X116228680Y-117477211D01*
X116228675Y-117477214D01*
X116103235Y-117573467D01*
X116103234Y-117573468D01*
X116006981Y-117698908D01*
X116006978Y-117698913D01*
X115946472Y-117844988D01*
X115925835Y-118001750D01*
X115463485Y-118001750D01*
X115466192Y-113001750D01*
X115925835Y-113001750D01*
X115946472Y-113158511D01*
X116006978Y-113304586D01*
X116006981Y-113304591D01*
X116095149Y-113419495D01*
X116103235Y-113430032D01*
X116228676Y-113526286D01*
X116228678Y-113526286D01*
X116228680Y-113526288D01*
X116333006Y-113569501D01*
X116374755Y-113586794D01*
X116531517Y-113607432D01*
X116688279Y-113586794D01*
X116834358Y-113526286D01*
X116959799Y-113430032D01*
X117056053Y-113304591D01*
X117116561Y-113158512D01*
X117137199Y-113001750D01*
X117137199Y-113001749D01*
X120925835Y-113001749D01*
X120946472Y-113158511D01*
X121006978Y-113304586D01*
X121006981Y-113304591D01*
X121095149Y-113419495D01*
X121103235Y-113430032D01*
X121228676Y-113526286D01*
X121228678Y-113526286D01*
X121228680Y-113526288D01*
X121333006Y-113569501D01*
X121374755Y-113586794D01*
X121531517Y-113607432D01*
X121688279Y-113586794D01*
X121834358Y-113526286D01*
X121959799Y-113430032D01*
X122056053Y-113304591D01*
X122116561Y-113158512D01*
X122137199Y-113001750D01*
X125925835Y-113001750D01*
X125946472Y-113158511D01*
X126006978Y-113304586D01*
X126006981Y-113304591D01*
X126095149Y-113419495D01*
X126103235Y-113430032D01*
X126228676Y-113526286D01*
X126228678Y-113526286D01*
X126228680Y-113526288D01*
X126333006Y-113569501D01*
X126374755Y-113586794D01*
X126531517Y-113607432D01*
X126688279Y-113586794D01*
X126834358Y-113526286D01*
X126959799Y-113430032D01*
X127056053Y-113304591D01*
X127116561Y-113158512D01*
X127137199Y-113001750D01*
X127137199Y-113001749D01*
X130925835Y-113001749D01*
X130946472Y-113158511D01*
X131006978Y-113304586D01*
X131006981Y-113304591D01*
X131095149Y-113419495D01*
X131103235Y-113430032D01*
X131228676Y-113526286D01*
X131228678Y-113526286D01*
X131228680Y-113526288D01*
X131333006Y-113569501D01*
X131374755Y-113586794D01*
X131531517Y-113607432D01*
X131688279Y-113586794D01*
X131834358Y-113526286D01*
X131959799Y-113430032D01*
X132056053Y-113304591D01*
X132116561Y-113158512D01*
X132137199Y-113001750D01*
X132116561Y-112844988D01*
X132084793Y-112768293D01*
X132056055Y-112698913D01*
X132056052Y-112698908D01*
X132024497Y-112657785D01*
X131959799Y-112573468D01*
X131895969Y-112524490D01*
X131834358Y-112477214D01*
X131834353Y-112477211D01*
X131688278Y-112416705D01*
X131531517Y-112396068D01*
X131374755Y-112416705D01*
X131228680Y-112477211D01*
X131228675Y-112477214D01*
X131103235Y-112573467D01*
X131103234Y-112573468D01*
X131006981Y-112698908D01*
X131006978Y-112698913D01*
X130946472Y-112844988D01*
X130925835Y-113001749D01*
X127137199Y-113001749D01*
X127116561Y-112844988D01*
X127084793Y-112768293D01*
X127056055Y-112698913D01*
X127056052Y-112698908D01*
X127024497Y-112657785D01*
X126959799Y-112573468D01*
X126895969Y-112524490D01*
X126834358Y-112477214D01*
X126834353Y-112477211D01*
X126688278Y-112416705D01*
X126531517Y-112396068D01*
X126374755Y-112416705D01*
X126228680Y-112477211D01*
X126228675Y-112477214D01*
X126103235Y-112573467D01*
X126103234Y-112573468D01*
X126006981Y-112698908D01*
X126006978Y-112698913D01*
X125946472Y-112844988D01*
X125925835Y-113001750D01*
X122137199Y-113001750D01*
X122116561Y-112844988D01*
X122084793Y-112768293D01*
X122056055Y-112698913D01*
X122056052Y-112698908D01*
X122024497Y-112657785D01*
X121959799Y-112573468D01*
X121895969Y-112524490D01*
X121834358Y-112477214D01*
X121834353Y-112477211D01*
X121688278Y-112416705D01*
X121531517Y-112396068D01*
X121374755Y-112416705D01*
X121228680Y-112477211D01*
X121228675Y-112477214D01*
X121103235Y-112573467D01*
X121103234Y-112573468D01*
X121006981Y-112698908D01*
X121006978Y-112698913D01*
X120946472Y-112844988D01*
X120925835Y-113001749D01*
X117137199Y-113001749D01*
X117116561Y-112844988D01*
X117084793Y-112768293D01*
X117056055Y-112698913D01*
X117056052Y-112698908D01*
X117024497Y-112657785D01*
X116959799Y-112573468D01*
X116895969Y-112524490D01*
X116834358Y-112477214D01*
X116834353Y-112477211D01*
X116688278Y-112416705D01*
X116531517Y-112396068D01*
X116374755Y-112416705D01*
X116228680Y-112477211D01*
X116228675Y-112477214D01*
X116103235Y-112573467D01*
X116103234Y-112573468D01*
X116006981Y-112698908D01*
X116006978Y-112698913D01*
X115946472Y-112844988D01*
X115925835Y-113001750D01*
X115466192Y-113001750D01*
X115468531Y-108680000D01*
X123050000Y-108680000D01*
X123708697Y-108680000D01*
X123743345Y-108694352D01*
X123757697Y-108729000D01*
X123757278Y-108735396D01*
X123744823Y-108830000D01*
X123757278Y-108924604D01*
X123747571Y-108960829D01*
X123715093Y-108979581D01*
X123708697Y-108980000D01*
X123050001Y-108980000D01*
X123050001Y-110039845D01*
X123055802Y-110069018D01*
X123055804Y-110069022D01*
X123077904Y-110102097D01*
X123110980Y-110124197D01*
X123140154Y-110129999D01*
X124200000Y-110129999D01*
X124200000Y-109471302D01*
X124214352Y-109436654D01*
X124249000Y-109422302D01*
X124255379Y-109422719D01*
X124310677Y-109430000D01*
X124310680Y-109430000D01*
X124389319Y-109430000D01*
X124389323Y-109430000D01*
X124444605Y-109422721D01*
X124480828Y-109432427D01*
X124499580Y-109464905D01*
X124499999Y-109471302D01*
X124499999Y-110129999D01*
X125559845Y-110129999D01*
X125559845Y-110129998D01*
X125589018Y-110124197D01*
X125589022Y-110124195D01*
X125622097Y-110102095D01*
X125644197Y-110069019D01*
X125650000Y-110039845D01*
X125650000Y-108980000D01*
X124991303Y-108980000D01*
X124956655Y-108965648D01*
X124942303Y-108931000D01*
X124942722Y-108924604D01*
X124955177Y-108830000D01*
X127944700Y-108830000D01*
X127963866Y-109061305D01*
X128020843Y-109286300D01*
X128020844Y-109286304D01*
X128114074Y-109498846D01*
X128114081Y-109498858D01*
X128241017Y-109693148D01*
X128241019Y-109693150D01*
X128241021Y-109693153D01*
X128314409Y-109772874D01*
X128398218Y-109863915D01*
X128518019Y-109957159D01*
X128581374Y-110006470D01*
X128581381Y-110006474D01*
X128581383Y-110006475D01*
X128785489Y-110116932D01*
X128785491Y-110116932D01*
X128785497Y-110116936D01*
X129005019Y-110192298D01*
X129233951Y-110230500D01*
X129233954Y-110230500D01*
X129466046Y-110230500D01*
X129466049Y-110230500D01*
X129694981Y-110192298D01*
X129914503Y-110116936D01*
X130118626Y-110006470D01*
X130301784Y-109863913D01*
X130458979Y-109693153D01*
X130585924Y-109498849D01*
X130679157Y-109286300D01*
X130736134Y-109061305D01*
X130755300Y-108830000D01*
X130736134Y-108598695D01*
X130679157Y-108373700D01*
X130649417Y-108305901D01*
X130585925Y-108161153D01*
X130585918Y-108161141D01*
X130481782Y-108001749D01*
X130925835Y-108001749D01*
X130946472Y-108158511D01*
X131006978Y-108304586D01*
X131006981Y-108304591D01*
X131083993Y-108404956D01*
X131103235Y-108430032D01*
X131228676Y-108526286D01*
X131228678Y-108526286D01*
X131228680Y-108526288D01*
X131231394Y-108527412D01*
X131374755Y-108586794D01*
X131531517Y-108607432D01*
X131688279Y-108586794D01*
X131834358Y-108526286D01*
X131959799Y-108430032D01*
X132056053Y-108304591D01*
X132116561Y-108158512D01*
X132137199Y-108001750D01*
X132116561Y-107844988D01*
X132056053Y-107698909D01*
X131959799Y-107573468D01*
X131923002Y-107545233D01*
X131834358Y-107477214D01*
X131834353Y-107477211D01*
X131688278Y-107416705D01*
X131531517Y-107396068D01*
X131374755Y-107416705D01*
X131228680Y-107477211D01*
X131228675Y-107477214D01*
X131103235Y-107573467D01*
X131103234Y-107573468D01*
X131006981Y-107698908D01*
X131006978Y-107698913D01*
X130946472Y-107844988D01*
X130925835Y-108001749D01*
X130481782Y-108001749D01*
X130458982Y-107966851D01*
X130458980Y-107966849D01*
X130458979Y-107966847D01*
X130301784Y-107796087D01*
X130301783Y-107796086D01*
X130301781Y-107796084D01*
X130118630Y-107653533D01*
X130118629Y-107653532D01*
X130118626Y-107653530D01*
X130118621Y-107653527D01*
X130118616Y-107653524D01*
X129914510Y-107543067D01*
X129914504Y-107543064D01*
X129914503Y-107543064D01*
X129722689Y-107477214D01*
X129694982Y-107467702D01*
X129637747Y-107458151D01*
X129466049Y-107429500D01*
X129233951Y-107429500D01*
X129096591Y-107452421D01*
X129005017Y-107467702D01*
X128785499Y-107543063D01*
X128785489Y-107543067D01*
X128581383Y-107653524D01*
X128581369Y-107653533D01*
X128398218Y-107796084D01*
X128241017Y-107966851D01*
X128114081Y-108161141D01*
X128114074Y-108161153D01*
X128020844Y-108373695D01*
X128020843Y-108373699D01*
X128020843Y-108373700D01*
X128012928Y-108404956D01*
X127963866Y-108598694D01*
X127955541Y-108699171D01*
X127944700Y-108830000D01*
X124955177Y-108830000D01*
X124942722Y-108735395D01*
X124952429Y-108699171D01*
X124984907Y-108680419D01*
X124991303Y-108680000D01*
X125649999Y-108680000D01*
X125649999Y-108001750D01*
X125925835Y-108001750D01*
X125946472Y-108158511D01*
X126006978Y-108304586D01*
X126006981Y-108304591D01*
X126083993Y-108404956D01*
X126103235Y-108430032D01*
X126228676Y-108526286D01*
X126228678Y-108526286D01*
X126228680Y-108526288D01*
X126231394Y-108527412D01*
X126374755Y-108586794D01*
X126531517Y-108607432D01*
X126688279Y-108586794D01*
X126834358Y-108526286D01*
X126959799Y-108430032D01*
X127056053Y-108304591D01*
X127116561Y-108158512D01*
X127137199Y-108001750D01*
X127116561Y-107844988D01*
X127056053Y-107698909D01*
X126959799Y-107573468D01*
X126923002Y-107545233D01*
X126834358Y-107477214D01*
X126834353Y-107477211D01*
X126688278Y-107416705D01*
X126531517Y-107396068D01*
X126374755Y-107416705D01*
X126228680Y-107477211D01*
X126228675Y-107477214D01*
X126103235Y-107573467D01*
X126103234Y-107573468D01*
X126006981Y-107698908D01*
X126006978Y-107698913D01*
X125946472Y-107844988D01*
X125925835Y-108001750D01*
X125649999Y-108001750D01*
X125649999Y-107620155D01*
X125649998Y-107620154D01*
X125644197Y-107590981D01*
X125644195Y-107590977D01*
X125622095Y-107557902D01*
X125589019Y-107535802D01*
X125559846Y-107530000D01*
X124499999Y-107530000D01*
X124499999Y-108188697D01*
X124485647Y-108223345D01*
X124450999Y-108237697D01*
X124444606Y-108237278D01*
X124389323Y-108230000D01*
X124310677Y-108230000D01*
X124255395Y-108237278D01*
X124219170Y-108227571D01*
X124200419Y-108195092D01*
X124200000Y-108188697D01*
X124200000Y-107530000D01*
X123140155Y-107530000D01*
X123140154Y-107530001D01*
X123110981Y-107535802D01*
X123110977Y-107535804D01*
X123077902Y-107557904D01*
X123055802Y-107590980D01*
X123050000Y-107620154D01*
X123050000Y-108680000D01*
X115468531Y-108680000D01*
X115468898Y-108001750D01*
X115925835Y-108001750D01*
X115946472Y-108158511D01*
X116006978Y-108304586D01*
X116006981Y-108304591D01*
X116083993Y-108404956D01*
X116103235Y-108430032D01*
X116228676Y-108526286D01*
X116228678Y-108526286D01*
X116228680Y-108526288D01*
X116231394Y-108527412D01*
X116374755Y-108586794D01*
X116531517Y-108607432D01*
X116688279Y-108586794D01*
X116834358Y-108526286D01*
X116959799Y-108430032D01*
X117056053Y-108304591D01*
X117116561Y-108158512D01*
X117137199Y-108001750D01*
X117137199Y-108001749D01*
X120925835Y-108001749D01*
X120946472Y-108158511D01*
X121006978Y-108304586D01*
X121006981Y-108304591D01*
X121083993Y-108404956D01*
X121103235Y-108430032D01*
X121228676Y-108526286D01*
X121228678Y-108526286D01*
X121228680Y-108526288D01*
X121231394Y-108527412D01*
X121374755Y-108586794D01*
X121531517Y-108607432D01*
X121688279Y-108586794D01*
X121834358Y-108526286D01*
X121959799Y-108430032D01*
X122056053Y-108304591D01*
X122116561Y-108158512D01*
X122137199Y-108001750D01*
X122116561Y-107844988D01*
X122056053Y-107698909D01*
X121959799Y-107573468D01*
X121923002Y-107545233D01*
X121834358Y-107477214D01*
X121834353Y-107477211D01*
X121688278Y-107416705D01*
X121531517Y-107396068D01*
X121374755Y-107416705D01*
X121228680Y-107477211D01*
X121228675Y-107477214D01*
X121103235Y-107573467D01*
X121103234Y-107573468D01*
X121006981Y-107698908D01*
X121006978Y-107698913D01*
X120946472Y-107844988D01*
X120925835Y-108001749D01*
X117137199Y-108001749D01*
X117116561Y-107844988D01*
X117056053Y-107698909D01*
X116959799Y-107573468D01*
X116923002Y-107545233D01*
X116834358Y-107477214D01*
X116834353Y-107477211D01*
X116688278Y-107416705D01*
X116531517Y-107396068D01*
X116374755Y-107416705D01*
X116228680Y-107477211D01*
X116228675Y-107477214D01*
X116103235Y-107573467D01*
X116103234Y-107573468D01*
X116006981Y-107698908D01*
X116006978Y-107698913D01*
X115946472Y-107844988D01*
X115925835Y-108001750D01*
X115468898Y-108001750D01*
X115471604Y-103001750D01*
X115925835Y-103001750D01*
X115946472Y-103158511D01*
X116006978Y-103304586D01*
X116006981Y-103304591D01*
X116062969Y-103377557D01*
X116103235Y-103430032D01*
X116228676Y-103526286D01*
X116228678Y-103526286D01*
X116228680Y-103526288D01*
X116298671Y-103555279D01*
X116374755Y-103586794D01*
X116531517Y-103607432D01*
X116688279Y-103586794D01*
X116834358Y-103526286D01*
X116959799Y-103430032D01*
X117056053Y-103304591D01*
X117116561Y-103158512D01*
X117137199Y-103001750D01*
X117137199Y-103001749D01*
X120925835Y-103001749D01*
X120946472Y-103158511D01*
X121006978Y-103304586D01*
X121006981Y-103304591D01*
X121062969Y-103377557D01*
X121103235Y-103430032D01*
X121228676Y-103526286D01*
X121228678Y-103526286D01*
X121228680Y-103526288D01*
X121298671Y-103555279D01*
X121374755Y-103586794D01*
X121531517Y-103607432D01*
X121688279Y-103586794D01*
X121834358Y-103526286D01*
X121959799Y-103430032D01*
X122056053Y-103304591D01*
X122116561Y-103158512D01*
X122137199Y-103001750D01*
X125925835Y-103001750D01*
X125946472Y-103158511D01*
X126006978Y-103304586D01*
X126006981Y-103304591D01*
X126062969Y-103377557D01*
X126103235Y-103430032D01*
X126228676Y-103526286D01*
X126228678Y-103526286D01*
X126228680Y-103526288D01*
X126298671Y-103555279D01*
X126374755Y-103586794D01*
X126531517Y-103607432D01*
X126688279Y-103586794D01*
X126834358Y-103526286D01*
X126959799Y-103430032D01*
X127056053Y-103304591D01*
X127116561Y-103158512D01*
X127137199Y-103001750D01*
X127137199Y-103001749D01*
X130925835Y-103001749D01*
X130946472Y-103158511D01*
X131006978Y-103304586D01*
X131006981Y-103304591D01*
X131062969Y-103377557D01*
X131103235Y-103430032D01*
X131228676Y-103526286D01*
X131228678Y-103526286D01*
X131228680Y-103526288D01*
X131298671Y-103555279D01*
X131374755Y-103586794D01*
X131531517Y-103607432D01*
X131688279Y-103586794D01*
X131834358Y-103526286D01*
X131959799Y-103430032D01*
X132056053Y-103304591D01*
X132116561Y-103158512D01*
X132137199Y-103001750D01*
X132116561Y-102844988D01*
X132084793Y-102768293D01*
X132056055Y-102698913D01*
X132056052Y-102698908D01*
X132024497Y-102657785D01*
X131959799Y-102573468D01*
X131942669Y-102560324D01*
X131834358Y-102477214D01*
X131834353Y-102477211D01*
X131688278Y-102416705D01*
X131531517Y-102396068D01*
X131374755Y-102416705D01*
X131228680Y-102477211D01*
X131228675Y-102477214D01*
X131103235Y-102573467D01*
X131103234Y-102573468D01*
X131006981Y-102698908D01*
X131006978Y-102698913D01*
X130946472Y-102844988D01*
X130925835Y-103001749D01*
X127137199Y-103001749D01*
X127116561Y-102844988D01*
X127084793Y-102768293D01*
X127056055Y-102698913D01*
X127056052Y-102698908D01*
X127024497Y-102657785D01*
X126959799Y-102573468D01*
X126942669Y-102560324D01*
X126834358Y-102477214D01*
X126834353Y-102477211D01*
X126688278Y-102416705D01*
X126531517Y-102396068D01*
X126374755Y-102416705D01*
X126228680Y-102477211D01*
X126228675Y-102477214D01*
X126103235Y-102573467D01*
X126103234Y-102573468D01*
X126006981Y-102698908D01*
X126006978Y-102698913D01*
X125946472Y-102844988D01*
X125925835Y-103001750D01*
X122137199Y-103001750D01*
X122116561Y-102844988D01*
X122084793Y-102768293D01*
X122056055Y-102698913D01*
X122056052Y-102698908D01*
X122024497Y-102657785D01*
X121959799Y-102573468D01*
X121942669Y-102560324D01*
X121834358Y-102477214D01*
X121834353Y-102477211D01*
X121688278Y-102416705D01*
X121531517Y-102396068D01*
X121374755Y-102416705D01*
X121228680Y-102477211D01*
X121228675Y-102477214D01*
X121103235Y-102573467D01*
X121103234Y-102573468D01*
X121006981Y-102698908D01*
X121006978Y-102698913D01*
X120946472Y-102844988D01*
X120925835Y-103001749D01*
X117137199Y-103001749D01*
X117116561Y-102844988D01*
X117084793Y-102768293D01*
X117056055Y-102698913D01*
X117056052Y-102698908D01*
X117024497Y-102657785D01*
X116959799Y-102573468D01*
X116942669Y-102560324D01*
X116834358Y-102477214D01*
X116834353Y-102477211D01*
X116688278Y-102416705D01*
X116531517Y-102396068D01*
X116374755Y-102416705D01*
X116228680Y-102477211D01*
X116228675Y-102477214D01*
X116103235Y-102573467D01*
X116103234Y-102573468D01*
X116006981Y-102698908D01*
X116006978Y-102698913D01*
X115946472Y-102844988D01*
X115925835Y-103001750D01*
X115471604Y-103001750D01*
X115474310Y-98001750D01*
X115925835Y-98001750D01*
X115946472Y-98158511D01*
X116006978Y-98304586D01*
X116006981Y-98304591D01*
X116103235Y-98430032D01*
X116228676Y-98526286D01*
X116228678Y-98526286D01*
X116228680Y-98526288D01*
X116336772Y-98571061D01*
X116374755Y-98586794D01*
X116531517Y-98607432D01*
X116688279Y-98586794D01*
X116834358Y-98526286D01*
X116959799Y-98430032D01*
X117056053Y-98304591D01*
X117116561Y-98158512D01*
X117137199Y-98001750D01*
X117137199Y-98001749D01*
X120925835Y-98001749D01*
X120946472Y-98158511D01*
X121006978Y-98304586D01*
X121006981Y-98304591D01*
X121103235Y-98430032D01*
X121228676Y-98526286D01*
X121228678Y-98526286D01*
X121228680Y-98526288D01*
X121336772Y-98571061D01*
X121374755Y-98586794D01*
X121531517Y-98607432D01*
X121688279Y-98586794D01*
X121834358Y-98526286D01*
X121959799Y-98430032D01*
X122056053Y-98304591D01*
X122116561Y-98158512D01*
X122137199Y-98001750D01*
X125925835Y-98001750D01*
X125946472Y-98158511D01*
X126006978Y-98304586D01*
X126006981Y-98304591D01*
X126103235Y-98430032D01*
X126228676Y-98526286D01*
X126228678Y-98526286D01*
X126228680Y-98526288D01*
X126336772Y-98571061D01*
X126374755Y-98586794D01*
X126531517Y-98607432D01*
X126688279Y-98586794D01*
X126834358Y-98526286D01*
X126959799Y-98430032D01*
X127056053Y-98304591D01*
X127116561Y-98158512D01*
X127137199Y-98001750D01*
X127116561Y-97844988D01*
X127084793Y-97768293D01*
X127056055Y-97698913D01*
X127056052Y-97698908D01*
X127024497Y-97657785D01*
X126959799Y-97573468D01*
X126834358Y-97477214D01*
X126834353Y-97477211D01*
X126688278Y-97416705D01*
X126552153Y-97398784D01*
X126531517Y-97396068D01*
X126531516Y-97396068D01*
X126374755Y-97416705D01*
X126228680Y-97477211D01*
X126228675Y-97477214D01*
X126103235Y-97573467D01*
X126103234Y-97573468D01*
X126006981Y-97698908D01*
X126006978Y-97698913D01*
X125946472Y-97844988D01*
X125925835Y-98001750D01*
X122137199Y-98001750D01*
X122116561Y-97844988D01*
X122084793Y-97768293D01*
X122056055Y-97698913D01*
X122056052Y-97698908D01*
X122024497Y-97657785D01*
X121959799Y-97573468D01*
X121834358Y-97477214D01*
X121834353Y-97477211D01*
X121688278Y-97416705D01*
X121552153Y-97398784D01*
X121531517Y-97396068D01*
X121531516Y-97396068D01*
X121374755Y-97416705D01*
X121228680Y-97477211D01*
X121228675Y-97477214D01*
X121103235Y-97573467D01*
X121103234Y-97573468D01*
X121006981Y-97698908D01*
X121006978Y-97698913D01*
X120946472Y-97844988D01*
X120925835Y-98001749D01*
X117137199Y-98001749D01*
X117116561Y-97844988D01*
X117084793Y-97768293D01*
X117056055Y-97698913D01*
X117056052Y-97698908D01*
X117024497Y-97657785D01*
X116959799Y-97573468D01*
X116834358Y-97477214D01*
X116834353Y-97477211D01*
X116688278Y-97416705D01*
X116552153Y-97398784D01*
X116531517Y-97396068D01*
X116531516Y-97396068D01*
X116374755Y-97416705D01*
X116228680Y-97477211D01*
X116228675Y-97477214D01*
X116103235Y-97573467D01*
X116103234Y-97573468D01*
X116006981Y-97698908D01*
X116006978Y-97698913D01*
X115946472Y-97844988D01*
X115925835Y-98001750D01*
X115474310Y-98001750D01*
X115475377Y-96030000D01*
X130254700Y-96030000D01*
X130273866Y-96261305D01*
X130330843Y-96486300D01*
X130330844Y-96486304D01*
X130424074Y-96698846D01*
X130424081Y-96698858D01*
X130551017Y-96893148D01*
X130551019Y-96893150D01*
X130551021Y-96893153D01*
X130606959Y-96953918D01*
X130708218Y-97063915D01*
X130762143Y-97105886D01*
X130891374Y-97206470D01*
X130891381Y-97206474D01*
X130891383Y-97206475D01*
X131095489Y-97316932D01*
X131095491Y-97316932D01*
X131095497Y-97316936D01*
X131315019Y-97392298D01*
X131543951Y-97430500D01*
X131543954Y-97430500D01*
X131776046Y-97430500D01*
X131776049Y-97430500D01*
X132004981Y-97392298D01*
X132224503Y-97316936D01*
X132428626Y-97206470D01*
X132611784Y-97063913D01*
X132768979Y-96893153D01*
X132895924Y-96698849D01*
X132989157Y-96486300D01*
X133046134Y-96261305D01*
X133065300Y-96030000D01*
X133046134Y-95798695D01*
X132989157Y-95573700D01*
X132961769Y-95511263D01*
X132895925Y-95361153D01*
X132895918Y-95361141D01*
X132768982Y-95166851D01*
X132768980Y-95166849D01*
X132768979Y-95166847D01*
X132611784Y-94996087D01*
X132611783Y-94996086D01*
X132611781Y-94996084D01*
X132428630Y-94853533D01*
X132428629Y-94853532D01*
X132428626Y-94853530D01*
X132428621Y-94853527D01*
X132428616Y-94853524D01*
X132224510Y-94743067D01*
X132224504Y-94743064D01*
X132224503Y-94743064D01*
X132100434Y-94700471D01*
X132004982Y-94667702D01*
X131938366Y-94656586D01*
X131776049Y-94629500D01*
X131543951Y-94629500D01*
X131406591Y-94652421D01*
X131315017Y-94667702D01*
X131095499Y-94743063D01*
X131095489Y-94743067D01*
X130891383Y-94853524D01*
X130891369Y-94853533D01*
X130708218Y-94996084D01*
X130551017Y-95166851D01*
X130424081Y-95361141D01*
X130424074Y-95361153D01*
X130330844Y-95573695D01*
X130330843Y-95573701D01*
X130273866Y-95798694D01*
X130263375Y-95925311D01*
X130254700Y-96030000D01*
X115475377Y-96030000D01*
X115476074Y-94743063D01*
X115476146Y-94609472D01*
X115490517Y-94574833D01*
X115525146Y-94560500D01*
X115751756Y-94560500D01*
X115751766Y-94560500D01*
X115782199Y-94557646D01*
X115910382Y-94512793D01*
X116019650Y-94432150D01*
X116100293Y-94322882D01*
X116145146Y-94194699D01*
X116148000Y-94164266D01*
X116148000Y-93810000D01*
X116647501Y-93810000D01*
X116647501Y-94143221D01*
X116657411Y-94211248D01*
X116657411Y-94211249D01*
X116708712Y-94316186D01*
X116708715Y-94316190D01*
X116791309Y-94398784D01*
X116791313Y-94398786D01*
X116896251Y-94450087D01*
X116964279Y-94459999D01*
X117109999Y-94459999D01*
X117109999Y-94459998D01*
X117110000Y-93810000D01*
X117410000Y-93810000D01*
X117410000Y-94459999D01*
X117555721Y-94459999D01*
X117623748Y-94450088D01*
X117623749Y-94450088D01*
X117728686Y-94398787D01*
X117728690Y-94398784D01*
X117811284Y-94316190D01*
X117811286Y-94316186D01*
X117862587Y-94211249D01*
X117862587Y-94211248D01*
X117872500Y-94143220D01*
X117872500Y-93810000D01*
X117410000Y-93810000D01*
X117110000Y-93810000D01*
X116647501Y-93810000D01*
X116148000Y-93810000D01*
X116148000Y-93176779D01*
X116647499Y-93176779D01*
X116647500Y-93510000D01*
X117110000Y-93510000D01*
X117110000Y-92860000D01*
X117410000Y-92860000D01*
X117410000Y-93510000D01*
X117872499Y-93510000D01*
X117872499Y-93176778D01*
X117862588Y-93108751D01*
X117862588Y-93108750D01*
X117811287Y-93003813D01*
X117811284Y-93003809D01*
X117809224Y-93001749D01*
X120925835Y-93001749D01*
X120946472Y-93158511D01*
X121006978Y-93304586D01*
X121006981Y-93304591D01*
X121103235Y-93430032D01*
X121228676Y-93526286D01*
X121228678Y-93526286D01*
X121228680Y-93526288D01*
X121374754Y-93586793D01*
X121374755Y-93586794D01*
X121531517Y-93607432D01*
X121688279Y-93586794D01*
X121834358Y-93526286D01*
X121959799Y-93430032D01*
X122056053Y-93304591D01*
X122116561Y-93158512D01*
X122137199Y-93001750D01*
X125925835Y-93001750D01*
X125946472Y-93158511D01*
X126006978Y-93304586D01*
X126006981Y-93304591D01*
X126103235Y-93430032D01*
X126228676Y-93526286D01*
X126228678Y-93526286D01*
X126228680Y-93526288D01*
X126374754Y-93586793D01*
X126374755Y-93586794D01*
X126531517Y-93607432D01*
X126688279Y-93586794D01*
X126834358Y-93526286D01*
X126959799Y-93430032D01*
X127056053Y-93304591D01*
X127116561Y-93158512D01*
X127137199Y-93001750D01*
X127137199Y-93001749D01*
X130925835Y-93001749D01*
X130946472Y-93158511D01*
X131006978Y-93304586D01*
X131006981Y-93304591D01*
X131103235Y-93430032D01*
X131228676Y-93526286D01*
X131228678Y-93526286D01*
X131228680Y-93526288D01*
X131374754Y-93586793D01*
X131374755Y-93586794D01*
X131531517Y-93607432D01*
X131688279Y-93586794D01*
X131834358Y-93526286D01*
X131959799Y-93430032D01*
X132056053Y-93304591D01*
X132116561Y-93158512D01*
X132137199Y-93001750D01*
X132116561Y-92844988D01*
X132082333Y-92762354D01*
X132056055Y-92698913D01*
X132056052Y-92698908D01*
X132024497Y-92657785D01*
X131959799Y-92573468D01*
X131834358Y-92477214D01*
X131834353Y-92477211D01*
X131688278Y-92416705D01*
X131531517Y-92396068D01*
X131374755Y-92416705D01*
X131228680Y-92477211D01*
X131228675Y-92477214D01*
X131103235Y-92573467D01*
X131103234Y-92573468D01*
X131006981Y-92698908D01*
X131006978Y-92698913D01*
X130946472Y-92844988D01*
X130925835Y-93001749D01*
X127137199Y-93001749D01*
X127116561Y-92844988D01*
X127082333Y-92762354D01*
X127056055Y-92698913D01*
X127056052Y-92698908D01*
X127024497Y-92657785D01*
X126959799Y-92573468D01*
X126834358Y-92477214D01*
X126834353Y-92477211D01*
X126688278Y-92416705D01*
X126531517Y-92396068D01*
X126374755Y-92416705D01*
X126228680Y-92477211D01*
X126228675Y-92477214D01*
X126103235Y-92573467D01*
X126103234Y-92573468D01*
X126006981Y-92698908D01*
X126006978Y-92698913D01*
X125946472Y-92844988D01*
X125925835Y-93001750D01*
X122137199Y-93001750D01*
X122116561Y-92844988D01*
X122082333Y-92762354D01*
X122056055Y-92698913D01*
X122056052Y-92698908D01*
X122024497Y-92657785D01*
X121959799Y-92573468D01*
X121834358Y-92477214D01*
X121834353Y-92477211D01*
X121688278Y-92416705D01*
X121531517Y-92396068D01*
X121374755Y-92416705D01*
X121228680Y-92477211D01*
X121228675Y-92477214D01*
X121103235Y-92573467D01*
X121103234Y-92573468D01*
X121006981Y-92698908D01*
X121006978Y-92698913D01*
X120946472Y-92844988D01*
X120925835Y-93001749D01*
X117809224Y-93001749D01*
X117728690Y-92921215D01*
X117728686Y-92921213D01*
X117623748Y-92869912D01*
X117555721Y-92860000D01*
X117410000Y-92860000D01*
X117110000Y-92860000D01*
X116964278Y-92860000D01*
X116896251Y-92869911D01*
X116896250Y-92869911D01*
X116791313Y-92921212D01*
X116791309Y-92921215D01*
X116708715Y-93003809D01*
X116708713Y-93003813D01*
X116657412Y-93108750D01*
X116657412Y-93108751D01*
X116647499Y-93176779D01*
X116148000Y-93176779D01*
X116148000Y-93155734D01*
X116145146Y-93125301D01*
X116136052Y-93099313D01*
X116100295Y-92997123D01*
X116100291Y-92997114D01*
X116019650Y-92887849D01*
X115910385Y-92807208D01*
X115910376Y-92807204D01*
X115782198Y-92762353D01*
X115751775Y-92759500D01*
X115751766Y-92759500D01*
X115526174Y-92759500D01*
X115491526Y-92745148D01*
X115477174Y-92710500D01*
X115477174Y-92710473D01*
X115479951Y-87579473D01*
X115494322Y-87544833D01*
X115528951Y-87530500D01*
X134621000Y-87530500D01*
X134655648Y-87544852D01*
G37*
%TD.AperFunction*%
%TD*%
%TA.AperFunction,Conductor*%
%TO.N,Net-(J1-Pin_1)*%
G36*
X114473039Y-87550185D02*
G01*
X114518794Y-87602989D01*
X114530000Y-87654500D01*
X114529999Y-92536795D01*
X114510314Y-92603834D01*
X114457510Y-92649589D01*
X114388352Y-92659533D01*
X114324796Y-92630508D01*
X114318318Y-92624476D01*
X114303499Y-92609657D01*
X114303498Y-92609656D01*
X114185372Y-92536795D01*
X114153831Y-92517340D01*
X114153824Y-92517337D01*
X113986901Y-92462025D01*
X113986902Y-92462025D01*
X113883876Y-92451500D01*
X113296132Y-92451500D01*
X113296116Y-92451501D01*
X113193094Y-92462026D01*
X113026173Y-92517338D01*
X113026168Y-92517340D01*
X112876500Y-92609657D01*
X112752155Y-92734002D01*
X112749763Y-92737028D01*
X112747594Y-92738563D01*
X112747049Y-92739109D01*
X112746955Y-92739015D01*
X112692740Y-92777402D01*
X112622941Y-92780538D01*
X112562526Y-92745440D01*
X112555237Y-92737028D01*
X112552844Y-92734002D01*
X112428499Y-92609657D01*
X112428498Y-92609656D01*
X112310372Y-92536795D01*
X112278831Y-92517340D01*
X112278824Y-92517337D01*
X112111901Y-92462025D01*
X112111902Y-92462025D01*
X112008876Y-92451500D01*
X111421132Y-92451500D01*
X111421116Y-92451501D01*
X111318094Y-92462026D01*
X111151173Y-92517338D01*
X111151168Y-92517340D01*
X111001500Y-92609657D01*
X110877157Y-92734000D01*
X110784840Y-92883668D01*
X110784837Y-92883675D01*
X110729525Y-93050597D01*
X110719000Y-93153617D01*
X110719000Y-94166367D01*
X110719001Y-94166383D01*
X110729017Y-94264426D01*
X110729526Y-94269404D01*
X110784839Y-94436329D01*
X110813038Y-94482047D01*
X110831500Y-94547143D01*
X110831500Y-95034137D01*
X110825432Y-95072453D01*
X110816458Y-95100070D01*
X110816457Y-95100072D01*
X110816458Y-95100072D01*
X110796496Y-95290000D01*
X110816458Y-95479928D01*
X110816459Y-95479931D01*
X110875470Y-95661549D01*
X110875473Y-95661556D01*
X110970960Y-95826944D01*
X111098747Y-95968866D01*
X111253248Y-96081118D01*
X111427712Y-96158794D01*
X111614513Y-96198500D01*
X111805487Y-96198500D01*
X111992288Y-96158794D01*
X112166752Y-96081118D01*
X112321253Y-95968866D01*
X112449040Y-95826944D01*
X112544527Y-95661556D01*
X112603542Y-95479928D01*
X112623504Y-95290000D01*
X112603542Y-95100072D01*
X112603540Y-95100066D01*
X112602190Y-95093714D01*
X112603031Y-95093535D01*
X112598500Y-95064915D01*
X112598500Y-94731704D01*
X112618185Y-94664665D01*
X112670989Y-94618910D01*
X112740147Y-94608966D01*
X112803703Y-94637991D01*
X112810181Y-94644023D01*
X112876502Y-94710344D01*
X113026171Y-94802661D01*
X113193096Y-94857974D01*
X113296125Y-94868500D01*
X113883874Y-94868499D01*
X113986904Y-94857974D01*
X114153829Y-94802661D01*
X114303498Y-94710344D01*
X114318319Y-94695522D01*
X114379639Y-94662037D01*
X114449331Y-94667020D01*
X114505265Y-94708890D01*
X114529684Y-94774354D01*
X114530000Y-94783203D01*
X114530000Y-124316000D01*
X114510315Y-124383039D01*
X114457511Y-124428794D01*
X114406000Y-124440000D01*
X102644500Y-124440000D01*
X102577461Y-124420315D01*
X102531706Y-124367511D01*
X102520500Y-124316000D01*
X102520500Y-123001750D01*
X105618013Y-123001750D01*
X105637975Y-123191678D01*
X105637976Y-123191681D01*
X105696987Y-123373299D01*
X105696990Y-123373306D01*
X105792477Y-123538694D01*
X105920264Y-123680616D01*
X106074765Y-123792868D01*
X106249229Y-123870544D01*
X106436030Y-123910250D01*
X106627004Y-123910250D01*
X106813805Y-123870544D01*
X106988269Y-123792868D01*
X107142770Y-123680616D01*
X107270557Y-123538694D01*
X107366044Y-123373306D01*
X107425059Y-123191678D01*
X107445021Y-123001750D01*
X107425059Y-122811822D01*
X107366044Y-122630194D01*
X107270557Y-122464806D01*
X107142770Y-122322884D01*
X106988269Y-122210632D01*
X106813805Y-122132956D01*
X106813803Y-122132955D01*
X106627004Y-122093250D01*
X106436030Y-122093250D01*
X106249231Y-122132955D01*
X106074763Y-122210633D01*
X105920262Y-122322885D01*
X105792476Y-122464807D01*
X105696990Y-122630193D01*
X105696987Y-122630200D01*
X105637976Y-122811818D01*
X105637975Y-122811822D01*
X105618013Y-123001750D01*
X102520500Y-123001750D01*
X102520500Y-121575361D01*
X102540185Y-121508322D01*
X102592989Y-121462567D01*
X102662147Y-121452623D01*
X102725703Y-121481648D01*
X102746429Y-121504745D01*
X102801565Y-121584330D01*
X102801569Y-121584335D01*
X102960664Y-121743430D01*
X102960676Y-121743440D01*
X103145619Y-121871568D01*
X103145625Y-121871571D01*
X103350480Y-121964622D01*
X103568667Y-122019599D01*
X103700807Y-122030000D01*
X104264999Y-122029999D01*
X104265000Y-122029998D01*
X104265000Y-121141386D01*
X104284685Y-121074347D01*
X104337489Y-121028592D01*
X104406647Y-121018648D01*
X104413942Y-121019920D01*
X104414327Y-121020000D01*
X104414332Y-121020000D01*
X104565210Y-121020000D01*
X104565211Y-121020000D01*
X104628455Y-121013568D01*
X104697140Y-121026369D01*
X104748002Y-121074272D01*
X104764999Y-121136932D01*
X104764999Y-122029998D01*
X104765000Y-122029999D01*
X105329192Y-122029999D01*
X105461332Y-122019599D01*
X105679519Y-121964622D01*
X105884374Y-121871571D01*
X105884380Y-121871568D01*
X106069323Y-121743440D01*
X106069335Y-121743430D01*
X106228430Y-121584335D01*
X106228440Y-121584323D01*
X106356568Y-121399380D01*
X106356571Y-121399374D01*
X106449622Y-121194519D01*
X106504599Y-120976332D01*
X106515000Y-120844194D01*
X106515000Y-120280000D01*
X105624042Y-120280000D01*
X105557003Y-120260315D01*
X105511248Y-120207511D01*
X105500201Y-120149720D01*
X105500835Y-120137223D01*
X105508829Y-119979599D01*
X105500124Y-119922776D01*
X105509430Y-119853530D01*
X105554696Y-119800307D01*
X105621552Y-119780005D01*
X105622694Y-119780000D01*
X106514999Y-119780000D01*
X110135000Y-119780000D01*
X111025958Y-119780000D01*
X111092997Y-119799685D01*
X111138752Y-119852489D01*
X111149798Y-119910278D01*
X111146283Y-119979598D01*
X111141171Y-120080401D01*
X111149876Y-120137223D01*
X111140570Y-120206470D01*
X111095304Y-120259693D01*
X111028448Y-120279995D01*
X111027306Y-120280000D01*
X110135001Y-120280000D01*
X110135001Y-120844192D01*
X110145400Y-120976332D01*
X110200377Y-121194519D01*
X110293428Y-121399374D01*
X110293431Y-121399380D01*
X110421559Y-121584323D01*
X110421569Y-121584335D01*
X110580664Y-121743430D01*
X110580676Y-121743440D01*
X110765619Y-121871568D01*
X110765625Y-121871571D01*
X110970481Y-121964622D01*
X111043172Y-121982938D01*
X111103370Y-122018406D01*
X111134837Y-122080789D01*
X111127581Y-122150281D01*
X111083908Y-122204818D01*
X111074891Y-122210558D01*
X111074774Y-122210625D01*
X110920262Y-122322885D01*
X110792476Y-122464807D01*
X110696990Y-122630193D01*
X110696987Y-122630200D01*
X110637976Y-122811818D01*
X110637975Y-122811822D01*
X110618013Y-123001750D01*
X110637975Y-123191678D01*
X110637976Y-123191681D01*
X110696987Y-123373299D01*
X110696990Y-123373306D01*
X110792477Y-123538694D01*
X110920264Y-123680616D01*
X111074765Y-123792868D01*
X111249229Y-123870544D01*
X111436030Y-123910250D01*
X111627004Y-123910250D01*
X111813805Y-123870544D01*
X111988269Y-123792868D01*
X112142770Y-123680616D01*
X112270557Y-123538694D01*
X112366044Y-123373306D01*
X112425059Y-123191678D01*
X112445021Y-123001750D01*
X112425059Y-122811822D01*
X112366044Y-122630194D01*
X112270557Y-122464806D01*
X112142770Y-122322884D01*
X111988269Y-122210632D01*
X111956648Y-122196553D01*
X111903413Y-122151305D01*
X111883091Y-122084455D01*
X111884999Y-122077716D01*
X111884999Y-121141386D01*
X111904683Y-121074347D01*
X111957487Y-121028592D01*
X112026646Y-121018648D01*
X112033970Y-121019926D01*
X112034327Y-121020000D01*
X112185210Y-121020000D01*
X112185211Y-121020000D01*
X112248455Y-121013568D01*
X112317140Y-121026369D01*
X112368002Y-121074272D01*
X112384999Y-121136932D01*
X112384999Y-122029998D01*
X112385000Y-122029999D01*
X112949192Y-122029999D01*
X113081332Y-122019599D01*
X113299519Y-121964622D01*
X113504374Y-121871571D01*
X113504380Y-121871568D01*
X113689323Y-121743440D01*
X113689335Y-121743430D01*
X113848430Y-121584335D01*
X113848440Y-121584323D01*
X113976568Y-121399380D01*
X113976571Y-121399374D01*
X114069622Y-121194519D01*
X114124599Y-120976332D01*
X114135000Y-120844194D01*
X114135000Y-120280000D01*
X113244042Y-120280000D01*
X113177003Y-120260315D01*
X113131248Y-120207511D01*
X113120201Y-120149720D01*
X113120835Y-120137223D01*
X113128829Y-119979599D01*
X113120124Y-119922776D01*
X113129430Y-119853530D01*
X113174696Y-119800307D01*
X113241552Y-119780005D01*
X113242694Y-119780000D01*
X114134999Y-119780000D01*
X114134999Y-119215808D01*
X114124599Y-119083667D01*
X114069622Y-118865480D01*
X113976571Y-118660625D01*
X113976568Y-118660619D01*
X113848440Y-118475676D01*
X113848430Y-118475664D01*
X113689335Y-118316569D01*
X113689323Y-118316559D01*
X113504380Y-118188431D01*
X113504374Y-118188428D01*
X113299519Y-118095377D01*
X113081332Y-118040400D01*
X112949194Y-118030000D01*
X112385000Y-118030000D01*
X112385000Y-118918613D01*
X112365315Y-118985652D01*
X112312511Y-119031407D01*
X112243353Y-119041351D01*
X112236045Y-119040076D01*
X112235675Y-119040000D01*
X112235673Y-119040000D01*
X112084789Y-119040000D01*
X112084788Y-119040000D01*
X112021545Y-119046431D01*
X111952858Y-119033629D01*
X111901996Y-118985725D01*
X111885000Y-118923067D01*
X111885000Y-118030000D01*
X111884999Y-118030000D01*
X111320808Y-118030001D01*
X111188667Y-118040400D01*
X110970480Y-118095377D01*
X110765625Y-118188428D01*
X110765619Y-118188431D01*
X110580676Y-118316559D01*
X110580664Y-118316569D01*
X110421569Y-118475664D01*
X110421559Y-118475676D01*
X110293431Y-118660619D01*
X110293428Y-118660625D01*
X110200377Y-118865480D01*
X110145400Y-119083667D01*
X110135000Y-119215806D01*
X110135000Y-119780000D01*
X106514999Y-119780000D01*
X106514999Y-119215808D01*
X106504599Y-119083667D01*
X106449622Y-118865480D01*
X106356571Y-118660625D01*
X106356568Y-118660619D01*
X106228440Y-118475676D01*
X106228430Y-118475664D01*
X106069335Y-118316569D01*
X106069323Y-118316559D01*
X105884380Y-118188431D01*
X105884374Y-118188428D01*
X105679519Y-118095377D01*
X105461332Y-118040400D01*
X105329194Y-118030000D01*
X104764999Y-118030000D01*
X104764999Y-118918613D01*
X104745314Y-118985652D01*
X104692510Y-119031407D01*
X104623352Y-119041351D01*
X104616040Y-119040075D01*
X104615675Y-119040000D01*
X104615673Y-119040000D01*
X104464789Y-119040000D01*
X104464788Y-119040000D01*
X104401545Y-119046431D01*
X104332858Y-119033629D01*
X104281996Y-118985725D01*
X104265000Y-118923067D01*
X104265000Y-118030000D01*
X104264999Y-118030000D01*
X103700808Y-118030001D01*
X103568667Y-118040400D01*
X103350480Y-118095377D01*
X103145625Y-118188428D01*
X103145619Y-118188431D01*
X102960676Y-118316559D01*
X102960664Y-118316569D01*
X102801569Y-118475664D01*
X102801559Y-118475676D01*
X102746428Y-118555254D01*
X102692070Y-118599151D01*
X102622608Y-118606690D01*
X102560097Y-118575479D01*
X102524383Y-118515427D01*
X102520500Y-118484638D01*
X102520500Y-113001750D01*
X105618013Y-113001750D01*
X105637975Y-113191678D01*
X105637976Y-113191681D01*
X105696987Y-113373299D01*
X105696990Y-113373306D01*
X105792477Y-113538694D01*
X105920264Y-113680616D01*
X106074765Y-113792868D01*
X106249229Y-113870544D01*
X106436030Y-113910250D01*
X106627004Y-113910250D01*
X106813805Y-113870544D01*
X106988269Y-113792868D01*
X107142770Y-113680616D01*
X107270557Y-113538694D01*
X107366044Y-113373306D01*
X107425059Y-113191678D01*
X107445021Y-113001750D01*
X110618013Y-113001750D01*
X110637975Y-113191678D01*
X110637976Y-113191681D01*
X110696987Y-113373299D01*
X110696990Y-113373306D01*
X110792477Y-113538694D01*
X110920264Y-113680616D01*
X111074765Y-113792868D01*
X111249229Y-113870544D01*
X111436030Y-113910250D01*
X111627004Y-113910250D01*
X111813805Y-113870544D01*
X111988269Y-113792868D01*
X112142770Y-113680616D01*
X112270557Y-113538694D01*
X112366044Y-113373306D01*
X112425059Y-113191678D01*
X112445021Y-113001750D01*
X112425059Y-112811822D01*
X112366044Y-112630194D01*
X112270557Y-112464806D01*
X112142770Y-112322884D01*
X111988269Y-112210632D01*
X111813805Y-112132956D01*
X111813803Y-112132955D01*
X111627004Y-112093250D01*
X111436030Y-112093250D01*
X111249231Y-112132955D01*
X111074763Y-112210633D01*
X110920262Y-112322885D01*
X110792476Y-112464807D01*
X110696990Y-112630193D01*
X110696987Y-112630200D01*
X110637976Y-112811818D01*
X110637975Y-112811822D01*
X110618013Y-113001750D01*
X107445021Y-113001750D01*
X107425059Y-112811822D01*
X107366044Y-112630194D01*
X107270557Y-112464806D01*
X107142770Y-112322884D01*
X106988269Y-112210632D01*
X106813805Y-112132956D01*
X106813803Y-112132955D01*
X106627004Y-112093250D01*
X106436030Y-112093250D01*
X106249231Y-112132955D01*
X106074763Y-112210633D01*
X105920262Y-112322885D01*
X105792476Y-112464807D01*
X105696990Y-112630193D01*
X105696987Y-112630200D01*
X105637976Y-112811818D01*
X105637975Y-112811822D01*
X105618013Y-113001750D01*
X102520500Y-113001750D01*
X102520500Y-108001750D01*
X105618013Y-108001750D01*
X105637975Y-108191678D01*
X105637976Y-108191681D01*
X105696987Y-108373299D01*
X105696990Y-108373306D01*
X105792477Y-108538694D01*
X105920264Y-108680616D01*
X106074765Y-108792868D01*
X106249229Y-108870544D01*
X106436030Y-108910250D01*
X106627004Y-108910250D01*
X106813805Y-108870544D01*
X106988269Y-108792868D01*
X107142770Y-108680616D01*
X107270557Y-108538694D01*
X107366044Y-108373306D01*
X107425059Y-108191678D01*
X107445021Y-108001750D01*
X110618013Y-108001750D01*
X110637975Y-108191678D01*
X110637976Y-108191681D01*
X110696987Y-108373299D01*
X110696990Y-108373306D01*
X110792477Y-108538694D01*
X110920264Y-108680616D01*
X111074765Y-108792868D01*
X111249229Y-108870544D01*
X111436030Y-108910250D01*
X111627004Y-108910250D01*
X111813805Y-108870544D01*
X111988269Y-108792868D01*
X112142770Y-108680616D01*
X112270557Y-108538694D01*
X112366044Y-108373306D01*
X112425059Y-108191678D01*
X112445021Y-108001750D01*
X112425059Y-107811822D01*
X112366044Y-107630194D01*
X112270557Y-107464806D01*
X112142770Y-107322884D01*
X111988269Y-107210632D01*
X111813805Y-107132956D01*
X111813803Y-107132955D01*
X111627004Y-107093250D01*
X111436030Y-107093250D01*
X111249231Y-107132955D01*
X111074763Y-107210633D01*
X110920262Y-107322885D01*
X110792476Y-107464807D01*
X110696990Y-107630193D01*
X110696987Y-107630200D01*
X110637976Y-107811818D01*
X110637975Y-107811822D01*
X110618013Y-108001750D01*
X107445021Y-108001750D01*
X107425059Y-107811822D01*
X107366044Y-107630194D01*
X107270557Y-107464806D01*
X107142770Y-107322884D01*
X106988269Y-107210632D01*
X106813805Y-107132956D01*
X106813803Y-107132955D01*
X106627004Y-107093250D01*
X106436030Y-107093250D01*
X106249231Y-107132955D01*
X106074763Y-107210633D01*
X105920262Y-107322885D01*
X105792476Y-107464807D01*
X105696990Y-107630193D01*
X105696987Y-107630200D01*
X105637976Y-107811818D01*
X105637975Y-107811822D01*
X105618013Y-108001750D01*
X102520500Y-108001750D01*
X102520500Y-103001750D01*
X105618013Y-103001750D01*
X105637975Y-103191678D01*
X105637976Y-103191681D01*
X105696987Y-103373299D01*
X105696990Y-103373306D01*
X105792477Y-103538694D01*
X105920264Y-103680616D01*
X106074765Y-103792868D01*
X106249229Y-103870544D01*
X106436030Y-103910250D01*
X106627004Y-103910250D01*
X106813805Y-103870544D01*
X106988269Y-103792868D01*
X107142770Y-103680616D01*
X107270557Y-103538694D01*
X107366044Y-103373306D01*
X107425059Y-103191678D01*
X107445021Y-103001750D01*
X110618013Y-103001750D01*
X110637975Y-103191678D01*
X110637976Y-103191681D01*
X110696987Y-103373299D01*
X110696990Y-103373306D01*
X110792477Y-103538694D01*
X110920264Y-103680616D01*
X111074765Y-103792868D01*
X111249229Y-103870544D01*
X111436030Y-103910250D01*
X111627004Y-103910250D01*
X111813805Y-103870544D01*
X111988269Y-103792868D01*
X112142770Y-103680616D01*
X112270557Y-103538694D01*
X112366044Y-103373306D01*
X112425059Y-103191678D01*
X112445021Y-103001750D01*
X112425059Y-102811822D01*
X112366044Y-102630194D01*
X112270557Y-102464806D01*
X112142770Y-102322884D01*
X111988269Y-102210632D01*
X111813805Y-102132956D01*
X111813803Y-102132955D01*
X111627004Y-102093250D01*
X111436030Y-102093250D01*
X111249231Y-102132955D01*
X111074763Y-102210633D01*
X110920262Y-102322885D01*
X110792476Y-102464807D01*
X110696990Y-102630193D01*
X110696987Y-102630200D01*
X110637976Y-102811818D01*
X110637975Y-102811822D01*
X110618013Y-103001750D01*
X107445021Y-103001750D01*
X107425059Y-102811822D01*
X107366044Y-102630194D01*
X107270557Y-102464806D01*
X107142770Y-102322884D01*
X106988269Y-102210632D01*
X106813805Y-102132956D01*
X106813803Y-102132955D01*
X106627004Y-102093250D01*
X106436030Y-102093250D01*
X106249231Y-102132955D01*
X106074763Y-102210633D01*
X105920262Y-102322885D01*
X105792476Y-102464807D01*
X105696990Y-102630193D01*
X105696987Y-102630200D01*
X105637976Y-102811818D01*
X105637975Y-102811822D01*
X105618013Y-103001750D01*
X102520500Y-103001750D01*
X102520500Y-98001750D01*
X110618013Y-98001750D01*
X110637975Y-98191678D01*
X110637976Y-98191681D01*
X110696987Y-98373299D01*
X110696990Y-98373306D01*
X110792477Y-98538694D01*
X110920264Y-98680616D01*
X111074765Y-98792868D01*
X111249229Y-98870544D01*
X111436030Y-98910250D01*
X111627004Y-98910250D01*
X111813805Y-98870544D01*
X111988269Y-98792868D01*
X112142770Y-98680616D01*
X112270557Y-98538694D01*
X112366044Y-98373306D01*
X112425059Y-98191678D01*
X112445021Y-98001750D01*
X112425059Y-97811822D01*
X112366044Y-97630194D01*
X112270557Y-97464806D01*
X112142770Y-97322884D01*
X111988269Y-97210632D01*
X111813805Y-97132956D01*
X111813803Y-97132955D01*
X111627004Y-97093250D01*
X111436030Y-97093250D01*
X111249231Y-97132955D01*
X111074763Y-97210633D01*
X110920262Y-97322885D01*
X110792476Y-97464807D01*
X110696990Y-97630193D01*
X110696987Y-97630200D01*
X110637976Y-97811818D01*
X110637975Y-97811822D01*
X110618013Y-98001750D01*
X102520500Y-98001750D01*
X102520500Y-93680000D01*
X104906681Y-93680000D01*
X104925927Y-93924554D01*
X104983193Y-94163087D01*
X104983194Y-94163091D01*
X104983195Y-94163092D01*
X104984558Y-94166383D01*
X105077072Y-94389730D01*
X105191279Y-94576102D01*
X105209523Y-94643548D01*
X105188406Y-94710150D01*
X105159863Y-94740157D01*
X105062809Y-94812812D01*
X104976649Y-94927906D01*
X104976645Y-94927913D01*
X104926403Y-95062620D01*
X104926401Y-95062627D01*
X104920000Y-95122155D01*
X104920000Y-95970000D01*
X105803044Y-95970000D01*
X105870083Y-95989685D01*
X105915838Y-96042489D01*
X105926755Y-96102463D01*
X105926441Y-96107045D01*
X105926441Y-96107047D01*
X105916123Y-96257886D01*
X105929191Y-96320772D01*
X105923557Y-96390414D01*
X105881166Y-96445955D01*
X105815477Y-96469761D01*
X105807784Y-96470000D01*
X104920000Y-96470000D01*
X104920000Y-97317844D01*
X104926401Y-97377372D01*
X104926403Y-97377379D01*
X104976645Y-97512086D01*
X104976649Y-97512093D01*
X105062809Y-97627187D01*
X105062812Y-97627190D01*
X105177906Y-97713350D01*
X105177913Y-97713354D01*
X105312620Y-97763596D01*
X105312627Y-97763598D01*
X105372155Y-97769999D01*
X105372172Y-97770000D01*
X106220000Y-97770000D01*
X106220000Y-96884652D01*
X106239685Y-96817613D01*
X106292489Y-96771858D01*
X106361647Y-96761914D01*
X106377447Y-96765248D01*
X106394404Y-96770000D01*
X106394406Y-96770000D01*
X106507622Y-96770000D01*
X106579116Y-96760173D01*
X106648210Y-96770545D01*
X106700729Y-96816627D01*
X106720000Y-96883018D01*
X106720000Y-97770000D01*
X107567828Y-97770000D01*
X107567844Y-97769999D01*
X107627372Y-97763598D01*
X107627379Y-97763596D01*
X107762086Y-97713354D01*
X107762093Y-97713350D01*
X107877187Y-97627190D01*
X107877190Y-97627187D01*
X107963350Y-97512093D01*
X107963354Y-97512086D01*
X108013596Y-97377379D01*
X108013598Y-97377372D01*
X108019999Y-97317844D01*
X108020000Y-97317827D01*
X108020000Y-96470000D01*
X107136956Y-96470000D01*
X107069917Y-96450315D01*
X107024162Y-96397511D01*
X107013245Y-96337537D01*
X107014392Y-96320772D01*
X107023877Y-96182114D01*
X107010809Y-96119227D01*
X107016443Y-96049586D01*
X107058834Y-95994045D01*
X107124523Y-95970239D01*
X107132216Y-95970000D01*
X108020000Y-95970000D01*
X108020000Y-95122172D01*
X108019999Y-95122155D01*
X108013598Y-95062627D01*
X108013596Y-95062620D01*
X107963354Y-94927913D01*
X107963350Y-94927906D01*
X107877190Y-94812812D01*
X107877187Y-94812809D01*
X107780137Y-94740157D01*
X107738266Y-94684223D01*
X107733282Y-94614532D01*
X107748720Y-94576102D01*
X107862927Y-94389732D01*
X107956805Y-94163092D01*
X108014072Y-93924557D01*
X108033319Y-93680000D01*
X108014072Y-93435443D01*
X107956805Y-93196908D01*
X107896200Y-93050596D01*
X107862928Y-92970269D01*
X107744739Y-92777402D01*
X107734752Y-92761104D01*
X107575433Y-92574567D01*
X107388896Y-92415248D01*
X107388893Y-92415246D01*
X107179730Y-92287071D01*
X106953087Y-92193193D01*
X106714553Y-92135927D01*
X106714554Y-92135927D01*
X106470000Y-92116681D01*
X106225445Y-92135927D01*
X105986912Y-92193193D01*
X105760269Y-92287071D01*
X105551106Y-92415246D01*
X105364567Y-92574567D01*
X105205246Y-92761106D01*
X105077071Y-92970269D01*
X104983193Y-93196912D01*
X104925927Y-93435445D01*
X104906681Y-93680000D01*
X102520500Y-93680000D01*
X102520500Y-87654500D01*
X102540185Y-87587461D01*
X102592989Y-87541706D01*
X102644500Y-87530500D01*
X114406000Y-87530500D01*
X114473039Y-87550185D01*
G37*
%TD.AperFunction*%
%TD*%
M02*
