%TF.GenerationSoftware,KiCad,Pcbnew,7.0.7*%
%TF.CreationDate,2023-09-13T14:26:25-04:00*%
%TF.ProjectId,Alim12,416c696d-3132-42e6-9b69-6361645f7063,rev?*%
%TF.SameCoordinates,Original*%
%TF.FileFunction,Copper,L3,Inr*%
%TF.FilePolarity,Positive*%
%FSLAX46Y46*%
G04 Gerber Fmt 4.6, Leading zero omitted, Abs format (unit mm)*
G04 Created by KiCad (PCBNEW 7.0.7) date 2023-09-13 14:26:25*
%MOMM*%
%LPD*%
G01*
G04 APERTURE LIST*
G04 Aperture macros list*
%AMRoundRect*
0 Rectangle with rounded corners*
0 $1 Rounding radius*
0 $2 $3 $4 $5 $6 $7 $8 $9 X,Y pos of 4 corners*
0 Add a 4 corners polygon primitive as box body*
4,1,4,$2,$3,$4,$5,$6,$7,$8,$9,$2,$3,0*
0 Add four circle primitives for the rounded corners*
1,1,$1+$1,$2,$3*
1,1,$1+$1,$4,$5*
1,1,$1+$1,$6,$7*
1,1,$1+$1,$8,$9*
0 Add four rect primitives between the rounded corners*
20,1,$1+$1,$2,$3,$4,$5,0*
20,1,$1+$1,$4,$5,$6,$7,0*
20,1,$1+$1,$6,$7,$8,$9,0*
20,1,$1+$1,$8,$9,$2,$3,0*%
G04 Aperture macros list end*
%TA.AperFunction,ComponentPad*%
%ADD10R,2.400000X2.400000*%
%TD*%
%TA.AperFunction,ComponentPad*%
%ADD11C,2.400000*%
%TD*%
%TA.AperFunction,ComponentPad*%
%ADD12R,2.100000X2.100000*%
%TD*%
%TA.AperFunction,ComponentPad*%
%ADD13C,2.100000*%
%TD*%
%TA.AperFunction,ComponentPad*%
%ADD14C,1.524000*%
%TD*%
%TA.AperFunction,ComponentPad*%
%ADD15RoundRect,0.750000X-0.750000X-0.750000X0.750000X-0.750000X0.750000X0.750000X-0.750000X0.750000X0*%
%TD*%
%TA.AperFunction,ComponentPad*%
%ADD16C,3.000000*%
%TD*%
%TA.AperFunction,ComponentPad*%
%ADD17R,3.200000X3.200000*%
%TD*%
%TA.AperFunction,ComponentPad*%
%ADD18O,3.200000X3.200000*%
%TD*%
%TA.AperFunction,ComponentPad*%
%ADD19R,1.200000X1.200000*%
%TD*%
%TA.AperFunction,ComponentPad*%
%ADD20C,1.200000*%
%TD*%
%TA.AperFunction,ViaPad*%
%ADD21C,0.800000*%
%TD*%
G04 APERTURE END LIST*
D10*
%TO.N,Net-(D1-K)*%
%TO.C,C3*%
X139160000Y-96030000D03*
D11*
%TO.N,GND*%
X131660000Y-96030000D03*
%TD*%
D12*
%TO.N,Net-(D1-K)*%
%TO.C,J3*%
X174820000Y-94090000D03*
D13*
%TO.N,GND*%
X174820000Y-96630000D03*
%TD*%
D10*
%TO.N,Net-(U1-VCC)*%
%TO.C,C1*%
X124350000Y-108830000D03*
D11*
%TO.N,GND*%
X129350000Y-108830000D03*
%TD*%
D14*
%TO.N,Net-(U1-Ipk_Sense)*%
%TO.C,L1*%
X165530000Y-122370000D03*
%TO.N,Net-(D1-A)*%
X165530000Y-104590000D03*
%TD*%
D12*
%TO.N,Net-(J1-Pin_1)*%
%TO.C,J1*%
X106470000Y-96220000D03*
D13*
%TO.N,GND*%
X106470000Y-93680000D03*
%TD*%
D15*
%TO.N,Net-(J1-Pin_1)*%
%TO.C,F1*%
X104515000Y-120030000D03*
X112135000Y-120030000D03*
D16*
%TO.N,Net-(U1-VCC)*%
X131105000Y-120030000D03*
X138725000Y-120030000D03*
%TD*%
D17*
%TO.N,Net-(D1-K)*%
%TO.C,D1*%
X149820000Y-94970000D03*
D18*
%TO.N,Net-(D1-A)*%
X165060000Y-94970000D03*
%TD*%
D19*
%TO.N,Net-(U1-timing_capacitor)*%
%TO.C,C2*%
X137490000Y-111832599D03*
D20*
%TO.N,GND*%
X137490000Y-109832599D03*
%TD*%
D21*
%TO.N,GND*%
X176531517Y-123001750D03*
X176531517Y-118001750D03*
X176531517Y-113001750D03*
X176531517Y-108001750D03*
X176531517Y-103001750D03*
X171531517Y-123001750D03*
X171531517Y-118001750D03*
X171531517Y-113001750D03*
X171531517Y-108001750D03*
X171531517Y-103001750D03*
X171531517Y-98001750D03*
X171531517Y-93001750D03*
X166531517Y-118001750D03*
X166531517Y-113001750D03*
X166531517Y-108001750D03*
X166531517Y-98001750D03*
X161531517Y-123001750D03*
X161531517Y-118001750D03*
X161531517Y-113001750D03*
X161531517Y-108001750D03*
X161531517Y-103001750D03*
X161531517Y-98001750D03*
X161531517Y-93001750D03*
X156531517Y-123001750D03*
X156531517Y-118001750D03*
X156531517Y-113001750D03*
X156531517Y-108001750D03*
X156531517Y-103001750D03*
X156531517Y-98001750D03*
X156531517Y-93001750D03*
X151531517Y-123001750D03*
X151531517Y-118001750D03*
X151531517Y-103001750D03*
X151531517Y-98001750D03*
X146531517Y-123001750D03*
X146531517Y-118001750D03*
X146531517Y-113001750D03*
X146531517Y-98001750D03*
X146531517Y-93001750D03*
X141531517Y-123001750D03*
X141531517Y-118001750D03*
X141531517Y-98001750D03*
X141531517Y-93001750D03*
X136531517Y-123001750D03*
X136531517Y-118001750D03*
X136531517Y-108001750D03*
X136531517Y-103001750D03*
X136531517Y-98001750D03*
X136531517Y-93001750D03*
X131531517Y-123001750D03*
X131531517Y-113001750D03*
X131531517Y-108001750D03*
X131531517Y-103001750D03*
X131531517Y-93001750D03*
X126531517Y-123001750D03*
X126531517Y-118001750D03*
X126531517Y-113001750D03*
X126531517Y-108001750D03*
X126531517Y-103001750D03*
X126531517Y-98001750D03*
X126531517Y-93001750D03*
X121531517Y-123001750D03*
X121531517Y-118001750D03*
X121531517Y-113001750D03*
X121531517Y-108001750D03*
X121531517Y-103001750D03*
X121531517Y-98001750D03*
X121531517Y-93001750D03*
X116531517Y-123001750D03*
X116531517Y-118001750D03*
X116531517Y-113001750D03*
X116531517Y-108001750D03*
X116531517Y-103001750D03*
X116531517Y-98001750D03*
X111531517Y-123001750D03*
X111531517Y-113001750D03*
X111531517Y-108001750D03*
X111531517Y-103001750D03*
X111531517Y-98001750D03*
X106531517Y-123001750D03*
X106531517Y-113001750D03*
X106531517Y-108001750D03*
X106531517Y-103001750D03*
X149200000Y-108990000D03*
X143540000Y-106450000D03*
X149190000Y-107720000D03*
X111710000Y-95290000D03*
X143530000Y-108990000D03*
X149200000Y-106450000D03*
X143540000Y-110260000D03*
X149200000Y-110260000D03*
X148570000Y-102460000D03*
%TD*%
%TA.AperFunction,Conductor*%
%TO.N,Net-(D1-K)*%
G36*
X178682539Y-87550185D02*
G01*
X178728294Y-87602989D01*
X178739500Y-87654500D01*
X178739500Y-124326000D01*
X178719815Y-124393039D01*
X178667011Y-124438794D01*
X178615500Y-124450000D01*
X102654000Y-124450000D01*
X102586961Y-124430315D01*
X102541206Y-124377511D01*
X102530000Y-124326000D01*
X102530000Y-123001750D01*
X105618013Y-123001750D01*
X105637975Y-123191678D01*
X105637976Y-123191681D01*
X105696987Y-123373299D01*
X105696990Y-123373306D01*
X105792477Y-123538694D01*
X105920264Y-123680616D01*
X106074765Y-123792868D01*
X106249229Y-123870544D01*
X106436030Y-123910250D01*
X106627004Y-123910250D01*
X106813805Y-123870544D01*
X106988269Y-123792868D01*
X107142770Y-123680616D01*
X107270557Y-123538694D01*
X107366044Y-123373306D01*
X107425059Y-123191678D01*
X107445021Y-123001750D01*
X107425059Y-122811822D01*
X107366044Y-122630194D01*
X107270557Y-122464806D01*
X107142770Y-122322884D01*
X106988269Y-122210632D01*
X106813805Y-122132956D01*
X106813803Y-122132955D01*
X106627004Y-122093250D01*
X106436030Y-122093250D01*
X106249231Y-122132955D01*
X106238183Y-122137874D01*
X106113620Y-122193333D01*
X106074763Y-122210633D01*
X105920262Y-122322885D01*
X105792476Y-122464807D01*
X105696990Y-122630193D01*
X105696987Y-122630200D01*
X105637976Y-122811818D01*
X105637975Y-122811822D01*
X105618013Y-123001750D01*
X102530000Y-123001750D01*
X102530000Y-121604002D01*
X102549685Y-121536963D01*
X102602489Y-121491208D01*
X102671647Y-121481264D01*
X102735203Y-121510289D01*
X102755928Y-121533386D01*
X102795014Y-121589803D01*
X102955196Y-121749985D01*
X103141404Y-121878991D01*
X103141405Y-121878991D01*
X103141409Y-121878994D01*
X103246995Y-121926953D01*
X103347661Y-121972678D01*
X103347662Y-121972678D01*
X103347664Y-121972679D01*
X103567331Y-122028030D01*
X103682270Y-122037075D01*
X103700362Y-122038500D01*
X103700364Y-122038500D01*
X105329638Y-122038500D01*
X105346577Y-122037166D01*
X105462669Y-122028030D01*
X105682336Y-121972679D01*
X105888591Y-121878994D01*
X106074802Y-121749986D01*
X106234986Y-121589802D01*
X106363994Y-121403591D01*
X106457679Y-121197336D01*
X106513030Y-120977669D01*
X106523500Y-120844638D01*
X110126500Y-120844638D01*
X110136970Y-120977668D01*
X110192321Y-121197338D01*
X110286008Y-121403595D01*
X110415014Y-121589803D01*
X110575196Y-121749985D01*
X110761404Y-121878991D01*
X110761405Y-121878991D01*
X110761409Y-121878994D01*
X110866995Y-121926953D01*
X110967661Y-121972678D01*
X110967662Y-121972678D01*
X110967664Y-121972679D01*
X111033340Y-121989228D01*
X111093537Y-122024695D01*
X111125003Y-122087079D01*
X111117747Y-122156570D01*
X111075927Y-122209787D01*
X110920262Y-122322885D01*
X110792476Y-122464807D01*
X110696990Y-122630193D01*
X110696987Y-122630200D01*
X110637976Y-122811818D01*
X110637975Y-122811822D01*
X110618013Y-123001750D01*
X110637975Y-123191678D01*
X110637976Y-123191681D01*
X110696987Y-123373299D01*
X110696990Y-123373306D01*
X110792477Y-123538694D01*
X110920264Y-123680616D01*
X111074765Y-123792868D01*
X111249229Y-123870544D01*
X111436030Y-123910250D01*
X111627004Y-123910250D01*
X111813805Y-123870544D01*
X111988269Y-123792868D01*
X112142770Y-123680616D01*
X112270557Y-123538694D01*
X112366044Y-123373306D01*
X112425059Y-123191678D01*
X112445021Y-123001750D01*
X115618013Y-123001750D01*
X115637975Y-123191678D01*
X115637976Y-123191681D01*
X115696987Y-123373299D01*
X115696990Y-123373306D01*
X115792477Y-123538694D01*
X115920264Y-123680616D01*
X116074765Y-123792868D01*
X116249229Y-123870544D01*
X116436030Y-123910250D01*
X116627004Y-123910250D01*
X116813805Y-123870544D01*
X116988269Y-123792868D01*
X117142770Y-123680616D01*
X117270557Y-123538694D01*
X117366044Y-123373306D01*
X117425059Y-123191678D01*
X117445021Y-123001750D01*
X120618013Y-123001750D01*
X120637975Y-123191678D01*
X120637976Y-123191681D01*
X120696987Y-123373299D01*
X120696990Y-123373306D01*
X120792477Y-123538694D01*
X120920264Y-123680616D01*
X121074765Y-123792868D01*
X121249229Y-123870544D01*
X121436030Y-123910250D01*
X121627004Y-123910250D01*
X121813805Y-123870544D01*
X121988269Y-123792868D01*
X122142770Y-123680616D01*
X122270557Y-123538694D01*
X122366044Y-123373306D01*
X122425059Y-123191678D01*
X122445021Y-123001750D01*
X125618013Y-123001750D01*
X125637975Y-123191678D01*
X125637976Y-123191681D01*
X125696987Y-123373299D01*
X125696990Y-123373306D01*
X125792477Y-123538694D01*
X125920264Y-123680616D01*
X126074765Y-123792868D01*
X126249229Y-123870544D01*
X126436030Y-123910250D01*
X126627004Y-123910250D01*
X126813805Y-123870544D01*
X126988269Y-123792868D01*
X127142770Y-123680616D01*
X127270557Y-123538694D01*
X127366044Y-123373306D01*
X127425059Y-123191678D01*
X127445021Y-123001750D01*
X127425059Y-122811822D01*
X127366044Y-122630194D01*
X127270557Y-122464806D01*
X127142770Y-122322884D01*
X126988269Y-122210632D01*
X126813805Y-122132956D01*
X126813803Y-122132955D01*
X126627004Y-122093250D01*
X126436030Y-122093250D01*
X126249231Y-122132955D01*
X126238183Y-122137874D01*
X126113620Y-122193333D01*
X126074763Y-122210633D01*
X125920262Y-122322885D01*
X125792476Y-122464807D01*
X125696990Y-122630193D01*
X125696987Y-122630200D01*
X125637976Y-122811818D01*
X125637975Y-122811822D01*
X125618013Y-123001750D01*
X122445021Y-123001750D01*
X122425059Y-122811822D01*
X122366044Y-122630194D01*
X122270557Y-122464806D01*
X122142770Y-122322884D01*
X121988269Y-122210632D01*
X121813805Y-122132956D01*
X121813803Y-122132955D01*
X121627004Y-122093250D01*
X121436030Y-122093250D01*
X121249231Y-122132955D01*
X121238183Y-122137874D01*
X121113620Y-122193333D01*
X121074763Y-122210633D01*
X120920262Y-122322885D01*
X120792476Y-122464807D01*
X120696990Y-122630193D01*
X120696987Y-122630200D01*
X120637976Y-122811818D01*
X120637975Y-122811822D01*
X120618013Y-123001750D01*
X117445021Y-123001750D01*
X117425059Y-122811822D01*
X117366044Y-122630194D01*
X117270557Y-122464806D01*
X117142770Y-122322884D01*
X116988269Y-122210632D01*
X116813805Y-122132956D01*
X116813803Y-122132955D01*
X116627004Y-122093250D01*
X116436030Y-122093250D01*
X116249231Y-122132955D01*
X116238183Y-122137874D01*
X116113620Y-122193333D01*
X116074763Y-122210633D01*
X115920262Y-122322885D01*
X115792476Y-122464807D01*
X115696990Y-122630193D01*
X115696987Y-122630200D01*
X115637976Y-122811818D01*
X115637975Y-122811822D01*
X115618013Y-123001750D01*
X112445021Y-123001750D01*
X112425059Y-122811822D01*
X112366044Y-122630194D01*
X112270557Y-122464806D01*
X112142770Y-122322884D01*
X112060095Y-122262817D01*
X112017431Y-122207488D01*
X112011452Y-122137874D01*
X112044058Y-122076079D01*
X112104897Y-122041722D01*
X112132982Y-122038500D01*
X112949638Y-122038500D01*
X112966577Y-122037166D01*
X113082669Y-122028030D01*
X113302336Y-121972679D01*
X113508591Y-121878994D01*
X113694802Y-121749986D01*
X113854986Y-121589802D01*
X113983994Y-121403591D01*
X114077679Y-121197336D01*
X114133030Y-120977669D01*
X114143500Y-120844636D01*
X114143500Y-120030000D01*
X129091807Y-120030000D01*
X129110557Y-120304130D01*
X129110558Y-120304132D01*
X129166458Y-120573141D01*
X129166463Y-120573158D01*
X129258476Y-120832056D01*
X129384889Y-121076024D01*
X129384893Y-121076030D01*
X129543340Y-121300499D01*
X129543343Y-121300502D01*
X129730889Y-121501314D01*
X129944031Y-121674718D01*
X129944033Y-121674719D01*
X129944034Y-121674720D01*
X130178801Y-121817485D01*
X130320403Y-121878991D01*
X130430823Y-121926953D01*
X130695404Y-122001085D01*
X130951565Y-122036293D01*
X131015297Y-122064923D01*
X131053436Y-122123465D01*
X131053870Y-122193333D01*
X131016461Y-122252345D01*
X131007564Y-122259455D01*
X130920267Y-122322881D01*
X130920263Y-122322884D01*
X130792476Y-122464807D01*
X130696990Y-122630193D01*
X130696987Y-122630200D01*
X130637976Y-122811818D01*
X130637975Y-122811822D01*
X130618013Y-123001750D01*
X130637975Y-123191678D01*
X130637976Y-123191681D01*
X130696987Y-123373299D01*
X130696990Y-123373306D01*
X130792477Y-123538694D01*
X130920264Y-123680616D01*
X131074765Y-123792868D01*
X131249229Y-123870544D01*
X131436030Y-123910250D01*
X131627004Y-123910250D01*
X131813805Y-123870544D01*
X131988269Y-123792868D01*
X132142770Y-123680616D01*
X132270557Y-123538694D01*
X132366044Y-123373306D01*
X132425059Y-123191678D01*
X132445021Y-123001750D01*
X135618013Y-123001750D01*
X135637975Y-123191678D01*
X135637976Y-123191681D01*
X135696987Y-123373299D01*
X135696990Y-123373306D01*
X135792477Y-123538694D01*
X135920264Y-123680616D01*
X136074765Y-123792868D01*
X136249229Y-123870544D01*
X136436030Y-123910250D01*
X136627004Y-123910250D01*
X136813805Y-123870544D01*
X136988269Y-123792868D01*
X137142770Y-123680616D01*
X137270557Y-123538694D01*
X137366044Y-123373306D01*
X137425059Y-123191678D01*
X137445021Y-123001750D01*
X140618013Y-123001750D01*
X140637975Y-123191678D01*
X140637976Y-123191681D01*
X140696987Y-123373299D01*
X140696990Y-123373306D01*
X140792477Y-123538694D01*
X140920264Y-123680616D01*
X141074765Y-123792868D01*
X141249229Y-123870544D01*
X141436030Y-123910250D01*
X141627004Y-123910250D01*
X141813805Y-123870544D01*
X141988269Y-123792868D01*
X142142770Y-123680616D01*
X142270557Y-123538694D01*
X142366044Y-123373306D01*
X142425059Y-123191678D01*
X142445021Y-123001750D01*
X145618013Y-123001750D01*
X145637975Y-123191678D01*
X145637976Y-123191681D01*
X145696987Y-123373299D01*
X145696990Y-123373306D01*
X145792477Y-123538694D01*
X145920264Y-123680616D01*
X146074765Y-123792868D01*
X146249229Y-123870544D01*
X146436030Y-123910250D01*
X146627004Y-123910250D01*
X146813805Y-123870544D01*
X146988269Y-123792868D01*
X147142770Y-123680616D01*
X147270557Y-123538694D01*
X147366044Y-123373306D01*
X147425059Y-123191678D01*
X147445021Y-123001750D01*
X150618013Y-123001750D01*
X150637975Y-123191678D01*
X150637976Y-123191681D01*
X150696987Y-123373299D01*
X150696990Y-123373306D01*
X150792477Y-123538694D01*
X150920264Y-123680616D01*
X151074765Y-123792868D01*
X151249229Y-123870544D01*
X151436030Y-123910250D01*
X151627004Y-123910250D01*
X151813805Y-123870544D01*
X151988269Y-123792868D01*
X152142770Y-123680616D01*
X152270557Y-123538694D01*
X152366044Y-123373306D01*
X152425059Y-123191678D01*
X152445021Y-123001750D01*
X155618013Y-123001750D01*
X155637975Y-123191678D01*
X155637976Y-123191681D01*
X155696987Y-123373299D01*
X155696990Y-123373306D01*
X155792477Y-123538694D01*
X155920264Y-123680616D01*
X156074765Y-123792868D01*
X156249229Y-123870544D01*
X156436030Y-123910250D01*
X156627004Y-123910250D01*
X156813805Y-123870544D01*
X156988269Y-123792868D01*
X157142770Y-123680616D01*
X157270557Y-123538694D01*
X157366044Y-123373306D01*
X157425059Y-123191678D01*
X157445021Y-123001750D01*
X160618013Y-123001750D01*
X160637975Y-123191678D01*
X160637976Y-123191681D01*
X160696987Y-123373299D01*
X160696990Y-123373306D01*
X160792477Y-123538694D01*
X160920264Y-123680616D01*
X161074765Y-123792868D01*
X161249229Y-123870544D01*
X161436030Y-123910250D01*
X161627004Y-123910250D01*
X161813805Y-123870544D01*
X161988269Y-123792868D01*
X162142770Y-123680616D01*
X162270557Y-123538694D01*
X162366044Y-123373306D01*
X162425059Y-123191678D01*
X162445021Y-123001750D01*
X162425059Y-122811822D01*
X162366044Y-122630194D01*
X162270557Y-122464806D01*
X162185195Y-122370002D01*
X164254647Y-122370002D01*
X164274021Y-122591457D01*
X164274022Y-122591465D01*
X164331558Y-122806191D01*
X164331559Y-122806193D01*
X164331560Y-122806196D01*
X164378536Y-122906936D01*
X164425511Y-123007676D01*
X164425512Y-123007677D01*
X164553023Y-123189781D01*
X164710219Y-123346977D01*
X164892323Y-123474488D01*
X165093804Y-123568440D01*
X165308537Y-123625978D01*
X165466724Y-123639817D01*
X165529998Y-123645353D01*
X165530000Y-123645353D01*
X165530002Y-123645353D01*
X165585365Y-123640509D01*
X165751463Y-123625978D01*
X165966196Y-123568440D01*
X166167677Y-123474488D01*
X166349781Y-123346977D01*
X166506977Y-123189781D01*
X166634488Y-123007677D01*
X166637252Y-123001750D01*
X170618013Y-123001750D01*
X170637975Y-123191678D01*
X170637976Y-123191681D01*
X170696987Y-123373299D01*
X170696990Y-123373306D01*
X170792477Y-123538694D01*
X170920264Y-123680616D01*
X171074765Y-123792868D01*
X171249229Y-123870544D01*
X171436030Y-123910250D01*
X171627004Y-123910250D01*
X171813805Y-123870544D01*
X171988269Y-123792868D01*
X172142770Y-123680616D01*
X172270557Y-123538694D01*
X172366044Y-123373306D01*
X172425059Y-123191678D01*
X172445021Y-123001750D01*
X175618013Y-123001750D01*
X175637975Y-123191678D01*
X175637976Y-123191681D01*
X175696987Y-123373299D01*
X175696990Y-123373306D01*
X175792477Y-123538694D01*
X175920264Y-123680616D01*
X176074765Y-123792868D01*
X176249229Y-123870544D01*
X176436030Y-123910250D01*
X176627004Y-123910250D01*
X176813805Y-123870544D01*
X176988269Y-123792868D01*
X177142770Y-123680616D01*
X177270557Y-123538694D01*
X177366044Y-123373306D01*
X177425059Y-123191678D01*
X177445021Y-123001750D01*
X177425059Y-122811822D01*
X177366044Y-122630194D01*
X177270557Y-122464806D01*
X177142770Y-122322884D01*
X176988269Y-122210632D01*
X176813805Y-122132956D01*
X176813803Y-122132955D01*
X176627004Y-122093250D01*
X176436030Y-122093250D01*
X176249231Y-122132955D01*
X176238183Y-122137874D01*
X176113620Y-122193333D01*
X176074763Y-122210633D01*
X175920262Y-122322885D01*
X175792476Y-122464807D01*
X175696990Y-122630193D01*
X175696987Y-122630200D01*
X175637976Y-122811818D01*
X175637975Y-122811822D01*
X175618013Y-123001750D01*
X172445021Y-123001750D01*
X172425059Y-122811822D01*
X172366044Y-122630194D01*
X172270557Y-122464806D01*
X172142770Y-122322884D01*
X171988269Y-122210632D01*
X171813805Y-122132956D01*
X171813803Y-122132955D01*
X171627004Y-122093250D01*
X171436030Y-122093250D01*
X171249231Y-122132955D01*
X171238183Y-122137874D01*
X171113620Y-122193333D01*
X171074763Y-122210633D01*
X170920262Y-122322885D01*
X170792476Y-122464807D01*
X170696990Y-122630193D01*
X170696987Y-122630200D01*
X170637976Y-122811818D01*
X170637975Y-122811822D01*
X170618013Y-123001750D01*
X166637252Y-123001750D01*
X166728440Y-122806196D01*
X166785978Y-122591463D01*
X166805353Y-122370000D01*
X166785978Y-122148537D01*
X166728440Y-121933804D01*
X166634488Y-121732324D01*
X166634486Y-121732321D01*
X166634485Y-121732319D01*
X166506978Y-121550220D01*
X166438022Y-121481264D01*
X166349781Y-121393023D01*
X166167677Y-121265512D01*
X166167678Y-121265512D01*
X166167676Y-121265511D01*
X166021477Y-121197338D01*
X165966196Y-121171560D01*
X165966193Y-121171559D01*
X165966191Y-121171558D01*
X165751465Y-121114022D01*
X165751457Y-121114021D01*
X165530002Y-121094647D01*
X165529998Y-121094647D01*
X165308542Y-121114021D01*
X165308535Y-121114022D01*
X165093800Y-121171561D01*
X164892323Y-121265512D01*
X164892319Y-121265514D01*
X164710217Y-121393023D01*
X164553023Y-121550217D01*
X164425514Y-121732319D01*
X164425512Y-121732323D01*
X164331561Y-121933800D01*
X164274022Y-122148535D01*
X164274021Y-122148542D01*
X164254647Y-122369997D01*
X164254647Y-122370002D01*
X162185195Y-122370002D01*
X162142770Y-122322884D01*
X161988269Y-122210632D01*
X161813805Y-122132956D01*
X161813803Y-122132955D01*
X161627004Y-122093250D01*
X161436030Y-122093250D01*
X161249231Y-122132955D01*
X161238183Y-122137874D01*
X161113620Y-122193333D01*
X161074763Y-122210633D01*
X160920262Y-122322885D01*
X160792476Y-122464807D01*
X160696990Y-122630193D01*
X160696987Y-122630200D01*
X160637976Y-122811818D01*
X160637975Y-122811822D01*
X160618013Y-123001750D01*
X157445021Y-123001750D01*
X157425059Y-122811822D01*
X157366044Y-122630194D01*
X157270557Y-122464806D01*
X157142770Y-122322884D01*
X156988269Y-122210632D01*
X156813805Y-122132956D01*
X156813803Y-122132955D01*
X156627004Y-122093250D01*
X156436030Y-122093250D01*
X156249231Y-122132955D01*
X156238183Y-122137874D01*
X156113620Y-122193333D01*
X156074763Y-122210633D01*
X155920262Y-122322885D01*
X155792476Y-122464807D01*
X155696990Y-122630193D01*
X155696987Y-122630200D01*
X155637976Y-122811818D01*
X155637975Y-122811822D01*
X155618013Y-123001750D01*
X152445021Y-123001750D01*
X152425059Y-122811822D01*
X152366044Y-122630194D01*
X152270557Y-122464806D01*
X152142770Y-122322884D01*
X151988269Y-122210632D01*
X151813805Y-122132956D01*
X151813803Y-122132955D01*
X151627004Y-122093250D01*
X151436030Y-122093250D01*
X151249231Y-122132955D01*
X151238183Y-122137874D01*
X151113620Y-122193333D01*
X151074763Y-122210633D01*
X150920262Y-122322885D01*
X150792476Y-122464807D01*
X150696990Y-122630193D01*
X150696987Y-122630200D01*
X150637976Y-122811818D01*
X150637975Y-122811822D01*
X150618013Y-123001750D01*
X147445021Y-123001750D01*
X147425059Y-122811822D01*
X147366044Y-122630194D01*
X147270557Y-122464806D01*
X147142770Y-122322884D01*
X146988269Y-122210632D01*
X146813805Y-122132956D01*
X146813803Y-122132955D01*
X146627004Y-122093250D01*
X146436030Y-122093250D01*
X146249231Y-122132955D01*
X146238183Y-122137874D01*
X146113620Y-122193333D01*
X146074763Y-122210633D01*
X145920262Y-122322885D01*
X145792476Y-122464807D01*
X145696990Y-122630193D01*
X145696987Y-122630200D01*
X145637976Y-122811818D01*
X145637975Y-122811822D01*
X145618013Y-123001750D01*
X142445021Y-123001750D01*
X142425059Y-122811822D01*
X142366044Y-122630194D01*
X142270557Y-122464806D01*
X142142770Y-122322884D01*
X141988269Y-122210632D01*
X141813805Y-122132956D01*
X141813803Y-122132955D01*
X141627004Y-122093250D01*
X141436030Y-122093250D01*
X141249231Y-122132955D01*
X141238183Y-122137874D01*
X141113620Y-122193333D01*
X141074763Y-122210633D01*
X140920262Y-122322885D01*
X140792476Y-122464807D01*
X140696990Y-122630193D01*
X140696987Y-122630200D01*
X140637976Y-122811818D01*
X140637975Y-122811822D01*
X140618013Y-123001750D01*
X137445021Y-123001750D01*
X137425059Y-122811822D01*
X137366044Y-122630194D01*
X137270557Y-122464806D01*
X137142770Y-122322884D01*
X136988269Y-122210632D01*
X136813805Y-122132956D01*
X136813803Y-122132955D01*
X136627004Y-122093250D01*
X136436030Y-122093250D01*
X136249231Y-122132955D01*
X136238183Y-122137874D01*
X136113620Y-122193333D01*
X136074763Y-122210633D01*
X135920262Y-122322885D01*
X135792476Y-122464807D01*
X135696990Y-122630193D01*
X135696987Y-122630200D01*
X135637976Y-122811818D01*
X135637975Y-122811822D01*
X135618013Y-123001750D01*
X132445021Y-123001750D01*
X132425059Y-122811822D01*
X132366044Y-122630194D01*
X132270557Y-122464806D01*
X132142770Y-122322884D01*
X131988269Y-122210632D01*
X131820079Y-122135749D01*
X131766843Y-122090499D01*
X131746522Y-122023650D01*
X131765567Y-121956426D01*
X131817933Y-121910171D01*
X131821010Y-121908781D01*
X132031200Y-121817484D01*
X132265969Y-121674718D01*
X132479111Y-121501314D01*
X132666657Y-121300502D01*
X132825111Y-121076023D01*
X132951523Y-120832058D01*
X133043538Y-120573153D01*
X133043539Y-120573146D01*
X133043541Y-120573141D01*
X133069491Y-120448259D01*
X133099442Y-120304130D01*
X133118193Y-120030000D01*
X133099442Y-119755870D01*
X133080141Y-119662989D01*
X133043541Y-119486858D01*
X133043536Y-119486841D01*
X132951523Y-119227943D01*
X132951523Y-119227942D01*
X132825111Y-118983977D01*
X132825110Y-118983975D01*
X132825106Y-118983969D01*
X132666659Y-118759500D01*
X132570378Y-118656409D01*
X132479111Y-118558686D01*
X132265969Y-118385282D01*
X132265967Y-118385281D01*
X132265965Y-118385279D01*
X132031198Y-118242514D01*
X131779178Y-118133047D01*
X131514602Y-118058916D01*
X131514597Y-118058915D01*
X131514596Y-118058915D01*
X131318559Y-118031970D01*
X131242386Y-118021500D01*
X131242385Y-118021500D01*
X130967615Y-118021500D01*
X130967614Y-118021500D01*
X130695404Y-118058915D01*
X130695397Y-118058916D01*
X130430821Y-118133047D01*
X130178801Y-118242514D01*
X129944034Y-118385279D01*
X129730892Y-118558683D01*
X129543340Y-118759500D01*
X129384893Y-118983969D01*
X129384889Y-118983975D01*
X129258476Y-119227943D01*
X129166463Y-119486841D01*
X129166458Y-119486858D01*
X129110558Y-119755867D01*
X129110557Y-119755869D01*
X129091807Y-120030000D01*
X114143500Y-120030000D01*
X114143500Y-119215364D01*
X114133030Y-119082331D01*
X114077679Y-118862664D01*
X113983994Y-118656409D01*
X113902440Y-118538694D01*
X113854985Y-118470196D01*
X113694802Y-118310014D01*
X113694803Y-118310014D01*
X113508595Y-118181008D01*
X113302338Y-118087321D01*
X113155891Y-118050420D01*
X113082669Y-118031970D01*
X113038324Y-118028480D01*
X112949638Y-118021500D01*
X112949636Y-118021500D01*
X111320364Y-118021500D01*
X111320362Y-118021500D01*
X111187331Y-118031970D01*
X110967661Y-118087321D01*
X110761404Y-118181008D01*
X110575196Y-118310014D01*
X110415014Y-118470196D01*
X110286008Y-118656404D01*
X110192321Y-118862661D01*
X110136970Y-119082331D01*
X110126500Y-119215362D01*
X110126500Y-120844638D01*
X106523500Y-120844638D01*
X106523500Y-120844636D01*
X106523500Y-119215364D01*
X106513030Y-119082331D01*
X106457679Y-118862664D01*
X106363994Y-118656409D01*
X106282440Y-118538694D01*
X106234985Y-118470196D01*
X106074802Y-118310014D01*
X106074803Y-118310014D01*
X105888595Y-118181008D01*
X105682338Y-118087321D01*
X105535891Y-118050420D01*
X105462669Y-118031970D01*
X105418324Y-118028480D01*
X105329638Y-118021500D01*
X105329636Y-118021500D01*
X103700364Y-118021500D01*
X103700362Y-118021500D01*
X103567331Y-118031970D01*
X103347661Y-118087321D01*
X103141404Y-118181008D01*
X102955196Y-118310014D01*
X102795016Y-118470194D01*
X102755928Y-118526614D01*
X102701568Y-118570510D01*
X102632107Y-118578049D01*
X102569596Y-118546837D01*
X102533883Y-118486784D01*
X102530000Y-118455997D01*
X102530000Y-118001750D01*
X115618013Y-118001750D01*
X115637975Y-118191678D01*
X115637976Y-118191681D01*
X115696987Y-118373299D01*
X115696990Y-118373306D01*
X115792477Y-118538694D01*
X115920264Y-118680616D01*
X116074765Y-118792868D01*
X116249229Y-118870544D01*
X116436030Y-118910250D01*
X116627004Y-118910250D01*
X116813805Y-118870544D01*
X116988269Y-118792868D01*
X117142770Y-118680616D01*
X117270557Y-118538694D01*
X117366044Y-118373306D01*
X117425059Y-118191678D01*
X117445021Y-118001750D01*
X120618013Y-118001750D01*
X120637975Y-118191678D01*
X120637976Y-118191681D01*
X120696987Y-118373299D01*
X120696990Y-118373306D01*
X120792477Y-118538694D01*
X120920264Y-118680616D01*
X121074765Y-118792868D01*
X121249229Y-118870544D01*
X121436030Y-118910250D01*
X121627004Y-118910250D01*
X121813805Y-118870544D01*
X121988269Y-118792868D01*
X122142770Y-118680616D01*
X122270557Y-118538694D01*
X122366044Y-118373306D01*
X122425059Y-118191678D01*
X122445021Y-118001750D01*
X125618013Y-118001750D01*
X125637975Y-118191678D01*
X125637976Y-118191681D01*
X125696987Y-118373299D01*
X125696990Y-118373306D01*
X125792477Y-118538694D01*
X125920264Y-118680616D01*
X126074765Y-118792868D01*
X126249229Y-118870544D01*
X126436030Y-118910250D01*
X126627004Y-118910250D01*
X126813805Y-118870544D01*
X126988269Y-118792868D01*
X127142770Y-118680616D01*
X127270557Y-118538694D01*
X127366044Y-118373306D01*
X127425059Y-118191678D01*
X127445021Y-118001750D01*
X135618013Y-118001750D01*
X135637975Y-118191678D01*
X135637976Y-118191681D01*
X135696987Y-118373299D01*
X135696990Y-118373306D01*
X135792477Y-118538694D01*
X135920264Y-118680616D01*
X136074765Y-118792868D01*
X136249229Y-118870544D01*
X136436030Y-118910250D01*
X136627004Y-118910250D01*
X136813805Y-118870544D01*
X136815183Y-118869930D01*
X136816053Y-118869813D01*
X136819985Y-118868536D01*
X136820218Y-118869254D01*
X136884427Y-118860636D01*
X136947708Y-118890255D01*
X136984930Y-118949384D01*
X136984276Y-119019250D01*
X136975729Y-119040250D01*
X136878478Y-119227938D01*
X136878476Y-119227941D01*
X136786463Y-119486841D01*
X136786458Y-119486858D01*
X136730558Y-119755867D01*
X136730557Y-119755869D01*
X136711807Y-120029999D01*
X136730557Y-120304130D01*
X136730558Y-120304132D01*
X136786458Y-120573141D01*
X136786463Y-120573158D01*
X136878476Y-120832056D01*
X137004889Y-121076024D01*
X137004893Y-121076030D01*
X137163340Y-121300499D01*
X137163343Y-121300502D01*
X137350889Y-121501314D01*
X137564031Y-121674718D01*
X137564033Y-121674719D01*
X137564034Y-121674720D01*
X137798801Y-121817485D01*
X137940403Y-121878991D01*
X138050823Y-121926953D01*
X138315404Y-122001085D01*
X138554720Y-122033978D01*
X138587614Y-122038500D01*
X138587615Y-122038500D01*
X138862386Y-122038500D01*
X138891733Y-122034466D01*
X139134596Y-122001085D01*
X139399177Y-121926953D01*
X139651200Y-121817484D01*
X139885969Y-121674718D01*
X140099111Y-121501314D01*
X140286657Y-121300502D01*
X140445111Y-121076023D01*
X140571523Y-120832058D01*
X140663538Y-120573153D01*
X140663539Y-120573146D01*
X140663541Y-120573141D01*
X140689491Y-120448259D01*
X140719442Y-120304130D01*
X140738193Y-120030000D01*
X140719442Y-119755870D01*
X140700141Y-119662989D01*
X140663541Y-119486858D01*
X140663536Y-119486841D01*
X140571523Y-119227943D01*
X140571523Y-119227942D01*
X140445111Y-118983977D01*
X140445110Y-118983975D01*
X140445106Y-118983969D01*
X140286659Y-118759500D01*
X140190378Y-118656409D01*
X140099111Y-118558686D01*
X139885969Y-118385282D01*
X139885967Y-118385281D01*
X139885965Y-118385279D01*
X139651198Y-118242514D01*
X139399178Y-118133047D01*
X139134602Y-118058916D01*
X139134597Y-118058915D01*
X139134596Y-118058915D01*
X138938559Y-118031970D01*
X138862386Y-118021500D01*
X138862385Y-118021500D01*
X138587615Y-118021500D01*
X138587614Y-118021500D01*
X138315404Y-118058915D01*
X138315397Y-118058916D01*
X138050821Y-118133047D01*
X137798801Y-118242514D01*
X137598123Y-118364549D01*
X137530615Y-118382563D01*
X137464085Y-118361219D01*
X137419656Y-118307295D01*
X137411433Y-118237911D01*
X137415765Y-118220281D01*
X137425059Y-118191678D01*
X137445021Y-118001750D01*
X140618013Y-118001750D01*
X140637975Y-118191678D01*
X140637976Y-118191681D01*
X140696987Y-118373299D01*
X140696990Y-118373306D01*
X140792477Y-118538694D01*
X140920264Y-118680616D01*
X141074765Y-118792868D01*
X141249229Y-118870544D01*
X141436030Y-118910250D01*
X141627004Y-118910250D01*
X141813805Y-118870544D01*
X141988269Y-118792868D01*
X142142770Y-118680616D01*
X142270557Y-118538694D01*
X142366044Y-118373306D01*
X142425059Y-118191678D01*
X142445021Y-118001750D01*
X145618013Y-118001750D01*
X145637975Y-118191678D01*
X145637976Y-118191681D01*
X145696987Y-118373299D01*
X145696990Y-118373306D01*
X145792477Y-118538694D01*
X145920264Y-118680616D01*
X146074765Y-118792868D01*
X146249229Y-118870544D01*
X146436030Y-118910250D01*
X146627004Y-118910250D01*
X146813805Y-118870544D01*
X146988269Y-118792868D01*
X147142770Y-118680616D01*
X147270557Y-118538694D01*
X147366044Y-118373306D01*
X147425059Y-118191678D01*
X147445021Y-118001750D01*
X150618013Y-118001750D01*
X150637975Y-118191678D01*
X150637976Y-118191681D01*
X150696987Y-118373299D01*
X150696990Y-118373306D01*
X150792477Y-118538694D01*
X150920264Y-118680616D01*
X151074765Y-118792868D01*
X151249229Y-118870544D01*
X151436030Y-118910250D01*
X151627004Y-118910250D01*
X151813805Y-118870544D01*
X151988269Y-118792868D01*
X152142770Y-118680616D01*
X152270557Y-118538694D01*
X152366044Y-118373306D01*
X152425059Y-118191678D01*
X152445021Y-118001750D01*
X155618013Y-118001750D01*
X155637975Y-118191678D01*
X155637976Y-118191681D01*
X155696987Y-118373299D01*
X155696990Y-118373306D01*
X155792477Y-118538694D01*
X155920264Y-118680616D01*
X156074765Y-118792868D01*
X156249229Y-118870544D01*
X156436030Y-118910250D01*
X156627004Y-118910250D01*
X156813805Y-118870544D01*
X156988269Y-118792868D01*
X157142770Y-118680616D01*
X157270557Y-118538694D01*
X157366044Y-118373306D01*
X157425059Y-118191678D01*
X157445021Y-118001750D01*
X160618013Y-118001750D01*
X160637975Y-118191678D01*
X160637976Y-118191681D01*
X160696987Y-118373299D01*
X160696990Y-118373306D01*
X160792477Y-118538694D01*
X160920264Y-118680616D01*
X161074765Y-118792868D01*
X161249229Y-118870544D01*
X161436030Y-118910250D01*
X161627004Y-118910250D01*
X161813805Y-118870544D01*
X161988269Y-118792868D01*
X162142770Y-118680616D01*
X162270557Y-118538694D01*
X162366044Y-118373306D01*
X162425059Y-118191678D01*
X162445021Y-118001750D01*
X165618013Y-118001750D01*
X165637975Y-118191678D01*
X165637976Y-118191681D01*
X165696987Y-118373299D01*
X165696990Y-118373306D01*
X165792477Y-118538694D01*
X165920264Y-118680616D01*
X166074765Y-118792868D01*
X166249229Y-118870544D01*
X166436030Y-118910250D01*
X166627004Y-118910250D01*
X166813805Y-118870544D01*
X166988269Y-118792868D01*
X167142770Y-118680616D01*
X167270557Y-118538694D01*
X167366044Y-118373306D01*
X167425059Y-118191678D01*
X167445021Y-118001750D01*
X170618013Y-118001750D01*
X170637975Y-118191678D01*
X170637976Y-118191681D01*
X170696987Y-118373299D01*
X170696990Y-118373306D01*
X170792477Y-118538694D01*
X170920264Y-118680616D01*
X171074765Y-118792868D01*
X171249229Y-118870544D01*
X171436030Y-118910250D01*
X171627004Y-118910250D01*
X171813805Y-118870544D01*
X171988269Y-118792868D01*
X172142770Y-118680616D01*
X172270557Y-118538694D01*
X172366044Y-118373306D01*
X172425059Y-118191678D01*
X172445021Y-118001750D01*
X175618013Y-118001750D01*
X175637975Y-118191678D01*
X175637976Y-118191681D01*
X175696987Y-118373299D01*
X175696990Y-118373306D01*
X175792477Y-118538694D01*
X175920264Y-118680616D01*
X176074765Y-118792868D01*
X176249229Y-118870544D01*
X176436030Y-118910250D01*
X176627004Y-118910250D01*
X176813805Y-118870544D01*
X176988269Y-118792868D01*
X177142770Y-118680616D01*
X177270557Y-118538694D01*
X177366044Y-118373306D01*
X177425059Y-118191678D01*
X177445021Y-118001750D01*
X177425059Y-117811822D01*
X177366044Y-117630194D01*
X177270557Y-117464806D01*
X177142770Y-117322884D01*
X176988269Y-117210632D01*
X176813805Y-117132956D01*
X176813803Y-117132955D01*
X176627004Y-117093250D01*
X176436030Y-117093250D01*
X176249231Y-117132955D01*
X176074763Y-117210633D01*
X175920262Y-117322885D01*
X175792476Y-117464807D01*
X175696990Y-117630193D01*
X175696987Y-117630200D01*
X175637976Y-117811818D01*
X175637975Y-117811822D01*
X175618013Y-118001750D01*
X172445021Y-118001750D01*
X172425059Y-117811822D01*
X172366044Y-117630194D01*
X172270557Y-117464806D01*
X172142770Y-117322884D01*
X171988269Y-117210632D01*
X171813805Y-117132956D01*
X171813803Y-117132955D01*
X171627004Y-117093250D01*
X171436030Y-117093250D01*
X171249231Y-117132955D01*
X171074763Y-117210633D01*
X170920262Y-117322885D01*
X170792476Y-117464807D01*
X170696990Y-117630193D01*
X170696987Y-117630200D01*
X170637976Y-117811818D01*
X170637975Y-117811822D01*
X170618013Y-118001750D01*
X167445021Y-118001750D01*
X167425059Y-117811822D01*
X167366044Y-117630194D01*
X167270557Y-117464806D01*
X167142770Y-117322884D01*
X166988269Y-117210632D01*
X166813805Y-117132956D01*
X166813803Y-117132955D01*
X166627004Y-117093250D01*
X166436030Y-117093250D01*
X166249231Y-117132955D01*
X166074763Y-117210633D01*
X165920262Y-117322885D01*
X165792476Y-117464807D01*
X165696990Y-117630193D01*
X165696987Y-117630200D01*
X165637976Y-117811818D01*
X165637975Y-117811822D01*
X165618013Y-118001750D01*
X162445021Y-118001750D01*
X162425059Y-117811822D01*
X162366044Y-117630194D01*
X162270557Y-117464806D01*
X162142770Y-117322884D01*
X161988269Y-117210632D01*
X161813805Y-117132956D01*
X161813803Y-117132955D01*
X161627004Y-117093250D01*
X161436030Y-117093250D01*
X161249231Y-117132955D01*
X161074763Y-117210633D01*
X160920262Y-117322885D01*
X160792476Y-117464807D01*
X160696990Y-117630193D01*
X160696987Y-117630200D01*
X160637976Y-117811818D01*
X160637975Y-117811822D01*
X160618013Y-118001750D01*
X157445021Y-118001750D01*
X157425059Y-117811822D01*
X157366044Y-117630194D01*
X157270557Y-117464806D01*
X157142770Y-117322884D01*
X156988269Y-117210632D01*
X156813805Y-117132956D01*
X156813803Y-117132955D01*
X156627004Y-117093250D01*
X156436030Y-117093250D01*
X156249231Y-117132955D01*
X156074763Y-117210633D01*
X155920262Y-117322885D01*
X155792476Y-117464807D01*
X155696990Y-117630193D01*
X155696987Y-117630200D01*
X155637976Y-117811818D01*
X155637975Y-117811822D01*
X155618013Y-118001750D01*
X152445021Y-118001750D01*
X152425059Y-117811822D01*
X152366044Y-117630194D01*
X152270557Y-117464806D01*
X152142770Y-117322884D01*
X151988269Y-117210632D01*
X151813805Y-117132956D01*
X151813803Y-117132955D01*
X151627004Y-117093250D01*
X151436030Y-117093250D01*
X151249231Y-117132955D01*
X151074763Y-117210633D01*
X150920262Y-117322885D01*
X150792476Y-117464807D01*
X150696990Y-117630193D01*
X150696987Y-117630200D01*
X150637976Y-117811818D01*
X150637975Y-117811822D01*
X150618013Y-118001750D01*
X147445021Y-118001750D01*
X147425059Y-117811822D01*
X147366044Y-117630194D01*
X147270557Y-117464806D01*
X147142770Y-117322884D01*
X146988269Y-117210632D01*
X146813805Y-117132956D01*
X146813803Y-117132955D01*
X146627004Y-117093250D01*
X146436030Y-117093250D01*
X146249231Y-117132955D01*
X146074763Y-117210633D01*
X145920262Y-117322885D01*
X145792476Y-117464807D01*
X145696990Y-117630193D01*
X145696987Y-117630200D01*
X145637976Y-117811818D01*
X145637975Y-117811822D01*
X145618013Y-118001750D01*
X142445021Y-118001750D01*
X142425059Y-117811822D01*
X142366044Y-117630194D01*
X142270557Y-117464806D01*
X142142770Y-117322884D01*
X141988269Y-117210632D01*
X141813805Y-117132956D01*
X141813803Y-117132955D01*
X141627004Y-117093250D01*
X141436030Y-117093250D01*
X141249231Y-117132955D01*
X141074763Y-117210633D01*
X140920262Y-117322885D01*
X140792476Y-117464807D01*
X140696990Y-117630193D01*
X140696987Y-117630200D01*
X140637976Y-117811818D01*
X140637975Y-117811822D01*
X140618013Y-118001750D01*
X137445021Y-118001750D01*
X137425059Y-117811822D01*
X137366044Y-117630194D01*
X137270557Y-117464806D01*
X137142770Y-117322884D01*
X136988269Y-117210632D01*
X136813805Y-117132956D01*
X136813803Y-117132955D01*
X136627004Y-117093250D01*
X136436030Y-117093250D01*
X136249231Y-117132955D01*
X136074763Y-117210633D01*
X135920262Y-117322885D01*
X135792476Y-117464807D01*
X135696990Y-117630193D01*
X135696987Y-117630200D01*
X135637976Y-117811818D01*
X135637975Y-117811822D01*
X135618013Y-118001750D01*
X127445021Y-118001750D01*
X127425059Y-117811822D01*
X127366044Y-117630194D01*
X127270557Y-117464806D01*
X127142770Y-117322884D01*
X126988269Y-117210632D01*
X126813805Y-117132956D01*
X126813803Y-117132955D01*
X126627004Y-117093250D01*
X126436030Y-117093250D01*
X126249231Y-117132955D01*
X126074763Y-117210633D01*
X125920262Y-117322885D01*
X125792476Y-117464807D01*
X125696990Y-117630193D01*
X125696987Y-117630200D01*
X125637976Y-117811818D01*
X125637975Y-117811822D01*
X125618013Y-118001750D01*
X122445021Y-118001750D01*
X122425059Y-117811822D01*
X122366044Y-117630194D01*
X122270557Y-117464806D01*
X122142770Y-117322884D01*
X121988269Y-117210632D01*
X121813805Y-117132956D01*
X121813803Y-117132955D01*
X121627004Y-117093250D01*
X121436030Y-117093250D01*
X121249231Y-117132955D01*
X121074763Y-117210633D01*
X120920262Y-117322885D01*
X120792476Y-117464807D01*
X120696990Y-117630193D01*
X120696987Y-117630200D01*
X120637976Y-117811818D01*
X120637975Y-117811822D01*
X120618013Y-118001750D01*
X117445021Y-118001750D01*
X117425059Y-117811822D01*
X117366044Y-117630194D01*
X117270557Y-117464806D01*
X117142770Y-117322884D01*
X116988269Y-117210632D01*
X116813805Y-117132956D01*
X116813803Y-117132955D01*
X116627004Y-117093250D01*
X116436030Y-117093250D01*
X116249231Y-117132955D01*
X116074763Y-117210633D01*
X115920262Y-117322885D01*
X115792476Y-117464807D01*
X115696990Y-117630193D01*
X115696987Y-117630200D01*
X115637976Y-117811818D01*
X115637975Y-117811822D01*
X115618013Y-118001750D01*
X102530000Y-118001750D01*
X102530000Y-113001750D01*
X105618013Y-113001750D01*
X105637975Y-113191678D01*
X105637976Y-113191681D01*
X105696987Y-113373299D01*
X105696990Y-113373306D01*
X105792477Y-113538694D01*
X105920264Y-113680616D01*
X106074765Y-113792868D01*
X106249229Y-113870544D01*
X106436030Y-113910250D01*
X106627004Y-113910250D01*
X106813805Y-113870544D01*
X106988269Y-113792868D01*
X107142770Y-113680616D01*
X107270557Y-113538694D01*
X107366044Y-113373306D01*
X107425059Y-113191678D01*
X107445021Y-113001750D01*
X110618013Y-113001750D01*
X110637975Y-113191678D01*
X110637976Y-113191681D01*
X110696987Y-113373299D01*
X110696990Y-113373306D01*
X110792477Y-113538694D01*
X110920264Y-113680616D01*
X111074765Y-113792868D01*
X111249229Y-113870544D01*
X111436030Y-113910250D01*
X111627004Y-113910250D01*
X111813805Y-113870544D01*
X111988269Y-113792868D01*
X112142770Y-113680616D01*
X112270557Y-113538694D01*
X112366044Y-113373306D01*
X112425059Y-113191678D01*
X112445021Y-113001750D01*
X115618013Y-113001750D01*
X115637975Y-113191678D01*
X115637976Y-113191681D01*
X115696987Y-113373299D01*
X115696990Y-113373306D01*
X115792477Y-113538694D01*
X115920264Y-113680616D01*
X116074765Y-113792868D01*
X116249229Y-113870544D01*
X116436030Y-113910250D01*
X116627004Y-113910250D01*
X116813805Y-113870544D01*
X116988269Y-113792868D01*
X117142770Y-113680616D01*
X117270557Y-113538694D01*
X117366044Y-113373306D01*
X117425059Y-113191678D01*
X117445021Y-113001750D01*
X120618013Y-113001750D01*
X120637975Y-113191678D01*
X120637976Y-113191681D01*
X120696987Y-113373299D01*
X120696990Y-113373306D01*
X120792477Y-113538694D01*
X120920264Y-113680616D01*
X121074765Y-113792868D01*
X121249229Y-113870544D01*
X121436030Y-113910250D01*
X121627004Y-113910250D01*
X121813805Y-113870544D01*
X121988269Y-113792868D01*
X122142770Y-113680616D01*
X122270557Y-113538694D01*
X122366044Y-113373306D01*
X122425059Y-113191678D01*
X122445021Y-113001750D01*
X125618013Y-113001750D01*
X125637975Y-113191678D01*
X125637976Y-113191681D01*
X125696987Y-113373299D01*
X125696990Y-113373306D01*
X125792477Y-113538694D01*
X125920264Y-113680616D01*
X126074765Y-113792868D01*
X126249229Y-113870544D01*
X126436030Y-113910250D01*
X126627004Y-113910250D01*
X126813805Y-113870544D01*
X126988269Y-113792868D01*
X127142770Y-113680616D01*
X127270557Y-113538694D01*
X127366044Y-113373306D01*
X127425059Y-113191678D01*
X127445021Y-113001750D01*
X130618013Y-113001750D01*
X130637975Y-113191678D01*
X130637976Y-113191681D01*
X130696987Y-113373299D01*
X130696990Y-113373306D01*
X130792477Y-113538694D01*
X130920264Y-113680616D01*
X131074765Y-113792868D01*
X131249229Y-113870544D01*
X131436030Y-113910250D01*
X131627004Y-113910250D01*
X131813805Y-113870544D01*
X131988269Y-113792868D01*
X132142770Y-113680616D01*
X132270557Y-113538694D01*
X132366044Y-113373306D01*
X132425059Y-113191678D01*
X132445021Y-113001750D01*
X145618013Y-113001750D01*
X145637975Y-113191678D01*
X145637976Y-113191681D01*
X145696987Y-113373299D01*
X145696990Y-113373306D01*
X145792477Y-113538694D01*
X145920264Y-113680616D01*
X146074765Y-113792868D01*
X146249229Y-113870544D01*
X146436030Y-113910250D01*
X146627004Y-113910250D01*
X146813805Y-113870544D01*
X146988269Y-113792868D01*
X147142770Y-113680616D01*
X147270557Y-113538694D01*
X147366044Y-113373306D01*
X147425059Y-113191678D01*
X147445021Y-113001750D01*
X155618013Y-113001750D01*
X155637975Y-113191678D01*
X155637976Y-113191681D01*
X155696987Y-113373299D01*
X155696990Y-113373306D01*
X155792477Y-113538694D01*
X155920264Y-113680616D01*
X156074765Y-113792868D01*
X156249229Y-113870544D01*
X156436030Y-113910250D01*
X156627004Y-113910250D01*
X156813805Y-113870544D01*
X156988269Y-113792868D01*
X157142770Y-113680616D01*
X157270557Y-113538694D01*
X157366044Y-113373306D01*
X157425059Y-113191678D01*
X157445021Y-113001750D01*
X160618013Y-113001750D01*
X160637975Y-113191678D01*
X160637976Y-113191681D01*
X160696987Y-113373299D01*
X160696990Y-113373306D01*
X160792477Y-113538694D01*
X160920264Y-113680616D01*
X161074765Y-113792868D01*
X161249229Y-113870544D01*
X161436030Y-113910250D01*
X161627004Y-113910250D01*
X161813805Y-113870544D01*
X161988269Y-113792868D01*
X162142770Y-113680616D01*
X162270557Y-113538694D01*
X162366044Y-113373306D01*
X162425059Y-113191678D01*
X162445021Y-113001750D01*
X165618013Y-113001750D01*
X165637975Y-113191678D01*
X165637976Y-113191681D01*
X165696987Y-113373299D01*
X165696990Y-113373306D01*
X165792477Y-113538694D01*
X165920264Y-113680616D01*
X166074765Y-113792868D01*
X166249229Y-113870544D01*
X166436030Y-113910250D01*
X166627004Y-113910250D01*
X166813805Y-113870544D01*
X166988269Y-113792868D01*
X167142770Y-113680616D01*
X167270557Y-113538694D01*
X167366044Y-113373306D01*
X167425059Y-113191678D01*
X167445021Y-113001750D01*
X170618013Y-113001750D01*
X170637975Y-113191678D01*
X170637976Y-113191681D01*
X170696987Y-113373299D01*
X170696990Y-113373306D01*
X170792477Y-113538694D01*
X170920264Y-113680616D01*
X171074765Y-113792868D01*
X171249229Y-113870544D01*
X171436030Y-113910250D01*
X171627004Y-113910250D01*
X171813805Y-113870544D01*
X171988269Y-113792868D01*
X172142770Y-113680616D01*
X172270557Y-113538694D01*
X172366044Y-113373306D01*
X172425059Y-113191678D01*
X172445021Y-113001750D01*
X175618013Y-113001750D01*
X175637975Y-113191678D01*
X175637976Y-113191681D01*
X175696987Y-113373299D01*
X175696990Y-113373306D01*
X175792477Y-113538694D01*
X175920264Y-113680616D01*
X176074765Y-113792868D01*
X176249229Y-113870544D01*
X176436030Y-113910250D01*
X176627004Y-113910250D01*
X176813805Y-113870544D01*
X176988269Y-113792868D01*
X177142770Y-113680616D01*
X177270557Y-113538694D01*
X177366044Y-113373306D01*
X177425059Y-113191678D01*
X177445021Y-113001750D01*
X177425059Y-112811822D01*
X177366044Y-112630194D01*
X177270557Y-112464806D01*
X177142770Y-112322884D01*
X176988269Y-112210632D01*
X176813805Y-112132956D01*
X176813803Y-112132955D01*
X176627004Y-112093250D01*
X176436030Y-112093250D01*
X176249231Y-112132955D01*
X176074763Y-112210633D01*
X175920262Y-112322885D01*
X175792476Y-112464807D01*
X175696990Y-112630193D01*
X175696987Y-112630200D01*
X175643161Y-112795860D01*
X175637975Y-112811822D01*
X175618013Y-113001750D01*
X172445021Y-113001750D01*
X172425059Y-112811822D01*
X172366044Y-112630194D01*
X172270557Y-112464806D01*
X172142770Y-112322884D01*
X171988269Y-112210632D01*
X171813805Y-112132956D01*
X171813803Y-112132955D01*
X171627004Y-112093250D01*
X171436030Y-112093250D01*
X171249231Y-112132955D01*
X171074763Y-112210633D01*
X170920262Y-112322885D01*
X170792476Y-112464807D01*
X170696990Y-112630193D01*
X170696987Y-112630200D01*
X170643161Y-112795860D01*
X170637975Y-112811822D01*
X170618013Y-113001750D01*
X167445021Y-113001750D01*
X167425059Y-112811822D01*
X167366044Y-112630194D01*
X167270557Y-112464806D01*
X167142770Y-112322884D01*
X166988269Y-112210632D01*
X166813805Y-112132956D01*
X166813803Y-112132955D01*
X166627004Y-112093250D01*
X166436030Y-112093250D01*
X166249231Y-112132955D01*
X166074763Y-112210633D01*
X165920262Y-112322885D01*
X165792476Y-112464807D01*
X165696990Y-112630193D01*
X165696987Y-112630200D01*
X165643161Y-112795860D01*
X165637975Y-112811822D01*
X165618013Y-113001750D01*
X162445021Y-113001750D01*
X162425059Y-112811822D01*
X162366044Y-112630194D01*
X162270557Y-112464806D01*
X162142770Y-112322884D01*
X161988269Y-112210632D01*
X161813805Y-112132956D01*
X161813803Y-112132955D01*
X161627004Y-112093250D01*
X161436030Y-112093250D01*
X161249231Y-112132955D01*
X161074763Y-112210633D01*
X160920262Y-112322885D01*
X160792476Y-112464807D01*
X160696990Y-112630193D01*
X160696987Y-112630200D01*
X160643161Y-112795860D01*
X160637975Y-112811822D01*
X160618013Y-113001750D01*
X157445021Y-113001750D01*
X157425059Y-112811822D01*
X157366044Y-112630194D01*
X157270557Y-112464806D01*
X157142770Y-112322884D01*
X156988269Y-112210632D01*
X156813805Y-112132956D01*
X156813803Y-112132955D01*
X156627004Y-112093250D01*
X156436030Y-112093250D01*
X156249231Y-112132955D01*
X156074763Y-112210633D01*
X155920262Y-112322885D01*
X155792476Y-112464807D01*
X155696990Y-112630193D01*
X155696987Y-112630200D01*
X155643161Y-112795860D01*
X155637975Y-112811822D01*
X155618013Y-113001750D01*
X147445021Y-113001750D01*
X147425059Y-112811822D01*
X147366044Y-112630194D01*
X147270557Y-112464806D01*
X147142770Y-112322884D01*
X146988269Y-112210632D01*
X146813805Y-112132956D01*
X146813803Y-112132955D01*
X146627004Y-112093250D01*
X146436030Y-112093250D01*
X146249231Y-112132955D01*
X146074763Y-112210633D01*
X145920262Y-112322885D01*
X145792476Y-112464807D01*
X145696990Y-112630193D01*
X145696987Y-112630200D01*
X145643161Y-112795860D01*
X145637975Y-112811822D01*
X145618013Y-113001750D01*
X132445021Y-113001750D01*
X132425059Y-112811822D01*
X132366044Y-112630194D01*
X132270557Y-112464806D01*
X132142770Y-112322884D01*
X131988269Y-112210632D01*
X131813805Y-112132956D01*
X131813803Y-112132955D01*
X131627004Y-112093250D01*
X131436030Y-112093250D01*
X131249231Y-112132955D01*
X131074763Y-112210633D01*
X130920262Y-112322885D01*
X130792476Y-112464807D01*
X130696990Y-112630193D01*
X130696987Y-112630200D01*
X130643161Y-112795860D01*
X130637975Y-112811822D01*
X130618013Y-113001750D01*
X127445021Y-113001750D01*
X127425059Y-112811822D01*
X127366044Y-112630194D01*
X127270557Y-112464806D01*
X127142770Y-112322884D01*
X126988269Y-112210632D01*
X126813805Y-112132956D01*
X126813803Y-112132955D01*
X126627004Y-112093250D01*
X126436030Y-112093250D01*
X126249231Y-112132955D01*
X126074763Y-112210633D01*
X125920262Y-112322885D01*
X125792476Y-112464807D01*
X125696990Y-112630193D01*
X125696987Y-112630200D01*
X125643161Y-112795860D01*
X125637975Y-112811822D01*
X125618013Y-113001750D01*
X122445021Y-113001750D01*
X122425059Y-112811822D01*
X122366044Y-112630194D01*
X122270557Y-112464806D01*
X122142770Y-112322884D01*
X121988269Y-112210632D01*
X121813805Y-112132956D01*
X121813803Y-112132955D01*
X121627004Y-112093250D01*
X121436030Y-112093250D01*
X121249231Y-112132955D01*
X121074763Y-112210633D01*
X120920262Y-112322885D01*
X120792476Y-112464807D01*
X120696990Y-112630193D01*
X120696987Y-112630200D01*
X120643161Y-112795860D01*
X120637975Y-112811822D01*
X120618013Y-113001750D01*
X117445021Y-113001750D01*
X117425059Y-112811822D01*
X117366044Y-112630194D01*
X117270557Y-112464806D01*
X117142770Y-112322884D01*
X116988269Y-112210632D01*
X116813805Y-112132956D01*
X116813803Y-112132955D01*
X116627004Y-112093250D01*
X116436030Y-112093250D01*
X116249231Y-112132955D01*
X116074763Y-112210633D01*
X115920262Y-112322885D01*
X115792476Y-112464807D01*
X115696990Y-112630193D01*
X115696987Y-112630200D01*
X115643161Y-112795860D01*
X115637975Y-112811822D01*
X115618013Y-113001750D01*
X112445021Y-113001750D01*
X112425059Y-112811822D01*
X112366044Y-112630194D01*
X112270557Y-112464806D01*
X112142770Y-112322884D01*
X111988269Y-112210632D01*
X111813805Y-112132956D01*
X111813803Y-112132955D01*
X111627004Y-112093250D01*
X111436030Y-112093250D01*
X111249231Y-112132955D01*
X111074763Y-112210633D01*
X110920262Y-112322885D01*
X110792476Y-112464807D01*
X110696990Y-112630193D01*
X110696987Y-112630200D01*
X110643161Y-112795860D01*
X110637975Y-112811822D01*
X110618013Y-113001750D01*
X107445021Y-113001750D01*
X107425059Y-112811822D01*
X107366044Y-112630194D01*
X107270557Y-112464806D01*
X107142770Y-112322884D01*
X106988269Y-112210632D01*
X106813805Y-112132956D01*
X106813803Y-112132955D01*
X106627004Y-112093250D01*
X106436030Y-112093250D01*
X106249231Y-112132955D01*
X106074763Y-112210633D01*
X105920262Y-112322885D01*
X105792476Y-112464807D01*
X105696990Y-112630193D01*
X105696987Y-112630200D01*
X105643161Y-112795860D01*
X105637975Y-112811822D01*
X105618013Y-113001750D01*
X102530000Y-113001750D01*
X102530000Y-108001750D01*
X105618013Y-108001750D01*
X105637975Y-108191678D01*
X105639959Y-108197785D01*
X105696987Y-108373299D01*
X105696990Y-108373306D01*
X105792477Y-108538694D01*
X105920264Y-108680616D01*
X106074765Y-108792868D01*
X106249229Y-108870544D01*
X106436030Y-108910250D01*
X106627004Y-108910250D01*
X106813805Y-108870544D01*
X106988269Y-108792868D01*
X107142770Y-108680616D01*
X107270557Y-108538694D01*
X107366044Y-108373306D01*
X107425059Y-108191678D01*
X107445021Y-108001750D01*
X110618013Y-108001750D01*
X110637975Y-108191678D01*
X110639959Y-108197785D01*
X110696987Y-108373299D01*
X110696990Y-108373306D01*
X110792477Y-108538694D01*
X110920264Y-108680616D01*
X111074765Y-108792868D01*
X111249229Y-108870544D01*
X111436030Y-108910250D01*
X111627004Y-108910250D01*
X111813805Y-108870544D01*
X111988269Y-108792868D01*
X112142770Y-108680616D01*
X112270557Y-108538694D01*
X112366044Y-108373306D01*
X112425059Y-108191678D01*
X112445021Y-108001750D01*
X115618013Y-108001750D01*
X115637975Y-108191678D01*
X115639959Y-108197785D01*
X115696987Y-108373299D01*
X115696990Y-108373306D01*
X115792477Y-108538694D01*
X115920264Y-108680616D01*
X116074765Y-108792868D01*
X116249229Y-108870544D01*
X116436030Y-108910250D01*
X116627004Y-108910250D01*
X116813805Y-108870544D01*
X116988269Y-108792868D01*
X117142770Y-108680616D01*
X117270557Y-108538694D01*
X117366044Y-108373306D01*
X117425059Y-108191678D01*
X117445021Y-108001750D01*
X120618013Y-108001750D01*
X120637975Y-108191678D01*
X120639959Y-108197785D01*
X120696987Y-108373299D01*
X120696990Y-108373306D01*
X120792477Y-108538694D01*
X120920264Y-108680616D01*
X121074765Y-108792868D01*
X121249229Y-108870544D01*
X121436030Y-108910250D01*
X121627004Y-108910250D01*
X121813805Y-108870544D01*
X121988269Y-108792868D01*
X122142770Y-108680616D01*
X122270557Y-108538694D01*
X122366044Y-108373306D01*
X122399569Y-108270126D01*
X122439006Y-108212452D01*
X122503365Y-108185253D01*
X122572211Y-108197167D01*
X122623687Y-108244412D01*
X122641500Y-108308445D01*
X122641499Y-110078637D01*
X122641500Y-110078654D01*
X122648011Y-110139202D01*
X122648011Y-110139204D01*
X122683653Y-110234761D01*
X122699111Y-110276204D01*
X122786739Y-110393261D01*
X122903796Y-110480889D01*
X123040799Y-110531989D01*
X123068050Y-110534918D01*
X123101345Y-110538499D01*
X123101362Y-110538500D01*
X125598638Y-110538500D01*
X125598654Y-110538499D01*
X125625692Y-110535591D01*
X125659201Y-110531989D01*
X125796204Y-110480889D01*
X125913261Y-110393261D01*
X126000889Y-110276204D01*
X126051989Y-110139201D01*
X126055591Y-110105692D01*
X126058499Y-110078654D01*
X126058500Y-110078637D01*
X126058500Y-108976569D01*
X126078185Y-108909530D01*
X126130989Y-108863775D01*
X126200147Y-108853831D01*
X126232936Y-108863290D01*
X126239594Y-108866254D01*
X126249229Y-108870544D01*
X126436030Y-108910250D01*
X126627004Y-108910250D01*
X126813805Y-108870544D01*
X126904860Y-108830004D01*
X127636709Y-108830004D01*
X127655843Y-109085343D01*
X127655844Y-109085348D01*
X127712822Y-109334987D01*
X127712824Y-109334996D01*
X127712826Y-109335001D01*
X127806378Y-109573369D01*
X127934413Y-109795131D01*
X128008832Y-109888450D01*
X128094072Y-109995338D01*
X128249121Y-110139201D01*
X128281781Y-110169505D01*
X128493355Y-110313754D01*
X128493360Y-110313756D01*
X128493361Y-110313757D01*
X128493362Y-110313758D01*
X128615890Y-110372764D01*
X128724061Y-110424856D01*
X128724062Y-110424856D01*
X128724065Y-110424858D01*
X128968757Y-110500335D01*
X128968758Y-110500335D01*
X128968761Y-110500336D01*
X129221958Y-110538499D01*
X129221963Y-110538499D01*
X129221966Y-110538500D01*
X129221967Y-110538500D01*
X129478033Y-110538500D01*
X129478034Y-110538500D01*
X129521232Y-110531989D01*
X129731238Y-110500336D01*
X129731239Y-110500335D01*
X129731243Y-110500335D01*
X129975935Y-110424858D01*
X130206646Y-110313754D01*
X130418219Y-110169505D01*
X130605931Y-109995334D01*
X130765587Y-109795131D01*
X130893622Y-109573369D01*
X130987174Y-109335001D01*
X131044155Y-109085353D01*
X131053190Y-108964784D01*
X131077828Y-108899403D01*
X131133904Y-108857722D01*
X131203612Y-108852974D01*
X131227273Y-108860768D01*
X131249229Y-108870544D01*
X131436030Y-108910250D01*
X131627004Y-108910250D01*
X131813805Y-108870544D01*
X131988269Y-108792868D01*
X132142770Y-108680616D01*
X132270557Y-108538694D01*
X132366044Y-108373306D01*
X132425059Y-108191678D01*
X132445021Y-108001750D01*
X135618013Y-108001750D01*
X135637975Y-108191678D01*
X135639959Y-108197785D01*
X135696987Y-108373299D01*
X135696990Y-108373306D01*
X135792477Y-108538694D01*
X135920264Y-108680616D01*
X136074765Y-108792868D01*
X136249229Y-108870544D01*
X136436030Y-108910250D01*
X136548432Y-108910250D01*
X136615471Y-108929935D01*
X136661226Y-108982739D01*
X136671170Y-109051897D01*
X136647386Y-109108977D01*
X136543498Y-109246546D01*
X136543493Y-109246554D01*
X136451930Y-109430436D01*
X136451924Y-109430451D01*
X136395706Y-109628038D01*
X136395705Y-109628040D01*
X136376751Y-109832598D01*
X136376751Y-109832599D01*
X136395705Y-110037157D01*
X136395706Y-110037159D01*
X136451924Y-110234746D01*
X136451930Y-110234761D01*
X136543493Y-110418643D01*
X136543498Y-110418651D01*
X136667301Y-110582593D01*
X136671162Y-110586828D01*
X136670134Y-110587764D01*
X136702885Y-110641678D01*
X136701117Y-110711525D01*
X136661867Y-110769329D01*
X136646123Y-110779967D01*
X136526739Y-110869338D01*
X136439111Y-110986394D01*
X136388011Y-111123394D01*
X136388011Y-111123396D01*
X136381500Y-111183944D01*
X136381500Y-112481253D01*
X136388011Y-112541801D01*
X136388011Y-112541803D01*
X136439110Y-112678803D01*
X136439111Y-112678803D01*
X136526739Y-112795860D01*
X136643796Y-112883488D01*
X136780799Y-112934588D01*
X136808050Y-112937517D01*
X136841345Y-112941098D01*
X136841362Y-112941099D01*
X138138638Y-112941099D01*
X138138654Y-112941098D01*
X138165692Y-112938190D01*
X138199201Y-112934588D01*
X138336204Y-112883488D01*
X138453261Y-112795860D01*
X138540889Y-112678803D01*
X138591989Y-112541800D01*
X138595591Y-112508291D01*
X138598499Y-112481253D01*
X138598500Y-112481236D01*
X138598500Y-111183961D01*
X138598499Y-111183944D01*
X138595157Y-111152869D01*
X138591989Y-111123398D01*
X138540889Y-110986395D01*
X138453261Y-110869338D01*
X138336204Y-110781710D01*
X138336203Y-110781709D01*
X138329104Y-110776395D01*
X138330122Y-110775034D01*
X138288107Y-110733021D01*
X138273253Y-110664749D01*
X138297668Y-110599284D01*
X138308912Y-110586896D01*
X138308838Y-110586828D01*
X138312698Y-110582593D01*
X138312698Y-110582592D01*
X138312701Y-110582590D01*
X138436503Y-110418649D01*
X138528074Y-110234751D01*
X138584294Y-110037158D01*
X138603249Y-109832599D01*
X138588585Y-109674353D01*
X138584294Y-109628040D01*
X138584293Y-109628038D01*
X138583428Y-109624999D01*
X138528074Y-109430447D01*
X138528069Y-109430436D01*
X138436506Y-109246554D01*
X138436501Y-109246546D01*
X138312699Y-109082605D01*
X138211115Y-108990000D01*
X142616496Y-108990000D01*
X142636458Y-109179928D01*
X142636459Y-109179931D01*
X142695470Y-109361549D01*
X142695473Y-109361556D01*
X142790957Y-109526940D01*
X142790961Y-109526945D01*
X142809542Y-109547582D01*
X142839771Y-109610574D01*
X142831145Y-109679909D01*
X142809543Y-109713523D01*
X142800961Y-109723054D01*
X142800957Y-109723059D01*
X142705473Y-109888443D01*
X142705470Y-109888450D01*
X142657152Y-110037158D01*
X142646458Y-110070072D01*
X142626496Y-110260000D01*
X142646458Y-110449928D01*
X142646459Y-110449931D01*
X142705470Y-110631549D01*
X142705473Y-110631556D01*
X142800960Y-110796944D01*
X142928747Y-110938866D01*
X143083248Y-111051118D01*
X143257712Y-111128794D01*
X143444513Y-111168500D01*
X143635487Y-111168500D01*
X143822288Y-111128794D01*
X143996752Y-111051118D01*
X144151253Y-110938866D01*
X144279040Y-110796944D01*
X144374527Y-110631556D01*
X144433542Y-110449928D01*
X144453504Y-110260000D01*
X144433542Y-110070072D01*
X144374527Y-109888444D01*
X144279040Y-109723056D01*
X144279036Y-109723050D01*
X144260459Y-109702419D01*
X144230229Y-109639428D01*
X144238853Y-109570092D01*
X144260460Y-109536472D01*
X144269040Y-109526944D01*
X144364527Y-109361556D01*
X144423542Y-109179928D01*
X144443504Y-108990000D01*
X144423542Y-108800072D01*
X144364527Y-108618444D01*
X144269040Y-108453056D01*
X144141253Y-108311134D01*
X143986752Y-108198882D01*
X143812288Y-108121206D01*
X143812286Y-108121205D01*
X143625487Y-108081500D01*
X143434513Y-108081500D01*
X143247714Y-108121205D01*
X143247711Y-108121206D01*
X143247712Y-108121206D01*
X143103860Y-108185253D01*
X143073246Y-108198883D01*
X142918745Y-108311135D01*
X142790959Y-108453057D01*
X142695473Y-108618443D01*
X142695470Y-108618450D01*
X142636459Y-108800068D01*
X142636458Y-108800072D01*
X142616496Y-108990000D01*
X138211115Y-108990000D01*
X138160883Y-108944208D01*
X138160882Y-108944207D01*
X137986218Y-108836059D01*
X137794655Y-108761848D01*
X137592718Y-108724099D01*
X137387282Y-108724099D01*
X137381549Y-108724099D01*
X137381549Y-108722327D01*
X137320964Y-108710469D01*
X137270537Y-108662107D01*
X137254261Y-108594160D01*
X137270716Y-108538418D01*
X137319998Y-108453059D01*
X137366044Y-108373306D01*
X137425059Y-108191678D01*
X137445021Y-108001750D01*
X137425059Y-107811822D01*
X137395224Y-107720000D01*
X148276496Y-107720000D01*
X148296458Y-107909928D01*
X148296459Y-107909931D01*
X148355470Y-108091549D01*
X148355473Y-108091556D01*
X148450957Y-108256940D01*
X148450961Y-108256945D01*
X148469542Y-108277582D01*
X148499771Y-108340574D01*
X148491145Y-108409909D01*
X148469543Y-108443523D01*
X148460961Y-108453054D01*
X148460957Y-108453059D01*
X148365473Y-108618443D01*
X148365470Y-108618450D01*
X148306459Y-108800068D01*
X148306458Y-108800072D01*
X148286496Y-108990000D01*
X148306458Y-109179928D01*
X148306459Y-109179931D01*
X148365470Y-109361549D01*
X148365473Y-109361556D01*
X148460960Y-109526944D01*
X148474541Y-109542027D01*
X148504771Y-109605018D01*
X148496146Y-109674353D01*
X148474545Y-109707967D01*
X148460961Y-109723054D01*
X148460957Y-109723059D01*
X148365473Y-109888443D01*
X148365470Y-109888450D01*
X148317152Y-110037158D01*
X148306458Y-110070072D01*
X148286496Y-110260000D01*
X148306458Y-110449928D01*
X148306459Y-110449931D01*
X148365470Y-110631549D01*
X148365473Y-110631556D01*
X148460960Y-110796944D01*
X148588747Y-110938866D01*
X148743248Y-111051118D01*
X148917712Y-111128794D01*
X149104513Y-111168500D01*
X149295487Y-111168500D01*
X149482288Y-111128794D01*
X149656752Y-111051118D01*
X149811253Y-110938866D01*
X149939040Y-110796944D01*
X150034527Y-110631556D01*
X150093542Y-110449928D01*
X150113504Y-110260000D01*
X150093542Y-110070072D01*
X150034527Y-109888444D01*
X149939040Y-109723056D01*
X149925458Y-109707972D01*
X149895229Y-109644981D01*
X149903853Y-109575646D01*
X149925459Y-109542027D01*
X149925460Y-109542026D01*
X149939040Y-109526944D01*
X150034527Y-109361556D01*
X150093542Y-109179928D01*
X150113504Y-108990000D01*
X150093542Y-108800072D01*
X150034527Y-108618444D01*
X149939040Y-108453056D01*
X149939036Y-108453050D01*
X149920459Y-108432419D01*
X149890229Y-108369428D01*
X149898853Y-108300092D01*
X149920460Y-108266472D01*
X149929040Y-108256944D01*
X150024527Y-108091556D01*
X150053707Y-108001750D01*
X155618013Y-108001750D01*
X155637975Y-108191678D01*
X155639959Y-108197785D01*
X155696987Y-108373299D01*
X155696990Y-108373306D01*
X155792477Y-108538694D01*
X155920264Y-108680616D01*
X156074765Y-108792868D01*
X156249229Y-108870544D01*
X156436030Y-108910250D01*
X156627004Y-108910250D01*
X156813805Y-108870544D01*
X156988269Y-108792868D01*
X157142770Y-108680616D01*
X157270557Y-108538694D01*
X157366044Y-108373306D01*
X157425059Y-108191678D01*
X157445021Y-108001750D01*
X160618013Y-108001750D01*
X160637975Y-108191678D01*
X160639959Y-108197785D01*
X160696987Y-108373299D01*
X160696990Y-108373306D01*
X160792477Y-108538694D01*
X160920264Y-108680616D01*
X161074765Y-108792868D01*
X161249229Y-108870544D01*
X161436030Y-108910250D01*
X161627004Y-108910250D01*
X161813805Y-108870544D01*
X161988269Y-108792868D01*
X162142770Y-108680616D01*
X162270557Y-108538694D01*
X162366044Y-108373306D01*
X162425059Y-108191678D01*
X162445021Y-108001750D01*
X165618013Y-108001750D01*
X165637975Y-108191678D01*
X165639959Y-108197785D01*
X165696987Y-108373299D01*
X165696990Y-108373306D01*
X165792477Y-108538694D01*
X165920264Y-108680616D01*
X166074765Y-108792868D01*
X166249229Y-108870544D01*
X166436030Y-108910250D01*
X166627004Y-108910250D01*
X166813805Y-108870544D01*
X166988269Y-108792868D01*
X167142770Y-108680616D01*
X167270557Y-108538694D01*
X167366044Y-108373306D01*
X167425059Y-108191678D01*
X167445021Y-108001750D01*
X170618013Y-108001750D01*
X170637975Y-108191678D01*
X170639959Y-108197785D01*
X170696987Y-108373299D01*
X170696990Y-108373306D01*
X170792477Y-108538694D01*
X170920264Y-108680616D01*
X171074765Y-108792868D01*
X171249229Y-108870544D01*
X171436030Y-108910250D01*
X171627004Y-108910250D01*
X171813805Y-108870544D01*
X171988269Y-108792868D01*
X172142770Y-108680616D01*
X172270557Y-108538694D01*
X172366044Y-108373306D01*
X172425059Y-108191678D01*
X172445021Y-108001750D01*
X175618013Y-108001750D01*
X175637975Y-108191678D01*
X175639959Y-108197785D01*
X175696987Y-108373299D01*
X175696990Y-108373306D01*
X175792477Y-108538694D01*
X175920264Y-108680616D01*
X176074765Y-108792868D01*
X176249229Y-108870544D01*
X176436030Y-108910250D01*
X176627004Y-108910250D01*
X176813805Y-108870544D01*
X176988269Y-108792868D01*
X177142770Y-108680616D01*
X177270557Y-108538694D01*
X177366044Y-108373306D01*
X177425059Y-108191678D01*
X177445021Y-108001750D01*
X177425059Y-107811822D01*
X177366044Y-107630194D01*
X177270557Y-107464806D01*
X177142770Y-107322884D01*
X176988269Y-107210632D01*
X176813805Y-107132956D01*
X176813803Y-107132955D01*
X176627004Y-107093250D01*
X176436030Y-107093250D01*
X176249231Y-107132955D01*
X176249228Y-107132956D01*
X176249229Y-107132956D01*
X176074770Y-107210630D01*
X176074763Y-107210633D01*
X175920262Y-107322885D01*
X175792476Y-107464807D01*
X175696990Y-107630193D01*
X175696987Y-107630200D01*
X175654133Y-107762093D01*
X175637975Y-107811822D01*
X175618013Y-108001750D01*
X172445021Y-108001750D01*
X172425059Y-107811822D01*
X172366044Y-107630194D01*
X172270557Y-107464806D01*
X172142770Y-107322884D01*
X171988269Y-107210632D01*
X171813805Y-107132956D01*
X171813803Y-107132955D01*
X171627004Y-107093250D01*
X171436030Y-107093250D01*
X171249231Y-107132955D01*
X171249228Y-107132956D01*
X171249229Y-107132956D01*
X171074770Y-107210630D01*
X171074763Y-107210633D01*
X170920262Y-107322885D01*
X170792476Y-107464807D01*
X170696990Y-107630193D01*
X170696987Y-107630200D01*
X170654133Y-107762093D01*
X170637975Y-107811822D01*
X170618013Y-108001750D01*
X167445021Y-108001750D01*
X167425059Y-107811822D01*
X167366044Y-107630194D01*
X167270557Y-107464806D01*
X167142770Y-107322884D01*
X166988269Y-107210632D01*
X166813805Y-107132956D01*
X166813803Y-107132955D01*
X166627004Y-107093250D01*
X166436030Y-107093250D01*
X166249231Y-107132955D01*
X166249228Y-107132956D01*
X166249229Y-107132956D01*
X166074770Y-107210630D01*
X166074763Y-107210633D01*
X165920262Y-107322885D01*
X165792476Y-107464807D01*
X165696990Y-107630193D01*
X165696987Y-107630200D01*
X165654133Y-107762093D01*
X165637975Y-107811822D01*
X165618013Y-108001750D01*
X162445021Y-108001750D01*
X162425059Y-107811822D01*
X162366044Y-107630194D01*
X162270557Y-107464806D01*
X162142770Y-107322884D01*
X161988269Y-107210632D01*
X161813805Y-107132956D01*
X161813803Y-107132955D01*
X161627004Y-107093250D01*
X161436030Y-107093250D01*
X161249231Y-107132955D01*
X161249228Y-107132956D01*
X161249229Y-107132956D01*
X161074770Y-107210630D01*
X161074763Y-107210633D01*
X160920262Y-107322885D01*
X160792476Y-107464807D01*
X160696990Y-107630193D01*
X160696987Y-107630200D01*
X160654133Y-107762093D01*
X160637975Y-107811822D01*
X160618013Y-108001750D01*
X157445021Y-108001750D01*
X157425059Y-107811822D01*
X157366044Y-107630194D01*
X157270557Y-107464806D01*
X157142770Y-107322884D01*
X156988269Y-107210632D01*
X156813805Y-107132956D01*
X156813803Y-107132955D01*
X156627004Y-107093250D01*
X156436030Y-107093250D01*
X156249231Y-107132955D01*
X156249228Y-107132956D01*
X156249229Y-107132956D01*
X156074770Y-107210630D01*
X156074763Y-107210633D01*
X155920262Y-107322885D01*
X155792476Y-107464807D01*
X155696990Y-107630193D01*
X155696987Y-107630200D01*
X155654133Y-107762093D01*
X155637975Y-107811822D01*
X155618013Y-108001750D01*
X150053707Y-108001750D01*
X150083542Y-107909928D01*
X150103504Y-107720000D01*
X150083542Y-107530072D01*
X150024527Y-107348444D01*
X149929040Y-107183056D01*
X149920458Y-107173525D01*
X149890229Y-107110535D01*
X149898853Y-107041199D01*
X149920459Y-107007580D01*
X149939040Y-106986944D01*
X150034527Y-106821556D01*
X150093542Y-106639928D01*
X150113504Y-106450000D01*
X150093542Y-106260072D01*
X150034527Y-106078444D01*
X149939040Y-105913056D01*
X149811253Y-105771134D01*
X149656752Y-105658882D01*
X149482288Y-105581206D01*
X149482286Y-105581205D01*
X149295487Y-105541500D01*
X149104513Y-105541500D01*
X148917714Y-105581205D01*
X148743246Y-105658883D01*
X148588745Y-105771135D01*
X148460959Y-105913057D01*
X148365473Y-106078443D01*
X148365470Y-106078450D01*
X148306459Y-106260068D01*
X148306458Y-106260072D01*
X148286496Y-106450000D01*
X148306458Y-106639928D01*
X148306459Y-106639931D01*
X148365470Y-106821549D01*
X148365473Y-106821556D01*
X148460960Y-106986944D01*
X148469542Y-106996475D01*
X148499771Y-107059465D01*
X148491146Y-107128800D01*
X148469544Y-107162415D01*
X148450961Y-107183054D01*
X148450957Y-107183059D01*
X148355473Y-107348443D01*
X148355470Y-107348450D01*
X148299471Y-107520799D01*
X148296458Y-107530072D01*
X148276496Y-107720000D01*
X137395224Y-107720000D01*
X137366044Y-107630194D01*
X137270557Y-107464806D01*
X137142770Y-107322884D01*
X136988269Y-107210632D01*
X136813805Y-107132956D01*
X136813803Y-107132955D01*
X136627004Y-107093250D01*
X136436030Y-107093250D01*
X136249231Y-107132955D01*
X136249228Y-107132956D01*
X136249229Y-107132956D01*
X136074770Y-107210630D01*
X136074763Y-107210633D01*
X135920262Y-107322885D01*
X135792476Y-107464807D01*
X135696990Y-107630193D01*
X135696987Y-107630200D01*
X135654133Y-107762093D01*
X135637975Y-107811822D01*
X135618013Y-108001750D01*
X132445021Y-108001750D01*
X132425059Y-107811822D01*
X132366044Y-107630194D01*
X132270557Y-107464806D01*
X132142770Y-107322884D01*
X131988269Y-107210632D01*
X131813805Y-107132956D01*
X131813803Y-107132955D01*
X131627004Y-107093250D01*
X131436030Y-107093250D01*
X131249231Y-107132955D01*
X131249228Y-107132956D01*
X131249229Y-107132956D01*
X131074770Y-107210630D01*
X131074763Y-107210633D01*
X130920262Y-107322885D01*
X130792475Y-107464807D01*
X130730011Y-107572999D01*
X130679444Y-107621215D01*
X130610837Y-107634437D01*
X130545972Y-107608469D01*
X130538283Y-107601898D01*
X130507137Y-107572999D01*
X130418219Y-107490495D01*
X130380540Y-107464806D01*
X130206649Y-107346248D01*
X130206638Y-107346241D01*
X129975940Y-107235144D01*
X129975921Y-107235137D01*
X129731248Y-107159666D01*
X129731238Y-107159663D01*
X129478041Y-107121500D01*
X129478034Y-107121500D01*
X129221966Y-107121500D01*
X129221958Y-107121500D01*
X128968761Y-107159663D01*
X128968755Y-107159665D01*
X128724061Y-107235143D01*
X128493362Y-107346241D01*
X128493361Y-107346242D01*
X128281780Y-107490495D01*
X128094072Y-107664661D01*
X127934413Y-107864869D01*
X127806378Y-108086630D01*
X127712828Y-108324993D01*
X127712822Y-108325012D01*
X127655844Y-108574651D01*
X127655843Y-108574656D01*
X127636709Y-108829995D01*
X127636709Y-108830004D01*
X126904860Y-108830004D01*
X126988269Y-108792868D01*
X127142770Y-108680616D01*
X127270557Y-108538694D01*
X127366044Y-108373306D01*
X127425059Y-108191678D01*
X127445021Y-108001750D01*
X127425059Y-107811822D01*
X127366044Y-107630194D01*
X127270557Y-107464806D01*
X127142770Y-107322884D01*
X126988269Y-107210632D01*
X126813805Y-107132956D01*
X126813803Y-107132955D01*
X126627004Y-107093250D01*
X126436030Y-107093250D01*
X126249231Y-107132955D01*
X126074767Y-107210630D01*
X126028755Y-107244060D01*
X125962948Y-107267539D01*
X125894894Y-107251713D01*
X125881568Y-107243014D01*
X125796204Y-107179111D01*
X125751441Y-107162415D01*
X125659203Y-107128011D01*
X125598654Y-107121500D01*
X125598638Y-107121500D01*
X123101362Y-107121500D01*
X123101345Y-107121500D01*
X123040797Y-107128011D01*
X123040795Y-107128011D01*
X122903795Y-107179111D01*
X122786739Y-107266739D01*
X122699111Y-107383795D01*
X122648011Y-107520795D01*
X122648011Y-107520797D01*
X122641500Y-107581345D01*
X122641500Y-107695054D01*
X122621815Y-107762093D01*
X122569011Y-107807848D01*
X122499853Y-107817792D01*
X122436297Y-107788767D01*
X122399569Y-107733372D01*
X122366046Y-107630200D01*
X122366045Y-107630199D01*
X122366044Y-107630194D01*
X122270557Y-107464806D01*
X122142770Y-107322884D01*
X121988269Y-107210632D01*
X121813805Y-107132956D01*
X121813803Y-107132955D01*
X121627004Y-107093250D01*
X121436030Y-107093250D01*
X121249231Y-107132955D01*
X121249228Y-107132956D01*
X121249229Y-107132956D01*
X121074770Y-107210630D01*
X121074763Y-107210633D01*
X120920262Y-107322885D01*
X120792476Y-107464807D01*
X120696990Y-107630193D01*
X120696987Y-107630200D01*
X120654133Y-107762093D01*
X120637975Y-107811822D01*
X120618013Y-108001750D01*
X117445021Y-108001750D01*
X117425059Y-107811822D01*
X117366044Y-107630194D01*
X117270557Y-107464806D01*
X117142770Y-107322884D01*
X116988269Y-107210632D01*
X116813805Y-107132956D01*
X116813803Y-107132955D01*
X116627004Y-107093250D01*
X116436030Y-107093250D01*
X116249231Y-107132955D01*
X116249228Y-107132956D01*
X116249229Y-107132956D01*
X116074770Y-107210630D01*
X116074763Y-107210633D01*
X115920262Y-107322885D01*
X115792476Y-107464807D01*
X115696990Y-107630193D01*
X115696987Y-107630200D01*
X115654133Y-107762093D01*
X115637975Y-107811822D01*
X115618013Y-108001750D01*
X112445021Y-108001750D01*
X112425059Y-107811822D01*
X112366044Y-107630194D01*
X112270557Y-107464806D01*
X112142770Y-107322884D01*
X111988269Y-107210632D01*
X111813805Y-107132956D01*
X111813803Y-107132955D01*
X111627004Y-107093250D01*
X111436030Y-107093250D01*
X111249231Y-107132955D01*
X111249228Y-107132956D01*
X111249229Y-107132956D01*
X111074770Y-107210630D01*
X111074763Y-107210633D01*
X110920262Y-107322885D01*
X110792476Y-107464807D01*
X110696990Y-107630193D01*
X110696987Y-107630200D01*
X110654133Y-107762093D01*
X110637975Y-107811822D01*
X110618013Y-108001750D01*
X107445021Y-108001750D01*
X107425059Y-107811822D01*
X107366044Y-107630194D01*
X107270557Y-107464806D01*
X107142770Y-107322884D01*
X106988269Y-107210632D01*
X106813805Y-107132956D01*
X106813803Y-107132955D01*
X106627004Y-107093250D01*
X106436030Y-107093250D01*
X106249231Y-107132955D01*
X106249228Y-107132956D01*
X106249229Y-107132956D01*
X106074770Y-107210630D01*
X106074763Y-107210633D01*
X105920262Y-107322885D01*
X105792476Y-107464807D01*
X105696990Y-107630193D01*
X105696987Y-107630200D01*
X105654133Y-107762093D01*
X105637975Y-107811822D01*
X105618013Y-108001750D01*
X102530000Y-108001750D01*
X102530000Y-106450000D01*
X142626496Y-106450000D01*
X142646458Y-106639928D01*
X142646459Y-106639931D01*
X142705470Y-106821549D01*
X142705473Y-106821556D01*
X142800960Y-106986944D01*
X142866258Y-107059465D01*
X142928687Y-107128800D01*
X142928747Y-107128866D01*
X143083248Y-107241118D01*
X143257712Y-107318794D01*
X143444513Y-107358500D01*
X143635487Y-107358500D01*
X143822288Y-107318794D01*
X143996752Y-107241118D01*
X144151253Y-107128866D01*
X144279040Y-106986944D01*
X144374527Y-106821556D01*
X144433542Y-106639928D01*
X144453504Y-106450000D01*
X144433542Y-106260072D01*
X144374527Y-106078444D01*
X144279040Y-105913056D01*
X144151253Y-105771134D01*
X143996752Y-105658882D01*
X143822288Y-105581206D01*
X143822286Y-105581205D01*
X143635487Y-105541500D01*
X143444513Y-105541500D01*
X143257714Y-105581205D01*
X143083246Y-105658883D01*
X142928745Y-105771135D01*
X142800959Y-105913057D01*
X142705473Y-106078443D01*
X142705470Y-106078450D01*
X142646459Y-106260068D01*
X142646458Y-106260072D01*
X142626496Y-106450000D01*
X102530000Y-106450000D01*
X102530000Y-104590002D01*
X164254647Y-104590002D01*
X164274021Y-104811457D01*
X164274022Y-104811465D01*
X164331558Y-105026191D01*
X164331559Y-105026193D01*
X164331560Y-105026196D01*
X164378536Y-105126936D01*
X164425511Y-105227676D01*
X164425512Y-105227677D01*
X164553023Y-105409781D01*
X164710219Y-105566977D01*
X164892323Y-105694488D01*
X165093804Y-105788440D01*
X165308537Y-105845978D01*
X165466724Y-105859817D01*
X165529998Y-105865353D01*
X165530000Y-105865353D01*
X165530002Y-105865353D01*
X165585365Y-105860509D01*
X165751463Y-105845978D01*
X165966196Y-105788440D01*
X166167677Y-105694488D01*
X166349781Y-105566977D01*
X166506977Y-105409781D01*
X166634488Y-105227677D01*
X166728440Y-105026196D01*
X166785978Y-104811463D01*
X166805353Y-104590000D01*
X166785978Y-104368537D01*
X166728440Y-104153804D01*
X166634488Y-103952324D01*
X166634486Y-103952321D01*
X166634485Y-103952319D01*
X166506978Y-103770220D01*
X166506975Y-103770217D01*
X166349781Y-103613023D01*
X166167677Y-103485512D01*
X166167678Y-103485512D01*
X166167676Y-103485511D01*
X166066936Y-103438535D01*
X165966196Y-103391560D01*
X165966193Y-103391559D01*
X165966191Y-103391558D01*
X165751465Y-103334022D01*
X165751457Y-103334021D01*
X165530002Y-103314647D01*
X165529998Y-103314647D01*
X165308542Y-103334021D01*
X165308535Y-103334022D01*
X165093800Y-103391561D01*
X164892323Y-103485512D01*
X164892319Y-103485514D01*
X164710217Y-103613023D01*
X164553023Y-103770217D01*
X164425514Y-103952319D01*
X164425512Y-103952323D01*
X164331561Y-104153800D01*
X164274022Y-104368535D01*
X164274021Y-104368542D01*
X164254647Y-104589997D01*
X164254647Y-104590002D01*
X102530000Y-104590002D01*
X102530000Y-103001750D01*
X105618013Y-103001750D01*
X105637975Y-103191678D01*
X105637976Y-103191681D01*
X105696987Y-103373299D01*
X105696990Y-103373306D01*
X105792477Y-103538694D01*
X105920264Y-103680616D01*
X106074765Y-103792868D01*
X106249229Y-103870544D01*
X106436030Y-103910250D01*
X106627004Y-103910250D01*
X106813805Y-103870544D01*
X106988269Y-103792868D01*
X107142770Y-103680616D01*
X107270557Y-103538694D01*
X107366044Y-103373306D01*
X107425059Y-103191678D01*
X107445021Y-103001750D01*
X110618013Y-103001750D01*
X110637975Y-103191678D01*
X110637976Y-103191681D01*
X110696987Y-103373299D01*
X110696990Y-103373306D01*
X110792477Y-103538694D01*
X110920264Y-103680616D01*
X111074765Y-103792868D01*
X111249229Y-103870544D01*
X111436030Y-103910250D01*
X111627004Y-103910250D01*
X111813805Y-103870544D01*
X111988269Y-103792868D01*
X112142770Y-103680616D01*
X112270557Y-103538694D01*
X112366044Y-103373306D01*
X112425059Y-103191678D01*
X112445021Y-103001750D01*
X115618013Y-103001750D01*
X115637975Y-103191678D01*
X115637976Y-103191681D01*
X115696987Y-103373299D01*
X115696990Y-103373306D01*
X115792477Y-103538694D01*
X115920264Y-103680616D01*
X116074765Y-103792868D01*
X116249229Y-103870544D01*
X116436030Y-103910250D01*
X116627004Y-103910250D01*
X116813805Y-103870544D01*
X116988269Y-103792868D01*
X117142770Y-103680616D01*
X117270557Y-103538694D01*
X117366044Y-103373306D01*
X117425059Y-103191678D01*
X117445021Y-103001750D01*
X120618013Y-103001750D01*
X120637975Y-103191678D01*
X120637976Y-103191681D01*
X120696987Y-103373299D01*
X120696990Y-103373306D01*
X120792477Y-103538694D01*
X120920264Y-103680616D01*
X121074765Y-103792868D01*
X121249229Y-103870544D01*
X121436030Y-103910250D01*
X121627004Y-103910250D01*
X121813805Y-103870544D01*
X121988269Y-103792868D01*
X122142770Y-103680616D01*
X122270557Y-103538694D01*
X122366044Y-103373306D01*
X122425059Y-103191678D01*
X122445021Y-103001750D01*
X125618013Y-103001750D01*
X125637975Y-103191678D01*
X125637976Y-103191681D01*
X125696987Y-103373299D01*
X125696990Y-103373306D01*
X125792477Y-103538694D01*
X125920264Y-103680616D01*
X126074765Y-103792868D01*
X126249229Y-103870544D01*
X126436030Y-103910250D01*
X126627004Y-103910250D01*
X126813805Y-103870544D01*
X126988269Y-103792868D01*
X127142770Y-103680616D01*
X127270557Y-103538694D01*
X127366044Y-103373306D01*
X127425059Y-103191678D01*
X127445021Y-103001750D01*
X130618013Y-103001750D01*
X130637975Y-103191678D01*
X130637976Y-103191681D01*
X130696987Y-103373299D01*
X130696990Y-103373306D01*
X130792477Y-103538694D01*
X130920264Y-103680616D01*
X131074765Y-103792868D01*
X131249229Y-103870544D01*
X131436030Y-103910250D01*
X131627004Y-103910250D01*
X131813805Y-103870544D01*
X131988269Y-103792868D01*
X132142770Y-103680616D01*
X132270557Y-103538694D01*
X132366044Y-103373306D01*
X132425059Y-103191678D01*
X132445021Y-103001750D01*
X135618013Y-103001750D01*
X135637975Y-103191678D01*
X135637976Y-103191681D01*
X135696987Y-103373299D01*
X135696990Y-103373306D01*
X135792477Y-103538694D01*
X135920264Y-103680616D01*
X136074765Y-103792868D01*
X136249229Y-103870544D01*
X136436030Y-103910250D01*
X136627004Y-103910250D01*
X136813805Y-103870544D01*
X136988269Y-103792868D01*
X137142770Y-103680616D01*
X137270557Y-103538694D01*
X137366044Y-103373306D01*
X137425059Y-103191678D01*
X137445021Y-103001750D01*
X137425059Y-102811822D01*
X137366044Y-102630194D01*
X137270557Y-102464806D01*
X137266230Y-102460000D01*
X147656496Y-102460000D01*
X147676458Y-102649928D01*
X147676459Y-102649931D01*
X147735470Y-102831549D01*
X147735473Y-102831556D01*
X147830960Y-102996944D01*
X147958747Y-103138866D01*
X148113248Y-103251118D01*
X148287712Y-103328794D01*
X148474513Y-103368500D01*
X148665487Y-103368500D01*
X148852288Y-103328794D01*
X149026752Y-103251118D01*
X149181253Y-103138866D01*
X149304713Y-103001750D01*
X150618013Y-103001750D01*
X150637975Y-103191678D01*
X150637976Y-103191681D01*
X150696987Y-103373299D01*
X150696990Y-103373306D01*
X150792477Y-103538694D01*
X150920264Y-103680616D01*
X151074765Y-103792868D01*
X151249229Y-103870544D01*
X151436030Y-103910250D01*
X151627004Y-103910250D01*
X151813805Y-103870544D01*
X151988269Y-103792868D01*
X152142770Y-103680616D01*
X152270557Y-103538694D01*
X152366044Y-103373306D01*
X152425059Y-103191678D01*
X152445021Y-103001750D01*
X155618013Y-103001750D01*
X155637975Y-103191678D01*
X155637976Y-103191681D01*
X155696987Y-103373299D01*
X155696990Y-103373306D01*
X155792477Y-103538694D01*
X155920264Y-103680616D01*
X156074765Y-103792868D01*
X156249229Y-103870544D01*
X156436030Y-103910250D01*
X156627004Y-103910250D01*
X156813805Y-103870544D01*
X156988269Y-103792868D01*
X157142770Y-103680616D01*
X157270557Y-103538694D01*
X157366044Y-103373306D01*
X157425059Y-103191678D01*
X157445021Y-103001750D01*
X160618013Y-103001750D01*
X160637975Y-103191678D01*
X160637976Y-103191681D01*
X160696987Y-103373299D01*
X160696990Y-103373306D01*
X160792477Y-103538694D01*
X160920264Y-103680616D01*
X161074765Y-103792868D01*
X161249229Y-103870544D01*
X161436030Y-103910250D01*
X161627004Y-103910250D01*
X161813805Y-103870544D01*
X161988269Y-103792868D01*
X162142770Y-103680616D01*
X162270557Y-103538694D01*
X162366044Y-103373306D01*
X162425059Y-103191678D01*
X162445021Y-103001750D01*
X170618013Y-103001750D01*
X170637975Y-103191678D01*
X170637976Y-103191681D01*
X170696987Y-103373299D01*
X170696990Y-103373306D01*
X170792477Y-103538694D01*
X170920264Y-103680616D01*
X171074765Y-103792868D01*
X171249229Y-103870544D01*
X171436030Y-103910250D01*
X171627004Y-103910250D01*
X171813805Y-103870544D01*
X171988269Y-103792868D01*
X172142770Y-103680616D01*
X172270557Y-103538694D01*
X172366044Y-103373306D01*
X172425059Y-103191678D01*
X172445021Y-103001750D01*
X175618013Y-103001750D01*
X175637975Y-103191678D01*
X175637976Y-103191681D01*
X175696987Y-103373299D01*
X175696990Y-103373306D01*
X175792477Y-103538694D01*
X175920264Y-103680616D01*
X176074765Y-103792868D01*
X176249229Y-103870544D01*
X176436030Y-103910250D01*
X176627004Y-103910250D01*
X176813805Y-103870544D01*
X176988269Y-103792868D01*
X177142770Y-103680616D01*
X177270557Y-103538694D01*
X177366044Y-103373306D01*
X177425059Y-103191678D01*
X177445021Y-103001750D01*
X177425059Y-102811822D01*
X177366044Y-102630194D01*
X177270557Y-102464806D01*
X177142770Y-102322884D01*
X176988269Y-102210632D01*
X176813805Y-102132956D01*
X176813803Y-102132955D01*
X176627004Y-102093250D01*
X176436030Y-102093250D01*
X176249231Y-102132955D01*
X176074763Y-102210633D01*
X175920262Y-102322885D01*
X175792476Y-102464807D01*
X175696990Y-102630193D01*
X175696987Y-102630200D01*
X175637976Y-102811818D01*
X175637975Y-102811822D01*
X175618013Y-103001750D01*
X172445021Y-103001750D01*
X172425059Y-102811822D01*
X172366044Y-102630194D01*
X172270557Y-102464806D01*
X172142770Y-102322884D01*
X171988269Y-102210632D01*
X171813805Y-102132956D01*
X171813803Y-102132955D01*
X171627004Y-102093250D01*
X171436030Y-102093250D01*
X171249231Y-102132955D01*
X171074763Y-102210633D01*
X170920262Y-102322885D01*
X170792476Y-102464807D01*
X170696990Y-102630193D01*
X170696987Y-102630200D01*
X170637976Y-102811818D01*
X170637975Y-102811822D01*
X170618013Y-103001750D01*
X162445021Y-103001750D01*
X162425059Y-102811822D01*
X162366044Y-102630194D01*
X162270557Y-102464806D01*
X162142770Y-102322884D01*
X161988269Y-102210632D01*
X161813805Y-102132956D01*
X161813803Y-102132955D01*
X161627004Y-102093250D01*
X161436030Y-102093250D01*
X161249231Y-102132955D01*
X161074763Y-102210633D01*
X160920262Y-102322885D01*
X160792476Y-102464807D01*
X160696990Y-102630193D01*
X160696987Y-102630200D01*
X160637976Y-102811818D01*
X160637975Y-102811822D01*
X160618013Y-103001750D01*
X157445021Y-103001750D01*
X157425059Y-102811822D01*
X157366044Y-102630194D01*
X157270557Y-102464806D01*
X157142770Y-102322884D01*
X156988269Y-102210632D01*
X156813805Y-102132956D01*
X156813803Y-102132955D01*
X156627004Y-102093250D01*
X156436030Y-102093250D01*
X156249231Y-102132955D01*
X156074763Y-102210633D01*
X155920262Y-102322885D01*
X155792476Y-102464807D01*
X155696990Y-102630193D01*
X155696987Y-102630200D01*
X155637976Y-102811818D01*
X155637975Y-102811822D01*
X155618013Y-103001750D01*
X152445021Y-103001750D01*
X152425059Y-102811822D01*
X152366044Y-102630194D01*
X152270557Y-102464806D01*
X152142770Y-102322884D01*
X151988269Y-102210632D01*
X151813805Y-102132956D01*
X151813803Y-102132955D01*
X151627004Y-102093250D01*
X151436030Y-102093250D01*
X151249231Y-102132955D01*
X151074763Y-102210633D01*
X150920262Y-102322885D01*
X150792476Y-102464807D01*
X150696990Y-102630193D01*
X150696987Y-102630200D01*
X150637976Y-102811818D01*
X150637975Y-102811822D01*
X150618013Y-103001750D01*
X149304713Y-103001750D01*
X149309040Y-102996944D01*
X149404527Y-102831556D01*
X149463542Y-102649928D01*
X149483504Y-102460000D01*
X149463542Y-102270072D01*
X149404527Y-102088444D01*
X149309040Y-101923056D01*
X149181253Y-101781134D01*
X149026752Y-101668882D01*
X148852288Y-101591206D01*
X148852286Y-101591205D01*
X148665487Y-101551500D01*
X148474513Y-101551500D01*
X148287714Y-101591205D01*
X148113246Y-101668883D01*
X147958745Y-101781135D01*
X147830959Y-101923057D01*
X147735473Y-102088443D01*
X147735470Y-102088450D01*
X147695771Y-102210632D01*
X147676458Y-102270072D01*
X147656496Y-102460000D01*
X137266230Y-102460000D01*
X137142770Y-102322884D01*
X136988269Y-102210632D01*
X136813805Y-102132956D01*
X136813803Y-102132955D01*
X136627004Y-102093250D01*
X136436030Y-102093250D01*
X136249231Y-102132955D01*
X136074763Y-102210633D01*
X135920262Y-102322885D01*
X135792476Y-102464807D01*
X135696990Y-102630193D01*
X135696987Y-102630200D01*
X135637976Y-102811818D01*
X135637975Y-102811822D01*
X135618013Y-103001750D01*
X132445021Y-103001750D01*
X132425059Y-102811822D01*
X132366044Y-102630194D01*
X132270557Y-102464806D01*
X132142770Y-102322884D01*
X131988269Y-102210632D01*
X131813805Y-102132956D01*
X131813803Y-102132955D01*
X131627004Y-102093250D01*
X131436030Y-102093250D01*
X131249231Y-102132955D01*
X131074763Y-102210633D01*
X130920262Y-102322885D01*
X130792476Y-102464807D01*
X130696990Y-102630193D01*
X130696987Y-102630200D01*
X130637976Y-102811818D01*
X130637975Y-102811822D01*
X130618013Y-103001750D01*
X127445021Y-103001750D01*
X127425059Y-102811822D01*
X127366044Y-102630194D01*
X127270557Y-102464806D01*
X127142770Y-102322884D01*
X126988269Y-102210632D01*
X126813805Y-102132956D01*
X126813803Y-102132955D01*
X126627004Y-102093250D01*
X126436030Y-102093250D01*
X126249231Y-102132955D01*
X126074763Y-102210633D01*
X125920262Y-102322885D01*
X125792476Y-102464807D01*
X125696990Y-102630193D01*
X125696987Y-102630200D01*
X125637976Y-102811818D01*
X125637975Y-102811822D01*
X125618013Y-103001750D01*
X122445021Y-103001750D01*
X122425059Y-102811822D01*
X122366044Y-102630194D01*
X122270557Y-102464806D01*
X122142770Y-102322884D01*
X121988269Y-102210632D01*
X121813805Y-102132956D01*
X121813803Y-102132955D01*
X121627004Y-102093250D01*
X121436030Y-102093250D01*
X121249231Y-102132955D01*
X121074763Y-102210633D01*
X120920262Y-102322885D01*
X120792476Y-102464807D01*
X120696990Y-102630193D01*
X120696987Y-102630200D01*
X120637976Y-102811818D01*
X120637975Y-102811822D01*
X120618013Y-103001750D01*
X117445021Y-103001750D01*
X117425059Y-102811822D01*
X117366044Y-102630194D01*
X117270557Y-102464806D01*
X117142770Y-102322884D01*
X116988269Y-102210632D01*
X116813805Y-102132956D01*
X116813803Y-102132955D01*
X116627004Y-102093250D01*
X116436030Y-102093250D01*
X116249231Y-102132955D01*
X116074763Y-102210633D01*
X115920262Y-102322885D01*
X115792476Y-102464807D01*
X115696990Y-102630193D01*
X115696987Y-102630200D01*
X115637976Y-102811818D01*
X115637975Y-102811822D01*
X115618013Y-103001750D01*
X112445021Y-103001750D01*
X112425059Y-102811822D01*
X112366044Y-102630194D01*
X112270557Y-102464806D01*
X112142770Y-102322884D01*
X111988269Y-102210632D01*
X111813805Y-102132956D01*
X111813803Y-102132955D01*
X111627004Y-102093250D01*
X111436030Y-102093250D01*
X111249231Y-102132955D01*
X111074763Y-102210633D01*
X110920262Y-102322885D01*
X110792476Y-102464807D01*
X110696990Y-102630193D01*
X110696987Y-102630200D01*
X110637976Y-102811818D01*
X110637975Y-102811822D01*
X110618013Y-103001750D01*
X107445021Y-103001750D01*
X107425059Y-102811822D01*
X107366044Y-102630194D01*
X107270557Y-102464806D01*
X107142770Y-102322884D01*
X106988269Y-102210632D01*
X106813805Y-102132956D01*
X106813803Y-102132955D01*
X106627004Y-102093250D01*
X106436030Y-102093250D01*
X106249231Y-102132955D01*
X106074763Y-102210633D01*
X105920262Y-102322885D01*
X105792476Y-102464807D01*
X105696990Y-102630193D01*
X105696987Y-102630200D01*
X105637976Y-102811818D01*
X105637975Y-102811822D01*
X105618013Y-103001750D01*
X102530000Y-103001750D01*
X102530000Y-98001750D01*
X110618013Y-98001750D01*
X110637975Y-98191678D01*
X110637976Y-98191681D01*
X110696987Y-98373299D01*
X110696990Y-98373306D01*
X110792477Y-98538694D01*
X110920264Y-98680616D01*
X111074765Y-98792868D01*
X111249229Y-98870544D01*
X111436030Y-98910250D01*
X111627004Y-98910250D01*
X111813805Y-98870544D01*
X111988269Y-98792868D01*
X112142770Y-98680616D01*
X112270557Y-98538694D01*
X112366044Y-98373306D01*
X112425059Y-98191678D01*
X112445021Y-98001750D01*
X115618013Y-98001750D01*
X115637975Y-98191678D01*
X115637976Y-98191681D01*
X115696987Y-98373299D01*
X115696990Y-98373306D01*
X115792477Y-98538694D01*
X115920264Y-98680616D01*
X116074765Y-98792868D01*
X116249229Y-98870544D01*
X116436030Y-98910250D01*
X116627004Y-98910250D01*
X116813805Y-98870544D01*
X116988269Y-98792868D01*
X117142770Y-98680616D01*
X117270557Y-98538694D01*
X117366044Y-98373306D01*
X117425059Y-98191678D01*
X117445021Y-98001750D01*
X120618013Y-98001750D01*
X120637975Y-98191678D01*
X120637976Y-98191681D01*
X120696987Y-98373299D01*
X120696990Y-98373306D01*
X120792477Y-98538694D01*
X120920264Y-98680616D01*
X121074765Y-98792868D01*
X121249229Y-98870544D01*
X121436030Y-98910250D01*
X121627004Y-98910250D01*
X121813805Y-98870544D01*
X121988269Y-98792868D01*
X122142770Y-98680616D01*
X122270557Y-98538694D01*
X122366044Y-98373306D01*
X122425059Y-98191678D01*
X122445021Y-98001750D01*
X125618013Y-98001750D01*
X125637975Y-98191678D01*
X125637976Y-98191681D01*
X125696987Y-98373299D01*
X125696990Y-98373306D01*
X125792477Y-98538694D01*
X125920264Y-98680616D01*
X126074765Y-98792868D01*
X126249229Y-98870544D01*
X126436030Y-98910250D01*
X126627004Y-98910250D01*
X126813805Y-98870544D01*
X126988269Y-98792868D01*
X127142770Y-98680616D01*
X127270557Y-98538694D01*
X127366044Y-98373306D01*
X127425059Y-98191678D01*
X127445021Y-98001750D01*
X135618013Y-98001750D01*
X135637975Y-98191678D01*
X135637976Y-98191681D01*
X135696987Y-98373299D01*
X135696990Y-98373306D01*
X135792477Y-98538694D01*
X135920264Y-98680616D01*
X136074765Y-98792868D01*
X136249229Y-98870544D01*
X136436030Y-98910250D01*
X136627004Y-98910250D01*
X136813805Y-98870544D01*
X136988269Y-98792868D01*
X137142770Y-98680616D01*
X137270557Y-98538694D01*
X137366044Y-98373306D01*
X137425059Y-98191678D01*
X137445021Y-98001750D01*
X137425059Y-97811822D01*
X137390993Y-97706981D01*
X137388999Y-97637143D01*
X137425079Y-97577310D01*
X137487780Y-97546481D01*
X137557194Y-97554445D01*
X137596606Y-97580984D01*
X137602812Y-97587190D01*
X137717906Y-97673350D01*
X137717913Y-97673354D01*
X137852620Y-97723596D01*
X137852627Y-97723598D01*
X137912155Y-97729999D01*
X137912172Y-97730000D01*
X138910000Y-97730000D01*
X138910000Y-96743658D01*
X138929685Y-96676619D01*
X138982489Y-96630864D01*
X139050184Y-96620719D01*
X139120677Y-96630000D01*
X139120684Y-96630000D01*
X139199316Y-96630000D01*
X139199323Y-96630000D01*
X139269815Y-96620719D01*
X139338849Y-96631484D01*
X139391105Y-96677864D01*
X139410000Y-96743658D01*
X139410000Y-97730000D01*
X140407828Y-97730000D01*
X140407844Y-97729999D01*
X140467372Y-97723598D01*
X140474930Y-97721813D01*
X140475245Y-97723147D01*
X140536694Y-97718751D01*
X140598018Y-97752235D01*
X140631505Y-97813557D01*
X140633659Y-97852877D01*
X140618013Y-98001750D01*
X140637975Y-98191678D01*
X140637976Y-98191681D01*
X140696987Y-98373299D01*
X140696990Y-98373306D01*
X140792477Y-98538694D01*
X140920264Y-98680616D01*
X141074765Y-98792868D01*
X141249229Y-98870544D01*
X141436030Y-98910250D01*
X141627004Y-98910250D01*
X141813805Y-98870544D01*
X141988269Y-98792868D01*
X142142770Y-98680616D01*
X142270557Y-98538694D01*
X142366044Y-98373306D01*
X142425059Y-98191678D01*
X142445021Y-98001750D01*
X145618013Y-98001750D01*
X145637975Y-98191678D01*
X145637976Y-98191681D01*
X145696987Y-98373299D01*
X145696990Y-98373306D01*
X145792477Y-98538694D01*
X145920264Y-98680616D01*
X146074765Y-98792868D01*
X146249229Y-98870544D01*
X146436030Y-98910250D01*
X146627004Y-98910250D01*
X146813805Y-98870544D01*
X146988269Y-98792868D01*
X147142770Y-98680616D01*
X147270557Y-98538694D01*
X147366044Y-98373306D01*
X147425059Y-98191678D01*
X147445021Y-98001750D01*
X147425059Y-97811822D01*
X147366044Y-97630194D01*
X147270557Y-97464806D01*
X147142770Y-97322884D01*
X146988269Y-97210632D01*
X146813805Y-97132956D01*
X146813803Y-97132955D01*
X146627004Y-97093250D01*
X146436030Y-97093250D01*
X146249231Y-97132955D01*
X146074763Y-97210633D01*
X145920262Y-97322885D01*
X145792476Y-97464807D01*
X145696990Y-97630193D01*
X145696987Y-97630200D01*
X145648802Y-97778499D01*
X145637975Y-97811822D01*
X145618013Y-98001750D01*
X142445021Y-98001750D01*
X142425059Y-97811822D01*
X142366044Y-97630194D01*
X142270557Y-97464806D01*
X142142770Y-97322884D01*
X141988269Y-97210632D01*
X141813805Y-97132956D01*
X141813803Y-97132955D01*
X141627004Y-97093250D01*
X141436030Y-97093250D01*
X141249231Y-97132955D01*
X141074760Y-97210634D01*
X141056885Y-97223622D01*
X140991079Y-97247102D01*
X140923025Y-97231276D01*
X140874330Y-97181171D01*
X140860000Y-97123304D01*
X140860000Y-96617844D01*
X147720000Y-96617844D01*
X147726401Y-96677372D01*
X147726403Y-96677379D01*
X147776645Y-96812086D01*
X147776649Y-96812093D01*
X147862809Y-96927187D01*
X147862812Y-96927190D01*
X147977906Y-97013350D01*
X147977913Y-97013354D01*
X148112620Y-97063596D01*
X148112627Y-97063598D01*
X148172155Y-97069999D01*
X148172172Y-97070000D01*
X149570000Y-97070000D01*
X149570000Y-95885649D01*
X149589685Y-95818610D01*
X149642489Y-95772855D01*
X149707883Y-95762429D01*
X149745485Y-95766666D01*
X149775071Y-95770000D01*
X149775074Y-95770000D01*
X149864929Y-95770000D01*
X149894514Y-95766666D01*
X149932116Y-95762429D01*
X150000937Y-95774483D01*
X150052317Y-95821831D01*
X150070000Y-95885649D01*
X150070000Y-97070000D01*
X150886696Y-97070000D01*
X150953735Y-97089685D01*
X150999490Y-97142489D01*
X151009434Y-97211647D01*
X150980409Y-97275203D01*
X150959582Y-97294318D01*
X150920262Y-97322885D01*
X150792476Y-97464807D01*
X150696990Y-97630193D01*
X150696987Y-97630200D01*
X150648802Y-97778499D01*
X150637975Y-97811822D01*
X150618013Y-98001750D01*
X150637975Y-98191678D01*
X150637976Y-98191681D01*
X150696987Y-98373299D01*
X150696990Y-98373306D01*
X150792477Y-98538694D01*
X150920264Y-98680616D01*
X151074765Y-98792868D01*
X151249229Y-98870544D01*
X151436030Y-98910250D01*
X151627004Y-98910250D01*
X151813805Y-98870544D01*
X151988269Y-98792868D01*
X152142770Y-98680616D01*
X152270557Y-98538694D01*
X152366044Y-98373306D01*
X152425059Y-98191678D01*
X152445021Y-98001750D01*
X155618013Y-98001750D01*
X155637975Y-98191678D01*
X155637976Y-98191681D01*
X155696987Y-98373299D01*
X155696990Y-98373306D01*
X155792477Y-98538694D01*
X155920264Y-98680616D01*
X156074765Y-98792868D01*
X156249229Y-98870544D01*
X156436030Y-98910250D01*
X156627004Y-98910250D01*
X156813805Y-98870544D01*
X156988269Y-98792868D01*
X157142770Y-98680616D01*
X157270557Y-98538694D01*
X157366044Y-98373306D01*
X157425059Y-98191678D01*
X157445021Y-98001750D01*
X160618013Y-98001750D01*
X160637975Y-98191678D01*
X160637976Y-98191681D01*
X160696987Y-98373299D01*
X160696990Y-98373306D01*
X160792477Y-98538694D01*
X160920264Y-98680616D01*
X161074765Y-98792868D01*
X161249229Y-98870544D01*
X161436030Y-98910250D01*
X161627004Y-98910250D01*
X161813805Y-98870544D01*
X161988269Y-98792868D01*
X162142770Y-98680616D01*
X162270557Y-98538694D01*
X162366044Y-98373306D01*
X162425059Y-98191678D01*
X162445021Y-98001750D01*
X165618013Y-98001750D01*
X165637975Y-98191678D01*
X165637976Y-98191681D01*
X165696987Y-98373299D01*
X165696990Y-98373306D01*
X165792477Y-98538694D01*
X165920264Y-98680616D01*
X166074765Y-98792868D01*
X166249229Y-98870544D01*
X166436030Y-98910250D01*
X166627004Y-98910250D01*
X166813805Y-98870544D01*
X166988269Y-98792868D01*
X167142770Y-98680616D01*
X167270557Y-98538694D01*
X167366044Y-98373306D01*
X167425059Y-98191678D01*
X167445021Y-98001750D01*
X170618013Y-98001750D01*
X170637975Y-98191678D01*
X170637976Y-98191681D01*
X170696987Y-98373299D01*
X170696990Y-98373306D01*
X170792477Y-98538694D01*
X170920264Y-98680616D01*
X171074765Y-98792868D01*
X171249229Y-98870544D01*
X171436030Y-98910250D01*
X171627004Y-98910250D01*
X171813805Y-98870544D01*
X171988269Y-98792868D01*
X172142770Y-98680616D01*
X172270557Y-98538694D01*
X172366044Y-98373306D01*
X172425059Y-98191678D01*
X172445021Y-98001750D01*
X172425059Y-97811822D01*
X172366044Y-97630194D01*
X172270557Y-97464806D01*
X172142770Y-97322884D01*
X171988269Y-97210632D01*
X171813805Y-97132956D01*
X171813803Y-97132955D01*
X171627004Y-97093250D01*
X171436030Y-97093250D01*
X171249231Y-97132955D01*
X171074763Y-97210633D01*
X170920262Y-97322885D01*
X170792476Y-97464807D01*
X170696990Y-97630193D01*
X170696987Y-97630200D01*
X170648802Y-97778499D01*
X170637975Y-97811822D01*
X170618013Y-98001750D01*
X167445021Y-98001750D01*
X167425059Y-97811822D01*
X167366044Y-97630194D01*
X167270557Y-97464806D01*
X167142770Y-97322884D01*
X166988269Y-97210632D01*
X166813805Y-97132956D01*
X166813803Y-97132955D01*
X166627004Y-97093250D01*
X166436030Y-97093250D01*
X166249231Y-97132955D01*
X166074763Y-97210633D01*
X165920262Y-97322885D01*
X165792476Y-97464807D01*
X165696990Y-97630193D01*
X165696987Y-97630200D01*
X165648802Y-97778499D01*
X165637975Y-97811822D01*
X165618013Y-98001750D01*
X162445021Y-98001750D01*
X162425059Y-97811822D01*
X162366044Y-97630194D01*
X162270557Y-97464806D01*
X162142770Y-97322884D01*
X161988269Y-97210632D01*
X161813805Y-97132956D01*
X161813803Y-97132955D01*
X161627004Y-97093250D01*
X161436030Y-97093250D01*
X161249231Y-97132955D01*
X161074763Y-97210633D01*
X160920262Y-97322885D01*
X160792476Y-97464807D01*
X160696990Y-97630193D01*
X160696987Y-97630200D01*
X160648802Y-97778499D01*
X160637975Y-97811822D01*
X160618013Y-98001750D01*
X157445021Y-98001750D01*
X157425059Y-97811822D01*
X157366044Y-97630194D01*
X157270557Y-97464806D01*
X157142770Y-97322884D01*
X156988269Y-97210632D01*
X156813805Y-97132956D01*
X156813803Y-97132955D01*
X156627004Y-97093250D01*
X156436030Y-97093250D01*
X156249231Y-97132955D01*
X156074763Y-97210633D01*
X155920262Y-97322885D01*
X155792476Y-97464807D01*
X155696990Y-97630193D01*
X155696987Y-97630200D01*
X155648802Y-97778499D01*
X155637975Y-97811822D01*
X155618013Y-98001750D01*
X152445021Y-98001750D01*
X152425059Y-97811822D01*
X152366044Y-97630194D01*
X152270557Y-97464806D01*
X152142770Y-97322884D01*
X151988269Y-97210632D01*
X151813805Y-97132956D01*
X151813804Y-97132955D01*
X151810914Y-97131669D01*
X151757677Y-97086418D01*
X151737356Y-97019569D01*
X151756401Y-96952345D01*
X151773673Y-96930703D01*
X151777195Y-96927181D01*
X151863350Y-96812093D01*
X151863354Y-96812086D01*
X151913596Y-96677379D01*
X151913598Y-96677372D01*
X151919999Y-96617844D01*
X151920000Y-96617827D01*
X151920000Y-95220000D01*
X150735650Y-95220000D01*
X150668611Y-95200315D01*
X150622856Y-95147511D01*
X150612430Y-95082117D01*
X150625062Y-94970003D01*
X150625062Y-94969999D01*
X162946573Y-94969999D01*
X162966257Y-95257778D01*
X162966258Y-95257780D01*
X163024941Y-95540185D01*
X163024946Y-95540201D01*
X163110171Y-95780000D01*
X163121541Y-95811992D01*
X163254247Y-96068103D01*
X163420591Y-96303758D01*
X163420595Y-96303762D01*
X163420595Y-96303763D01*
X163617477Y-96514571D01*
X163816661Y-96676619D01*
X163841228Y-96696606D01*
X164087686Y-96846481D01*
X164087688Y-96846482D01*
X164087690Y-96846483D01*
X164152323Y-96874557D01*
X164352256Y-96961400D01*
X164630011Y-97039223D01*
X164881243Y-97073753D01*
X164915774Y-97078500D01*
X164915775Y-97078500D01*
X165204226Y-97078500D01*
X165235033Y-97074265D01*
X165489989Y-97039223D01*
X165767744Y-96961400D01*
X166032314Y-96846481D01*
X166278772Y-96696606D01*
X166360641Y-96630000D01*
X173256681Y-96630000D01*
X173275927Y-96874554D01*
X173333193Y-97113087D01*
X173427071Y-97339730D01*
X173535214Y-97516204D01*
X173555248Y-97548896D01*
X173714567Y-97735433D01*
X173901104Y-97894752D01*
X173901106Y-97894753D01*
X174110269Y-98022928D01*
X174217108Y-98067181D01*
X174336908Y-98116805D01*
X174575443Y-98174072D01*
X174820000Y-98193319D01*
X175064557Y-98174072D01*
X175303092Y-98116805D01*
X175529732Y-98022927D01*
X175738896Y-97894752D01*
X175925433Y-97735433D01*
X176084752Y-97548896D01*
X176212927Y-97339732D01*
X176221665Y-97318638D01*
X176257851Y-97231276D01*
X176306805Y-97113092D01*
X176364072Y-96874557D01*
X176383319Y-96630000D01*
X176364072Y-96385443D01*
X176306805Y-96146908D01*
X176233057Y-95968866D01*
X176212928Y-95920269D01*
X176098720Y-95733897D01*
X176080476Y-95666452D01*
X176101593Y-95599849D01*
X176130137Y-95569841D01*
X176227191Y-95497186D01*
X176313350Y-95382093D01*
X176313354Y-95382086D01*
X176363596Y-95247379D01*
X176363598Y-95247372D01*
X176369999Y-95187844D01*
X176370000Y-95187827D01*
X176370000Y-94340000D01*
X175486956Y-94340000D01*
X175419917Y-94320315D01*
X175374162Y-94267511D01*
X175363245Y-94207537D01*
X175364392Y-94190772D01*
X175373877Y-94052114D01*
X175360809Y-93989227D01*
X175366443Y-93919586D01*
X175408834Y-93864045D01*
X175474523Y-93840239D01*
X175482216Y-93840000D01*
X176370000Y-93840000D01*
X176370000Y-92992172D01*
X176369999Y-92992155D01*
X176363598Y-92932627D01*
X176363596Y-92932620D01*
X176313354Y-92797913D01*
X176313350Y-92797906D01*
X176227190Y-92682812D01*
X176227187Y-92682809D01*
X176112093Y-92596649D01*
X176112086Y-92596645D01*
X175977379Y-92546403D01*
X175977372Y-92546401D01*
X175917844Y-92540000D01*
X175070000Y-92540000D01*
X175070000Y-93425347D01*
X175050315Y-93492386D01*
X174997511Y-93538141D01*
X174928353Y-93548085D01*
X174912547Y-93544749D01*
X174895598Y-93540000D01*
X174895596Y-93540000D01*
X174782378Y-93540000D01*
X174782376Y-93540000D01*
X174710884Y-93549826D01*
X174641789Y-93539453D01*
X174589270Y-93493371D01*
X174570000Y-93426981D01*
X174570000Y-92540000D01*
X173722155Y-92540000D01*
X173662627Y-92546401D01*
X173662620Y-92546403D01*
X173527913Y-92596645D01*
X173527906Y-92596649D01*
X173412812Y-92682809D01*
X173412809Y-92682812D01*
X173326649Y-92797906D01*
X173326645Y-92797913D01*
X173276403Y-92932620D01*
X173276401Y-92932627D01*
X173270000Y-92992155D01*
X173270000Y-93840000D01*
X174153044Y-93840000D01*
X174220083Y-93859685D01*
X174265838Y-93912489D01*
X174276755Y-93972463D01*
X174276441Y-93977045D01*
X174276441Y-93977047D01*
X174266123Y-94127886D01*
X174276448Y-94177570D01*
X174279191Y-94190772D01*
X174273557Y-94260414D01*
X174231166Y-94315955D01*
X174165477Y-94339761D01*
X174157784Y-94340000D01*
X173270000Y-94340000D01*
X173270000Y-95187844D01*
X173276401Y-95247372D01*
X173276403Y-95247379D01*
X173326645Y-95382086D01*
X173326649Y-95382093D01*
X173412809Y-95497186D01*
X173509862Y-95569841D01*
X173551733Y-95625775D01*
X173556717Y-95695467D01*
X173541279Y-95733897D01*
X173427072Y-95920269D01*
X173333193Y-96146912D01*
X173275927Y-96385445D01*
X173256681Y-96630000D01*
X166360641Y-96630000D01*
X166502526Y-96514568D01*
X166699409Y-96303758D01*
X166865753Y-96068103D01*
X166998459Y-95811992D01*
X167095055Y-95540196D01*
X167095055Y-95540191D01*
X167095058Y-95540185D01*
X167127911Y-95382086D01*
X167153742Y-95257778D01*
X167173427Y-94970000D01*
X167153742Y-94682222D01*
X167130178Y-94568824D01*
X167095058Y-94399814D01*
X167095053Y-94399798D01*
X167039918Y-94244664D01*
X166998459Y-94128008D01*
X166865753Y-93871897D01*
X166699409Y-93636242D01*
X166699404Y-93636236D01*
X166511877Y-93435445D01*
X166502526Y-93425432D01*
X166502524Y-93425431D01*
X166502522Y-93425428D01*
X166278771Y-93243393D01*
X166032309Y-93093516D01*
X165821042Y-93001750D01*
X170618013Y-93001750D01*
X170637975Y-93191678D01*
X170637976Y-93191681D01*
X170696987Y-93373299D01*
X170696990Y-93373306D01*
X170792477Y-93538694D01*
X170920264Y-93680616D01*
X171074765Y-93792868D01*
X171249229Y-93870544D01*
X171436030Y-93910250D01*
X171627004Y-93910250D01*
X171813805Y-93870544D01*
X171988269Y-93792868D01*
X172142770Y-93680616D01*
X172270557Y-93538694D01*
X172366044Y-93373306D01*
X172425059Y-93191678D01*
X172445021Y-93001750D01*
X172425059Y-92811822D01*
X172366044Y-92630194D01*
X172270557Y-92464806D01*
X172142770Y-92322884D01*
X171988269Y-92210632D01*
X171813805Y-92132956D01*
X171813803Y-92132955D01*
X171627004Y-92093250D01*
X171436030Y-92093250D01*
X171249231Y-92132955D01*
X171074763Y-92210633D01*
X170920262Y-92322885D01*
X170792476Y-92464807D01*
X170696990Y-92630193D01*
X170696987Y-92630200D01*
X170642494Y-92797913D01*
X170637975Y-92811822D01*
X170618013Y-93001750D01*
X165821042Y-93001750D01*
X165767745Y-92978600D01*
X165489995Y-92900778D01*
X165489990Y-92900777D01*
X165489989Y-92900777D01*
X165347107Y-92881138D01*
X165204226Y-92861500D01*
X165204225Y-92861500D01*
X164915775Y-92861500D01*
X164915774Y-92861500D01*
X164630011Y-92900777D01*
X164630004Y-92900778D01*
X164352254Y-92978600D01*
X164087690Y-93093516D01*
X163841228Y-93243393D01*
X163617477Y-93425428D01*
X163420595Y-93636236D01*
X163420595Y-93636237D01*
X163420592Y-93636239D01*
X163420591Y-93636242D01*
X163367774Y-93711066D01*
X163254247Y-93871896D01*
X163121540Y-94128009D01*
X163024946Y-94399798D01*
X163024941Y-94399814D01*
X162966258Y-94682219D01*
X162966257Y-94682221D01*
X162946573Y-94969999D01*
X150625062Y-94969999D01*
X150625062Y-94969996D01*
X150612430Y-94857883D01*
X150624484Y-94789062D01*
X150671834Y-94737682D01*
X150735650Y-94720000D01*
X151920000Y-94720000D01*
X151920000Y-93322172D01*
X151919999Y-93322155D01*
X151913598Y-93262627D01*
X151913596Y-93262620D01*
X151863354Y-93127913D01*
X151863350Y-93127906D01*
X151777190Y-93012812D01*
X151777187Y-93012809D01*
X151762414Y-93001750D01*
X155618013Y-93001750D01*
X155637975Y-93191678D01*
X155637976Y-93191681D01*
X155696987Y-93373299D01*
X155696990Y-93373306D01*
X155792477Y-93538694D01*
X155920264Y-93680616D01*
X156074765Y-93792868D01*
X156249229Y-93870544D01*
X156436030Y-93910250D01*
X156627004Y-93910250D01*
X156813805Y-93870544D01*
X156988269Y-93792868D01*
X157142770Y-93680616D01*
X157270557Y-93538694D01*
X157366044Y-93373306D01*
X157425059Y-93191678D01*
X157445021Y-93001750D01*
X160618013Y-93001750D01*
X160637975Y-93191678D01*
X160637976Y-93191681D01*
X160696987Y-93373299D01*
X160696990Y-93373306D01*
X160792477Y-93538694D01*
X160920264Y-93680616D01*
X161074765Y-93792868D01*
X161249229Y-93870544D01*
X161436030Y-93910250D01*
X161627004Y-93910250D01*
X161813805Y-93870544D01*
X161988269Y-93792868D01*
X162142770Y-93680616D01*
X162270557Y-93538694D01*
X162366044Y-93373306D01*
X162425059Y-93191678D01*
X162445021Y-93001750D01*
X162425059Y-92811822D01*
X162366044Y-92630194D01*
X162270557Y-92464806D01*
X162142770Y-92322884D01*
X161988269Y-92210632D01*
X161813805Y-92132956D01*
X161813803Y-92132955D01*
X161627004Y-92093250D01*
X161436030Y-92093250D01*
X161249231Y-92132955D01*
X161074763Y-92210633D01*
X160920262Y-92322885D01*
X160792476Y-92464807D01*
X160696990Y-92630193D01*
X160696987Y-92630200D01*
X160642494Y-92797913D01*
X160637975Y-92811822D01*
X160618013Y-93001750D01*
X157445021Y-93001750D01*
X157425059Y-92811822D01*
X157366044Y-92630194D01*
X157270557Y-92464806D01*
X157142770Y-92322884D01*
X156988269Y-92210632D01*
X156813805Y-92132956D01*
X156813803Y-92132955D01*
X156627004Y-92093250D01*
X156436030Y-92093250D01*
X156249231Y-92132955D01*
X156074763Y-92210633D01*
X155920262Y-92322885D01*
X155792476Y-92464807D01*
X155696990Y-92630193D01*
X155696987Y-92630200D01*
X155642494Y-92797913D01*
X155637975Y-92811822D01*
X155618013Y-93001750D01*
X151762414Y-93001750D01*
X151662093Y-92926649D01*
X151662086Y-92926645D01*
X151527379Y-92876403D01*
X151527372Y-92876401D01*
X151467844Y-92870000D01*
X150070000Y-92870000D01*
X150070000Y-94054350D01*
X150050315Y-94121389D01*
X149997511Y-94167144D01*
X149932116Y-94177570D01*
X149864930Y-94170000D01*
X149864926Y-94170000D01*
X149775074Y-94170000D01*
X149775070Y-94170000D01*
X149707884Y-94177570D01*
X149639062Y-94165516D01*
X149587682Y-94118167D01*
X149570000Y-94054350D01*
X149570000Y-92870000D01*
X148172155Y-92870000D01*
X148112627Y-92876401D01*
X148112620Y-92876403D01*
X147977913Y-92926645D01*
X147977906Y-92926649D01*
X147862812Y-93012809D01*
X147862809Y-93012812D01*
X147776649Y-93127906D01*
X147776645Y-93127913D01*
X147726403Y-93262620D01*
X147726401Y-93262627D01*
X147720000Y-93322155D01*
X147720000Y-94720000D01*
X148904350Y-94720000D01*
X148971389Y-94739685D01*
X149017144Y-94792489D01*
X149027570Y-94857883D01*
X149014938Y-94969996D01*
X149014938Y-94970003D01*
X149027570Y-95082117D01*
X149015516Y-95150938D01*
X148968166Y-95202318D01*
X148904350Y-95220000D01*
X147720000Y-95220000D01*
X147720000Y-96617844D01*
X140860000Y-96617844D01*
X140860000Y-96280000D01*
X139873658Y-96280000D01*
X139806619Y-96260315D01*
X139760864Y-96207511D01*
X139750719Y-96139816D01*
X139765177Y-96030000D01*
X139750719Y-95920183D01*
X139761484Y-95851151D01*
X139807864Y-95798895D01*
X139873658Y-95780000D01*
X140860000Y-95780000D01*
X140860000Y-94782172D01*
X140859999Y-94782155D01*
X140853598Y-94722627D01*
X140853596Y-94722620D01*
X140803354Y-94587913D01*
X140803350Y-94587906D01*
X140717190Y-94472812D01*
X140717187Y-94472809D01*
X140602093Y-94386649D01*
X140602086Y-94386645D01*
X140467379Y-94336403D01*
X140467372Y-94336401D01*
X140407844Y-94330000D01*
X139410000Y-94330000D01*
X139410000Y-95316341D01*
X139390315Y-95383380D01*
X139337511Y-95429135D01*
X139269815Y-95439280D01*
X139199333Y-95430001D01*
X139199328Y-95430000D01*
X139199323Y-95430000D01*
X139120677Y-95430000D01*
X139120671Y-95430000D01*
X139120666Y-95430001D01*
X139050185Y-95439280D01*
X138981150Y-95428514D01*
X138928894Y-95382134D01*
X138910000Y-95316341D01*
X138910000Y-94330000D01*
X137912155Y-94330000D01*
X137852627Y-94336401D01*
X137852620Y-94336403D01*
X137717913Y-94386645D01*
X137717906Y-94386649D01*
X137602812Y-94472809D01*
X137602809Y-94472812D01*
X137516649Y-94587906D01*
X137516645Y-94587913D01*
X137466403Y-94722620D01*
X137466401Y-94722627D01*
X137460000Y-94782155D01*
X137460000Y-95780000D01*
X138446342Y-95780000D01*
X138513381Y-95799685D01*
X138559136Y-95852489D01*
X138569280Y-95920183D01*
X138554823Y-96030000D01*
X138569280Y-96139816D01*
X138558516Y-96208849D01*
X138512136Y-96261105D01*
X138446342Y-96280000D01*
X137460000Y-96280000D01*
X137460000Y-97277844D01*
X137467231Y-97345087D01*
X137464833Y-97345344D01*
X137461715Y-97403221D01*
X137420833Y-97459882D01*
X137355808Y-97485446D01*
X137287285Y-97471796D01*
X137252642Y-97444910D01*
X137142770Y-97322884D01*
X136988269Y-97210632D01*
X136813805Y-97132956D01*
X136813803Y-97132955D01*
X136627004Y-97093250D01*
X136436030Y-97093250D01*
X136249231Y-97132955D01*
X136074763Y-97210633D01*
X135920262Y-97322885D01*
X135792476Y-97464807D01*
X135696990Y-97630193D01*
X135696987Y-97630200D01*
X135648802Y-97778499D01*
X135637975Y-97811822D01*
X135618013Y-98001750D01*
X127445021Y-98001750D01*
X127425059Y-97811822D01*
X127366044Y-97630194D01*
X127270557Y-97464806D01*
X127142770Y-97322884D01*
X126988269Y-97210632D01*
X126813805Y-97132956D01*
X126813803Y-97132955D01*
X126627004Y-97093250D01*
X126436030Y-97093250D01*
X126249231Y-97132955D01*
X126074763Y-97210633D01*
X125920262Y-97322885D01*
X125792476Y-97464807D01*
X125696990Y-97630193D01*
X125696987Y-97630200D01*
X125648802Y-97778499D01*
X125637975Y-97811822D01*
X125618013Y-98001750D01*
X122445021Y-98001750D01*
X122425059Y-97811822D01*
X122366044Y-97630194D01*
X122270557Y-97464806D01*
X122142770Y-97322884D01*
X121988269Y-97210632D01*
X121813805Y-97132956D01*
X121813803Y-97132955D01*
X121627004Y-97093250D01*
X121436030Y-97093250D01*
X121249231Y-97132955D01*
X121074763Y-97210633D01*
X120920262Y-97322885D01*
X120792476Y-97464807D01*
X120696990Y-97630193D01*
X120696987Y-97630200D01*
X120648802Y-97778499D01*
X120637975Y-97811822D01*
X120618013Y-98001750D01*
X117445021Y-98001750D01*
X117425059Y-97811822D01*
X117366044Y-97630194D01*
X117270557Y-97464806D01*
X117142770Y-97322884D01*
X116988269Y-97210632D01*
X116813805Y-97132956D01*
X116813803Y-97132955D01*
X116627004Y-97093250D01*
X116436030Y-97093250D01*
X116249231Y-97132955D01*
X116074763Y-97210633D01*
X115920262Y-97322885D01*
X115792476Y-97464807D01*
X115696990Y-97630193D01*
X115696987Y-97630200D01*
X115648802Y-97778499D01*
X115637975Y-97811822D01*
X115618013Y-98001750D01*
X112445021Y-98001750D01*
X112425059Y-97811822D01*
X112366044Y-97630194D01*
X112270557Y-97464806D01*
X112142770Y-97322884D01*
X111988269Y-97210632D01*
X111813805Y-97132956D01*
X111813803Y-97132955D01*
X111627004Y-97093250D01*
X111436030Y-97093250D01*
X111249231Y-97132955D01*
X111074763Y-97210633D01*
X110920262Y-97322885D01*
X110792476Y-97464807D01*
X110696990Y-97630193D01*
X110696987Y-97630200D01*
X110648802Y-97778499D01*
X110637975Y-97811822D01*
X110618013Y-98001750D01*
X102530000Y-98001750D01*
X102530000Y-93680000D01*
X104906681Y-93680000D01*
X104925927Y-93924554D01*
X104983193Y-94163087D01*
X104983194Y-94163091D01*
X104983195Y-94163092D01*
X105077073Y-94389732D01*
X105083245Y-94399804D01*
X105186819Y-94568824D01*
X105205063Y-94636270D01*
X105183946Y-94702872D01*
X105155402Y-94732879D01*
X105056741Y-94806737D01*
X105056740Y-94806738D01*
X105056739Y-94806739D01*
X105021531Y-94853770D01*
X104969111Y-94923795D01*
X104918011Y-95060795D01*
X104918011Y-95060797D01*
X104911500Y-95121345D01*
X104911500Y-97318654D01*
X104918011Y-97379202D01*
X104918011Y-97379204D01*
X104968196Y-97513751D01*
X104969111Y-97516204D01*
X105056739Y-97633261D01*
X105173796Y-97720889D01*
X105310799Y-97771989D01*
X105338050Y-97774918D01*
X105371345Y-97778499D01*
X105371362Y-97778500D01*
X107568638Y-97778500D01*
X107568654Y-97778499D01*
X107595692Y-97775591D01*
X107629201Y-97771989D01*
X107766204Y-97720889D01*
X107883261Y-97633261D01*
X107970889Y-97516204D01*
X108021989Y-97379201D01*
X108026232Y-97339732D01*
X108028499Y-97318654D01*
X108028499Y-97318647D01*
X108028500Y-97318638D01*
X108028500Y-95290000D01*
X110796496Y-95290000D01*
X110816458Y-95479928D01*
X110816459Y-95479931D01*
X110875470Y-95661549D01*
X110875473Y-95661556D01*
X110970960Y-95826944D01*
X111098747Y-95968866D01*
X111253248Y-96081118D01*
X111427712Y-96158794D01*
X111614513Y-96198500D01*
X111805487Y-96198500D01*
X111992288Y-96158794D01*
X112166752Y-96081118D01*
X112237104Y-96030004D01*
X129946709Y-96030004D01*
X129965843Y-96285343D01*
X129965844Y-96285348D01*
X130022822Y-96534987D01*
X130022824Y-96534996D01*
X130022826Y-96535001D01*
X130116378Y-96773369D01*
X130244413Y-96995131D01*
X130346627Y-97123304D01*
X130404072Y-97195338D01*
X130581271Y-97359753D01*
X130591781Y-97369505D01*
X130803355Y-97513754D01*
X130803360Y-97513756D01*
X130803361Y-97513757D01*
X130803362Y-97513758D01*
X130925890Y-97572764D01*
X131034061Y-97624856D01*
X131034062Y-97624856D01*
X131034065Y-97624858D01*
X131278757Y-97700335D01*
X131278758Y-97700335D01*
X131278761Y-97700336D01*
X131531958Y-97738499D01*
X131531963Y-97738499D01*
X131531966Y-97738500D01*
X131531967Y-97738500D01*
X131788033Y-97738500D01*
X131788034Y-97738500D01*
X131788041Y-97738499D01*
X132041238Y-97700336D01*
X132041239Y-97700335D01*
X132041243Y-97700335D01*
X132285935Y-97624858D01*
X132470651Y-97535903D01*
X132516638Y-97513758D01*
X132516638Y-97513757D01*
X132516646Y-97513754D01*
X132728219Y-97369505D01*
X132898350Y-97211647D01*
X132915927Y-97195338D01*
X132915927Y-97195336D01*
X132915931Y-97195334D01*
X133075587Y-96995131D01*
X133203622Y-96773369D01*
X133297174Y-96535001D01*
X133354155Y-96285353D01*
X133355972Y-96261105D01*
X133373291Y-96030004D01*
X133373291Y-96029995D01*
X133354156Y-95774656D01*
X133354155Y-95774651D01*
X133354155Y-95774647D01*
X133297174Y-95524999D01*
X133203622Y-95286631D01*
X133075587Y-95064869D01*
X132915931Y-94864666D01*
X132915930Y-94864665D01*
X132915927Y-94864661D01*
X132781233Y-94739685D01*
X132728219Y-94690495D01*
X132716083Y-94682221D01*
X132516649Y-94546248D01*
X132516638Y-94546241D01*
X132285940Y-94435144D01*
X132285921Y-94435137D01*
X132041248Y-94359666D01*
X132041238Y-94359663D01*
X131788041Y-94321500D01*
X131788034Y-94321500D01*
X131531966Y-94321500D01*
X131531958Y-94321500D01*
X131278761Y-94359663D01*
X131278755Y-94359665D01*
X131034061Y-94435143D01*
X130803362Y-94546241D01*
X130803361Y-94546242D01*
X130591780Y-94690495D01*
X130404072Y-94864661D01*
X130244413Y-95064869D01*
X130116378Y-95286630D01*
X130022828Y-95524993D01*
X130022822Y-95525012D01*
X129965844Y-95774651D01*
X129965843Y-95774656D01*
X129946709Y-96029995D01*
X129946709Y-96030004D01*
X112237104Y-96030004D01*
X112321253Y-95968866D01*
X112449040Y-95826944D01*
X112544527Y-95661556D01*
X112603542Y-95479928D01*
X112623504Y-95290000D01*
X112603542Y-95100072D01*
X112544527Y-94918444D01*
X112449040Y-94753056D01*
X112321253Y-94611134D01*
X112166752Y-94498882D01*
X111992288Y-94421206D01*
X111992286Y-94421205D01*
X111805487Y-94381500D01*
X111614513Y-94381500D01*
X111427714Y-94421205D01*
X111340480Y-94460044D01*
X111311803Y-94472812D01*
X111253246Y-94498883D01*
X111098745Y-94611135D01*
X110970959Y-94753057D01*
X110875473Y-94918443D01*
X110875470Y-94918450D01*
X110816459Y-95100068D01*
X110816458Y-95100072D01*
X110796496Y-95290000D01*
X108028500Y-95290000D01*
X108028500Y-95121362D01*
X108028499Y-95121352D01*
X108028499Y-95121345D01*
X108025157Y-95090270D01*
X108021989Y-95060799D01*
X107970889Y-94923796D01*
X107883261Y-94806739D01*
X107784596Y-94732879D01*
X107742726Y-94676946D01*
X107737742Y-94607254D01*
X107753180Y-94568824D01*
X107862927Y-94389732D01*
X107956805Y-94163092D01*
X108014072Y-93924557D01*
X108033319Y-93680000D01*
X108014072Y-93435443D01*
X107956805Y-93196908D01*
X107907182Y-93077108D01*
X107875968Y-93001750D01*
X120618013Y-93001750D01*
X120637975Y-93191678D01*
X120637976Y-93191681D01*
X120696987Y-93373299D01*
X120696990Y-93373306D01*
X120792477Y-93538694D01*
X120920264Y-93680616D01*
X121074765Y-93792868D01*
X121249229Y-93870544D01*
X121436030Y-93910250D01*
X121627004Y-93910250D01*
X121813805Y-93870544D01*
X121988269Y-93792868D01*
X122142770Y-93680616D01*
X122270557Y-93538694D01*
X122366044Y-93373306D01*
X122425059Y-93191678D01*
X122445021Y-93001750D01*
X125618013Y-93001750D01*
X125637975Y-93191678D01*
X125637976Y-93191681D01*
X125696987Y-93373299D01*
X125696990Y-93373306D01*
X125792477Y-93538694D01*
X125920264Y-93680616D01*
X126074765Y-93792868D01*
X126249229Y-93870544D01*
X126436030Y-93910250D01*
X126627004Y-93910250D01*
X126813805Y-93870544D01*
X126988269Y-93792868D01*
X127142770Y-93680616D01*
X127270557Y-93538694D01*
X127366044Y-93373306D01*
X127425059Y-93191678D01*
X127445021Y-93001750D01*
X130618013Y-93001750D01*
X130637975Y-93191678D01*
X130637976Y-93191681D01*
X130696987Y-93373299D01*
X130696990Y-93373306D01*
X130792477Y-93538694D01*
X130920264Y-93680616D01*
X131074765Y-93792868D01*
X131249229Y-93870544D01*
X131436030Y-93910250D01*
X131627004Y-93910250D01*
X131813805Y-93870544D01*
X131988269Y-93792868D01*
X132142770Y-93680616D01*
X132270557Y-93538694D01*
X132366044Y-93373306D01*
X132425059Y-93191678D01*
X132445021Y-93001750D01*
X135618013Y-93001750D01*
X135637975Y-93191678D01*
X135637976Y-93191681D01*
X135696987Y-93373299D01*
X135696990Y-93373306D01*
X135792477Y-93538694D01*
X135920264Y-93680616D01*
X136074765Y-93792868D01*
X136249229Y-93870544D01*
X136436030Y-93910250D01*
X136627004Y-93910250D01*
X136813805Y-93870544D01*
X136988269Y-93792868D01*
X137142770Y-93680616D01*
X137270557Y-93538694D01*
X137366044Y-93373306D01*
X137425059Y-93191678D01*
X137445021Y-93001750D01*
X140618013Y-93001750D01*
X140637975Y-93191678D01*
X140637976Y-93191681D01*
X140696987Y-93373299D01*
X140696990Y-93373306D01*
X140792477Y-93538694D01*
X140920264Y-93680616D01*
X141074765Y-93792868D01*
X141249229Y-93870544D01*
X141436030Y-93910250D01*
X141627004Y-93910250D01*
X141813805Y-93870544D01*
X141988269Y-93792868D01*
X142142770Y-93680616D01*
X142270557Y-93538694D01*
X142366044Y-93373306D01*
X142425059Y-93191678D01*
X142445021Y-93001750D01*
X145618013Y-93001750D01*
X145637975Y-93191678D01*
X145637976Y-93191681D01*
X145696987Y-93373299D01*
X145696990Y-93373306D01*
X145792477Y-93538694D01*
X145920264Y-93680616D01*
X146074765Y-93792868D01*
X146249229Y-93870544D01*
X146436030Y-93910250D01*
X146627004Y-93910250D01*
X146813805Y-93870544D01*
X146988269Y-93792868D01*
X147142770Y-93680616D01*
X147270557Y-93538694D01*
X147366044Y-93373306D01*
X147425059Y-93191678D01*
X147445021Y-93001750D01*
X147425059Y-92811822D01*
X147366044Y-92630194D01*
X147270557Y-92464806D01*
X147142770Y-92322884D01*
X146988269Y-92210632D01*
X146813805Y-92132956D01*
X146813803Y-92132955D01*
X146627004Y-92093250D01*
X146436030Y-92093250D01*
X146249231Y-92132955D01*
X146074763Y-92210633D01*
X145920262Y-92322885D01*
X145792476Y-92464807D01*
X145696990Y-92630193D01*
X145696987Y-92630200D01*
X145642494Y-92797913D01*
X145637975Y-92811822D01*
X145618013Y-93001750D01*
X142445021Y-93001750D01*
X142425059Y-92811822D01*
X142366044Y-92630194D01*
X142270557Y-92464806D01*
X142142770Y-92322884D01*
X141988269Y-92210632D01*
X141813805Y-92132956D01*
X141813803Y-92132955D01*
X141627004Y-92093250D01*
X141436030Y-92093250D01*
X141249231Y-92132955D01*
X141074763Y-92210633D01*
X140920262Y-92322885D01*
X140792476Y-92464807D01*
X140696990Y-92630193D01*
X140696987Y-92630200D01*
X140642494Y-92797913D01*
X140637975Y-92811822D01*
X140618013Y-93001750D01*
X137445021Y-93001750D01*
X137425059Y-92811822D01*
X137366044Y-92630194D01*
X137270557Y-92464806D01*
X137142770Y-92322884D01*
X136988269Y-92210632D01*
X136813805Y-92132956D01*
X136813803Y-92132955D01*
X136627004Y-92093250D01*
X136436030Y-92093250D01*
X136249231Y-92132955D01*
X136074763Y-92210633D01*
X135920262Y-92322885D01*
X135792476Y-92464807D01*
X135696990Y-92630193D01*
X135696987Y-92630200D01*
X135642494Y-92797913D01*
X135637975Y-92811822D01*
X135618013Y-93001750D01*
X132445021Y-93001750D01*
X132425059Y-92811822D01*
X132366044Y-92630194D01*
X132270557Y-92464806D01*
X132142770Y-92322884D01*
X131988269Y-92210632D01*
X131813805Y-92132956D01*
X131813803Y-92132955D01*
X131627004Y-92093250D01*
X131436030Y-92093250D01*
X131249231Y-92132955D01*
X131074763Y-92210633D01*
X130920262Y-92322885D01*
X130792476Y-92464807D01*
X130696990Y-92630193D01*
X130696987Y-92630200D01*
X130642494Y-92797913D01*
X130637975Y-92811822D01*
X130618013Y-93001750D01*
X127445021Y-93001750D01*
X127425059Y-92811822D01*
X127366044Y-92630194D01*
X127270557Y-92464806D01*
X127142770Y-92322884D01*
X126988269Y-92210632D01*
X126813805Y-92132956D01*
X126813803Y-92132955D01*
X126627004Y-92093250D01*
X126436030Y-92093250D01*
X126249231Y-92132955D01*
X126074763Y-92210633D01*
X125920262Y-92322885D01*
X125792476Y-92464807D01*
X125696990Y-92630193D01*
X125696987Y-92630200D01*
X125642494Y-92797913D01*
X125637975Y-92811822D01*
X125618013Y-93001750D01*
X122445021Y-93001750D01*
X122425059Y-92811822D01*
X122366044Y-92630194D01*
X122270557Y-92464806D01*
X122142770Y-92322884D01*
X121988269Y-92210632D01*
X121813805Y-92132956D01*
X121813803Y-92132955D01*
X121627004Y-92093250D01*
X121436030Y-92093250D01*
X121249231Y-92132955D01*
X121074763Y-92210633D01*
X120920262Y-92322885D01*
X120792476Y-92464807D01*
X120696990Y-92630193D01*
X120696987Y-92630200D01*
X120642494Y-92797913D01*
X120637975Y-92811822D01*
X120618013Y-93001750D01*
X107875968Y-93001750D01*
X107862928Y-92970269D01*
X107734753Y-92761106D01*
X107734752Y-92761104D01*
X107575433Y-92574567D01*
X107388896Y-92415248D01*
X107388893Y-92415246D01*
X107179730Y-92287071D01*
X106953087Y-92193193D01*
X106714553Y-92135927D01*
X106714554Y-92135927D01*
X106470000Y-92116681D01*
X106225445Y-92135927D01*
X105986912Y-92193193D01*
X105760269Y-92287071D01*
X105551106Y-92415246D01*
X105364567Y-92574567D01*
X105205246Y-92761106D01*
X105077071Y-92970269D01*
X104983193Y-93196912D01*
X104925927Y-93435445D01*
X104906681Y-93680000D01*
X102530000Y-93680000D01*
X102530000Y-87654500D01*
X102549685Y-87587461D01*
X102602489Y-87541706D01*
X102654000Y-87530500D01*
X178615500Y-87530500D01*
X178682539Y-87550185D01*
G37*
%TD.AperFunction*%
%TD*%
M02*
