%TF.GenerationSoftware,KiCad,Pcbnew,7.0.7*%
%TF.CreationDate,2023-09-13T14:30:02-04:00*%
%TF.ProjectId,Alim,416c696d-2e6b-4696-9361-645f70636258,rev?*%
%TF.SameCoordinates,Original*%
%TF.FileFunction,Copper,L1,Top*%
%TF.FilePolarity,Positive*%
%FSLAX46Y46*%
G04 Gerber Fmt 4.6, Leading zero omitted, Abs format (unit mm)*
G04 Created by KiCad (PCBNEW 7.0.7) date 2023-09-13 14:30:02*
%MOMM*%
%LPD*%
G01*
G04 APERTURE LIST*
G04 Aperture macros list*
%AMRoundRect*
0 Rectangle with rounded corners*
0 $1 Rounding radius*
0 $2 $3 $4 $5 $6 $7 $8 $9 X,Y pos of 4 corners*
0 Add a 4 corners polygon primitive as box body*
4,1,4,$2,$3,$4,$5,$6,$7,$8,$9,$2,$3,0*
0 Add four circle primitives for the rounded corners*
1,1,$1+$1,$2,$3*
1,1,$1+$1,$4,$5*
1,1,$1+$1,$6,$7*
1,1,$1+$1,$8,$9*
0 Add four rect primitives between the rounded corners*
20,1,$1+$1,$2,$3,$4,$5,0*
20,1,$1+$1,$4,$5,$6,$7,0*
20,1,$1+$1,$6,$7,$8,$9,0*
20,1,$1+$1,$8,$9,$2,$3,0*%
G04 Aperture macros list end*
%TA.AperFunction,SMDPad,CuDef*%
%ADD10RoundRect,0.250000X-0.450000X0.262500X-0.450000X-0.262500X0.450000X-0.262500X0.450000X0.262500X0*%
%TD*%
%TA.AperFunction,SMDPad,CuDef*%
%ADD11RoundRect,0.250000X-0.250000X-0.475000X0.250000X-0.475000X0.250000X0.475000X-0.250000X0.475000X0*%
%TD*%
%TA.AperFunction,ComponentPad*%
%ADD12R,2.400000X2.400000*%
%TD*%
%TA.AperFunction,ComponentPad*%
%ADD13C,2.400000*%
%TD*%
%TA.AperFunction,ComponentPad*%
%ADD14R,1.200000X1.200000*%
%TD*%
%TA.AperFunction,ComponentPad*%
%ADD15C,1.200000*%
%TD*%
%TA.AperFunction,SMDPad,CuDef*%
%ADD16RoundRect,0.250000X-0.262500X-0.450000X0.262500X-0.450000X0.262500X0.450000X-0.262500X0.450000X0*%
%TD*%
%TA.AperFunction,ComponentPad*%
%ADD17RoundRect,0.750000X-0.750000X-0.750000X0.750000X-0.750000X0.750000X0.750000X-0.750000X0.750000X0*%
%TD*%
%TA.AperFunction,ComponentPad*%
%ADD18C,3.000000*%
%TD*%
%TA.AperFunction,ComponentPad*%
%ADD19R,2.100000X2.100000*%
%TD*%
%TA.AperFunction,ComponentPad*%
%ADD20C,2.100000*%
%TD*%
%TA.AperFunction,SMDPad,CuDef*%
%ADD21RoundRect,0.250000X0.362500X1.425000X-0.362500X1.425000X-0.362500X-1.425000X0.362500X-1.425000X0*%
%TD*%
%TA.AperFunction,SMDPad,CuDef*%
%ADD22RoundRect,0.250000X0.450000X-0.262500X0.450000X0.262500X-0.450000X0.262500X-0.450000X-0.262500X0*%
%TD*%
%TA.AperFunction,ComponentPad*%
%ADD23R,3.200000X3.200000*%
%TD*%
%TA.AperFunction,ComponentPad*%
%ADD24O,3.200000X3.200000*%
%TD*%
%TA.AperFunction,SMDPad,CuDef*%
%ADD25RoundRect,0.243750X-0.243750X-0.456250X0.243750X-0.456250X0.243750X0.456250X-0.243750X0.456250X0*%
%TD*%
%TA.AperFunction,ComponentPad*%
%ADD26C,1.524000*%
%TD*%
%TA.AperFunction,SMDPad,CuDef*%
%ADD27RoundRect,0.030000X-0.970000X-0.270000X0.970000X-0.270000X0.970000X0.270000X-0.970000X0.270000X0*%
%TD*%
%TA.AperFunction,ViaPad*%
%ADD28C,0.800000*%
%TD*%
%TA.AperFunction,Conductor*%
%ADD29C,0.250000*%
%TD*%
%TA.AperFunction,Conductor*%
%ADD30C,0.750000*%
%TD*%
G04 APERTURE END LIST*
D10*
%TO.P,R5,1*%
%TO.N,Net-(D2-A)*%
X115770000Y-82257500D03*
%TO.P,R5,2*%
%TO.N,Net-(U1-VCC)*%
X115770000Y-84082500D03*
%TD*%
D11*
%TO.P,C5,1*%
%TO.N,Net-(U1-Boostrap)*%
X148440000Y-93330000D03*
%TO.P,C5,2*%
%TO.N,Net-(C5-Pad2)*%
X150340000Y-93330000D03*
%TD*%
D12*
%TO.P,C1,1*%
%TO.N,Net-(U1-VCC)*%
X124230000Y-100680000D03*
D13*
%TO.P,C1,2*%
%TO.N,GND*%
X129230000Y-100680000D03*
%TD*%
D14*
%TO.P,C2,1*%
%TO.N,Net-(U1-timing_capacitor)*%
X135740000Y-104350000D03*
D15*
%TO.P,C2,2*%
%TO.N,GND*%
X135740000Y-102350000D03*
%TD*%
D16*
%TO.P,R1,1*%
%TO.N,Net-(U1-Feedback_2)*%
X142717500Y-95550000D03*
%TO.P,R1,2*%
%TO.N,GND*%
X144542500Y-95550000D03*
%TD*%
D17*
%TO.P,F1,1*%
%TO.N,Net-(J1-Pin_1)*%
X101605000Y-111740000D03*
X109225000Y-111740000D03*
D18*
%TO.P,F1,2*%
%TO.N,Net-(U1-VCC)*%
X128195000Y-111740000D03*
X135815000Y-111740000D03*
%TD*%
D19*
%TO.P,J2,1,Pin_1*%
%TO.N,GND*%
X174650000Y-80270000D03*
D20*
%TO.P,J2,2,Pin_2*%
%TO.N,Net-(J2-Pin_2)*%
X174650000Y-82810000D03*
%TD*%
D21*
%TO.P,R4,1*%
%TO.N,Net-(U1-Ipk_Sense)*%
X147452500Y-111680000D03*
%TO.P,R4,2*%
%TO.N,Net-(U1-VCC)*%
X141527500Y-111680000D03*
%TD*%
D12*
%TO.P,C3,1*%
%TO.N,Net-(J2-Pin_2)*%
X137502755Y-85820000D03*
D13*
%TO.P,C3,2*%
%TO.N,GND*%
X130002755Y-85820000D03*
%TD*%
D22*
%TO.P,R2,1*%
%TO.N,Net-(U1-Feedback_2)*%
X140350000Y-95545000D03*
%TO.P,R2,2*%
%TO.N,Net-(J2-Pin_2)*%
X140350000Y-93720000D03*
%TD*%
D23*
%TO.P,D1,1,K*%
%TO.N,Net-(D1-K)*%
X161730000Y-87560000D03*
D24*
%TO.P,D1,2,A*%
%TO.N,GND*%
X146490000Y-87560000D03*
%TD*%
D25*
%TO.P,D2,1,K*%
%TO.N,GND*%
X113895000Y-79837500D03*
%TO.P,D2,2,A*%
%TO.N,Net-(D2-A)*%
X115770000Y-79837500D03*
%TD*%
D26*
%TO.P,L1,1,1*%
%TO.N,Net-(D1-K)*%
X165450000Y-114100000D03*
%TO.P,L1,2,2*%
%TO.N,Net-(J2-Pin_2)*%
X165450000Y-96320000D03*
%TD*%
D19*
%TO.P,J1,1,Pin_1*%
%TO.N,Net-(J1-Pin_1)*%
X103810000Y-82810000D03*
D20*
%TO.P,J1,2,Pin_2*%
%TO.N,GND*%
X103810000Y-80270000D03*
%TD*%
D16*
%TO.P,R3,1*%
%TO.N,Net-(C5-Pad2)*%
X153417500Y-93390000D03*
%TO.P,R3,2*%
%TO.N,Net-(D1-K)*%
X155242500Y-93390000D03*
%TD*%
D27*
%TO.P,U1,1,LVI_Output*%
%TO.N,unconnected-(U1-LVI_Output-Pad1)*%
X140230000Y-97655000D03*
%TO.P,U1,2,Feedback_2*%
%TO.N,Net-(U1-Feedback_2)*%
X140230000Y-98925000D03*
%TO.P,U1,3,Feedback_1*%
%TO.N,GND*%
X140230000Y-100195000D03*
%TO.P,U1,4,gnd*%
X140230000Y-101465000D03*
%TO.P,U1,5,gnd*%
X140230000Y-102735000D03*
%TO.P,U1,6,timing_capacitor*%
%TO.N,Net-(U1-timing_capacitor)*%
X140230000Y-104005000D03*
%TO.P,U1,7,VCC*%
%TO.N,Net-(U1-VCC)*%
X140230000Y-105275000D03*
%TO.P,U1,8,Ipk_Sense*%
%TO.N,Net-(U1-Ipk_Sense)*%
X140230000Y-106545000D03*
%TO.P,U1,9,driver*%
X149530000Y-106545000D03*
%TO.P,U1,10,switch*%
X149530000Y-105275000D03*
%TO.P,U1,11,switch*%
X149530000Y-104005000D03*
%TO.P,U1,12,gnd*%
%TO.N,GND*%
X149530000Y-102735000D03*
%TO.P,U1,13,gnd*%
X149530000Y-101465000D03*
%TO.P,U1,14,switch_E*%
%TO.N,Net-(D1-K)*%
X149530000Y-100195000D03*
%TO.P,U1,15,switch_E*%
X149530000Y-98925000D03*
%TO.P,U1,16,Boostrap*%
%TO.N,Net-(U1-Boostrap)*%
X149530000Y-97655000D03*
%TD*%
D28*
%TO.N,GND*%
X123511517Y-96800000D03*
X108511517Y-101800000D03*
X173511517Y-96800000D03*
X153511517Y-86800000D03*
X158511517Y-111800000D03*
X138511517Y-81800000D03*
X103511517Y-91800000D03*
X143511517Y-91800000D03*
X168511517Y-86800000D03*
X118511517Y-96800000D03*
X163511517Y-106800000D03*
X168511517Y-91800000D03*
X158511517Y-106800000D03*
X143511517Y-106800000D03*
X153511517Y-96800000D03*
X138511517Y-91800000D03*
X123511517Y-81800000D03*
X168511517Y-81800000D03*
X138511517Y-111800000D03*
X143511517Y-86800000D03*
X112390000Y-79840000D03*
X118511517Y-86800000D03*
X113511517Y-106800000D03*
X158511517Y-81800000D03*
X133511517Y-106800000D03*
X133511517Y-96800000D03*
X158511517Y-101800000D03*
X142030000Y-101460000D03*
X118511517Y-91800000D03*
X108511517Y-96800000D03*
X133511517Y-81800000D03*
X147770000Y-102740000D03*
X128511517Y-106800000D03*
X142030000Y-100190000D03*
X153511517Y-81800000D03*
X143511517Y-81800000D03*
X133511517Y-91800000D03*
X168511517Y-96800000D03*
X168511517Y-111800000D03*
X153511517Y-101800000D03*
X158511517Y-91800000D03*
X173511517Y-86800000D03*
X163511517Y-91800000D03*
X113511517Y-111800000D03*
X173511517Y-106800000D03*
X163511517Y-111800000D03*
X158511517Y-86800000D03*
X143511517Y-111800000D03*
X163511517Y-96800000D03*
X173511517Y-111800000D03*
X128511517Y-91800000D03*
X103511517Y-106800000D03*
X123511517Y-111800000D03*
X118511517Y-106800000D03*
X173511517Y-91800000D03*
X153511517Y-106800000D03*
X142030000Y-102730000D03*
X168511517Y-106800000D03*
X108511517Y-81800000D03*
X163511517Y-81800000D03*
X133511517Y-101800000D03*
X148511517Y-81800000D03*
X108511517Y-91800000D03*
X123511517Y-91800000D03*
X103511517Y-96800000D03*
X103511517Y-86800000D03*
X113511517Y-91800000D03*
X108511517Y-86800000D03*
X128511517Y-81800000D03*
X153511517Y-111800000D03*
X113511517Y-101800000D03*
X173511517Y-101800000D03*
X113511517Y-86800000D03*
X113511517Y-81800000D03*
X158511517Y-96800000D03*
X123511517Y-86800000D03*
X133511517Y-86800000D03*
X128511517Y-96800000D03*
X118511517Y-101800000D03*
X103511517Y-101800000D03*
X147770000Y-101460000D03*
X113511517Y-96800000D03*
X118511517Y-81800000D03*
X163511517Y-101800000D03*
X123511517Y-106800000D03*
X146030000Y-95560000D03*
X118511517Y-111800000D03*
X168511517Y-101800000D03*
X108511517Y-106800000D03*
%TD*%
D29*
%TO.N,GND*%
X147775000Y-102735000D02*
X147770000Y-102740000D01*
X142025000Y-100195000D02*
X142030000Y-100190000D01*
D30*
X144542500Y-95550000D02*
X146020000Y-95550000D01*
D29*
X112392500Y-79837500D02*
X112390000Y-79840000D01*
D30*
X140230000Y-100195000D02*
X142025000Y-100195000D01*
X149530000Y-102735000D02*
X147775000Y-102735000D01*
X113895000Y-79837500D02*
X112392500Y-79837500D01*
D29*
X142025000Y-101465000D02*
X142030000Y-101460000D01*
D30*
X140230000Y-102735000D02*
X142025000Y-102735000D01*
D29*
X149525000Y-101460000D02*
X149530000Y-101465000D01*
X142025000Y-102735000D02*
X142030000Y-102730000D01*
D30*
X140230000Y-101465000D02*
X142025000Y-101465000D01*
D29*
X146020000Y-95550000D02*
X146030000Y-95560000D01*
D30*
X147770000Y-101460000D02*
X149525000Y-101460000D01*
%TO.N,Net-(U1-timing_capacitor)*%
X137670000Y-104350000D02*
X138015000Y-104005000D01*
X138015000Y-104005000D02*
X140230000Y-104005000D01*
X135740000Y-104350000D02*
X137670000Y-104350000D01*
%TO.N,Net-(J2-Pin_2)*%
X140350000Y-86310000D02*
X139860000Y-85820000D01*
X139860000Y-85820000D02*
X137502755Y-85820000D01*
X140350000Y-93720000D02*
X140350000Y-86310000D01*
%TO.N,Net-(D2-A)*%
X115770000Y-82257500D02*
X115770000Y-79837500D01*
D29*
%TO.N,Net-(U1-Feedback_2)*%
X142712500Y-95545000D02*
X142717500Y-95550000D01*
D30*
X142717500Y-98607500D02*
X142717500Y-95550000D01*
D29*
X142720000Y-98610000D02*
X142717500Y-98607500D01*
D30*
X142405000Y-98925000D02*
X142720000Y-98610000D01*
X140350000Y-95545000D02*
X142712500Y-95545000D01*
X140230000Y-98925000D02*
X142405000Y-98925000D01*
%TD*%
%TA.AperFunction,Conductor*%
%TO.N,Net-(U1-Boostrap)*%
G36*
X148919539Y-76870185D02*
G01*
X148965294Y-76922989D01*
X148976500Y-76974500D01*
X148976500Y-80821603D01*
X148956815Y-80888642D01*
X148904011Y-80934397D01*
X148834853Y-80944341D01*
X148802071Y-80934885D01*
X148793811Y-80931207D01*
X148793803Y-80931205D01*
X148607004Y-80891500D01*
X148416030Y-80891500D01*
X148229231Y-80931205D01*
X148054763Y-81008883D01*
X147900262Y-81121135D01*
X147772476Y-81263057D01*
X147676990Y-81428443D01*
X147676987Y-81428450D01*
X147617976Y-81610068D01*
X147617975Y-81610072D01*
X147598013Y-81800000D01*
X147617975Y-81989928D01*
X147617976Y-81989931D01*
X147676987Y-82171549D01*
X147676990Y-82171556D01*
X147772477Y-82336944D01*
X147900264Y-82478866D01*
X148054765Y-82591118D01*
X148229229Y-82668794D01*
X148416030Y-82708500D01*
X148607004Y-82708500D01*
X148793805Y-82668794D01*
X148802063Y-82665117D01*
X148871314Y-82655832D01*
X148934591Y-82685460D01*
X148971804Y-82744595D01*
X148976500Y-82778396D01*
X148976500Y-91991850D01*
X148956815Y-92058889D01*
X148904011Y-92104644D01*
X148839897Y-92115208D01*
X148739986Y-92105000D01*
X148690000Y-92105000D01*
X148690000Y-94554999D01*
X148739972Y-94554999D01*
X148739984Y-94554998D01*
X148839897Y-94544791D01*
X148908590Y-94557560D01*
X148959475Y-94605441D01*
X148976500Y-94668149D01*
X148976500Y-94786000D01*
X148976501Y-94786009D01*
X148988235Y-94895151D01*
X148988237Y-94895163D01*
X148999443Y-94946673D01*
X149034106Y-95050820D01*
X149034109Y-95050826D01*
X149113128Y-95173781D01*
X149113134Y-95173788D01*
X149158877Y-95226579D01*
X149158880Y-95226582D01*
X149158884Y-95226586D01*
X149257204Y-95311782D01*
X149294977Y-95370559D01*
X149300000Y-95405493D01*
X149300000Y-95420000D01*
X149580788Y-95420000D01*
X149598434Y-95421262D01*
X149614000Y-95423500D01*
X149614002Y-95423500D01*
X154076000Y-95423500D01*
X154143039Y-95443185D01*
X154188794Y-95495989D01*
X154200000Y-95547500D01*
X154200000Y-95933880D01*
X154180315Y-96000919D01*
X154127511Y-96046674D01*
X154058353Y-96056618D01*
X154003116Y-96034199D01*
X153968272Y-96008884D01*
X153968271Y-96008883D01*
X153968269Y-96008882D01*
X153793805Y-95931206D01*
X153793803Y-95931205D01*
X153607004Y-95891500D01*
X153416030Y-95891500D01*
X153229231Y-95931205D01*
X153054763Y-96008883D01*
X152900262Y-96121135D01*
X152772476Y-96263057D01*
X152676990Y-96428443D01*
X152676987Y-96428450D01*
X152617976Y-96610068D01*
X152617975Y-96610072D01*
X152598013Y-96800000D01*
X152617975Y-96989928D01*
X152617976Y-96989931D01*
X152676987Y-97171549D01*
X152676990Y-97171556D01*
X152772477Y-97336944D01*
X152900264Y-97478866D01*
X153054765Y-97591118D01*
X153229229Y-97668794D01*
X153416030Y-97708500D01*
X153607004Y-97708500D01*
X153793805Y-97668794D01*
X153968269Y-97591118D01*
X154003115Y-97565800D01*
X154068920Y-97542321D01*
X154136974Y-97558146D01*
X154185669Y-97608251D01*
X154200000Y-97666119D01*
X154200000Y-98066000D01*
X154180315Y-98133039D01*
X154127511Y-98178794D01*
X154076000Y-98190000D01*
X151142942Y-98190000D01*
X151075903Y-98170315D01*
X151030148Y-98117511D01*
X151019826Y-98051217D01*
X151030000Y-97966488D01*
X151030000Y-97905000D01*
X148030000Y-97905000D01*
X148030000Y-97966488D01*
X148040174Y-98051217D01*
X148028622Y-98120125D01*
X147981650Y-98171849D01*
X147917058Y-98190000D01*
X143725000Y-98190000D01*
X143657961Y-98170315D01*
X143612206Y-98117511D01*
X143601000Y-98066000D01*
X143601000Y-97405000D01*
X148030000Y-97405000D01*
X149280000Y-97405000D01*
X149280000Y-96855000D01*
X149780000Y-96855000D01*
X149780000Y-97405000D01*
X151030000Y-97405000D01*
X151030000Y-97343512D01*
X151019772Y-97258336D01*
X150966323Y-97122798D01*
X150878289Y-97006710D01*
X150762201Y-96918676D01*
X150626663Y-96865227D01*
X150541488Y-96855000D01*
X149780000Y-96855000D01*
X149280000Y-96855000D01*
X148518512Y-96855000D01*
X148433336Y-96865227D01*
X148297798Y-96918676D01*
X148181710Y-97006710D01*
X148093676Y-97122798D01*
X148040227Y-97258336D01*
X148030000Y-97343512D01*
X148030000Y-97405000D01*
X143601000Y-97405000D01*
X143601000Y-96692787D01*
X143620685Y-96625748D01*
X143673489Y-96579993D01*
X143742647Y-96570049D01*
X143801914Y-96595523D01*
X143806344Y-96599026D01*
X143806348Y-96599030D01*
X143957262Y-96692115D01*
X144125574Y-96747887D01*
X144229455Y-96758500D01*
X144855544Y-96758499D01*
X144959426Y-96747887D01*
X145127738Y-96692115D01*
X145278652Y-96599030D01*
X145404030Y-96473652D01*
X145404030Y-96473651D01*
X145407863Y-96469819D01*
X145469186Y-96436334D01*
X145495544Y-96433500D01*
X145756820Y-96433500D01*
X145782601Y-96436210D01*
X145791178Y-96438033D01*
X145934513Y-96468500D01*
X146125487Y-96468500D01*
X146312288Y-96428794D01*
X146486752Y-96351118D01*
X146641253Y-96238866D01*
X146769040Y-96096944D01*
X146864527Y-95931556D01*
X146923542Y-95749928D01*
X146943504Y-95560000D01*
X146923542Y-95370072D01*
X146864527Y-95188444D01*
X146769040Y-95023056D01*
X146641253Y-94881134D01*
X146486752Y-94768882D01*
X146312288Y-94691206D01*
X146312286Y-94691205D01*
X146125487Y-94651500D01*
X145934513Y-94651500D01*
X145876693Y-94663790D01*
X145850912Y-94666500D01*
X145495544Y-94666500D01*
X145428505Y-94646815D01*
X145407863Y-94630181D01*
X145278653Y-94500971D01*
X145278652Y-94500970D01*
X145127738Y-94407885D01*
X145084661Y-94393611D01*
X144959427Y-94352113D01*
X144855546Y-94341500D01*
X144229462Y-94341500D01*
X144229446Y-94341501D01*
X144125572Y-94352113D01*
X143957264Y-94407884D01*
X143957259Y-94407886D01*
X143806349Y-94500969D01*
X143717681Y-94589637D01*
X143656357Y-94623121D01*
X143586666Y-94618137D01*
X143542319Y-94589637D01*
X143507680Y-94554998D01*
X143453652Y-94500970D01*
X143302738Y-94407885D01*
X143259661Y-94393611D01*
X143134427Y-94352113D01*
X143030546Y-94341500D01*
X142404462Y-94341500D01*
X142404446Y-94341501D01*
X142300569Y-94352113D01*
X142145715Y-94403425D01*
X142075887Y-94405826D01*
X142015846Y-94370094D01*
X141984654Y-94307573D01*
X141982714Y-94285847D01*
X141982053Y-93580000D01*
X147440001Y-93580000D01*
X147440001Y-93854986D01*
X147450494Y-93957697D01*
X147505641Y-94124119D01*
X147505643Y-94124124D01*
X147597684Y-94273345D01*
X147721654Y-94397315D01*
X147870875Y-94489356D01*
X147870880Y-94489358D01*
X148037302Y-94544505D01*
X148037309Y-94544506D01*
X148140019Y-94554999D01*
X148189999Y-94554998D01*
X148190000Y-94554998D01*
X148190000Y-93580000D01*
X147440001Y-93580000D01*
X141982053Y-93580000D01*
X141981585Y-93080000D01*
X147440000Y-93080000D01*
X148190000Y-93080000D01*
X148190000Y-92105000D01*
X148189999Y-92104999D01*
X148140029Y-92105000D01*
X148140011Y-92105001D01*
X148037302Y-92115494D01*
X147870880Y-92170641D01*
X147870875Y-92170643D01*
X147721654Y-92262684D01*
X147597684Y-92386654D01*
X147505643Y-92535875D01*
X147505641Y-92535880D01*
X147450494Y-92702302D01*
X147450493Y-92702309D01*
X147440000Y-92805013D01*
X147440000Y-93080000D01*
X141981585Y-93080000D01*
X141980387Y-91800000D01*
X142598013Y-91800000D01*
X142617975Y-91989928D01*
X142617976Y-91989931D01*
X142676987Y-92171549D01*
X142676990Y-92171556D01*
X142772477Y-92336944D01*
X142900264Y-92478866D01*
X143054765Y-92591118D01*
X143229229Y-92668794D01*
X143416030Y-92708500D01*
X143607004Y-92708500D01*
X143793805Y-92668794D01*
X143968269Y-92591118D01*
X144122770Y-92478866D01*
X144250557Y-92336944D01*
X144346044Y-92171556D01*
X144405059Y-91989928D01*
X144425021Y-91800000D01*
X144405059Y-91610072D01*
X144346044Y-91428444D01*
X144250557Y-91263056D01*
X144122770Y-91121134D01*
X143968269Y-91008882D01*
X143793805Y-90931206D01*
X143793803Y-90931205D01*
X143607004Y-90891500D01*
X143416030Y-90891500D01*
X143229231Y-90931205D01*
X143054763Y-91008883D01*
X142900262Y-91121135D01*
X142772476Y-91263057D01*
X142676990Y-91428443D01*
X142676987Y-91428450D01*
X142617976Y-91610068D01*
X142617975Y-91610072D01*
X142598013Y-91800000D01*
X141980387Y-91800000D01*
X141975708Y-86800000D01*
X142598013Y-86800000D01*
X142617975Y-86989928D01*
X142617976Y-86989931D01*
X142676987Y-87171549D01*
X142676990Y-87171556D01*
X142772477Y-87336944D01*
X142900264Y-87478866D01*
X143054765Y-87591118D01*
X143229229Y-87668794D01*
X143416030Y-87708500D01*
X143607004Y-87708500D01*
X143793805Y-87668794D01*
X143968269Y-87591118D01*
X144122770Y-87478866D01*
X144163069Y-87434108D01*
X144222555Y-87397460D01*
X144292412Y-87398790D01*
X144350461Y-87437677D01*
X144378271Y-87501773D01*
X144378930Y-87525543D01*
X144376573Y-87559999D01*
X144396257Y-87847778D01*
X144396258Y-87847780D01*
X144454941Y-88130185D01*
X144454946Y-88130201D01*
X144551540Y-88401990D01*
X144551541Y-88401992D01*
X144684247Y-88658103D01*
X144850591Y-88893758D01*
X144850595Y-88893762D01*
X144850595Y-88893763D01*
X145047477Y-89104571D01*
X145271228Y-89286605D01*
X145271228Y-89286606D01*
X145517686Y-89436481D01*
X145517688Y-89436482D01*
X145517690Y-89436483D01*
X145694066Y-89513093D01*
X145782256Y-89551400D01*
X146060011Y-89629223D01*
X146311243Y-89663753D01*
X146345774Y-89668500D01*
X146345775Y-89668500D01*
X146634226Y-89668500D01*
X146665033Y-89664265D01*
X146919989Y-89629223D01*
X147197744Y-89551400D01*
X147462314Y-89436481D01*
X147708772Y-89286606D01*
X147932526Y-89104568D01*
X148129409Y-88893758D01*
X148295753Y-88658103D01*
X148428459Y-88401992D01*
X148525055Y-88130196D01*
X148525055Y-88130191D01*
X148525058Y-88130185D01*
X148557331Y-87974870D01*
X148583742Y-87847778D01*
X148603427Y-87560000D01*
X148583742Y-87272222D01*
X148562751Y-87171207D01*
X148525058Y-86989814D01*
X148525053Y-86989798D01*
X148428459Y-86718009D01*
X148428459Y-86718008D01*
X148295753Y-86461897D01*
X148129409Y-86226242D01*
X148129404Y-86226236D01*
X147932522Y-86015428D01*
X147708771Y-85833393D01*
X147462309Y-85683516D01*
X147197745Y-85568600D01*
X146919995Y-85490778D01*
X146919990Y-85490777D01*
X146919989Y-85490777D01*
X146777106Y-85471138D01*
X146634226Y-85451500D01*
X146634225Y-85451500D01*
X146345775Y-85451500D01*
X146345774Y-85451500D01*
X146060011Y-85490777D01*
X146060004Y-85490778D01*
X145782254Y-85568600D01*
X145517690Y-85683516D01*
X145271228Y-85833393D01*
X145047477Y-86015428D01*
X144850595Y-86226236D01*
X144850595Y-86226237D01*
X144684247Y-86461896D01*
X144684244Y-86461901D01*
X144619473Y-86586903D01*
X144571153Y-86637370D01*
X144503219Y-86653701D01*
X144437240Y-86630712D01*
X144394163Y-86575701D01*
X144391445Y-86568172D01*
X144346046Y-86428450D01*
X144346045Y-86428449D01*
X144346044Y-86428444D01*
X144250557Y-86263056D01*
X144122770Y-86121134D01*
X143968269Y-86008882D01*
X143793805Y-85931206D01*
X143793803Y-85931205D01*
X143607004Y-85891500D01*
X143416030Y-85891500D01*
X143229231Y-85931205D01*
X143054763Y-86008883D01*
X142900262Y-86121135D01*
X142772476Y-86263057D01*
X142676990Y-86428443D01*
X142676987Y-86428450D01*
X142625503Y-86586903D01*
X142617975Y-86610072D01*
X142598013Y-86800000D01*
X141975708Y-86800000D01*
X141971028Y-81800000D01*
X142598013Y-81800000D01*
X142617975Y-81989928D01*
X142617976Y-81989931D01*
X142676987Y-82171549D01*
X142676990Y-82171556D01*
X142772477Y-82336944D01*
X142900264Y-82478866D01*
X143054765Y-82591118D01*
X143229229Y-82668794D01*
X143416030Y-82708500D01*
X143607004Y-82708500D01*
X143793805Y-82668794D01*
X143968269Y-82591118D01*
X144122770Y-82478866D01*
X144250557Y-82336944D01*
X144346044Y-82171556D01*
X144405059Y-81989928D01*
X144425021Y-81800000D01*
X144405059Y-81610072D01*
X144346044Y-81428444D01*
X144250557Y-81263056D01*
X144122770Y-81121134D01*
X143968269Y-81008882D01*
X143793805Y-80931206D01*
X143793803Y-80931205D01*
X143607004Y-80891500D01*
X143416030Y-80891500D01*
X143229231Y-80931205D01*
X143054763Y-81008883D01*
X142900262Y-81121135D01*
X142772476Y-81263057D01*
X142676990Y-81428443D01*
X142676987Y-81428450D01*
X142617976Y-81610068D01*
X142617975Y-81610072D01*
X142598013Y-81800000D01*
X141971028Y-81800000D01*
X141966512Y-76974613D01*
X141986134Y-76907558D01*
X142038895Y-76861754D01*
X142090512Y-76850500D01*
X148852500Y-76850500D01*
X148919539Y-76870185D01*
G37*
%TD.AperFunction*%
%TD*%
%TA.AperFunction,Conductor*%
%TO.N,Net-(D1-K)*%
G36*
X178365767Y-76869714D02*
G01*
X178432761Y-76889540D01*
X178478403Y-76942441D01*
X178489500Y-76993713D01*
X178489500Y-116025500D01*
X178469815Y-116092539D01*
X178417011Y-116138294D01*
X178365500Y-116149500D01*
X151814000Y-116149500D01*
X151746961Y-116129815D01*
X151701206Y-116077011D01*
X151690000Y-116025500D01*
X151690000Y-114100000D01*
X164183179Y-114100000D01*
X164202424Y-114319976D01*
X164202426Y-114319986D01*
X164259575Y-114533270D01*
X164259580Y-114533284D01*
X164352899Y-114733407D01*
X164352900Y-114733409D01*
X164398258Y-114798187D01*
X164927050Y-114269395D01*
X164988373Y-114235910D01*
X165058064Y-114240894D01*
X165113998Y-114282765D01*
X165118539Y-114289254D01*
X165165813Y-114361612D01*
X165266157Y-114439713D01*
X165266160Y-114439714D01*
X165266511Y-114439987D01*
X165307324Y-114496697D01*
X165310999Y-114566470D01*
X165278030Y-114625522D01*
X164751811Y-115151741D01*
X164816582Y-115197094D01*
X164816592Y-115197100D01*
X165016715Y-115290419D01*
X165016729Y-115290424D01*
X165230013Y-115347573D01*
X165230023Y-115347575D01*
X165449999Y-115366821D01*
X165450001Y-115366821D01*
X165669976Y-115347575D01*
X165669986Y-115347573D01*
X165883270Y-115290424D01*
X165883284Y-115290419D01*
X166083408Y-115197100D01*
X166083420Y-115197093D01*
X166148186Y-115151742D01*
X166148187Y-115151740D01*
X165619276Y-114622829D01*
X165585791Y-114561506D01*
X165590775Y-114491814D01*
X165632647Y-114435881D01*
X165647933Y-114426097D01*
X165687251Y-114404820D01*
X165773371Y-114311269D01*
X165774083Y-114309643D01*
X165775652Y-114307777D01*
X165778992Y-114302666D01*
X165779609Y-114303069D01*
X165819036Y-114256158D01*
X165885770Y-114235464D01*
X165953099Y-114254135D01*
X165975322Y-114271769D01*
X166501740Y-114798187D01*
X166501742Y-114798186D01*
X166547093Y-114733420D01*
X166547100Y-114733408D01*
X166640419Y-114533284D01*
X166640424Y-114533270D01*
X166697573Y-114319986D01*
X166697575Y-114319976D01*
X166716821Y-114100000D01*
X166716821Y-114099999D01*
X166697575Y-113880023D01*
X166697573Y-113880013D01*
X166640424Y-113666729D01*
X166640420Y-113666720D01*
X166547098Y-113466590D01*
X166501740Y-113401811D01*
X165972949Y-113930602D01*
X165911626Y-113964087D01*
X165841934Y-113959103D01*
X165786001Y-113917231D01*
X165781460Y-113910743D01*
X165734189Y-113838391D01*
X165734187Y-113838388D01*
X165633843Y-113760287D01*
X165633840Y-113760285D01*
X165633488Y-113760012D01*
X165592675Y-113703301D01*
X165589000Y-113633529D01*
X165621969Y-113574477D01*
X166148187Y-113048258D01*
X166083409Y-113002900D01*
X166083407Y-113002899D01*
X165883284Y-112909580D01*
X165883270Y-112909575D01*
X165669986Y-112852426D01*
X165669976Y-112852424D01*
X165450001Y-112833179D01*
X165449999Y-112833179D01*
X165230023Y-112852424D01*
X165230013Y-112852426D01*
X165016729Y-112909575D01*
X165016720Y-112909579D01*
X164816586Y-113002903D01*
X164751812Y-113048257D01*
X164751811Y-113048258D01*
X165280723Y-113577170D01*
X165314208Y-113638493D01*
X165309224Y-113708185D01*
X165267352Y-113764118D01*
X165252059Y-113773906D01*
X165212749Y-113795179D01*
X165212748Y-113795179D01*
X165126626Y-113888733D01*
X165126626Y-113888734D01*
X165125911Y-113890365D01*
X165124340Y-113892233D01*
X165121008Y-113897334D01*
X165120391Y-113896931D01*
X165080952Y-113943849D01*
X165014215Y-113964535D01*
X164946888Y-113945857D01*
X164924677Y-113928230D01*
X164398258Y-113401811D01*
X164398257Y-113401812D01*
X164352903Y-113466586D01*
X164259579Y-113666720D01*
X164259575Y-113666729D01*
X164202426Y-113880013D01*
X164202424Y-113880023D01*
X164183179Y-114099999D01*
X164183179Y-114100000D01*
X151690000Y-114100000D01*
X151690000Y-111800000D01*
X152598013Y-111800000D01*
X152617975Y-111989928D01*
X152617976Y-111989931D01*
X152676987Y-112171549D01*
X152676990Y-112171556D01*
X152772477Y-112336944D01*
X152900264Y-112478866D01*
X153054765Y-112591118D01*
X153229229Y-112668794D01*
X153416030Y-112708500D01*
X153607004Y-112708500D01*
X153793805Y-112668794D01*
X153968269Y-112591118D01*
X154122770Y-112478866D01*
X154250557Y-112336944D01*
X154346044Y-112171556D01*
X154405059Y-111989928D01*
X154425021Y-111800000D01*
X157598013Y-111800000D01*
X157617975Y-111989928D01*
X157617976Y-111989931D01*
X157676987Y-112171549D01*
X157676990Y-112171556D01*
X157772477Y-112336944D01*
X157900264Y-112478866D01*
X158054765Y-112591118D01*
X158229229Y-112668794D01*
X158416030Y-112708500D01*
X158607004Y-112708500D01*
X158793805Y-112668794D01*
X158968269Y-112591118D01*
X159122770Y-112478866D01*
X159250557Y-112336944D01*
X159346044Y-112171556D01*
X159405059Y-111989928D01*
X159425021Y-111800000D01*
X162598013Y-111800000D01*
X162617975Y-111989928D01*
X162617976Y-111989931D01*
X162676987Y-112171549D01*
X162676990Y-112171556D01*
X162772477Y-112336944D01*
X162900264Y-112478866D01*
X163054765Y-112591118D01*
X163229229Y-112668794D01*
X163416030Y-112708500D01*
X163607004Y-112708500D01*
X163793805Y-112668794D01*
X163968269Y-112591118D01*
X164122770Y-112478866D01*
X164250557Y-112336944D01*
X164346044Y-112171556D01*
X164405059Y-111989928D01*
X164425021Y-111800000D01*
X167598013Y-111800000D01*
X167617975Y-111989928D01*
X167617976Y-111989931D01*
X167676987Y-112171549D01*
X167676990Y-112171556D01*
X167772477Y-112336944D01*
X167900264Y-112478866D01*
X168054765Y-112591118D01*
X168229229Y-112668794D01*
X168416030Y-112708500D01*
X168607004Y-112708500D01*
X168793805Y-112668794D01*
X168968269Y-112591118D01*
X169122770Y-112478866D01*
X169250557Y-112336944D01*
X169346044Y-112171556D01*
X169405059Y-111989928D01*
X169425021Y-111800000D01*
X172598013Y-111800000D01*
X172617975Y-111989928D01*
X172617976Y-111989931D01*
X172676987Y-112171549D01*
X172676990Y-112171556D01*
X172772477Y-112336944D01*
X172900264Y-112478866D01*
X173054765Y-112591118D01*
X173229229Y-112668794D01*
X173416030Y-112708500D01*
X173607004Y-112708500D01*
X173793805Y-112668794D01*
X173968269Y-112591118D01*
X174122770Y-112478866D01*
X174250557Y-112336944D01*
X174346044Y-112171556D01*
X174405059Y-111989928D01*
X174425021Y-111800000D01*
X174405059Y-111610072D01*
X174346044Y-111428444D01*
X174250557Y-111263056D01*
X174122770Y-111121134D01*
X173968269Y-111008882D01*
X173793805Y-110931206D01*
X173793803Y-110931205D01*
X173607004Y-110891500D01*
X173416030Y-110891500D01*
X173229231Y-110931205D01*
X173054763Y-111008883D01*
X172900262Y-111121135D01*
X172772476Y-111263057D01*
X172676990Y-111428443D01*
X172676987Y-111428450D01*
X172617976Y-111610068D01*
X172617975Y-111610072D01*
X172598013Y-111800000D01*
X169425021Y-111800000D01*
X169405059Y-111610072D01*
X169346044Y-111428444D01*
X169250557Y-111263056D01*
X169122770Y-111121134D01*
X168968269Y-111008882D01*
X168793805Y-110931206D01*
X168793803Y-110931205D01*
X168607004Y-110891500D01*
X168416030Y-110891500D01*
X168229231Y-110931205D01*
X168054763Y-111008883D01*
X167900262Y-111121135D01*
X167772476Y-111263057D01*
X167676990Y-111428443D01*
X167676987Y-111428450D01*
X167617976Y-111610068D01*
X167617975Y-111610072D01*
X167598013Y-111800000D01*
X164425021Y-111800000D01*
X164405059Y-111610072D01*
X164346044Y-111428444D01*
X164250557Y-111263056D01*
X164122770Y-111121134D01*
X163968269Y-111008882D01*
X163793805Y-110931206D01*
X163793803Y-110931205D01*
X163607004Y-110891500D01*
X163416030Y-110891500D01*
X163229231Y-110931205D01*
X163054763Y-111008883D01*
X162900262Y-111121135D01*
X162772476Y-111263057D01*
X162676990Y-111428443D01*
X162676987Y-111428450D01*
X162617976Y-111610068D01*
X162617975Y-111610072D01*
X162598013Y-111800000D01*
X159425021Y-111800000D01*
X159405059Y-111610072D01*
X159346044Y-111428444D01*
X159250557Y-111263056D01*
X159122770Y-111121134D01*
X158968269Y-111008882D01*
X158793805Y-110931206D01*
X158793803Y-110931205D01*
X158607004Y-110891500D01*
X158416030Y-110891500D01*
X158229231Y-110931205D01*
X158054763Y-111008883D01*
X157900262Y-111121135D01*
X157772476Y-111263057D01*
X157676990Y-111428443D01*
X157676987Y-111428450D01*
X157617976Y-111610068D01*
X157617975Y-111610072D01*
X157598013Y-111800000D01*
X154425021Y-111800000D01*
X154405059Y-111610072D01*
X154346044Y-111428444D01*
X154250557Y-111263056D01*
X154122770Y-111121134D01*
X153968269Y-111008882D01*
X153793805Y-110931206D01*
X153793803Y-110931205D01*
X153607004Y-110891500D01*
X153416030Y-110891500D01*
X153229231Y-110931205D01*
X153054763Y-111008883D01*
X152900262Y-111121135D01*
X152772476Y-111263057D01*
X152676990Y-111428443D01*
X152676987Y-111428450D01*
X152617976Y-111610068D01*
X152617975Y-111610072D01*
X152598013Y-111800000D01*
X151690000Y-111800000D01*
X151690000Y-106800000D01*
X152598013Y-106800000D01*
X152617975Y-106989928D01*
X152617976Y-106989931D01*
X152676987Y-107171549D01*
X152676990Y-107171556D01*
X152772477Y-107336944D01*
X152900264Y-107478866D01*
X153054765Y-107591118D01*
X153229229Y-107668794D01*
X153416030Y-107708500D01*
X153607004Y-107708500D01*
X153793805Y-107668794D01*
X153968269Y-107591118D01*
X154122770Y-107478866D01*
X154250557Y-107336944D01*
X154346044Y-107171556D01*
X154405059Y-106989928D01*
X154425021Y-106800000D01*
X157598013Y-106800000D01*
X157617975Y-106989928D01*
X157617976Y-106989931D01*
X157676987Y-107171549D01*
X157676990Y-107171556D01*
X157772477Y-107336944D01*
X157900264Y-107478866D01*
X158054765Y-107591118D01*
X158229229Y-107668794D01*
X158416030Y-107708500D01*
X158607004Y-107708500D01*
X158793805Y-107668794D01*
X158968269Y-107591118D01*
X159122770Y-107478866D01*
X159250557Y-107336944D01*
X159346044Y-107171556D01*
X159405059Y-106989928D01*
X159425021Y-106800000D01*
X162598013Y-106800000D01*
X162617975Y-106989928D01*
X162617976Y-106989931D01*
X162676987Y-107171549D01*
X162676990Y-107171556D01*
X162772477Y-107336944D01*
X162900264Y-107478866D01*
X163054765Y-107591118D01*
X163229229Y-107668794D01*
X163416030Y-107708500D01*
X163607004Y-107708500D01*
X163793805Y-107668794D01*
X163968269Y-107591118D01*
X164122770Y-107478866D01*
X164250557Y-107336944D01*
X164346044Y-107171556D01*
X164405059Y-106989928D01*
X164425021Y-106800000D01*
X167598013Y-106800000D01*
X167617975Y-106989928D01*
X167617976Y-106989931D01*
X167676987Y-107171549D01*
X167676990Y-107171556D01*
X167772477Y-107336944D01*
X167900264Y-107478866D01*
X168054765Y-107591118D01*
X168229229Y-107668794D01*
X168416030Y-107708500D01*
X168607004Y-107708500D01*
X168793805Y-107668794D01*
X168968269Y-107591118D01*
X169122770Y-107478866D01*
X169250557Y-107336944D01*
X169346044Y-107171556D01*
X169405059Y-106989928D01*
X169425021Y-106800000D01*
X172598013Y-106800000D01*
X172617975Y-106989928D01*
X172617976Y-106989931D01*
X172676987Y-107171549D01*
X172676990Y-107171556D01*
X172772477Y-107336944D01*
X172900264Y-107478866D01*
X173054765Y-107591118D01*
X173229229Y-107668794D01*
X173416030Y-107708500D01*
X173607004Y-107708500D01*
X173793805Y-107668794D01*
X173968269Y-107591118D01*
X174122770Y-107478866D01*
X174250557Y-107336944D01*
X174346044Y-107171556D01*
X174405059Y-106989928D01*
X174425021Y-106800000D01*
X174405059Y-106610072D01*
X174346044Y-106428444D01*
X174250557Y-106263056D01*
X174122770Y-106121134D01*
X173968269Y-106008882D01*
X173793805Y-105931206D01*
X173793803Y-105931205D01*
X173607004Y-105891500D01*
X173416030Y-105891500D01*
X173229231Y-105931205D01*
X173054763Y-106008883D01*
X172900262Y-106121135D01*
X172772476Y-106263057D01*
X172676990Y-106428443D01*
X172676987Y-106428450D01*
X172617976Y-106610068D01*
X172617975Y-106610072D01*
X172598013Y-106800000D01*
X169425021Y-106800000D01*
X169405059Y-106610072D01*
X169346044Y-106428444D01*
X169250557Y-106263056D01*
X169122770Y-106121134D01*
X168968269Y-106008882D01*
X168793805Y-105931206D01*
X168793803Y-105931205D01*
X168607004Y-105891500D01*
X168416030Y-105891500D01*
X168229231Y-105931205D01*
X168054763Y-106008883D01*
X167900262Y-106121135D01*
X167772476Y-106263057D01*
X167676990Y-106428443D01*
X167676987Y-106428450D01*
X167617976Y-106610068D01*
X167617975Y-106610072D01*
X167598013Y-106800000D01*
X164425021Y-106800000D01*
X164405059Y-106610072D01*
X164346044Y-106428444D01*
X164250557Y-106263056D01*
X164122770Y-106121134D01*
X163968269Y-106008882D01*
X163793805Y-105931206D01*
X163793803Y-105931205D01*
X163607004Y-105891500D01*
X163416030Y-105891500D01*
X163229231Y-105931205D01*
X163054763Y-106008883D01*
X162900262Y-106121135D01*
X162772476Y-106263057D01*
X162676990Y-106428443D01*
X162676987Y-106428450D01*
X162617976Y-106610068D01*
X162617975Y-106610072D01*
X162598013Y-106800000D01*
X159425021Y-106800000D01*
X159405059Y-106610072D01*
X159346044Y-106428444D01*
X159250557Y-106263056D01*
X159122770Y-106121134D01*
X158968269Y-106008882D01*
X158793805Y-105931206D01*
X158793803Y-105931205D01*
X158607004Y-105891500D01*
X158416030Y-105891500D01*
X158229231Y-105931205D01*
X158054763Y-106008883D01*
X157900262Y-106121135D01*
X157772476Y-106263057D01*
X157676990Y-106428443D01*
X157676987Y-106428450D01*
X157617976Y-106610068D01*
X157617975Y-106610072D01*
X157598013Y-106800000D01*
X154425021Y-106800000D01*
X154405059Y-106610072D01*
X154346044Y-106428444D01*
X154250557Y-106263056D01*
X154122770Y-106121134D01*
X153968269Y-106008882D01*
X153793805Y-105931206D01*
X153793803Y-105931205D01*
X153607004Y-105891500D01*
X153416030Y-105891500D01*
X153229231Y-105931205D01*
X153054763Y-106008883D01*
X152900262Y-106121135D01*
X152772476Y-106263057D01*
X152676990Y-106428443D01*
X152676987Y-106428450D01*
X152617976Y-106610068D01*
X152617975Y-106610072D01*
X152598013Y-106800000D01*
X151690000Y-106800000D01*
X151690000Y-101800000D01*
X152598013Y-101800000D01*
X152617975Y-101989928D01*
X152617976Y-101989931D01*
X152676987Y-102171549D01*
X152676990Y-102171556D01*
X152772477Y-102336944D01*
X152900264Y-102478866D01*
X153054765Y-102591118D01*
X153229229Y-102668794D01*
X153416030Y-102708500D01*
X153607004Y-102708500D01*
X153793805Y-102668794D01*
X153968269Y-102591118D01*
X154122770Y-102478866D01*
X154250557Y-102336944D01*
X154346044Y-102171556D01*
X154405059Y-101989928D01*
X154425021Y-101800000D01*
X157598013Y-101800000D01*
X157617975Y-101989928D01*
X157617976Y-101989931D01*
X157676987Y-102171549D01*
X157676990Y-102171556D01*
X157772477Y-102336944D01*
X157900264Y-102478866D01*
X158054765Y-102591118D01*
X158229229Y-102668794D01*
X158416030Y-102708500D01*
X158607004Y-102708500D01*
X158793805Y-102668794D01*
X158968269Y-102591118D01*
X159122770Y-102478866D01*
X159250557Y-102336944D01*
X159346044Y-102171556D01*
X159405059Y-101989928D01*
X159425021Y-101800000D01*
X162598013Y-101800000D01*
X162617975Y-101989928D01*
X162617976Y-101989931D01*
X162676987Y-102171549D01*
X162676990Y-102171556D01*
X162772477Y-102336944D01*
X162900264Y-102478866D01*
X163054765Y-102591118D01*
X163229229Y-102668794D01*
X163416030Y-102708500D01*
X163607004Y-102708500D01*
X163793805Y-102668794D01*
X163968269Y-102591118D01*
X164122770Y-102478866D01*
X164250557Y-102336944D01*
X164346044Y-102171556D01*
X164405059Y-101989928D01*
X164425021Y-101800000D01*
X167598013Y-101800000D01*
X167617975Y-101989928D01*
X167617976Y-101989931D01*
X167676987Y-102171549D01*
X167676990Y-102171556D01*
X167772477Y-102336944D01*
X167900264Y-102478866D01*
X168054765Y-102591118D01*
X168229229Y-102668794D01*
X168416030Y-102708500D01*
X168607004Y-102708500D01*
X168793805Y-102668794D01*
X168968269Y-102591118D01*
X169122770Y-102478866D01*
X169250557Y-102336944D01*
X169346044Y-102171556D01*
X169405059Y-101989928D01*
X169425021Y-101800000D01*
X172598013Y-101800000D01*
X172617975Y-101989928D01*
X172617976Y-101989931D01*
X172676987Y-102171549D01*
X172676990Y-102171556D01*
X172772477Y-102336944D01*
X172900264Y-102478866D01*
X173054765Y-102591118D01*
X173229229Y-102668794D01*
X173416030Y-102708500D01*
X173607004Y-102708500D01*
X173793805Y-102668794D01*
X173968269Y-102591118D01*
X174122770Y-102478866D01*
X174250557Y-102336944D01*
X174346044Y-102171556D01*
X174405059Y-101989928D01*
X174425021Y-101800000D01*
X174405059Y-101610072D01*
X174346044Y-101428444D01*
X174250557Y-101263056D01*
X174122770Y-101121134D01*
X173968269Y-101008882D01*
X173793805Y-100931206D01*
X173793803Y-100931205D01*
X173607004Y-100891500D01*
X173416030Y-100891500D01*
X173229231Y-100931205D01*
X173054763Y-101008883D01*
X172900262Y-101121135D01*
X172772476Y-101263057D01*
X172676990Y-101428443D01*
X172676987Y-101428450D01*
X172617976Y-101610068D01*
X172617975Y-101610072D01*
X172598013Y-101800000D01*
X169425021Y-101800000D01*
X169405059Y-101610072D01*
X169346044Y-101428444D01*
X169250557Y-101263056D01*
X169122770Y-101121134D01*
X168968269Y-101008882D01*
X168793805Y-100931206D01*
X168793803Y-100931205D01*
X168607004Y-100891500D01*
X168416030Y-100891500D01*
X168229231Y-100931205D01*
X168054763Y-101008883D01*
X167900262Y-101121135D01*
X167772476Y-101263057D01*
X167676990Y-101428443D01*
X167676987Y-101428450D01*
X167617976Y-101610068D01*
X167617975Y-101610072D01*
X167598013Y-101800000D01*
X164425021Y-101800000D01*
X164405059Y-101610072D01*
X164346044Y-101428444D01*
X164250557Y-101263056D01*
X164122770Y-101121134D01*
X163968269Y-101008882D01*
X163793805Y-100931206D01*
X163793803Y-100931205D01*
X163607004Y-100891500D01*
X163416030Y-100891500D01*
X163229231Y-100931205D01*
X163054763Y-101008883D01*
X162900262Y-101121135D01*
X162772476Y-101263057D01*
X162676990Y-101428443D01*
X162676987Y-101428450D01*
X162617976Y-101610068D01*
X162617975Y-101610072D01*
X162598013Y-101800000D01*
X159425021Y-101800000D01*
X159405059Y-101610072D01*
X159346044Y-101428444D01*
X159250557Y-101263056D01*
X159122770Y-101121134D01*
X158968269Y-101008882D01*
X158793805Y-100931206D01*
X158793803Y-100931205D01*
X158607004Y-100891500D01*
X158416030Y-100891500D01*
X158229231Y-100931205D01*
X158054763Y-101008883D01*
X157900262Y-101121135D01*
X157772476Y-101263057D01*
X157676990Y-101428443D01*
X157676987Y-101428450D01*
X157617976Y-101610068D01*
X157617975Y-101610072D01*
X157598013Y-101800000D01*
X154425021Y-101800000D01*
X154405059Y-101610072D01*
X154346044Y-101428444D01*
X154250557Y-101263056D01*
X154122770Y-101121134D01*
X153968269Y-101008882D01*
X153793805Y-100931206D01*
X153793803Y-100931205D01*
X153607004Y-100891500D01*
X153416030Y-100891500D01*
X153229231Y-100931205D01*
X153054763Y-101008883D01*
X152900262Y-101121135D01*
X152772476Y-101263057D01*
X152676990Y-101428443D01*
X152676987Y-101428450D01*
X152617976Y-101610068D01*
X152617975Y-101610072D01*
X152598013Y-101800000D01*
X151690000Y-101800000D01*
X151690000Y-100870000D01*
X151092204Y-100870000D01*
X151025165Y-100850315D01*
X150979410Y-100797511D01*
X150969466Y-100728353D01*
X150976849Y-100700511D01*
X151019771Y-100591664D01*
X151030000Y-100506487D01*
X151030000Y-100445000D01*
X149404000Y-100445000D01*
X149336961Y-100425315D01*
X149291206Y-100372511D01*
X149280000Y-100321000D01*
X149280000Y-99175000D01*
X149780000Y-99175000D01*
X149780000Y-99945000D01*
X151030000Y-99945000D01*
X151030000Y-99883512D01*
X151019772Y-99798336D01*
X150966323Y-99662798D01*
X150945187Y-99634927D01*
X150920363Y-99569615D01*
X150934790Y-99501251D01*
X150945187Y-99485073D01*
X150966323Y-99457201D01*
X151019772Y-99321663D01*
X151030000Y-99236487D01*
X151030000Y-99175000D01*
X149780000Y-99175000D01*
X149280000Y-99175000D01*
X149280000Y-98799000D01*
X149299685Y-98731961D01*
X149352489Y-98686206D01*
X149404000Y-98675000D01*
X150954219Y-98675000D01*
X150989153Y-98680022D01*
X150990977Y-98680558D01*
X150998266Y-98682699D01*
X150998270Y-98682699D01*
X150998272Y-98682700D01*
X151142942Y-98703500D01*
X151142945Y-98703500D01*
X154075990Y-98703500D01*
X154076000Y-98703500D01*
X154185157Y-98691764D01*
X154236668Y-98680558D01*
X154279803Y-98666201D01*
X154340820Y-98645893D01*
X154340824Y-98645890D01*
X154340827Y-98645890D01*
X154463782Y-98566871D01*
X154516586Y-98521116D01*
X154612297Y-98410661D01*
X154673014Y-98277713D01*
X154692699Y-98210674D01*
X154692700Y-98210670D01*
X154713500Y-98066000D01*
X154713500Y-97666119D01*
X154698443Y-97542680D01*
X154684112Y-97484812D01*
X154639823Y-97368613D01*
X154553913Y-97250370D01*
X154505218Y-97200265D01*
X154505217Y-97200264D01*
X154505210Y-97200257D01*
X154501912Y-97197316D01*
X154503273Y-97195789D01*
X154467161Y-97145959D01*
X154460000Y-97104429D01*
X154460000Y-96800000D01*
X157598013Y-96800000D01*
X157617975Y-96989928D01*
X157617976Y-96989931D01*
X157676987Y-97171549D01*
X157676990Y-97171556D01*
X157772477Y-97336944D01*
X157900264Y-97478866D01*
X158054765Y-97591118D01*
X158229229Y-97668794D01*
X158416030Y-97708500D01*
X158607004Y-97708500D01*
X158793805Y-97668794D01*
X158968269Y-97591118D01*
X159122770Y-97478866D01*
X159250557Y-97336944D01*
X159346044Y-97171556D01*
X159405059Y-96989928D01*
X159425021Y-96800000D01*
X162598013Y-96800000D01*
X162617975Y-96989928D01*
X162617976Y-96989931D01*
X162676987Y-97171549D01*
X162676990Y-97171556D01*
X162772477Y-97336944D01*
X162900264Y-97478866D01*
X163054765Y-97591118D01*
X163229229Y-97668794D01*
X163416030Y-97708500D01*
X163607004Y-97708500D01*
X163793805Y-97668794D01*
X163968269Y-97591118D01*
X164122770Y-97478866D01*
X164250557Y-97336944D01*
X164323352Y-97210858D01*
X164373919Y-97162644D01*
X164442526Y-97149420D01*
X164507390Y-97175388D01*
X164518420Y-97185178D01*
X164630219Y-97296977D01*
X164812323Y-97424488D01*
X165013804Y-97518440D01*
X165228537Y-97575978D01*
X165386724Y-97589817D01*
X165449998Y-97595353D01*
X165450000Y-97595353D01*
X165450002Y-97595353D01*
X165505365Y-97590509D01*
X165671463Y-97575978D01*
X165886196Y-97518440D01*
X166087677Y-97424488D01*
X166269781Y-97296977D01*
X166426977Y-97139781D01*
X166554488Y-96957677D01*
X166628014Y-96800000D01*
X167598013Y-96800000D01*
X167617975Y-96989928D01*
X167617976Y-96989931D01*
X167676987Y-97171549D01*
X167676990Y-97171556D01*
X167772477Y-97336944D01*
X167900264Y-97478866D01*
X168054765Y-97591118D01*
X168229229Y-97668794D01*
X168416030Y-97708500D01*
X168607004Y-97708500D01*
X168793805Y-97668794D01*
X168968269Y-97591118D01*
X169122770Y-97478866D01*
X169250557Y-97336944D01*
X169346044Y-97171556D01*
X169405059Y-96989928D01*
X169425021Y-96800000D01*
X172598013Y-96800000D01*
X172617975Y-96989928D01*
X172617976Y-96989931D01*
X172676987Y-97171549D01*
X172676990Y-97171556D01*
X172772477Y-97336944D01*
X172900264Y-97478866D01*
X173054765Y-97591118D01*
X173229229Y-97668794D01*
X173416030Y-97708500D01*
X173607004Y-97708500D01*
X173793805Y-97668794D01*
X173968269Y-97591118D01*
X174122770Y-97478866D01*
X174250557Y-97336944D01*
X174346044Y-97171556D01*
X174405059Y-96989928D01*
X174425021Y-96800000D01*
X174405059Y-96610072D01*
X174346044Y-96428444D01*
X174250557Y-96263056D01*
X174122770Y-96121134D01*
X173968269Y-96008882D01*
X173793805Y-95931206D01*
X173793803Y-95931205D01*
X173607004Y-95891500D01*
X173416030Y-95891500D01*
X173229231Y-95931205D01*
X173054763Y-96008883D01*
X172900262Y-96121135D01*
X172772476Y-96263057D01*
X172676990Y-96428443D01*
X172676987Y-96428450D01*
X172617976Y-96610068D01*
X172617975Y-96610072D01*
X172598013Y-96800000D01*
X169425021Y-96800000D01*
X169405059Y-96610072D01*
X169346044Y-96428444D01*
X169250557Y-96263056D01*
X169122770Y-96121134D01*
X168968269Y-96008882D01*
X168793805Y-95931206D01*
X168793803Y-95931205D01*
X168607004Y-95891500D01*
X168416030Y-95891500D01*
X168229231Y-95931205D01*
X168054763Y-96008883D01*
X167900262Y-96121135D01*
X167772476Y-96263057D01*
X167676990Y-96428443D01*
X167676987Y-96428450D01*
X167617976Y-96610068D01*
X167617975Y-96610072D01*
X167598013Y-96800000D01*
X166628014Y-96800000D01*
X166648440Y-96756196D01*
X166705978Y-96541463D01*
X166725353Y-96320000D01*
X166705978Y-96098537D01*
X166648440Y-95883804D01*
X166554488Y-95682324D01*
X166554486Y-95682321D01*
X166554485Y-95682319D01*
X166426978Y-95500220D01*
X166365094Y-95438336D01*
X166269781Y-95343023D01*
X166087677Y-95215512D01*
X166087678Y-95215512D01*
X166087676Y-95215511D01*
X165986936Y-95168536D01*
X165886196Y-95121560D01*
X165886193Y-95121559D01*
X165886191Y-95121558D01*
X165671465Y-95064022D01*
X165671457Y-95064021D01*
X165450002Y-95044647D01*
X165449998Y-95044647D01*
X165228542Y-95064021D01*
X165228535Y-95064022D01*
X165013800Y-95121561D01*
X164812323Y-95215512D01*
X164812319Y-95215514D01*
X164630217Y-95343023D01*
X164473023Y-95500217D01*
X164345514Y-95682319D01*
X164345512Y-95682323D01*
X164251561Y-95883800D01*
X164251559Y-95883804D01*
X164251560Y-95883804D01*
X164224272Y-95985646D01*
X164224040Y-95986510D01*
X164187674Y-96046171D01*
X164124827Y-96076699D01*
X164055451Y-96068404D01*
X164031380Y-96054734D01*
X163968273Y-96008884D01*
X163918020Y-95986510D01*
X163793805Y-95931206D01*
X163793803Y-95931205D01*
X163607004Y-95891500D01*
X163416030Y-95891500D01*
X163229231Y-95931205D01*
X163054763Y-96008883D01*
X162900262Y-96121135D01*
X162772476Y-96263057D01*
X162676990Y-96428443D01*
X162676987Y-96428450D01*
X162617976Y-96610068D01*
X162617975Y-96610072D01*
X162598013Y-96800000D01*
X159425021Y-96800000D01*
X159405059Y-96610072D01*
X159346044Y-96428444D01*
X159250557Y-96263056D01*
X159122770Y-96121134D01*
X158968269Y-96008882D01*
X158793805Y-95931206D01*
X158793803Y-95931205D01*
X158607004Y-95891500D01*
X158416030Y-95891500D01*
X158229231Y-95931205D01*
X158054763Y-96008883D01*
X157900262Y-96121135D01*
X157772476Y-96263057D01*
X157676990Y-96428443D01*
X157676987Y-96428450D01*
X157617976Y-96610068D01*
X157617975Y-96610072D01*
X157598013Y-96800000D01*
X154460000Y-96800000D01*
X154460000Y-96494657D01*
X154479685Y-96427618D01*
X154502799Y-96400943D01*
X154516583Y-96388999D01*
X154516583Y-96388998D01*
X154516586Y-96388996D01*
X154612297Y-96278541D01*
X154673014Y-96145593D01*
X154692699Y-96078554D01*
X154692700Y-96078550D01*
X154713500Y-95933880D01*
X154713500Y-95547500D01*
X154701764Y-95438343D01*
X154690558Y-95386832D01*
X154675977Y-95343023D01*
X154655893Y-95282679D01*
X154655891Y-95282675D01*
X154635509Y-95250960D01*
X154615825Y-95183921D01*
X154635510Y-95116881D01*
X154639230Y-95111419D01*
X154652297Y-95093299D01*
X154713014Y-94960351D01*
X154732699Y-94893312D01*
X154732700Y-94893308D01*
X154753500Y-94748638D01*
X154753500Y-94709279D01*
X154773185Y-94642240D01*
X154825989Y-94596485D01*
X154890105Y-94585921D01*
X154930022Y-94589999D01*
X154992499Y-94589998D01*
X154992500Y-94589998D01*
X154992500Y-93640000D01*
X155492500Y-93640000D01*
X155492500Y-94589999D01*
X155554972Y-94589999D01*
X155554986Y-94589998D01*
X155657697Y-94579505D01*
X155824119Y-94524358D01*
X155824124Y-94524356D01*
X155973345Y-94432315D01*
X156097315Y-94308345D01*
X156189356Y-94159124D01*
X156189358Y-94159119D01*
X156244505Y-93992697D01*
X156244506Y-93992690D01*
X156254999Y-93889986D01*
X156255000Y-93889973D01*
X156255000Y-93640000D01*
X155492500Y-93640000D01*
X154992500Y-93640000D01*
X154992500Y-92190000D01*
X155492500Y-92190000D01*
X155492500Y-93140000D01*
X156254999Y-93140000D01*
X156254999Y-92890028D01*
X156254998Y-92890013D01*
X156244505Y-92787302D01*
X156189358Y-92620880D01*
X156189356Y-92620875D01*
X156097315Y-92471654D01*
X155973345Y-92347684D01*
X155824124Y-92255643D01*
X155824119Y-92255641D01*
X155657697Y-92200494D01*
X155657690Y-92200493D01*
X155554986Y-92190000D01*
X155492500Y-92190000D01*
X154992500Y-92190000D01*
X154992499Y-92189999D01*
X154930028Y-92190000D01*
X154930004Y-92190002D01*
X154890099Y-92194078D01*
X154821407Y-92181307D01*
X154770523Y-92133426D01*
X154753500Y-92070720D01*
X154753500Y-91800000D01*
X157598013Y-91800000D01*
X157617975Y-91989928D01*
X157617976Y-91989931D01*
X157676987Y-92171549D01*
X157676990Y-92171556D01*
X157772477Y-92336944D01*
X157900264Y-92478866D01*
X158054765Y-92591118D01*
X158229229Y-92668794D01*
X158416030Y-92708500D01*
X158607004Y-92708500D01*
X158793805Y-92668794D01*
X158968269Y-92591118D01*
X159122770Y-92478866D01*
X159250557Y-92336944D01*
X159346044Y-92171556D01*
X159405059Y-91989928D01*
X159425021Y-91800000D01*
X162598013Y-91800000D01*
X162617975Y-91989928D01*
X162617976Y-91989931D01*
X162676987Y-92171549D01*
X162676990Y-92171556D01*
X162772477Y-92336944D01*
X162900264Y-92478866D01*
X163054765Y-92591118D01*
X163229229Y-92668794D01*
X163416030Y-92708500D01*
X163607004Y-92708500D01*
X163793805Y-92668794D01*
X163968269Y-92591118D01*
X164122770Y-92478866D01*
X164250557Y-92336944D01*
X164346044Y-92171556D01*
X164405059Y-91989928D01*
X164425021Y-91800000D01*
X167598013Y-91800000D01*
X167617975Y-91989928D01*
X167617976Y-91989931D01*
X167676987Y-92171549D01*
X167676990Y-92171556D01*
X167772477Y-92336944D01*
X167900264Y-92478866D01*
X168054765Y-92591118D01*
X168229229Y-92668794D01*
X168416030Y-92708500D01*
X168607004Y-92708500D01*
X168793805Y-92668794D01*
X168968269Y-92591118D01*
X169122770Y-92478866D01*
X169250557Y-92336944D01*
X169346044Y-92171556D01*
X169405059Y-91989928D01*
X169425021Y-91800000D01*
X172598013Y-91800000D01*
X172617975Y-91989928D01*
X172617976Y-91989931D01*
X172676987Y-92171549D01*
X172676990Y-92171556D01*
X172772477Y-92336944D01*
X172900264Y-92478866D01*
X173054765Y-92591118D01*
X173229229Y-92668794D01*
X173416030Y-92708500D01*
X173607004Y-92708500D01*
X173793805Y-92668794D01*
X173968269Y-92591118D01*
X174122770Y-92478866D01*
X174250557Y-92336944D01*
X174346044Y-92171556D01*
X174405059Y-91989928D01*
X174425021Y-91800000D01*
X174405059Y-91610072D01*
X174346044Y-91428444D01*
X174250557Y-91263056D01*
X174122770Y-91121134D01*
X173968269Y-91008882D01*
X173793805Y-90931206D01*
X173793803Y-90931205D01*
X173607004Y-90891500D01*
X173416030Y-90891500D01*
X173229231Y-90931205D01*
X173054763Y-91008883D01*
X172900262Y-91121135D01*
X172772476Y-91263057D01*
X172676990Y-91428443D01*
X172676987Y-91428450D01*
X172617976Y-91610068D01*
X172617975Y-91610072D01*
X172598013Y-91800000D01*
X169425021Y-91800000D01*
X169405059Y-91610072D01*
X169346044Y-91428444D01*
X169250557Y-91263056D01*
X169122770Y-91121134D01*
X168968269Y-91008882D01*
X168793805Y-90931206D01*
X168793803Y-90931205D01*
X168607004Y-90891500D01*
X168416030Y-90891500D01*
X168229231Y-90931205D01*
X168054763Y-91008883D01*
X167900262Y-91121135D01*
X167772476Y-91263057D01*
X167676990Y-91428443D01*
X167676987Y-91428450D01*
X167617976Y-91610068D01*
X167617975Y-91610072D01*
X167598013Y-91800000D01*
X164425021Y-91800000D01*
X164405059Y-91610072D01*
X164346044Y-91428444D01*
X164250557Y-91263056D01*
X164122770Y-91121134D01*
X163968269Y-91008882D01*
X163793805Y-90931206D01*
X163793803Y-90931205D01*
X163607004Y-90891500D01*
X163416030Y-90891500D01*
X163229231Y-90931205D01*
X163054763Y-91008883D01*
X162900262Y-91121135D01*
X162772476Y-91263057D01*
X162676990Y-91428443D01*
X162676987Y-91428450D01*
X162617976Y-91610068D01*
X162617975Y-91610072D01*
X162598013Y-91800000D01*
X159425021Y-91800000D01*
X159405059Y-91610072D01*
X159346044Y-91428444D01*
X159250557Y-91263056D01*
X159122770Y-91121134D01*
X158968269Y-91008882D01*
X158793805Y-90931206D01*
X158793803Y-90931205D01*
X158607004Y-90891500D01*
X158416030Y-90891500D01*
X158229231Y-90931205D01*
X158054763Y-91008883D01*
X157900262Y-91121135D01*
X157772476Y-91263057D01*
X157676990Y-91428443D01*
X157676987Y-91428450D01*
X157617976Y-91610068D01*
X157617975Y-91610072D01*
X157598013Y-91800000D01*
X154753500Y-91800000D01*
X154753500Y-87637062D01*
X154753500Y-87637061D01*
X154753500Y-87637057D01*
X154738442Y-87513616D01*
X154724111Y-87455749D01*
X154679825Y-87339556D01*
X154679823Y-87339553D01*
X154679822Y-87339551D01*
X154644502Y-87290938D01*
X154593916Y-87221313D01*
X154593909Y-87221306D01*
X154593906Y-87221302D01*
X154568344Y-87195000D01*
X154546992Y-87173030D01*
X154545670Y-87171552D01*
X154508280Y-87142720D01*
X154467211Y-87086194D01*
X154460000Y-87044524D01*
X154460000Y-86800000D01*
X157598013Y-86800000D01*
X157617975Y-86989928D01*
X157617976Y-86989931D01*
X157676987Y-87171549D01*
X157676990Y-87171556D01*
X157772477Y-87336944D01*
X157900264Y-87478866D01*
X158054765Y-87591118D01*
X158229229Y-87668794D01*
X158416030Y-87708500D01*
X158607004Y-87708500D01*
X158793805Y-87668794D01*
X158968269Y-87591118D01*
X159122770Y-87478866D01*
X159250557Y-87336944D01*
X159346044Y-87171556D01*
X159388069Y-87042216D01*
X159427506Y-86984542D01*
X159491865Y-86957343D01*
X159560711Y-86969258D01*
X159612187Y-87016502D01*
X159630000Y-87080535D01*
X159630000Y-87310000D01*
X160814350Y-87310000D01*
X160881389Y-87329685D01*
X160927144Y-87382489D01*
X160937570Y-87447883D01*
X160924938Y-87559996D01*
X160924938Y-87560003D01*
X160937570Y-87672117D01*
X160925516Y-87740938D01*
X160878166Y-87792318D01*
X160814350Y-87810000D01*
X159630000Y-87810000D01*
X159630000Y-89207844D01*
X159636401Y-89267372D01*
X159636403Y-89267379D01*
X159686645Y-89402086D01*
X159686649Y-89402093D01*
X159772809Y-89517187D01*
X159772812Y-89517190D01*
X159887906Y-89603350D01*
X159887913Y-89603354D01*
X160022620Y-89653596D01*
X160022627Y-89653598D01*
X160082155Y-89659999D01*
X160082172Y-89660000D01*
X161480000Y-89660000D01*
X161480000Y-88475649D01*
X161499685Y-88408610D01*
X161552489Y-88362855D01*
X161617883Y-88352429D01*
X161655485Y-88356666D01*
X161685071Y-88360000D01*
X161685074Y-88360000D01*
X161774929Y-88360000D01*
X161804514Y-88356666D01*
X161842116Y-88352429D01*
X161910937Y-88364483D01*
X161962317Y-88411831D01*
X161980000Y-88475649D01*
X161980000Y-89660000D01*
X163377828Y-89660000D01*
X163377844Y-89659999D01*
X163437372Y-89653598D01*
X163437379Y-89653596D01*
X163572086Y-89603354D01*
X163572093Y-89603350D01*
X163687187Y-89517190D01*
X163687190Y-89517187D01*
X163773350Y-89402093D01*
X163773354Y-89402086D01*
X163823596Y-89267379D01*
X163823598Y-89267372D01*
X163829999Y-89207844D01*
X163830000Y-89207827D01*
X163830000Y-87810000D01*
X162645650Y-87810000D01*
X162578611Y-87790315D01*
X162532856Y-87737511D01*
X162522430Y-87672117D01*
X162535062Y-87560003D01*
X162535062Y-87559996D01*
X162522430Y-87447883D01*
X162534484Y-87379062D01*
X162581834Y-87327682D01*
X162645650Y-87310000D01*
X163830000Y-87310000D01*
X163830000Y-86800000D01*
X167598013Y-86800000D01*
X167617975Y-86989928D01*
X167617976Y-86989931D01*
X167676987Y-87171549D01*
X167676990Y-87171556D01*
X167772477Y-87336944D01*
X167900264Y-87478866D01*
X168054765Y-87591118D01*
X168229229Y-87668794D01*
X168416030Y-87708500D01*
X168607004Y-87708500D01*
X168793805Y-87668794D01*
X168968269Y-87591118D01*
X169122770Y-87478866D01*
X169250557Y-87336944D01*
X169346044Y-87171556D01*
X169405059Y-86989928D01*
X169425021Y-86800000D01*
X172598013Y-86800000D01*
X172617975Y-86989928D01*
X172617976Y-86989931D01*
X172676987Y-87171549D01*
X172676990Y-87171556D01*
X172772477Y-87336944D01*
X172900264Y-87478866D01*
X173054765Y-87591118D01*
X173229229Y-87668794D01*
X173416030Y-87708500D01*
X173607004Y-87708500D01*
X173793805Y-87668794D01*
X173968269Y-87591118D01*
X174122770Y-87478866D01*
X174250557Y-87336944D01*
X174346044Y-87171556D01*
X174405059Y-86989928D01*
X174425021Y-86800000D01*
X174405059Y-86610072D01*
X174346044Y-86428444D01*
X174250557Y-86263056D01*
X174122770Y-86121134D01*
X173968269Y-86008882D01*
X173793805Y-85931206D01*
X173793803Y-85931205D01*
X173607004Y-85891500D01*
X173416030Y-85891500D01*
X173229231Y-85931205D01*
X173054763Y-86008883D01*
X172900262Y-86121135D01*
X172772476Y-86263057D01*
X172676990Y-86428443D01*
X172676987Y-86428450D01*
X172625633Y-86586503D01*
X172617975Y-86610072D01*
X172598013Y-86800000D01*
X169425021Y-86800000D01*
X169405059Y-86610072D01*
X169346044Y-86428444D01*
X169250557Y-86263056D01*
X169122770Y-86121134D01*
X168968269Y-86008882D01*
X168793805Y-85931206D01*
X168793803Y-85931205D01*
X168607004Y-85891500D01*
X168416030Y-85891500D01*
X168229231Y-85931205D01*
X168054763Y-86008883D01*
X167900262Y-86121135D01*
X167772476Y-86263057D01*
X167676990Y-86428443D01*
X167676987Y-86428450D01*
X167625633Y-86586503D01*
X167617975Y-86610072D01*
X167598013Y-86800000D01*
X163830000Y-86800000D01*
X163830000Y-85912172D01*
X163829999Y-85912155D01*
X163823598Y-85852627D01*
X163823596Y-85852620D01*
X163773354Y-85717913D01*
X163773350Y-85717906D01*
X163687190Y-85602812D01*
X163687187Y-85602809D01*
X163572093Y-85516649D01*
X163572086Y-85516645D01*
X163437379Y-85466403D01*
X163437372Y-85466401D01*
X163377844Y-85460000D01*
X161980000Y-85460000D01*
X161980000Y-86644350D01*
X161960315Y-86711389D01*
X161907511Y-86757144D01*
X161842116Y-86767570D01*
X161774930Y-86760000D01*
X161774926Y-86760000D01*
X161685074Y-86760000D01*
X161685070Y-86760000D01*
X161617884Y-86767570D01*
X161549062Y-86755516D01*
X161497682Y-86708167D01*
X161480000Y-86644350D01*
X161480000Y-85460000D01*
X160082155Y-85460000D01*
X160022627Y-85466401D01*
X160022620Y-85466403D01*
X159887913Y-85516645D01*
X159887906Y-85516649D01*
X159772812Y-85602809D01*
X159772809Y-85602812D01*
X159686649Y-85717906D01*
X159686645Y-85717913D01*
X159636403Y-85852620D01*
X159636401Y-85852627D01*
X159630000Y-85912155D01*
X159630000Y-86519464D01*
X159610315Y-86586503D01*
X159557511Y-86632258D01*
X159488353Y-86642202D01*
X159424797Y-86613177D01*
X159388069Y-86557782D01*
X159346046Y-86428450D01*
X159346045Y-86428449D01*
X159346044Y-86428444D01*
X159250557Y-86263056D01*
X159122770Y-86121134D01*
X158968269Y-86008882D01*
X158793805Y-85931206D01*
X158793803Y-85931205D01*
X158607004Y-85891500D01*
X158416030Y-85891500D01*
X158229231Y-85931205D01*
X158054763Y-86008883D01*
X157900262Y-86121135D01*
X157772476Y-86263057D01*
X157676990Y-86428443D01*
X157676987Y-86428450D01*
X157625633Y-86586503D01*
X157617975Y-86610072D01*
X157598013Y-86800000D01*
X154460000Y-86800000D01*
X154460000Y-86558378D01*
X154479685Y-86491339D01*
X154502799Y-86464664D01*
X154503778Y-86463815D01*
X154503782Y-86463813D01*
X154556586Y-86418058D01*
X154652297Y-86307603D01*
X154713014Y-86174655D01*
X154732699Y-86107616D01*
X154732700Y-86107612D01*
X154753500Y-85962942D01*
X154753500Y-82810000D01*
X173086681Y-82810000D01*
X173105927Y-83054554D01*
X173163193Y-83293087D01*
X173257071Y-83519730D01*
X173385246Y-83728893D01*
X173385248Y-83728896D01*
X173544567Y-83915433D01*
X173731104Y-84074752D01*
X173731106Y-84074753D01*
X173940269Y-84202928D01*
X174047108Y-84247181D01*
X174166908Y-84296805D01*
X174405443Y-84354072D01*
X174650000Y-84373319D01*
X174894557Y-84354072D01*
X175133092Y-84296805D01*
X175359732Y-84202927D01*
X175568896Y-84074752D01*
X175755433Y-83915433D01*
X175914752Y-83728896D01*
X176042927Y-83519732D01*
X176136805Y-83293092D01*
X176194072Y-83054557D01*
X176213319Y-82810000D01*
X176194072Y-82565443D01*
X176136805Y-82326908D01*
X176061027Y-82143965D01*
X176042928Y-82100269D01*
X175933180Y-81921175D01*
X175914936Y-81853729D01*
X175936053Y-81787127D01*
X175964596Y-81757120D01*
X176063261Y-81683261D01*
X176150889Y-81566204D01*
X176201989Y-81429201D01*
X176205591Y-81395692D01*
X176208499Y-81368654D01*
X176208500Y-81368637D01*
X176208500Y-79171362D01*
X176208499Y-79171345D01*
X176205157Y-79140270D01*
X176201989Y-79110799D01*
X176150889Y-78973796D01*
X176063261Y-78856739D01*
X175946204Y-78769111D01*
X175809203Y-78718011D01*
X175748654Y-78711500D01*
X175748638Y-78711500D01*
X173551362Y-78711500D01*
X173551345Y-78711500D01*
X173490797Y-78718011D01*
X173490795Y-78718011D01*
X173353795Y-78769111D01*
X173236739Y-78856739D01*
X173149111Y-78973795D01*
X173098011Y-79110795D01*
X173098011Y-79110797D01*
X173091500Y-79171345D01*
X173091500Y-81368654D01*
X173098011Y-81429202D01*
X173098011Y-81429204D01*
X173146192Y-81558378D01*
X173149111Y-81566204D01*
X173236739Y-81683261D01*
X173335402Y-81757119D01*
X173377273Y-81813053D01*
X173382257Y-81882745D01*
X173366819Y-81921175D01*
X173257072Y-82100269D01*
X173163193Y-82326912D01*
X173105927Y-82565445D01*
X173086681Y-82810000D01*
X154753500Y-82810000D01*
X154753500Y-82637057D01*
X154738442Y-82513616D01*
X154724111Y-82455749D01*
X154679825Y-82339556D01*
X154679823Y-82339553D01*
X154679822Y-82339551D01*
X154644502Y-82290938D01*
X154593916Y-82221313D01*
X154593909Y-82221306D01*
X154593906Y-82221302D01*
X154568344Y-82195000D01*
X154546992Y-82173030D01*
X154545670Y-82171552D01*
X154508280Y-82142720D01*
X154467211Y-82086194D01*
X154460000Y-82044524D01*
X154460000Y-81800000D01*
X157598013Y-81800000D01*
X157617975Y-81989928D01*
X157617976Y-81989931D01*
X157676987Y-82171549D01*
X157676990Y-82171556D01*
X157772477Y-82336944D01*
X157900264Y-82478866D01*
X158054765Y-82591118D01*
X158229229Y-82668794D01*
X158416030Y-82708500D01*
X158607004Y-82708500D01*
X158793805Y-82668794D01*
X158968269Y-82591118D01*
X159122770Y-82478866D01*
X159250557Y-82336944D01*
X159346044Y-82171556D01*
X159405059Y-81989928D01*
X159425021Y-81800000D01*
X162598013Y-81800000D01*
X162617975Y-81989928D01*
X162617976Y-81989931D01*
X162676987Y-82171549D01*
X162676990Y-82171556D01*
X162772477Y-82336944D01*
X162900264Y-82478866D01*
X163054765Y-82591118D01*
X163229229Y-82668794D01*
X163416030Y-82708500D01*
X163607004Y-82708500D01*
X163793805Y-82668794D01*
X163968269Y-82591118D01*
X164122770Y-82478866D01*
X164250557Y-82336944D01*
X164346044Y-82171556D01*
X164405059Y-81989928D01*
X164425021Y-81800000D01*
X167598013Y-81800000D01*
X167617975Y-81989928D01*
X167617976Y-81989931D01*
X167676987Y-82171549D01*
X167676990Y-82171556D01*
X167772477Y-82336944D01*
X167900264Y-82478866D01*
X168054765Y-82591118D01*
X168229229Y-82668794D01*
X168416030Y-82708500D01*
X168607004Y-82708500D01*
X168793805Y-82668794D01*
X168968269Y-82591118D01*
X169122770Y-82478866D01*
X169250557Y-82336944D01*
X169346044Y-82171556D01*
X169405059Y-81989928D01*
X169425021Y-81800000D01*
X169405059Y-81610072D01*
X169346044Y-81428444D01*
X169250557Y-81263056D01*
X169122770Y-81121134D01*
X168968269Y-81008882D01*
X168793805Y-80931206D01*
X168793803Y-80931205D01*
X168607004Y-80891500D01*
X168416030Y-80891500D01*
X168229231Y-80931205D01*
X168054763Y-81008883D01*
X167900262Y-81121135D01*
X167772476Y-81263057D01*
X167676990Y-81428443D01*
X167676987Y-81428450D01*
X167617976Y-81610068D01*
X167617975Y-81610072D01*
X167598013Y-81800000D01*
X164425021Y-81800000D01*
X164405059Y-81610072D01*
X164346044Y-81428444D01*
X164250557Y-81263056D01*
X164122770Y-81121134D01*
X163968269Y-81008882D01*
X163793805Y-80931206D01*
X163793803Y-80931205D01*
X163607004Y-80891500D01*
X163416030Y-80891500D01*
X163229231Y-80931205D01*
X163054763Y-81008883D01*
X162900262Y-81121135D01*
X162772476Y-81263057D01*
X162676990Y-81428443D01*
X162676987Y-81428450D01*
X162617976Y-81610068D01*
X162617975Y-81610072D01*
X162598013Y-81800000D01*
X159425021Y-81800000D01*
X159405059Y-81610072D01*
X159346044Y-81428444D01*
X159250557Y-81263056D01*
X159122770Y-81121134D01*
X158968269Y-81008882D01*
X158793805Y-80931206D01*
X158793803Y-80931205D01*
X158607004Y-80891500D01*
X158416030Y-80891500D01*
X158229231Y-80931205D01*
X158054763Y-81008883D01*
X157900262Y-81121135D01*
X157772476Y-81263057D01*
X157676990Y-81428443D01*
X157676987Y-81428450D01*
X157617976Y-81610068D01*
X157617975Y-81610072D01*
X157598013Y-81800000D01*
X154460000Y-81800000D01*
X154460000Y-81558378D01*
X154479685Y-81491339D01*
X154502799Y-81464664D01*
X154503778Y-81463815D01*
X154503782Y-81463813D01*
X154556586Y-81418058D01*
X154652297Y-81307603D01*
X154713014Y-81174655D01*
X154732699Y-81107616D01*
X154732700Y-81107612D01*
X154753500Y-80962942D01*
X154753500Y-76974500D01*
X154773185Y-76907461D01*
X154825989Y-76861706D01*
X154877500Y-76850500D01*
X169313332Y-76850500D01*
X178365767Y-76869714D01*
G37*
%TD.AperFunction*%
%TD*%
%TA.AperFunction,Conductor*%
%TO.N,Net-(J1-Pin_1)*%
G36*
X114363039Y-76870185D02*
G01*
X114408794Y-76922989D01*
X114420000Y-76974500D01*
X114420000Y-78515298D01*
X114400315Y-78582337D01*
X114347511Y-78628092D01*
X114283398Y-78638656D01*
X114188877Y-78629000D01*
X113601132Y-78629000D01*
X113601116Y-78629001D01*
X113498094Y-78639526D01*
X113331173Y-78694838D01*
X113331168Y-78694840D01*
X113181500Y-78787157D01*
X113052049Y-78916609D01*
X113049996Y-78914556D01*
X113003741Y-78947296D01*
X112963520Y-78954000D01*
X112604372Y-78954000D01*
X112578591Y-78951290D01*
X112485487Y-78931500D01*
X112294513Y-78931500D01*
X112107714Y-78971205D01*
X111933246Y-79048883D01*
X111778745Y-79161135D01*
X111650959Y-79303057D01*
X111555473Y-79468443D01*
X111555470Y-79468450D01*
X111496459Y-79650068D01*
X111496458Y-79650072D01*
X111476496Y-79840000D01*
X111496458Y-80029928D01*
X111496459Y-80029931D01*
X111555470Y-80211549D01*
X111555473Y-80211556D01*
X111650960Y-80376944D01*
X111778747Y-80518866D01*
X111933248Y-80631118D01*
X112107712Y-80708794D01*
X112294513Y-80748500D01*
X112485487Y-80748500D01*
X112602114Y-80723709D01*
X112627895Y-80721000D01*
X112963520Y-80721000D01*
X113030559Y-80740685D01*
X113051118Y-80759321D01*
X113052049Y-80758391D01*
X113098631Y-80804973D01*
X113132116Y-80866296D01*
X113127132Y-80935988D01*
X113085260Y-80991921D01*
X113061395Y-81005929D01*
X113054769Y-81008879D01*
X113054765Y-81008881D01*
X112900262Y-81121135D01*
X112772476Y-81263057D01*
X112676990Y-81428443D01*
X112676987Y-81428450D01*
X112642448Y-81534752D01*
X112617975Y-81610072D01*
X112598013Y-81800000D01*
X112617975Y-81989928D01*
X112617976Y-81989931D01*
X112676987Y-82171549D01*
X112676990Y-82171556D01*
X112772477Y-82336944D01*
X112900264Y-82478866D01*
X113054765Y-82591118D01*
X113229229Y-82668794D01*
X113416030Y-82708500D01*
X113607004Y-82708500D01*
X113793805Y-82668794D01*
X113968269Y-82591118D01*
X114122770Y-82478866D01*
X114203851Y-82388815D01*
X114263335Y-82352169D01*
X114333192Y-82353498D01*
X114391240Y-82392384D01*
X114419050Y-82456481D01*
X114419999Y-82471789D01*
X114419999Y-86128210D01*
X114400314Y-86195249D01*
X114347510Y-86241004D01*
X114278352Y-86250948D01*
X114214796Y-86221923D01*
X114203849Y-86211182D01*
X114122771Y-86121135D01*
X113968270Y-86008883D01*
X113968269Y-86008882D01*
X113793805Y-85931206D01*
X113793803Y-85931205D01*
X113607004Y-85891500D01*
X113416030Y-85891500D01*
X113229231Y-85931205D01*
X113054763Y-86008883D01*
X112900262Y-86121135D01*
X112772476Y-86263057D01*
X112676990Y-86428443D01*
X112676987Y-86428450D01*
X112617976Y-86610068D01*
X112617975Y-86610072D01*
X112598013Y-86800000D01*
X112617975Y-86989928D01*
X112617976Y-86989931D01*
X112676987Y-87171549D01*
X112676990Y-87171556D01*
X112772477Y-87336944D01*
X112900264Y-87478866D01*
X113054765Y-87591118D01*
X113229229Y-87668794D01*
X113416030Y-87708500D01*
X113607004Y-87708500D01*
X113793805Y-87668794D01*
X113968269Y-87591118D01*
X114122770Y-87478866D01*
X114203851Y-87388815D01*
X114263335Y-87352169D01*
X114333192Y-87353498D01*
X114391240Y-87392384D01*
X114419050Y-87456481D01*
X114419999Y-87471789D01*
X114419999Y-91128210D01*
X114400314Y-91195249D01*
X114347510Y-91241004D01*
X114278352Y-91250948D01*
X114214796Y-91221923D01*
X114203849Y-91211182D01*
X114122771Y-91121135D01*
X113968270Y-91008883D01*
X113968269Y-91008882D01*
X113793805Y-90931206D01*
X113793803Y-90931205D01*
X113607004Y-90891500D01*
X113416030Y-90891500D01*
X113229231Y-90931205D01*
X113054763Y-91008883D01*
X112900262Y-91121135D01*
X112772476Y-91263057D01*
X112676990Y-91428443D01*
X112676987Y-91428450D01*
X112617976Y-91610068D01*
X112617975Y-91610072D01*
X112598013Y-91800000D01*
X112617975Y-91989928D01*
X112617976Y-91989931D01*
X112676987Y-92171549D01*
X112676990Y-92171556D01*
X112772477Y-92336944D01*
X112900264Y-92478866D01*
X113054765Y-92591118D01*
X113229229Y-92668794D01*
X113416030Y-92708500D01*
X113607004Y-92708500D01*
X113793805Y-92668794D01*
X113968269Y-92591118D01*
X114122770Y-92478866D01*
X114203851Y-92388815D01*
X114263335Y-92352169D01*
X114333192Y-92353498D01*
X114391240Y-92392384D01*
X114419050Y-92456481D01*
X114419999Y-92471789D01*
X114419999Y-96128210D01*
X114400314Y-96195249D01*
X114347510Y-96241004D01*
X114278352Y-96250948D01*
X114214796Y-96221923D01*
X114203849Y-96211182D01*
X114122771Y-96121135D01*
X113968270Y-96008883D01*
X113968269Y-96008882D01*
X113793805Y-95931206D01*
X113793803Y-95931205D01*
X113607004Y-95891500D01*
X113416030Y-95891500D01*
X113229231Y-95931205D01*
X113054763Y-96008883D01*
X112900262Y-96121135D01*
X112772476Y-96263057D01*
X112676990Y-96428443D01*
X112676987Y-96428450D01*
X112617976Y-96610068D01*
X112617975Y-96610072D01*
X112598013Y-96800000D01*
X112617975Y-96989928D01*
X112617976Y-96989931D01*
X112676987Y-97171549D01*
X112676990Y-97171556D01*
X112772477Y-97336944D01*
X112900264Y-97478866D01*
X113054765Y-97591118D01*
X113229229Y-97668794D01*
X113416030Y-97708500D01*
X113607004Y-97708500D01*
X113793805Y-97668794D01*
X113968269Y-97591118D01*
X114122770Y-97478866D01*
X114203851Y-97388815D01*
X114263335Y-97352169D01*
X114333192Y-97353498D01*
X114391240Y-97392384D01*
X114419050Y-97456481D01*
X114419999Y-97471789D01*
X114419999Y-101128210D01*
X114400314Y-101195249D01*
X114347510Y-101241004D01*
X114278352Y-101250948D01*
X114214796Y-101221923D01*
X114203849Y-101211182D01*
X114122771Y-101121135D01*
X113968270Y-101008883D01*
X113968269Y-101008882D01*
X113793805Y-100931206D01*
X113793803Y-100931205D01*
X113607004Y-100891500D01*
X113416030Y-100891500D01*
X113229231Y-100931205D01*
X113054763Y-101008883D01*
X112900262Y-101121135D01*
X112772476Y-101263057D01*
X112676990Y-101428443D01*
X112676987Y-101428450D01*
X112617976Y-101610068D01*
X112617975Y-101610072D01*
X112598013Y-101800000D01*
X112617975Y-101989928D01*
X112617976Y-101989931D01*
X112676987Y-102171549D01*
X112676990Y-102171556D01*
X112772477Y-102336944D01*
X112900264Y-102478866D01*
X113054765Y-102591118D01*
X113229229Y-102668794D01*
X113416030Y-102708500D01*
X113607004Y-102708500D01*
X113793805Y-102668794D01*
X113968269Y-102591118D01*
X114122770Y-102478866D01*
X114203851Y-102388815D01*
X114263335Y-102352169D01*
X114333192Y-102353498D01*
X114391240Y-102392384D01*
X114419050Y-102456481D01*
X114419999Y-102471789D01*
X114419999Y-106128210D01*
X114400314Y-106195249D01*
X114347510Y-106241004D01*
X114278352Y-106250948D01*
X114214796Y-106221923D01*
X114203849Y-106211182D01*
X114122771Y-106121135D01*
X113968270Y-106008883D01*
X113968269Y-106008882D01*
X113793805Y-105931206D01*
X113793803Y-105931205D01*
X113607004Y-105891500D01*
X113416030Y-105891500D01*
X113229231Y-105931205D01*
X113054763Y-106008883D01*
X112900262Y-106121135D01*
X112772476Y-106263057D01*
X112676990Y-106428443D01*
X112676987Y-106428450D01*
X112617976Y-106610068D01*
X112617975Y-106610072D01*
X112598013Y-106800000D01*
X112617975Y-106989928D01*
X112617976Y-106989931D01*
X112676987Y-107171549D01*
X112676990Y-107171556D01*
X112772477Y-107336944D01*
X112900264Y-107478866D01*
X113054765Y-107591118D01*
X113229229Y-107668794D01*
X113416030Y-107708500D01*
X113607004Y-107708500D01*
X113793805Y-107668794D01*
X113968269Y-107591118D01*
X114122770Y-107478866D01*
X114203851Y-107388815D01*
X114263335Y-107352169D01*
X114333192Y-107353498D01*
X114391240Y-107392384D01*
X114419050Y-107456481D01*
X114419999Y-107471789D01*
X114419999Y-111128210D01*
X114400314Y-111195249D01*
X114347510Y-111241004D01*
X114278352Y-111250948D01*
X114214796Y-111221923D01*
X114203849Y-111211182D01*
X114122771Y-111121135D01*
X114030926Y-111054405D01*
X113968269Y-111008882D01*
X113793805Y-110931206D01*
X113793803Y-110931205D01*
X113607004Y-110891500D01*
X113416030Y-110891500D01*
X113229231Y-110931205D01*
X113054763Y-111008883D01*
X112900262Y-111121135D01*
X112772476Y-111263057D01*
X112676990Y-111428443D01*
X112676987Y-111428450D01*
X112624720Y-111589313D01*
X112617975Y-111610072D01*
X112598013Y-111800000D01*
X112617975Y-111989928D01*
X112617976Y-111989931D01*
X112676987Y-112171549D01*
X112676990Y-112171556D01*
X112772477Y-112336944D01*
X112900264Y-112478866D01*
X113054765Y-112591118D01*
X113229229Y-112668794D01*
X113416030Y-112708500D01*
X113607004Y-112708500D01*
X113793805Y-112668794D01*
X113968269Y-112591118D01*
X114122770Y-112478866D01*
X114203850Y-112388816D01*
X114263336Y-112352168D01*
X114333193Y-112353498D01*
X114391242Y-112392385D01*
X114419052Y-112456482D01*
X114420000Y-112471789D01*
X114420000Y-116025500D01*
X114400315Y-116092539D01*
X114347511Y-116138294D01*
X114296000Y-116149500D01*
X99814500Y-116149500D01*
X99747461Y-116129815D01*
X99701706Y-116077011D01*
X99690500Y-116025500D01*
X99690500Y-113392628D01*
X99710185Y-113325589D01*
X99762989Y-113279834D01*
X99832147Y-113269890D01*
X99895703Y-113298915D01*
X99902181Y-113304947D01*
X100050664Y-113453430D01*
X100050676Y-113453440D01*
X100235619Y-113581568D01*
X100235625Y-113581571D01*
X100440480Y-113674622D01*
X100658667Y-113729599D01*
X100790807Y-113740000D01*
X101354999Y-113739999D01*
X101355000Y-113739998D01*
X101355000Y-112851386D01*
X101374685Y-112784347D01*
X101427489Y-112738592D01*
X101496647Y-112728648D01*
X101503942Y-112729920D01*
X101504327Y-112730000D01*
X101504332Y-112730000D01*
X101655211Y-112730000D01*
X101718456Y-112723568D01*
X101787141Y-112736369D01*
X101838004Y-112784272D01*
X101855000Y-112846932D01*
X101855000Y-113739999D01*
X102419192Y-113739999D01*
X102551332Y-113729599D01*
X102769519Y-113674622D01*
X102974374Y-113581571D01*
X102974380Y-113581568D01*
X103159323Y-113453440D01*
X103159335Y-113453430D01*
X103318430Y-113294335D01*
X103318440Y-113294323D01*
X103446568Y-113109380D01*
X103446571Y-113109374D01*
X103539622Y-112904519D01*
X103594599Y-112686332D01*
X103605000Y-112554194D01*
X103605000Y-111990000D01*
X102714042Y-111990000D01*
X102647003Y-111970315D01*
X102601248Y-111917511D01*
X102590201Y-111859720D01*
X102590835Y-111847223D01*
X102598829Y-111689599D01*
X102590124Y-111632776D01*
X102599430Y-111563530D01*
X102644696Y-111510307D01*
X102711552Y-111490005D01*
X102712694Y-111490000D01*
X103604998Y-111490000D01*
X107225000Y-111490000D01*
X108115958Y-111490000D01*
X108182997Y-111509685D01*
X108228752Y-111562489D01*
X108239798Y-111620278D01*
X108236283Y-111689598D01*
X108231171Y-111790401D01*
X108239876Y-111847223D01*
X108230570Y-111916470D01*
X108185304Y-111969693D01*
X108118448Y-111989995D01*
X108117306Y-111990000D01*
X107225001Y-111990000D01*
X107225001Y-112554192D01*
X107235400Y-112686332D01*
X107290377Y-112904519D01*
X107383428Y-113109374D01*
X107383431Y-113109380D01*
X107511559Y-113294323D01*
X107511569Y-113294335D01*
X107670664Y-113453430D01*
X107670676Y-113453440D01*
X107855619Y-113581568D01*
X107855625Y-113581571D01*
X108060480Y-113674622D01*
X108278667Y-113729599D01*
X108410807Y-113740000D01*
X108974999Y-113739999D01*
X108975000Y-113739998D01*
X108975000Y-112851386D01*
X108994685Y-112784347D01*
X109047489Y-112738592D01*
X109116647Y-112728648D01*
X109123942Y-112729920D01*
X109124327Y-112730000D01*
X109124332Y-112730000D01*
X109275211Y-112730000D01*
X109338456Y-112723568D01*
X109407141Y-112736369D01*
X109458004Y-112784272D01*
X109475000Y-112846932D01*
X109475000Y-113739999D01*
X110039192Y-113739999D01*
X110171332Y-113729599D01*
X110389519Y-113674622D01*
X110594374Y-113581571D01*
X110594380Y-113581568D01*
X110779323Y-113453440D01*
X110779335Y-113453430D01*
X110938430Y-113294335D01*
X110938440Y-113294323D01*
X111066568Y-113109380D01*
X111066571Y-113109374D01*
X111159622Y-112904519D01*
X111214599Y-112686332D01*
X111225000Y-112554194D01*
X111225000Y-111990000D01*
X110334042Y-111990000D01*
X110267003Y-111970315D01*
X110221248Y-111917511D01*
X110210201Y-111859720D01*
X110210835Y-111847223D01*
X110218829Y-111689599D01*
X110210124Y-111632776D01*
X110219430Y-111563530D01*
X110264696Y-111510307D01*
X110331552Y-111490005D01*
X110332694Y-111490000D01*
X111224999Y-111490000D01*
X111224999Y-110925808D01*
X111214599Y-110793667D01*
X111159622Y-110575480D01*
X111066571Y-110370625D01*
X111066568Y-110370619D01*
X110938440Y-110185676D01*
X110938430Y-110185664D01*
X110779335Y-110026569D01*
X110779323Y-110026559D01*
X110594380Y-109898431D01*
X110594374Y-109898428D01*
X110389519Y-109805377D01*
X110171332Y-109750400D01*
X110039194Y-109740000D01*
X109474999Y-109740000D01*
X109474999Y-110628613D01*
X109455314Y-110695653D01*
X109402510Y-110741407D01*
X109333352Y-110751351D01*
X109326040Y-110750075D01*
X109325675Y-110750000D01*
X109325673Y-110750000D01*
X109174789Y-110750000D01*
X109174788Y-110750000D01*
X109111545Y-110756431D01*
X109042858Y-110743629D01*
X108991996Y-110695725D01*
X108975000Y-110633067D01*
X108975000Y-109740000D01*
X108974999Y-109740000D01*
X108410808Y-109740001D01*
X108278667Y-109750400D01*
X108060480Y-109805377D01*
X107855625Y-109898428D01*
X107855619Y-109898431D01*
X107670676Y-110026559D01*
X107670664Y-110026569D01*
X107511569Y-110185664D01*
X107511559Y-110185676D01*
X107383431Y-110370619D01*
X107383428Y-110370625D01*
X107290377Y-110575480D01*
X107235400Y-110793667D01*
X107225000Y-110925806D01*
X107225000Y-111490000D01*
X103604998Y-111490000D01*
X103604999Y-110925808D01*
X103594599Y-110793667D01*
X103539622Y-110575480D01*
X103446571Y-110370625D01*
X103446568Y-110370619D01*
X103318440Y-110185676D01*
X103318430Y-110185664D01*
X103159335Y-110026569D01*
X103159323Y-110026559D01*
X102974380Y-109898431D01*
X102974374Y-109898428D01*
X102769519Y-109805377D01*
X102551332Y-109750400D01*
X102419194Y-109740000D01*
X101855000Y-109740000D01*
X101855000Y-110628613D01*
X101835315Y-110695652D01*
X101782511Y-110741407D01*
X101713353Y-110751351D01*
X101706045Y-110750076D01*
X101705675Y-110750000D01*
X101705673Y-110750000D01*
X101554789Y-110750000D01*
X101554788Y-110750000D01*
X101491545Y-110756431D01*
X101422858Y-110743629D01*
X101371996Y-110695725D01*
X101355000Y-110633067D01*
X101355000Y-109740000D01*
X101354999Y-109740000D01*
X100790808Y-109740001D01*
X100658667Y-109750400D01*
X100440480Y-109805377D01*
X100235625Y-109898428D01*
X100235619Y-109898431D01*
X100050676Y-110026559D01*
X100050664Y-110026569D01*
X99902181Y-110175053D01*
X99840858Y-110208538D01*
X99771166Y-110203554D01*
X99715233Y-110161682D01*
X99690816Y-110096218D01*
X99690500Y-110087372D01*
X99690500Y-106800000D01*
X102598013Y-106800000D01*
X102617975Y-106989928D01*
X102617976Y-106989931D01*
X102676987Y-107171549D01*
X102676990Y-107171556D01*
X102772477Y-107336944D01*
X102900264Y-107478866D01*
X103054765Y-107591118D01*
X103229229Y-107668794D01*
X103416030Y-107708500D01*
X103607004Y-107708500D01*
X103793805Y-107668794D01*
X103968269Y-107591118D01*
X104122770Y-107478866D01*
X104250557Y-107336944D01*
X104346044Y-107171556D01*
X104405059Y-106989928D01*
X104425021Y-106800000D01*
X107598013Y-106800000D01*
X107617975Y-106989928D01*
X107617976Y-106989931D01*
X107676987Y-107171549D01*
X107676990Y-107171556D01*
X107772477Y-107336944D01*
X107900264Y-107478866D01*
X108054765Y-107591118D01*
X108229229Y-107668794D01*
X108416030Y-107708500D01*
X108607004Y-107708500D01*
X108793805Y-107668794D01*
X108968269Y-107591118D01*
X109122770Y-107478866D01*
X109250557Y-107336944D01*
X109346044Y-107171556D01*
X109405059Y-106989928D01*
X109425021Y-106800000D01*
X109405059Y-106610072D01*
X109346044Y-106428444D01*
X109250557Y-106263056D01*
X109122770Y-106121134D01*
X108968269Y-106008882D01*
X108793805Y-105931206D01*
X108793803Y-105931205D01*
X108607004Y-105891500D01*
X108416030Y-105891500D01*
X108229231Y-105931205D01*
X108054763Y-106008883D01*
X107900262Y-106121135D01*
X107772476Y-106263057D01*
X107676990Y-106428443D01*
X107676987Y-106428450D01*
X107617976Y-106610068D01*
X107617975Y-106610072D01*
X107598013Y-106800000D01*
X104425021Y-106800000D01*
X104405059Y-106610072D01*
X104346044Y-106428444D01*
X104250557Y-106263056D01*
X104122770Y-106121134D01*
X103968269Y-106008882D01*
X103793805Y-105931206D01*
X103793803Y-105931205D01*
X103607004Y-105891500D01*
X103416030Y-105891500D01*
X103229231Y-105931205D01*
X103054763Y-106008883D01*
X102900262Y-106121135D01*
X102772476Y-106263057D01*
X102676990Y-106428443D01*
X102676987Y-106428450D01*
X102617976Y-106610068D01*
X102617975Y-106610072D01*
X102598013Y-106800000D01*
X99690500Y-106800000D01*
X99690500Y-101800000D01*
X102598013Y-101800000D01*
X102617975Y-101989928D01*
X102617976Y-101989931D01*
X102676987Y-102171549D01*
X102676990Y-102171556D01*
X102772477Y-102336944D01*
X102900264Y-102478866D01*
X103054765Y-102591118D01*
X103229229Y-102668794D01*
X103416030Y-102708500D01*
X103607004Y-102708500D01*
X103793805Y-102668794D01*
X103968269Y-102591118D01*
X104122770Y-102478866D01*
X104250557Y-102336944D01*
X104346044Y-102171556D01*
X104405059Y-101989928D01*
X104425021Y-101800000D01*
X107598013Y-101800000D01*
X107617975Y-101989928D01*
X107617976Y-101989931D01*
X107676987Y-102171549D01*
X107676990Y-102171556D01*
X107772477Y-102336944D01*
X107900264Y-102478866D01*
X108054765Y-102591118D01*
X108229229Y-102668794D01*
X108416030Y-102708500D01*
X108607004Y-102708500D01*
X108793805Y-102668794D01*
X108968269Y-102591118D01*
X109122770Y-102478866D01*
X109250557Y-102336944D01*
X109346044Y-102171556D01*
X109405059Y-101989928D01*
X109425021Y-101800000D01*
X109405059Y-101610072D01*
X109346044Y-101428444D01*
X109250557Y-101263056D01*
X109122770Y-101121134D01*
X108968269Y-101008882D01*
X108793805Y-100931206D01*
X108793803Y-100931205D01*
X108607004Y-100891500D01*
X108416030Y-100891500D01*
X108229231Y-100931205D01*
X108054763Y-101008883D01*
X107900262Y-101121135D01*
X107772476Y-101263057D01*
X107676990Y-101428443D01*
X107676987Y-101428450D01*
X107617976Y-101610068D01*
X107617975Y-101610072D01*
X107598013Y-101800000D01*
X104425021Y-101800000D01*
X104405059Y-101610072D01*
X104346044Y-101428444D01*
X104250557Y-101263056D01*
X104122770Y-101121134D01*
X103968269Y-101008882D01*
X103793805Y-100931206D01*
X103793803Y-100931205D01*
X103607004Y-100891500D01*
X103416030Y-100891500D01*
X103229231Y-100931205D01*
X103054763Y-101008883D01*
X102900262Y-101121135D01*
X102772476Y-101263057D01*
X102676990Y-101428443D01*
X102676987Y-101428450D01*
X102617976Y-101610068D01*
X102617975Y-101610072D01*
X102598013Y-101800000D01*
X99690500Y-101800000D01*
X99690500Y-96800000D01*
X102598013Y-96800000D01*
X102617975Y-96989928D01*
X102617976Y-96989931D01*
X102676987Y-97171549D01*
X102676990Y-97171556D01*
X102772477Y-97336944D01*
X102900264Y-97478866D01*
X103054765Y-97591118D01*
X103229229Y-97668794D01*
X103416030Y-97708500D01*
X103607004Y-97708500D01*
X103793805Y-97668794D01*
X103968269Y-97591118D01*
X104122770Y-97478866D01*
X104250557Y-97336944D01*
X104346044Y-97171556D01*
X104405059Y-96989928D01*
X104425021Y-96800000D01*
X107598013Y-96800000D01*
X107617975Y-96989928D01*
X107617976Y-96989931D01*
X107676987Y-97171549D01*
X107676990Y-97171556D01*
X107772477Y-97336944D01*
X107900264Y-97478866D01*
X108054765Y-97591118D01*
X108229229Y-97668794D01*
X108416030Y-97708500D01*
X108607004Y-97708500D01*
X108793805Y-97668794D01*
X108968269Y-97591118D01*
X109122770Y-97478866D01*
X109250557Y-97336944D01*
X109346044Y-97171556D01*
X109405059Y-96989928D01*
X109425021Y-96800000D01*
X109405059Y-96610072D01*
X109346044Y-96428444D01*
X109250557Y-96263056D01*
X109122770Y-96121134D01*
X108968269Y-96008882D01*
X108793805Y-95931206D01*
X108793803Y-95931205D01*
X108607004Y-95891500D01*
X108416030Y-95891500D01*
X108229231Y-95931205D01*
X108054763Y-96008883D01*
X107900262Y-96121135D01*
X107772476Y-96263057D01*
X107676990Y-96428443D01*
X107676987Y-96428450D01*
X107617976Y-96610068D01*
X107617975Y-96610072D01*
X107598013Y-96800000D01*
X104425021Y-96800000D01*
X104405059Y-96610072D01*
X104346044Y-96428444D01*
X104250557Y-96263056D01*
X104122770Y-96121134D01*
X103968269Y-96008882D01*
X103793805Y-95931206D01*
X103793803Y-95931205D01*
X103607004Y-95891500D01*
X103416030Y-95891500D01*
X103229231Y-95931205D01*
X103054763Y-96008883D01*
X102900262Y-96121135D01*
X102772476Y-96263057D01*
X102676990Y-96428443D01*
X102676987Y-96428450D01*
X102617976Y-96610068D01*
X102617975Y-96610072D01*
X102598013Y-96800000D01*
X99690500Y-96800000D01*
X99690500Y-91800000D01*
X102598013Y-91800000D01*
X102617975Y-91989928D01*
X102617976Y-91989931D01*
X102676987Y-92171549D01*
X102676990Y-92171556D01*
X102772477Y-92336944D01*
X102900264Y-92478866D01*
X103054765Y-92591118D01*
X103229229Y-92668794D01*
X103416030Y-92708500D01*
X103607004Y-92708500D01*
X103793805Y-92668794D01*
X103968269Y-92591118D01*
X104122770Y-92478866D01*
X104250557Y-92336944D01*
X104346044Y-92171556D01*
X104405059Y-91989928D01*
X104425021Y-91800000D01*
X107598013Y-91800000D01*
X107617975Y-91989928D01*
X107617976Y-91989931D01*
X107676987Y-92171549D01*
X107676990Y-92171556D01*
X107772477Y-92336944D01*
X107900264Y-92478866D01*
X108054765Y-92591118D01*
X108229229Y-92668794D01*
X108416030Y-92708500D01*
X108607004Y-92708500D01*
X108793805Y-92668794D01*
X108968269Y-92591118D01*
X109122770Y-92478866D01*
X109250557Y-92336944D01*
X109346044Y-92171556D01*
X109405059Y-91989928D01*
X109425021Y-91800000D01*
X109405059Y-91610072D01*
X109346044Y-91428444D01*
X109250557Y-91263056D01*
X109122770Y-91121134D01*
X108968269Y-91008882D01*
X108793805Y-90931206D01*
X108793803Y-90931205D01*
X108607004Y-90891500D01*
X108416030Y-90891500D01*
X108229231Y-90931205D01*
X108054763Y-91008883D01*
X107900262Y-91121135D01*
X107772476Y-91263057D01*
X107676990Y-91428443D01*
X107676987Y-91428450D01*
X107617976Y-91610068D01*
X107617975Y-91610072D01*
X107598013Y-91800000D01*
X104425021Y-91800000D01*
X104405059Y-91610072D01*
X104346044Y-91428444D01*
X104250557Y-91263056D01*
X104122770Y-91121134D01*
X103968269Y-91008882D01*
X103793805Y-90931206D01*
X103793803Y-90931205D01*
X103607004Y-90891500D01*
X103416030Y-90891500D01*
X103229231Y-90931205D01*
X103054763Y-91008883D01*
X102900262Y-91121135D01*
X102772476Y-91263057D01*
X102676990Y-91428443D01*
X102676987Y-91428450D01*
X102617976Y-91610068D01*
X102617975Y-91610072D01*
X102598013Y-91800000D01*
X99690500Y-91800000D01*
X99690500Y-86800000D01*
X102598013Y-86800000D01*
X102617975Y-86989928D01*
X102617976Y-86989931D01*
X102676987Y-87171549D01*
X102676990Y-87171556D01*
X102772477Y-87336944D01*
X102900264Y-87478866D01*
X103054765Y-87591118D01*
X103229229Y-87668794D01*
X103416030Y-87708500D01*
X103607004Y-87708500D01*
X103793805Y-87668794D01*
X103968269Y-87591118D01*
X104122770Y-87478866D01*
X104250557Y-87336944D01*
X104346044Y-87171556D01*
X104405059Y-86989928D01*
X104425021Y-86800000D01*
X107598013Y-86800000D01*
X107617975Y-86989928D01*
X107617976Y-86989931D01*
X107676987Y-87171549D01*
X107676990Y-87171556D01*
X107772477Y-87336944D01*
X107900264Y-87478866D01*
X108054765Y-87591118D01*
X108229229Y-87668794D01*
X108416030Y-87708500D01*
X108607004Y-87708500D01*
X108793805Y-87668794D01*
X108968269Y-87591118D01*
X109122770Y-87478866D01*
X109250557Y-87336944D01*
X109346044Y-87171556D01*
X109405059Y-86989928D01*
X109425021Y-86800000D01*
X109405059Y-86610072D01*
X109346044Y-86428444D01*
X109250557Y-86263056D01*
X109122770Y-86121134D01*
X108968269Y-86008882D01*
X108793805Y-85931206D01*
X108793803Y-85931205D01*
X108607004Y-85891500D01*
X108416030Y-85891500D01*
X108229231Y-85931205D01*
X108054763Y-86008883D01*
X107900262Y-86121135D01*
X107772476Y-86263057D01*
X107676990Y-86428443D01*
X107676987Y-86428450D01*
X107617976Y-86610068D01*
X107617975Y-86610072D01*
X107598013Y-86800000D01*
X104425021Y-86800000D01*
X104405059Y-86610072D01*
X104346044Y-86428444D01*
X104250557Y-86263056D01*
X104122770Y-86121134D01*
X103968269Y-86008882D01*
X103793805Y-85931206D01*
X103793803Y-85931205D01*
X103607004Y-85891500D01*
X103416030Y-85891500D01*
X103229231Y-85931205D01*
X103054763Y-86008883D01*
X102900262Y-86121135D01*
X102772476Y-86263057D01*
X102676990Y-86428443D01*
X102676987Y-86428450D01*
X102617976Y-86610068D01*
X102617975Y-86610072D01*
X102598013Y-86800000D01*
X99690500Y-86800000D01*
X99690500Y-80270000D01*
X102246681Y-80270000D01*
X102265927Y-80514554D01*
X102323193Y-80753087D01*
X102398953Y-80935988D01*
X102417073Y-80979732D01*
X102433126Y-81005929D01*
X102531279Y-81166102D01*
X102549523Y-81233548D01*
X102528406Y-81300150D01*
X102499863Y-81330157D01*
X102402809Y-81402812D01*
X102316649Y-81517906D01*
X102316645Y-81517913D01*
X102266403Y-81652620D01*
X102266401Y-81652627D01*
X102260000Y-81712155D01*
X102260000Y-82560000D01*
X103143044Y-82560000D01*
X103210083Y-82579685D01*
X103255838Y-82632489D01*
X103266755Y-82692463D01*
X103266441Y-82697045D01*
X103266441Y-82697047D01*
X103256123Y-82847886D01*
X103269191Y-82910772D01*
X103263557Y-82980414D01*
X103221166Y-83035955D01*
X103155477Y-83059761D01*
X103147784Y-83060000D01*
X102260000Y-83060000D01*
X102260000Y-83907844D01*
X102266401Y-83967372D01*
X102266403Y-83967379D01*
X102316645Y-84102086D01*
X102316649Y-84102093D01*
X102402809Y-84217187D01*
X102402812Y-84217190D01*
X102517906Y-84303350D01*
X102517913Y-84303354D01*
X102652620Y-84353596D01*
X102652627Y-84353598D01*
X102712155Y-84359999D01*
X102712172Y-84360000D01*
X103559999Y-84360000D01*
X103559999Y-83474652D01*
X103579683Y-83407613D01*
X103632487Y-83361858D01*
X103701646Y-83351914D01*
X103717453Y-83355250D01*
X103734404Y-83360000D01*
X103734406Y-83360000D01*
X103847622Y-83360000D01*
X103919116Y-83350173D01*
X103988210Y-83360545D01*
X104040729Y-83406627D01*
X104060000Y-83473018D01*
X104059999Y-84359999D01*
X104060000Y-84360000D01*
X104907828Y-84360000D01*
X104907844Y-84359999D01*
X104967372Y-84353598D01*
X104967379Y-84353596D01*
X105102086Y-84303354D01*
X105102093Y-84303350D01*
X105217187Y-84217190D01*
X105217190Y-84217187D01*
X105303350Y-84102093D01*
X105303354Y-84102086D01*
X105353596Y-83967379D01*
X105353598Y-83967372D01*
X105359999Y-83907844D01*
X105360000Y-83907827D01*
X105360000Y-83060000D01*
X104476956Y-83060000D01*
X104409917Y-83040315D01*
X104364162Y-82987511D01*
X104353245Y-82927537D01*
X104354392Y-82910772D01*
X104363877Y-82772114D01*
X104350809Y-82709227D01*
X104356443Y-82639586D01*
X104398834Y-82584045D01*
X104464523Y-82560239D01*
X104472216Y-82560000D01*
X105360000Y-82560000D01*
X105360000Y-81800000D01*
X107598013Y-81800000D01*
X107617975Y-81989928D01*
X107617976Y-81989931D01*
X107676987Y-82171549D01*
X107676990Y-82171556D01*
X107772477Y-82336944D01*
X107900264Y-82478866D01*
X108054765Y-82591118D01*
X108229229Y-82668794D01*
X108416030Y-82708500D01*
X108607004Y-82708500D01*
X108793805Y-82668794D01*
X108968269Y-82591118D01*
X109122770Y-82478866D01*
X109250557Y-82336944D01*
X109346044Y-82171556D01*
X109405059Y-81989928D01*
X109425021Y-81800000D01*
X109405059Y-81610072D01*
X109346044Y-81428444D01*
X109250557Y-81263056D01*
X109122770Y-81121134D01*
X108968269Y-81008882D01*
X108793805Y-80931206D01*
X108793803Y-80931205D01*
X108607004Y-80891500D01*
X108416030Y-80891500D01*
X108229231Y-80931205D01*
X108054763Y-81008883D01*
X107900262Y-81121135D01*
X107772476Y-81263057D01*
X107676990Y-81428443D01*
X107676987Y-81428450D01*
X107642448Y-81534752D01*
X107617975Y-81610072D01*
X107598013Y-81800000D01*
X105360000Y-81800000D01*
X105360000Y-81712172D01*
X105359999Y-81712155D01*
X105353598Y-81652627D01*
X105353596Y-81652620D01*
X105303354Y-81517913D01*
X105303350Y-81517906D01*
X105217190Y-81402812D01*
X105217187Y-81402809D01*
X105120137Y-81330157D01*
X105078266Y-81274223D01*
X105073282Y-81204532D01*
X105088720Y-81166102D01*
X105202927Y-80979732D01*
X105296805Y-80753092D01*
X105354072Y-80514557D01*
X105373319Y-80270000D01*
X105354072Y-80025443D01*
X105296805Y-79786908D01*
X105240124Y-79650068D01*
X105202928Y-79560269D01*
X105074753Y-79351106D01*
X105074752Y-79351104D01*
X104915433Y-79164567D01*
X104728896Y-79005248D01*
X104728893Y-79005246D01*
X104519730Y-78877071D01*
X104293087Y-78783193D01*
X104054553Y-78725927D01*
X104054554Y-78725927D01*
X103810000Y-78706681D01*
X103565445Y-78725927D01*
X103326912Y-78783193D01*
X103100269Y-78877071D01*
X102891106Y-79005246D01*
X102704567Y-79164567D01*
X102545246Y-79351106D01*
X102417071Y-79560269D01*
X102323193Y-79786912D01*
X102265927Y-80025445D01*
X102246681Y-80270000D01*
X99690500Y-80270000D01*
X99690500Y-76974500D01*
X99710185Y-76907461D01*
X99762989Y-76861706D01*
X99814500Y-76850500D01*
X114296000Y-76850500D01*
X114363039Y-76870185D01*
G37*
%TD.AperFunction*%
%TD*%
%TA.AperFunction,Conductor*%
%TO.N,Net-(U1-VCC)*%
G36*
X141296358Y-76864852D02*
G01*
X141310708Y-76899061D01*
X141472053Y-94920061D01*
X141458012Y-94954837D01*
X141423494Y-94969498D01*
X141423055Y-94969500D01*
X141150672Y-94969500D01*
X141121575Y-94959925D01*
X141012885Y-94879708D01*
X141012876Y-94879704D01*
X140884698Y-94834853D01*
X140854275Y-94832000D01*
X140854266Y-94832000D01*
X139845734Y-94832000D01*
X139845724Y-94832000D01*
X139815301Y-94834853D01*
X139815300Y-94834853D01*
X139687123Y-94879704D01*
X139687114Y-94879708D01*
X139577849Y-94960349D01*
X139497208Y-95069614D01*
X139497204Y-95069623D01*
X139452353Y-95197800D01*
X139452353Y-95197801D01*
X139449500Y-95228224D01*
X139449500Y-95861775D01*
X139452353Y-95892198D01*
X139452353Y-95892199D01*
X139497204Y-96020376D01*
X139497208Y-96020385D01*
X139577849Y-96129650D01*
X139687114Y-96210291D01*
X139687117Y-96210292D01*
X139687118Y-96210293D01*
X139687120Y-96210293D01*
X139687123Y-96210295D01*
X139815301Y-96255146D01*
X139845734Y-96258000D01*
X139845744Y-96258000D01*
X140854256Y-96258000D01*
X140854266Y-96258000D01*
X140884699Y-96255146D01*
X141012882Y-96210293D01*
X141012885Y-96210291D01*
X141121575Y-96130075D01*
X141150672Y-96120500D01*
X141434238Y-96120500D01*
X141468886Y-96134852D01*
X141483235Y-96169059D01*
X141485050Y-96371717D01*
X141492881Y-97246472D01*
X141478840Y-97281248D01*
X141444322Y-97295909D01*
X141409546Y-97281868D01*
X141403144Y-97274137D01*
X141372504Y-97228282D01*
X141366181Y-97218818D01*
X141304695Y-97177735D01*
X141289937Y-97167874D01*
X141289936Y-97167873D01*
X141289935Y-97167873D01*
X141222704Y-97154500D01*
X139237301Y-97154500D01*
X139170062Y-97167874D01*
X139093818Y-97218818D01*
X139042873Y-97295064D01*
X139029500Y-97362293D01*
X139029500Y-97947698D01*
X139042874Y-98014937D01*
X139093818Y-98091181D01*
X139131940Y-98116653D01*
X139170063Y-98142126D01*
X139237297Y-98155500D01*
X141222702Y-98155499D01*
X141289937Y-98142126D01*
X141366181Y-98091181D01*
X141410353Y-98025073D01*
X141441534Y-98004239D01*
X141478317Y-98011555D01*
X141499152Y-98042737D01*
X141500092Y-98051858D01*
X141502314Y-98300061D01*
X141488273Y-98334837D01*
X141453755Y-98349498D01*
X141453316Y-98349500D01*
X140192280Y-98349500D01*
X140157105Y-98354130D01*
X140079765Y-98364312D01*
X139943466Y-98420770D01*
X139924714Y-98424500D01*
X139237301Y-98424500D01*
X139170062Y-98437874D01*
X139093818Y-98488818D01*
X139042873Y-98565064D01*
X139029500Y-98632293D01*
X139029500Y-99217698D01*
X139042874Y-99284937D01*
X139093818Y-99361181D01*
X139121983Y-99380000D01*
X139170063Y-99412126D01*
X139237297Y-99425500D01*
X139924712Y-99425499D01*
X139943462Y-99429228D01*
X140079764Y-99485687D01*
X140192280Y-99500500D01*
X141464499Y-99500500D01*
X141499147Y-99514852D01*
X141513497Y-99549061D01*
X141513685Y-99570061D01*
X141499644Y-99604837D01*
X141465126Y-99619498D01*
X141464687Y-99619500D01*
X140192280Y-99619500D01*
X140157105Y-99624130D01*
X140079765Y-99634312D01*
X139943466Y-99690770D01*
X139924714Y-99694500D01*
X139237301Y-99694500D01*
X139170062Y-99707874D01*
X139093818Y-99758818D01*
X139042873Y-99835064D01*
X139029500Y-99902293D01*
X139029500Y-100487698D01*
X139042874Y-100554937D01*
X139093818Y-100631181D01*
X139131940Y-100656653D01*
X139170063Y-100682126D01*
X139237297Y-100695500D01*
X139924712Y-100695499D01*
X139943462Y-100699228D01*
X140079764Y-100755687D01*
X140192280Y-100770500D01*
X141475870Y-100770500D01*
X141510518Y-100784852D01*
X141524868Y-100819061D01*
X141525056Y-100840061D01*
X141511015Y-100874837D01*
X141476497Y-100889498D01*
X141476058Y-100889500D01*
X140192280Y-100889500D01*
X140157105Y-100894130D01*
X140079765Y-100904312D01*
X139943466Y-100960770D01*
X139924714Y-100964500D01*
X139237301Y-100964500D01*
X139170062Y-100977874D01*
X139093818Y-101028818D01*
X139042873Y-101105064D01*
X139029500Y-101172293D01*
X139029500Y-101757698D01*
X139042874Y-101824937D01*
X139093818Y-101901181D01*
X139131940Y-101926653D01*
X139170063Y-101952126D01*
X139237297Y-101965500D01*
X139924712Y-101965499D01*
X139943462Y-101969228D01*
X140079764Y-102025687D01*
X140192280Y-102040500D01*
X141487240Y-102040500D01*
X141521888Y-102054852D01*
X141536238Y-102089061D01*
X141536426Y-102110061D01*
X141522385Y-102144837D01*
X141487867Y-102159498D01*
X141487428Y-102159500D01*
X140192280Y-102159500D01*
X140157105Y-102164130D01*
X140079765Y-102174312D01*
X140004559Y-102205464D01*
X139949475Y-102228281D01*
X139943466Y-102230770D01*
X139924714Y-102234500D01*
X139237301Y-102234500D01*
X139170062Y-102247874D01*
X139093818Y-102298818D01*
X139042873Y-102375064D01*
X139029500Y-102442293D01*
X139029500Y-103027698D01*
X139042874Y-103094937D01*
X139093818Y-103171181D01*
X139131940Y-103196653D01*
X139170063Y-103222126D01*
X139237297Y-103235500D01*
X139924712Y-103235499D01*
X139943462Y-103239228D01*
X140079764Y-103295687D01*
X140192280Y-103310500D01*
X141383419Y-103310500D01*
X141418067Y-103324852D01*
X141432419Y-103359500D01*
X141420450Y-103391587D01*
X141409944Y-103403712D01*
X141397705Y-103417836D01*
X141397703Y-103417840D01*
X141361422Y-103497281D01*
X141333973Y-103522836D01*
X141296494Y-103521497D01*
X141290172Y-103517971D01*
X141289936Y-103517873D01*
X141222706Y-103504500D01*
X141222703Y-103504500D01*
X140535287Y-103504500D01*
X140516536Y-103500770D01*
X140380235Y-103444312D01*
X140302894Y-103434130D01*
X140267720Y-103429500D01*
X140267717Y-103429500D01*
X138054329Y-103429500D01*
X138051128Y-103429290D01*
X138015000Y-103424534D01*
X137977280Y-103429500D01*
X137864764Y-103444312D01*
X137806776Y-103468332D01*
X137724772Y-103502298D01*
X137724767Y-103502301D01*
X137704346Y-103517971D01*
X137634935Y-103571231D01*
X137634920Y-103571243D01*
X137604548Y-103594549D01*
X137582365Y-103623457D01*
X137580250Y-103625868D01*
X137445972Y-103760148D01*
X137411324Y-103774500D01*
X136589269Y-103774500D01*
X136554621Y-103760148D01*
X136541542Y-103732498D01*
X136540969Y-103732613D01*
X136540513Y-103730322D01*
X136540505Y-103730305D01*
X136540500Y-103730255D01*
X136540500Y-103730254D01*
X136540500Y-103730252D01*
X136528867Y-103671769D01*
X136502301Y-103632012D01*
X136484552Y-103605447D01*
X136433334Y-103571225D01*
X136418231Y-103561133D01*
X136359748Y-103549500D01*
X135120252Y-103549500D01*
X135061768Y-103561132D01*
X135061769Y-103561133D01*
X134995447Y-103605447D01*
X134951133Y-103671768D01*
X134951133Y-103671769D01*
X134939500Y-103730252D01*
X134939500Y-104969748D01*
X134951133Y-105028231D01*
X134968882Y-105054795D01*
X134995447Y-105094552D01*
X135022012Y-105112301D01*
X135061769Y-105138867D01*
X135120252Y-105150500D01*
X135120255Y-105150500D01*
X136359745Y-105150500D01*
X136359748Y-105150500D01*
X136418231Y-105138867D01*
X136438984Y-105125000D01*
X139130000Y-105125000D01*
X140080000Y-105125000D01*
X140080000Y-104875000D01*
X139247192Y-104875000D01*
X139209276Y-104882542D01*
X139166274Y-104911274D01*
X139137542Y-104954276D01*
X139130000Y-104992192D01*
X139130000Y-105125000D01*
X136438984Y-105125000D01*
X136484552Y-105094552D01*
X136528867Y-105028231D01*
X136540500Y-104969748D01*
X136540500Y-104969744D01*
X136540505Y-104969695D01*
X136540512Y-104969680D01*
X136540969Y-104967387D01*
X136541664Y-104967525D01*
X136558185Y-104936621D01*
X136589269Y-104925500D01*
X137630677Y-104925500D01*
X137633878Y-104925710D01*
X137645562Y-104927247D01*
X137670000Y-104930465D01*
X137707714Y-104925500D01*
X137707720Y-104925500D01*
X137820236Y-104910687D01*
X137960233Y-104852698D01*
X137960232Y-104852698D01*
X137960233Y-104852697D01*
X137973188Y-104847331D01*
X137973493Y-104845801D01*
X137984407Y-104834148D01*
X137987283Y-104831941D01*
X138050268Y-104783612D01*
X138050270Y-104783609D01*
X138080451Y-104760451D01*
X138102639Y-104731534D01*
X138104741Y-104729137D01*
X138239027Y-104594852D01*
X138273676Y-104580500D01*
X140267716Y-104580500D01*
X140267720Y-104580500D01*
X140380236Y-104565687D01*
X140516538Y-104509228D01*
X140535287Y-104505499D01*
X141222701Y-104505499D01*
X141222702Y-104505499D01*
X141237940Y-104502468D01*
X141274723Y-104509784D01*
X141295558Y-104540966D01*
X141296500Y-104550526D01*
X141296500Y-104831941D01*
X141282148Y-104866589D01*
X141247500Y-104880941D01*
X141237941Y-104880000D01*
X141212802Y-104875000D01*
X140380000Y-104875000D01*
X140380000Y-105675000D01*
X141212804Y-105675000D01*
X141212807Y-105674999D01*
X141237940Y-105670000D01*
X141274722Y-105677316D01*
X141295558Y-105708498D01*
X141296500Y-105718058D01*
X141296500Y-105732500D01*
X141282148Y-105767148D01*
X141247500Y-105781500D01*
X140103994Y-105781500D01*
X139994856Y-105793234D01*
X139994833Y-105793237D01*
X139943338Y-105804440D01*
X139943318Y-105804446D01*
X139839175Y-105839109D01*
X139839174Y-105839109D01*
X139828534Y-105845946D01*
X139818770Y-105852222D01*
X139792280Y-105860000D01*
X138469291Y-105860000D01*
X138469291Y-109030000D01*
X139046602Y-109030000D01*
X139053573Y-109030498D01*
X139144000Y-109043500D01*
X144410291Y-109043500D01*
X144444939Y-109057852D01*
X144459291Y-109092500D01*
X144459291Y-116100500D01*
X144444939Y-116135148D01*
X144410291Y-116149500D01*
X115098672Y-116149500D01*
X115064024Y-116135148D01*
X115049672Y-116100525D01*
X115047485Y-111800000D01*
X117905835Y-111800000D01*
X117926472Y-111956761D01*
X117986978Y-112102836D01*
X117986981Y-112102841D01*
X118083235Y-112228282D01*
X118208676Y-112324536D01*
X118208678Y-112324536D01*
X118208680Y-112324538D01*
X118307465Y-112365456D01*
X118354755Y-112385044D01*
X118511517Y-112405682D01*
X118668279Y-112385044D01*
X118814358Y-112324536D01*
X118939799Y-112228282D01*
X119036053Y-112102841D01*
X119096561Y-111956762D01*
X119117199Y-111800000D01*
X122905835Y-111800000D01*
X122926472Y-111956761D01*
X122986978Y-112102836D01*
X122986981Y-112102841D01*
X123083235Y-112228282D01*
X123208676Y-112324536D01*
X123208678Y-112324536D01*
X123208680Y-112324538D01*
X123307465Y-112365456D01*
X123354755Y-112385044D01*
X123511517Y-112405682D01*
X123668279Y-112385044D01*
X123814358Y-112324536D01*
X123939799Y-112228282D01*
X124036053Y-112102841D01*
X124096561Y-111956762D01*
X124117199Y-111800000D01*
X124109300Y-111739999D01*
X126590052Y-111739999D01*
X126609812Y-111991072D01*
X126668603Y-112235954D01*
X126764982Y-112468634D01*
X126764984Y-112468637D01*
X126896563Y-112683356D01*
X126896571Y-112683366D01*
X126962410Y-112760456D01*
X126962411Y-112760456D01*
X127355823Y-112367043D01*
X127390471Y-112352691D01*
X127425119Y-112367043D01*
X127425969Y-112367914D01*
X127546815Y-112495044D01*
X127546815Y-112495045D01*
X127546816Y-112495046D01*
X127560818Y-112504792D01*
X127581057Y-112536365D01*
X127573042Y-112573002D01*
X127567473Y-112579657D01*
X127174542Y-112972587D01*
X127251634Y-113038429D01*
X127251640Y-113038433D01*
X127466362Y-113170015D01*
X127466365Y-113170017D01*
X127699045Y-113266396D01*
X127943927Y-113325187D01*
X128195000Y-113344947D01*
X128446072Y-113325187D01*
X128690954Y-113266396D01*
X128923634Y-113170017D01*
X128923637Y-113170015D01*
X129138359Y-113038433D01*
X129138365Y-113038429D01*
X129215456Y-112972587D01*
X128820306Y-112577438D01*
X128805954Y-112542790D01*
X128820306Y-112508142D01*
X128823005Y-112505639D01*
X128916246Y-112425595D01*
X128959194Y-112370110D01*
X128991748Y-112351497D01*
X129027932Y-112361355D01*
X129032588Y-112365456D01*
X129427587Y-112760456D01*
X129493429Y-112683365D01*
X129493433Y-112683359D01*
X129625015Y-112468637D01*
X129625017Y-112468634D01*
X129721396Y-112235954D01*
X129780187Y-111991072D01*
X129799947Y-111740000D01*
X134210052Y-111740000D01*
X134229812Y-111991072D01*
X134288603Y-112235954D01*
X134384982Y-112468634D01*
X134384984Y-112468637D01*
X134516563Y-112683356D01*
X134516571Y-112683366D01*
X134582410Y-112760456D01*
X134582411Y-112760456D01*
X134975823Y-112367043D01*
X135010471Y-112352691D01*
X135045119Y-112367043D01*
X135045969Y-112367914D01*
X135166815Y-112495045D01*
X135166816Y-112495046D01*
X135180818Y-112504792D01*
X135201057Y-112536365D01*
X135193042Y-112573002D01*
X135187473Y-112579657D01*
X134794542Y-112972587D01*
X134871634Y-113038429D01*
X134871640Y-113038433D01*
X135086362Y-113170015D01*
X135086365Y-113170017D01*
X135319045Y-113266396D01*
X135563927Y-113325187D01*
X135814999Y-113344947D01*
X136066072Y-113325187D01*
X136310954Y-113266396D01*
X136543634Y-113170017D01*
X136543637Y-113170015D01*
X136758359Y-113038433D01*
X136758365Y-113038429D01*
X136835456Y-112972587D01*
X136440306Y-112577438D01*
X136425954Y-112542790D01*
X136440306Y-112508142D01*
X136443005Y-112505639D01*
X136536246Y-112425595D01*
X136579194Y-112370110D01*
X136611748Y-112351497D01*
X136647932Y-112361355D01*
X136652588Y-112365456D01*
X137047587Y-112760456D01*
X137113429Y-112683365D01*
X137113433Y-112683359D01*
X137245015Y-112468637D01*
X137245017Y-112468634D01*
X137341396Y-112235954D01*
X137400187Y-111991072D01*
X137415225Y-111800000D01*
X137905835Y-111800000D01*
X137926472Y-111956761D01*
X137986978Y-112102836D01*
X137986981Y-112102841D01*
X138083235Y-112228282D01*
X138208676Y-112324536D01*
X138208678Y-112324536D01*
X138208680Y-112324538D01*
X138307465Y-112365456D01*
X138354755Y-112385044D01*
X138511517Y-112405682D01*
X138668279Y-112385044D01*
X138814358Y-112324536D01*
X138939799Y-112228282D01*
X139036053Y-112102841D01*
X139096561Y-111956762D01*
X139113249Y-111830000D01*
X140815001Y-111830000D01*
X140815001Y-113138221D01*
X140824911Y-113206248D01*
X140824911Y-113206249D01*
X140876212Y-113311186D01*
X140876215Y-113311190D01*
X140958809Y-113393784D01*
X140958813Y-113393786D01*
X141063751Y-113445087D01*
X141131779Y-113454999D01*
X141377499Y-113454999D01*
X141377500Y-113454998D01*
X141377500Y-111830000D01*
X141677500Y-111830000D01*
X141677500Y-113454999D01*
X141923221Y-113454999D01*
X141991248Y-113445088D01*
X141991249Y-113445088D01*
X142096186Y-113393787D01*
X142096190Y-113393784D01*
X142178784Y-113311190D01*
X142178786Y-113311186D01*
X142230087Y-113206249D01*
X142230087Y-113206248D01*
X142240000Y-113138220D01*
X142240000Y-111830000D01*
X141677500Y-111830000D01*
X141377500Y-111830000D01*
X140815001Y-111830000D01*
X139113249Y-111830000D01*
X139117199Y-111800000D01*
X142905835Y-111800000D01*
X142926472Y-111956761D01*
X142986978Y-112102836D01*
X142986981Y-112102841D01*
X143083235Y-112228282D01*
X143208676Y-112324536D01*
X143208678Y-112324536D01*
X143208680Y-112324538D01*
X143307465Y-112365456D01*
X143354755Y-112385044D01*
X143511517Y-112405682D01*
X143668279Y-112385044D01*
X143814358Y-112324536D01*
X143939799Y-112228282D01*
X144036053Y-112102841D01*
X144096561Y-111956762D01*
X144117199Y-111800000D01*
X144096561Y-111643238D01*
X144036055Y-111497163D01*
X144036052Y-111497158D01*
X143939799Y-111371718D01*
X143939798Y-111371717D01*
X143814358Y-111275464D01*
X143814353Y-111275461D01*
X143668278Y-111214955D01*
X143511517Y-111194318D01*
X143354755Y-111214955D01*
X143208680Y-111275461D01*
X143208675Y-111275464D01*
X143083235Y-111371717D01*
X143083234Y-111371718D01*
X142986981Y-111497158D01*
X142986978Y-111497163D01*
X142926472Y-111643238D01*
X142905835Y-111800000D01*
X139117199Y-111800000D01*
X139096561Y-111643238D01*
X139096561Y-111643237D01*
X139049657Y-111530000D01*
X140815000Y-111530000D01*
X141377500Y-111530000D01*
X141377500Y-109905000D01*
X141677500Y-109905000D01*
X141677500Y-111530000D01*
X142239999Y-111530000D01*
X142239999Y-110221778D01*
X142230088Y-110153751D01*
X142230088Y-110153750D01*
X142178787Y-110048813D01*
X142178784Y-110048809D01*
X142096190Y-109966215D01*
X142096186Y-109966213D01*
X141991248Y-109914912D01*
X141923221Y-109905000D01*
X141677500Y-109905000D01*
X141377500Y-109905000D01*
X141131778Y-109905000D01*
X141063751Y-109914911D01*
X141063750Y-109914911D01*
X140958813Y-109966212D01*
X140958809Y-109966215D01*
X140876215Y-110048809D01*
X140876213Y-110048813D01*
X140824912Y-110153750D01*
X140824912Y-110153751D01*
X140815000Y-110221779D01*
X140815000Y-111530000D01*
X139049657Y-111530000D01*
X139036055Y-111497163D01*
X139036052Y-111497158D01*
X138939799Y-111371718D01*
X138939798Y-111371717D01*
X138814358Y-111275464D01*
X138814353Y-111275461D01*
X138668278Y-111214955D01*
X138511517Y-111194318D01*
X138354755Y-111214955D01*
X138208680Y-111275461D01*
X138208675Y-111275464D01*
X138083235Y-111371717D01*
X138083234Y-111371718D01*
X137986981Y-111497158D01*
X137986978Y-111497163D01*
X137926472Y-111643238D01*
X137905835Y-111800000D01*
X137415225Y-111800000D01*
X137419947Y-111739999D01*
X137400187Y-111488927D01*
X137341396Y-111244045D01*
X137245017Y-111011365D01*
X137245015Y-111011362D01*
X137113433Y-110796640D01*
X137113429Y-110796634D01*
X137047587Y-110719542D01*
X136654175Y-111112955D01*
X136619527Y-111127307D01*
X136584879Y-111112955D01*
X136584032Y-111112087D01*
X136463185Y-110984955D01*
X136463184Y-110984954D01*
X136463181Y-110984951D01*
X136449179Y-110975205D01*
X136428941Y-110943631D01*
X136436957Y-110906995D01*
X136442525Y-110900341D01*
X136835456Y-110507411D01*
X136835456Y-110507410D01*
X136758366Y-110441571D01*
X136758356Y-110441563D01*
X136543637Y-110309984D01*
X136543634Y-110309982D01*
X136310954Y-110213603D01*
X136066072Y-110154812D01*
X135814999Y-110135052D01*
X135563927Y-110154812D01*
X135319045Y-110213603D01*
X135086365Y-110309982D01*
X135086362Y-110309984D01*
X134871640Y-110441565D01*
X134871634Y-110441569D01*
X134794542Y-110507410D01*
X134794542Y-110507411D01*
X135189692Y-110902561D01*
X135204044Y-110937209D01*
X135189692Y-110971857D01*
X135186961Y-110974388D01*
X135093758Y-111054400D01*
X135093753Y-111054405D01*
X135050805Y-111109888D01*
X135018248Y-111128501D01*
X134982064Y-111118641D01*
X134977410Y-111114542D01*
X134582411Y-110719542D01*
X134582410Y-110719542D01*
X134516569Y-110796634D01*
X134516565Y-110796640D01*
X134384984Y-111011362D01*
X134384982Y-111011365D01*
X134288603Y-111244045D01*
X134229812Y-111488927D01*
X134210052Y-111740000D01*
X129799947Y-111740000D01*
X129780187Y-111488927D01*
X129721396Y-111244045D01*
X129625017Y-111011365D01*
X129625015Y-111011362D01*
X129493433Y-110796640D01*
X129493429Y-110796634D01*
X129427587Y-110719542D01*
X129034175Y-111112955D01*
X128999527Y-111127307D01*
X128964879Y-111112955D01*
X128964032Y-111112087D01*
X128843185Y-110984955D01*
X128843184Y-110984954D01*
X128843181Y-110984951D01*
X128829179Y-110975205D01*
X128808941Y-110943631D01*
X128816957Y-110906995D01*
X128822525Y-110900341D01*
X129215456Y-110507411D01*
X129215456Y-110507410D01*
X129138366Y-110441571D01*
X129138356Y-110441563D01*
X128923637Y-110309984D01*
X128923634Y-110309982D01*
X128690954Y-110213603D01*
X128446072Y-110154812D01*
X128195000Y-110135052D01*
X127943927Y-110154812D01*
X127699045Y-110213603D01*
X127466365Y-110309982D01*
X127466362Y-110309984D01*
X127251640Y-110441565D01*
X127251634Y-110441569D01*
X127174542Y-110507410D01*
X127174542Y-110507411D01*
X127569692Y-110902561D01*
X127584044Y-110937209D01*
X127569692Y-110971857D01*
X127566961Y-110974388D01*
X127473758Y-111054400D01*
X127473753Y-111054405D01*
X127430805Y-111109888D01*
X127398248Y-111128501D01*
X127362064Y-111118641D01*
X127357410Y-111114542D01*
X126962411Y-110719542D01*
X126962410Y-110719542D01*
X126896569Y-110796634D01*
X126896565Y-110796640D01*
X126764984Y-111011362D01*
X126764982Y-111011365D01*
X126668603Y-111244045D01*
X126609812Y-111488927D01*
X126590052Y-111739999D01*
X124109300Y-111739999D01*
X124096561Y-111643238D01*
X124036055Y-111497163D01*
X124036052Y-111497158D01*
X123939799Y-111371718D01*
X123939798Y-111371717D01*
X123814358Y-111275464D01*
X123814353Y-111275461D01*
X123668278Y-111214955D01*
X123511517Y-111194318D01*
X123354755Y-111214955D01*
X123208680Y-111275461D01*
X123208675Y-111275464D01*
X123083235Y-111371717D01*
X123083234Y-111371718D01*
X122986981Y-111497158D01*
X122986978Y-111497163D01*
X122926472Y-111643238D01*
X122905835Y-111800000D01*
X119117199Y-111800000D01*
X119096561Y-111643238D01*
X119096561Y-111643237D01*
X119036055Y-111497163D01*
X119036052Y-111497158D01*
X118939799Y-111371718D01*
X118939798Y-111371717D01*
X118814358Y-111275464D01*
X118814353Y-111275461D01*
X118668278Y-111214955D01*
X118511517Y-111194318D01*
X118354755Y-111214955D01*
X118208680Y-111275461D01*
X118208675Y-111275464D01*
X118083235Y-111371717D01*
X118083234Y-111371718D01*
X117986981Y-111497158D01*
X117986978Y-111497163D01*
X117926472Y-111643238D01*
X117905835Y-111800000D01*
X115047485Y-111800000D01*
X115044942Y-106800000D01*
X117905835Y-106800000D01*
X117926472Y-106956761D01*
X117986978Y-107102836D01*
X117986981Y-107102841D01*
X118027331Y-107155427D01*
X118083235Y-107228282D01*
X118208676Y-107324536D01*
X118208678Y-107324536D01*
X118208680Y-107324538D01*
X118354755Y-107385043D01*
X118354755Y-107385044D01*
X118511517Y-107405682D01*
X118668279Y-107385044D01*
X118814358Y-107324536D01*
X118939799Y-107228282D01*
X119036053Y-107102841D01*
X119096561Y-106956762D01*
X119117199Y-106800000D01*
X122905835Y-106800000D01*
X122926472Y-106956761D01*
X122986978Y-107102836D01*
X122986981Y-107102841D01*
X123027331Y-107155427D01*
X123083235Y-107228282D01*
X123208676Y-107324536D01*
X123208678Y-107324536D01*
X123208680Y-107324538D01*
X123354754Y-107385043D01*
X123354755Y-107385044D01*
X123511517Y-107405682D01*
X123668279Y-107385044D01*
X123814358Y-107324536D01*
X123939799Y-107228282D01*
X124036053Y-107102841D01*
X124096561Y-106956762D01*
X124117199Y-106800000D01*
X127905835Y-106800000D01*
X127926472Y-106956761D01*
X127986978Y-107102836D01*
X127986981Y-107102841D01*
X128027331Y-107155427D01*
X128083235Y-107228282D01*
X128208676Y-107324536D01*
X128208678Y-107324536D01*
X128208680Y-107324538D01*
X128354755Y-107385043D01*
X128354755Y-107385044D01*
X128511517Y-107405682D01*
X128668279Y-107385044D01*
X128814358Y-107324536D01*
X128939799Y-107228282D01*
X129036053Y-107102841D01*
X129096561Y-106956762D01*
X129117199Y-106800000D01*
X132905835Y-106800000D01*
X132926472Y-106956761D01*
X132986978Y-107102836D01*
X132986981Y-107102841D01*
X133027331Y-107155427D01*
X133083235Y-107228282D01*
X133208676Y-107324536D01*
X133208678Y-107324536D01*
X133208680Y-107324538D01*
X133354755Y-107385043D01*
X133354755Y-107385044D01*
X133511517Y-107405682D01*
X133668279Y-107385044D01*
X133814358Y-107324536D01*
X133939799Y-107228282D01*
X134036053Y-107102841D01*
X134096561Y-106956762D01*
X134117199Y-106800000D01*
X134096561Y-106643238D01*
X134036053Y-106497159D01*
X133939799Y-106371718D01*
X133814358Y-106275464D01*
X133814353Y-106275461D01*
X133668278Y-106214955D01*
X133511517Y-106194318D01*
X133354755Y-106214955D01*
X133208680Y-106275461D01*
X133208675Y-106275464D01*
X133083235Y-106371717D01*
X133083234Y-106371718D01*
X132986981Y-106497158D01*
X132986978Y-106497163D01*
X132926472Y-106643238D01*
X132905835Y-106800000D01*
X129117199Y-106800000D01*
X129096561Y-106643238D01*
X129036053Y-106497159D01*
X128939799Y-106371718D01*
X128814358Y-106275464D01*
X128814353Y-106275461D01*
X128668278Y-106214955D01*
X128511517Y-106194318D01*
X128354755Y-106214955D01*
X128208680Y-106275461D01*
X128208675Y-106275464D01*
X128083235Y-106371717D01*
X128083234Y-106371718D01*
X127986981Y-106497158D01*
X127986978Y-106497163D01*
X127926472Y-106643238D01*
X127905835Y-106800000D01*
X124117199Y-106800000D01*
X124096561Y-106643238D01*
X124036053Y-106497159D01*
X123939799Y-106371718D01*
X123814358Y-106275464D01*
X123814353Y-106275461D01*
X123668278Y-106214955D01*
X123511517Y-106194318D01*
X123354755Y-106214955D01*
X123208680Y-106275461D01*
X123208675Y-106275464D01*
X123083235Y-106371717D01*
X123083234Y-106371718D01*
X122986981Y-106497158D01*
X122986978Y-106497163D01*
X122926472Y-106643238D01*
X122905835Y-106800000D01*
X119117199Y-106800000D01*
X119096561Y-106643238D01*
X119036053Y-106497159D01*
X118939799Y-106371718D01*
X118814358Y-106275464D01*
X118814353Y-106275461D01*
X118668278Y-106214955D01*
X118511517Y-106194318D01*
X118354755Y-106214955D01*
X118208680Y-106275461D01*
X118208675Y-106275464D01*
X118083235Y-106371717D01*
X118083234Y-106371718D01*
X117986981Y-106497158D01*
X117986978Y-106497163D01*
X117926472Y-106643238D01*
X117905835Y-106800000D01*
X115044942Y-106800000D01*
X115044788Y-106497158D01*
X115044243Y-105425000D01*
X139130000Y-105425000D01*
X139130000Y-105557807D01*
X139137542Y-105595723D01*
X139166274Y-105638725D01*
X139209276Y-105667457D01*
X139247192Y-105674999D01*
X139247196Y-105675000D01*
X140080000Y-105675000D01*
X140080000Y-105425000D01*
X139130000Y-105425000D01*
X115044243Y-105425000D01*
X115042399Y-101800000D01*
X117905835Y-101800000D01*
X117926472Y-101956761D01*
X117986978Y-102102836D01*
X117986981Y-102102841D01*
X118019205Y-102144837D01*
X118083235Y-102228282D01*
X118208676Y-102324536D01*
X118208678Y-102324536D01*
X118208680Y-102324538D01*
X118270149Y-102349999D01*
X118354755Y-102385044D01*
X118511517Y-102405682D01*
X118668279Y-102385044D01*
X118814358Y-102324536D01*
X118939799Y-102228282D01*
X119036053Y-102102841D01*
X119096561Y-101956762D01*
X119117199Y-101800000D01*
X119096561Y-101643238D01*
X119064001Y-101564631D01*
X119036055Y-101497163D01*
X119036052Y-101497158D01*
X118939799Y-101371718D01*
X118939798Y-101371717D01*
X118814358Y-101275464D01*
X118814353Y-101275461D01*
X118668278Y-101214955D01*
X118532154Y-101197034D01*
X118511517Y-101194318D01*
X118511516Y-101194318D01*
X118354755Y-101214955D01*
X118208680Y-101275461D01*
X118208675Y-101275464D01*
X118083235Y-101371717D01*
X118083234Y-101371718D01*
X117986981Y-101497158D01*
X117986978Y-101497163D01*
X117926472Y-101643238D01*
X117905835Y-101800000D01*
X115042399Y-101800000D01*
X115041753Y-100530000D01*
X122930000Y-100530000D01*
X123588697Y-100530000D01*
X123623345Y-100544352D01*
X123637697Y-100579000D01*
X123637278Y-100585395D01*
X123624823Y-100680000D01*
X123636737Y-100770499D01*
X123637278Y-100774604D01*
X123627571Y-100810829D01*
X123595093Y-100829581D01*
X123588697Y-100830000D01*
X122930001Y-100830000D01*
X122930001Y-101889845D01*
X122935802Y-101919018D01*
X122935804Y-101919022D01*
X122957904Y-101952097D01*
X122990980Y-101974197D01*
X123020154Y-101979999D01*
X124079999Y-101979999D01*
X124079999Y-101321302D01*
X124094351Y-101286654D01*
X124128999Y-101272302D01*
X124135380Y-101272720D01*
X124190677Y-101280000D01*
X124190680Y-101280000D01*
X124269319Y-101280000D01*
X124269323Y-101280000D01*
X124324605Y-101272721D01*
X124360828Y-101282427D01*
X124379580Y-101314905D01*
X124379999Y-101321302D01*
X124379999Y-101979998D01*
X124380001Y-101979999D01*
X125439845Y-101979999D01*
X125439845Y-101979998D01*
X125469018Y-101974197D01*
X125469022Y-101974195D01*
X125502097Y-101952095D01*
X125524197Y-101919019D01*
X125530000Y-101889845D01*
X125530000Y-100830000D01*
X124871303Y-100830000D01*
X124836655Y-100815648D01*
X124822303Y-100781000D01*
X124822722Y-100774604D01*
X124823262Y-100770500D01*
X124835177Y-100680000D01*
X127824700Y-100680000D01*
X127843866Y-100911305D01*
X127900843Y-101136300D01*
X127900844Y-101136304D01*
X127994074Y-101348846D01*
X127994081Y-101348858D01*
X128121017Y-101543148D01*
X128121019Y-101543150D01*
X128121021Y-101543153D01*
X128278216Y-101713913D01*
X128278218Y-101713915D01*
X128286274Y-101720185D01*
X128461374Y-101856470D01*
X128461381Y-101856474D01*
X128461383Y-101856475D01*
X128665489Y-101966932D01*
X128665491Y-101966932D01*
X128665497Y-101966936D01*
X128885019Y-102042298D01*
X129113951Y-102080500D01*
X129113954Y-102080500D01*
X129346046Y-102080500D01*
X129346049Y-102080500D01*
X129574981Y-102042298D01*
X129794503Y-101966936D01*
X129998626Y-101856470D01*
X130071179Y-101800000D01*
X132905835Y-101800000D01*
X132926472Y-101956761D01*
X132986978Y-102102836D01*
X132986981Y-102102841D01*
X133019205Y-102144837D01*
X133083235Y-102228282D01*
X133208676Y-102324536D01*
X133208678Y-102324536D01*
X133208680Y-102324538D01*
X133270149Y-102349999D01*
X133354755Y-102385044D01*
X133511517Y-102405682D01*
X133668279Y-102385044D01*
X133752883Y-102350000D01*
X134934435Y-102350000D01*
X134954631Y-102529249D01*
X134954633Y-102529258D01*
X135014212Y-102699526D01*
X135100783Y-102837301D01*
X135110184Y-102852262D01*
X135237738Y-102979816D01*
X135237740Y-102979817D01*
X135390473Y-103075787D01*
X135390477Y-103075788D01*
X135390478Y-103075789D01*
X135560745Y-103135368D01*
X135740000Y-103155565D01*
X135919255Y-103135368D01*
X136089522Y-103075789D01*
X136089524Y-103075787D01*
X136089526Y-103075787D01*
X136166058Y-103027698D01*
X136242262Y-102979816D01*
X136369816Y-102852262D01*
X136430555Y-102755596D01*
X136465787Y-102699526D01*
X136465787Y-102699524D01*
X136465789Y-102699522D01*
X136525368Y-102529255D01*
X136545565Y-102350000D01*
X136525368Y-102170745D01*
X136465789Y-102000478D01*
X136465788Y-102000477D01*
X136465787Y-102000473D01*
X136369817Y-101847740D01*
X136369816Y-101847738D01*
X136242262Y-101720184D01*
X136232282Y-101713913D01*
X136089526Y-101624212D01*
X135919258Y-101564633D01*
X135919257Y-101564632D01*
X135919255Y-101564632D01*
X135919251Y-101564631D01*
X135919249Y-101564631D01*
X135740000Y-101544435D01*
X135560750Y-101564631D01*
X135560741Y-101564633D01*
X135390473Y-101624212D01*
X135237740Y-101720182D01*
X135237736Y-101720185D01*
X135110185Y-101847736D01*
X135110182Y-101847740D01*
X135014212Y-102000473D01*
X134954633Y-102170741D01*
X134954631Y-102170750D01*
X134934435Y-102350000D01*
X133752883Y-102350000D01*
X133814358Y-102324536D01*
X133939799Y-102228282D01*
X134036053Y-102102841D01*
X134096561Y-101956762D01*
X134117199Y-101800000D01*
X134096561Y-101643238D01*
X134064001Y-101564631D01*
X134036055Y-101497163D01*
X134036052Y-101497158D01*
X133939799Y-101371718D01*
X133939798Y-101371717D01*
X133814358Y-101275464D01*
X133814353Y-101275461D01*
X133668278Y-101214955D01*
X133532154Y-101197034D01*
X133511517Y-101194318D01*
X133511516Y-101194318D01*
X133354755Y-101214955D01*
X133208680Y-101275461D01*
X133208675Y-101275464D01*
X133083235Y-101371717D01*
X133083234Y-101371718D01*
X132986981Y-101497158D01*
X132986978Y-101497163D01*
X132926472Y-101643238D01*
X132905835Y-101800000D01*
X130071179Y-101800000D01*
X130181784Y-101713913D01*
X130338979Y-101543153D01*
X130465924Y-101348849D01*
X130559157Y-101136300D01*
X130616134Y-100911305D01*
X130635300Y-100680000D01*
X130616134Y-100448695D01*
X130559157Y-100223700D01*
X130529417Y-100155901D01*
X130465925Y-100011153D01*
X130465918Y-100011141D01*
X130338982Y-99816851D01*
X130338980Y-99816849D01*
X130338979Y-99816847D01*
X130181784Y-99646087D01*
X130181783Y-99646086D01*
X130181781Y-99646084D01*
X129998630Y-99503533D01*
X129998629Y-99503532D01*
X129998626Y-99503530D01*
X129998621Y-99503527D01*
X129998616Y-99503524D01*
X129794510Y-99393067D01*
X129794504Y-99393064D01*
X129794503Y-99393064D01*
X129694139Y-99358609D01*
X129574982Y-99317702D01*
X129500480Y-99305270D01*
X129346049Y-99279500D01*
X129113951Y-99279500D01*
X128976591Y-99302421D01*
X128885017Y-99317702D01*
X128665499Y-99393063D01*
X128665489Y-99393067D01*
X128461383Y-99503524D01*
X128461369Y-99503533D01*
X128278218Y-99646084D01*
X128121017Y-99816851D01*
X127994081Y-100011141D01*
X127994074Y-100011153D01*
X127900844Y-100223695D01*
X127900843Y-100223699D01*
X127900843Y-100223700D01*
X127872354Y-100336197D01*
X127843866Y-100448694D01*
X127835063Y-100554937D01*
X127824700Y-100680000D01*
X124835177Y-100680000D01*
X124822722Y-100585395D01*
X124832429Y-100549171D01*
X124864907Y-100530419D01*
X124871303Y-100530000D01*
X125529999Y-100530000D01*
X125529999Y-99470155D01*
X125529998Y-99470154D01*
X125524197Y-99440981D01*
X125524195Y-99440977D01*
X125502095Y-99407902D01*
X125469019Y-99385802D01*
X125439846Y-99380000D01*
X124379999Y-99380000D01*
X124379999Y-100038697D01*
X124365647Y-100073345D01*
X124330999Y-100087697D01*
X124324606Y-100087278D01*
X124269323Y-100080000D01*
X124190677Y-100080000D01*
X124168485Y-100082921D01*
X124135394Y-100087278D01*
X124099169Y-100077571D01*
X124080418Y-100045092D01*
X124079999Y-100038697D01*
X124079999Y-99380000D01*
X123020155Y-99380000D01*
X123020154Y-99380001D01*
X122990981Y-99385802D01*
X122990977Y-99385804D01*
X122957902Y-99407904D01*
X122935802Y-99440980D01*
X122930000Y-99470154D01*
X122930000Y-100530000D01*
X115041753Y-100530000D01*
X115039857Y-96800000D01*
X117905835Y-96800000D01*
X117926472Y-96956761D01*
X117986978Y-97102836D01*
X117986981Y-97102841D01*
X118083235Y-97228282D01*
X118208676Y-97324536D01*
X118208678Y-97324536D01*
X118208680Y-97324538D01*
X118299829Y-97362293D01*
X118354755Y-97385044D01*
X118511517Y-97405682D01*
X118668279Y-97385044D01*
X118814358Y-97324536D01*
X118939799Y-97228282D01*
X119036053Y-97102841D01*
X119096561Y-96956762D01*
X119117199Y-96800000D01*
X122905835Y-96800000D01*
X122926472Y-96956761D01*
X122986978Y-97102836D01*
X122986981Y-97102841D01*
X123083235Y-97228282D01*
X123208676Y-97324536D01*
X123208678Y-97324536D01*
X123208680Y-97324538D01*
X123299829Y-97362293D01*
X123354755Y-97385044D01*
X123511517Y-97405682D01*
X123668279Y-97385044D01*
X123814358Y-97324536D01*
X123939799Y-97228282D01*
X124036053Y-97102841D01*
X124096561Y-96956762D01*
X124117199Y-96800000D01*
X127905835Y-96800000D01*
X127926472Y-96956761D01*
X127986978Y-97102836D01*
X127986981Y-97102841D01*
X128083235Y-97228282D01*
X128208676Y-97324536D01*
X128208678Y-97324536D01*
X128208680Y-97324538D01*
X128299829Y-97362293D01*
X128354755Y-97385044D01*
X128511517Y-97405682D01*
X128668279Y-97385044D01*
X128814358Y-97324536D01*
X128939799Y-97228282D01*
X129036053Y-97102841D01*
X129096561Y-96956762D01*
X129117199Y-96800000D01*
X132905835Y-96800000D01*
X132926472Y-96956761D01*
X132986978Y-97102836D01*
X132986981Y-97102841D01*
X133083235Y-97228282D01*
X133208676Y-97324536D01*
X133208678Y-97324536D01*
X133208680Y-97324538D01*
X133299829Y-97362293D01*
X133354755Y-97385044D01*
X133511517Y-97405682D01*
X133668279Y-97385044D01*
X133814358Y-97324536D01*
X133939799Y-97228282D01*
X134036053Y-97102841D01*
X134096561Y-96956762D01*
X134117199Y-96800000D01*
X134096561Y-96643238D01*
X134059990Y-96554947D01*
X134036055Y-96497163D01*
X134036052Y-96497158D01*
X133939799Y-96371718D01*
X133939798Y-96371717D01*
X133814358Y-96275464D01*
X133814353Y-96275461D01*
X133668278Y-96214955D01*
X133511517Y-96194318D01*
X133354755Y-96214955D01*
X133208680Y-96275461D01*
X133208675Y-96275464D01*
X133083235Y-96371717D01*
X133083234Y-96371718D01*
X132986981Y-96497158D01*
X132986978Y-96497163D01*
X132926472Y-96643238D01*
X132905835Y-96800000D01*
X129117199Y-96800000D01*
X129096561Y-96643238D01*
X129059990Y-96554947D01*
X129036055Y-96497163D01*
X129036052Y-96497158D01*
X128939799Y-96371718D01*
X128939798Y-96371717D01*
X128814358Y-96275464D01*
X128814353Y-96275461D01*
X128668278Y-96214955D01*
X128511517Y-96194318D01*
X128354755Y-96214955D01*
X128208680Y-96275461D01*
X128208675Y-96275464D01*
X128083235Y-96371717D01*
X128083234Y-96371718D01*
X127986981Y-96497158D01*
X127986978Y-96497163D01*
X127926472Y-96643238D01*
X127905835Y-96800000D01*
X124117199Y-96800000D01*
X124096561Y-96643238D01*
X124059990Y-96554947D01*
X124036055Y-96497163D01*
X124036052Y-96497158D01*
X123939799Y-96371718D01*
X123939798Y-96371717D01*
X123814358Y-96275464D01*
X123814353Y-96275461D01*
X123668278Y-96214955D01*
X123511517Y-96194318D01*
X123354755Y-96214955D01*
X123208680Y-96275461D01*
X123208675Y-96275464D01*
X123083235Y-96371717D01*
X123083234Y-96371718D01*
X122986981Y-96497158D01*
X122986978Y-96497163D01*
X122926472Y-96643238D01*
X122905835Y-96800000D01*
X119117199Y-96800000D01*
X119096561Y-96643238D01*
X119059990Y-96554947D01*
X119036055Y-96497163D01*
X119036052Y-96497158D01*
X118939799Y-96371718D01*
X118939798Y-96371717D01*
X118814358Y-96275464D01*
X118814353Y-96275461D01*
X118668278Y-96214955D01*
X118511517Y-96194318D01*
X118354755Y-96214955D01*
X118208680Y-96275461D01*
X118208675Y-96275464D01*
X118083235Y-96371717D01*
X118083234Y-96371718D01*
X117986981Y-96497158D01*
X117986978Y-96497163D01*
X117926472Y-96643238D01*
X117905835Y-96800000D01*
X115039857Y-96800000D01*
X115037314Y-91800000D01*
X117905835Y-91800000D01*
X117926472Y-91956761D01*
X117986978Y-92102836D01*
X117986981Y-92102841D01*
X118083235Y-92228282D01*
X118208676Y-92324536D01*
X118208678Y-92324536D01*
X118208680Y-92324538D01*
X118354754Y-92385043D01*
X118354755Y-92385044D01*
X118511517Y-92405682D01*
X118668279Y-92385044D01*
X118814358Y-92324536D01*
X118939799Y-92228282D01*
X119036053Y-92102841D01*
X119096561Y-91956762D01*
X119117199Y-91800000D01*
X122905835Y-91800000D01*
X122926472Y-91956761D01*
X122986978Y-92102836D01*
X122986981Y-92102841D01*
X123083235Y-92228282D01*
X123208676Y-92324536D01*
X123208678Y-92324536D01*
X123208680Y-92324538D01*
X123354754Y-92385043D01*
X123354755Y-92385044D01*
X123511517Y-92405682D01*
X123668279Y-92385044D01*
X123814358Y-92324536D01*
X123939799Y-92228282D01*
X124036053Y-92102841D01*
X124096561Y-91956762D01*
X124117199Y-91800000D01*
X127905835Y-91800000D01*
X127926472Y-91956761D01*
X127986978Y-92102836D01*
X127986981Y-92102841D01*
X128083235Y-92228282D01*
X128208676Y-92324536D01*
X128208678Y-92324536D01*
X128208680Y-92324538D01*
X128354754Y-92385043D01*
X128354755Y-92385044D01*
X128511517Y-92405682D01*
X128668279Y-92385044D01*
X128814358Y-92324536D01*
X128939799Y-92228282D01*
X129036053Y-92102841D01*
X129096561Y-91956762D01*
X129117199Y-91800000D01*
X132905835Y-91800000D01*
X132926472Y-91956761D01*
X132986978Y-92102836D01*
X132986981Y-92102841D01*
X133083235Y-92228282D01*
X133208676Y-92324536D01*
X133208678Y-92324536D01*
X133208680Y-92324538D01*
X133354754Y-92385043D01*
X133354755Y-92385044D01*
X133511517Y-92405682D01*
X133668279Y-92385044D01*
X133814358Y-92324536D01*
X133939799Y-92228282D01*
X134036053Y-92102841D01*
X134096561Y-91956762D01*
X134117199Y-91800000D01*
X137905835Y-91800000D01*
X137926472Y-91956761D01*
X137986978Y-92102836D01*
X137986981Y-92102841D01*
X138083235Y-92228282D01*
X138208676Y-92324536D01*
X138208678Y-92324536D01*
X138208680Y-92324538D01*
X138354754Y-92385043D01*
X138354755Y-92385044D01*
X138511517Y-92405682D01*
X138668279Y-92385044D01*
X138814358Y-92324536D01*
X138939799Y-92228282D01*
X139036053Y-92102841D01*
X139096561Y-91956762D01*
X139117199Y-91800000D01*
X139096561Y-91643238D01*
X139036053Y-91497159D01*
X138939799Y-91371718D01*
X138814358Y-91275464D01*
X138814353Y-91275461D01*
X138668278Y-91214955D01*
X138532154Y-91197034D01*
X138511517Y-91194318D01*
X138511516Y-91194318D01*
X138354755Y-91214955D01*
X138208680Y-91275461D01*
X138208675Y-91275464D01*
X138083235Y-91371717D01*
X138083234Y-91371718D01*
X137986981Y-91497158D01*
X137986978Y-91497163D01*
X137926472Y-91643238D01*
X137905835Y-91800000D01*
X134117199Y-91800000D01*
X134096561Y-91643238D01*
X134036053Y-91497159D01*
X133939799Y-91371718D01*
X133814358Y-91275464D01*
X133814353Y-91275461D01*
X133668278Y-91214955D01*
X133532154Y-91197034D01*
X133511517Y-91194318D01*
X133511516Y-91194318D01*
X133354755Y-91214955D01*
X133208680Y-91275461D01*
X133208675Y-91275464D01*
X133083235Y-91371717D01*
X133083234Y-91371718D01*
X132986981Y-91497158D01*
X132986978Y-91497163D01*
X132926472Y-91643238D01*
X132905835Y-91800000D01*
X129117199Y-91800000D01*
X129096561Y-91643238D01*
X129036053Y-91497159D01*
X128939799Y-91371718D01*
X128814358Y-91275464D01*
X128814353Y-91275461D01*
X128668278Y-91214955D01*
X128532153Y-91197034D01*
X128511517Y-91194318D01*
X128511516Y-91194318D01*
X128354755Y-91214955D01*
X128208680Y-91275461D01*
X128208675Y-91275464D01*
X128083235Y-91371717D01*
X128083234Y-91371718D01*
X127986981Y-91497158D01*
X127986978Y-91497163D01*
X127926472Y-91643238D01*
X127905835Y-91800000D01*
X124117199Y-91800000D01*
X124096561Y-91643238D01*
X124036053Y-91497159D01*
X123939799Y-91371718D01*
X123814358Y-91275464D01*
X123814353Y-91275461D01*
X123668278Y-91214955D01*
X123532154Y-91197034D01*
X123511517Y-91194318D01*
X123511516Y-91194318D01*
X123354755Y-91214955D01*
X123208680Y-91275461D01*
X123208675Y-91275464D01*
X123083235Y-91371717D01*
X123083234Y-91371718D01*
X122986981Y-91497158D01*
X122986978Y-91497163D01*
X122926472Y-91643238D01*
X122905835Y-91800000D01*
X119117199Y-91800000D01*
X119096561Y-91643238D01*
X119036053Y-91497159D01*
X118939799Y-91371718D01*
X118814358Y-91275464D01*
X118814353Y-91275461D01*
X118668278Y-91214955D01*
X118532154Y-91197034D01*
X118511517Y-91194318D01*
X118511516Y-91194318D01*
X118354755Y-91214955D01*
X118208680Y-91275461D01*
X118208675Y-91275464D01*
X118083235Y-91371717D01*
X118083234Y-91371718D01*
X117986981Y-91497158D01*
X117986978Y-91497163D01*
X117926472Y-91643238D01*
X117905835Y-91800000D01*
X115037314Y-91800000D01*
X115034771Y-86800000D01*
X117905835Y-86800000D01*
X117926472Y-86956761D01*
X117986978Y-87102836D01*
X117986981Y-87102841D01*
X118077263Y-87220500D01*
X118083235Y-87228282D01*
X118208676Y-87324536D01*
X118208678Y-87324536D01*
X118208680Y-87324538D01*
X118354755Y-87385043D01*
X118354755Y-87385044D01*
X118511517Y-87405682D01*
X118668279Y-87385044D01*
X118814358Y-87324536D01*
X118939799Y-87228282D01*
X119036053Y-87102841D01*
X119096561Y-86956762D01*
X119117199Y-86800000D01*
X122905835Y-86800000D01*
X122926472Y-86956761D01*
X122986978Y-87102836D01*
X122986981Y-87102841D01*
X123077263Y-87220500D01*
X123083235Y-87228282D01*
X123208676Y-87324536D01*
X123208678Y-87324536D01*
X123208680Y-87324538D01*
X123354755Y-87385043D01*
X123354755Y-87385044D01*
X123511517Y-87405682D01*
X123668279Y-87385044D01*
X123814358Y-87324536D01*
X123939799Y-87228282D01*
X124036053Y-87102841D01*
X124096561Y-86956762D01*
X124117199Y-86800000D01*
X124096561Y-86643238D01*
X124065676Y-86568675D01*
X124036055Y-86497163D01*
X124036052Y-86497158D01*
X124029676Y-86488849D01*
X123939799Y-86371718D01*
X123906449Y-86346128D01*
X123814358Y-86275464D01*
X123814353Y-86275461D01*
X123668278Y-86214955D01*
X123511517Y-86194318D01*
X123354755Y-86214955D01*
X123208680Y-86275461D01*
X123208675Y-86275464D01*
X123083235Y-86371717D01*
X123083234Y-86371718D01*
X122986981Y-86497158D01*
X122986978Y-86497163D01*
X122926472Y-86643238D01*
X122905835Y-86800000D01*
X119117199Y-86800000D01*
X119096561Y-86643238D01*
X119065676Y-86568675D01*
X119036055Y-86497163D01*
X119036052Y-86497158D01*
X119029676Y-86488849D01*
X118939799Y-86371718D01*
X118906449Y-86346128D01*
X118814358Y-86275464D01*
X118814353Y-86275461D01*
X118668278Y-86214955D01*
X118511517Y-86194318D01*
X118354755Y-86214955D01*
X118208680Y-86275461D01*
X118208675Y-86275464D01*
X118083235Y-86371717D01*
X118083234Y-86371718D01*
X117986981Y-86497158D01*
X117986978Y-86497163D01*
X117926472Y-86643238D01*
X117905835Y-86800000D01*
X115034771Y-86800000D01*
X115034273Y-85820000D01*
X128597455Y-85820000D01*
X128616621Y-86051305D01*
X128673598Y-86276300D01*
X128673599Y-86276304D01*
X128766829Y-86488846D01*
X128766836Y-86488858D01*
X128893772Y-86683148D01*
X128893774Y-86683150D01*
X128893776Y-86683153D01*
X129001339Y-86799998D01*
X129050973Y-86853915D01*
X129183111Y-86956761D01*
X129234129Y-86996470D01*
X129234136Y-86996474D01*
X129234138Y-86996475D01*
X129438244Y-87106932D01*
X129438246Y-87106932D01*
X129438252Y-87106936D01*
X129657774Y-87182298D01*
X129886706Y-87220500D01*
X129886709Y-87220500D01*
X130118801Y-87220500D01*
X130118804Y-87220500D01*
X130347736Y-87182298D01*
X130567258Y-87106936D01*
X130771381Y-86996470D01*
X130954539Y-86853913D01*
X131004169Y-86800000D01*
X132905835Y-86800000D01*
X132926472Y-86956761D01*
X132986978Y-87102836D01*
X132986981Y-87102841D01*
X133077263Y-87220500D01*
X133083235Y-87228282D01*
X133208676Y-87324536D01*
X133208678Y-87324536D01*
X133208680Y-87324538D01*
X133354755Y-87385043D01*
X133354755Y-87385044D01*
X133511517Y-87405682D01*
X133668279Y-87385044D01*
X133814358Y-87324536D01*
X133939799Y-87228282D01*
X134036053Y-87102841D01*
X134062187Y-87039748D01*
X136102255Y-87039748D01*
X136113888Y-87098231D01*
X136119702Y-87106932D01*
X136158202Y-87164552D01*
X136184760Y-87182297D01*
X136224524Y-87208867D01*
X136283007Y-87220500D01*
X136283010Y-87220500D01*
X138722500Y-87220500D01*
X138722503Y-87220500D01*
X138780986Y-87208867D01*
X138847307Y-87164552D01*
X138891622Y-87098231D01*
X138903255Y-87039748D01*
X138903255Y-86444500D01*
X138917607Y-86409852D01*
X138952255Y-86395500D01*
X139601324Y-86395500D01*
X139635972Y-86409852D01*
X139760148Y-86534028D01*
X139774500Y-86568675D01*
X139774500Y-92989363D01*
X139760148Y-93024011D01*
X139741684Y-93035613D01*
X139687115Y-93054708D01*
X139577849Y-93135349D01*
X139497208Y-93244614D01*
X139497204Y-93244623D01*
X139452353Y-93372800D01*
X139452353Y-93372801D01*
X139449500Y-93403224D01*
X139449500Y-94036775D01*
X139452353Y-94067198D01*
X139452353Y-94067199D01*
X139497204Y-94195376D01*
X139497208Y-94195385D01*
X139577849Y-94304650D01*
X139687114Y-94385291D01*
X139687117Y-94385292D01*
X139687118Y-94385293D01*
X139687120Y-94385293D01*
X139687123Y-94385295D01*
X139815301Y-94430145D01*
X139815301Y-94430146D01*
X139845734Y-94433000D01*
X139845744Y-94433000D01*
X140854256Y-94433000D01*
X140854266Y-94433000D01*
X140884699Y-94430146D01*
X141012882Y-94385293D01*
X141122150Y-94304650D01*
X141202793Y-94195382D01*
X141247646Y-94067199D01*
X141250500Y-94036766D01*
X141250500Y-93403234D01*
X141247646Y-93372801D01*
X141202793Y-93244618D01*
X141202792Y-93244617D01*
X141202791Y-93244614D01*
X141122150Y-93135349D01*
X141012884Y-93054708D01*
X141012882Y-93054707D01*
X140958316Y-93035613D01*
X140930352Y-93010623D01*
X140925500Y-92989363D01*
X140925500Y-86349329D01*
X140925710Y-86346128D01*
X140927083Y-86335688D01*
X140930466Y-86310000D01*
X140910687Y-86159765D01*
X140901116Y-86136659D01*
X140864755Y-86048875D01*
X140852699Y-86019768D01*
X140852698Y-86019767D01*
X140852698Y-86019766D01*
X140852696Y-86019764D01*
X140783345Y-85929383D01*
X140783328Y-85929364D01*
X140760451Y-85899549D01*
X140731541Y-85877365D01*
X140729130Y-85875250D01*
X140673880Y-85820000D01*
X140294736Y-85440856D01*
X140292636Y-85438461D01*
X140270451Y-85409549D01*
X140240270Y-85386390D01*
X140240268Y-85386388D01*
X140150233Y-85317302D01*
X140150230Y-85317301D01*
X140150228Y-85317299D01*
X140010235Y-85259312D01*
X139895297Y-85244181D01*
X139895292Y-85244180D01*
X139860000Y-85239535D01*
X139823878Y-85244290D01*
X139820677Y-85244500D01*
X138952255Y-85244500D01*
X138917607Y-85230148D01*
X138903255Y-85195500D01*
X138903255Y-84600255D01*
X138903255Y-84600254D01*
X138903255Y-84600252D01*
X138891622Y-84541769D01*
X138865056Y-84502012D01*
X138847307Y-84475447D01*
X138803607Y-84446248D01*
X138780986Y-84431133D01*
X138722503Y-84419500D01*
X136283007Y-84419500D01*
X136224524Y-84431133D01*
X136158202Y-84475447D01*
X136113888Y-84541768D01*
X136113888Y-84541769D01*
X136102255Y-84600252D01*
X136102255Y-87039748D01*
X134062187Y-87039748D01*
X134096561Y-86956762D01*
X134117199Y-86800000D01*
X134096561Y-86643238D01*
X134065676Y-86568675D01*
X134036055Y-86497163D01*
X134036052Y-86497158D01*
X134029676Y-86488849D01*
X133939799Y-86371718D01*
X133906449Y-86346128D01*
X133814358Y-86275464D01*
X133814353Y-86275461D01*
X133668278Y-86214955D01*
X133511517Y-86194318D01*
X133354755Y-86214955D01*
X133208680Y-86275461D01*
X133208675Y-86275464D01*
X133083235Y-86371717D01*
X133083234Y-86371718D01*
X132986981Y-86497158D01*
X132986978Y-86497163D01*
X132926472Y-86643238D01*
X132905835Y-86800000D01*
X131004169Y-86800000D01*
X131111734Y-86683153D01*
X131238679Y-86488849D01*
X131331912Y-86276300D01*
X131388889Y-86051305D01*
X131408055Y-85820000D01*
X131388889Y-85588695D01*
X131331912Y-85363700D01*
X131286123Y-85259313D01*
X131238680Y-85151153D01*
X131238673Y-85151141D01*
X131111737Y-84956851D01*
X131111735Y-84956849D01*
X131111734Y-84956847D01*
X130954539Y-84786087D01*
X130954538Y-84786086D01*
X130954536Y-84786084D01*
X130771385Y-84643533D01*
X130771384Y-84643532D01*
X130771381Y-84643530D01*
X130771376Y-84643527D01*
X130771371Y-84643524D01*
X130567265Y-84533067D01*
X130567259Y-84533064D01*
X130567258Y-84533064D01*
X130549666Y-84527024D01*
X130347737Y-84457702D01*
X130279096Y-84446248D01*
X130118804Y-84419500D01*
X129886706Y-84419500D01*
X129749346Y-84442421D01*
X129657772Y-84457702D01*
X129438254Y-84533063D01*
X129438244Y-84533067D01*
X129234138Y-84643524D01*
X129234124Y-84643533D01*
X129050973Y-84786084D01*
X128893772Y-84956851D01*
X128766836Y-85151141D01*
X128766829Y-85151153D01*
X128673599Y-85363695D01*
X128673598Y-85363699D01*
X128673598Y-85363700D01*
X128616621Y-85588695D01*
X128597455Y-85820000D01*
X115034273Y-85820000D01*
X115033689Y-84671795D01*
X115048023Y-84637141D01*
X115082664Y-84622772D01*
X115111166Y-84631896D01*
X115113815Y-84633788D01*
X115218751Y-84685087D01*
X115286779Y-84694999D01*
X115619999Y-84694999D01*
X115620000Y-84694998D01*
X115620000Y-84232500D01*
X115919999Y-84232500D01*
X115919999Y-84694999D01*
X116253221Y-84694999D01*
X116321248Y-84685088D01*
X116321249Y-84685088D01*
X116426186Y-84633787D01*
X116426190Y-84633784D01*
X116508784Y-84551190D01*
X116508786Y-84551186D01*
X116560087Y-84446249D01*
X116560087Y-84446248D01*
X116570000Y-84378220D01*
X116570000Y-84232500D01*
X115919999Y-84232500D01*
X115620000Y-84232500D01*
X115620000Y-83470000D01*
X115919999Y-83470000D01*
X115919999Y-83932499D01*
X115920001Y-83932500D01*
X116569999Y-83932500D01*
X116569999Y-83786778D01*
X116560088Y-83718751D01*
X116560088Y-83718750D01*
X116508787Y-83613813D01*
X116508784Y-83613809D01*
X116426190Y-83531215D01*
X116426186Y-83531213D01*
X116321248Y-83479912D01*
X116253221Y-83470000D01*
X115919999Y-83470000D01*
X115620000Y-83470000D01*
X115286778Y-83470000D01*
X115218751Y-83479911D01*
X115218750Y-83479911D01*
X115113810Y-83531214D01*
X115110560Y-83533535D01*
X115074022Y-83541986D01*
X115042209Y-83522126D01*
X115033090Y-83493684D01*
X115032821Y-82964866D01*
X115047154Y-82930214D01*
X115081795Y-82915845D01*
X115104722Y-82921526D01*
X115107114Y-82922790D01*
X115107118Y-82922793D01*
X115107121Y-82922794D01*
X115107125Y-82922796D01*
X115227356Y-82964866D01*
X115235301Y-82967646D01*
X115265734Y-82970500D01*
X115265744Y-82970500D01*
X116274256Y-82970500D01*
X116274266Y-82970500D01*
X116304699Y-82967646D01*
X116432882Y-82922793D01*
X116442297Y-82915845D01*
X116542150Y-82842150D01*
X116622791Y-82732885D01*
X116622791Y-82732884D01*
X116622793Y-82732882D01*
X116667646Y-82604699D01*
X116670500Y-82574266D01*
X116670500Y-81940734D01*
X116667646Y-81910301D01*
X116657946Y-81882581D01*
X116629050Y-81800000D01*
X117905835Y-81800000D01*
X117926472Y-81956761D01*
X117986978Y-82102836D01*
X117986981Y-82102841D01*
X118054462Y-82190785D01*
X118083235Y-82228282D01*
X118208676Y-82324536D01*
X118208678Y-82324536D01*
X118208680Y-82324538D01*
X118354754Y-82385043D01*
X118354755Y-82385044D01*
X118511517Y-82405682D01*
X118668279Y-82385044D01*
X118814358Y-82324536D01*
X118939799Y-82228282D01*
X119036053Y-82102841D01*
X119096561Y-81956762D01*
X119117199Y-81800000D01*
X122905835Y-81800000D01*
X122926472Y-81956761D01*
X122986978Y-82102836D01*
X122986981Y-82102841D01*
X123054462Y-82190785D01*
X123083235Y-82228282D01*
X123208676Y-82324536D01*
X123208678Y-82324536D01*
X123208680Y-82324538D01*
X123354754Y-82385043D01*
X123354755Y-82385044D01*
X123511517Y-82405682D01*
X123668279Y-82385044D01*
X123814358Y-82324536D01*
X123939799Y-82228282D01*
X124036053Y-82102841D01*
X124096561Y-81956762D01*
X124117199Y-81800000D01*
X127905835Y-81800000D01*
X127926472Y-81956761D01*
X127986978Y-82102836D01*
X127986981Y-82102841D01*
X128054462Y-82190785D01*
X128083235Y-82228282D01*
X128208676Y-82324536D01*
X128208678Y-82324536D01*
X128208680Y-82324538D01*
X128354754Y-82385043D01*
X128354755Y-82385044D01*
X128511517Y-82405682D01*
X128668279Y-82385044D01*
X128814358Y-82324536D01*
X128939799Y-82228282D01*
X129036053Y-82102841D01*
X129096561Y-81956762D01*
X129117199Y-81800000D01*
X132905835Y-81800000D01*
X132926472Y-81956761D01*
X132986978Y-82102836D01*
X132986981Y-82102841D01*
X133054462Y-82190785D01*
X133083235Y-82228282D01*
X133208676Y-82324536D01*
X133208678Y-82324536D01*
X133208680Y-82324538D01*
X133354754Y-82385043D01*
X133354755Y-82385044D01*
X133511517Y-82405682D01*
X133668279Y-82385044D01*
X133814358Y-82324536D01*
X133939799Y-82228282D01*
X134036053Y-82102841D01*
X134096561Y-81956762D01*
X134117199Y-81800000D01*
X137905835Y-81800000D01*
X137926472Y-81956761D01*
X137986978Y-82102836D01*
X137986981Y-82102841D01*
X138054462Y-82190785D01*
X138083235Y-82228282D01*
X138208676Y-82324536D01*
X138208678Y-82324536D01*
X138208680Y-82324538D01*
X138354755Y-82385043D01*
X138354755Y-82385044D01*
X138511517Y-82405682D01*
X138668279Y-82385044D01*
X138814358Y-82324536D01*
X138939799Y-82228282D01*
X139036053Y-82102841D01*
X139096561Y-81956762D01*
X139117199Y-81800000D01*
X139096561Y-81643238D01*
X139075423Y-81592206D01*
X139036055Y-81497163D01*
X139036052Y-81497158D01*
X139001872Y-81452614D01*
X138939799Y-81371718D01*
X138814358Y-81275464D01*
X138814353Y-81275461D01*
X138668278Y-81214955D01*
X138532154Y-81197034D01*
X138511517Y-81194318D01*
X138511516Y-81194318D01*
X138354755Y-81214955D01*
X138208680Y-81275461D01*
X138208675Y-81275464D01*
X138083235Y-81371717D01*
X138083234Y-81371718D01*
X137986981Y-81497158D01*
X137986978Y-81497163D01*
X137926472Y-81643238D01*
X137905835Y-81800000D01*
X134117199Y-81800000D01*
X134096561Y-81643238D01*
X134075423Y-81592206D01*
X134036055Y-81497163D01*
X134036052Y-81497158D01*
X134001872Y-81452614D01*
X133939799Y-81371718D01*
X133814358Y-81275464D01*
X133814353Y-81275461D01*
X133668278Y-81214955D01*
X133532154Y-81197034D01*
X133511517Y-81194318D01*
X133511516Y-81194318D01*
X133354755Y-81214955D01*
X133208680Y-81275461D01*
X133208675Y-81275464D01*
X133083235Y-81371717D01*
X133083234Y-81371718D01*
X132986981Y-81497158D01*
X132986978Y-81497163D01*
X132926472Y-81643238D01*
X132905835Y-81800000D01*
X129117199Y-81800000D01*
X129096561Y-81643238D01*
X129075423Y-81592206D01*
X129036055Y-81497163D01*
X129036052Y-81497158D01*
X129001872Y-81452614D01*
X128939799Y-81371718D01*
X128814358Y-81275464D01*
X128814353Y-81275461D01*
X128668278Y-81214955D01*
X128532153Y-81197034D01*
X128511517Y-81194318D01*
X128511516Y-81194318D01*
X128354755Y-81214955D01*
X128208680Y-81275461D01*
X128208675Y-81275464D01*
X128083235Y-81371717D01*
X128083234Y-81371718D01*
X127986981Y-81497158D01*
X127986978Y-81497163D01*
X127926472Y-81643238D01*
X127905835Y-81800000D01*
X124117199Y-81800000D01*
X124096561Y-81643238D01*
X124075423Y-81592206D01*
X124036055Y-81497163D01*
X124036052Y-81497158D01*
X124001872Y-81452614D01*
X123939799Y-81371718D01*
X123814358Y-81275464D01*
X123814353Y-81275461D01*
X123668278Y-81214955D01*
X123532154Y-81197034D01*
X123511517Y-81194318D01*
X123511516Y-81194318D01*
X123354755Y-81214955D01*
X123208680Y-81275461D01*
X123208675Y-81275464D01*
X123083235Y-81371717D01*
X123083234Y-81371718D01*
X122986981Y-81497158D01*
X122986978Y-81497163D01*
X122926472Y-81643238D01*
X122905835Y-81800000D01*
X119117199Y-81800000D01*
X119096561Y-81643238D01*
X119075423Y-81592206D01*
X119036055Y-81497163D01*
X119036052Y-81497158D01*
X119001872Y-81452614D01*
X118939799Y-81371718D01*
X118814358Y-81275464D01*
X118814353Y-81275461D01*
X118668278Y-81214955D01*
X118532154Y-81197034D01*
X118511517Y-81194318D01*
X118511516Y-81194318D01*
X118354755Y-81214955D01*
X118208680Y-81275461D01*
X118208675Y-81275464D01*
X118083235Y-81371717D01*
X118083234Y-81371718D01*
X117986981Y-81497158D01*
X117986978Y-81497163D01*
X117926472Y-81643238D01*
X117905835Y-81800000D01*
X116629050Y-81800000D01*
X116622795Y-81782123D01*
X116622791Y-81782114D01*
X116542150Y-81672849D01*
X116432884Y-81592208D01*
X116432882Y-81592207D01*
X116390230Y-81577282D01*
X116378316Y-81573113D01*
X116350352Y-81548123D01*
X116345500Y-81526863D01*
X116345500Y-80608489D01*
X116355074Y-80579393D01*
X116410955Y-80503679D01*
X116455186Y-80377274D01*
X116458000Y-80347264D01*
X116458000Y-79327736D01*
X116455186Y-79297726D01*
X116410955Y-79171321D01*
X116405161Y-79163470D01*
X116331430Y-79063569D01*
X116223681Y-78984046D01*
X116223679Y-78984045D01*
X116185737Y-78970768D01*
X116097276Y-78939814D01*
X116097268Y-78939813D01*
X116067276Y-78937001D01*
X116067273Y-78937000D01*
X116067264Y-78937000D01*
X115472736Y-78937000D01*
X115472727Y-78937000D01*
X115472723Y-78937001D01*
X115442731Y-78939813D01*
X115442723Y-78939814D01*
X115316318Y-78984046D01*
X115208569Y-79063569D01*
X115129046Y-79171318D01*
X115126138Y-79179629D01*
X115101148Y-79207593D01*
X115063704Y-79209695D01*
X115035740Y-79184705D01*
X115030888Y-79163470D01*
X115030837Y-79063569D01*
X115029737Y-76899524D01*
X115044071Y-76864869D01*
X115078712Y-76850500D01*
X141261710Y-76850500D01*
X141296358Y-76864852D01*
G37*
%TD.AperFunction*%
%TD*%
%TA.AperFunction,Conductor*%
%TO.N,Net-(U1-Ipk_Sense)*%
G36*
X147090563Y-103349685D02*
G01*
X147115671Y-103371026D01*
X147158747Y-103418866D01*
X147313248Y-103531118D01*
X147487712Y-103608794D01*
X147674513Y-103648500D01*
X147865483Y-103648500D01*
X147865487Y-103648500D01*
X147880220Y-103645368D01*
X147949883Y-103650683D01*
X148005618Y-103692818D01*
X148027590Y-103752590D01*
X148030000Y-103755000D01*
X149656000Y-103755000D01*
X149723039Y-103774685D01*
X149768794Y-103827489D01*
X149780000Y-103879000D01*
X149780000Y-107345000D01*
X150541488Y-107345000D01*
X150626663Y-107334772D01*
X150762201Y-107281323D01*
X150878291Y-107193288D01*
X150953696Y-107093853D01*
X151009889Y-107052329D01*
X151079610Y-107047778D01*
X151140724Y-107081643D01*
X151173828Y-107143173D01*
X151176500Y-107168778D01*
X151176500Y-116016000D01*
X151156815Y-116083039D01*
X151104011Y-116128794D01*
X151052500Y-116140000D01*
X145134000Y-116140000D01*
X145066961Y-116120315D01*
X145021206Y-116067511D01*
X145010000Y-116016000D01*
X145010000Y-111930000D01*
X146340001Y-111930000D01*
X146340001Y-113154986D01*
X146350494Y-113257697D01*
X146405641Y-113424119D01*
X146405643Y-113424124D01*
X146497684Y-113573345D01*
X146621654Y-113697315D01*
X146770875Y-113789356D01*
X146770880Y-113789358D01*
X146937302Y-113844505D01*
X146937309Y-113844506D01*
X147040019Y-113854999D01*
X147202499Y-113854999D01*
X147202500Y-113854998D01*
X147202500Y-111930000D01*
X147702500Y-111930000D01*
X147702500Y-113854999D01*
X147864972Y-113854999D01*
X147864986Y-113854998D01*
X147967697Y-113844505D01*
X148134119Y-113789358D01*
X148134124Y-113789356D01*
X148283345Y-113697315D01*
X148407315Y-113573345D01*
X148499356Y-113424124D01*
X148499358Y-113424119D01*
X148554505Y-113257697D01*
X148554506Y-113257690D01*
X148564999Y-113154986D01*
X148565000Y-113154973D01*
X148565000Y-111930000D01*
X147702500Y-111930000D01*
X147202500Y-111930000D01*
X146340001Y-111930000D01*
X145010000Y-111930000D01*
X145010000Y-111430000D01*
X146340000Y-111430000D01*
X147202500Y-111430000D01*
X147202500Y-109505000D01*
X147702500Y-109505000D01*
X147702500Y-111430000D01*
X148564999Y-111430000D01*
X148564999Y-110205028D01*
X148564998Y-110205013D01*
X148554505Y-110102302D01*
X148499358Y-109935880D01*
X148499356Y-109935875D01*
X148407315Y-109786654D01*
X148283345Y-109662684D01*
X148134124Y-109570643D01*
X148134119Y-109570641D01*
X147967697Y-109515494D01*
X147967690Y-109515493D01*
X147864986Y-109505000D01*
X147702500Y-109505000D01*
X147202500Y-109505000D01*
X147040029Y-109505000D01*
X147040012Y-109505001D01*
X146937302Y-109515494D01*
X146770880Y-109570641D01*
X146770875Y-109570643D01*
X146621654Y-109662684D01*
X146497684Y-109786654D01*
X146405643Y-109935875D01*
X146405641Y-109935880D01*
X146350494Y-110102302D01*
X146350493Y-110102309D01*
X146340000Y-110205013D01*
X146340000Y-111430000D01*
X145010000Y-111430000D01*
X145010000Y-108530000D01*
X139144000Y-108530000D01*
X139076961Y-108510315D01*
X139031206Y-108457511D01*
X139020000Y-108406000D01*
X139020000Y-107460943D01*
X139039685Y-107393904D01*
X139092489Y-107348149D01*
X139158785Y-107337828D01*
X139218506Y-107345000D01*
X139980000Y-107345000D01*
X139980000Y-106795000D01*
X140480000Y-106795000D01*
X140480000Y-107345000D01*
X141241488Y-107345000D01*
X141326663Y-107334772D01*
X141462201Y-107281323D01*
X141578289Y-107193289D01*
X141666323Y-107077201D01*
X141719772Y-106941663D01*
X141730000Y-106856487D01*
X141730000Y-106800000D01*
X142598013Y-106800000D01*
X142617975Y-106989928D01*
X142617976Y-106989931D01*
X142676987Y-107171549D01*
X142676990Y-107171556D01*
X142772477Y-107336944D01*
X142900264Y-107478866D01*
X143054765Y-107591118D01*
X143229229Y-107668794D01*
X143416030Y-107708500D01*
X143607004Y-107708500D01*
X143793805Y-107668794D01*
X143968269Y-107591118D01*
X144122770Y-107478866D01*
X144250557Y-107336944D01*
X144346044Y-107171556D01*
X144405059Y-106989928D01*
X144425021Y-106800000D01*
X144424495Y-106795000D01*
X148030000Y-106795000D01*
X148030000Y-106856487D01*
X148040227Y-106941663D01*
X148093676Y-107077201D01*
X148181710Y-107193289D01*
X148297798Y-107281323D01*
X148433336Y-107334772D01*
X148518512Y-107345000D01*
X149280000Y-107345000D01*
X149280000Y-106795000D01*
X148030000Y-106795000D01*
X144424495Y-106795000D01*
X144405059Y-106610072D01*
X144346044Y-106428444D01*
X144250557Y-106263056D01*
X144122770Y-106121134D01*
X143968269Y-106008882D01*
X143793805Y-105931206D01*
X143793803Y-105931205D01*
X143607004Y-105891500D01*
X143416030Y-105891500D01*
X143229231Y-105931205D01*
X143054763Y-106008883D01*
X142900262Y-106121135D01*
X142772476Y-106263057D01*
X142676990Y-106428443D01*
X142676987Y-106428450D01*
X142617976Y-106610068D01*
X142617975Y-106610072D01*
X142606692Y-106717421D01*
X142598539Y-106795000D01*
X142598013Y-106800000D01*
X141730000Y-106800000D01*
X141730000Y-106795000D01*
X140480000Y-106795000D01*
X139980000Y-106795000D01*
X139980000Y-106419000D01*
X139999685Y-106351961D01*
X140052489Y-106306206D01*
X140104000Y-106295000D01*
X141730000Y-106295000D01*
X141730000Y-106233511D01*
X141721027Y-106158783D01*
X141732579Y-106089875D01*
X141779552Y-106038151D01*
X141796655Y-106033344D01*
X141809999Y-106020000D01*
X141810000Y-106020000D01*
X141810000Y-105525000D01*
X148030000Y-105525000D01*
X148030000Y-105586487D01*
X148040227Y-105671663D01*
X148093677Y-105807203D01*
X148114813Y-105835075D01*
X148139636Y-105900387D01*
X148125208Y-105968751D01*
X148114813Y-105984925D01*
X148093677Y-106012796D01*
X148040227Y-106148336D01*
X148030000Y-106233512D01*
X148030000Y-106295000D01*
X149280000Y-106295000D01*
X149280000Y-105525000D01*
X148030000Y-105525000D01*
X141810000Y-105525000D01*
X141810000Y-104255000D01*
X148030000Y-104255000D01*
X148030000Y-104316487D01*
X148040227Y-104401663D01*
X148093677Y-104537203D01*
X148114813Y-104565075D01*
X148139636Y-104630387D01*
X148125208Y-104698751D01*
X148114813Y-104714925D01*
X148093677Y-104742796D01*
X148040227Y-104878336D01*
X148030000Y-104963512D01*
X148030000Y-105025000D01*
X149280000Y-105025000D01*
X149280000Y-104255000D01*
X148030000Y-104255000D01*
X141810000Y-104255000D01*
X141810000Y-103762499D01*
X141829685Y-103695461D01*
X141882489Y-103649706D01*
X141934000Y-103638500D01*
X142125487Y-103638500D01*
X142312288Y-103598794D01*
X142486752Y-103521118D01*
X142641253Y-103408866D01*
X142675324Y-103371025D01*
X142734808Y-103334380D01*
X142767472Y-103330000D01*
X147023524Y-103330000D01*
X147090563Y-103349685D01*
G37*
%TD.AperFunction*%
%TD*%
%TA.AperFunction,Conductor*%
%TO.N,Net-(C5-Pad2)*%
G36*
X154183039Y-76870185D02*
G01*
X154228794Y-76922989D01*
X154240000Y-76974500D01*
X154240000Y-80962942D01*
X154220315Y-81029981D01*
X154167511Y-81075736D01*
X154098353Y-81085680D01*
X154043115Y-81063260D01*
X153968273Y-81008884D01*
X153968269Y-81008882D01*
X153793805Y-80931206D01*
X153793803Y-80931205D01*
X153607004Y-80891500D01*
X153416030Y-80891500D01*
X153229231Y-80931205D01*
X153054763Y-81008883D01*
X152900262Y-81121135D01*
X152772476Y-81263057D01*
X152676990Y-81428443D01*
X152676987Y-81428450D01*
X152617976Y-81610068D01*
X152617975Y-81610072D01*
X152598013Y-81800000D01*
X152617975Y-81989928D01*
X152617976Y-81989931D01*
X152676987Y-82171549D01*
X152676990Y-82171556D01*
X152772477Y-82336944D01*
X152900264Y-82478866D01*
X153054765Y-82591118D01*
X153229229Y-82668794D01*
X153416030Y-82708500D01*
X153607004Y-82708500D01*
X153793805Y-82668794D01*
X153968269Y-82591118D01*
X154043115Y-82536738D01*
X154108920Y-82513259D01*
X154176974Y-82529084D01*
X154225669Y-82579190D01*
X154240000Y-82637057D01*
X154240000Y-85962942D01*
X154220315Y-86029981D01*
X154167511Y-86075736D01*
X154098353Y-86085680D01*
X154043115Y-86063260D01*
X153968273Y-86008884D01*
X153968269Y-86008882D01*
X153793805Y-85931206D01*
X153793803Y-85931205D01*
X153607004Y-85891500D01*
X153416030Y-85891500D01*
X153229231Y-85931205D01*
X153054763Y-86008883D01*
X152900262Y-86121135D01*
X152772476Y-86263057D01*
X152676990Y-86428443D01*
X152676987Y-86428450D01*
X152617976Y-86610068D01*
X152617975Y-86610072D01*
X152598013Y-86800000D01*
X152617975Y-86989928D01*
X152617976Y-86989931D01*
X152676987Y-87171549D01*
X152676990Y-87171556D01*
X152772477Y-87336944D01*
X152900264Y-87478866D01*
X153054765Y-87591118D01*
X153229229Y-87668794D01*
X153416030Y-87708500D01*
X153607004Y-87708500D01*
X153793805Y-87668794D01*
X153968269Y-87591118D01*
X154043115Y-87536738D01*
X154108920Y-87513259D01*
X154176974Y-87529084D01*
X154225669Y-87579190D01*
X154240000Y-87637057D01*
X154240000Y-92182042D01*
X154220315Y-92249081D01*
X154167511Y-92294836D01*
X154098353Y-92304780D01*
X154050904Y-92287581D01*
X153999128Y-92255645D01*
X153999119Y-92255641D01*
X153832697Y-92200494D01*
X153832690Y-92200493D01*
X153729986Y-92190000D01*
X153667500Y-92190000D01*
X153667500Y-94589999D01*
X153729972Y-94589999D01*
X153729986Y-94589998D01*
X153832697Y-94579505D01*
X153999119Y-94524358D01*
X153999126Y-94524355D01*
X154050902Y-94492419D01*
X154118295Y-94473978D01*
X154184958Y-94494900D01*
X154229728Y-94548542D01*
X154240000Y-94597957D01*
X154240000Y-94748638D01*
X154220315Y-94815677D01*
X154203681Y-94836319D01*
X154166319Y-94873681D01*
X154104996Y-94907166D01*
X154078638Y-94910000D01*
X149614000Y-94910000D01*
X149546961Y-94890315D01*
X149501206Y-94837511D01*
X149490000Y-94786000D01*
X149490000Y-94538285D01*
X149509685Y-94471246D01*
X149562489Y-94425491D01*
X149631647Y-94415547D01*
X149679097Y-94432747D01*
X149770869Y-94489353D01*
X149770880Y-94489358D01*
X149937302Y-94544505D01*
X149937309Y-94544506D01*
X150040019Y-94554999D01*
X150089999Y-94554998D01*
X150090000Y-94554998D01*
X150090000Y-93580000D01*
X150590000Y-93580000D01*
X150590000Y-94554999D01*
X150639972Y-94554999D01*
X150639986Y-94554998D01*
X150742697Y-94544505D01*
X150909119Y-94489358D01*
X150909124Y-94489356D01*
X151058345Y-94397315D01*
X151182315Y-94273345D01*
X151274356Y-94124124D01*
X151274358Y-94124119D01*
X151329505Y-93957697D01*
X151329506Y-93957690D01*
X151339999Y-93854986D01*
X151340000Y-93854973D01*
X151340000Y-93640000D01*
X152405001Y-93640000D01*
X152405001Y-93889986D01*
X152415494Y-93992697D01*
X152470641Y-94159119D01*
X152470643Y-94159124D01*
X152562684Y-94308345D01*
X152686654Y-94432315D01*
X152835875Y-94524356D01*
X152835880Y-94524358D01*
X153002302Y-94579505D01*
X153002309Y-94579506D01*
X153105019Y-94589999D01*
X153167499Y-94589998D01*
X153167500Y-94589998D01*
X153167500Y-93640000D01*
X152405001Y-93640000D01*
X151340000Y-93640000D01*
X151340000Y-93580000D01*
X150590000Y-93580000D01*
X150090000Y-93580000D01*
X150090000Y-93140000D01*
X152405000Y-93140000D01*
X153167500Y-93140000D01*
X153167500Y-92190000D01*
X153167499Y-92189999D01*
X153105028Y-92190000D01*
X153105011Y-92190001D01*
X153002302Y-92200494D01*
X152835880Y-92255641D01*
X152835875Y-92255643D01*
X152686654Y-92347684D01*
X152562684Y-92471654D01*
X152470643Y-92620875D01*
X152470641Y-92620880D01*
X152415494Y-92787302D01*
X152415493Y-92787309D01*
X152405000Y-92890013D01*
X152405000Y-93140000D01*
X150090000Y-93140000D01*
X150090000Y-92105000D01*
X150590000Y-92105000D01*
X150590000Y-93080000D01*
X151339999Y-93080000D01*
X151339999Y-92805028D01*
X151339998Y-92805013D01*
X151329505Y-92702302D01*
X151274358Y-92535880D01*
X151274356Y-92535875D01*
X151182315Y-92386654D01*
X151058345Y-92262684D01*
X150909124Y-92170643D01*
X150909119Y-92170641D01*
X150742697Y-92115494D01*
X150742690Y-92115493D01*
X150639986Y-92105000D01*
X150590000Y-92105000D01*
X150090000Y-92105000D01*
X150089999Y-92104999D01*
X150040029Y-92105000D01*
X150040011Y-92105001D01*
X149937302Y-92115494D01*
X149770880Y-92170641D01*
X149770871Y-92170645D01*
X149679096Y-92227253D01*
X149611704Y-92245693D01*
X149545040Y-92224770D01*
X149500271Y-92171128D01*
X149490000Y-92121714D01*
X149490000Y-76974500D01*
X149509685Y-76907461D01*
X149562489Y-76861706D01*
X149614000Y-76850500D01*
X154116000Y-76850500D01*
X154183039Y-76870185D01*
G37*
%TD.AperFunction*%
%TD*%
M02*
