%TF.GenerationSoftware,KiCad,Pcbnew,7.0.7*%
%TF.CreationDate,2023-09-13T14:30:02-04:00*%
%TF.ProjectId,Alim,416c696d-2e6b-4696-9361-645f70636258,rev?*%
%TF.SameCoordinates,Original*%
%TF.FileFunction,Legend,Top*%
%TF.FilePolarity,Positive*%
%FSLAX46Y46*%
G04 Gerber Fmt 4.6, Leading zero omitted, Abs format (unit mm)*
G04 Created by KiCad (PCBNEW 7.0.7) date 2023-09-13 14:30:02*
%MOMM*%
%LPD*%
G01*
G04 APERTURE LIST*
%ADD10C,0.150000*%
%ADD11C,0.300000*%
%ADD12C,0.120000*%
%ADD13C,0.127000*%
%ADD14C,0.200000*%
G04 APERTURE END LIST*
D10*
X101048866Y-78313220D02*
X101048866Y-77551316D01*
X100636779Y-85068866D02*
X101398684Y-85068866D01*
X101017731Y-85449819D02*
X101017731Y-84687914D01*
D11*
X156288796Y-114900828D02*
X155574510Y-114900828D01*
X155574510Y-114900828D02*
X155574510Y-113400828D01*
X157574511Y-114900828D02*
X156717368Y-114900828D01*
X157145939Y-114900828D02*
X157145939Y-113400828D01*
X157145939Y-113400828D02*
X157003082Y-113615114D01*
X157003082Y-113615114D02*
X156860225Y-113757971D01*
X156860225Y-113757971D02*
X156717368Y-113829400D01*
D10*
X100536779Y-101739819D02*
X100536779Y-100739819D01*
X100536779Y-100739819D02*
X100774874Y-100739819D01*
X100774874Y-100739819D02*
X100917731Y-100787438D01*
X100917731Y-100787438D02*
X101012969Y-100882676D01*
X101012969Y-100882676D02*
X101060588Y-100977914D01*
X101060588Y-100977914D02*
X101108207Y-101168390D01*
X101108207Y-101168390D02*
X101108207Y-101311247D01*
X101108207Y-101311247D02*
X101060588Y-101501723D01*
X101060588Y-101501723D02*
X101012969Y-101596961D01*
X101012969Y-101596961D02*
X100917731Y-101692200D01*
X100917731Y-101692200D02*
X100774874Y-101739819D01*
X100774874Y-101739819D02*
X100536779Y-101739819D01*
X101965350Y-101073152D02*
X101965350Y-101739819D01*
X101536779Y-101073152D02*
X101536779Y-101596961D01*
X101536779Y-101596961D02*
X101584398Y-101692200D01*
X101584398Y-101692200D02*
X101679636Y-101739819D01*
X101679636Y-101739819D02*
X101822493Y-101739819D01*
X101822493Y-101739819D02*
X101917731Y-101692200D01*
X101917731Y-101692200D02*
X101965350Y-101644580D01*
X102870112Y-101692200D02*
X102774874Y-101739819D01*
X102774874Y-101739819D02*
X102584398Y-101739819D01*
X102584398Y-101739819D02*
X102489160Y-101692200D01*
X102489160Y-101692200D02*
X102441541Y-101644580D01*
X102441541Y-101644580D02*
X102393922Y-101549342D01*
X102393922Y-101549342D02*
X102393922Y-101263628D01*
X102393922Y-101263628D02*
X102441541Y-101168390D01*
X102441541Y-101168390D02*
X102489160Y-101120771D01*
X102489160Y-101120771D02*
X102584398Y-101073152D01*
X102584398Y-101073152D02*
X102774874Y-101073152D01*
X102774874Y-101073152D02*
X102870112Y-101120771D01*
X103298684Y-101739819D02*
X103298684Y-100739819D01*
X103393922Y-101358866D02*
X103679636Y-101739819D01*
X103679636Y-101073152D02*
X103298684Y-101454104D01*
X105441541Y-101644580D02*
X105393922Y-101692200D01*
X105393922Y-101692200D02*
X105251065Y-101739819D01*
X105251065Y-101739819D02*
X105155827Y-101739819D01*
X105155827Y-101739819D02*
X105012970Y-101692200D01*
X105012970Y-101692200D02*
X104917732Y-101596961D01*
X104917732Y-101596961D02*
X104870113Y-101501723D01*
X104870113Y-101501723D02*
X104822494Y-101311247D01*
X104822494Y-101311247D02*
X104822494Y-101168390D01*
X104822494Y-101168390D02*
X104870113Y-100977914D01*
X104870113Y-100977914D02*
X104917732Y-100882676D01*
X104917732Y-100882676D02*
X105012970Y-100787438D01*
X105012970Y-100787438D02*
X105155827Y-100739819D01*
X105155827Y-100739819D02*
X105251065Y-100739819D01*
X105251065Y-100739819D02*
X105393922Y-100787438D01*
X105393922Y-100787438D02*
X105441541Y-100835057D01*
X106012970Y-101739819D02*
X105917732Y-101692200D01*
X105917732Y-101692200D02*
X105870113Y-101644580D01*
X105870113Y-101644580D02*
X105822494Y-101549342D01*
X105822494Y-101549342D02*
X105822494Y-101263628D01*
X105822494Y-101263628D02*
X105870113Y-101168390D01*
X105870113Y-101168390D02*
X105917732Y-101120771D01*
X105917732Y-101120771D02*
X106012970Y-101073152D01*
X106012970Y-101073152D02*
X106155827Y-101073152D01*
X106155827Y-101073152D02*
X106251065Y-101120771D01*
X106251065Y-101120771D02*
X106298684Y-101168390D01*
X106298684Y-101168390D02*
X106346303Y-101263628D01*
X106346303Y-101263628D02*
X106346303Y-101549342D01*
X106346303Y-101549342D02*
X106298684Y-101644580D01*
X106298684Y-101644580D02*
X106251065Y-101692200D01*
X106251065Y-101692200D02*
X106155827Y-101739819D01*
X106155827Y-101739819D02*
X106012970Y-101739819D01*
X106774875Y-101739819D02*
X106774875Y-101073152D01*
X106774875Y-101168390D02*
X106822494Y-101120771D01*
X106822494Y-101120771D02*
X106917732Y-101073152D01*
X106917732Y-101073152D02*
X107060589Y-101073152D01*
X107060589Y-101073152D02*
X107155827Y-101120771D01*
X107155827Y-101120771D02*
X107203446Y-101216009D01*
X107203446Y-101216009D02*
X107203446Y-101739819D01*
X107203446Y-101216009D02*
X107251065Y-101120771D01*
X107251065Y-101120771D02*
X107346303Y-101073152D01*
X107346303Y-101073152D02*
X107489160Y-101073152D01*
X107489160Y-101073152D02*
X107584399Y-101120771D01*
X107584399Y-101120771D02*
X107632018Y-101216009D01*
X107632018Y-101216009D02*
X107632018Y-101739819D01*
X108108208Y-101073152D02*
X108108208Y-102073152D01*
X108108208Y-101120771D02*
X108203446Y-101073152D01*
X108203446Y-101073152D02*
X108393922Y-101073152D01*
X108393922Y-101073152D02*
X108489160Y-101120771D01*
X108489160Y-101120771D02*
X108536779Y-101168390D01*
X108536779Y-101168390D02*
X108584398Y-101263628D01*
X108584398Y-101263628D02*
X108584398Y-101549342D01*
X108584398Y-101549342D02*
X108536779Y-101644580D01*
X108536779Y-101644580D02*
X108489160Y-101692200D01*
X108489160Y-101692200D02*
X108393922Y-101739819D01*
X108393922Y-101739819D02*
X108203446Y-101739819D01*
X108203446Y-101739819D02*
X108108208Y-101692200D01*
X109441541Y-101739819D02*
X109441541Y-101216009D01*
X109441541Y-101216009D02*
X109393922Y-101120771D01*
X109393922Y-101120771D02*
X109298684Y-101073152D01*
X109298684Y-101073152D02*
X109108208Y-101073152D01*
X109108208Y-101073152D02*
X109012970Y-101120771D01*
X109441541Y-101692200D02*
X109346303Y-101739819D01*
X109346303Y-101739819D02*
X109108208Y-101739819D01*
X109108208Y-101739819D02*
X109012970Y-101692200D01*
X109012970Y-101692200D02*
X108965351Y-101596961D01*
X108965351Y-101596961D02*
X108965351Y-101501723D01*
X108965351Y-101501723D02*
X109012970Y-101406485D01*
X109012970Y-101406485D02*
X109108208Y-101358866D01*
X109108208Y-101358866D02*
X109346303Y-101358866D01*
X109346303Y-101358866D02*
X109441541Y-101311247D01*
X109917732Y-101073152D02*
X109917732Y-101739819D01*
X109917732Y-101168390D02*
X109965351Y-101120771D01*
X109965351Y-101120771D02*
X110060589Y-101073152D01*
X110060589Y-101073152D02*
X110203446Y-101073152D01*
X110203446Y-101073152D02*
X110298684Y-101120771D01*
X110298684Y-101120771D02*
X110346303Y-101216009D01*
X110346303Y-101216009D02*
X110346303Y-101739819D01*
X110727256Y-101073152D02*
X110965351Y-101739819D01*
X111203446Y-101073152D02*
X110965351Y-101739819D01*
X110965351Y-101739819D02*
X110870113Y-101977914D01*
X110870113Y-101977914D02*
X110822494Y-102025533D01*
X110822494Y-102025533D02*
X110727256Y-102073152D01*
X177508866Y-78313220D02*
X177508866Y-77551316D01*
X177076779Y-85108866D02*
X177838684Y-85108866D01*
X177457731Y-85489819D02*
X177457731Y-84727914D01*
X171627255Y-84649819D02*
X171817731Y-84649819D01*
X171817731Y-84649819D02*
X171912969Y-84697438D01*
X171912969Y-84697438D02*
X172008207Y-84792676D01*
X172008207Y-84792676D02*
X172055826Y-84983152D01*
X172055826Y-84983152D02*
X172055826Y-85316485D01*
X172055826Y-85316485D02*
X172008207Y-85506961D01*
X172008207Y-85506961D02*
X171912969Y-85602200D01*
X171912969Y-85602200D02*
X171817731Y-85649819D01*
X171817731Y-85649819D02*
X171627255Y-85649819D01*
X171627255Y-85649819D02*
X171532017Y-85602200D01*
X171532017Y-85602200D02*
X171436779Y-85506961D01*
X171436779Y-85506961D02*
X171389160Y-85316485D01*
X171389160Y-85316485D02*
X171389160Y-84983152D01*
X171389160Y-84983152D02*
X171436779Y-84792676D01*
X171436779Y-84792676D02*
X171532017Y-84697438D01*
X171532017Y-84697438D02*
X171627255Y-84649819D01*
X172912969Y-84983152D02*
X172912969Y-85649819D01*
X172484398Y-84983152D02*
X172484398Y-85506961D01*
X172484398Y-85506961D02*
X172532017Y-85602200D01*
X172532017Y-85602200D02*
X172627255Y-85649819D01*
X172627255Y-85649819D02*
X172770112Y-85649819D01*
X172770112Y-85649819D02*
X172865350Y-85602200D01*
X172865350Y-85602200D02*
X172912969Y-85554580D01*
X173246303Y-84983152D02*
X173627255Y-84983152D01*
X173389160Y-84649819D02*
X173389160Y-85506961D01*
X173389160Y-85506961D02*
X173436779Y-85602200D01*
X173436779Y-85602200D02*
X173532017Y-85649819D01*
X173532017Y-85649819D02*
X173627255Y-85649819D01*
X173960589Y-84983152D02*
X173960589Y-85983152D01*
X173960589Y-85030771D02*
X174055827Y-84983152D01*
X174055827Y-84983152D02*
X174246303Y-84983152D01*
X174246303Y-84983152D02*
X174341541Y-85030771D01*
X174341541Y-85030771D02*
X174389160Y-85078390D01*
X174389160Y-85078390D02*
X174436779Y-85173628D01*
X174436779Y-85173628D02*
X174436779Y-85459342D01*
X174436779Y-85459342D02*
X174389160Y-85554580D01*
X174389160Y-85554580D02*
X174341541Y-85602200D01*
X174341541Y-85602200D02*
X174246303Y-85649819D01*
X174246303Y-85649819D02*
X174055827Y-85649819D01*
X174055827Y-85649819D02*
X173960589Y-85602200D01*
X175293922Y-84983152D02*
X175293922Y-85649819D01*
X174865351Y-84983152D02*
X174865351Y-85506961D01*
X174865351Y-85506961D02*
X174912970Y-85602200D01*
X174912970Y-85602200D02*
X175008208Y-85649819D01*
X175008208Y-85649819D02*
X175151065Y-85649819D01*
X175151065Y-85649819D02*
X175246303Y-85602200D01*
X175246303Y-85602200D02*
X175293922Y-85554580D01*
X175627256Y-84983152D02*
X176008208Y-84983152D01*
X175770113Y-84649819D02*
X175770113Y-85506961D01*
X175770113Y-85506961D02*
X175817732Y-85602200D01*
X175817732Y-85602200D02*
X175912970Y-85649819D01*
X175912970Y-85649819D02*
X176008208Y-85649819D01*
X103376779Y-85649819D02*
X103376779Y-84649819D01*
X103852969Y-84983152D02*
X103852969Y-85649819D01*
X103852969Y-85078390D02*
X103900588Y-85030771D01*
X103900588Y-85030771D02*
X103995826Y-84983152D01*
X103995826Y-84983152D02*
X104138683Y-84983152D01*
X104138683Y-84983152D02*
X104233921Y-85030771D01*
X104233921Y-85030771D02*
X104281540Y-85126009D01*
X104281540Y-85126009D02*
X104281540Y-85649819D01*
X104757731Y-84983152D02*
X104757731Y-85983152D01*
X104757731Y-85030771D02*
X104852969Y-84983152D01*
X104852969Y-84983152D02*
X105043445Y-84983152D01*
X105043445Y-84983152D02*
X105138683Y-85030771D01*
X105138683Y-85030771D02*
X105186302Y-85078390D01*
X105186302Y-85078390D02*
X105233921Y-85173628D01*
X105233921Y-85173628D02*
X105233921Y-85459342D01*
X105233921Y-85459342D02*
X105186302Y-85554580D01*
X105186302Y-85554580D02*
X105138683Y-85602200D01*
X105138683Y-85602200D02*
X105043445Y-85649819D01*
X105043445Y-85649819D02*
X104852969Y-85649819D01*
X104852969Y-85649819D02*
X104757731Y-85602200D01*
X106091064Y-84983152D02*
X106091064Y-85649819D01*
X105662493Y-84983152D02*
X105662493Y-85506961D01*
X105662493Y-85506961D02*
X105710112Y-85602200D01*
X105710112Y-85602200D02*
X105805350Y-85649819D01*
X105805350Y-85649819D02*
X105948207Y-85649819D01*
X105948207Y-85649819D02*
X106043445Y-85602200D01*
X106043445Y-85602200D02*
X106091064Y-85554580D01*
X106424398Y-84983152D02*
X106805350Y-84983152D01*
X106567255Y-84649819D02*
X106567255Y-85506961D01*
X106567255Y-85506961D02*
X106614874Y-85602200D01*
X106614874Y-85602200D02*
X106710112Y-85649819D01*
X106710112Y-85649819D02*
X106805350Y-85649819D01*
X117874819Y-83336666D02*
X117398628Y-83669999D01*
X117874819Y-83908094D02*
X116874819Y-83908094D01*
X116874819Y-83908094D02*
X116874819Y-83527142D01*
X116874819Y-83527142D02*
X116922438Y-83431904D01*
X116922438Y-83431904D02*
X116970057Y-83384285D01*
X116970057Y-83384285D02*
X117065295Y-83336666D01*
X117065295Y-83336666D02*
X117208152Y-83336666D01*
X117208152Y-83336666D02*
X117303390Y-83384285D01*
X117303390Y-83384285D02*
X117351009Y-83431904D01*
X117351009Y-83431904D02*
X117398628Y-83527142D01*
X117398628Y-83527142D02*
X117398628Y-83908094D01*
X116874819Y-82431904D02*
X116874819Y-82908094D01*
X116874819Y-82908094D02*
X117351009Y-82955713D01*
X117351009Y-82955713D02*
X117303390Y-82908094D01*
X117303390Y-82908094D02*
X117255771Y-82812856D01*
X117255771Y-82812856D02*
X117255771Y-82574761D01*
X117255771Y-82574761D02*
X117303390Y-82479523D01*
X117303390Y-82479523D02*
X117351009Y-82431904D01*
X117351009Y-82431904D02*
X117446247Y-82384285D01*
X117446247Y-82384285D02*
X117684342Y-82384285D01*
X117684342Y-82384285D02*
X117779580Y-82431904D01*
X117779580Y-82431904D02*
X117827200Y-82479523D01*
X117827200Y-82479523D02*
X117874819Y-82574761D01*
X117874819Y-82574761D02*
X117874819Y-82812856D01*
X117874819Y-82812856D02*
X117827200Y-82908094D01*
X117827200Y-82908094D02*
X117779580Y-82955713D01*
X149223333Y-92009580D02*
X149175714Y-92057200D01*
X149175714Y-92057200D02*
X149032857Y-92104819D01*
X149032857Y-92104819D02*
X148937619Y-92104819D01*
X148937619Y-92104819D02*
X148794762Y-92057200D01*
X148794762Y-92057200D02*
X148699524Y-91961961D01*
X148699524Y-91961961D02*
X148651905Y-91866723D01*
X148651905Y-91866723D02*
X148604286Y-91676247D01*
X148604286Y-91676247D02*
X148604286Y-91533390D01*
X148604286Y-91533390D02*
X148651905Y-91342914D01*
X148651905Y-91342914D02*
X148699524Y-91247676D01*
X148699524Y-91247676D02*
X148794762Y-91152438D01*
X148794762Y-91152438D02*
X148937619Y-91104819D01*
X148937619Y-91104819D02*
X149032857Y-91104819D01*
X149032857Y-91104819D02*
X149175714Y-91152438D01*
X149175714Y-91152438D02*
X149223333Y-91200057D01*
X150128095Y-91104819D02*
X149651905Y-91104819D01*
X149651905Y-91104819D02*
X149604286Y-91581009D01*
X149604286Y-91581009D02*
X149651905Y-91533390D01*
X149651905Y-91533390D02*
X149747143Y-91485771D01*
X149747143Y-91485771D02*
X149985238Y-91485771D01*
X149985238Y-91485771D02*
X150080476Y-91533390D01*
X150080476Y-91533390D02*
X150128095Y-91581009D01*
X150128095Y-91581009D02*
X150175714Y-91676247D01*
X150175714Y-91676247D02*
X150175714Y-91914342D01*
X150175714Y-91914342D02*
X150128095Y-92009580D01*
X150128095Y-92009580D02*
X150080476Y-92057200D01*
X150080476Y-92057200D02*
X149985238Y-92104819D01*
X149985238Y-92104819D02*
X149747143Y-92104819D01*
X149747143Y-92104819D02*
X149651905Y-92057200D01*
X149651905Y-92057200D02*
X149604286Y-92009580D01*
X126563333Y-93289580D02*
X126515714Y-93337200D01*
X126515714Y-93337200D02*
X126372857Y-93384819D01*
X126372857Y-93384819D02*
X126277619Y-93384819D01*
X126277619Y-93384819D02*
X126134762Y-93337200D01*
X126134762Y-93337200D02*
X126039524Y-93241961D01*
X126039524Y-93241961D02*
X125991905Y-93146723D01*
X125991905Y-93146723D02*
X125944286Y-92956247D01*
X125944286Y-92956247D02*
X125944286Y-92813390D01*
X125944286Y-92813390D02*
X125991905Y-92622914D01*
X125991905Y-92622914D02*
X126039524Y-92527676D01*
X126039524Y-92527676D02*
X126134762Y-92432438D01*
X126134762Y-92432438D02*
X126277619Y-92384819D01*
X126277619Y-92384819D02*
X126372857Y-92384819D01*
X126372857Y-92384819D02*
X126515714Y-92432438D01*
X126515714Y-92432438D02*
X126563333Y-92480057D01*
X127515714Y-93384819D02*
X126944286Y-93384819D01*
X127230000Y-93384819D02*
X127230000Y-92384819D01*
X127230000Y-92384819D02*
X127134762Y-92527676D01*
X127134762Y-92527676D02*
X127039524Y-92622914D01*
X127039524Y-92622914D02*
X126944286Y-92670533D01*
X135613333Y-100869580D02*
X135565714Y-100917200D01*
X135565714Y-100917200D02*
X135422857Y-100964819D01*
X135422857Y-100964819D02*
X135327619Y-100964819D01*
X135327619Y-100964819D02*
X135184762Y-100917200D01*
X135184762Y-100917200D02*
X135089524Y-100821961D01*
X135089524Y-100821961D02*
X135041905Y-100726723D01*
X135041905Y-100726723D02*
X134994286Y-100536247D01*
X134994286Y-100536247D02*
X134994286Y-100393390D01*
X134994286Y-100393390D02*
X135041905Y-100202914D01*
X135041905Y-100202914D02*
X135089524Y-100107676D01*
X135089524Y-100107676D02*
X135184762Y-100012438D01*
X135184762Y-100012438D02*
X135327619Y-99964819D01*
X135327619Y-99964819D02*
X135422857Y-99964819D01*
X135422857Y-99964819D02*
X135565714Y-100012438D01*
X135565714Y-100012438D02*
X135613333Y-100060057D01*
X135994286Y-100060057D02*
X136041905Y-100012438D01*
X136041905Y-100012438D02*
X136137143Y-99964819D01*
X136137143Y-99964819D02*
X136375238Y-99964819D01*
X136375238Y-99964819D02*
X136470476Y-100012438D01*
X136470476Y-100012438D02*
X136518095Y-100060057D01*
X136518095Y-100060057D02*
X136565714Y-100155295D01*
X136565714Y-100155295D02*
X136565714Y-100250533D01*
X136565714Y-100250533D02*
X136518095Y-100393390D01*
X136518095Y-100393390D02*
X135946667Y-100964819D01*
X135946667Y-100964819D02*
X136565714Y-100964819D01*
X142565833Y-94444819D02*
X142232500Y-93968628D01*
X141994405Y-94444819D02*
X141994405Y-93444819D01*
X141994405Y-93444819D02*
X142375357Y-93444819D01*
X142375357Y-93444819D02*
X142470595Y-93492438D01*
X142470595Y-93492438D02*
X142518214Y-93540057D01*
X142518214Y-93540057D02*
X142565833Y-93635295D01*
X142565833Y-93635295D02*
X142565833Y-93778152D01*
X142565833Y-93778152D02*
X142518214Y-93873390D01*
X142518214Y-93873390D02*
X142470595Y-93921009D01*
X142470595Y-93921009D02*
X142375357Y-93968628D01*
X142375357Y-93968628D02*
X141994405Y-93968628D01*
X143518214Y-94444819D02*
X142946786Y-94444819D01*
X143232500Y-94444819D02*
X143232500Y-93444819D01*
X143232500Y-93444819D02*
X143137262Y-93587676D01*
X143137262Y-93587676D02*
X143042024Y-93682914D01*
X143042024Y-93682914D02*
X142946786Y-93730533D01*
X109906666Y-107701009D02*
X109573333Y-107701009D01*
X109573333Y-108224819D02*
X109573333Y-107224819D01*
X109573333Y-107224819D02*
X110049523Y-107224819D01*
X110954285Y-108224819D02*
X110382857Y-108224819D01*
X110668571Y-108224819D02*
X110668571Y-107224819D01*
X110668571Y-107224819D02*
X110573333Y-107367676D01*
X110573333Y-107367676D02*
X110478095Y-107462914D01*
X110478095Y-107462914D02*
X110382857Y-107510533D01*
X172286666Y-77434819D02*
X172286666Y-78149104D01*
X172286666Y-78149104D02*
X172239047Y-78291961D01*
X172239047Y-78291961D02*
X172143809Y-78387200D01*
X172143809Y-78387200D02*
X172000952Y-78434819D01*
X172000952Y-78434819D02*
X171905714Y-78434819D01*
X172715238Y-77530057D02*
X172762857Y-77482438D01*
X172762857Y-77482438D02*
X172858095Y-77434819D01*
X172858095Y-77434819D02*
X173096190Y-77434819D01*
X173096190Y-77434819D02*
X173191428Y-77482438D01*
X173191428Y-77482438D02*
X173239047Y-77530057D01*
X173239047Y-77530057D02*
X173286666Y-77625295D01*
X173286666Y-77625295D02*
X173286666Y-77720533D01*
X173286666Y-77720533D02*
X173239047Y-77863390D01*
X173239047Y-77863390D02*
X172667619Y-78434819D01*
X172667619Y-78434819D02*
X173286666Y-78434819D01*
X144323333Y-114754819D02*
X143990000Y-114278628D01*
X143751905Y-114754819D02*
X143751905Y-113754819D01*
X143751905Y-113754819D02*
X144132857Y-113754819D01*
X144132857Y-113754819D02*
X144228095Y-113802438D01*
X144228095Y-113802438D02*
X144275714Y-113850057D01*
X144275714Y-113850057D02*
X144323333Y-113945295D01*
X144323333Y-113945295D02*
X144323333Y-114088152D01*
X144323333Y-114088152D02*
X144275714Y-114183390D01*
X144275714Y-114183390D02*
X144228095Y-114231009D01*
X144228095Y-114231009D02*
X144132857Y-114278628D01*
X144132857Y-114278628D02*
X143751905Y-114278628D01*
X145180476Y-114088152D02*
X145180476Y-114754819D01*
X144942381Y-113707200D02*
X144704286Y-114421485D01*
X144704286Y-114421485D02*
X145323333Y-114421485D01*
X124813334Y-88819580D02*
X124765715Y-88867200D01*
X124765715Y-88867200D02*
X124622858Y-88914819D01*
X124622858Y-88914819D02*
X124527620Y-88914819D01*
X124527620Y-88914819D02*
X124384763Y-88867200D01*
X124384763Y-88867200D02*
X124289525Y-88771961D01*
X124289525Y-88771961D02*
X124241906Y-88676723D01*
X124241906Y-88676723D02*
X124194287Y-88486247D01*
X124194287Y-88486247D02*
X124194287Y-88343390D01*
X124194287Y-88343390D02*
X124241906Y-88152914D01*
X124241906Y-88152914D02*
X124289525Y-88057676D01*
X124289525Y-88057676D02*
X124384763Y-87962438D01*
X124384763Y-87962438D02*
X124527620Y-87914819D01*
X124527620Y-87914819D02*
X124622858Y-87914819D01*
X124622858Y-87914819D02*
X124765715Y-87962438D01*
X124765715Y-87962438D02*
X124813334Y-88010057D01*
X125146668Y-87914819D02*
X125765715Y-87914819D01*
X125765715Y-87914819D02*
X125432382Y-88295771D01*
X125432382Y-88295771D02*
X125575239Y-88295771D01*
X125575239Y-88295771D02*
X125670477Y-88343390D01*
X125670477Y-88343390D02*
X125718096Y-88391009D01*
X125718096Y-88391009D02*
X125765715Y-88486247D01*
X125765715Y-88486247D02*
X125765715Y-88724342D01*
X125765715Y-88724342D02*
X125718096Y-88819580D01*
X125718096Y-88819580D02*
X125670477Y-88867200D01*
X125670477Y-88867200D02*
X125575239Y-88914819D01*
X125575239Y-88914819D02*
X125289525Y-88914819D01*
X125289525Y-88914819D02*
X125194287Y-88867200D01*
X125194287Y-88867200D02*
X125146668Y-88819580D01*
X138313333Y-96264819D02*
X137980000Y-95788628D01*
X137741905Y-96264819D02*
X137741905Y-95264819D01*
X137741905Y-95264819D02*
X138122857Y-95264819D01*
X138122857Y-95264819D02*
X138218095Y-95312438D01*
X138218095Y-95312438D02*
X138265714Y-95360057D01*
X138265714Y-95360057D02*
X138313333Y-95455295D01*
X138313333Y-95455295D02*
X138313333Y-95598152D01*
X138313333Y-95598152D02*
X138265714Y-95693390D01*
X138265714Y-95693390D02*
X138218095Y-95741009D01*
X138218095Y-95741009D02*
X138122857Y-95788628D01*
X138122857Y-95788628D02*
X137741905Y-95788628D01*
X138694286Y-95360057D02*
X138741905Y-95312438D01*
X138741905Y-95312438D02*
X138837143Y-95264819D01*
X138837143Y-95264819D02*
X139075238Y-95264819D01*
X139075238Y-95264819D02*
X139170476Y-95312438D01*
X139170476Y-95312438D02*
X139218095Y-95360057D01*
X139218095Y-95360057D02*
X139265714Y-95455295D01*
X139265714Y-95455295D02*
X139265714Y-95550533D01*
X139265714Y-95550533D02*
X139218095Y-95693390D01*
X139218095Y-95693390D02*
X138646667Y-96264819D01*
X138646667Y-96264819D02*
X139265714Y-96264819D01*
X149431905Y-84594819D02*
X149431905Y-83594819D01*
X149431905Y-83594819D02*
X149670000Y-83594819D01*
X149670000Y-83594819D02*
X149812857Y-83642438D01*
X149812857Y-83642438D02*
X149908095Y-83737676D01*
X149908095Y-83737676D02*
X149955714Y-83832914D01*
X149955714Y-83832914D02*
X150003333Y-84023390D01*
X150003333Y-84023390D02*
X150003333Y-84166247D01*
X150003333Y-84166247D02*
X149955714Y-84356723D01*
X149955714Y-84356723D02*
X149908095Y-84451961D01*
X149908095Y-84451961D02*
X149812857Y-84547200D01*
X149812857Y-84547200D02*
X149670000Y-84594819D01*
X149670000Y-84594819D02*
X149431905Y-84594819D01*
X150955714Y-84594819D02*
X150384286Y-84594819D01*
X150670000Y-84594819D02*
X150670000Y-83594819D01*
X150670000Y-83594819D02*
X150574762Y-83737676D01*
X150574762Y-83737676D02*
X150479524Y-83832914D01*
X150479524Y-83832914D02*
X150384286Y-83880533D01*
X161468095Y-90614819D02*
X161468095Y-89614819D01*
X162039523Y-90614819D02*
X161610952Y-90043390D01*
X162039523Y-89614819D02*
X161468095Y-90186247D01*
X114094405Y-78642319D02*
X114094405Y-77642319D01*
X114094405Y-77642319D02*
X114332500Y-77642319D01*
X114332500Y-77642319D02*
X114475357Y-77689938D01*
X114475357Y-77689938D02*
X114570595Y-77785176D01*
X114570595Y-77785176D02*
X114618214Y-77880414D01*
X114618214Y-77880414D02*
X114665833Y-78070890D01*
X114665833Y-78070890D02*
X114665833Y-78213747D01*
X114665833Y-78213747D02*
X114618214Y-78404223D01*
X114618214Y-78404223D02*
X114570595Y-78499461D01*
X114570595Y-78499461D02*
X114475357Y-78594700D01*
X114475357Y-78594700D02*
X114332500Y-78642319D01*
X114332500Y-78642319D02*
X114094405Y-78642319D01*
X115046786Y-77737557D02*
X115094405Y-77689938D01*
X115094405Y-77689938D02*
X115189643Y-77642319D01*
X115189643Y-77642319D02*
X115427738Y-77642319D01*
X115427738Y-77642319D02*
X115522976Y-77689938D01*
X115522976Y-77689938D02*
X115570595Y-77737557D01*
X115570595Y-77737557D02*
X115618214Y-77832795D01*
X115618214Y-77832795D02*
X115618214Y-77928033D01*
X115618214Y-77928033D02*
X115570595Y-78070890D01*
X115570595Y-78070890D02*
X114999167Y-78642319D01*
X114999167Y-78642319D02*
X115618214Y-78642319D01*
X106146666Y-77464819D02*
X106146666Y-78179104D01*
X106146666Y-78179104D02*
X106099047Y-78321961D01*
X106099047Y-78321961D02*
X106003809Y-78417200D01*
X106003809Y-78417200D02*
X105860952Y-78464819D01*
X105860952Y-78464819D02*
X105765714Y-78464819D01*
X107146666Y-78464819D02*
X106575238Y-78464819D01*
X106860952Y-78464819D02*
X106860952Y-77464819D01*
X106860952Y-77464819D02*
X106765714Y-77607676D01*
X106765714Y-77607676D02*
X106670476Y-77702914D01*
X106670476Y-77702914D02*
X106575238Y-77750533D01*
X154163333Y-92194819D02*
X153830000Y-91718628D01*
X153591905Y-92194819D02*
X153591905Y-91194819D01*
X153591905Y-91194819D02*
X153972857Y-91194819D01*
X153972857Y-91194819D02*
X154068095Y-91242438D01*
X154068095Y-91242438D02*
X154115714Y-91290057D01*
X154115714Y-91290057D02*
X154163333Y-91385295D01*
X154163333Y-91385295D02*
X154163333Y-91528152D01*
X154163333Y-91528152D02*
X154115714Y-91623390D01*
X154115714Y-91623390D02*
X154068095Y-91671009D01*
X154068095Y-91671009D02*
X153972857Y-91718628D01*
X153972857Y-91718628D02*
X153591905Y-91718628D01*
X154496667Y-91194819D02*
X155115714Y-91194819D01*
X155115714Y-91194819D02*
X154782381Y-91575771D01*
X154782381Y-91575771D02*
X154925238Y-91575771D01*
X154925238Y-91575771D02*
X155020476Y-91623390D01*
X155020476Y-91623390D02*
X155068095Y-91671009D01*
X155068095Y-91671009D02*
X155115714Y-91766247D01*
X155115714Y-91766247D02*
X155115714Y-92004342D01*
X155115714Y-92004342D02*
X155068095Y-92099580D01*
X155068095Y-92099580D02*
X155020476Y-92147200D01*
X155020476Y-92147200D02*
X154925238Y-92194819D01*
X154925238Y-92194819D02*
X154639524Y-92194819D01*
X154639524Y-92194819D02*
X154544286Y-92147200D01*
X154544286Y-92147200D02*
X154496667Y-92099580D01*
X146958095Y-95744819D02*
X146958095Y-96554342D01*
X146958095Y-96554342D02*
X147005714Y-96649580D01*
X147005714Y-96649580D02*
X147053333Y-96697200D01*
X147053333Y-96697200D02*
X147148571Y-96744819D01*
X147148571Y-96744819D02*
X147339047Y-96744819D01*
X147339047Y-96744819D02*
X147434285Y-96697200D01*
X147434285Y-96697200D02*
X147481904Y-96649580D01*
X147481904Y-96649580D02*
X147529523Y-96554342D01*
X147529523Y-96554342D02*
X147529523Y-95744819D01*
X148529523Y-96744819D02*
X147958095Y-96744819D01*
X148243809Y-96744819D02*
X148243809Y-95744819D01*
X148243809Y-95744819D02*
X148148571Y-95887676D01*
X148148571Y-95887676D02*
X148053333Y-95982914D01*
X148053333Y-95982914D02*
X147958095Y-96030533D01*
D12*
%TO.C,R5*%
X116505000Y-82942936D02*
X116505000Y-83397064D01*
X115035000Y-82942936D02*
X115035000Y-83397064D01*
%TO.C,C5*%
X149128748Y-92595000D02*
X149651252Y-92595000D01*
X149128748Y-94065000D02*
X149651252Y-94065000D01*
%TO.C,C1*%
X119645431Y-96965000D02*
X120945431Y-96965000D01*
X120295431Y-96315000D02*
X120295431Y-97615000D01*
X126730000Y-94100000D02*
X126730000Y-107260000D01*
X126770000Y-94100000D02*
X126770000Y-107260000D01*
X126810000Y-94100000D02*
X126810000Y-107260000D01*
X126850000Y-94101000D02*
X126850000Y-107259000D01*
X126890000Y-94101000D02*
X126890000Y-107259000D01*
X126930000Y-94103000D02*
X126930000Y-107257000D01*
X126970000Y-94104000D02*
X126970000Y-107256000D01*
X127010000Y-94105000D02*
X127010000Y-107255000D01*
X127050000Y-94107000D02*
X127050000Y-107253000D01*
X127090000Y-94109000D02*
X127090000Y-107251000D01*
X127130000Y-94112000D02*
X127130000Y-107248000D01*
X127170000Y-94114000D02*
X127170000Y-107246000D01*
X127210000Y-94117000D02*
X127210000Y-107243000D01*
X127250000Y-94120000D02*
X127250000Y-107240000D01*
X127290000Y-94123000D02*
X127290000Y-107237000D01*
X127330000Y-94127000D02*
X127330000Y-107233000D01*
X127370000Y-94131000D02*
X127370000Y-107229000D01*
X127410000Y-94135000D02*
X127410000Y-107225000D01*
X127451000Y-94139000D02*
X127451000Y-107221000D01*
X127491000Y-94143000D02*
X127491000Y-107217000D01*
X127531000Y-94148000D02*
X127531000Y-107212000D01*
X127571000Y-94153000D02*
X127571000Y-107207000D01*
X127611000Y-94158000D02*
X127611000Y-107202000D01*
X127651000Y-94164000D02*
X127651000Y-107196000D01*
X127691000Y-94169000D02*
X127691000Y-107191000D01*
X127731000Y-94175000D02*
X127731000Y-107185000D01*
X127771000Y-94182000D02*
X127771000Y-107178000D01*
X127811000Y-94188000D02*
X127811000Y-99240000D01*
X127811000Y-102120000D02*
X127811000Y-107172000D01*
X127851000Y-94195000D02*
X127851000Y-99240000D01*
X127851000Y-102120000D02*
X127851000Y-107165000D01*
X127891000Y-94202000D02*
X127891000Y-99240000D01*
X127891000Y-102120000D02*
X127891000Y-107158000D01*
X127931000Y-94209000D02*
X127931000Y-99240000D01*
X127931000Y-102120000D02*
X127931000Y-107151000D01*
X127971000Y-94217000D02*
X127971000Y-99240000D01*
X127971000Y-102120000D02*
X127971000Y-107143000D01*
X128011000Y-94224000D02*
X128011000Y-99240000D01*
X128011000Y-102120000D02*
X128011000Y-107136000D01*
X128051000Y-94232000D02*
X128051000Y-99240000D01*
X128051000Y-102120000D02*
X128051000Y-107128000D01*
X128091000Y-94241000D02*
X128091000Y-99240000D01*
X128091000Y-102120000D02*
X128091000Y-107119000D01*
X128131000Y-94249000D02*
X128131000Y-99240000D01*
X128131000Y-102120000D02*
X128131000Y-107111000D01*
X128171000Y-94258000D02*
X128171000Y-99240000D01*
X128171000Y-102120000D02*
X128171000Y-107102000D01*
X128211000Y-94267000D02*
X128211000Y-99240000D01*
X128211000Y-102120000D02*
X128211000Y-107093000D01*
X128251000Y-94276000D02*
X128251000Y-99240000D01*
X128251000Y-102120000D02*
X128251000Y-107084000D01*
X128291000Y-94286000D02*
X128291000Y-99240000D01*
X128291000Y-102120000D02*
X128291000Y-107074000D01*
X128331000Y-94296000D02*
X128331000Y-99240000D01*
X128331000Y-102120000D02*
X128331000Y-107064000D01*
X128371000Y-94306000D02*
X128371000Y-99240000D01*
X128371000Y-102120000D02*
X128371000Y-107054000D01*
X128411000Y-94316000D02*
X128411000Y-99240000D01*
X128411000Y-102120000D02*
X128411000Y-107044000D01*
X128451000Y-94327000D02*
X128451000Y-99240000D01*
X128451000Y-102120000D02*
X128451000Y-107033000D01*
X128491000Y-94338000D02*
X128491000Y-99240000D01*
X128491000Y-102120000D02*
X128491000Y-107022000D01*
X128531000Y-94349000D02*
X128531000Y-99240000D01*
X128531000Y-102120000D02*
X128531000Y-107011000D01*
X128571000Y-94360000D02*
X128571000Y-99240000D01*
X128571000Y-102120000D02*
X128571000Y-107000000D01*
X128611000Y-94372000D02*
X128611000Y-99240000D01*
X128611000Y-102120000D02*
X128611000Y-106988000D01*
X128651000Y-94384000D02*
X128651000Y-99240000D01*
X128651000Y-102120000D02*
X128651000Y-106976000D01*
X128691000Y-94396000D02*
X128691000Y-99240000D01*
X128691000Y-102120000D02*
X128691000Y-106964000D01*
X128731000Y-94409000D02*
X128731000Y-99240000D01*
X128731000Y-102120000D02*
X128731000Y-106951000D01*
X128771000Y-94422000D02*
X128771000Y-99240000D01*
X128771000Y-102120000D02*
X128771000Y-106938000D01*
X128811000Y-94435000D02*
X128811000Y-99240000D01*
X128811000Y-102120000D02*
X128811000Y-106925000D01*
X128851000Y-94448000D02*
X128851000Y-99240000D01*
X128851000Y-102120000D02*
X128851000Y-106912000D01*
X128891000Y-94462000D02*
X128891000Y-99240000D01*
X128891000Y-102120000D02*
X128891000Y-106898000D01*
X128931000Y-94476000D02*
X128931000Y-99240000D01*
X128931000Y-102120000D02*
X128931000Y-106884000D01*
X128971000Y-94490000D02*
X128971000Y-99240000D01*
X128971000Y-102120000D02*
X128971000Y-106870000D01*
X129011000Y-94505000D02*
X129011000Y-99240000D01*
X129011000Y-102120000D02*
X129011000Y-106855000D01*
X129051000Y-94519000D02*
X129051000Y-99240000D01*
X129051000Y-102120000D02*
X129051000Y-106841000D01*
X129091000Y-94534000D02*
X129091000Y-99240000D01*
X129091000Y-102120000D02*
X129091000Y-106826000D01*
X129131000Y-94550000D02*
X129131000Y-99240000D01*
X129131000Y-102120000D02*
X129131000Y-106810000D01*
X129171000Y-94566000D02*
X129171000Y-99240000D01*
X129171000Y-102120000D02*
X129171000Y-106794000D01*
X129211000Y-94582000D02*
X129211000Y-99240000D01*
X129211000Y-102120000D02*
X129211000Y-106778000D01*
X129251000Y-94598000D02*
X129251000Y-99240000D01*
X129251000Y-102120000D02*
X129251000Y-106762000D01*
X129291000Y-94615000D02*
X129291000Y-99240000D01*
X129291000Y-102120000D02*
X129291000Y-106745000D01*
X129331000Y-94631000D02*
X129331000Y-99240000D01*
X129331000Y-102120000D02*
X129331000Y-106729000D01*
X129371000Y-94649000D02*
X129371000Y-99240000D01*
X129371000Y-102120000D02*
X129371000Y-106711000D01*
X129411000Y-94666000D02*
X129411000Y-99240000D01*
X129411000Y-102120000D02*
X129411000Y-106694000D01*
X129451000Y-94684000D02*
X129451000Y-99240000D01*
X129451000Y-102120000D02*
X129451000Y-106676000D01*
X129491000Y-94702000D02*
X129491000Y-99240000D01*
X129491000Y-102120000D02*
X129491000Y-106658000D01*
X129531000Y-94721000D02*
X129531000Y-99240000D01*
X129531000Y-102120000D02*
X129531000Y-106639000D01*
X129571000Y-94740000D02*
X129571000Y-99240000D01*
X129571000Y-102120000D02*
X129571000Y-106620000D01*
X129611000Y-94759000D02*
X129611000Y-99240000D01*
X129611000Y-102120000D02*
X129611000Y-106601000D01*
X129651000Y-94778000D02*
X129651000Y-99240000D01*
X129651000Y-102120000D02*
X129651000Y-106582000D01*
X129691000Y-94798000D02*
X129691000Y-99240000D01*
X129691000Y-102120000D02*
X129691000Y-106562000D01*
X129731000Y-94818000D02*
X129731000Y-99240000D01*
X129731000Y-102120000D02*
X129731000Y-106542000D01*
X129771000Y-94839000D02*
X129771000Y-99240000D01*
X129771000Y-102120000D02*
X129771000Y-106521000D01*
X129811000Y-94860000D02*
X129811000Y-99240000D01*
X129811000Y-102120000D02*
X129811000Y-106500000D01*
X129851000Y-94881000D02*
X129851000Y-99240000D01*
X129851000Y-102120000D02*
X129851000Y-106479000D01*
X129891000Y-94902000D02*
X129891000Y-99240000D01*
X129891000Y-102120000D02*
X129891000Y-106458000D01*
X129931000Y-94924000D02*
X129931000Y-99240000D01*
X129931000Y-102120000D02*
X129931000Y-106436000D01*
X129971000Y-94947000D02*
X129971000Y-99240000D01*
X129971000Y-102120000D02*
X129971000Y-106413000D01*
X130011000Y-94969000D02*
X130011000Y-99240000D01*
X130011000Y-102120000D02*
X130011000Y-106391000D01*
X130051000Y-94992000D02*
X130051000Y-99240000D01*
X130051000Y-102120000D02*
X130051000Y-106368000D01*
X130091000Y-95016000D02*
X130091000Y-99240000D01*
X130091000Y-102120000D02*
X130091000Y-106344000D01*
X130131000Y-95039000D02*
X130131000Y-99240000D01*
X130131000Y-102120000D02*
X130131000Y-106321000D01*
X130171000Y-95063000D02*
X130171000Y-99240000D01*
X130171000Y-102120000D02*
X130171000Y-106297000D01*
X130211000Y-95088000D02*
X130211000Y-99240000D01*
X130211000Y-102120000D02*
X130211000Y-106272000D01*
X130251000Y-95113000D02*
X130251000Y-99240000D01*
X130251000Y-102120000D02*
X130251000Y-106247000D01*
X130291000Y-95138000D02*
X130291000Y-99240000D01*
X130291000Y-102120000D02*
X130291000Y-106222000D01*
X130331000Y-95164000D02*
X130331000Y-99240000D01*
X130331000Y-102120000D02*
X130331000Y-106196000D01*
X130371000Y-95190000D02*
X130371000Y-99240000D01*
X130371000Y-102120000D02*
X130371000Y-106170000D01*
X130411000Y-95217000D02*
X130411000Y-99240000D01*
X130411000Y-102120000D02*
X130411000Y-106143000D01*
X130451000Y-95244000D02*
X130451000Y-99240000D01*
X130451000Y-102120000D02*
X130451000Y-106116000D01*
X130491000Y-95271000D02*
X130491000Y-99240000D01*
X130491000Y-102120000D02*
X130491000Y-106089000D01*
X130531000Y-95299000D02*
X130531000Y-99240000D01*
X130531000Y-102120000D02*
X130531000Y-106061000D01*
X130571000Y-95327000D02*
X130571000Y-99240000D01*
X130571000Y-102120000D02*
X130571000Y-106033000D01*
X130611000Y-95356000D02*
X130611000Y-99240000D01*
X130611000Y-102120000D02*
X130611000Y-106004000D01*
X130651000Y-95385000D02*
X130651000Y-99240000D01*
X130651000Y-102120000D02*
X130651000Y-105975000D01*
X130691000Y-95415000D02*
X130691000Y-105945000D01*
X130731000Y-95445000D02*
X130731000Y-105915000D01*
X130771000Y-95475000D02*
X130771000Y-105885000D01*
X130811000Y-95506000D02*
X130811000Y-105854000D01*
X130851000Y-95538000D02*
X130851000Y-105822000D01*
X130891000Y-95570000D02*
X130891000Y-105790000D01*
X130931000Y-95602000D02*
X130931000Y-105758000D01*
X130971000Y-95636000D02*
X130971000Y-105724000D01*
X131011000Y-95669000D02*
X131011000Y-105691000D01*
X131051000Y-95703000D02*
X131051000Y-105657000D01*
X131091000Y-95738000D02*
X131091000Y-105622000D01*
X131131000Y-95773000D02*
X131131000Y-105587000D01*
X131171000Y-95809000D02*
X131171000Y-105551000D01*
X131211000Y-95846000D02*
X131211000Y-105514000D01*
X131251000Y-95883000D02*
X131251000Y-105477000D01*
X131291000Y-95920000D02*
X131291000Y-105440000D01*
X131331000Y-95959000D02*
X131331000Y-105401000D01*
X131371000Y-95998000D02*
X131371000Y-105362000D01*
X131411000Y-96037000D02*
X131411000Y-105323000D01*
X131451000Y-96078000D02*
X131451000Y-105282000D01*
X131491000Y-96119000D02*
X131491000Y-105241000D01*
X131531000Y-96161000D02*
X131531000Y-105199000D01*
X131571000Y-96203000D02*
X131571000Y-105157000D01*
X131611000Y-96246000D02*
X131611000Y-105114000D01*
X131651000Y-96290000D02*
X131651000Y-105070000D01*
X131691000Y-96335000D02*
X131691000Y-105025000D01*
X131731000Y-96381000D02*
X131731000Y-104979000D01*
X131771000Y-96427000D02*
X131771000Y-104933000D01*
X131811000Y-96475000D02*
X131811000Y-104885000D01*
X131851000Y-96523000D02*
X131851000Y-104837000D01*
X131891000Y-96572000D02*
X131891000Y-104788000D01*
X131931000Y-96623000D02*
X131931000Y-104737000D01*
X131971000Y-96674000D02*
X131971000Y-104686000D01*
X132011000Y-96726000D02*
X132011000Y-104634000D01*
X132051000Y-96780000D02*
X132051000Y-104580000D01*
X132091000Y-96834000D02*
X132091000Y-104526000D01*
X132131000Y-96890000D02*
X132131000Y-104470000D01*
X132171000Y-96947000D02*
X132171000Y-104413000D01*
X132211000Y-97005000D02*
X132211000Y-104355000D01*
X132251000Y-97065000D02*
X132251000Y-104295000D01*
X132291000Y-97126000D02*
X132291000Y-104234000D01*
X132331000Y-97189000D02*
X132331000Y-104171000D01*
X132371000Y-97253000D02*
X132371000Y-104107000D01*
X132411000Y-97319000D02*
X132411000Y-104041000D01*
X132451000Y-97387000D02*
X132451000Y-103973000D01*
X132491000Y-97457000D02*
X132491000Y-103903000D01*
X132531000Y-97528000D02*
X132531000Y-103832000D01*
X132571000Y-97602000D02*
X132571000Y-103758000D01*
X132611000Y-97678000D02*
X132611000Y-103682000D01*
X132651000Y-97757000D02*
X132651000Y-103603000D01*
X132691000Y-97838000D02*
X132691000Y-103522000D01*
X132731000Y-97922000D02*
X132731000Y-103438000D01*
X132771000Y-98010000D02*
X132771000Y-103350000D01*
X132811000Y-98101000D02*
X132811000Y-103259000D01*
X132851000Y-98196000D02*
X132851000Y-103164000D01*
X132891000Y-98295000D02*
X132891000Y-103065000D01*
X132931000Y-98399000D02*
X132931000Y-102961000D01*
X132971000Y-98509000D02*
X132971000Y-102851000D01*
X133011000Y-98625000D02*
X133011000Y-102735000D01*
X133051000Y-98749000D02*
X133051000Y-102611000D01*
X133091000Y-98882000D02*
X133091000Y-102478000D01*
X133131000Y-99027000D02*
X133131000Y-102333000D01*
X133171000Y-99186000D02*
X133171000Y-102174000D01*
X133211000Y-99365000D02*
X133211000Y-101995000D01*
X133251000Y-99573000D02*
X133251000Y-101787000D01*
X133291000Y-99830000D02*
X133291000Y-101530000D01*
X133331000Y-100205000D02*
X133331000Y-101155000D01*
X133350000Y-100680000D02*
G75*
G03*
X133350000Y-100680000I-6620000J0D01*
G01*
%TO.C,C2*%
X134545000Y-105619801D02*
X134545000Y-105219801D01*
X134345000Y-105419801D02*
X134745000Y-105419801D01*
X133660000Y-103350000D02*
X137820000Y-103350000D01*
X133660000Y-103310000D02*
X137820000Y-103310000D01*
X133661000Y-103270000D02*
X137819000Y-103270000D01*
X133663000Y-103230000D02*
X137817000Y-103230000D01*
X133666000Y-103190000D02*
X137814000Y-103190000D01*
X133669000Y-103150000D02*
X134900000Y-103150000D01*
X136580000Y-103150000D02*
X137811000Y-103150000D01*
X133673000Y-103110000D02*
X134900000Y-103110000D01*
X136580000Y-103110000D02*
X137807000Y-103110000D01*
X133678000Y-103070000D02*
X134900000Y-103070000D01*
X136580000Y-103070000D02*
X137802000Y-103070000D01*
X133684000Y-103030000D02*
X134900000Y-103030000D01*
X136580000Y-103030000D02*
X137796000Y-103030000D01*
X133690000Y-102990000D02*
X134900000Y-102990000D01*
X136580000Y-102990000D02*
X137790000Y-102990000D01*
X133698000Y-102950000D02*
X134900000Y-102950000D01*
X136580000Y-102950000D02*
X137782000Y-102950000D01*
X133706000Y-102910000D02*
X134900000Y-102910000D01*
X136580000Y-102910000D02*
X137774000Y-102910000D01*
X133715000Y-102870000D02*
X134900000Y-102870000D01*
X136580000Y-102870000D02*
X137765000Y-102870000D01*
X133724000Y-102830000D02*
X134900000Y-102830000D01*
X136580000Y-102830000D02*
X137756000Y-102830000D01*
X133735000Y-102790000D02*
X134900000Y-102790000D01*
X136580000Y-102790000D02*
X137745000Y-102790000D01*
X133746000Y-102750000D02*
X134900000Y-102750000D01*
X136580000Y-102750000D02*
X137734000Y-102750000D01*
X133758000Y-102710000D02*
X134900000Y-102710000D01*
X136580000Y-102710000D02*
X137722000Y-102710000D01*
X133772000Y-102670000D02*
X134900000Y-102670000D01*
X136580000Y-102670000D02*
X137708000Y-102670000D01*
X133786000Y-102629000D02*
X134900000Y-102629000D01*
X136580000Y-102629000D02*
X137694000Y-102629000D01*
X133800000Y-102589000D02*
X134900000Y-102589000D01*
X136580000Y-102589000D02*
X137680000Y-102589000D01*
X133816000Y-102549000D02*
X134900000Y-102549000D01*
X136580000Y-102549000D02*
X137664000Y-102549000D01*
X133833000Y-102509000D02*
X134900000Y-102509000D01*
X136580000Y-102509000D02*
X137647000Y-102509000D01*
X133851000Y-102469000D02*
X134900000Y-102469000D01*
X136580000Y-102469000D02*
X137629000Y-102469000D01*
X133870000Y-102429000D02*
X134900000Y-102429000D01*
X136580000Y-102429000D02*
X137610000Y-102429000D01*
X133889000Y-102389000D02*
X134900000Y-102389000D01*
X136580000Y-102389000D02*
X137591000Y-102389000D01*
X133910000Y-102349000D02*
X134900000Y-102349000D01*
X136580000Y-102349000D02*
X137570000Y-102349000D01*
X133932000Y-102309000D02*
X134900000Y-102309000D01*
X136580000Y-102309000D02*
X137548000Y-102309000D01*
X133955000Y-102269000D02*
X134900000Y-102269000D01*
X136580000Y-102269000D02*
X137525000Y-102269000D01*
X133980000Y-102229000D02*
X134900000Y-102229000D01*
X136580000Y-102229000D02*
X137500000Y-102229000D01*
X134005000Y-102189000D02*
X134900000Y-102189000D01*
X136580000Y-102189000D02*
X137475000Y-102189000D01*
X134032000Y-102149000D02*
X134900000Y-102149000D01*
X136580000Y-102149000D02*
X137448000Y-102149000D01*
X134060000Y-102109000D02*
X134900000Y-102109000D01*
X136580000Y-102109000D02*
X137420000Y-102109000D01*
X134090000Y-102069000D02*
X134900000Y-102069000D01*
X136580000Y-102069000D02*
X137390000Y-102069000D01*
X134121000Y-102029000D02*
X134900000Y-102029000D01*
X136580000Y-102029000D02*
X137359000Y-102029000D01*
X134153000Y-101989000D02*
X134900000Y-101989000D01*
X136580000Y-101989000D02*
X137327000Y-101989000D01*
X134188000Y-101949000D02*
X134900000Y-101949000D01*
X136580000Y-101949000D02*
X137292000Y-101949000D01*
X134224000Y-101909000D02*
X134900000Y-101909000D01*
X136580000Y-101909000D02*
X137256000Y-101909000D01*
X134262000Y-101869000D02*
X134900000Y-101869000D01*
X136580000Y-101869000D02*
X137218000Y-101869000D01*
X134302000Y-101829000D02*
X134900000Y-101829000D01*
X136580000Y-101829000D02*
X137178000Y-101829000D01*
X134344000Y-101789000D02*
X134900000Y-101789000D01*
X136580000Y-101789000D02*
X137136000Y-101789000D01*
X134389000Y-101749000D02*
X134900000Y-101749000D01*
X136580000Y-101749000D02*
X137091000Y-101749000D01*
X134436000Y-101709000D02*
X134900000Y-101709000D01*
X136580000Y-101709000D02*
X137044000Y-101709000D01*
X134486000Y-101669000D02*
X134900000Y-101669000D01*
X136580000Y-101669000D02*
X136994000Y-101669000D01*
X134540000Y-101629000D02*
X134900000Y-101629000D01*
X136580000Y-101629000D02*
X136940000Y-101629000D01*
X134598000Y-101589000D02*
X134900000Y-101589000D01*
X136580000Y-101589000D02*
X136882000Y-101589000D01*
X134660000Y-101549000D02*
X134900000Y-101549000D01*
X136580000Y-101549000D02*
X136820000Y-101549000D01*
X134727000Y-101509000D02*
X136753000Y-101509000D01*
X134800000Y-101469000D02*
X136680000Y-101469000D01*
X134881000Y-101429000D02*
X136599000Y-101429000D01*
X134972000Y-101389000D02*
X136508000Y-101389000D01*
X135076000Y-101349000D02*
X136404000Y-101349000D01*
X135203000Y-101309000D02*
X136277000Y-101309000D01*
X135370000Y-101269000D02*
X136110000Y-101269000D01*
X137860000Y-103350000D02*
G75*
G03*
X137860000Y-103350000I-2120000J0D01*
G01*
%TO.C,R1*%
X143402936Y-94815000D02*
X143857064Y-94815000D01*
X143402936Y-96285000D02*
X143857064Y-96285000D01*
%TO.C,F1*%
X101905000Y-107805000D02*
X101905000Y-109990000D01*
X101905000Y-115675000D02*
X101905000Y-113490000D01*
X108970000Y-107805000D02*
X101905000Y-107805000D01*
X108970000Y-107805000D02*
X108970000Y-109990000D01*
X108970000Y-115675000D02*
X101905000Y-115675000D01*
X108970000Y-115675000D02*
X108970000Y-113490000D01*
X128450000Y-107805000D02*
X128450000Y-109990000D01*
X128450000Y-108565000D02*
X108970000Y-108565000D01*
X128450000Y-114915000D02*
X108970000Y-114915000D01*
X128450000Y-115675000D02*
X128450000Y-113490000D01*
X128450000Y-115675000D02*
X135560000Y-115675000D01*
X135560000Y-107805000D02*
X128450000Y-107805000D01*
X135560000Y-109990000D02*
X135560000Y-107805000D01*
X135560000Y-113490000D02*
X135560000Y-115675000D01*
%TO.C,J2*%
X171680000Y-78410000D02*
X171040000Y-78410000D01*
X171040000Y-78410000D02*
X171040000Y-78810000D01*
X178020000Y-78650000D02*
X171280000Y-78650000D01*
X178020000Y-78650000D02*
X178020000Y-84430000D01*
X176900000Y-78650000D02*
X176900000Y-84430000D01*
X171800000Y-78650000D02*
X171800000Y-84430000D01*
X171280000Y-78650000D02*
X171280000Y-84430000D01*
X178020000Y-84430000D02*
X171280000Y-84430000D01*
%TO.C,G\u002A\u002A\u002A*%
G36*
X98526174Y-102153751D02*
G01*
X98518846Y-102161079D01*
X98511517Y-102153751D01*
X98518846Y-102146422D01*
X98526174Y-102153751D01*
G37*
G36*
X99039157Y-102080467D02*
G01*
X99031829Y-102087796D01*
X99024501Y-102080467D01*
X99031829Y-102073139D01*
X99039157Y-102080467D01*
G37*
G36*
X102102352Y-90240996D02*
G01*
X102096587Y-90269254D01*
X102080889Y-90317414D01*
X102057783Y-90378845D01*
X102029794Y-90446918D01*
X101999447Y-90515000D01*
X101991898Y-90531016D01*
X101951115Y-90608118D01*
X101906642Y-90672274D01*
X101852825Y-90729374D01*
X101784006Y-90785307D01*
X101694532Y-90845962D01*
X101681504Y-90854238D01*
X101567038Y-90927405D01*
X101454929Y-91000662D01*
X101348304Y-91071841D01*
X101250292Y-91138772D01*
X101164023Y-91199285D01*
X101092624Y-91251212D01*
X101039224Y-91292383D01*
X101006952Y-91320628D01*
X101003379Y-91324455D01*
X100971687Y-91365243D01*
X100960914Y-91395810D01*
X100969289Y-91424499D01*
X100979019Y-91439272D01*
X100984748Y-91447388D01*
X100990822Y-91453505D01*
X101000125Y-91457018D01*
X101015541Y-91457322D01*
X101039956Y-91453812D01*
X101076252Y-91445884D01*
X101127316Y-91432931D01*
X101196031Y-91414350D01*
X101285281Y-91389535D01*
X101397951Y-91357881D01*
X101488262Y-91332466D01*
X101677380Y-91279863D01*
X101841790Y-91235462D01*
X101984678Y-91198457D01*
X102109229Y-91168041D01*
X102218631Y-91143408D01*
X102303856Y-91126074D01*
X102396562Y-91109096D01*
X102476331Y-91096095D01*
X102539390Y-91087571D01*
X102581968Y-91084021D01*
X102600294Y-91085943D01*
X102600727Y-91086875D01*
X102587894Y-91094556D01*
X102554312Y-91107617D01*
X102509123Y-91122632D01*
X102465919Y-91136786D01*
X102401429Y-91158822D01*
X102321897Y-91186564D01*
X102233570Y-91217832D01*
X102146370Y-91249120D01*
X101966477Y-91313563D01*
X101795142Y-91373849D01*
X101634538Y-91429272D01*
X101486837Y-91479126D01*
X101354210Y-91522705D01*
X101238830Y-91559304D01*
X101142869Y-91588216D01*
X101068498Y-91608736D01*
X101017890Y-91620158D01*
X100997847Y-91622363D01*
X100962683Y-91616146D01*
X100920779Y-91601902D01*
X100919163Y-91601207D01*
X100864185Y-91564126D01*
X100829987Y-91508800D01*
X100815724Y-91433484D01*
X100815788Y-91388102D01*
X100822838Y-91321236D01*
X100837985Y-91272771D01*
X100854524Y-91244756D01*
X100885316Y-91212743D01*
X100938722Y-91169619D01*
X101011242Y-91117583D01*
X101099373Y-91058836D01*
X101199612Y-90995579D01*
X101308460Y-90930011D01*
X101422412Y-90864333D01*
X101537969Y-90800745D01*
X101651627Y-90741447D01*
X101671483Y-90731464D01*
X101745189Y-90690065D01*
X101808917Y-90642807D01*
X101867331Y-90584800D01*
X101925094Y-90511153D01*
X101986872Y-90416976D01*
X102013501Y-90372884D01*
X102047649Y-90316714D01*
X102075721Y-90273167D01*
X102094892Y-90246435D01*
X102102337Y-90240711D01*
X102102352Y-90240996D01*
G37*
G36*
X103446223Y-89254857D02*
G01*
X103612755Y-89278889D01*
X103771815Y-89322176D01*
X103920587Y-89382721D01*
X104056257Y-89458527D01*
X104176010Y-89547597D01*
X104277031Y-89647936D01*
X104356507Y-89757546D01*
X104411622Y-89874430D01*
X104433396Y-89955165D01*
X104443169Y-89996391D01*
X104460287Y-90058272D01*
X104482674Y-90133705D01*
X104508256Y-90215584D01*
X104520115Y-90252204D01*
X104559113Y-90379012D01*
X104585644Y-90485956D01*
X104600484Y-90579327D01*
X104604409Y-90665412D01*
X104598193Y-90750501D01*
X104588853Y-90809492D01*
X104538749Y-91082244D01*
X104492428Y-91342343D01*
X104450162Y-91588005D01*
X104412226Y-91817451D01*
X104378893Y-92028896D01*
X104350435Y-92220559D01*
X104327127Y-92390659D01*
X104309242Y-92537413D01*
X104297053Y-92659039D01*
X104290924Y-92751500D01*
X104289098Y-92809410D01*
X104288923Y-92863129D01*
X104290825Y-92917460D01*
X104295232Y-92977204D01*
X104302571Y-93047163D01*
X104313271Y-93132138D01*
X104327758Y-93236931D01*
X104344428Y-93352423D01*
X104375212Y-93556912D01*
X104404052Y-93734360D01*
X104431445Y-93886935D01*
X104457889Y-94016809D01*
X104483882Y-94126151D01*
X104509921Y-94217131D01*
X104536504Y-94291919D01*
X104564130Y-94352684D01*
X104580642Y-94382054D01*
X104604658Y-94426056D01*
X104610249Y-94447503D01*
X104598432Y-94445778D01*
X104570226Y-94420266D01*
X104551472Y-94399740D01*
X104502034Y-94332285D01*
X104453833Y-94243459D01*
X104406504Y-94132115D01*
X104359681Y-93997110D01*
X104312997Y-93837297D01*
X104266086Y-93651532D01*
X104218583Y-93438669D01*
X104174544Y-93220513D01*
X104153185Y-93108923D01*
X104137131Y-93021050D01*
X104125791Y-92951895D01*
X104118574Y-92896463D01*
X104114889Y-92849754D01*
X104114145Y-92806772D01*
X104115752Y-92762519D01*
X104117354Y-92736843D01*
X104129409Y-92601759D01*
X104148643Y-92447750D01*
X104175387Y-92272673D01*
X104209977Y-92074386D01*
X104252746Y-91850745D01*
X104264581Y-91791489D01*
X104289111Y-91671472D01*
X104312454Y-91561894D01*
X104335933Y-91457365D01*
X104360870Y-91352495D01*
X104388587Y-91241894D01*
X104420407Y-91120172D01*
X104457652Y-90981939D01*
X104501645Y-90821805D01*
X104509109Y-90794835D01*
X104529549Y-90693420D01*
X104534213Y-90589006D01*
X104522612Y-90476265D01*
X104494262Y-90349871D01*
X104457588Y-90230554D01*
X104431156Y-90151028D01*
X104406094Y-90073795D01*
X104384955Y-90006843D01*
X104370291Y-89958157D01*
X104368491Y-89951790D01*
X104325639Y-89845745D01*
X104258173Y-89749475D01*
X104164941Y-89661818D01*
X104044792Y-89581607D01*
X103956468Y-89535199D01*
X103802201Y-89470284D01*
X103652153Y-89428345D01*
X103495892Y-89406968D01*
X103384858Y-89402953D01*
X103307064Y-89403329D01*
X103250218Y-89405810D01*
X103205970Y-89411649D01*
X103165967Y-89422097D01*
X103121858Y-89438408D01*
X103106382Y-89444712D01*
X103000619Y-89496820D01*
X102883447Y-89569544D01*
X102759732Y-89659121D01*
X102634344Y-89761787D01*
X102512149Y-89873778D01*
X102398014Y-89991333D01*
X102394794Y-89994874D01*
X102350949Y-90041282D01*
X102314527Y-90076229D01*
X102289626Y-90096019D01*
X102280488Y-90097938D01*
X102285865Y-90076741D01*
X102307115Y-90037445D01*
X102341203Y-89984350D01*
X102385094Y-89921755D01*
X102435751Y-89853961D01*
X102490140Y-89785268D01*
X102545226Y-89719976D01*
X102555499Y-89708334D01*
X102699896Y-89561245D01*
X102846080Y-89442467D01*
X102993662Y-89352199D01*
X103142249Y-89290639D01*
X103291452Y-89257987D01*
X103440880Y-89254442D01*
X103446223Y-89254857D01*
G37*
G36*
X102932301Y-91165634D02*
G01*
X102973823Y-91184471D01*
X103047749Y-91227280D01*
X103097569Y-91276810D01*
X103128453Y-91338392D01*
X103131027Y-91346494D01*
X103137943Y-91385595D01*
X103143361Y-91448578D01*
X103147289Y-91530048D01*
X103149734Y-91624615D01*
X103150705Y-91726883D01*
X103150209Y-91831461D01*
X103148254Y-91932955D01*
X103144848Y-92025972D01*
X103139998Y-92105119D01*
X103133712Y-92165003D01*
X103129814Y-92187033D01*
X103114772Y-92242512D01*
X103091919Y-92307723D01*
X103060208Y-92384877D01*
X103018595Y-92476187D01*
X102966033Y-92583866D01*
X102901477Y-92710125D01*
X102823882Y-92857176D01*
X102736062Y-93020127D01*
X102652819Y-93172199D01*
X102575585Y-93310431D01*
X102501573Y-93439347D01*
X102427993Y-93563472D01*
X102352057Y-93687330D01*
X102270977Y-93815447D01*
X102181965Y-93952348D01*
X102082231Y-94102558D01*
X101968987Y-94270602D01*
X101930656Y-94327092D01*
X101864180Y-94438387D01*
X101814089Y-94554637D01*
X101779047Y-94681047D01*
X101757720Y-94822818D01*
X101748773Y-94985155D01*
X101748303Y-95037940D01*
X101754171Y-95206366D01*
X101772115Y-95383436D01*
X101802678Y-95571303D01*
X101846401Y-95772122D01*
X101903826Y-95988045D01*
X101975494Y-96221227D01*
X102061948Y-96473821D01*
X102163729Y-96747981D01*
X102205400Y-96855366D01*
X102266099Y-97009788D01*
X102317714Y-97139738D01*
X102361736Y-97248087D01*
X102399656Y-97337703D01*
X102432964Y-97411456D01*
X102463150Y-97472214D01*
X102491705Y-97522847D01*
X102520121Y-97566223D01*
X102549886Y-97605212D01*
X102582491Y-97642683D01*
X102619428Y-97681505D01*
X102651274Y-97713639D01*
X102749503Y-97803881D01*
X102856720Y-97886075D01*
X102975132Y-97961061D01*
X103106945Y-98029679D01*
X103254366Y-98092771D01*
X103419602Y-98151177D01*
X103604859Y-98205736D01*
X103812343Y-98257289D01*
X104044261Y-98306678D01*
X104302820Y-98354741D01*
X104360859Y-98364771D01*
X104465672Y-98383058D01*
X104568110Y-98401639D01*
X104662198Y-98419378D01*
X104741960Y-98435136D01*
X104801419Y-98447778D01*
X104819714Y-98452086D01*
X104922704Y-98473149D01*
X105042062Y-98488992D01*
X105179807Y-98499677D01*
X105337957Y-98505269D01*
X105518531Y-98505831D01*
X105723547Y-98501427D01*
X105955024Y-98492119D01*
X106008401Y-98489486D01*
X106067011Y-98487364D01*
X106098123Y-98488162D01*
X106103367Y-98491517D01*
X106084375Y-98497067D01*
X106042778Y-98504451D01*
X105980206Y-98513304D01*
X105898291Y-98523265D01*
X105816383Y-98532155D01*
X105709354Y-98541708D01*
X105590408Y-98549744D01*
X105465401Y-98556096D01*
X105340185Y-98560599D01*
X105220614Y-98563086D01*
X105112542Y-98563391D01*
X105021823Y-98561348D01*
X104954311Y-98556791D01*
X104953122Y-98556660D01*
X104883079Y-98547203D01*
X104803356Y-98533994D01*
X104740600Y-98521817D01*
X104687004Y-98511729D01*
X104612450Y-98499519D01*
X104525100Y-98486436D01*
X104433117Y-98473727D01*
X104388840Y-98468017D01*
X104104636Y-98428278D01*
X103847248Y-98383659D01*
X103614505Y-98333663D01*
X103404242Y-98277796D01*
X103214288Y-98215563D01*
X103114844Y-98177286D01*
X102958980Y-98107794D01*
X102824413Y-98033799D01*
X102703134Y-97950108D01*
X102587133Y-97851524D01*
X102534322Y-97800721D01*
X102482481Y-97748045D01*
X102438338Y-97699624D01*
X102399660Y-97651591D01*
X102364214Y-97600081D01*
X102329769Y-97541228D01*
X102294091Y-97471166D01*
X102254947Y-97386028D01*
X102210105Y-97281949D01*
X102157333Y-97155062D01*
X102147149Y-97130305D01*
X102020181Y-96812026D01*
X101910199Y-96516044D01*
X101816930Y-96240962D01*
X101740104Y-95985382D01*
X101679446Y-95747908D01*
X101634685Y-95527141D01*
X101605547Y-95321686D01*
X101591762Y-95130143D01*
X101593056Y-94951118D01*
X101609157Y-94783211D01*
X101639792Y-94625027D01*
X101650581Y-94583583D01*
X101677763Y-94497447D01*
X101711755Y-94416023D01*
X101755996Y-94332817D01*
X101813926Y-94241334D01*
X101885761Y-94139487D01*
X101985925Y-93998745D01*
X102094104Y-93840298D01*
X102207709Y-93668370D01*
X102324151Y-93487184D01*
X102440841Y-93300965D01*
X102555189Y-93113935D01*
X102664606Y-92930319D01*
X102766505Y-92754339D01*
X102858294Y-92590221D01*
X102937387Y-92442187D01*
X102989147Y-92339477D01*
X103021994Y-92266511D01*
X103045779Y-92198168D01*
X103064120Y-92122450D01*
X103077745Y-92045761D01*
X103087390Y-91970827D01*
X103095118Y-91881870D01*
X103100855Y-91784217D01*
X103104524Y-91683196D01*
X103106050Y-91584133D01*
X103105357Y-91492355D01*
X103102370Y-91413189D01*
X103097014Y-91351962D01*
X103089212Y-91314000D01*
X103088156Y-91311370D01*
X103066597Y-91282601D01*
X103027327Y-91246871D01*
X102979848Y-91212437D01*
X102929953Y-91179264D01*
X102905424Y-91160530D01*
X102906220Y-91156048D01*
X102932301Y-91165634D01*
G37*
G36*
X104659760Y-98740850D02*
G01*
X104664449Y-98773113D01*
X104668638Y-98823779D01*
X104672239Y-98889209D01*
X104675167Y-98965767D01*
X104677335Y-99049817D01*
X104678657Y-99137721D01*
X104679046Y-99225843D01*
X104678417Y-99310545D01*
X104676683Y-99388192D01*
X104673758Y-99455146D01*
X104669554Y-99507770D01*
X104667658Y-99522879D01*
X104663292Y-99556326D01*
X104659000Y-99584107D01*
X104652226Y-99606782D01*
X104640418Y-99624907D01*
X104621022Y-99639041D01*
X104591484Y-99649742D01*
X104549250Y-99657567D01*
X104491768Y-99663075D01*
X104416482Y-99666824D01*
X104320840Y-99669371D01*
X104202287Y-99671275D01*
X104058270Y-99673094D01*
X103975310Y-99674153D01*
X103810006Y-99676572D01*
X103670897Y-99679211D01*
X103554867Y-99682247D01*
X103458796Y-99685858D01*
X103379568Y-99690222D01*
X103314064Y-99695517D01*
X103259167Y-99701919D01*
X103211759Y-99709608D01*
X103168722Y-99718759D01*
X103161344Y-99720540D01*
X103133184Y-99732498D01*
X103133686Y-99747053D01*
X103162373Y-99763620D01*
X103208978Y-99778961D01*
X103273461Y-99796876D01*
X103343251Y-99816266D01*
X103370538Y-99823848D01*
X103446635Y-99851854D01*
X103498811Y-99889792D01*
X103532154Y-99943356D01*
X103551748Y-100018239D01*
X103553359Y-100028534D01*
X103564691Y-100104082D01*
X103573619Y-100155366D01*
X103582277Y-100187080D01*
X103592800Y-100203920D01*
X103607325Y-100210580D01*
X103627986Y-100211757D01*
X103636678Y-100211742D01*
X103666344Y-100208629D01*
X103719428Y-100199937D01*
X103790775Y-100186637D01*
X103875229Y-100169701D01*
X103967636Y-100150100D01*
X103990938Y-100144994D01*
X104134732Y-100114460D01*
X104254302Y-100091957D01*
X104353510Y-100077117D01*
X104436216Y-100069576D01*
X104506283Y-100068966D01*
X104567571Y-100074921D01*
X104618134Y-100085518D01*
X104678787Y-100097395D01*
X104749830Y-100105169D01*
X104823834Y-100108754D01*
X104893372Y-100108065D01*
X104951017Y-100103017D01*
X104989342Y-100093526D01*
X104995915Y-100089833D01*
X105008936Y-100078200D01*
X105014766Y-100062943D01*
X105013562Y-100036963D01*
X105005481Y-99993161D01*
X104998743Y-99961588D01*
X104984450Y-99898219D01*
X104969700Y-99837024D01*
X104957748Y-99791488D01*
X104950135Y-99738264D01*
X104960939Y-99702708D01*
X104988516Y-99687917D01*
X105011629Y-99690091D01*
X105027509Y-99692745D01*
X105032732Y-99686691D01*
X105026502Y-99666678D01*
X105008022Y-99627452D01*
X104999519Y-99610242D01*
X104975155Y-99555928D01*
X104962292Y-99509117D01*
X104957880Y-99455585D01*
X104957982Y-99416438D01*
X104959727Y-99370440D01*
X104963392Y-99306499D01*
X104968561Y-99229630D01*
X104974821Y-99144848D01*
X104981757Y-99057166D01*
X104988955Y-98971600D01*
X104996000Y-98893164D01*
X105002480Y-98826872D01*
X105007978Y-98777739D01*
X105012081Y-98750779D01*
X105013266Y-98747297D01*
X105014911Y-98759531D01*
X105016428Y-98797158D01*
X105017745Y-98856259D01*
X105018787Y-98932914D01*
X105019481Y-99023204D01*
X105019720Y-99091729D01*
X105020625Y-99222866D01*
X105022867Y-99326642D01*
X105026539Y-99404982D01*
X105031733Y-99459811D01*
X105038542Y-99493055D01*
X105039081Y-99494621D01*
X105055119Y-99529304D01*
X105083086Y-99580148D01*
X105118410Y-99639085D01*
X105141708Y-99675704D01*
X105194513Y-99763288D01*
X105225962Y-99831749D01*
X105236140Y-99881952D01*
X105225132Y-99914761D01*
X105193023Y-99931042D01*
X105167034Y-99933266D01*
X105128043Y-99933266D01*
X105133892Y-100036767D01*
X105135971Y-100093092D01*
X105133165Y-100129200D01*
X105123673Y-100154027D01*
X105105736Y-100176464D01*
X105049523Y-100215956D01*
X104969244Y-100241457D01*
X104866817Y-100252542D01*
X104770239Y-100250746D01*
X104701384Y-100244932D01*
X104636606Y-100237074D01*
X104586341Y-100228525D01*
X104572186Y-100225087D01*
X104525139Y-100216566D01*
X104466739Y-100215587D01*
X104393151Y-100222561D01*
X104300540Y-100237899D01*
X104185072Y-100262011D01*
X104147005Y-100270649D01*
X104002487Y-100303596D01*
X103883459Y-100329803D01*
X103786956Y-100349568D01*
X103710012Y-100363189D01*
X103649663Y-100370962D01*
X103602941Y-100373186D01*
X103566883Y-100370159D01*
X103538521Y-100362178D01*
X103514891Y-100349540D01*
X103496942Y-100335891D01*
X103455694Y-100283634D01*
X103424126Y-100205205D01*
X103402880Y-100102315D01*
X103399703Y-100076991D01*
X103395892Y-100041687D01*
X103390739Y-100016865D01*
X103379561Y-99999170D01*
X103357671Y-99985245D01*
X103320385Y-99971735D01*
X103263017Y-99955283D01*
X103208978Y-99940379D01*
X103107762Y-99904803D01*
X103034805Y-99861983D01*
X102989914Y-99811710D01*
X102972892Y-99753778D01*
X102980394Y-99697671D01*
X103000287Y-99655185D01*
X103033702Y-99620858D01*
X103083368Y-99593800D01*
X103152010Y-99573124D01*
X103242355Y-99557941D01*
X103357132Y-99547363D01*
X103458142Y-99542029D01*
X103550519Y-99540161D01*
X103667317Y-99540889D01*
X103803777Y-99544047D01*
X103955137Y-99549466D01*
X104116636Y-99556978D01*
X104283513Y-99566416D01*
X104436050Y-99576536D01*
X104497450Y-99580552D01*
X104535940Y-99581140D01*
X104557832Y-99577139D01*
X104569442Y-99567387D01*
X104577084Y-99550725D01*
X104577132Y-99550599D01*
X104585120Y-99517011D01*
X104593829Y-99458978D01*
X104602792Y-99381347D01*
X104611544Y-99288962D01*
X104619620Y-99186670D01*
X104626553Y-99079316D01*
X104631192Y-98987911D01*
X104635129Y-98911067D01*
X104639781Y-98840329D01*
X104644584Y-98783267D01*
X104648973Y-98747452D01*
X104649224Y-98746076D01*
X104654656Y-98730625D01*
X104659760Y-98740850D01*
G37*
G36*
X107210708Y-98589645D02*
G01*
X107216345Y-98614515D01*
X107217737Y-98621494D01*
X107222331Y-98651141D01*
X107229510Y-98705578D01*
X107238747Y-98780446D01*
X107249519Y-98871387D01*
X107261301Y-98974042D01*
X107273569Y-99084053D01*
X107275081Y-99097836D01*
X107287470Y-99208205D01*
X107299642Y-99311521D01*
X107311044Y-99403473D01*
X107321124Y-99479753D01*
X107329329Y-99536052D01*
X107335106Y-99568060D01*
X107335645Y-99570192D01*
X107352281Y-99606338D01*
X107385412Y-99658328D01*
X107431374Y-99720729D01*
X107467232Y-99765306D01*
X107521697Y-99833031D01*
X107557777Y-99883588D01*
X107577774Y-99920577D01*
X107583993Y-99947595D01*
X107583993Y-99947789D01*
X107572981Y-99993760D01*
X107544361Y-100025671D01*
X107510025Y-100035863D01*
X107491355Y-100039856D01*
X107490888Y-100057370D01*
X107496416Y-100073458D01*
X107509378Y-100131376D01*
X107509994Y-100195198D01*
X107499080Y-100253176D01*
X107481424Y-100288991D01*
X107453481Y-100316811D01*
X107415990Y-100338810D01*
X107365271Y-100355823D01*
X107297648Y-100368689D01*
X107209443Y-100378246D01*
X107096978Y-100385330D01*
X107049025Y-100387470D01*
X106953311Y-100391644D01*
X106880457Y-100395868D01*
X106824021Y-100401135D01*
X106777566Y-100408438D01*
X106734650Y-100418768D01*
X106688834Y-100433119D01*
X106638638Y-100450707D01*
X106485262Y-100505329D01*
X106356784Y-100550351D01*
X106250620Y-100586370D01*
X106164185Y-100613983D01*
X106094896Y-100633790D01*
X106040168Y-100646386D01*
X105997416Y-100652370D01*
X105964058Y-100652341D01*
X105937507Y-100646894D01*
X105915181Y-100636629D01*
X105895161Y-100622667D01*
X105862618Y-100584799D01*
X105831126Y-100527195D01*
X105805041Y-100459247D01*
X105789396Y-100394651D01*
X105780260Y-100351946D01*
X105769685Y-100320077D01*
X105767311Y-100315544D01*
X105746883Y-100303673D01*
X105702736Y-100290858D01*
X105640360Y-100278592D01*
X105619411Y-100275316D01*
X105516342Y-100256638D01*
X105439046Y-100234227D01*
X105384062Y-100206507D01*
X105347928Y-100171903D01*
X105332869Y-100144874D01*
X105317866Y-100092717D01*
X105319434Y-100045628D01*
X105338731Y-100003237D01*
X105376916Y-99965176D01*
X105435144Y-99931074D01*
X105514574Y-99900561D01*
X105616364Y-99873268D01*
X105741670Y-99848824D01*
X105891651Y-99826862D01*
X106067464Y-99807009D01*
X106270266Y-99788898D01*
X106499400Y-99772277D01*
X106585128Y-99766364D01*
X106667060Y-99760255D01*
X106737714Y-99754541D01*
X106789608Y-99749811D01*
X106803526Y-99748316D01*
X106880473Y-99739352D01*
X106880357Y-99546840D01*
X106879123Y-99467739D01*
X106875777Y-99368592D01*
X106870728Y-99258559D01*
X106864387Y-99146798D01*
X106858579Y-99061194D01*
X106851931Y-98967393D01*
X106846255Y-98879882D01*
X106841873Y-98804272D01*
X106839109Y-98746176D01*
X106838285Y-98711202D01*
X106838316Y-98709434D01*
X106839715Y-98650808D01*
X106853233Y-98716763D01*
X106864554Y-98778073D01*
X106878342Y-98862230D01*
X106893722Y-98962955D01*
X106909821Y-99073972D01*
X106925763Y-99189005D01*
X106940674Y-99301777D01*
X106953681Y-99406010D01*
X106963909Y-99495430D01*
X106969364Y-99550503D01*
X106976338Y-99645696D01*
X106977339Y-99716153D01*
X106971389Y-99766025D01*
X106957504Y-99799462D01*
X106934703Y-99820614D01*
X106902458Y-99833509D01*
X106874938Y-99838825D01*
X106823379Y-99846732D01*
X106752866Y-99856531D01*
X106668489Y-99867521D01*
X106575334Y-99879001D01*
X106550698Y-99881934D01*
X106366643Y-99903923D01*
X106208920Y-99923367D01*
X106074699Y-99940714D01*
X105961153Y-99956412D01*
X105865451Y-99970908D01*
X105784766Y-99984650D01*
X105716268Y-99998086D01*
X105657129Y-100011664D01*
X105604521Y-100025831D01*
X105565037Y-100037953D01*
X105510702Y-100057064D01*
X105480099Y-100072538D01*
X105474262Y-100085458D01*
X105494221Y-100096905D01*
X105541008Y-100107961D01*
X105615654Y-100119709D01*
X105647030Y-100123983D01*
X105736597Y-100137655D01*
X105802050Y-100153612D01*
X105848562Y-100175459D01*
X105881302Y-100206806D01*
X105905441Y-100251260D01*
X105926149Y-100312429D01*
X105928443Y-100320344D01*
X105949675Y-100392312D01*
X105966109Y-100440577D01*
X105980328Y-100469806D01*
X105994918Y-100484665D01*
X106012461Y-100489821D01*
X106022518Y-100490219D01*
X106049014Y-100485391D01*
X106097017Y-100472113D01*
X106160576Y-100452198D01*
X106233740Y-100427457D01*
X106264741Y-100416480D01*
X106408432Y-100365411D01*
X106528380Y-100324143D01*
X106628154Y-100291829D01*
X106711323Y-100267627D01*
X106781455Y-100250692D01*
X106842122Y-100240181D01*
X106896891Y-100235249D01*
X106949332Y-100235053D01*
X107003014Y-100238748D01*
X107012383Y-100239688D01*
X107086825Y-100243892D01*
X107166012Y-100242565D01*
X107241566Y-100236403D01*
X107305111Y-100226106D01*
X107348270Y-100212370D01*
X107349764Y-100211594D01*
X107373098Y-100187531D01*
X107378800Y-100167591D01*
X107373061Y-100137428D01*
X107357174Y-100086247D01*
X107333131Y-100019711D01*
X107302924Y-99943485D01*
X107284811Y-99900427D01*
X107270837Y-99864248D01*
X107270258Y-99842485D01*
X107283993Y-99823027D01*
X107291255Y-99815617D01*
X107317068Y-99796771D01*
X107335364Y-99794358D01*
X107348359Y-99797656D01*
X107342900Y-99779817D01*
X107318775Y-99740317D01*
X107306256Y-99721819D01*
X107276826Y-99670158D01*
X107253688Y-99614162D01*
X107248101Y-99594596D01*
X107243826Y-99563878D01*
X107238958Y-99508535D01*
X107233713Y-99433246D01*
X107228311Y-99342689D01*
X107222967Y-99241541D01*
X107217900Y-99134482D01*
X107213328Y-99026187D01*
X107209468Y-98921337D01*
X107206539Y-98824607D01*
X107204757Y-98740677D01*
X107204340Y-98674225D01*
X107204519Y-98658136D01*
X107205639Y-98609114D01*
X107207421Y-98587064D01*
X107210708Y-98589645D01*
G37*
G36*
X104693167Y-94163091D02*
G01*
X104729084Y-94172771D01*
X104784381Y-94190046D01*
X104861693Y-94215638D01*
X104963650Y-94250266D01*
X104978362Y-94255302D01*
X105121914Y-94304286D01*
X105241916Y-94344791D01*
X105342449Y-94378121D01*
X105427595Y-94405580D01*
X105501435Y-94428474D01*
X105568051Y-94448107D01*
X105631526Y-94465783D01*
X105663970Y-94474457D01*
X105781602Y-94509072D01*
X105919766Y-94555723D01*
X106074247Y-94612555D01*
X106240831Y-94677710D01*
X106415302Y-94749334D01*
X106593447Y-94825571D01*
X106771051Y-94904565D01*
X106943898Y-94984459D01*
X107107774Y-95063400D01*
X107258466Y-95139530D01*
X107391757Y-95210993D01*
X107503433Y-95275935D01*
X107547351Y-95303740D01*
X107745868Y-95432846D01*
X107945265Y-95560600D01*
X108143892Y-95686047D01*
X108340100Y-95808235D01*
X108532239Y-95926209D01*
X108718660Y-96039016D01*
X108897713Y-96145702D01*
X109067748Y-96245313D01*
X109227115Y-96336895D01*
X109374166Y-96419496D01*
X109507250Y-96492161D01*
X109624718Y-96553936D01*
X109724920Y-96603868D01*
X109806206Y-96641002D01*
X109866927Y-96664387D01*
X109905434Y-96673066D01*
X109914333Y-96672180D01*
X109939051Y-96658840D01*
X109979550Y-96631208D01*
X110029240Y-96593933D01*
X110060717Y-96568881D01*
X110141876Y-96504390D01*
X110204836Y-96458698D01*
X110252744Y-96430514D01*
X110288748Y-96418546D01*
X110315996Y-96421505D01*
X110337634Y-96438098D01*
X110347444Y-96451273D01*
X110366251Y-96494698D01*
X110383277Y-96561501D01*
X110397939Y-96645772D01*
X110409655Y-96741601D01*
X110417840Y-96843075D01*
X110421911Y-96944285D01*
X110421287Y-97039321D01*
X110415382Y-97122271D01*
X110414416Y-97130166D01*
X110395841Y-97236874D01*
X110369458Y-97319559D01*
X110332954Y-97382990D01*
X110284016Y-97431938D01*
X110259900Y-97448876D01*
X110178741Y-97496736D01*
X110073160Y-97552646D01*
X109946485Y-97615200D01*
X109802041Y-97682990D01*
X109643152Y-97754610D01*
X109473145Y-97828653D01*
X109295344Y-97903712D01*
X109113075Y-97978379D01*
X108929663Y-98051249D01*
X108748435Y-98120913D01*
X108572715Y-98185966D01*
X108405828Y-98245000D01*
X108272856Y-98289573D01*
X108188194Y-98317202D01*
X108120033Y-98338764D01*
X108063223Y-98354594D01*
X108012614Y-98365024D01*
X107963056Y-98370387D01*
X107909398Y-98371016D01*
X107846490Y-98367245D01*
X107769182Y-98359406D01*
X107672324Y-98347833D01*
X107569013Y-98335092D01*
X107452589Y-98320951D01*
X107361898Y-98310388D01*
X107293602Y-98303205D01*
X107244365Y-98299206D01*
X107210848Y-98298194D01*
X107189716Y-98299972D01*
X107177631Y-98304342D01*
X107171256Y-98311107D01*
X107170979Y-98311591D01*
X107152403Y-98333259D01*
X107118578Y-98364015D01*
X107090271Y-98386786D01*
X107053822Y-98413162D01*
X107023793Y-98428392D01*
X106989898Y-98435336D01*
X106941852Y-98436851D01*
X106911343Y-98436499D01*
X106840897Y-98433772D01*
X106767306Y-98428427D01*
X106711921Y-98422304D01*
X106585067Y-98399394D01*
X106464607Y-98368147D01*
X106356196Y-98330539D01*
X106265485Y-98288546D01*
X106198129Y-98244144D01*
X106195274Y-98241722D01*
X106168027Y-98215082D01*
X106164883Y-98203597D01*
X106184739Y-98207457D01*
X106226494Y-98226852D01*
X106240005Y-98234031D01*
X106349662Y-98280603D01*
X106484429Y-98314993D01*
X106644939Y-98337333D01*
X106773150Y-98345882D01*
X106980946Y-98354572D01*
X107059800Y-98271847D01*
X107138655Y-98189123D01*
X107257325Y-98189123D01*
X107311402Y-98190420D01*
X107387201Y-98194015D01*
X107477260Y-98199464D01*
X107574116Y-98206325D01*
X107652210Y-98212593D01*
X107749806Y-98220770D01*
X107827539Y-98226073D01*
X107891493Y-98227592D01*
X107947751Y-98224415D01*
X108002395Y-98215629D01*
X108061508Y-98200325D01*
X108131172Y-98177588D01*
X108217471Y-98146509D01*
X108302169Y-98115176D01*
X108382099Y-98084977D01*
X108484561Y-98045341D01*
X108605024Y-97998087D01*
X108738955Y-97945035D01*
X108881821Y-97888005D01*
X109029090Y-97828818D01*
X109176230Y-97769292D01*
X109318707Y-97711247D01*
X109451988Y-97656503D01*
X109571543Y-97606881D01*
X109643254Y-97576750D01*
X109770588Y-97521679D01*
X109888029Y-97468496D01*
X109992607Y-97418699D01*
X110081354Y-97373783D01*
X110151298Y-97335245D01*
X110199470Y-97304580D01*
X110221264Y-97285590D01*
X110246062Y-97235653D01*
X110264071Y-97157974D01*
X110275198Y-97053351D01*
X110279347Y-96922579D01*
X110277839Y-96808377D01*
X110275027Y-96728914D01*
X110271601Y-96660075D01*
X110267899Y-96607053D01*
X110264258Y-96575043D01*
X110262252Y-96568093D01*
X110247494Y-96572436D01*
X110214664Y-96591198D01*
X110169087Y-96621135D01*
X110130951Y-96648091D01*
X110072757Y-96688691D01*
X110016792Y-96724835D01*
X109971269Y-96751348D01*
X109953155Y-96760160D01*
X109920024Y-96772487D01*
X109894061Y-96774864D01*
X109863941Y-96766145D01*
X109821796Y-96746840D01*
X109784564Y-96728524D01*
X109745455Y-96708215D01*
X109700787Y-96683816D01*
X109646881Y-96653229D01*
X109580055Y-96614356D01*
X109496630Y-96565099D01*
X109392924Y-96503361D01*
X109357449Y-96482177D01*
X109230412Y-96406438D01*
X109112557Y-96336493D01*
X109007309Y-96274357D01*
X108918089Y-96222046D01*
X108848319Y-96181578D01*
X108815153Y-96162654D01*
X108780315Y-96142720D01*
X108728533Y-96112762D01*
X108668135Y-96077608D01*
X108631944Y-96056451D01*
X108565522Y-96018010D01*
X108480339Y-95969427D01*
X108379738Y-95912554D01*
X108267063Y-95849244D01*
X108145655Y-95781346D01*
X108018858Y-95710713D01*
X107890015Y-95639197D01*
X107762468Y-95568648D01*
X107639561Y-95500918D01*
X107524636Y-95437858D01*
X107421037Y-95381321D01*
X107332106Y-95333158D01*
X107261186Y-95295219D01*
X107211620Y-95269357D01*
X107202920Y-95264977D01*
X107079348Y-95204503D01*
X106943817Y-95139916D01*
X106799641Y-95072666D01*
X106650133Y-95004201D01*
X106498607Y-94935969D01*
X106348378Y-94869419D01*
X106202758Y-94805999D01*
X106065062Y-94747158D01*
X105938604Y-94694345D01*
X105826697Y-94649007D01*
X105732656Y-94612594D01*
X105659794Y-94586553D01*
X105628280Y-94576698D01*
X105580917Y-94561283D01*
X105514652Y-94537044D01*
X105433455Y-94505665D01*
X105341298Y-94468831D01*
X105242153Y-94428228D01*
X105139992Y-94385539D01*
X105038785Y-94342451D01*
X104942505Y-94300649D01*
X104855123Y-94261816D01*
X104780610Y-94227638D01*
X104722939Y-94199799D01*
X104686080Y-94179986D01*
X104675378Y-94172428D01*
X104668947Y-94163640D01*
X104673999Y-94160287D01*
X104693167Y-94163091D01*
G37*
%TO.C,R4*%
X146667064Y-113390000D02*
X142312936Y-113390000D01*
X146667064Y-109970000D02*
X142312936Y-109970000D01*
%TO.C,C3*%
X142442246Y-90375000D02*
X140842246Y-90375000D01*
X141642246Y-91175000D02*
X141642246Y-89575000D01*
X133752755Y-93901000D02*
X133752755Y-77739000D01*
X133712755Y-93900000D02*
X133712755Y-77740000D01*
X133672755Y-93900000D02*
X133672755Y-77740000D01*
X133632755Y-93900000D02*
X133632755Y-77740000D01*
X133592755Y-93899000D02*
X133592755Y-77741000D01*
X133552755Y-93898000D02*
X133552755Y-77742000D01*
X133512755Y-93897000D02*
X133512755Y-77743000D01*
X133472755Y-93896000D02*
X133472755Y-77744000D01*
X133432755Y-93894000D02*
X133432755Y-77746000D01*
X133392755Y-93893000D02*
X133392755Y-77747000D01*
X133352755Y-93891000D02*
X133352755Y-77749000D01*
X133312755Y-93889000D02*
X133312755Y-77751000D01*
X133272755Y-93886000D02*
X133272755Y-77754000D01*
X133232755Y-93884000D02*
X133232755Y-77756000D01*
X133192755Y-93881000D02*
X133192755Y-77759000D01*
X133152755Y-93878000D02*
X133152755Y-77762000D01*
X133112755Y-93875000D02*
X133112755Y-77765000D01*
X133072755Y-93872000D02*
X133072755Y-77768000D01*
X133031755Y-93869000D02*
X133031755Y-77771000D01*
X132991755Y-93865000D02*
X132991755Y-77775000D01*
X132951755Y-93861000D02*
X132951755Y-77779000D01*
X132911755Y-93857000D02*
X132911755Y-77783000D01*
X132871755Y-93853000D02*
X132871755Y-77787000D01*
X132831755Y-93848000D02*
X132831755Y-77792000D01*
X132791755Y-93844000D02*
X132791755Y-77796000D01*
X132751755Y-93839000D02*
X132751755Y-77801000D01*
X132711755Y-93834000D02*
X132711755Y-77806000D01*
X132671755Y-93828000D02*
X132671755Y-77812000D01*
X132631755Y-93823000D02*
X132631755Y-77817000D01*
X132591755Y-93817000D02*
X132591755Y-77823000D01*
X132551755Y-93811000D02*
X132551755Y-77829000D01*
X132511755Y-93805000D02*
X132511755Y-77835000D01*
X132471755Y-93799000D02*
X132471755Y-77841000D01*
X132431755Y-93792000D02*
X132431755Y-77848000D01*
X132391755Y-93786000D02*
X132391755Y-77854000D01*
X132351755Y-93779000D02*
X132351755Y-77861000D01*
X132311755Y-93772000D02*
X132311755Y-77868000D01*
X132271755Y-93764000D02*
X132271755Y-77876000D01*
X132231755Y-93757000D02*
X132231755Y-77883000D01*
X132191755Y-93749000D02*
X132191755Y-77891000D01*
X132151755Y-93741000D02*
X132151755Y-77899000D01*
X132111755Y-93733000D02*
X132111755Y-77907000D01*
X132071755Y-93725000D02*
X132071755Y-77915000D01*
X132031755Y-93716000D02*
X132031755Y-77924000D01*
X131991755Y-93707000D02*
X131991755Y-77933000D01*
X131951755Y-93698000D02*
X131951755Y-77942000D01*
X131911755Y-93689000D02*
X131911755Y-77951000D01*
X131871755Y-93680000D02*
X131871755Y-77960000D01*
X131831755Y-93670000D02*
X131831755Y-77970000D01*
X131791755Y-93660000D02*
X131791755Y-77980000D01*
X131751755Y-93650000D02*
X131751755Y-77990000D01*
X131711755Y-93640000D02*
X131711755Y-78000000D01*
X131671755Y-93630000D02*
X131671755Y-78010000D01*
X131631755Y-93619000D02*
X131631755Y-78021000D01*
X131591755Y-93608000D02*
X131591755Y-78032000D01*
X131551755Y-93597000D02*
X131551755Y-78043000D01*
X131511755Y-93585000D02*
X131511755Y-78055000D01*
X131471755Y-93574000D02*
X131471755Y-78066000D01*
X131431755Y-93562000D02*
X131431755Y-87260000D01*
X131431755Y-84380000D02*
X131431755Y-78078000D01*
X131391755Y-93550000D02*
X131391755Y-87260000D01*
X131391755Y-84380000D02*
X131391755Y-78090000D01*
X131351755Y-93538000D02*
X131351755Y-87260000D01*
X131351755Y-84380000D02*
X131351755Y-78102000D01*
X131311755Y-93525000D02*
X131311755Y-87260000D01*
X131311755Y-84380000D02*
X131311755Y-78115000D01*
X131271755Y-93513000D02*
X131271755Y-87260000D01*
X131271755Y-84380000D02*
X131271755Y-78127000D01*
X131231755Y-93500000D02*
X131231755Y-87260000D01*
X131231755Y-84380000D02*
X131231755Y-78140000D01*
X131191755Y-93486000D02*
X131191755Y-87260000D01*
X131191755Y-84380000D02*
X131191755Y-78154000D01*
X131151755Y-93473000D02*
X131151755Y-87260000D01*
X131151755Y-84380000D02*
X131151755Y-78167000D01*
X131111755Y-93459000D02*
X131111755Y-87260000D01*
X131111755Y-84380000D02*
X131111755Y-78181000D01*
X131071755Y-93445000D02*
X131071755Y-87260000D01*
X131071755Y-84380000D02*
X131071755Y-78195000D01*
X131031755Y-93431000D02*
X131031755Y-87260000D01*
X131031755Y-84380000D02*
X131031755Y-78209000D01*
X130991755Y-93417000D02*
X130991755Y-87260000D01*
X130991755Y-84380000D02*
X130991755Y-78223000D01*
X130951755Y-93402000D02*
X130951755Y-87260000D01*
X130951755Y-84380000D02*
X130951755Y-78238000D01*
X130911755Y-93388000D02*
X130911755Y-87260000D01*
X130911755Y-84380000D02*
X130911755Y-78252000D01*
X130871755Y-93373000D02*
X130871755Y-87260000D01*
X130871755Y-84380000D02*
X130871755Y-78267000D01*
X130831755Y-93357000D02*
X130831755Y-87260000D01*
X130831755Y-84380000D02*
X130831755Y-78283000D01*
X130791755Y-93342000D02*
X130791755Y-87260000D01*
X130791755Y-84380000D02*
X130791755Y-78298000D01*
X130751755Y-93326000D02*
X130751755Y-87260000D01*
X130751755Y-84380000D02*
X130751755Y-78314000D01*
X130711755Y-93310000D02*
X130711755Y-87260000D01*
X130711755Y-84380000D02*
X130711755Y-78330000D01*
X130671755Y-93294000D02*
X130671755Y-87260000D01*
X130671755Y-84380000D02*
X130671755Y-78346000D01*
X130631755Y-93277000D02*
X130631755Y-87260000D01*
X130631755Y-84380000D02*
X130631755Y-78363000D01*
X130591755Y-93260000D02*
X130591755Y-87260000D01*
X130591755Y-84380000D02*
X130591755Y-78380000D01*
X130551755Y-93243000D02*
X130551755Y-87260000D01*
X130551755Y-84380000D02*
X130551755Y-78397000D01*
X130511755Y-93226000D02*
X130511755Y-87260000D01*
X130511755Y-84380000D02*
X130511755Y-78414000D01*
X130471755Y-93209000D02*
X130471755Y-87260000D01*
X130471755Y-84380000D02*
X130471755Y-78431000D01*
X130431755Y-93191000D02*
X130431755Y-87260000D01*
X130431755Y-84380000D02*
X130431755Y-78449000D01*
X130391755Y-93173000D02*
X130391755Y-87260000D01*
X130391755Y-84380000D02*
X130391755Y-78467000D01*
X130351755Y-93154000D02*
X130351755Y-87260000D01*
X130351755Y-84380000D02*
X130351755Y-78486000D01*
X130311755Y-93136000D02*
X130311755Y-87260000D01*
X130311755Y-84380000D02*
X130311755Y-78504000D01*
X130271755Y-93117000D02*
X130271755Y-87260000D01*
X130271755Y-84380000D02*
X130271755Y-78523000D01*
X130231755Y-93098000D02*
X130231755Y-87260000D01*
X130231755Y-84380000D02*
X130231755Y-78542000D01*
X130191755Y-93078000D02*
X130191755Y-87260000D01*
X130191755Y-84380000D02*
X130191755Y-78562000D01*
X130151755Y-93059000D02*
X130151755Y-87260000D01*
X130151755Y-84380000D02*
X130151755Y-78581000D01*
X130111755Y-93039000D02*
X130111755Y-87260000D01*
X130111755Y-84380000D02*
X130111755Y-78601000D01*
X130071755Y-93019000D02*
X130071755Y-87260000D01*
X130071755Y-84380000D02*
X130071755Y-78621000D01*
X130031755Y-92998000D02*
X130031755Y-87260000D01*
X130031755Y-84380000D02*
X130031755Y-78642000D01*
X129991755Y-92977000D02*
X129991755Y-87260000D01*
X129991755Y-84380000D02*
X129991755Y-78663000D01*
X129951755Y-92956000D02*
X129951755Y-87260000D01*
X129951755Y-84380000D02*
X129951755Y-78684000D01*
X129911755Y-92935000D02*
X129911755Y-87260000D01*
X129911755Y-84380000D02*
X129911755Y-78705000D01*
X129871755Y-92914000D02*
X129871755Y-87260000D01*
X129871755Y-84380000D02*
X129871755Y-78726000D01*
X129831755Y-92892000D02*
X129831755Y-87260000D01*
X129831755Y-84380000D02*
X129831755Y-78748000D01*
X129791755Y-92869000D02*
X129791755Y-87260000D01*
X129791755Y-84380000D02*
X129791755Y-78771000D01*
X129751755Y-92847000D02*
X129751755Y-87260000D01*
X129751755Y-84380000D02*
X129751755Y-78793000D01*
X129711755Y-92824000D02*
X129711755Y-87260000D01*
X129711755Y-84380000D02*
X129711755Y-78816000D01*
X129671755Y-92801000D02*
X129671755Y-87260000D01*
X129671755Y-84380000D02*
X129671755Y-78839000D01*
X129631755Y-92778000D02*
X129631755Y-87260000D01*
X129631755Y-84380000D02*
X129631755Y-78862000D01*
X129591755Y-92754000D02*
X129591755Y-87260000D01*
X129591755Y-84380000D02*
X129591755Y-78886000D01*
X129551755Y-92730000D02*
X129551755Y-87260000D01*
X129551755Y-84380000D02*
X129551755Y-78910000D01*
X129511755Y-92706000D02*
X129511755Y-87260000D01*
X129511755Y-84380000D02*
X129511755Y-78934000D01*
X129471755Y-92681000D02*
X129471755Y-87260000D01*
X129471755Y-84380000D02*
X129471755Y-78959000D01*
X129431755Y-92656000D02*
X129431755Y-87260000D01*
X129431755Y-84380000D02*
X129431755Y-78984000D01*
X129391755Y-92631000D02*
X129391755Y-87260000D01*
X129391755Y-84380000D02*
X129391755Y-79009000D01*
X129351755Y-92605000D02*
X129351755Y-87260000D01*
X129351755Y-84380000D02*
X129351755Y-79035000D01*
X129311755Y-92579000D02*
X129311755Y-87260000D01*
X129311755Y-84380000D02*
X129311755Y-79061000D01*
X129271755Y-92553000D02*
X129271755Y-87260000D01*
X129271755Y-84380000D02*
X129271755Y-79087000D01*
X129231755Y-92526000D02*
X129231755Y-87260000D01*
X129231755Y-84380000D02*
X129231755Y-79114000D01*
X129191755Y-92499000D02*
X129191755Y-87260000D01*
X129191755Y-84380000D02*
X129191755Y-79141000D01*
X129151755Y-92472000D02*
X129151755Y-87260000D01*
X129151755Y-84380000D02*
X129151755Y-79168000D01*
X129111755Y-92444000D02*
X129111755Y-87260000D01*
X129111755Y-84380000D02*
X129111755Y-79196000D01*
X129071755Y-92416000D02*
X129071755Y-87260000D01*
X129071755Y-84380000D02*
X129071755Y-79224000D01*
X129031755Y-92388000D02*
X129031755Y-87260000D01*
X129031755Y-84380000D02*
X129031755Y-79252000D01*
X128991755Y-92359000D02*
X128991755Y-87260000D01*
X128991755Y-84380000D02*
X128991755Y-79281000D01*
X128951755Y-92330000D02*
X128951755Y-87260000D01*
X128951755Y-84380000D02*
X128951755Y-79310000D01*
X128911755Y-92300000D02*
X128911755Y-87260000D01*
X128911755Y-84380000D02*
X128911755Y-79340000D01*
X128871755Y-92270000D02*
X128871755Y-87260000D01*
X128871755Y-84380000D02*
X128871755Y-79370000D01*
X128831755Y-92240000D02*
X128831755Y-87260000D01*
X128831755Y-84380000D02*
X128831755Y-79400000D01*
X128791755Y-92210000D02*
X128791755Y-87260000D01*
X128791755Y-84380000D02*
X128791755Y-79430000D01*
X128751755Y-92178000D02*
X128751755Y-87260000D01*
X128751755Y-84380000D02*
X128751755Y-79462000D01*
X128711755Y-92147000D02*
X128711755Y-87260000D01*
X128711755Y-84380000D02*
X128711755Y-79493000D01*
X128671755Y-92115000D02*
X128671755Y-87260000D01*
X128671755Y-84380000D02*
X128671755Y-79525000D01*
X128631755Y-92083000D02*
X128631755Y-87260000D01*
X128631755Y-84380000D02*
X128631755Y-79557000D01*
X128591755Y-92050000D02*
X128591755Y-87260000D01*
X128591755Y-84380000D02*
X128591755Y-79590000D01*
X128551755Y-92017000D02*
X128551755Y-79623000D01*
X128511755Y-91983000D02*
X128511755Y-79657000D01*
X128471755Y-91949000D02*
X128471755Y-79691000D01*
X128431755Y-91915000D02*
X128431755Y-79725000D01*
X128391755Y-91880000D02*
X128391755Y-79760000D01*
X128351755Y-91845000D02*
X128351755Y-79795000D01*
X128311755Y-91809000D02*
X128311755Y-79831000D01*
X128271755Y-91772000D02*
X128271755Y-79868000D01*
X128231755Y-91736000D02*
X128231755Y-79904000D01*
X128191755Y-91698000D02*
X128191755Y-79942000D01*
X128151755Y-91660000D02*
X128151755Y-79980000D01*
X128111755Y-91622000D02*
X128111755Y-80018000D01*
X128071755Y-91583000D02*
X128071755Y-80057000D01*
X128031755Y-91544000D02*
X128031755Y-80096000D01*
X127991755Y-91504000D02*
X127991755Y-80136000D01*
X127951755Y-91463000D02*
X127951755Y-80177000D01*
X127911755Y-91422000D02*
X127911755Y-80218000D01*
X127871755Y-91380000D02*
X127871755Y-80260000D01*
X127831755Y-91338000D02*
X127831755Y-80302000D01*
X127791755Y-91295000D02*
X127791755Y-80345000D01*
X127751755Y-91252000D02*
X127751755Y-80388000D01*
X127711755Y-91208000D02*
X127711755Y-80432000D01*
X127671755Y-91163000D02*
X127671755Y-80477000D01*
X127631755Y-91117000D02*
X127631755Y-80523000D01*
X127591755Y-91071000D02*
X127591755Y-80569000D01*
X127551755Y-91024000D02*
X127551755Y-80616000D01*
X127511755Y-90976000D02*
X127511755Y-80664000D01*
X127471755Y-90928000D02*
X127471755Y-80712000D01*
X127431755Y-90879000D02*
X127431755Y-80761000D01*
X127391755Y-90829000D02*
X127391755Y-80811000D01*
X127351755Y-90778000D02*
X127351755Y-80862000D01*
X127311755Y-90726000D02*
X127311755Y-80914000D01*
X127271755Y-90674000D02*
X127271755Y-80966000D01*
X127231755Y-90620000D02*
X127231755Y-81020000D01*
X127191755Y-90566000D02*
X127191755Y-81074000D01*
X127151755Y-90511000D02*
X127151755Y-81129000D01*
X127111755Y-90454000D02*
X127111755Y-81186000D01*
X127071755Y-90397000D02*
X127071755Y-81243000D01*
X127031755Y-90339000D02*
X127031755Y-81301000D01*
X126991755Y-90279000D02*
X126991755Y-81361000D01*
X126951755Y-90218000D02*
X126951755Y-81422000D01*
X126911755Y-90156000D02*
X126911755Y-81484000D01*
X126871755Y-90093000D02*
X126871755Y-81547000D01*
X126831755Y-90029000D02*
X126831755Y-81611000D01*
X126791755Y-89963000D02*
X126791755Y-81677000D01*
X126751755Y-89896000D02*
X126751755Y-81744000D01*
X126711755Y-89827000D02*
X126711755Y-81813000D01*
X126671755Y-89756000D02*
X126671755Y-81884000D01*
X126631755Y-89684000D02*
X126631755Y-81956000D01*
X126591755Y-89610000D02*
X126591755Y-82030000D01*
X126551755Y-89535000D02*
X126551755Y-82105000D01*
X126511755Y-89457000D02*
X126511755Y-82183000D01*
X126471755Y-89377000D02*
X126471755Y-82263000D01*
X126431755Y-89295000D02*
X126431755Y-82345000D01*
X126391755Y-89210000D02*
X126391755Y-82430000D01*
X126351755Y-89123000D02*
X126351755Y-82517000D01*
X126311755Y-89033000D02*
X126311755Y-82607000D01*
X126271755Y-88940000D02*
X126271755Y-82700000D01*
X126231755Y-88844000D02*
X126231755Y-82796000D01*
X126191755Y-88744000D02*
X126191755Y-82896000D01*
X126151755Y-88640000D02*
X126151755Y-83000000D01*
X126111755Y-88531000D02*
X126111755Y-83109000D01*
X126071755Y-88417000D02*
X126071755Y-83223000D01*
X126031755Y-88298000D02*
X126031755Y-83342000D01*
X125991755Y-88171000D02*
X125991755Y-83469000D01*
X125951755Y-88038000D02*
X125951755Y-83602000D01*
X125911755Y-87894000D02*
X125911755Y-83746000D01*
X125871755Y-87740000D02*
X125871755Y-83900000D01*
X125831755Y-87572000D02*
X125831755Y-84068000D01*
X125791755Y-87384000D02*
X125791755Y-84256000D01*
X125751755Y-87171000D02*
X125751755Y-84469000D01*
X125711755Y-86918000D02*
X125711755Y-84722000D01*
X125671755Y-86585000D02*
X125671755Y-85055000D01*
X141872755Y-85820000D02*
G75*
G03*
X141872755Y-85820000I-8120000J0D01*
G01*
%TO.C,R2*%
X139615000Y-94859564D02*
X139615000Y-94405436D01*
X141085000Y-94859564D02*
X141085000Y-94405436D01*
%TO.C,D1*%
X159890000Y-87560000D02*
X158980000Y-87560000D01*
X158980000Y-90280000D02*
X158980000Y-84840000D01*
X158980000Y-84840000D02*
X149240000Y-84840000D01*
X157555000Y-90280000D02*
X157555000Y-84840000D01*
X157435000Y-90280000D02*
X157435000Y-84840000D01*
X157315000Y-90280000D02*
X157315000Y-84840000D01*
X149240000Y-90280000D02*
X158980000Y-90280000D01*
X149240000Y-84840000D02*
X149240000Y-90280000D01*
X148330000Y-87560000D02*
X149240000Y-87560000D01*
%TO.C,D2*%
X113147500Y-78877500D02*
X113147500Y-80797500D01*
X113147500Y-80797500D02*
X115832500Y-80797500D01*
X115832500Y-78877500D02*
X113147500Y-78877500D01*
%TO.C,L1*%
X178124600Y-103178000D02*
G75*
G03*
X178124600Y-103178000I-12674600J0D01*
G01*
%TO.C,J1*%
X106780000Y-84670000D02*
X107420000Y-84670000D01*
X107420000Y-84670000D02*
X107420000Y-84270000D01*
X100440000Y-84430000D02*
X107180000Y-84430000D01*
X100440000Y-84430000D02*
X100440000Y-78650000D01*
X101560000Y-84430000D02*
X101560000Y-78650000D01*
X106660000Y-84430000D02*
X106660000Y-78650000D01*
X107180000Y-84430000D02*
X107180000Y-78650000D01*
X100440000Y-78650000D02*
X107180000Y-78650000D01*
%TO.C,R3*%
X154102936Y-92655000D02*
X154557064Y-92655000D01*
X154102936Y-94125000D02*
X154557064Y-94125000D01*
D13*
%TO.C,U1*%
X141130000Y-96950000D02*
X141130000Y-97035000D01*
X141130000Y-96950000D02*
X148630000Y-96950000D01*
X141130000Y-107250000D02*
X141130000Y-107165000D01*
X141130000Y-107250000D02*
X148630000Y-107250000D01*
X148630000Y-96950000D02*
X148630000Y-97035000D01*
X148630000Y-107250000D02*
X148630000Y-107165000D01*
D14*
X138330000Y-97655000D02*
G75*
G03*
X138330000Y-97655000I-100000J0D01*
G01*
%TD*%
M02*
