M48
; DRILL file {KiCad 7.0.7} date Wed Sep 13 14:09:16 2023
; FORMAT={-:-/ absolute / inch / decimal}
; #@! TF.CreationDate,2023-09-13T14:09:16-04:00
; #@! TF.GenerationSoftware,Kicad,Pcbnew,7.0.7
; #@! TF.FileFunction,Plated,1,4,PTH
FMAT,2
INCH
; #@! TA.AperFunction,Plated,PTH,ViaDrill
T1C0.0118
; #@! TA.AperFunction,Plated,PTH,ViaDrill
T2C0.0157
; #@! TA.AperFunction,Plated,PTH,ComponentDrill
T3C0.0236
; #@! TA.AperFunction,Plated,PTH,ComponentDrill
T4C0.0300
; #@! TA.AperFunction,Plated,PTH,ComponentDrill
T5C0.0433
; #@! TA.AperFunction,Plated,PTH,ComponentDrill
T6C0.0472
; #@! TA.AperFunction,Plated,PTH,ComponentDrill
T7C0.0630
; #@! TA.AperFunction,Plated,PTH,ComponentDrill
T8C0.0780
%
G90
G05
T1
X4.0753Y-3.4173
X4.0753Y-3.6142
X4.0753Y-3.811
X4.0753Y-4.0079
X4.0753Y-4.2047
X4.2721Y-3.2205
X4.2721Y-3.4173
X4.2721Y-3.6142
X4.2721Y-3.811
X4.2721Y-4.0079
X4.2721Y-4.2047
X4.469Y-3.2205
X4.469Y-3.4173
X4.469Y-3.6142
X4.469Y-3.811
X4.469Y-4.0079
X4.469Y-4.2047
X4.469Y-4.4016
X4.6658Y-3.2205
X4.6658Y-3.4173
X4.6658Y-3.6142
X4.6658Y-3.811
X4.6658Y-4.0079
X4.6658Y-4.2047
X4.6658Y-4.4016
X4.8627Y-3.2205
X4.8627Y-3.4173
X4.8627Y-3.6142
X4.8627Y-3.811
X4.8627Y-4.2047
X4.8627Y-4.4016
X5.0595Y-3.2205
X5.0595Y-3.6142
X5.0595Y-3.811
X5.0595Y-4.2047
X5.2564Y-3.2205
X5.2564Y-3.4173
X5.2564Y-3.6142
X5.2564Y-3.811
X5.2564Y-4.0079
X5.2564Y-4.2047
X5.4532Y-3.2205
X5.4532Y-3.6142
X5.4532Y-4.4016
X5.6501Y-3.2205
X5.6501Y-3.4173
X5.6501Y-3.6142
X5.6501Y-4.2047
X5.6501Y-4.4016
X5.8469Y-3.2205
X6.0438Y-3.2205
X6.0438Y-3.4173
X6.0438Y-3.811
X6.0438Y-4.0079
X6.0438Y-4.2047
X6.0438Y-4.4016
X6.2406Y-3.2205
X6.2406Y-3.4173
X6.2406Y-3.6142
X6.2406Y-3.811
X6.2406Y-4.0079
X6.2406Y-4.2047
X6.2406Y-4.4016
X6.4375Y-3.2205
X6.4375Y-3.6142
X6.4375Y-3.811
X6.4375Y-4.0079
X6.4375Y-4.2047
X6.4375Y-4.4016
X6.6343Y-3.2205
X6.6343Y-3.4173
X6.6343Y-3.6142
X6.6343Y-3.811
X6.6343Y-4.0079
X6.6343Y-4.2047
X6.6343Y-4.4016
X6.8312Y-3.4173
X6.8312Y-3.6142
X6.8312Y-3.811
X6.8312Y-4.0079
X6.8312Y-4.2047
X6.8312Y-4.4016
T2
X4.4248Y-3.1433
X5.5917Y-3.9445
X5.5917Y-3.9945
X5.5917Y-4.0445
X5.7492Y-3.7622
X5.8177Y-3.9945
X5.8177Y-4.0449
T3
X5.3441Y-4.0295
X5.3441Y-4.1083
T4
X6.5138Y-3.7921
X6.5138Y-4.4921
T5
X4.087Y-3.1602
X4.087Y-3.2602
X6.876Y-3.1602
X6.876Y-3.2602
T6
X4.8909Y-3.9638
X5.0878Y-3.9638
X5.1182Y-3.3787
X5.4135Y-3.3787
T7
X5.7673Y-3.4472
X6.3673Y-3.4472
T8
X4.0002Y-4.3992
X4.3002Y-4.3992
X5.047Y-4.3992
X5.347Y-4.3992
T0
M30
