%TF.GenerationSoftware,KiCad,Pcbnew,7.0.7*%
%TF.CreationDate,2023-09-13T14:30:02-04:00*%
%TF.ProjectId,Alim,416c696d-2e6b-4696-9361-645f70636258,rev?*%
%TF.SameCoordinates,Original*%
%TF.FileFunction,Legend,Bot*%
%TF.FilePolarity,Positive*%
%FSLAX46Y46*%
G04 Gerber Fmt 4.6, Leading zero omitted, Abs format (unit mm)*
G04 Created by KiCad (PCBNEW 7.0.7) date 2023-09-13 14:30:02*
%MOMM*%
%LPD*%
G01*
G04 APERTURE LIST*
%ADD10C,0.150000*%
G04 APERTURE END LIST*
D10*
X169820839Y-78404104D02*
X169344649Y-78404104D01*
X169916077Y-78689819D02*
X169582744Y-77689819D01*
X169582744Y-77689819D02*
X169249411Y-78689819D01*
X168773220Y-78689819D02*
X168868458Y-78642200D01*
X168868458Y-78642200D02*
X168916077Y-78546961D01*
X168916077Y-78546961D02*
X168916077Y-77689819D01*
X168392267Y-78689819D02*
X168392267Y-78023152D01*
X168392267Y-77689819D02*
X168439886Y-77737438D01*
X168439886Y-77737438D02*
X168392267Y-77785057D01*
X168392267Y-77785057D02*
X168344648Y-77737438D01*
X168344648Y-77737438D02*
X168392267Y-77689819D01*
X168392267Y-77689819D02*
X168392267Y-77785057D01*
X167916077Y-78689819D02*
X167916077Y-78023152D01*
X167916077Y-78118390D02*
X167868458Y-78070771D01*
X167868458Y-78070771D02*
X167773220Y-78023152D01*
X167773220Y-78023152D02*
X167630363Y-78023152D01*
X167630363Y-78023152D02*
X167535125Y-78070771D01*
X167535125Y-78070771D02*
X167487506Y-78166009D01*
X167487506Y-78166009D02*
X167487506Y-78689819D01*
X167487506Y-78166009D02*
X167439887Y-78070771D01*
X167439887Y-78070771D02*
X167344649Y-78023152D01*
X167344649Y-78023152D02*
X167201792Y-78023152D01*
X167201792Y-78023152D02*
X167106553Y-78070771D01*
X167106553Y-78070771D02*
X167058934Y-78166009D01*
X167058934Y-78166009D02*
X167058934Y-78689819D01*
X166201792Y-78642200D02*
X166297030Y-78689819D01*
X166297030Y-78689819D02*
X166487506Y-78689819D01*
X166487506Y-78689819D02*
X166582744Y-78642200D01*
X166582744Y-78642200D02*
X166630363Y-78546961D01*
X166630363Y-78546961D02*
X166630363Y-78166009D01*
X166630363Y-78166009D02*
X166582744Y-78070771D01*
X166582744Y-78070771D02*
X166487506Y-78023152D01*
X166487506Y-78023152D02*
X166297030Y-78023152D01*
X166297030Y-78023152D02*
X166201792Y-78070771D01*
X166201792Y-78070771D02*
X166154173Y-78166009D01*
X166154173Y-78166009D02*
X166154173Y-78261247D01*
X166154173Y-78261247D02*
X166630363Y-78356485D01*
X165725601Y-78023152D02*
X165725601Y-78689819D01*
X165725601Y-78118390D02*
X165677982Y-78070771D01*
X165677982Y-78070771D02*
X165582744Y-78023152D01*
X165582744Y-78023152D02*
X165439887Y-78023152D01*
X165439887Y-78023152D02*
X165344649Y-78070771D01*
X165344649Y-78070771D02*
X165297030Y-78166009D01*
X165297030Y-78166009D02*
X165297030Y-78689819D01*
X164963696Y-78023152D02*
X164582744Y-78023152D01*
X164820839Y-77689819D02*
X164820839Y-78546961D01*
X164820839Y-78546961D02*
X164773220Y-78642200D01*
X164773220Y-78642200D02*
X164677982Y-78689819D01*
X164677982Y-78689819D02*
X164582744Y-78689819D01*
X163820839Y-78689819D02*
X163820839Y-78166009D01*
X163820839Y-78166009D02*
X163868458Y-78070771D01*
X163868458Y-78070771D02*
X163963696Y-78023152D01*
X163963696Y-78023152D02*
X164154172Y-78023152D01*
X164154172Y-78023152D02*
X164249410Y-78070771D01*
X163820839Y-78642200D02*
X163916077Y-78689819D01*
X163916077Y-78689819D02*
X164154172Y-78689819D01*
X164154172Y-78689819D02*
X164249410Y-78642200D01*
X164249410Y-78642200D02*
X164297029Y-78546961D01*
X164297029Y-78546961D02*
X164297029Y-78451723D01*
X164297029Y-78451723D02*
X164249410Y-78356485D01*
X164249410Y-78356485D02*
X164154172Y-78308866D01*
X164154172Y-78308866D02*
X163916077Y-78308866D01*
X163916077Y-78308866D02*
X163820839Y-78261247D01*
X163487505Y-78023152D02*
X163106553Y-78023152D01*
X163344648Y-77689819D02*
X163344648Y-78546961D01*
X163344648Y-78546961D02*
X163297029Y-78642200D01*
X163297029Y-78642200D02*
X163201791Y-78689819D01*
X163201791Y-78689819D02*
X163106553Y-78689819D01*
X162773219Y-78689819D02*
X162773219Y-78023152D01*
X162773219Y-77689819D02*
X162820838Y-77737438D01*
X162820838Y-77737438D02*
X162773219Y-77785057D01*
X162773219Y-77785057D02*
X162725600Y-77737438D01*
X162725600Y-77737438D02*
X162773219Y-77689819D01*
X162773219Y-77689819D02*
X162773219Y-77785057D01*
X162154172Y-78689819D02*
X162249410Y-78642200D01*
X162249410Y-78642200D02*
X162297029Y-78594580D01*
X162297029Y-78594580D02*
X162344648Y-78499342D01*
X162344648Y-78499342D02*
X162344648Y-78213628D01*
X162344648Y-78213628D02*
X162297029Y-78118390D01*
X162297029Y-78118390D02*
X162249410Y-78070771D01*
X162249410Y-78070771D02*
X162154172Y-78023152D01*
X162154172Y-78023152D02*
X162011315Y-78023152D01*
X162011315Y-78023152D02*
X161916077Y-78070771D01*
X161916077Y-78070771D02*
X161868458Y-78118390D01*
X161868458Y-78118390D02*
X161820839Y-78213628D01*
X161820839Y-78213628D02*
X161820839Y-78499342D01*
X161820839Y-78499342D02*
X161868458Y-78594580D01*
X161868458Y-78594580D02*
X161916077Y-78642200D01*
X161916077Y-78642200D02*
X162011315Y-78689819D01*
X162011315Y-78689819D02*
X162154172Y-78689819D01*
X161392267Y-78023152D02*
X161392267Y-78689819D01*
X161392267Y-78118390D02*
X161344648Y-78070771D01*
X161344648Y-78070771D02*
X161249410Y-78023152D01*
X161249410Y-78023152D02*
X161106553Y-78023152D01*
X161106553Y-78023152D02*
X161011315Y-78070771D01*
X161011315Y-78070771D02*
X160963696Y-78166009D01*
X160963696Y-78166009D02*
X160963696Y-78689819D01*
X159820838Y-77689819D02*
X159201791Y-77689819D01*
X159201791Y-77689819D02*
X159535124Y-78070771D01*
X159535124Y-78070771D02*
X159392267Y-78070771D01*
X159392267Y-78070771D02*
X159297029Y-78118390D01*
X159297029Y-78118390D02*
X159249410Y-78166009D01*
X159249410Y-78166009D02*
X159201791Y-78261247D01*
X159201791Y-78261247D02*
X159201791Y-78499342D01*
X159201791Y-78499342D02*
X159249410Y-78594580D01*
X159249410Y-78594580D02*
X159297029Y-78642200D01*
X159297029Y-78642200D02*
X159392267Y-78689819D01*
X159392267Y-78689819D02*
X159677981Y-78689819D01*
X159677981Y-78689819D02*
X159773219Y-78642200D01*
X159773219Y-78642200D02*
X159820838Y-78594580D01*
X158773219Y-78594580D02*
X158725600Y-78642200D01*
X158725600Y-78642200D02*
X158773219Y-78689819D01*
X158773219Y-78689819D02*
X158820838Y-78642200D01*
X158820838Y-78642200D02*
X158773219Y-78594580D01*
X158773219Y-78594580D02*
X158773219Y-78689819D01*
X158392267Y-77689819D02*
X157773220Y-77689819D01*
X157773220Y-77689819D02*
X158106553Y-78070771D01*
X158106553Y-78070771D02*
X157963696Y-78070771D01*
X157963696Y-78070771D02*
X157868458Y-78118390D01*
X157868458Y-78118390D02*
X157820839Y-78166009D01*
X157820839Y-78166009D02*
X157773220Y-78261247D01*
X157773220Y-78261247D02*
X157773220Y-78499342D01*
X157773220Y-78499342D02*
X157820839Y-78594580D01*
X157820839Y-78594580D02*
X157868458Y-78642200D01*
X157868458Y-78642200D02*
X157963696Y-78689819D01*
X157963696Y-78689819D02*
X158249410Y-78689819D01*
X158249410Y-78689819D02*
X158344648Y-78642200D01*
X158344648Y-78642200D02*
X158392267Y-78594580D01*
X157487505Y-77689819D02*
X157154172Y-78689819D01*
X157154172Y-78689819D02*
X156820839Y-77689819D01*
X169201792Y-80204580D02*
X169249411Y-80252200D01*
X169249411Y-80252200D02*
X169392268Y-80299819D01*
X169392268Y-80299819D02*
X169487506Y-80299819D01*
X169487506Y-80299819D02*
X169630363Y-80252200D01*
X169630363Y-80252200D02*
X169725601Y-80156961D01*
X169725601Y-80156961D02*
X169773220Y-80061723D01*
X169773220Y-80061723D02*
X169820839Y-79871247D01*
X169820839Y-79871247D02*
X169820839Y-79728390D01*
X169820839Y-79728390D02*
X169773220Y-79537914D01*
X169773220Y-79537914D02*
X169725601Y-79442676D01*
X169725601Y-79442676D02*
X169630363Y-79347438D01*
X169630363Y-79347438D02*
X169487506Y-79299819D01*
X169487506Y-79299819D02*
X169392268Y-79299819D01*
X169392268Y-79299819D02*
X169249411Y-79347438D01*
X169249411Y-79347438D02*
X169201792Y-79395057D01*
X168392268Y-80252200D02*
X168487506Y-80299819D01*
X168487506Y-80299819D02*
X168677982Y-80299819D01*
X168677982Y-80299819D02*
X168773220Y-80252200D01*
X168773220Y-80252200D02*
X168820839Y-80156961D01*
X168820839Y-80156961D02*
X168820839Y-79776009D01*
X168820839Y-79776009D02*
X168773220Y-79680771D01*
X168773220Y-79680771D02*
X168677982Y-79633152D01*
X168677982Y-79633152D02*
X168487506Y-79633152D01*
X168487506Y-79633152D02*
X168392268Y-79680771D01*
X168392268Y-79680771D02*
X168344649Y-79776009D01*
X168344649Y-79776009D02*
X168344649Y-79871247D01*
X168344649Y-79871247D02*
X168820839Y-79966485D01*
X168487506Y-79252200D02*
X168630363Y-79395057D01*
X167487506Y-79633152D02*
X167487506Y-80442676D01*
X167487506Y-80442676D02*
X167535125Y-80537914D01*
X167535125Y-80537914D02*
X167582744Y-80585533D01*
X167582744Y-80585533D02*
X167677982Y-80633152D01*
X167677982Y-80633152D02*
X167820839Y-80633152D01*
X167820839Y-80633152D02*
X167916077Y-80585533D01*
X167487506Y-80252200D02*
X167582744Y-80299819D01*
X167582744Y-80299819D02*
X167773220Y-80299819D01*
X167773220Y-80299819D02*
X167868458Y-80252200D01*
X167868458Y-80252200D02*
X167916077Y-80204580D01*
X167916077Y-80204580D02*
X167963696Y-80109342D01*
X167963696Y-80109342D02*
X167963696Y-79823628D01*
X167963696Y-79823628D02*
X167916077Y-79728390D01*
X167916077Y-79728390D02*
X167868458Y-79680771D01*
X167868458Y-79680771D02*
X167773220Y-79633152D01*
X167773220Y-79633152D02*
X167582744Y-79633152D01*
X167582744Y-79633152D02*
X167487506Y-79680771D01*
X166630363Y-80252200D02*
X166725601Y-80299819D01*
X166725601Y-80299819D02*
X166916077Y-80299819D01*
X166916077Y-80299819D02*
X167011315Y-80252200D01*
X167011315Y-80252200D02*
X167058934Y-80156961D01*
X167058934Y-80156961D02*
X167058934Y-79776009D01*
X167058934Y-79776009D02*
X167011315Y-79680771D01*
X167011315Y-79680771D02*
X166916077Y-79633152D01*
X166916077Y-79633152D02*
X166725601Y-79633152D01*
X166725601Y-79633152D02*
X166630363Y-79680771D01*
X166630363Y-79680771D02*
X166582744Y-79776009D01*
X166582744Y-79776009D02*
X166582744Y-79871247D01*
X166582744Y-79871247D02*
X167058934Y-79966485D01*
X166154172Y-79633152D02*
X166154172Y-80633152D01*
X166154172Y-79680771D02*
X166058934Y-79633152D01*
X166058934Y-79633152D02*
X165868458Y-79633152D01*
X165868458Y-79633152D02*
X165773220Y-79680771D01*
X165773220Y-79680771D02*
X165725601Y-79728390D01*
X165725601Y-79728390D02*
X165677982Y-79823628D01*
X165677982Y-79823628D02*
X165677982Y-80109342D01*
X165677982Y-80109342D02*
X165725601Y-80204580D01*
X165725601Y-80204580D02*
X165773220Y-80252200D01*
X165773220Y-80252200D02*
X165868458Y-80299819D01*
X165868458Y-80299819D02*
X166058934Y-80299819D01*
X166058934Y-80299819D02*
X166154172Y-80252200D01*
X164058934Y-80299819D02*
X164058934Y-79299819D01*
X164058934Y-80252200D02*
X164154172Y-80299819D01*
X164154172Y-80299819D02*
X164344648Y-80299819D01*
X164344648Y-80299819D02*
X164439886Y-80252200D01*
X164439886Y-80252200D02*
X164487505Y-80204580D01*
X164487505Y-80204580D02*
X164535124Y-80109342D01*
X164535124Y-80109342D02*
X164535124Y-79823628D01*
X164535124Y-79823628D02*
X164487505Y-79728390D01*
X164487505Y-79728390D02*
X164439886Y-79680771D01*
X164439886Y-79680771D02*
X164344648Y-79633152D01*
X164344648Y-79633152D02*
X164154172Y-79633152D01*
X164154172Y-79633152D02*
X164058934Y-79680771D01*
X163201791Y-80252200D02*
X163297029Y-80299819D01*
X163297029Y-80299819D02*
X163487505Y-80299819D01*
X163487505Y-80299819D02*
X163582743Y-80252200D01*
X163582743Y-80252200D02*
X163630362Y-80156961D01*
X163630362Y-80156961D02*
X163630362Y-79776009D01*
X163630362Y-79776009D02*
X163582743Y-79680771D01*
X163582743Y-79680771D02*
X163487505Y-79633152D01*
X163487505Y-79633152D02*
X163297029Y-79633152D01*
X163297029Y-79633152D02*
X163201791Y-79680771D01*
X163201791Y-79680771D02*
X163154172Y-79776009D01*
X163154172Y-79776009D02*
X163154172Y-79871247D01*
X163154172Y-79871247D02*
X163630362Y-79966485D01*
X162011314Y-80252200D02*
X161868457Y-80299819D01*
X161868457Y-80299819D02*
X161630362Y-80299819D01*
X161630362Y-80299819D02*
X161535124Y-80252200D01*
X161535124Y-80252200D02*
X161487505Y-80204580D01*
X161487505Y-80204580D02*
X161439886Y-80109342D01*
X161439886Y-80109342D02*
X161439886Y-80014104D01*
X161439886Y-80014104D02*
X161487505Y-79918866D01*
X161487505Y-79918866D02*
X161535124Y-79871247D01*
X161535124Y-79871247D02*
X161630362Y-79823628D01*
X161630362Y-79823628D02*
X161820838Y-79776009D01*
X161820838Y-79776009D02*
X161916076Y-79728390D01*
X161916076Y-79728390D02*
X161963695Y-79680771D01*
X161963695Y-79680771D02*
X162011314Y-79585533D01*
X162011314Y-79585533D02*
X162011314Y-79490295D01*
X162011314Y-79490295D02*
X161963695Y-79395057D01*
X161963695Y-79395057D02*
X161916076Y-79347438D01*
X161916076Y-79347438D02*
X161820838Y-79299819D01*
X161820838Y-79299819D02*
X161582743Y-79299819D01*
X161582743Y-79299819D02*
X161439886Y-79347438D01*
X161011314Y-80299819D02*
X161011314Y-79299819D01*
X160582743Y-80299819D02*
X160582743Y-79776009D01*
X160582743Y-79776009D02*
X160630362Y-79680771D01*
X160630362Y-79680771D02*
X160725600Y-79633152D01*
X160725600Y-79633152D02*
X160868457Y-79633152D01*
X160868457Y-79633152D02*
X160963695Y-79680771D01*
X160963695Y-79680771D02*
X161011314Y-79728390D01*
X159725600Y-80252200D02*
X159820838Y-80299819D01*
X159820838Y-80299819D02*
X160011314Y-80299819D01*
X160011314Y-80299819D02*
X160106552Y-80252200D01*
X160106552Y-80252200D02*
X160154171Y-80156961D01*
X160154171Y-80156961D02*
X160154171Y-79776009D01*
X160154171Y-79776009D02*
X160106552Y-79680771D01*
X160106552Y-79680771D02*
X160011314Y-79633152D01*
X160011314Y-79633152D02*
X159820838Y-79633152D01*
X159820838Y-79633152D02*
X159725600Y-79680771D01*
X159725600Y-79680771D02*
X159677981Y-79776009D01*
X159677981Y-79776009D02*
X159677981Y-79871247D01*
X159677981Y-79871247D02*
X160154171Y-79966485D01*
X159249409Y-80299819D02*
X159249409Y-79633152D01*
X159249409Y-79823628D02*
X159201790Y-79728390D01*
X159201790Y-79728390D02*
X159154171Y-79680771D01*
X159154171Y-79680771D02*
X159058933Y-79633152D01*
X159058933Y-79633152D02*
X158963695Y-79633152D01*
X158630361Y-80299819D02*
X158630361Y-79299819D01*
X158630361Y-79680771D02*
X158535123Y-79633152D01*
X158535123Y-79633152D02*
X158344647Y-79633152D01*
X158344647Y-79633152D02*
X158249409Y-79680771D01*
X158249409Y-79680771D02*
X158201790Y-79728390D01*
X158201790Y-79728390D02*
X158154171Y-79823628D01*
X158154171Y-79823628D02*
X158154171Y-80109342D01*
X158154171Y-80109342D02*
X158201790Y-80204580D01*
X158201790Y-80204580D02*
X158249409Y-80252200D01*
X158249409Y-80252200D02*
X158344647Y-80299819D01*
X158344647Y-80299819D02*
X158535123Y-80299819D01*
X158535123Y-80299819D02*
X158630361Y-80252200D01*
X157725599Y-80299819D02*
X157725599Y-79633152D01*
X157725599Y-79823628D02*
X157677980Y-79728390D01*
X157677980Y-79728390D02*
X157630361Y-79680771D01*
X157630361Y-79680771D02*
X157535123Y-79633152D01*
X157535123Y-79633152D02*
X157439885Y-79633152D01*
X156963694Y-80299819D02*
X157058932Y-80252200D01*
X157058932Y-80252200D02*
X157106551Y-80204580D01*
X157106551Y-80204580D02*
X157154170Y-80109342D01*
X157154170Y-80109342D02*
X157154170Y-79823628D01*
X157154170Y-79823628D02*
X157106551Y-79728390D01*
X157106551Y-79728390D02*
X157058932Y-79680771D01*
X157058932Y-79680771D02*
X156963694Y-79633152D01*
X156963694Y-79633152D02*
X156820837Y-79633152D01*
X156820837Y-79633152D02*
X156725599Y-79680771D01*
X156725599Y-79680771D02*
X156677980Y-79728390D01*
X156677980Y-79728390D02*
X156630361Y-79823628D01*
X156630361Y-79823628D02*
X156630361Y-80109342D01*
X156630361Y-80109342D02*
X156677980Y-80204580D01*
X156677980Y-80204580D02*
X156725599Y-80252200D01*
X156725599Y-80252200D02*
X156820837Y-80299819D01*
X156820837Y-80299819D02*
X156963694Y-80299819D01*
X156058932Y-80299819D02*
X156154170Y-80252200D01*
X156154170Y-80252200D02*
X156201789Y-80204580D01*
X156201789Y-80204580D02*
X156249408Y-80109342D01*
X156249408Y-80109342D02*
X156249408Y-79823628D01*
X156249408Y-79823628D02*
X156201789Y-79728390D01*
X156201789Y-79728390D02*
X156154170Y-79680771D01*
X156154170Y-79680771D02*
X156058932Y-79633152D01*
X156058932Y-79633152D02*
X155916075Y-79633152D01*
X155916075Y-79633152D02*
X155820837Y-79680771D01*
X155820837Y-79680771D02*
X155773218Y-79728390D01*
X155773218Y-79728390D02*
X155725599Y-79823628D01*
X155725599Y-79823628D02*
X155725599Y-80109342D01*
X155725599Y-80109342D02*
X155773218Y-80204580D01*
X155773218Y-80204580D02*
X155820837Y-80252200D01*
X155820837Y-80252200D02*
X155916075Y-80299819D01*
X155916075Y-80299819D02*
X156058932Y-80299819D01*
X155297027Y-80299819D02*
X155297027Y-79299819D01*
X155201789Y-79918866D02*
X154916075Y-80299819D01*
X154916075Y-79633152D02*
X155297027Y-80014104D01*
X154106551Y-80252200D02*
X154201789Y-80299819D01*
X154201789Y-80299819D02*
X154392265Y-80299819D01*
X154392265Y-80299819D02*
X154487503Y-80252200D01*
X154487503Y-80252200D02*
X154535122Y-80156961D01*
X154535122Y-80156961D02*
X154535122Y-79776009D01*
X154535122Y-79776009D02*
X154487503Y-79680771D01*
X154487503Y-79680771D02*
X154392265Y-79633152D01*
X154392265Y-79633152D02*
X154201789Y-79633152D01*
X154201789Y-79633152D02*
X154106551Y-79680771D01*
X154106551Y-79680771D02*
X154058932Y-79776009D01*
X154058932Y-79776009D02*
X154058932Y-79871247D01*
X154058932Y-79871247D02*
X154535122Y-79966485D01*
X169439887Y-81386009D02*
X169773220Y-81386009D01*
X169773220Y-81909819D02*
X169773220Y-80909819D01*
X169773220Y-80909819D02*
X169297030Y-80909819D01*
X168535125Y-81862200D02*
X168630363Y-81909819D01*
X168630363Y-81909819D02*
X168820839Y-81909819D01*
X168820839Y-81909819D02*
X168916077Y-81862200D01*
X168916077Y-81862200D02*
X168963696Y-81766961D01*
X168963696Y-81766961D02*
X168963696Y-81386009D01*
X168963696Y-81386009D02*
X168916077Y-81290771D01*
X168916077Y-81290771D02*
X168820839Y-81243152D01*
X168820839Y-81243152D02*
X168630363Y-81243152D01*
X168630363Y-81243152D02*
X168535125Y-81290771D01*
X168535125Y-81290771D02*
X168487506Y-81386009D01*
X168487506Y-81386009D02*
X168487506Y-81481247D01*
X168487506Y-81481247D02*
X168963696Y-81576485D01*
X168630363Y-80862200D02*
X168773220Y-81005057D01*
X168058934Y-81909819D02*
X168058934Y-81243152D01*
X168058934Y-80909819D02*
X168106553Y-80957438D01*
X168106553Y-80957438D02*
X168058934Y-81005057D01*
X168058934Y-81005057D02*
X168011315Y-80957438D01*
X168011315Y-80957438D02*
X168058934Y-80909819D01*
X168058934Y-80909819D02*
X168058934Y-81005057D01*
X167677982Y-81909819D02*
X167154173Y-81243152D01*
X167677982Y-81243152D02*
X167154173Y-81909819D01*
X166773220Y-81528866D02*
X166011316Y-81528866D01*
X165582744Y-81624104D02*
X165106554Y-81624104D01*
X165677982Y-81909819D02*
X165344649Y-80909819D01*
X165344649Y-80909819D02*
X165011316Y-81909819D01*
X164677982Y-81243152D02*
X164677982Y-81909819D01*
X164677982Y-81338390D02*
X164630363Y-81290771D01*
X164630363Y-81290771D02*
X164535125Y-81243152D01*
X164535125Y-81243152D02*
X164392268Y-81243152D01*
X164392268Y-81243152D02*
X164297030Y-81290771D01*
X164297030Y-81290771D02*
X164249411Y-81386009D01*
X164249411Y-81386009D02*
X164249411Y-81909819D01*
X163916077Y-81243152D02*
X163535125Y-81243152D01*
X163773220Y-80909819D02*
X163773220Y-81766961D01*
X163773220Y-81766961D02*
X163725601Y-81862200D01*
X163725601Y-81862200D02*
X163630363Y-81909819D01*
X163630363Y-81909819D02*
X163535125Y-81909819D01*
X163058934Y-81909819D02*
X163154172Y-81862200D01*
X163154172Y-81862200D02*
X163201791Y-81814580D01*
X163201791Y-81814580D02*
X163249410Y-81719342D01*
X163249410Y-81719342D02*
X163249410Y-81433628D01*
X163249410Y-81433628D02*
X163201791Y-81338390D01*
X163201791Y-81338390D02*
X163154172Y-81290771D01*
X163154172Y-81290771D02*
X163058934Y-81243152D01*
X163058934Y-81243152D02*
X162916077Y-81243152D01*
X162916077Y-81243152D02*
X162820839Y-81290771D01*
X162820839Y-81290771D02*
X162773220Y-81338390D01*
X162773220Y-81338390D02*
X162725601Y-81433628D01*
X162725601Y-81433628D02*
X162725601Y-81719342D01*
X162725601Y-81719342D02*
X162773220Y-81814580D01*
X162773220Y-81814580D02*
X162820839Y-81862200D01*
X162820839Y-81862200D02*
X162916077Y-81909819D01*
X162916077Y-81909819D02*
X163058934Y-81909819D01*
X162297029Y-81909819D02*
X162297029Y-81243152D01*
X162297029Y-80909819D02*
X162344648Y-80957438D01*
X162344648Y-80957438D02*
X162297029Y-81005057D01*
X162297029Y-81005057D02*
X162249410Y-80957438D01*
X162249410Y-80957438D02*
X162297029Y-80909819D01*
X162297029Y-80909819D02*
X162297029Y-81005057D01*
X161820839Y-81243152D02*
X161820839Y-81909819D01*
X161820839Y-81338390D02*
X161773220Y-81290771D01*
X161773220Y-81290771D02*
X161677982Y-81243152D01*
X161677982Y-81243152D02*
X161535125Y-81243152D01*
X161535125Y-81243152D02*
X161439887Y-81290771D01*
X161439887Y-81290771D02*
X161392268Y-81386009D01*
X161392268Y-81386009D02*
X161392268Y-81909819D01*
X160535125Y-81862200D02*
X160630363Y-81909819D01*
X160630363Y-81909819D02*
X160820839Y-81909819D01*
X160820839Y-81909819D02*
X160916077Y-81862200D01*
X160916077Y-81862200D02*
X160963696Y-81766961D01*
X160963696Y-81766961D02*
X160963696Y-81386009D01*
X160963696Y-81386009D02*
X160916077Y-81290771D01*
X160916077Y-81290771D02*
X160820839Y-81243152D01*
X160820839Y-81243152D02*
X160630363Y-81243152D01*
X160630363Y-81243152D02*
X160535125Y-81290771D01*
X160535125Y-81290771D02*
X160487506Y-81386009D01*
X160487506Y-81386009D02*
X160487506Y-81481247D01*
X160487506Y-81481247D02*
X160963696Y-81576485D01*
X158773220Y-80957438D02*
X158868458Y-80909819D01*
X158868458Y-80909819D02*
X159011315Y-80909819D01*
X159011315Y-80909819D02*
X159154172Y-80957438D01*
X159154172Y-80957438D02*
X159249410Y-81052676D01*
X159249410Y-81052676D02*
X159297029Y-81147914D01*
X159297029Y-81147914D02*
X159344648Y-81338390D01*
X159344648Y-81338390D02*
X159344648Y-81481247D01*
X159344648Y-81481247D02*
X159297029Y-81671723D01*
X159297029Y-81671723D02*
X159249410Y-81766961D01*
X159249410Y-81766961D02*
X159154172Y-81862200D01*
X159154172Y-81862200D02*
X159011315Y-81909819D01*
X159011315Y-81909819D02*
X158916077Y-81909819D01*
X158916077Y-81909819D02*
X158773220Y-81862200D01*
X158773220Y-81862200D02*
X158725601Y-81814580D01*
X158725601Y-81814580D02*
X158725601Y-81481247D01*
X158725601Y-81481247D02*
X158916077Y-81481247D01*
X157868458Y-81243152D02*
X157868458Y-81909819D01*
X158297029Y-81243152D02*
X158297029Y-81766961D01*
X158297029Y-81766961D02*
X158249410Y-81862200D01*
X158249410Y-81862200D02*
X158154172Y-81909819D01*
X158154172Y-81909819D02*
X158011315Y-81909819D01*
X158011315Y-81909819D02*
X157916077Y-81862200D01*
X157916077Y-81862200D02*
X157868458Y-81814580D01*
X157392267Y-81909819D02*
X157392267Y-81243152D01*
X157392267Y-80909819D02*
X157439886Y-80957438D01*
X157439886Y-80957438D02*
X157392267Y-81005057D01*
X157392267Y-81005057D02*
X157344648Y-80957438D01*
X157344648Y-80957438D02*
X157392267Y-80909819D01*
X157392267Y-80909819D02*
X157392267Y-81005057D01*
X156916077Y-81909819D02*
X156916077Y-81243152D01*
X156916077Y-81338390D02*
X156868458Y-81290771D01*
X156868458Y-81290771D02*
X156773220Y-81243152D01*
X156773220Y-81243152D02*
X156630363Y-81243152D01*
X156630363Y-81243152D02*
X156535125Y-81290771D01*
X156535125Y-81290771D02*
X156487506Y-81386009D01*
X156487506Y-81386009D02*
X156487506Y-81909819D01*
X156487506Y-81386009D02*
X156439887Y-81290771D01*
X156439887Y-81290771D02*
X156344649Y-81243152D01*
X156344649Y-81243152D02*
X156201792Y-81243152D01*
X156201792Y-81243152D02*
X156106553Y-81290771D01*
X156106553Y-81290771D02*
X156058934Y-81386009D01*
X156058934Y-81386009D02*
X156058934Y-81909819D01*
X155439887Y-81909819D02*
X155535125Y-81862200D01*
X155535125Y-81862200D02*
X155582744Y-81814580D01*
X155582744Y-81814580D02*
X155630363Y-81719342D01*
X155630363Y-81719342D02*
X155630363Y-81433628D01*
X155630363Y-81433628D02*
X155582744Y-81338390D01*
X155582744Y-81338390D02*
X155535125Y-81290771D01*
X155535125Y-81290771D02*
X155439887Y-81243152D01*
X155439887Y-81243152D02*
X155297030Y-81243152D01*
X155297030Y-81243152D02*
X155201792Y-81290771D01*
X155201792Y-81290771D02*
X155154173Y-81338390D01*
X155154173Y-81338390D02*
X155106554Y-81433628D01*
X155106554Y-81433628D02*
X155106554Y-81719342D01*
X155106554Y-81719342D02*
X155154173Y-81814580D01*
X155154173Y-81814580D02*
X155201792Y-81862200D01*
X155201792Y-81862200D02*
X155297030Y-81909819D01*
X155297030Y-81909819D02*
X155439887Y-81909819D01*
X154677982Y-81243152D02*
X154677982Y-81909819D01*
X154677982Y-81338390D02*
X154630363Y-81290771D01*
X154630363Y-81290771D02*
X154535125Y-81243152D01*
X154535125Y-81243152D02*
X154392268Y-81243152D01*
X154392268Y-81243152D02*
X154297030Y-81290771D01*
X154297030Y-81290771D02*
X154249411Y-81386009D01*
X154249411Y-81386009D02*
X154249411Y-81909819D01*
X153916077Y-81243152D02*
X153535125Y-81243152D01*
X153773220Y-80909819D02*
X153773220Y-81766961D01*
X153773220Y-81766961D02*
X153725601Y-81862200D01*
X153725601Y-81862200D02*
X153630363Y-81909819D01*
X153630363Y-81909819D02*
X153535125Y-81909819D01*
X169773220Y-83519819D02*
X169773220Y-82519819D01*
X169773220Y-82519819D02*
X169439887Y-83234104D01*
X169439887Y-83234104D02*
X169106554Y-82519819D01*
X169106554Y-82519819D02*
X169106554Y-83519819D01*
X168201792Y-83519819D02*
X168201792Y-82996009D01*
X168201792Y-82996009D02*
X168249411Y-82900771D01*
X168249411Y-82900771D02*
X168344649Y-82853152D01*
X168344649Y-82853152D02*
X168535125Y-82853152D01*
X168535125Y-82853152D02*
X168630363Y-82900771D01*
X168201792Y-83472200D02*
X168297030Y-83519819D01*
X168297030Y-83519819D02*
X168535125Y-83519819D01*
X168535125Y-83519819D02*
X168630363Y-83472200D01*
X168630363Y-83472200D02*
X168677982Y-83376961D01*
X168677982Y-83376961D02*
X168677982Y-83281723D01*
X168677982Y-83281723D02*
X168630363Y-83186485D01*
X168630363Y-83186485D02*
X168535125Y-83138866D01*
X168535125Y-83138866D02*
X168297030Y-83138866D01*
X168297030Y-83138866D02*
X168201792Y-83091247D01*
X167725601Y-83519819D02*
X167725601Y-82853152D01*
X167725601Y-83043628D02*
X167677982Y-82948390D01*
X167677982Y-82948390D02*
X167630363Y-82900771D01*
X167630363Y-82900771D02*
X167535125Y-82853152D01*
X167535125Y-82853152D02*
X167439887Y-82853152D01*
X166677982Y-83472200D02*
X166773220Y-83519819D01*
X166773220Y-83519819D02*
X166963696Y-83519819D01*
X166963696Y-83519819D02*
X167058934Y-83472200D01*
X167058934Y-83472200D02*
X167106553Y-83424580D01*
X167106553Y-83424580D02*
X167154172Y-83329342D01*
X167154172Y-83329342D02*
X167154172Y-83043628D01*
X167154172Y-83043628D02*
X167106553Y-82948390D01*
X167106553Y-82948390D02*
X167058934Y-82900771D01*
X167058934Y-82900771D02*
X166963696Y-82853152D01*
X166963696Y-82853152D02*
X166773220Y-82853152D01*
X166773220Y-82853152D02*
X166677982Y-82900771D01*
X166249410Y-83138866D02*
X165487506Y-83138866D01*
X165011315Y-82996009D02*
X164677982Y-82996009D01*
X164535125Y-83519819D02*
X165011315Y-83519819D01*
X165011315Y-83519819D02*
X165011315Y-82519819D01*
X165011315Y-82519819D02*
X164535125Y-82519819D01*
X164677982Y-82138866D02*
X164820839Y-82281723D01*
X164249410Y-82853152D02*
X163868458Y-82853152D01*
X164106553Y-82519819D02*
X164106553Y-83376961D01*
X164106553Y-83376961D02*
X164058934Y-83472200D01*
X164058934Y-83472200D02*
X163963696Y-83519819D01*
X163963696Y-83519819D02*
X163868458Y-83519819D01*
X163535124Y-83519819D02*
X163535124Y-82853152D01*
X163535124Y-82519819D02*
X163582743Y-82567438D01*
X163582743Y-82567438D02*
X163535124Y-82615057D01*
X163535124Y-82615057D02*
X163487505Y-82567438D01*
X163487505Y-82567438D02*
X163535124Y-82519819D01*
X163535124Y-82519819D02*
X163535124Y-82615057D01*
X162677982Y-83472200D02*
X162773220Y-83519819D01*
X162773220Y-83519819D02*
X162963696Y-83519819D01*
X162963696Y-83519819D02*
X163058934Y-83472200D01*
X163058934Y-83472200D02*
X163106553Y-83376961D01*
X163106553Y-83376961D02*
X163106553Y-82996009D01*
X163106553Y-82996009D02*
X163058934Y-82900771D01*
X163058934Y-82900771D02*
X162963696Y-82853152D01*
X162963696Y-82853152D02*
X162773220Y-82853152D01*
X162773220Y-82853152D02*
X162677982Y-82900771D01*
X162677982Y-82900771D02*
X162630363Y-82996009D01*
X162630363Y-82996009D02*
X162630363Y-83091247D01*
X162630363Y-83091247D02*
X163106553Y-83186485D01*
X162201791Y-82853152D02*
X162201791Y-83519819D01*
X162201791Y-82948390D02*
X162154172Y-82900771D01*
X162154172Y-82900771D02*
X162058934Y-82853152D01*
X162058934Y-82853152D02*
X161916077Y-82853152D01*
X161916077Y-82853152D02*
X161820839Y-82900771D01*
X161820839Y-82900771D02*
X161773220Y-82996009D01*
X161773220Y-82996009D02*
X161773220Y-83519819D01*
X161297029Y-82853152D02*
X161297029Y-83519819D01*
X161297029Y-82948390D02*
X161249410Y-82900771D01*
X161249410Y-82900771D02*
X161154172Y-82853152D01*
X161154172Y-82853152D02*
X161011315Y-82853152D01*
X161011315Y-82853152D02*
X160916077Y-82900771D01*
X160916077Y-82900771D02*
X160868458Y-82996009D01*
X160868458Y-82996009D02*
X160868458Y-83519819D01*
X160011315Y-83472200D02*
X160106553Y-83519819D01*
X160106553Y-83519819D02*
X160297029Y-83519819D01*
X160297029Y-83519819D02*
X160392267Y-83472200D01*
X160392267Y-83472200D02*
X160439886Y-83376961D01*
X160439886Y-83376961D02*
X160439886Y-82996009D01*
X160439886Y-82996009D02*
X160392267Y-82900771D01*
X160392267Y-82900771D02*
X160297029Y-82853152D01*
X160297029Y-82853152D02*
X160106553Y-82853152D01*
X160106553Y-82853152D02*
X160011315Y-82900771D01*
X160011315Y-82900771D02*
X159963696Y-82996009D01*
X159963696Y-82996009D02*
X159963696Y-83091247D01*
X159963696Y-83091247D02*
X160439886Y-83186485D01*
X158249410Y-82567438D02*
X158344648Y-82519819D01*
X158344648Y-82519819D02*
X158487505Y-82519819D01*
X158487505Y-82519819D02*
X158630362Y-82567438D01*
X158630362Y-82567438D02*
X158725600Y-82662676D01*
X158725600Y-82662676D02*
X158773219Y-82757914D01*
X158773219Y-82757914D02*
X158820838Y-82948390D01*
X158820838Y-82948390D02*
X158820838Y-83091247D01*
X158820838Y-83091247D02*
X158773219Y-83281723D01*
X158773219Y-83281723D02*
X158725600Y-83376961D01*
X158725600Y-83376961D02*
X158630362Y-83472200D01*
X158630362Y-83472200D02*
X158487505Y-83519819D01*
X158487505Y-83519819D02*
X158392267Y-83519819D01*
X158392267Y-83519819D02*
X158249410Y-83472200D01*
X158249410Y-83472200D02*
X158201791Y-83424580D01*
X158201791Y-83424580D02*
X158201791Y-83091247D01*
X158201791Y-83091247D02*
X158392267Y-83091247D01*
X157392267Y-83472200D02*
X157487505Y-83519819D01*
X157487505Y-83519819D02*
X157677981Y-83519819D01*
X157677981Y-83519819D02*
X157773219Y-83472200D01*
X157773219Y-83472200D02*
X157820838Y-83376961D01*
X157820838Y-83376961D02*
X157820838Y-82996009D01*
X157820838Y-82996009D02*
X157773219Y-82900771D01*
X157773219Y-82900771D02*
X157677981Y-82853152D01*
X157677981Y-82853152D02*
X157487505Y-82853152D01*
X157487505Y-82853152D02*
X157392267Y-82900771D01*
X157392267Y-82900771D02*
X157344648Y-82996009D01*
X157344648Y-82996009D02*
X157344648Y-83091247D01*
X157344648Y-83091247D02*
X157820838Y-83186485D01*
X156916076Y-82853152D02*
X156916076Y-83519819D01*
X156916076Y-82948390D02*
X156868457Y-82900771D01*
X156868457Y-82900771D02*
X156773219Y-82853152D01*
X156773219Y-82853152D02*
X156630362Y-82853152D01*
X156630362Y-82853152D02*
X156535124Y-82900771D01*
X156535124Y-82900771D02*
X156487505Y-82996009D01*
X156487505Y-82996009D02*
X156487505Y-83519819D01*
X155582743Y-83519819D02*
X155582743Y-82519819D01*
X155582743Y-83472200D02*
X155677981Y-83519819D01*
X155677981Y-83519819D02*
X155868457Y-83519819D01*
X155868457Y-83519819D02*
X155963695Y-83472200D01*
X155963695Y-83472200D02*
X156011314Y-83424580D01*
X156011314Y-83424580D02*
X156058933Y-83329342D01*
X156058933Y-83329342D02*
X156058933Y-83043628D01*
X156058933Y-83043628D02*
X156011314Y-82948390D01*
X156011314Y-82948390D02*
X155963695Y-82900771D01*
X155963695Y-82900771D02*
X155868457Y-82853152D01*
X155868457Y-82853152D02*
X155677981Y-82853152D01*
X155677981Y-82853152D02*
X155582743Y-82900771D01*
X155106552Y-83519819D02*
X155106552Y-82853152D01*
X155106552Y-83043628D02*
X155058933Y-82948390D01*
X155058933Y-82948390D02*
X155011314Y-82900771D01*
X155011314Y-82900771D02*
X154916076Y-82853152D01*
X154916076Y-82853152D02*
X154820838Y-82853152D01*
X154344647Y-83519819D02*
X154439885Y-83472200D01*
X154439885Y-83472200D02*
X154487504Y-83424580D01*
X154487504Y-83424580D02*
X154535123Y-83329342D01*
X154535123Y-83329342D02*
X154535123Y-83043628D01*
X154535123Y-83043628D02*
X154487504Y-82948390D01*
X154487504Y-82948390D02*
X154439885Y-82900771D01*
X154439885Y-82900771D02*
X154344647Y-82853152D01*
X154344647Y-82853152D02*
X154201790Y-82853152D01*
X154201790Y-82853152D02*
X154106552Y-82900771D01*
X154106552Y-82900771D02*
X154058933Y-82948390D01*
X154058933Y-82948390D02*
X154011314Y-83043628D01*
X154011314Y-83043628D02*
X154011314Y-83329342D01*
X154011314Y-83329342D02*
X154058933Y-83424580D01*
X154058933Y-83424580D02*
X154106552Y-83472200D01*
X154106552Y-83472200D02*
X154201790Y-83519819D01*
X154201790Y-83519819D02*
X154344647Y-83519819D01*
X153582742Y-82853152D02*
X153582742Y-83519819D01*
X153582742Y-82948390D02*
X153535123Y-82900771D01*
X153535123Y-82900771D02*
X153439885Y-82853152D01*
X153439885Y-82853152D02*
X153297028Y-82853152D01*
X153297028Y-82853152D02*
X153201790Y-82900771D01*
X153201790Y-82900771D02*
X153154171Y-82996009D01*
X153154171Y-82996009D02*
X153154171Y-83519819D01*
X152677980Y-83138866D02*
X151916076Y-83138866D01*
X151106552Y-82996009D02*
X151439885Y-82996009D01*
X151439885Y-83519819D02*
X151439885Y-82519819D01*
X151439885Y-82519819D02*
X150963695Y-82519819D01*
X150439885Y-83519819D02*
X150535123Y-83472200D01*
X150535123Y-83472200D02*
X150582742Y-83424580D01*
X150582742Y-83424580D02*
X150630361Y-83329342D01*
X150630361Y-83329342D02*
X150630361Y-83043628D01*
X150630361Y-83043628D02*
X150582742Y-82948390D01*
X150582742Y-82948390D02*
X150535123Y-82900771D01*
X150535123Y-82900771D02*
X150439885Y-82853152D01*
X150439885Y-82853152D02*
X150297028Y-82853152D01*
X150297028Y-82853152D02*
X150201790Y-82900771D01*
X150201790Y-82900771D02*
X150154171Y-82948390D01*
X150154171Y-82948390D02*
X150106552Y-83043628D01*
X150106552Y-83043628D02*
X150106552Y-83329342D01*
X150106552Y-83329342D02*
X150154171Y-83424580D01*
X150154171Y-83424580D02*
X150201790Y-83472200D01*
X150201790Y-83472200D02*
X150297028Y-83519819D01*
X150297028Y-83519819D02*
X150439885Y-83519819D01*
X149677980Y-82853152D02*
X149677980Y-83519819D01*
X149677980Y-82948390D02*
X149630361Y-82900771D01*
X149630361Y-82900771D02*
X149535123Y-82853152D01*
X149535123Y-82853152D02*
X149392266Y-82853152D01*
X149392266Y-82853152D02*
X149297028Y-82900771D01*
X149297028Y-82900771D02*
X149249409Y-82996009D01*
X149249409Y-82996009D02*
X149249409Y-83519819D01*
X148916075Y-82853152D02*
X148535123Y-82853152D01*
X148773218Y-82519819D02*
X148773218Y-83376961D01*
X148773218Y-83376961D02*
X148725599Y-83472200D01*
X148725599Y-83472200D02*
X148630361Y-83519819D01*
X148630361Y-83519819D02*
X148535123Y-83519819D01*
X147773218Y-83519819D02*
X147773218Y-82996009D01*
X147773218Y-82996009D02*
X147820837Y-82900771D01*
X147820837Y-82900771D02*
X147916075Y-82853152D01*
X147916075Y-82853152D02*
X148106551Y-82853152D01*
X148106551Y-82853152D02*
X148201789Y-82900771D01*
X147773218Y-83472200D02*
X147868456Y-83519819D01*
X147868456Y-83519819D02*
X148106551Y-83519819D01*
X148106551Y-83519819D02*
X148201789Y-83472200D01*
X148201789Y-83472200D02*
X148249408Y-83376961D01*
X148249408Y-83376961D02*
X148249408Y-83281723D01*
X148249408Y-83281723D02*
X148201789Y-83186485D01*
X148201789Y-83186485D02*
X148106551Y-83138866D01*
X148106551Y-83138866D02*
X147868456Y-83138866D01*
X147868456Y-83138866D02*
X147773218Y-83091247D01*
X147297027Y-83519819D02*
X147297027Y-82853152D01*
X147297027Y-82519819D02*
X147344646Y-82567438D01*
X147344646Y-82567438D02*
X147297027Y-82615057D01*
X147297027Y-82615057D02*
X147249408Y-82567438D01*
X147249408Y-82567438D02*
X147297027Y-82519819D01*
X147297027Y-82519819D02*
X147297027Y-82615057D01*
X146820837Y-82853152D02*
X146820837Y-83519819D01*
X146820837Y-82948390D02*
X146773218Y-82900771D01*
X146773218Y-82900771D02*
X146677980Y-82853152D01*
X146677980Y-82853152D02*
X146535123Y-82853152D01*
X146535123Y-82853152D02*
X146439885Y-82900771D01*
X146439885Y-82900771D02*
X146392266Y-82996009D01*
X146392266Y-82996009D02*
X146392266Y-83519819D01*
X145535123Y-83472200D02*
X145630361Y-83519819D01*
X145630361Y-83519819D02*
X145820837Y-83519819D01*
X145820837Y-83519819D02*
X145916075Y-83472200D01*
X145916075Y-83472200D02*
X145963694Y-83376961D01*
X145963694Y-83376961D02*
X145963694Y-82996009D01*
X145963694Y-82996009D02*
X145916075Y-82900771D01*
X145916075Y-82900771D02*
X145820837Y-82853152D01*
X145820837Y-82853152D02*
X145630361Y-82853152D01*
X145630361Y-82853152D02*
X145535123Y-82900771D01*
X145535123Y-82900771D02*
X145487504Y-82996009D01*
X145487504Y-82996009D02*
X145487504Y-83091247D01*
X145487504Y-83091247D02*
X145963694Y-83186485D01*
M02*
