%TF.GenerationSoftware,KiCad,Pcbnew,7.0.7*%
%TF.CreationDate,2023-09-13T14:30:02-04:00*%
%TF.ProjectId,Alim,416c696d-2e6b-4696-9361-645f70636258,rev?*%
%TF.SameCoordinates,Original*%
%TF.FileFunction,Copper,L2,Inr*%
%TF.FilePolarity,Positive*%
%FSLAX46Y46*%
G04 Gerber Fmt 4.6, Leading zero omitted, Abs format (unit mm)*
G04 Created by KiCad (PCBNEW 7.0.7) date 2023-09-13 14:30:02*
%MOMM*%
%LPD*%
G01*
G04 APERTURE LIST*
G04 Aperture macros list*
%AMRoundRect*
0 Rectangle with rounded corners*
0 $1 Rounding radius*
0 $2 $3 $4 $5 $6 $7 $8 $9 X,Y pos of 4 corners*
0 Add a 4 corners polygon primitive as box body*
4,1,4,$2,$3,$4,$5,$6,$7,$8,$9,$2,$3,0*
0 Add four circle primitives for the rounded corners*
1,1,$1+$1,$2,$3*
1,1,$1+$1,$4,$5*
1,1,$1+$1,$6,$7*
1,1,$1+$1,$8,$9*
0 Add four rect primitives between the rounded corners*
20,1,$1+$1,$2,$3,$4,$5,0*
20,1,$1+$1,$4,$5,$6,$7,0*
20,1,$1+$1,$6,$7,$8,$9,0*
20,1,$1+$1,$8,$9,$2,$3,0*%
G04 Aperture macros list end*
%TA.AperFunction,ComponentPad*%
%ADD10R,2.400000X2.400000*%
%TD*%
%TA.AperFunction,ComponentPad*%
%ADD11C,2.400000*%
%TD*%
%TA.AperFunction,ComponentPad*%
%ADD12R,1.200000X1.200000*%
%TD*%
%TA.AperFunction,ComponentPad*%
%ADD13C,1.200000*%
%TD*%
%TA.AperFunction,ComponentPad*%
%ADD14RoundRect,0.750000X-0.750000X-0.750000X0.750000X-0.750000X0.750000X0.750000X-0.750000X0.750000X0*%
%TD*%
%TA.AperFunction,ComponentPad*%
%ADD15C,3.000000*%
%TD*%
%TA.AperFunction,ComponentPad*%
%ADD16R,2.100000X2.100000*%
%TD*%
%TA.AperFunction,ComponentPad*%
%ADD17C,2.100000*%
%TD*%
%TA.AperFunction,ComponentPad*%
%ADD18R,3.200000X3.200000*%
%TD*%
%TA.AperFunction,ComponentPad*%
%ADD19O,3.200000X3.200000*%
%TD*%
%TA.AperFunction,ComponentPad*%
%ADD20C,1.524000*%
%TD*%
%TA.AperFunction,ViaPad*%
%ADD21C,0.800000*%
%TD*%
G04 APERTURE END LIST*
D10*
%TO.N,Net-(U1-VCC)*%
%TO.C,C1*%
X124230000Y-100680000D03*
D11*
%TO.N,GND*%
X129230000Y-100680000D03*
%TD*%
D12*
%TO.N,Net-(U1-timing_capacitor)*%
%TO.C,C2*%
X135740000Y-104350000D03*
D13*
%TO.N,GND*%
X135740000Y-102350000D03*
%TD*%
D14*
%TO.N,Net-(J1-Pin_1)*%
%TO.C,F1*%
X101605000Y-111740000D03*
X109225000Y-111740000D03*
D15*
%TO.N,Net-(U1-VCC)*%
X128195000Y-111740000D03*
X135815000Y-111740000D03*
%TD*%
D16*
%TO.N,GND*%
%TO.C,J2*%
X174650000Y-80270000D03*
D17*
%TO.N,Net-(J2-Pin_2)*%
X174650000Y-82810000D03*
%TD*%
D10*
%TO.N,Net-(J2-Pin_2)*%
%TO.C,C3*%
X137502755Y-85820000D03*
D11*
%TO.N,GND*%
X130002755Y-85820000D03*
%TD*%
D18*
%TO.N,Net-(D1-K)*%
%TO.C,D1*%
X161730000Y-87560000D03*
D19*
%TO.N,GND*%
X146490000Y-87560000D03*
%TD*%
D20*
%TO.N,Net-(D1-K)*%
%TO.C,L1*%
X165450000Y-114100000D03*
%TO.N,Net-(J2-Pin_2)*%
X165450000Y-96320000D03*
%TD*%
D16*
%TO.N,Net-(J1-Pin_1)*%
%TO.C,J1*%
X103810000Y-82810000D03*
D17*
%TO.N,GND*%
X103810000Y-80270000D03*
%TD*%
D21*
%TO.N,GND*%
X123511517Y-96800000D03*
X108511517Y-101800000D03*
X173511517Y-96800000D03*
X153511517Y-86800000D03*
X158511517Y-111800000D03*
X138511517Y-81800000D03*
X103511517Y-91800000D03*
X143511517Y-91800000D03*
X168511517Y-86800000D03*
X118511517Y-96800000D03*
X163511517Y-106800000D03*
X168511517Y-91800000D03*
X158511517Y-106800000D03*
X143511517Y-106800000D03*
X153511517Y-96800000D03*
X138511517Y-91800000D03*
X123511517Y-81800000D03*
X168511517Y-81800000D03*
X138511517Y-111800000D03*
X143511517Y-86800000D03*
X112390000Y-79840000D03*
X118511517Y-86800000D03*
X113511517Y-106800000D03*
X158511517Y-81800000D03*
X133511517Y-106800000D03*
X133511517Y-96800000D03*
X158511517Y-101800000D03*
X142030000Y-101460000D03*
X118511517Y-91800000D03*
X108511517Y-96800000D03*
X133511517Y-81800000D03*
X147770000Y-102740000D03*
X128511517Y-106800000D03*
X142030000Y-100190000D03*
X153511517Y-81800000D03*
X143511517Y-81800000D03*
X133511517Y-91800000D03*
X168511517Y-96800000D03*
X168511517Y-111800000D03*
X153511517Y-101800000D03*
X158511517Y-91800000D03*
X173511517Y-86800000D03*
X163511517Y-91800000D03*
X113511517Y-111800000D03*
X173511517Y-106800000D03*
X163511517Y-111800000D03*
X158511517Y-86800000D03*
X143511517Y-111800000D03*
X163511517Y-96800000D03*
X173511517Y-111800000D03*
X128511517Y-91800000D03*
X103511517Y-106800000D03*
X123511517Y-111800000D03*
X118511517Y-106800000D03*
X173511517Y-91800000D03*
X153511517Y-106800000D03*
X142030000Y-102730000D03*
X168511517Y-106800000D03*
X108511517Y-81800000D03*
X163511517Y-81800000D03*
X133511517Y-101800000D03*
X148511517Y-81800000D03*
X108511517Y-91800000D03*
X123511517Y-91800000D03*
X103511517Y-96800000D03*
X103511517Y-86800000D03*
X113511517Y-91800000D03*
X108511517Y-86800000D03*
X128511517Y-81800000D03*
X153511517Y-111800000D03*
X113511517Y-101800000D03*
X173511517Y-101800000D03*
X113511517Y-86800000D03*
X113511517Y-81800000D03*
X158511517Y-96800000D03*
X123511517Y-86800000D03*
X133511517Y-86800000D03*
X128511517Y-96800000D03*
X118511517Y-101800000D03*
X103511517Y-101800000D03*
X147770000Y-101460000D03*
X113511517Y-96800000D03*
X118511517Y-81800000D03*
X163511517Y-101800000D03*
X123511517Y-106800000D03*
X146030000Y-95560000D03*
X118511517Y-111800000D03*
X168511517Y-101800000D03*
X108511517Y-106800000D03*
%TD*%
%TA.AperFunction,Conductor*%
%TO.N,GND*%
G36*
X178432539Y-76870185D02*
G01*
X178478294Y-76922989D01*
X178489500Y-76974500D01*
X178489500Y-116025500D01*
X178469815Y-116092539D01*
X178417011Y-116138294D01*
X178365500Y-116149500D01*
X99814500Y-116149500D01*
X99747461Y-116129815D01*
X99701706Y-116077011D01*
X99690500Y-116025500D01*
X99690500Y-114100002D01*
X164174647Y-114100002D01*
X164194021Y-114321457D01*
X164194022Y-114321465D01*
X164251558Y-114536191D01*
X164251559Y-114536193D01*
X164251560Y-114536196D01*
X164298536Y-114636936D01*
X164345511Y-114737676D01*
X164345512Y-114737677D01*
X164473023Y-114919781D01*
X164630219Y-115076977D01*
X164812323Y-115204488D01*
X165013804Y-115298440D01*
X165228537Y-115355978D01*
X165386724Y-115369817D01*
X165449998Y-115375353D01*
X165450000Y-115375353D01*
X165450002Y-115375353D01*
X165505365Y-115370509D01*
X165671463Y-115355978D01*
X165886196Y-115298440D01*
X166087677Y-115204488D01*
X166269781Y-115076977D01*
X166426977Y-114919781D01*
X166554488Y-114737677D01*
X166648440Y-114536196D01*
X166705978Y-114321463D01*
X166725353Y-114100000D01*
X166705978Y-113878537D01*
X166648440Y-113663804D01*
X166554488Y-113462324D01*
X166554486Y-113462321D01*
X166554485Y-113462319D01*
X166426978Y-113280220D01*
X166358072Y-113211314D01*
X166269781Y-113123023D01*
X166087677Y-112995512D01*
X166087678Y-112995512D01*
X166087676Y-112995511D01*
X165986936Y-112948536D01*
X165886196Y-112901560D01*
X165886193Y-112901559D01*
X165886191Y-112901558D01*
X165671465Y-112844022D01*
X165671457Y-112844021D01*
X165450002Y-112824647D01*
X165449998Y-112824647D01*
X165228542Y-112844021D01*
X165228535Y-112844022D01*
X165013800Y-112901561D01*
X164812323Y-112995512D01*
X164812319Y-112995514D01*
X164630217Y-113123023D01*
X164473023Y-113280217D01*
X164345514Y-113462319D01*
X164345512Y-113462323D01*
X164251561Y-113663800D01*
X164194022Y-113878535D01*
X164194021Y-113878542D01*
X164174647Y-114099997D01*
X164174647Y-114100002D01*
X99690500Y-114100002D01*
X99690500Y-113404650D01*
X99710185Y-113337611D01*
X99762989Y-113291856D01*
X99832147Y-113281912D01*
X99895703Y-113310937D01*
X99902167Y-113316955D01*
X99989862Y-113404650D01*
X100045200Y-113459988D01*
X100231404Y-113588991D01*
X100231405Y-113588991D01*
X100231409Y-113588994D01*
X100336995Y-113636953D01*
X100437661Y-113682678D01*
X100437662Y-113682678D01*
X100437664Y-113682679D01*
X100657331Y-113738030D01*
X100772270Y-113747075D01*
X100790362Y-113748500D01*
X100790364Y-113748500D01*
X102419638Y-113748500D01*
X102436577Y-113747166D01*
X102552669Y-113738030D01*
X102772336Y-113682679D01*
X102978591Y-113588994D01*
X103164802Y-113459986D01*
X103324986Y-113299802D01*
X103453994Y-113113591D01*
X103547679Y-112907336D01*
X103603030Y-112687669D01*
X103613500Y-112554638D01*
X107216500Y-112554638D01*
X107226970Y-112687668D01*
X107282321Y-112907338D01*
X107376008Y-113113595D01*
X107505014Y-113299803D01*
X107665196Y-113459985D01*
X107851404Y-113588991D01*
X107851405Y-113588991D01*
X107851409Y-113588994D01*
X107956995Y-113636953D01*
X108057661Y-113682678D01*
X108057662Y-113682678D01*
X108057664Y-113682679D01*
X108277331Y-113738030D01*
X108392270Y-113747075D01*
X108410362Y-113748500D01*
X108410364Y-113748500D01*
X110039638Y-113748500D01*
X110056577Y-113747166D01*
X110172669Y-113738030D01*
X110392336Y-113682679D01*
X110598591Y-113588994D01*
X110784802Y-113459986D01*
X110944986Y-113299802D01*
X111073994Y-113113591D01*
X111167679Y-112907336D01*
X111223030Y-112687669D01*
X111233500Y-112554636D01*
X111233500Y-111739999D01*
X126181807Y-111739999D01*
X126200557Y-112014130D01*
X126200558Y-112014132D01*
X126256458Y-112283141D01*
X126256463Y-112283158D01*
X126348476Y-112542056D01*
X126474889Y-112786024D01*
X126474893Y-112786030D01*
X126633340Y-113010499D01*
X126633343Y-113010502D01*
X126820889Y-113211314D01*
X127034031Y-113384718D01*
X127034033Y-113384719D01*
X127034034Y-113384720D01*
X127268801Y-113527485D01*
X127410403Y-113588991D01*
X127520823Y-113636953D01*
X127785404Y-113711085D01*
X128024720Y-113743978D01*
X128057614Y-113748500D01*
X128057615Y-113748500D01*
X128332386Y-113748500D01*
X128361733Y-113744466D01*
X128604596Y-113711085D01*
X128869177Y-113636953D01*
X129121200Y-113527484D01*
X129355969Y-113384718D01*
X129569111Y-113211314D01*
X129756657Y-113010502D01*
X129915111Y-112786023D01*
X130041523Y-112542058D01*
X130133538Y-112283153D01*
X130133539Y-112283146D01*
X130133541Y-112283141D01*
X130159491Y-112158259D01*
X130189442Y-112014130D01*
X130208193Y-111740000D01*
X130208193Y-111739999D01*
X133801807Y-111739999D01*
X133820557Y-112014130D01*
X133820558Y-112014132D01*
X133876458Y-112283141D01*
X133876463Y-112283158D01*
X133968476Y-112542056D01*
X134094889Y-112786024D01*
X134094893Y-112786030D01*
X134253340Y-113010499D01*
X134253343Y-113010502D01*
X134440889Y-113211314D01*
X134654031Y-113384718D01*
X134654033Y-113384719D01*
X134654034Y-113384720D01*
X134888801Y-113527485D01*
X135030403Y-113588991D01*
X135140823Y-113636953D01*
X135405404Y-113711085D01*
X135644720Y-113743978D01*
X135677614Y-113748500D01*
X135677615Y-113748500D01*
X135952386Y-113748500D01*
X135981733Y-113744466D01*
X136224596Y-113711085D01*
X136489177Y-113636953D01*
X136741200Y-113527484D01*
X136975969Y-113384718D01*
X137189111Y-113211314D01*
X137376657Y-113010502D01*
X137535111Y-112786023D01*
X137661523Y-112542058D01*
X137753538Y-112283153D01*
X137753539Y-112283146D01*
X137753541Y-112283141D01*
X137779491Y-112158259D01*
X137809442Y-112014130D01*
X137828193Y-111740000D01*
X137809442Y-111465870D01*
X137790141Y-111372989D01*
X137753541Y-111196858D01*
X137753536Y-111196841D01*
X137661523Y-110937943D01*
X137661523Y-110937942D01*
X137535111Y-110693977D01*
X137535110Y-110693975D01*
X137535106Y-110693969D01*
X137376659Y-110469500D01*
X137280378Y-110366409D01*
X137189111Y-110268686D01*
X136975969Y-110095282D01*
X136975967Y-110095281D01*
X136975965Y-110095279D01*
X136741198Y-109952514D01*
X136489178Y-109843047D01*
X136224602Y-109768916D01*
X136224597Y-109768915D01*
X136224596Y-109768915D01*
X136028559Y-109741970D01*
X135952386Y-109731500D01*
X135952385Y-109731500D01*
X135677615Y-109731500D01*
X135677614Y-109731500D01*
X135405404Y-109768915D01*
X135405397Y-109768916D01*
X135140821Y-109843047D01*
X134888801Y-109952514D01*
X134654034Y-110095279D01*
X134440892Y-110268683D01*
X134253340Y-110469500D01*
X134094893Y-110693969D01*
X134094889Y-110693975D01*
X133968476Y-110937943D01*
X133876463Y-111196841D01*
X133876458Y-111196858D01*
X133820558Y-111465867D01*
X133820557Y-111465869D01*
X133801807Y-111739999D01*
X130208193Y-111739999D01*
X130189442Y-111465870D01*
X130170141Y-111372989D01*
X130133541Y-111196858D01*
X130133536Y-111196841D01*
X130041523Y-110937943D01*
X130041523Y-110937942D01*
X129915111Y-110693977D01*
X129915110Y-110693975D01*
X129915106Y-110693969D01*
X129756659Y-110469500D01*
X129660378Y-110366409D01*
X129569111Y-110268686D01*
X129355969Y-110095282D01*
X129355967Y-110095281D01*
X129355965Y-110095279D01*
X129121198Y-109952514D01*
X128869178Y-109843047D01*
X128604602Y-109768916D01*
X128604597Y-109768915D01*
X128604596Y-109768915D01*
X128408559Y-109741970D01*
X128332386Y-109731500D01*
X128332385Y-109731500D01*
X128057615Y-109731500D01*
X128057614Y-109731500D01*
X127785404Y-109768915D01*
X127785397Y-109768916D01*
X127520821Y-109843047D01*
X127268801Y-109952514D01*
X127034034Y-110095279D01*
X126820892Y-110268683D01*
X126633340Y-110469500D01*
X126474893Y-110693969D01*
X126474889Y-110693975D01*
X126348476Y-110937943D01*
X126256463Y-111196841D01*
X126256458Y-111196858D01*
X126200558Y-111465867D01*
X126200557Y-111465869D01*
X126181807Y-111739999D01*
X111233500Y-111739999D01*
X111233500Y-110925364D01*
X111223030Y-110792331D01*
X111167679Y-110572664D01*
X111073994Y-110366409D01*
X110944986Y-110180198D01*
X110944985Y-110180196D01*
X110784802Y-110020014D01*
X110784803Y-110020014D01*
X110598595Y-109891008D01*
X110392338Y-109797321D01*
X110245891Y-109760420D01*
X110172669Y-109741970D01*
X110128324Y-109738480D01*
X110039638Y-109731500D01*
X110039636Y-109731500D01*
X108410364Y-109731500D01*
X108410362Y-109731500D01*
X108277331Y-109741970D01*
X108057661Y-109797321D01*
X107851404Y-109891008D01*
X107665196Y-110020014D01*
X107505014Y-110180196D01*
X107376008Y-110366404D01*
X107282321Y-110572661D01*
X107226970Y-110792331D01*
X107216500Y-110925362D01*
X107216500Y-112554638D01*
X103613500Y-112554638D01*
X103613500Y-112554636D01*
X103613500Y-110925364D01*
X103603030Y-110792331D01*
X103547679Y-110572664D01*
X103453994Y-110366409D01*
X103324986Y-110180198D01*
X103324985Y-110180196D01*
X103164802Y-110020014D01*
X103164803Y-110020014D01*
X102978595Y-109891008D01*
X102772338Y-109797321D01*
X102625891Y-109760420D01*
X102552669Y-109741970D01*
X102508324Y-109738480D01*
X102419638Y-109731500D01*
X102419636Y-109731500D01*
X100790364Y-109731500D01*
X100790362Y-109731500D01*
X100657331Y-109741970D01*
X100437661Y-109797321D01*
X100231404Y-109891008D01*
X100045200Y-110020011D01*
X99902181Y-110163030D01*
X99840858Y-110196514D01*
X99771166Y-110191530D01*
X99715233Y-110149658D01*
X99690816Y-110084194D01*
X99690500Y-110075348D01*
X99690500Y-104998654D01*
X134631500Y-104998654D01*
X134638011Y-105059202D01*
X134638011Y-105059204D01*
X134689110Y-105196203D01*
X134689111Y-105196204D01*
X134776739Y-105313261D01*
X134893796Y-105400889D01*
X135030799Y-105451989D01*
X135058050Y-105454918D01*
X135091345Y-105458499D01*
X135091362Y-105458500D01*
X136388638Y-105458500D01*
X136388654Y-105458499D01*
X136415692Y-105455591D01*
X136449201Y-105451989D01*
X136586204Y-105400889D01*
X136703261Y-105313261D01*
X136790889Y-105196204D01*
X136841989Y-105059201D01*
X136845591Y-105025692D01*
X136848499Y-104998654D01*
X136848500Y-104998637D01*
X136848500Y-103701362D01*
X136848499Y-103701345D01*
X136845157Y-103670270D01*
X136841989Y-103640799D01*
X136790889Y-103503796D01*
X136703261Y-103386739D01*
X136586204Y-103299111D01*
X136586203Y-103299110D01*
X136449203Y-103248011D01*
X136388654Y-103241500D01*
X136388638Y-103241500D01*
X136329309Y-103241500D01*
X136262270Y-103221815D01*
X136241628Y-103205181D01*
X135850263Y-102813816D01*
X135816778Y-102752493D01*
X135821762Y-102682801D01*
X135863634Y-102626868D01*
X135872658Y-102620713D01*
X135945610Y-102575543D01*
X136013201Y-102486038D01*
X136013200Y-102486038D01*
X136020126Y-102476868D01*
X136023547Y-102479451D01*
X136055631Y-102444725D01*
X136123263Y-102427186D01*
X136189642Y-102448996D01*
X136206995Y-102463442D01*
X136677465Y-102933912D01*
X136679247Y-102931552D01*
X136679249Y-102931550D01*
X136770113Y-102749069D01*
X136770116Y-102749063D01*
X136825902Y-102552992D01*
X136825903Y-102552989D01*
X136844713Y-102350000D01*
X136844713Y-102349999D01*
X136825903Y-102147010D01*
X136825902Y-102147007D01*
X136770116Y-101950936D01*
X136770113Y-101950930D01*
X136679244Y-101768441D01*
X136677466Y-101766086D01*
X136677464Y-101766085D01*
X136203119Y-102240431D01*
X136141796Y-102273916D01*
X136072104Y-102268932D01*
X136016171Y-102227060D01*
X136004438Y-102208022D01*
X135983552Y-102166078D01*
X135983550Y-102166076D01*
X135900667Y-102090517D01*
X135900666Y-102090516D01*
X135894511Y-102088131D01*
X135839110Y-102045561D01*
X135815518Y-101979795D01*
X135831228Y-101911714D01*
X135851623Y-101884824D01*
X136320688Y-101415758D01*
X136320687Y-101415757D01*
X136232418Y-101361104D01*
X136232411Y-101361100D01*
X136042321Y-101287460D01*
X135841928Y-101250000D01*
X135638072Y-101250000D01*
X135437678Y-101287460D01*
X135247588Y-101361100D01*
X135247584Y-101361102D01*
X135159310Y-101415758D01*
X135629736Y-101886183D01*
X135663221Y-101947506D01*
X135658237Y-102017197D01*
X135616366Y-102073131D01*
X135607334Y-102079290D01*
X135534390Y-102124456D01*
X135459874Y-102223132D01*
X135456484Y-102220572D01*
X135424007Y-102255488D01*
X135356315Y-102272798D01*
X135290011Y-102250763D01*
X135273004Y-102236556D01*
X134802533Y-101766085D01*
X134800754Y-101768443D01*
X134709886Y-101950930D01*
X134709883Y-101950936D01*
X134654097Y-102147007D01*
X134654096Y-102147010D01*
X134635287Y-102349999D01*
X134635287Y-102350000D01*
X134654096Y-102552989D01*
X134654097Y-102552992D01*
X134709883Y-102749063D01*
X134709886Y-102749069D01*
X134800754Y-102931556D01*
X134800755Y-102931557D01*
X134802533Y-102933912D01*
X135276880Y-102459567D01*
X135338203Y-102426082D01*
X135407895Y-102431066D01*
X135463828Y-102472938D01*
X135475561Y-102491976D01*
X135496447Y-102533921D01*
X135496448Y-102533922D01*
X135579334Y-102609484D01*
X135585488Y-102611868D01*
X135640890Y-102654441D01*
X135664481Y-102720207D01*
X135648770Y-102788288D01*
X135628376Y-102815176D01*
X135238372Y-103205181D01*
X135177049Y-103238666D01*
X135150691Y-103241500D01*
X135091345Y-103241500D01*
X135030797Y-103248011D01*
X135030795Y-103248011D01*
X134893795Y-103299111D01*
X134776739Y-103386739D01*
X134689111Y-103503795D01*
X134638011Y-103640795D01*
X134638011Y-103640797D01*
X134631500Y-103701345D01*
X134631500Y-104998654D01*
X99690500Y-104998654D01*
X99690500Y-101928654D01*
X122521500Y-101928654D01*
X122528011Y-101989202D01*
X122528011Y-101989204D01*
X122564911Y-102088133D01*
X122579111Y-102126204D01*
X122666739Y-102243261D01*
X122783796Y-102330889D01*
X122898949Y-102373839D01*
X122915463Y-102379999D01*
X122920799Y-102381989D01*
X122948050Y-102384918D01*
X122981345Y-102388499D01*
X122981362Y-102388500D01*
X125478638Y-102388500D01*
X125478654Y-102388499D01*
X125505692Y-102385591D01*
X125539201Y-102381989D01*
X125544537Y-102379999D01*
X125553768Y-102376555D01*
X125676204Y-102330889D01*
X125793261Y-102243261D01*
X125880889Y-102126204D01*
X125931989Y-101989201D01*
X125936103Y-101950936D01*
X125938499Y-101928654D01*
X125938499Y-101928647D01*
X125938500Y-101928638D01*
X125938500Y-100680004D01*
X127525233Y-100680004D01*
X127544273Y-100934079D01*
X127600968Y-101182477D01*
X127600973Y-101182494D01*
X127694058Y-101419671D01*
X127694057Y-101419671D01*
X127821457Y-101640332D01*
X127863452Y-101692993D01*
X128548590Y-101007855D01*
X128609913Y-100974370D01*
X128679604Y-100979354D01*
X128734645Y-101020049D01*
X128802074Y-101107924D01*
X128802075Y-101107925D01*
X128889948Y-101175353D01*
X128931150Y-101231781D01*
X128935305Y-101301527D01*
X128902142Y-101361409D01*
X128216813Y-102046737D01*
X128377623Y-102156375D01*
X128377624Y-102156376D01*
X128607176Y-102266921D01*
X128607174Y-102266921D01*
X128850652Y-102342024D01*
X128850658Y-102342026D01*
X129102595Y-102379999D01*
X129102604Y-102380000D01*
X129357396Y-102380000D01*
X129357404Y-102379999D01*
X129609341Y-102342026D01*
X129609347Y-102342024D01*
X129852824Y-102266921D01*
X130082381Y-102156373D01*
X130243185Y-102046737D01*
X129557856Y-101361409D01*
X129524371Y-101300086D01*
X129529355Y-101230395D01*
X129570049Y-101175353D01*
X129657925Y-101107925D01*
X129725354Y-101020048D01*
X129781779Y-100978848D01*
X129851525Y-100974693D01*
X129911409Y-101007856D01*
X130596545Y-101692993D01*
X130638545Y-101640327D01*
X130765941Y-101419671D01*
X130859026Y-101182494D01*
X130859031Y-101182477D01*
X130915726Y-100934079D01*
X130934767Y-100680004D01*
X130934767Y-100679995D01*
X130915726Y-100425920D01*
X130859031Y-100177522D01*
X130859026Y-100177505D01*
X130765941Y-99940328D01*
X130765942Y-99940328D01*
X130638544Y-99719671D01*
X130596545Y-99667005D01*
X129911409Y-100352142D01*
X129850086Y-100385627D01*
X129780394Y-100380643D01*
X129725353Y-100339948D01*
X129657925Y-100252075D01*
X129657924Y-100252074D01*
X129570049Y-100184645D01*
X129528847Y-100128219D01*
X129524692Y-100058473D01*
X129557855Y-99998590D01*
X130243185Y-99313261D01*
X130082377Y-99203624D01*
X130082376Y-99203623D01*
X129852823Y-99093078D01*
X129852825Y-99093078D01*
X129609347Y-99017975D01*
X129609341Y-99017973D01*
X129357404Y-98980000D01*
X129102595Y-98980000D01*
X128850658Y-99017973D01*
X128850652Y-99017975D01*
X128607175Y-99093078D01*
X128377624Y-99203623D01*
X128377616Y-99203628D01*
X128216813Y-99313261D01*
X128902143Y-99998590D01*
X128935628Y-100059913D01*
X128930644Y-100129604D01*
X128889949Y-100184646D01*
X128802075Y-100252074D01*
X128802074Y-100252075D01*
X128734646Y-100339949D01*
X128678218Y-100381151D01*
X128608472Y-100385306D01*
X128548590Y-100352143D01*
X127863453Y-99667006D01*
X127821455Y-99719670D01*
X127694058Y-99940328D01*
X127600973Y-100177505D01*
X127600968Y-100177522D01*
X127544273Y-100425920D01*
X127525233Y-100679995D01*
X127525233Y-100680004D01*
X125938500Y-100680004D01*
X125938500Y-99431362D01*
X125938499Y-99431352D01*
X125938499Y-99431345D01*
X125935157Y-99400270D01*
X125931989Y-99370799D01*
X125880889Y-99233796D01*
X125793261Y-99116739D01*
X125676204Y-99029111D01*
X125646348Y-99017975D01*
X125539203Y-98978011D01*
X125478654Y-98971500D01*
X125478638Y-98971500D01*
X122981362Y-98971500D01*
X122981345Y-98971500D01*
X122920797Y-98978011D01*
X122920795Y-98978011D01*
X122783795Y-99029111D01*
X122666739Y-99116739D01*
X122579111Y-99233795D01*
X122528011Y-99370795D01*
X122528011Y-99370797D01*
X122521500Y-99431345D01*
X122521500Y-101928654D01*
X99690500Y-101928654D01*
X99690500Y-96320002D01*
X164174647Y-96320002D01*
X164194021Y-96541457D01*
X164194022Y-96541465D01*
X164251558Y-96756191D01*
X164251559Y-96756193D01*
X164251560Y-96756196D01*
X164298536Y-96856936D01*
X164345511Y-96957676D01*
X164345512Y-96957677D01*
X164473023Y-97139781D01*
X164630219Y-97296977D01*
X164812323Y-97424488D01*
X165013804Y-97518440D01*
X165228537Y-97575978D01*
X165386724Y-97589817D01*
X165449998Y-97595353D01*
X165450000Y-97595353D01*
X165450002Y-97595353D01*
X165505365Y-97590509D01*
X165671463Y-97575978D01*
X165886196Y-97518440D01*
X166087677Y-97424488D01*
X166269781Y-97296977D01*
X166426977Y-97139781D01*
X166554488Y-96957677D01*
X166648440Y-96756196D01*
X166705978Y-96541463D01*
X166725353Y-96320000D01*
X166705978Y-96098537D01*
X166648440Y-95883804D01*
X166554488Y-95682324D01*
X166554486Y-95682321D01*
X166554485Y-95682319D01*
X166426978Y-95500220D01*
X166426975Y-95500217D01*
X166269781Y-95343023D01*
X166087677Y-95215512D01*
X166087678Y-95215512D01*
X166087676Y-95215511D01*
X165986936Y-95168536D01*
X165886196Y-95121560D01*
X165886193Y-95121559D01*
X165886191Y-95121558D01*
X165671465Y-95064022D01*
X165671457Y-95064021D01*
X165450002Y-95044647D01*
X165449998Y-95044647D01*
X165228542Y-95064021D01*
X165228535Y-95064022D01*
X165013800Y-95121561D01*
X164812323Y-95215512D01*
X164812319Y-95215514D01*
X164630217Y-95343023D01*
X164473023Y-95500217D01*
X164345514Y-95682319D01*
X164345512Y-95682323D01*
X164251561Y-95883800D01*
X164194022Y-96098535D01*
X164194021Y-96098542D01*
X164174647Y-96319997D01*
X164174647Y-96320002D01*
X99690500Y-96320002D01*
X99690500Y-85820004D01*
X128297988Y-85820004D01*
X128317028Y-86074079D01*
X128373723Y-86322477D01*
X128373728Y-86322494D01*
X128466813Y-86559671D01*
X128466812Y-86559671D01*
X128594212Y-86780332D01*
X128636207Y-86832993D01*
X129321345Y-86147855D01*
X129382668Y-86114370D01*
X129452359Y-86119354D01*
X129507400Y-86160049D01*
X129562314Y-86231614D01*
X129574830Y-86247925D01*
X129662703Y-86315353D01*
X129703905Y-86371781D01*
X129708060Y-86441527D01*
X129674897Y-86501409D01*
X128989568Y-87186737D01*
X129150378Y-87296375D01*
X129150379Y-87296376D01*
X129379931Y-87406921D01*
X129379929Y-87406921D01*
X129623407Y-87482024D01*
X129623413Y-87482026D01*
X129875350Y-87519999D01*
X129875359Y-87520000D01*
X130130151Y-87520000D01*
X130130159Y-87519999D01*
X130382096Y-87482026D01*
X130382102Y-87482024D01*
X130625579Y-87406921D01*
X130855136Y-87296373D01*
X131015940Y-87186737D01*
X130897857Y-87068654D01*
X135794255Y-87068654D01*
X135800766Y-87129202D01*
X135800766Y-87129204D01*
X135851865Y-87266203D01*
X135851866Y-87266204D01*
X135939494Y-87383261D01*
X136056551Y-87470889D01*
X136171704Y-87513839D01*
X136188218Y-87519999D01*
X136193554Y-87521989D01*
X136220805Y-87524918D01*
X136254100Y-87528499D01*
X136254117Y-87528500D01*
X138751393Y-87528500D01*
X138751409Y-87528499D01*
X138778447Y-87525591D01*
X138811956Y-87521989D01*
X138817292Y-87519999D01*
X138826523Y-87516555D01*
X138948959Y-87470889D01*
X139066016Y-87383261D01*
X139120859Y-87309999D01*
X144402192Y-87309999D01*
X144402193Y-87310000D01*
X145574350Y-87310000D01*
X145641389Y-87329685D01*
X145687144Y-87382489D01*
X145697570Y-87447883D01*
X145684938Y-87559996D01*
X145684938Y-87560003D01*
X145697570Y-87672117D01*
X145685516Y-87740938D01*
X145638166Y-87792318D01*
X145574350Y-87810000D01*
X144402193Y-87810000D01*
X144404697Y-87846619D01*
X144463146Y-88127888D01*
X144463150Y-88127902D01*
X144559355Y-88398595D01*
X144691527Y-88653676D01*
X144857204Y-88888385D01*
X144857204Y-88888386D01*
X145053288Y-89098341D01*
X145276135Y-89279641D01*
X145276146Y-89279648D01*
X145521607Y-89428917D01*
X145785108Y-89543371D01*
X146061737Y-89620879D01*
X146061746Y-89620881D01*
X146239999Y-89645380D01*
X146240000Y-89645380D01*
X146240000Y-88475649D01*
X146259685Y-88408610D01*
X146312489Y-88362855D01*
X146377883Y-88352429D01*
X146415485Y-88356666D01*
X146445071Y-88360000D01*
X146445074Y-88360000D01*
X146534929Y-88360000D01*
X146564514Y-88356666D01*
X146602116Y-88352429D01*
X146670937Y-88364483D01*
X146722317Y-88411831D01*
X146740000Y-88475649D01*
X146740000Y-89645380D01*
X146918253Y-89620881D01*
X146918262Y-89620879D01*
X147194891Y-89543371D01*
X147458392Y-89428917D01*
X147703853Y-89279648D01*
X147703864Y-89279641D01*
X147791118Y-89208654D01*
X159621500Y-89208654D01*
X159628011Y-89269202D01*
X159628011Y-89269204D01*
X159679110Y-89406204D01*
X159679111Y-89406204D01*
X159766739Y-89523261D01*
X159883796Y-89610889D01*
X160020799Y-89661989D01*
X160048050Y-89664918D01*
X160081345Y-89668499D01*
X160081362Y-89668500D01*
X163378638Y-89668500D01*
X163378654Y-89668499D01*
X163405692Y-89665591D01*
X163439201Y-89661989D01*
X163576204Y-89610889D01*
X163693261Y-89523261D01*
X163780889Y-89406204D01*
X163831989Y-89269201D01*
X163835591Y-89235692D01*
X163838499Y-89208654D01*
X163838500Y-89208637D01*
X163838500Y-85911362D01*
X163838499Y-85911345D01*
X163835157Y-85880270D01*
X163831989Y-85850799D01*
X163820501Y-85820000D01*
X163809522Y-85790564D01*
X163780889Y-85713796D01*
X163693261Y-85596739D01*
X163576204Y-85509111D01*
X163576204Y-85509110D01*
X163439203Y-85458011D01*
X163378654Y-85451500D01*
X163378638Y-85451500D01*
X160081362Y-85451500D01*
X160081345Y-85451500D01*
X160020797Y-85458011D01*
X160020795Y-85458011D01*
X159883795Y-85509111D01*
X159766739Y-85596739D01*
X159679111Y-85713795D01*
X159628011Y-85850795D01*
X159628011Y-85850797D01*
X159621500Y-85911345D01*
X159621500Y-89208654D01*
X147791118Y-89208654D01*
X147926711Y-89098341D01*
X148122795Y-88888386D01*
X148122795Y-88888385D01*
X148288472Y-88653676D01*
X148420644Y-88398595D01*
X148516849Y-88127902D01*
X148516853Y-88127888D01*
X148575302Y-87846619D01*
X148577807Y-87810000D01*
X147405650Y-87810000D01*
X147338611Y-87790315D01*
X147292856Y-87737511D01*
X147282430Y-87672117D01*
X147295062Y-87560003D01*
X147295062Y-87559996D01*
X147282430Y-87447883D01*
X147294484Y-87379062D01*
X147341834Y-87327682D01*
X147405650Y-87310000D01*
X148577807Y-87310000D01*
X148577807Y-87309999D01*
X148575302Y-87273380D01*
X148516853Y-86992111D01*
X148516849Y-86992097D01*
X148420644Y-86721404D01*
X148288472Y-86466323D01*
X148122795Y-86231614D01*
X148122795Y-86231613D01*
X147926711Y-86021658D01*
X147703864Y-85840358D01*
X147703853Y-85840351D01*
X147458392Y-85691082D01*
X147194891Y-85576628D01*
X146918262Y-85499120D01*
X146918255Y-85499119D01*
X146740000Y-85474618D01*
X146740000Y-86644350D01*
X146720315Y-86711389D01*
X146667511Y-86757144D01*
X146602116Y-86767570D01*
X146534930Y-86760000D01*
X146534926Y-86760000D01*
X146445074Y-86760000D01*
X146445070Y-86760000D01*
X146377884Y-86767570D01*
X146309062Y-86755516D01*
X146257682Y-86708167D01*
X146240000Y-86644350D01*
X146240000Y-85474618D01*
X146061744Y-85499119D01*
X146061737Y-85499120D01*
X145785108Y-85576628D01*
X145521607Y-85691082D01*
X145276146Y-85840351D01*
X145276135Y-85840358D01*
X145053288Y-86021658D01*
X144857204Y-86231613D01*
X144857204Y-86231614D01*
X144691527Y-86466323D01*
X144559355Y-86721404D01*
X144463150Y-86992097D01*
X144463146Y-86992111D01*
X144404697Y-87273380D01*
X144402192Y-87309999D01*
X139120859Y-87309999D01*
X139153644Y-87266204D01*
X139204744Y-87129201D01*
X139208346Y-87095692D01*
X139211254Y-87068654D01*
X139211255Y-87068637D01*
X139211255Y-84571362D01*
X139211254Y-84571345D01*
X139207912Y-84540270D01*
X139204744Y-84510799D01*
X139153644Y-84373796D01*
X139066016Y-84256739D01*
X138948959Y-84169111D01*
X138919103Y-84157975D01*
X138811958Y-84118011D01*
X138751409Y-84111500D01*
X138751393Y-84111500D01*
X136254117Y-84111500D01*
X136254100Y-84111500D01*
X136193552Y-84118011D01*
X136193550Y-84118011D01*
X136056550Y-84169111D01*
X135939494Y-84256739D01*
X135851866Y-84373795D01*
X135800766Y-84510795D01*
X135800766Y-84510797D01*
X135794255Y-84571345D01*
X135794255Y-87068654D01*
X130897857Y-87068654D01*
X130330611Y-86501409D01*
X130297126Y-86440086D01*
X130302110Y-86370395D01*
X130342804Y-86315353D01*
X130430680Y-86247925D01*
X130498109Y-86160048D01*
X130554534Y-86118848D01*
X130624280Y-86114693D01*
X130684164Y-86147856D01*
X131369300Y-86832993D01*
X131411300Y-86780327D01*
X131538696Y-86559671D01*
X131631781Y-86322494D01*
X131631786Y-86322477D01*
X131688481Y-86074079D01*
X131707522Y-85820004D01*
X131707522Y-85819995D01*
X131688481Y-85565920D01*
X131631786Y-85317522D01*
X131631781Y-85317505D01*
X131538696Y-85080328D01*
X131538697Y-85080328D01*
X131411299Y-84859671D01*
X131369300Y-84807005D01*
X130684164Y-85492142D01*
X130622841Y-85525627D01*
X130553149Y-85520643D01*
X130498108Y-85479948D01*
X130430680Y-85392075D01*
X130430680Y-85392074D01*
X130342804Y-85324645D01*
X130301602Y-85268219D01*
X130297447Y-85198473D01*
X130330610Y-85138590D01*
X131015940Y-84453261D01*
X130855132Y-84343624D01*
X130855131Y-84343623D01*
X130625578Y-84233078D01*
X130625580Y-84233078D01*
X130382102Y-84157975D01*
X130382096Y-84157973D01*
X130130159Y-84120000D01*
X129875350Y-84120000D01*
X129623413Y-84157973D01*
X129623407Y-84157975D01*
X129379930Y-84233078D01*
X129150379Y-84343623D01*
X129150371Y-84343628D01*
X128989568Y-84453261D01*
X129674898Y-85138590D01*
X129708383Y-85199913D01*
X129703399Y-85269604D01*
X129662704Y-85324646D01*
X129574830Y-85392074D01*
X129574829Y-85392075D01*
X129507401Y-85479949D01*
X129450973Y-85521151D01*
X129381227Y-85525306D01*
X129321345Y-85492143D01*
X128636208Y-84807006D01*
X128594210Y-84859670D01*
X128466813Y-85080328D01*
X128373728Y-85317505D01*
X128373723Y-85317522D01*
X128317028Y-85565920D01*
X128297988Y-85819995D01*
X128297988Y-85820004D01*
X99690500Y-85820004D01*
X99690500Y-83908654D01*
X102251500Y-83908654D01*
X102258011Y-83969202D01*
X102258011Y-83969204D01*
X102297380Y-84074752D01*
X102309111Y-84106204D01*
X102396739Y-84223261D01*
X102513796Y-84310889D01*
X102650799Y-84361989D01*
X102678050Y-84364918D01*
X102711345Y-84368499D01*
X102711362Y-84368500D01*
X104908638Y-84368500D01*
X104908654Y-84368499D01*
X104935692Y-84365591D01*
X104969201Y-84361989D01*
X105106204Y-84310889D01*
X105223261Y-84223261D01*
X105310889Y-84106204D01*
X105361989Y-83969201D01*
X105365591Y-83935692D01*
X105368499Y-83908654D01*
X105368499Y-83908647D01*
X105368500Y-83908638D01*
X105368500Y-82810000D01*
X173086681Y-82810000D01*
X173105927Y-83054554D01*
X173163193Y-83293087D01*
X173257071Y-83519730D01*
X173385246Y-83728893D01*
X173385248Y-83728896D01*
X173544567Y-83915433D01*
X173731104Y-84074752D01*
X173731106Y-84074753D01*
X173940269Y-84202928D01*
X173989358Y-84223261D01*
X174166908Y-84296805D01*
X174405443Y-84354072D01*
X174650000Y-84373319D01*
X174894557Y-84354072D01*
X175133092Y-84296805D01*
X175359732Y-84202927D01*
X175568896Y-84074752D01*
X175755433Y-83915433D01*
X175914752Y-83728896D01*
X176042927Y-83519732D01*
X176136805Y-83293092D01*
X176194072Y-83054557D01*
X176213319Y-82810000D01*
X176194072Y-82565443D01*
X176136805Y-82326908D01*
X176087181Y-82207108D01*
X176042928Y-82100269D01*
X175928720Y-81913897D01*
X175910476Y-81846452D01*
X175931593Y-81779849D01*
X175960137Y-81749841D01*
X176057191Y-81677186D01*
X176143350Y-81562093D01*
X176143354Y-81562086D01*
X176193596Y-81427379D01*
X176193598Y-81427372D01*
X176199999Y-81367844D01*
X176200000Y-81367827D01*
X176200000Y-80520000D01*
X175316956Y-80520000D01*
X175249917Y-80500315D01*
X175204162Y-80447511D01*
X175193245Y-80387537D01*
X175194392Y-80370772D01*
X175203877Y-80232114D01*
X175190809Y-80169227D01*
X175196443Y-80099586D01*
X175238834Y-80044045D01*
X175304523Y-80020239D01*
X175312216Y-80020000D01*
X176200000Y-80020000D01*
X176200000Y-79172172D01*
X176199999Y-79172155D01*
X176193598Y-79112627D01*
X176193596Y-79112620D01*
X176143354Y-78977913D01*
X176143350Y-78977906D01*
X176057190Y-78862812D01*
X176057187Y-78862809D01*
X175942093Y-78776649D01*
X175942086Y-78776645D01*
X175807379Y-78726403D01*
X175807372Y-78726401D01*
X175747844Y-78720000D01*
X174900000Y-78720000D01*
X174900000Y-79605347D01*
X174880315Y-79672386D01*
X174827511Y-79718141D01*
X174758353Y-79728085D01*
X174742547Y-79724749D01*
X174725598Y-79720000D01*
X174725596Y-79720000D01*
X174612378Y-79720000D01*
X174612376Y-79720000D01*
X174540884Y-79729826D01*
X174471789Y-79719453D01*
X174419270Y-79673371D01*
X174400000Y-79606981D01*
X174400000Y-78720000D01*
X173552155Y-78720000D01*
X173492627Y-78726401D01*
X173492620Y-78726403D01*
X173357913Y-78776645D01*
X173357906Y-78776649D01*
X173242812Y-78862809D01*
X173242809Y-78862812D01*
X173156649Y-78977906D01*
X173156645Y-78977913D01*
X173106403Y-79112620D01*
X173106401Y-79112627D01*
X173100000Y-79172155D01*
X173100000Y-80020000D01*
X173983044Y-80020000D01*
X174050083Y-80039685D01*
X174095838Y-80092489D01*
X174106755Y-80152463D01*
X174106441Y-80157045D01*
X174106441Y-80157047D01*
X174096123Y-80307886D01*
X174109191Y-80370772D01*
X174103557Y-80440414D01*
X174061166Y-80495955D01*
X173995477Y-80519761D01*
X173987784Y-80520000D01*
X173100000Y-80520000D01*
X173100000Y-81367844D01*
X173106401Y-81427372D01*
X173106403Y-81427379D01*
X173156645Y-81562086D01*
X173156649Y-81562093D01*
X173242809Y-81677186D01*
X173339862Y-81749841D01*
X173381733Y-81805775D01*
X173386717Y-81875467D01*
X173371279Y-81913897D01*
X173257072Y-82100269D01*
X173163193Y-82326912D01*
X173105927Y-82565445D01*
X173086681Y-82810000D01*
X105368500Y-82810000D01*
X105368500Y-81711362D01*
X105368499Y-81711352D01*
X105368499Y-81711345D01*
X105364826Y-81677186D01*
X105361989Y-81650799D01*
X105310889Y-81513796D01*
X105223261Y-81396739D01*
X105117762Y-81317763D01*
X105075892Y-81261830D01*
X105070908Y-81192138D01*
X105086347Y-81153707D01*
X105195331Y-80975861D01*
X105288696Y-80750457D01*
X105345651Y-80513219D01*
X105364792Y-80269999D01*
X105345651Y-80026780D01*
X105288696Y-79789542D01*
X105195331Y-79564138D01*
X105071494Y-79362056D01*
X104458517Y-79975034D01*
X104397194Y-80008519D01*
X104327502Y-80003535D01*
X104271569Y-79961663D01*
X104268486Y-79956750D01*
X104268451Y-79956775D01*
X104263558Y-79949843D01*
X104208661Y-79891064D01*
X104160362Y-79839348D01*
X104125300Y-79818026D01*
X104078248Y-79766374D01*
X104066591Y-79697484D01*
X104094029Y-79633227D01*
X104102048Y-79624397D01*
X104717942Y-79008504D01*
X104515861Y-78884668D01*
X104290457Y-78791303D01*
X104053219Y-78734348D01*
X104053220Y-78734348D01*
X103810000Y-78715207D01*
X103566780Y-78734348D01*
X103329542Y-78791303D01*
X103104146Y-78884665D01*
X103104141Y-78884668D01*
X102902056Y-79008504D01*
X103516833Y-79623280D01*
X103550318Y-79684603D01*
X103545334Y-79754294D01*
X103507408Y-79807148D01*
X103404262Y-79891064D01*
X103404258Y-79891069D01*
X103353947Y-79962343D01*
X103299204Y-80005760D01*
X103229679Y-80012689D01*
X103167444Y-79980930D01*
X103164962Y-79978515D01*
X102548504Y-79362056D01*
X102424668Y-79564141D01*
X102424665Y-79564146D01*
X102331303Y-79789542D01*
X102274348Y-80026780D01*
X102255207Y-80269999D01*
X102274348Y-80513219D01*
X102331303Y-80750457D01*
X102424666Y-80975856D01*
X102533653Y-81153707D01*
X102551897Y-81221153D01*
X102530780Y-81287756D01*
X102502236Y-81317763D01*
X102396741Y-81396737D01*
X102396740Y-81396738D01*
X102396739Y-81396739D01*
X102373802Y-81427379D01*
X102309111Y-81513795D01*
X102258011Y-81650795D01*
X102258011Y-81650797D01*
X102251500Y-81711345D01*
X102251500Y-83908654D01*
X99690500Y-83908654D01*
X99690500Y-76974500D01*
X99710185Y-76907461D01*
X99762989Y-76861706D01*
X99814500Y-76850500D01*
X178365500Y-76850500D01*
X178432539Y-76870185D01*
G37*
%TD.AperFunction*%
%TD*%
M02*
